<svg width="161" height="143" viewBox="0 0 161 143" fill="none" xmlns="http://www.w3.org/2000/svg">
<rect x="20.0519" y="135" width="122" height="8" rx="4" fill="#E2E3E4"/>
<rect x="38.0519" y="120" width="25" height="15" rx="7.5" fill="#F58E34"/>
<rect x="99.0519" y="120" width="25" height="15" rx="7.5" fill="#F58E34"/>
<path fill-rule="evenodd" clip-rule="evenodd" d="M157.536 80.0606C160.96 76.8938 160.96 71.4815 157.536 68.3147L132.484 45.1429C127.362 40.4047 119.052 44.0379 119.052 51.0158V97.3595C119.052 100.928 121.225 103.621 124.034 104.768V105.005C124.034 108.306 126.71 110.983 130.011 110.983C133.313 110.983 135.989 108.306 135.989 105.005V99.9905L157.536 80.0606Z" fill="#2188C6"/>
<path fill-rule="evenodd" clip-rule="evenodd" d="M2.56782 80.0606C-0.855946 76.8938 -0.855938 71.4815 2.56783 68.3147L27.6198 45.1429C32.7424 40.4047 41.052 44.0379 41.052 51.0158V97.3595C41.052 100.928 38.879 103.621 36.0704 104.768V105.005C36.0704 108.306 33.394 110.983 30.0926 110.983C26.7911 110.983 24.1147 108.306 24.1147 105.005V99.9904L2.56782 80.0606Z" fill="#2188C6"/>
<path fill-rule="evenodd" clip-rule="evenodd" d="M49.7226 0.928062C37.1558 -3.28745 26.0521 8.34617 26.0521 21.6011V74.4579C26.052 74.5057 26.0519 74.5535 26.0519 74.6014C26.0519 104.977 50.6762 129.601 81.0519 129.601C111.428 129.601 136.052 104.977 136.052 74.6014C136.052 74.6012 136.052 74.601 136.052 74.6009H136.052V21.6007C136.052 8.34594 124.952 -3.30661 112.368 0.858166C108.509 2.1356 105.399 3.63768 102.423 5.07477C96.4293 7.96967 90.9814 10.6009 81.0521 10.6009C71.081 10.6009 65.527 7.94756 59.4373 5.03834C56.507 3.63847 53.4527 2.17934 49.7226 0.928062Z" fill="#2BA6F0"/>
<path d="M61.8361 88.8295C61.4649 87.9634 62.1002 87 63.0424 87H76.0616C77.0038 87 77.6391 87.9634 77.2679 88.8295L77.2186 88.9447C75.9042 92.0115 72.8886 94 69.552 94V94C66.2154 94 63.1998 92.0115 61.8854 88.9447L61.8361 88.8295Z" fill="#93D1F6"/>
<path d="M84.8361 88.8295C84.4649 87.9634 85.1002 87 86.0424 87H99.0616C100.004 87 100.639 87.9634 100.268 88.8295L100.219 88.9447C98.9042 92.0115 95.8886 94 92.552 94V94C89.2154 94 86.1998 92.0115 84.8854 88.9447L84.8361 88.8295Z" fill="#93D1F6"/>
<path d="M72.8361 99.8295C72.4649 98.9634 73.1002 98 74.0424 98H87.0616C88.0038 98 88.6391 98.9634 88.2679 99.8295L88.2186 99.9447C86.9042 103.012 83.8886 105 80.552 105V105C77.2154 105 74.1998 103.012 72.8854 99.9447L72.8361 99.8295Z" fill="#93D1F6"/>
<path fill-rule="evenodd" clip-rule="evenodd" d="M80.5521 67.5094C79.6435 67.5094 76.6195 65.3166 72.6731 61.8217C69.7536 69.2506 62.5169 74.5095 54.052 74.5095C43.0063 74.5095 34.052 65.5551 34.052 54.5095V40.5095C34.052 33.0988 38.0825 26.6296 44.0709 23.1742C43.7296 20.0611 44.6548 17.5466 47.3537 16.0095C48.2384 16.5685 49.0641 17.3639 49.8306 18.1024C51.0555 19.2824 52.1295 20.317 53.0521 20.0095C53.7054 19.7917 53.7896 18.341 53.8831 16.7313C54.0042 14.645 54.1409 12.2917 55.5521 12.0095C56.5658 11.8067 59.7993 14.8925 63.719 18.6331C69.4658 24.1174 76.6878 31.0095 80.5521 31.0095C84.7382 31.0095 91.6203 24.1659 97.1916 18.6257C100.271 15.5634 102.95 12.8994 104.552 12.0095C106.548 12.865 106.755 15.0219 106.936 16.9029C107.072 18.3196 107.193 19.5798 108.052 20.0095C108.976 20.0095 109.896 19.0546 110.936 17.9743C111.584 17.3012 112.28 16.5794 113.052 16.0095C115.217 17.0486 115.777 19.2728 115.203 22.2402C122.186 25.3603 127.052 32.3666 127.052 40.5095V54.5094C127.052 65.5551 118.098 74.5095 107.052 74.5095C98.3543 74.5095 90.9534 68.9574 88.1999 61.2041C84.4096 65.052 81.4816 67.5094 80.5521 67.5094Z" fill="#93D1F6"/>
<rect x="39.0626" y="28" width="29.5688" height="40" rx="14.7844" fill="white"/>
<rect x="46.9476" y="37" width="13.7988" height="21" rx="6.89938" fill="#122430"/>
<path d="M40.4887 28.8805C41.7007 25.2094 45.6505 23.2418 49.3109 24.4857L70.4774 31.6788C74.6607 33.1004 76.9292 37.6541 75.5441 41.8496L72.4602 51.1909L37.0914 39.1714L40.4887 28.8805Z" fill="#93D1F6"/>
<path d="M36.9953 58.1785C35.922 61.8925 38.0559 65.7969 41.7615 66.8991L54.3555 70.6453C58.5904 71.905 63.0338 69.43 64.2603 65.1854V65.1854L37.2889 57.1625L36.9953 58.1785Z" fill="#93D1F6"/>
<rect width="29.5688" height="40" rx="14.7844" transform="matrix(-1 0 0 1 121.041 28)" fill="white"/>
<rect width="13.7988" height="21" rx="6.89938" transform="matrix(-1 0 0 1 113.156 37)" fill="#122430"/>
<path d="M119.615 28.8805C118.403 25.2094 114.453 23.2418 110.793 24.4857L89.6266 31.6788C85.4433 33.1004 83.1749 37.6541 84.5599 41.8496L87.6438 51.1909L123.013 39.1714L119.615 28.8805Z" fill="#93D1F6"/>
<path d="M123.109 58.1785C124.182 61.8925 122.048 65.7969 118.343 66.8991L105.748 70.6453C101.514 71.905 97.0702 69.43 95.8437 65.1854V65.1854L122.815 57.1625L123.109 58.1785Z" fill="#93D1F6"/>
<ellipse cx="81.052" cy="63" rx="8" ry="7" fill="#F58E34"/>
<path d="M69.766 61.977C69.38 63.0706 70.0014 64.2567 71.1299 64.5239C73.6328 65.1164 77.8942 66 81.052 66C82.7141 60.6814 87.4701 61.5507 90.4716 62.7309C91.3544 63.0781 92.4089 62.1778 92.0932 61.2833L91.401 59.322C89.8523 54.9343 85.7051 52 81.052 52V52C76.399 52 72.2517 54.9343 70.703 59.322L69.766 61.977Z" fill="#FFC045"/>
<path d="M77.052 56.228C77.052 55.4842 77.4978 54.8105 78.2044 54.5782C79.0354 54.3051 80.1626 54 81.052 54C81.9414 54 83.0686 54.3051 83.8996 54.5782C84.6062 54.8105 85.052 55.4842 85.052 56.228V56.228C85.052 57.5457 83.6999 58.4432 82.4112 58.1678C81.9426 58.0677 81.4709 58 81.052 58C80.6331 58 80.1614 58.0677 79.6928 58.1678C78.4041 58.4432 77.052 57.5457 77.052 56.228V56.228Z" fill="#FFDC4E"/>
</svg>
