<svg width="627" height="200" viewBox="0 0 627 200" fill="none" xmlns="http://www.w3.org/2000/svg">
<path d="M541.7 166.15C548.11 168.646 555.067 169.395 561.862 168.321C568.656 167.246 575.043 164.387 580.369 160.034C585.696 155.682 589.771 149.993 592.178 143.55C594.586 137.106 595.238 130.139 594.07 123.36H581.72" stroke="white" stroke-linecap="round" stroke-linejoin="round"/>
<path d="M519.8 144.46C521.525 148.744 524.001 152.686 527.11 156.1" stroke="white" stroke-linecap="round" stroke-linejoin="round"/>
<path d="M590.46 112.45C586.215 104.104 579.098 97.5722 570.418 94.0588C561.738 90.5455 552.081 90.287 543.226 93.3308C534.371 96.3747 526.914 102.516 522.229 110.623C517.544 118.731 515.946 128.258 517.73 137.45H526.63" stroke="white" stroke-linecap="round" stroke-linejoin="round"/>
<path d="M574.03 102.76H568.67V114.36H581.28V159.29" stroke="white" stroke-linecap="round" stroke-linejoin="round"/>
<path d="M581.28 135.38H568.96" stroke="white" stroke-linecap="round" stroke-linejoin="round"/>
<path d="M542.72 154H533" stroke="#7F3F98" stroke-linecap="round" stroke-linejoin="round"/>
<path d="M526.63 120.88H518.09" stroke="white" stroke-linecap="round" stroke-linejoin="round"/>
<path d="M581.28 154.37H568.96" stroke="white" stroke-linecap="round" stroke-linejoin="round"/>
<path d="M572 123.92H550.26V136.54" stroke="white" stroke-linecap="round" stroke-linejoin="round"/>
<path d="M541.71 94.06V102.91H560.41V143.64H572" stroke="white" stroke-linecap="round" stroke-linejoin="round"/>
<path d="M562.66 168V154.11H551.56V144.85H541.31V114.26H553.74" stroke="white" stroke-linecap="round" stroke-linejoin="round"/>
<path d="M533.38 98.32V111.98" stroke="white" stroke-linecap="round" stroke-linejoin="round"/>
<path d="M533 119V180.99" stroke="#7F3F98" stroke-linecap="round" stroke-linejoin="round"/>
<path d="M533 181L380 181" stroke="#7F3F98" stroke-linecap="round" stroke-linejoin="round"/>
<path d="M186.875 179C191.75 179 194.5 175.969 194.5 170.969C194.5 166 191.75 163 187.094 163H181.938V179H186.875ZM183.875 177.281V164.719H186.969C190.719 164.719 192.625 167.094 192.625 170.969C192.625 174.875 190.719 177.281 186.75 177.281H183.875ZM202.531 179.25C204.969 179.25 206.75 178.031 207.313 176.219L205.531 175.719C205.063 176.969 203.977 177.594 202.531 177.594C200.367 177.594 198.875 176.195 198.789 173.625H207.5V172.844C207.5 168.375 204.844 166.844 202.344 166.844C199.094 166.844 196.938 169.406 196.938 173.094C196.938 176.781 199.063 179.25 202.531 179.25ZM198.789 172.031C198.914 170.164 200.234 168.5 202.344 168.5C204.344 168.5 205.625 170 205.625 172.031H198.789ZM218.805 169.687C218.227 167.984 216.93 166.844 214.555 166.844C212.023 166.844 210.148 168.281 210.148 170.312C210.148 171.969 211.133 173.078 213.336 173.594L215.336 174.062C216.547 174.344 217.117 174.922 217.117 175.75C217.117 176.781 216.023 177.625 214.305 177.625C212.797 177.625 211.852 176.977 211.523 175.687L209.773 176.125C210.203 178.164 211.883 179.25 214.336 179.25C217.125 179.25 219.023 177.727 219.023 175.656C219.023 173.984 217.977 172.93 215.836 172.406L214.055 171.969C212.633 171.617 211.992 171.141 211.992 170.219C211.992 169.187 213.086 168.437 214.555 168.437C216.164 168.437 216.828 169.328 217.148 170.156L218.805 169.687ZM221.799 179H223.643V167H221.799V179ZM222.736 165C223.455 165 224.049 164.438 224.049 163.75C224.049 163.063 223.455 162.5 222.736 162.5C222.018 162.5 221.424 163.063 221.424 163.75C221.424 164.438 222.018 165 222.736 165ZM231.863 183.75C234.738 183.75 237.051 182.438 237.051 179.344V167H235.27V168.906H235.082C234.676 168.281 233.926 166.844 231.582 166.844C228.551 166.844 226.457 169.25 226.457 172.937C226.457 176.687 228.645 178.812 231.551 178.812C233.895 178.812 234.645 177.438 235.051 176.781H235.207V179.219C235.207 181.219 233.801 182.125 231.863 182.125C229.684 182.125 228.918 180.977 228.426 180.313L226.957 181.344C227.707 182.602 229.184 183.75 231.863 183.75ZM231.801 177.156C229.488 177.156 228.301 175.406 228.301 172.906C228.301 170.469 229.457 168.5 231.801 168.5C234.051 168.5 235.238 170.312 235.238 172.906C235.238 175.562 234.02 177.156 231.801 177.156ZM242.27 171.781C242.27 169.687 243.566 168.5 245.332 168.5C247.043 168.5 248.082 169.617 248.082 171.5V179H249.926V171.375C249.926 168.312 248.293 166.844 245.863 166.844C244.051 166.844 242.926 167.656 242.363 168.875H242.207V167H240.426V179H242.27V171.781ZM253.295 179H255.139V167H253.295V179ZM254.232 165C254.951 165 255.545 164.438 255.545 163.75C255.545 163.063 254.951 162.5 254.232 162.5C253.514 162.5 252.92 163.063 252.92 163.75C252.92 164.438 253.514 165 254.232 165ZM260.359 171.781C260.359 169.687 261.656 168.5 263.422 168.5C265.133 168.5 266.172 169.617 266.172 171.5V179H268.016V171.375C268.016 168.312 266.383 166.844 263.953 166.844C262.141 166.844 261.016 167.656 260.453 168.875H260.297V167H258.516V179H260.359V171.781ZM276.229 183.75C279.104 183.75 281.416 182.438 281.416 179.344V167H279.635V168.906H279.447C279.041 168.281 278.291 166.844 275.947 166.844C272.916 166.844 270.822 169.25 270.822 172.937C270.822 176.687 273.01 178.812 275.916 178.812C278.26 178.812 279.01 177.438 279.416 176.781H279.572V179.219C279.572 181.219 278.166 182.125 276.229 182.125C274.049 182.125 273.283 180.977 272.791 180.313L271.322 181.344C272.072 182.602 273.549 183.75 276.229 183.75ZM276.166 177.156C273.854 177.156 272.666 175.406 272.666 172.906C272.666 170.469 273.822 168.5 276.166 168.5C278.416 168.5 279.604 170.312 279.604 172.906C279.604 175.562 278.385 177.156 276.166 177.156ZM294.51 179.281C296.604 179.281 297.697 178.156 298.072 177.375H298.166V179H300.01V171.094C300.01 167.281 297.104 166.844 295.572 166.844C293.76 166.844 291.697 167.469 290.76 169.656L292.51 170.281C292.916 169.406 293.877 168.469 295.635 168.469C297.33 168.469 298.166 169.367 298.166 170.906V170.969C298.166 171.859 297.26 171.781 295.072 172.063C292.846 172.352 290.416 172.844 290.416 175.594C290.416 177.937 292.229 179.281 294.51 179.281ZM294.791 177.625C293.322 177.625 292.26 176.969 292.26 175.687C292.26 174.281 293.541 173.844 294.979 173.656C295.76 173.562 297.854 173.344 298.166 172.969V174.656C298.166 176.156 296.979 177.625 294.791 177.625ZM309.813 179H311.594V177.156H311.813C312.219 177.812 313 179.25 315.313 179.25C318.313 179.25 320.406 176.844 320.406 173.031C320.406 169.25 318.313 166.844 315.281 166.844C312.938 166.844 312.219 168.281 311.813 168.906H311.656V163H309.813V179ZM311.625 173C311.625 170.312 312.813 168.5 315.063 168.5C317.406 168.5 318.563 170.469 318.563 173C318.563 175.562 317.375 177.594 315.063 177.594C312.844 177.594 311.625 175.719 311.625 173ZM328.258 179.25C330.695 179.25 332.477 178.031 333.039 176.219L331.258 175.719C330.789 176.969 329.703 177.594 328.258 177.594C326.094 177.594 324.602 176.195 324.516 173.625H333.227V172.844C333.227 168.375 330.57 166.844 328.07 166.844C324.82 166.844 322.664 169.406 322.664 173.094C322.664 176.781 324.789 179.25 328.258 179.25ZM324.516 172.031C324.641 170.164 325.961 168.5 328.07 168.5C330.07 168.5 331.352 170 331.352 172.031H324.516ZM341.25 167H338.688V164.125H336.844V167H335.031V168.562H336.844V176.062C336.844 178.156 338.531 179.156 340.094 179.156C340.781 179.156 341.219 179.031 341.469 178.937L341.094 177.281C340.937 177.312 340.688 177.375 340.281 177.375C339.469 177.375 338.688 177.125 338.688 175.562V168.562H341.25V167ZM349.242 167H346.68V164.125H344.836V167H343.023V168.562H344.836V176.062C344.836 178.156 346.523 179.156 348.086 179.156C348.773 179.156 349.211 179.031 349.461 178.937L349.086 177.281C348.93 177.312 348.68 177.375 348.273 177.375C347.461 177.375 346.68 177.125 346.68 175.562V168.562H349.242V167ZM356.918 179.25C359.355 179.25 361.137 178.031 361.699 176.219L359.918 175.719C359.449 176.969 358.363 177.594 356.918 177.594C354.754 177.594 353.262 176.195 353.176 173.625H361.887V172.844C361.887 168.375 359.23 166.844 356.73 166.844C353.48 166.844 351.324 169.406 351.324 173.094C351.324 176.781 353.449 179.25 356.918 179.25ZM353.176 172.031C353.301 170.164 354.621 168.5 356.73 168.5C358.73 168.5 360.012 170 360.012 172.031H353.176ZM364.691 179H366.535V171.406C366.535 169.781 367.816 168.594 369.566 168.594C370.059 168.594 370.566 168.688 370.691 168.719V166.844C370.48 166.828 369.996 166.812 369.723 166.812C368.285 166.812 367.035 167.625 366.598 168.812H366.473V167H364.691V179ZM442.52 179.125C443.293 179.125 443.926 178.492 443.926 177.719C443.926 176.945 443.293 176.312 442.52 176.312C441.746 176.312 441.113 176.945 441.113 177.719C441.113 178.492 441.746 179.125 442.52 179.125Z" fill="white"/>
<path d="M384.408 167H381.721V165.781C381.721 164.594 382.221 163.969 383.439 163.969C383.971 163.969 384.283 164.094 384.471 164.156L385.002 162.562C384.721 162.437 384.158 162.25 383.252 162.25C381.533 162.25 379.877 163.281 379.877 165.344V167H377.939V168.562H379.877V179H381.721V168.562H384.408V167ZM394.555 174.094C394.555 176.344 392.836 177.375 391.461 177.375C389.93 177.375 388.836 176.25 388.836 174.5V167H386.992V174.625C386.992 177.687 388.617 179.156 390.867 179.156C392.68 179.156 393.867 178.187 394.43 176.969H394.555V179H396.398V167H394.555V174.094ZM404.994 167H402.432V164.125H400.588V167H398.775V168.562H400.588V176.062C400.588 178.156 402.275 179.156 403.838 179.156C404.525 179.156 404.963 179.031 405.213 178.937L404.838 177.281C404.682 177.312 404.432 177.375 404.025 177.375C403.213 177.375 402.432 177.125 402.432 175.562V168.562H404.994V167ZM415.33 174.094C415.33 176.344 413.611 177.375 412.236 177.375C410.705 177.375 409.611 176.25 409.611 174.5V167H407.768V174.625C407.768 177.687 409.393 179.156 411.643 179.156C413.455 179.156 414.643 178.187 415.205 176.969H415.33V179H417.174V167H415.33V174.094ZM420.551 179H422.395V171.406C422.395 169.781 423.676 168.594 425.426 168.594C425.918 168.594 426.426 168.688 426.551 168.719V166.844C426.34 166.828 425.855 166.812 425.582 166.812C424.145 166.812 422.895 167.625 422.457 168.812H422.332V167H420.551V179ZM433.402 179.25C435.84 179.25 437.621 178.031 438.184 176.219L436.402 175.719C435.934 176.969 434.848 177.594 433.402 177.594C431.238 177.594 429.746 176.195 429.66 173.625H438.371V172.844C438.371 168.375 435.715 166.844 433.215 166.844C429.965 166.844 427.809 169.406 427.809 173.094C427.809 176.781 429.934 179.25 433.402 179.25ZM429.66 172.031C429.785 170.164 431.105 168.5 433.215 168.5C435.215 168.5 436.496 170 436.496 172.031H429.66Z" fill="#7F3F98"/>
<path d="M35.875 88H33.9375V104H35.875V88ZM41.3535 96.7812C41.3535 94.6875 42.6504 93.5 44.416 93.5C46.127 93.5 47.166 94.6172 47.166 96.5V104H49.0098V96.375C49.0098 93.3125 47.377 91.8438 44.9473 91.8438C43.1348 91.8438 42.0098 92.6562 41.4473 93.875H41.291V92H39.5098V104H41.3535V96.7812ZM58.5664 108.5H60.4102V102.156H60.5664C60.9727 102.812 61.7539 104.25 64.0664 104.25C67.0664 104.25 69.1602 101.844 69.1602 98.0313C69.1602 94.25 67.0664 91.8438 64.0352 91.8438C61.6914 91.8438 60.9727 93.2812 60.5664 93.9062H60.3477V92H58.5664V108.5ZM60.3789 98C60.3789 95.3125 61.5664 93.5 63.8164 93.5C66.1602 93.5 67.3164 95.4687 67.3164 98C67.3164 100.562 66.1289 102.594 63.8164 102.594C61.5977 102.594 60.3789 100.719 60.3789 98ZM79.5352 99.0937C79.5352 101.344 77.8164 102.375 76.4414 102.375C74.9102 102.375 73.8164 101.25 73.8164 99.5V92H71.9727V99.625C71.9727 102.687 73.5977 104.156 75.8477 104.156C77.6602 104.156 78.8477 103.187 79.4102 101.969H79.5352V104H81.3789V92H79.5352V99.0937ZM84.7559 104H86.5996V96.4062C86.5996 94.7812 87.8809 93.5937 89.6309 93.5937C90.123 93.5937 90.6309 93.6875 90.7559 93.7187V91.8438C90.5449 91.8281 90.0605 91.8125 89.7871 91.8125C88.3496 91.8125 87.0996 92.625 86.6621 93.8125H86.5371V92H84.7559V104ZM101.441 94.6875C100.863 92.9844 99.5664 91.8438 97.1914 91.8438C94.6602 91.8438 92.7852 93.2812 92.7852 95.3125C92.7852 96.9687 93.7695 98.0781 95.9727 98.5937L97.9727 99.0625C99.1836 99.3437 99.7539 99.9219 99.7539 100.75C99.7539 101.781 98.6602 102.625 96.9414 102.625C95.4336 102.625 94.4883 101.977 94.1602 100.687L92.4102 101.125C92.8398 103.164 94.5195 104.25 96.9727 104.25C99.7617 104.25 101.66 102.727 101.66 100.656C101.66 98.9844 100.613 97.9297 98.4727 97.4063L96.6914 96.9687C95.2695 96.6172 94.6289 96.1406 94.6289 95.2187C94.6289 94.1875 95.7227 93.4375 97.1914 93.4375C98.8008 93.4375 99.4648 94.3281 99.7852 95.1562L101.441 94.6875ZM111.998 99.0937C111.998 101.344 110.279 102.375 108.904 102.375C107.373 102.375 106.279 101.25 106.279 99.5V92H104.436V99.625C104.436 102.687 106.061 104.156 108.311 104.156C110.123 104.156 111.311 103.187 111.873 101.969H111.998V104H113.842V92H111.998V99.0937ZM117.219 104H119.063V92H117.219V104ZM118.156 90C118.875 90 119.469 89.4375 119.469 88.75C119.469 88.0625 118.875 87.5 118.156 87.5C117.437 87.5 116.844 88.0625 116.844 88.75C116.844 89.4375 117.437 90 118.156 90ZM127.658 92H125.096V89.125H123.252V92H121.439V93.5625H123.252V101.062C123.252 103.156 124.939 104.156 126.502 104.156C127.189 104.156 127.627 104.031 127.877 103.937L127.502 102.281C127.346 102.312 127.096 102.375 126.689 102.375C125.877 102.375 125.096 102.125 125.096 100.562V93.5625H127.658V92ZM141.494 104.25C144.744 104.25 146.932 101.781 146.932 98.0625C146.932 94.3125 144.744 91.8438 141.494 91.8438C138.244 91.8438 136.057 94.3125 136.057 98.0625C136.057 101.781 138.244 104.25 141.494 104.25ZM141.494 102.594C139.025 102.594 137.9 100.469 137.9 98.0625C137.9 95.6562 139.025 93.5 141.494 93.5C143.963 93.5 145.088 95.6562 145.088 98.0625C145.088 100.469 143.963 102.594 141.494 102.594ZM155.09 92H152.402V90.7812C152.402 89.5937 152.902 88.9687 154.121 88.9687C154.652 88.9687 154.965 89.0938 155.152 89.1562L155.684 87.5625C155.402 87.4375 154.84 87.25 153.934 87.25C152.215 87.25 150.559 88.2812 150.559 90.3438V92H148.621V93.5625H150.559V104H152.402V93.5625H155.09V92ZM253.893 104.125C254.666 104.125 255.299 103.492 255.299 102.719C255.299 101.945 254.666 101.312 253.893 101.312C253.119 101.312 252.486 101.945 252.486 102.719C252.486 103.492 253.119 104.125 253.893 104.125Z" fill="white"/>
<path d="M163.861 104H165.705V96.5C165.705 94.7422 166.986 93.5 168.424 93.5C169.822 93.5 170.799 94.4141 170.799 95.7812V104H172.674V96.1875C172.674 94.6406 173.643 93.5 175.33 93.5C176.643 93.5 177.768 94.1953 177.768 95.9687V104H179.611V95.9687C179.611 93.1484 178.096 91.8438 175.955 91.8438C174.236 91.8438 172.979 92.6328 172.361 93.875H172.236C171.643 92.5937 170.596 91.8438 169.018 91.8438C167.455 91.8438 166.299 92.5937 165.799 93.875H165.643V92H163.861V104ZM188.014 104.25C190.451 104.25 192.232 103.031 192.795 101.219L191.014 100.719C190.545 101.969 189.459 102.594 188.014 102.594C185.85 102.594 184.357 101.195 184.271 98.625H192.982V97.8437C192.982 93.375 190.326 91.8438 187.826 91.8438C184.576 91.8438 182.42 94.4062 182.42 98.0938C182.42 101.781 184.545 104.25 188.014 104.25ZM184.271 97.0312C184.396 95.1641 185.717 93.5 187.826 93.5C189.826 93.5 191.107 95 191.107 97.0312H184.271ZM199.318 104.281C201.412 104.281 202.506 103.156 202.881 102.375H202.975V104H204.818V96.0938C204.818 92.2812 201.912 91.8438 200.381 91.8438C198.568 91.8438 196.506 92.4687 195.568 94.6562L197.318 95.2812C197.725 94.4062 198.686 93.4687 200.443 93.4687C202.139 93.4687 202.975 94.3672 202.975 95.9062V95.9687C202.975 96.8594 202.068 96.7812 199.881 97.0625C197.654 97.3516 195.225 97.8437 195.225 100.594C195.225 102.937 197.037 104.281 199.318 104.281ZM199.6 102.625C198.131 102.625 197.068 101.969 197.068 100.687C197.068 99.2812 198.35 98.8438 199.787 98.6562C200.568 98.5625 202.662 98.3437 202.975 97.9687V99.6562C202.975 101.156 201.787 102.625 199.6 102.625ZM210.027 96.7812C210.027 94.6875 211.324 93.5 213.09 93.5C214.801 93.5 215.84 94.6172 215.84 96.5V104H217.684V96.375C217.684 93.3125 216.051 91.8438 213.621 91.8438C211.809 91.8438 210.684 92.6562 210.121 93.875H209.965V92H208.184V104H210.027V96.7812ZM221.053 104H222.896V92H221.053V104ZM221.99 90C222.709 90 223.303 89.4375 223.303 88.75C223.303 88.0625 222.709 87.5 221.99 87.5C221.271 87.5 220.678 88.0625 220.678 88.75C220.678 89.4375 221.271 90 221.99 90ZM228.117 96.7812C228.117 94.6875 229.414 93.5 231.18 93.5C232.891 93.5 233.93 94.6172 233.93 96.5V104H235.773V96.375C235.773 93.3125 234.141 91.8438 231.711 91.8438C229.898 91.8438 228.773 92.6562 228.211 93.875H228.055V92H226.273V104H228.117V96.7812ZM243.986 108.75C246.861 108.75 249.174 107.438 249.174 104.344V92H247.393V93.9062H247.205C246.799 93.2812 246.049 91.8438 243.705 91.8438C240.674 91.8438 238.58 94.25 238.58 97.9375C238.58 101.687 240.768 103.812 243.674 103.812C246.018 103.812 246.768 102.438 247.174 101.781H247.33V104.219C247.33 106.219 245.924 107.125 243.986 107.125C241.807 107.125 241.041 105.977 240.549 105.313L239.08 106.344C239.83 107.602 241.307 108.75 243.986 108.75ZM243.924 102.156C241.611 102.156 240.424 100.406 240.424 97.9062C240.424 95.4687 241.58 93.5 243.924 93.5C246.174 93.5 247.361 95.3125 247.361 97.9062C247.361 100.562 246.143 102.156 243.924 102.156Z" fill="#7F3F98"/>
<path d="M325.034 80.0741C325.604 79.0435 325.788 77.8454 325.554 76.6925C325.014 73.7088 323.036 71.1229 322.986 68.179C323.455 67.2806 324.201 66.5556 325.114 66.1103C326.226 65.6775 327.224 64.9971 328.031 64.1211C332.507 58.7404 328.361 51.122 328.89 45.0451C329.19 41.574 330.189 37.7449 328.071 34.612C327.555 33.8407 326.836 33.225 325.993 32.8317C326.093 31.9068 326.203 30.9818 326.303 30.0569C326.363 29.5397 326.453 28.9728 326.483 28.4059C326.547 28.4615 326.622 28.5025 326.704 28.5258C326.786 28.5492 326.871 28.5545 326.955 28.5412C327.039 28.5279 327.119 28.4964 327.189 28.449C327.26 28.4015 327.319 28.3393 327.362 28.2666C327.955 27.2649 328.154 26.0796 327.92 24.9404C327.685 23.8011 327.034 22.7891 326.093 22.1002C324.904 21.3635 323.625 20.7819 322.287 20.3697C320.408 19.4857 318.434 18.8183 316.403 18.3805C315.03 18.1432 313.617 18.3893 312.407 19.0767C310.529 20.1608 309.24 21.1852 306.962 21.4637C304.504 21.7621 301.877 21.8814 300.438 24.0695C298.122 24.8593 296.197 26.4992 295.054 28.6545C294.984 28.7937 294.924 28.933 294.854 29.0722C294.719 29.136 294.589 29.2091 294.464 29.291C293.973 29.6394 293.61 30.1378 293.43 30.7104C293.249 31.2831 293.262 31.8987 293.465 32.4637L293.385 32.6527C292.524 34.5071 291.293 36.1683 289.769 37.5361C287.631 39.6048 285.983 41.6536 285.423 44.4086C284.334 49.7694 286.722 55.0903 286.332 60.4611C286.072 64.1112 284.174 66.8462 280.678 68.9547C278.02 70.556 274.973 71.7495 272.686 73.7685C267.141 78.6618 269.139 85.7034 270.018 91.7305C270.636 95.5469 270.345 99.4543 269.169 103.138C268.09 106.401 266.172 110.1 261.876 110.906C261.147 111.045 261.457 111.99 262.186 111.901C271.417 110.16 272.176 97.9069 271.247 91.7106C270.538 86.7974 268.819 81.2179 271.846 76.5831C274.324 72.7938 279.539 71.471 283.215 68.7359C290.129 63.594 287.022 55.6374 286.582 48.924C286.393 47.064 286.573 45.185 287.111 43.3941C287.911 41.0569 289.729 39.4158 291.547 37.6455C292.543 36.6667 293.395 35.5515 294.075 34.3335C294.165 34.5623 294.254 34.791 294.324 35.0198C294.651 36.0877 294.573 37.2379 294.105 38.2522C293.439 38.4681 292.819 38.8053 292.276 39.2467C291.523 39.8756 290.951 40.6919 290.617 41.6126C290.284 42.5333 290.201 43.5254 290.378 44.4882C289.608 44.9884 289.023 45.7257 288.713 46.5876C288.403 47.4495 288.384 48.3887 288.66 49.2621C289.329 51.7884 291.997 53.4493 292.946 55.8462C294.085 58.7106 290.338 61.1374 291.767 63.9122C292.004 64.3519 292.293 64.7625 292.626 65.1356C291.714 66.7799 291.389 68.6843 291.707 70.5361C292.053 71.9424 292.853 73.1968 293.985 74.1066C293.95 77.1319 294.482 80.137 295.553 82.9683C296.112 84.3049 297.007 85.4761 298.151 86.3698C298.217 86.9174 298.402 87.4443 298.691 87.9145C298.981 88.3848 299.369 88.7874 299.829 89.0949C301.737 90.358 304.355 89.7215 306.123 88.538C306.323 88.6175 306.512 88.6971 306.712 88.7965C308.411 89.6718 309.819 90.9448 311.448 91.9096C313.076 92.8743 317.332 95.0126 320.439 95.2215C320.858 95.6719 321.377 96.0195 321.954 96.2369C322.532 96.4543 323.151 96.5357 323.766 96.4747C326.303 96.1763 327.242 93.3716 327.842 91.2929C328.841 87.981 328.761 85.3255 326.703 82.4511C326.133 81.5759 325.564 80.82 325.034 80.0741ZM324.395 79.1491C322.925 77.1738 322.124 74.7845 322.107 72.3264C322.111 71.6195 322.175 70.9142 322.297 70.2179C323.176 73.2115 325.334 76.3246 324.395 79.1491ZM321.977 67.6021C321.969 67.7744 321.969 67.947 321.977 68.1193C321.474 69.4626 321.211 70.8829 321.198 72.3164C321.156 75.1929 322.096 77.9985 323.865 80.273L323.815 80.3625C322.956 81.5859 321.548 82.5009 320.818 83.8137C320.051 82.8422 319.206 81.9341 318.291 81.0985C318.441 80.7106 318.581 80.3327 318.691 79.9448C319.92 75.5041 319.961 70.8204 318.81 66.3589C318.628 65.7133 318.391 65.0844 318.101 64.4791C319.385 63.5897 320.378 62.3448 320.958 60.8987C322.087 57.4773 318.96 54.9312 317.222 52.1365C316.69 50.9347 316.323 49.6667 316.133 48.367C316.274 47.5378 316.617 46.7557 317.132 46.0894C317.442 45.6509 317.776 45.2293 318.131 44.8263C318.471 44.8263 318.75 45.075 319.39 45.4728C320.788 46.3381 320.778 46.8453 320.469 48.3372C320.213 49.2042 320.003 50.084 319.839 50.9728C319.754 51.4988 319.781 52.037 319.921 52.5515C320.06 53.066 320.308 53.545 320.649 53.9565C320.915 54.2376 321.258 54.4354 321.635 54.5258C322.012 54.6162 322.408 54.5952 322.773 54.4655C323.139 54.3357 323.458 54.1028 323.693 53.7952C323.928 53.4876 324.068 53.1186 324.095 52.7332C324.098 52.6966 324.093 52.6598 324.082 52.625C324.07 52.5902 324.052 52.558 324.028 52.5303C324.003 52.5025 323.974 52.4798 323.941 52.4635C323.908 52.4471 323.872 52.4373 323.835 52.4348C323.986 52.1872 324.117 51.9278 324.225 51.6591C324.493 52.2786 324.703 52.9211 324.854 53.5786C325.457 56.19 325.269 58.9205 324.315 61.4258C323.516 63.5045 322.187 65.4041 321.977 67.6021ZM317.062 83.4457C317.396 82.9541 317.693 82.4389 317.951 81.9041C318.814 82.6663 319.594 83.5163 320.279 84.4403C320.349 84.5398 320.419 84.6492 320.479 84.7586C320.334 85.8954 320.596 87.0467 321.218 88.0108C321.123 88.3732 320.952 88.7119 320.719 89.0054C320.468 89.3309 320.156 89.6046 319.799 89.811C319.879 88.9756 320.009 88.1302 320.049 87.2649C320.129 85.0768 318.74 84.1917 317.052 83.4557L317.062 83.4457ZM324.055 46.9845C324.055 47.3824 324.055 47.7802 324.055 48.178C322.976 46.3779 321.698 44.5379 321.538 42.4791C321.378 40.4203 322.247 38.5008 322.537 36.4619C322.657 35.7359 322.767 34.9104 322.816 34.0551C322.966 33.7865 323.106 33.518 323.246 33.2395C323.386 32.961 323.386 32.9511 323.446 32.8019C323.974 32.8787 324.496 32.9984 325.004 33.1599L323.506 46.6265C323.466 46.9249 323.785 47.0442 324.045 46.9945L324.055 46.9845ZM323.386 52.7531L321.008 53.0714L320.639 51.6392C320.654 51.0321 320.751 50.4299 320.928 49.8489C321.088 49.1726 321.338 48.5162 321.428 47.8598C321.486 47.3974 321.486 46.9297 321.428 46.4674C322.137 47.8598 323.006 49.2124 323.716 50.6148C323.528 51.3045 323.408 52.0106 323.356 52.7233C323.357 52.737 323.36 52.7504 323.366 52.763L323.386 52.7531ZM318.391 55.2097C319.39 56.5325 320.389 57.9448 320.389 59.5659C320.389 61.1871 319.2 62.5497 317.781 63.7332C316.921 62.2016 315.697 60.9038 314.215 59.9538L314.385 59.8046C315.634 58.8101 317.452 58.1835 318.171 56.8209C318.404 56.3212 318.478 55.7622 318.381 55.2196L318.391 55.2097ZM314.475 77.8164C315.227 77.3896 315.822 76.7343 316.173 75.9466C316.347 75.5058 316.425 75.0333 316.403 74.5603C316.38 74.0872 316.258 73.6242 316.043 73.2016C315.254 71.3915 313.905 69.8598 312.986 68.1094C313.604 67.5963 314.247 67.115 314.914 66.6672C315.564 66.2296 316.243 65.782 316.912 65.3146C317.6 67.043 317.982 68.8769 318.041 70.735C318.322 73.8586 318.045 77.0071 317.222 80.0343L317.062 79.9846C316.063 79.1094 315.154 78.3634 314.475 77.8164ZM316.822 80.9692C316.593 81.5272 316.319 82.066 316.003 82.5804C315.933 82.6998 315.833 82.8092 315.753 82.9186L315.384 82.7595C314.385 82.302 313.326 81.8146 312.307 81.3173C312.844 80.8718 313.482 80.563 314.166 80.4174C314.85 80.2719 315.559 80.294 316.233 80.4819L316.822 80.9692ZM302.946 62.6591V62.5894C302.716 61.933 302.536 61.2766 302.367 60.6003C303.293 60.7187 304.234 60.651 305.134 60.4014C306.133 60.1726 306.942 59.9538 307.791 59.8146C307.812 60.086 307.812 60.3587 307.791 60.6301C306.862 61.0777 305.973 61.4755 305.214 61.8137C304.454 62.1518 303.735 62.3905 302.946 62.6591ZM303.186 64.4593L302.297 64.1609L301.737 63.962L302.736 63.5741L303.186 64.4593ZM301.188 57.6464C301.248 58.0906 301.314 58.5316 301.387 58.9692C300.935 58.6874 300.55 58.3106 300.259 57.8652L301.188 57.6464ZM299.819 57.0397C299.615 56.5365 299.503 56.0009 299.489 55.4583C299.488 54.2273 299.96 53.0424 300.808 52.1464C300.808 53.6979 300.908 55.2495 301.068 56.7911L299.819 57.0397ZM301.377 42.5985C301.377 42.4095 301.308 42.2106 301.258 42.0216C302.077 42.4891 302.926 42.9466 303.685 43.4041C305.733 44.6473 308.181 45.5026 310.678 44.6672C311.126 44.5691 311.548 44.3756 311.913 44.1C312.279 43.8244 312.58 43.4733 312.797 43.0707C313.013 42.6681 313.14 42.2237 313.167 41.7679C313.195 41.3121 313.123 40.8558 312.956 40.4303C312.736 39.7341 312.437 39.0777 312.217 38.4411L312.836 38.7196C314.505 39.4457 314.674 39.6247 314.275 41.1663C313.965 41.9658 313.485 42.6886 312.866 43.2847C312.2 43.9417 311.459 44.5192 310.658 45.0053C309.255 45.8374 307.807 46.5944 306.323 47.273C305.57 47.1404 304.814 47.0276 304.055 46.9348C304.055 46.8553 304.055 46.7757 304.055 46.6961C304.169 46.2495 304.188 45.7841 304.111 45.3296C304.034 44.8752 303.863 44.4417 303.608 44.057C303.353 43.6723 303.021 43.3447 302.631 43.0953C302.242 42.8458 301.805 42.68 301.347 42.6084L301.377 42.5985ZM307.182 48.1283C308.572 48.3672 309.935 48.7471 311.248 49.2621C313.246 50.0976 313.605 51.9674 312.087 53.3996C311.079 54.1702 309.906 54.7009 308.66 54.9511L307.252 55.329C306.393 54.3345 305.364 53.4891 304.564 52.4746C303.946 51.7778 303.593 50.8875 303.565 49.9583C304.729 49.2917 305.926 48.6843 307.152 48.1383L307.182 48.1283ZM303.725 48.5858C303.785 48.2974 303.845 47.999 303.905 47.6907L305.184 47.8299C304.664 48.0786 304.175 48.3372 303.695 48.5958L303.725 48.5858ZM301.487 43.8815C302.836 44.5379 302.836 45.6021 302.576 46.726L301.487 46.6762C301.487 45.7911 301.547 44.876 301.487 43.8815ZM301.487 47.5216H302.396C302.307 47.8299 302.227 48.1283 302.167 48.4267C302.094 48.7867 302.06 49.1535 302.067 49.5207L301.457 49.9484C301.457 49.5572 301.457 49.1693 301.457 48.7847C301.417 48.4466 301.427 48.009 301.487 47.5614V47.5216ZM302.267 50.8037C302.836 52.6735 304.544 54.0162 305.923 55.6274C304.624 55.9357 303.326 56.2341 302.037 56.5623L301.727 56.6319C301.557 54.9113 301.497 53.1907 301.477 51.4601C301.687 51.2712 301.947 51.0524 302.227 50.8435L302.267 50.8037ZM306.443 56.2739C306.858 56.8247 307.194 57.4306 307.442 58.0741C307.501 58.2332 307.531 58.3923 307.581 58.5515C306.932 58.6609 306.273 58.82 305.583 58.999C304.471 59.4212 303.261 59.5144 302.097 59.2676C301.984 58.6708 301.887 58.0674 301.807 57.4574L306.443 56.2739ZM311.288 63.594C311.137 65.0739 311.397 66.5666 312.037 67.9104C311.114 68.6909 310.362 69.6525 309.829 70.735C310.149 68.8056 308.361 66.7567 306.333 65.6726C307.236 64.9551 307.969 64.0485 308.481 63.0171C308.812 62.3089 309.015 61.548 309.08 60.7694C309.619 60.481 310.149 60.1726 310.678 59.8544C311.194 59.9625 311.697 60.1259 312.177 60.3417L312.567 60.5307C311.828 61.4123 311.369 62.4923 311.248 63.6338L311.288 63.594ZM313.286 60.8589C314.737 61.7366 315.906 63.0102 316.652 64.5289C315.903 65.056 315.124 65.5235 314.435 66.0207C313.745 66.518 313.276 66.8462 312.696 67.3137C312.582 67.0474 312.482 66.7751 312.397 66.4981C312.078 65.5647 311.989 64.5685 312.138 63.5938C312.288 62.6191 312.671 61.6946 313.256 60.8987L313.286 60.8589ZM304.814 66.886C305.084 66.6473 305.374 66.4285 305.683 66.1998L305.893 66.2893C307.008 66.7955 307.92 67.6609 308.481 68.7459C308.84 69.462 309.48 71.8887 307.971 71.65C307.192 71.5207 306.323 70.7151 305.443 70.4566C305.501 69.2447 305.275 68.036 304.784 66.9258L304.814 66.886ZM305.214 62.6193C305.963 62.2911 306.762 61.933 307.561 61.5451C307.132 62.8869 306.311 64.071 305.204 64.9466L305.064 65.0659C304.654 64.9068 304.235 64.7676 303.825 64.6283C303.632 64.2106 303.449 63.7896 303.276 63.3652C303.955 63.1464 304.624 62.8978 305.184 62.6591L305.214 62.6193ZM304.984 70.3074C304.359 70.186 303.722 70.1326 303.086 70.1482C303.141 69.3266 303.421 68.5357 303.895 67.8607C304.06 67.6335 304.244 67.4206 304.444 67.2242C304.826 68.2199 304.999 69.2825 304.954 70.3471L304.984 70.3074ZM305.324 71.1925C306.317 71.4775 307.223 72.0039 307.961 72.7242C308.053 72.7976 308.168 72.8376 308.286 72.8376C308.404 72.8376 308.518 72.7976 308.61 72.7242C309.002 72.4038 309.325 72.0081 309.559 71.5605C309.369 72.3596 309.435 73.198 309.749 73.9575C310.526 75.4094 311.631 76.6622 312.976 77.6175C312.312 77.8136 311.618 77.8844 310.928 77.8264C308.381 77.5578 307.282 76.0262 305.663 74.594C305.202 74.145 304.646 73.805 304.035 73.5994C304.265 73.2811 304.484 72.9529 304.684 72.6048C304.952 72.1783 305.157 71.7162 305.294 71.2323L305.324 71.1925ZM310.519 71.8688C310.778 70.6318 311.437 69.5137 312.397 68.6862C313.022 69.8788 313.716 71.0345 314.475 72.1473C315.294 73.3806 315.883 74.6437 315.194 76.1256C314.914 76.6502 314.473 77.0718 313.935 77.3291C312.177 75.7676 310.159 74.1763 310.479 71.9086L310.519 71.8688ZM314.924 58.5614C314.446 58.8621 313.989 59.1943 313.556 59.556C313.083 59.3069 312.592 59.0941 312.087 58.9195C313.105 58.2172 314.025 57.3846 314.824 56.443C315.744 55.2472 316.195 53.7587 316.093 52.2558C316.093 52.1663 316.093 52.0668 316.093 51.9773C316.459 52.6194 316.866 53.2373 317.312 53.8272C317.448 54.093 317.526 54.3845 317.542 54.6826C317.562 56.7115 316.473 57.5569 314.894 58.6012L314.924 58.5614ZM315.344 46.6762C315.149 47.3851 315.068 48.1203 315.104 48.8544C315.104 48.9936 315.104 49.1229 315.104 49.2621C315.261 50.5821 315.321 51.9117 315.284 53.2404C315.064 55.4186 313.286 57.2187 311.188 58.6111H311.098C310.402 58.4417 309.686 58.3647 308.97 58.3824C308.725 57.4794 308.308 56.6318 307.741 55.886C310.818 55.0008 315.733 53.0912 313.546 49.7793C312.547 48.2974 310.039 47.9294 308.241 47.5614C309.217 47.126 310.171 46.6413 311.098 46.1093C313.765 44.5081 317.272 41.3155 315.434 38.282C315.068 37.6988 314.551 37.2247 313.938 36.9096C313.324 36.5945 312.636 36.4502 311.947 36.4918C312.027 36.0102 312.218 35.5538 312.507 35.159C313.243 34.2844 314.052 33.4726 314.924 32.7323C316.303 33.339 317.921 33.6274 319.04 34.7214C319.595 35.2207 320.052 35.8175 320.389 36.4818C319.52 37.5659 318.601 38.6401 317.831 39.7341C316.335 41.7757 315.461 44.203 315.314 46.726L315.344 46.6762ZM308.461 30.1265C308.518 29.4375 308.697 28.764 308.99 28.1373C309.647 28.2063 310.281 28.4207 310.845 28.7649C311.408 29.1091 311.887 29.5743 312.247 30.1265C312.571 30.6787 312.924 31.2132 313.306 31.7277C313.567 32.0041 313.866 32.2419 314.195 32.4339C313.114 33.3641 312.175 34.4463 311.408 35.6464C311.239 35.9918 311.141 36.367 311.118 36.7504C310.453 36.9838 309.843 37.353 309.33 37.8344C309.33 37.6554 309.33 37.4764 309.38 37.3073C309.48 34.9303 308.231 32.5731 308.431 30.1663L308.461 30.1265ZM306.962 30.037C306.9 30.4683 306.877 30.9044 306.892 31.3399C306.413 30.8923 305.893 30.4646 305.374 29.9972C305.182 29.8231 305.002 29.637 304.834 29.4402C305.579 28.8414 306.455 28.4257 307.392 28.2268H307.491C307.225 28.82 307.037 29.4452 306.932 30.0867L306.962 30.037ZM307.432 37.2576C307.312 38.65 307.362 38.4809 305.483 38.7196C303.605 38.9583 303.485 38.8091 302.986 37.3073C302.768 36.6257 302.607 35.9271 302.506 35.2187C302.786 34.9203 303.076 34.6319 303.386 34.3534C304.454 33.2196 305.743 33.2395 307.242 34.3534V34.6021C307.386 35.4928 307.436 36.3962 307.392 37.2974L307.432 37.2576ZM306.253 27.3814C305.541 27.6129 304.868 27.9481 304.255 28.376C304.444 26.7151 306.323 25.9095 308.251 26.1283C308.443 26.1539 308.634 26.1938 308.82 26.2476C308.554 26.4953 308.313 26.7684 308.101 27.0632C307.462 27.1011 306.831 27.2214 306.223 27.4212L306.253 27.3814ZM315.474 29.6889C315.485 29.8511 315.485 30.014 315.474 30.1762L315.224 30.0668C314.826 29.5796 314.49 29.045 314.225 28.4755C314.62 28.901 315.037 29.306 315.474 29.6889V29.6889ZM313.755 26.9737C313.566 26.7449 313.366 26.4963 313.196 26.2178C313.678 26.4033 314.11 26.6998 314.455 27.0831C314.215 27.0433 313.985 26.9737 313.755 26.9737ZM320.649 27.5804C320.649 27.6798 320.569 27.7693 320.529 27.8688C320.309 27.7097 320.079 27.5505 319.839 27.4013C320.192 27.2952 320.525 27.1726 320.838 27.0333L320.649 27.5804ZM321.268 31.6482C320.767 31.5447 320.273 31.4084 319.789 31.2404L319.28 31.0415C319.784 30.673 320.212 30.2102 320.539 29.6789L320.609 29.7585C320.972 30.3221 321.198 30.9624 321.268 31.6283V31.6482ZM319.949 29.0722C319.889 29.1717 319.849 29.2711 319.789 29.3706C319.651 29.6626 319.455 29.9239 319.213 30.1392C318.971 30.3544 318.688 30.5192 318.381 30.6238C317.682 30.2684 317.013 29.8559 316.383 29.3905C316.35 28.9039 316.246 28.4246 316.073 27.9682C316.645 27.9606 317.215 27.9174 317.781 27.8389C318.554 28.1487 319.282 28.5566 319.949 29.0523V29.0722ZM317.472 31.688C317.792 31.6556 318.107 31.5855 318.411 31.4791C319.314 31.9033 320.258 32.2365 321.228 32.4737H321.368C321.368 32.8914 321.368 33.3091 321.368 33.6871C321.358 34.2836 321.305 34.8786 321.208 35.4674L321.038 35.6961C320.662 35.0236 320.176 34.4185 319.6 33.9059C318.677 33.1822 317.626 32.6358 316.503 32.2947C316.203 32.1852 315.943 32.0659 315.693 31.9366C315.783 31.8033 315.864 31.6637 315.933 31.5189C316.424 31.7011 316.953 31.7592 317.472 31.688ZM321.338 28.5053L321.228 28.4158C321.558 27.7097 321.847 26.9936 322.167 26.4267C322.201 26.3435 322.208 26.2519 322.186 26.1647C322.165 26.0776 322.117 25.9993 322.048 25.941C321.98 25.8828 321.894 25.8474 321.805 25.8399C321.715 25.8325 321.625 25.8533 321.548 25.8995C320.689 26.3077 319.788 26.6212 318.86 26.8344C317.467 26.1035 316.017 25.4849 314.525 24.9845C315.851 24.8268 317.185 24.7471 318.521 24.7458C319.12 24.7458 319.949 24.7458 320.798 24.7458C321.002 24.8425 321.199 24.9521 321.388 25.074C322.19 25.689 322.808 26.511 323.174 27.4507C323.541 28.3905 323.641 29.4122 323.466 30.405C323.405 30.9436 323.284 31.4739 323.106 31.9863L322.776 31.9267C322.699 30.6516 322.18 29.4427 321.308 28.5053H321.338ZM320.679 37.2775C320.721 37.4212 320.754 37.5674 320.778 37.7151C320.579 38.5704 320.389 39.4158 320.249 40.2811C319.389 41.7055 318.385 43.0386 317.252 44.2594C316.881 44.4487 316.543 44.6974 316.253 44.9954C316.902 42.0713 318.82 39.7241 320.659 37.2874L320.679 37.2775ZM320.159 42.5885C320.244 43.2919 320.412 43.9829 320.659 44.6473C320.22 44.1795 319.613 43.9041 318.97 43.8815C319.37 43.4737 319.769 43.046 320.129 42.5985L320.159 42.5885ZM323.756 32.0957C324.535 29.7187 324.395 26.8742 322.387 25.0243L322.227 24.895C322.913 24.9461 323.577 25.1573 324.165 25.5116C324.982 26.3028 325.479 27.3641 325.564 28.4954C325.56 29.1637 325.49 29.8301 325.354 30.4845L325.134 32.4737C324.672 32.3239 324.202 32.201 323.726 32.1057L323.756 32.0957ZM321.038 24.0795C319.15 23.0849 317.152 23.5125 315.144 24.159C314.355 24.2386 313.576 24.3281 312.796 24.4474L312.437 24.338C312.344 23.7942 312.455 23.2355 312.746 22.7666C313.406 21.772 314.854 21.4538 315.983 21.4339C318.592 21.5185 321.08 22.5516 322.976 24.338C322.326 24.213 321.669 24.13 321.008 24.0894L321.038 24.0795ZM312.946 27.6301C313.725 28.6943 314.185 30.1862 315.184 31.0415C315.113 31.192 315.033 31.3381 314.944 31.4791C314.4 31.1239 313.94 30.6556 313.595 30.1066C313.292 29.5335 312.919 28.9991 312.487 28.5153C311.697 27.7818 310.699 27.3093 309.629 27.1626C309.783 26.9872 309.954 26.8273 310.139 26.6852C311.03 27.1055 311.964 27.4257 312.926 27.64L312.946 27.6301ZM308.95 25.2431C308.879 25.2572 308.813 25.2907 308.76 25.3399C308.707 25.3891 308.669 25.452 308.65 25.5216C307.529 25.2477 306.348 25.3527 305.294 25.82C304.681 26.1376 304.187 26.6432 303.885 27.2621C303.885 26.2078 304.574 25.2729 306.373 24.7359C306.988 24.557 307.634 24.5029 308.271 24.5767L308.95 24.706C309.265 24.7885 309.573 24.8983 309.869 25.0342L308.95 25.2431ZM304.235 30.027C305.252 30.7977 306.183 31.6747 307.012 32.6428V32.9212C306.537 32.7198 306.024 32.621 305.507 32.6312C304.99 32.6415 304.482 32.7607 304.015 32.9809C303.383 33.2848 302.808 33.6953 302.317 34.1943C302.267 33.876 302.207 33.5578 302.137 33.1997C302.597 32.0211 303.294 30.9483 304.185 30.0469L304.235 30.027ZM302.177 40.2115C302.375 40.3537 302.582 40.4833 302.796 40.5994C303.285 41.1445 303.928 41.5308 304.641 41.7081C305.353 41.8855 306.103 41.8457 306.792 41.5939C307.339 41.3819 307.826 41.0406 308.211 40.5994C308.715 40.2549 309.186 39.8654 309.619 39.4357C309.839 39.2368 310.049 39.008 310.279 38.8191C310.878 38.3317 311.088 38.1229 311.358 38.1229C311.747 39.3064 312.517 40.4402 312.447 41.763C312.307 44.15 309.12 44.6771 306.962 44.1401C305.074 43.6627 303.575 42.4294 302.037 41.4348C301.717 41.2259 301.188 40.9574 300.838 40.7088C300.562 40.0873 300.161 39.5288 299.659 39.0677H299.609C299.735 38.5612 299.966 38.0867 300.289 37.6753V37.6753C300.609 38.6992 301.254 39.5923 302.127 40.2214L302.177 40.2115ZM300.718 45.3137C300.718 45.7413 300.718 46.1789 300.718 46.6066C299.819 46.5469 298.92 46.5071 298.021 46.5071C295.723 46.5071 294.764 45.9203 294.195 43.9113C294.775 43.7073 295.379 43.5769 295.993 43.5234C297.527 43.325 299.083 43.3552 300.608 43.6129C300.638 44.2196 300.648 44.8064 300.678 45.3236L300.718 45.3137ZM297.112 47.5316C298.271 47.5316 299.509 47.5316 300.778 47.5316C300.778 48.5261 300.778 49.5207 300.778 50.5153C298.95 51.9972 297.781 53.8073 298.161 56.2341C298.227 56.6188 298.334 56.9955 298.48 57.358C298.022 57.4846 297.574 57.6475 297.142 57.8453C297.376 57.0772 297.504 56.2808 297.521 55.4782C297.521 52.1365 294.804 50.5053 292.866 47.9095C292.241 47.0914 291.761 46.1731 291.447 45.1943C291.915 44.8391 292.425 44.5418 292.966 44.3091C293.227 45.1035 293.641 45.8398 294.185 46.4773C295.144 47.6211 295.493 47.6012 297.062 47.5515L297.112 47.5316ZM298.61 58.2829L298.94 58.1934C299.515 59.1894 300.413 59.961 301.487 60.3815L301.687 60.4412C301.687 60.5904 301.747 60.7296 301.787 60.8788C301.964 61.5587 302.195 62.2238 302.476 62.8679C301.857 63.0768 301.248 63.3155 300.648 63.5641C299.06 62.9177 297.252 61.9629 296.972 60.7893C296.909 60.522 296.9 60.2448 296.946 59.9741C296.992 59.7034 297.092 59.4446 297.24 59.2129C297.388 58.9812 297.581 58.7813 297.808 58.625C298.034 58.4688 298.29 58.3592 298.56 58.3028L298.61 58.2829ZM300.728 64.4095C301.727 64.7974 302.726 65.1057 303.725 65.4041L303.975 65.9511C302.876 66.7024 302.101 67.839 301.807 69.1338C301.737 69.5117 301.697 69.9095 301.657 70.3074C300.794 70.4895 299.971 70.8266 299.23 71.3019C298.9 70.8444 298.59 70.377 298.31 69.8896C296.612 67.075 298.36 65.5135 300.678 64.4294L300.728 64.4095ZM301.597 73.6989L301.298 73.7784C300.766 73.2411 300.262 72.6768 299.789 72.0877C300.335 71.7302 300.931 71.4554 301.557 71.2721C301.505 72.0868 301.505 72.904 301.557 73.7188L301.597 73.6989ZM299.22 72.5054C299.629 73.0126 300.039 73.5 300.478 73.9972C299.743 74.2217 298.992 74.388 298.231 74.4945H297.801C298.078 73.7258 298.554 73.0432 299.18 72.5153L299.22 72.5054ZM300.968 74.4945C301.238 74.773 301.517 75.0515 301.797 75.3101C301.797 75.4792 301.797 75.6383 301.867 75.8074C301.358 76.3753 300.897 76.984 300.488 77.6274C300.117 78.2469 299.784 78.8879 299.489 79.547C298.974 79.1672 298.542 78.6866 298.221 78.1347C297.69 77.282 297.462 76.2772 297.571 75.2802C298.723 75.1776 299.853 74.9096 300.928 74.4846L300.968 74.4945ZM300.688 78.5226C301.064 77.7989 301.498 77.107 301.987 76.4538C302.288 77.9774 302.702 79.4766 303.226 80.9394C302.117 80.7762 301.046 80.4228 300.059 79.8951C300.199 79.4276 300.418 78.9602 300.638 78.5126L300.688 78.5226ZM303.146 73.5497C303.096 72.8535 303.056 72.1573 303.056 71.4511C303.056 71.3019 303.056 71.1627 303.056 71.0235C303.671 70.9795 304.29 71.0196 304.894 71.1428C304.769 71.7527 304.536 72.3354 304.205 72.8634C304.045 73.122 303.855 73.3607 303.665 73.5994C303.477 73.5617 303.287 73.5384 303.096 73.5298L303.146 73.5497ZM303.605 74.3553C304.051 74.4875 304.47 74.6962 304.844 74.9719C306.423 76.1157 307.162 77.6175 309.2 78.3236C310.668 78.8186 312.261 78.7975 313.715 78.264L314.055 78.5624C314.495 78.9602 314.964 79.3481 315.434 79.7459C314.094 79.7869 312.797 80.2231 311.707 80.9991C309.836 80.0781 308.024 79.0417 306.283 77.896C305.273 77.2165 304.3 76.4862 303.366 75.7079C303.366 75.3896 303.266 75.0714 303.226 74.7133L303.605 74.3553ZM311.008 81.5361C310.696 81.7942 310.402 82.0733 310.129 82.3716L309.879 82.67C308.3 81.85 306.57 81.3561 304.794 81.2179C304.285 79.8061 303.891 78.356 303.615 76.8815C305.905 78.6585 308.364 80.2075 310.958 81.5063L311.008 81.5361ZM310.009 83.9728C310.7 84.6515 311.316 85.4017 311.847 86.2106L311.478 86.3598C310.447 86.8083 309.282 86.8369 308.231 86.4394C308.75 85.6537 309.33 84.7785 309.949 83.943L310.009 83.9728ZM310.598 83.207C310.958 82.7502 311.349 82.3182 311.767 81.9141C312.766 82.4114 313.765 82.9087 314.764 83.3463L315.374 83.6148C314.627 84.5112 313.715 85.2573 312.686 85.8128C312.104 84.8317 311.376 83.9433 310.528 83.1772L310.598 83.207ZM316.593 84.2016C317.951 84.8282 319.14 85.6636 319.19 87.3842C319.173 88.3412 319.083 89.2954 318.92 90.2387C317.042 90.547 314.924 88.9258 313.925 87.7025C313.725 87.4539 313.546 87.1953 313.366 86.9267C314.617 86.2246 315.706 85.2692 316.563 84.122L316.593 84.2016ZM326.783 34.254C329.92 37.2974 328.271 42.2106 328.061 45.9402C327.842 49.9185 329.39 53.688 329.38 57.6464C329.415 59.4469 328.97 61.2245 328.091 62.7983C326.982 64.6681 325.664 64.7875 323.915 65.782C323.686 65.9143 323.471 66.0711 323.276 66.2495C324.185 63.1663 326.183 60.4909 326.493 57.2983C326.693 54.6187 326.092 51.9401 324.765 49.6003C324.921 48.3083 324.85 46.999 324.555 45.7314L325.714 35.3977L325.903 33.6672C326.21 33.7998 326.499 33.9702 326.763 34.1744L326.783 34.254ZM307.701 22.1002C309.839 21.8019 311.008 20.7675 312.836 19.763C315.833 18.1518 319.15 20.0216 321.897 21.225C324.365 22.2992 327.502 23.7413 326.663 26.725C323.855 23.1147 318.671 19.3552 314.055 20.7576C311.927 21.4239 311.308 22.6473 311.518 24.0198C308.212 22.9797 304.681 22.873 301.318 23.7115C303.016 22.2892 305.483 22.3986 307.701 22.1002ZM298.76 26.2277C300.677 24.8865 302.983 24.2087 305.324 24.2983C303.685 25.0044 302.426 26.4167 302.806 28.0478C302.908 28.4378 303.088 28.8032 303.336 29.122C302.618 29.7714 301.996 30.518 301.487 31.3399C301.162 30.7027 300.702 30.1429 300.139 29.6988C299.146 28.9572 297.933 28.5685 296.692 28.5948C297.212 27.6709 297.92 26.8648 298.77 26.2277H298.76ZM295.493 30.952L295.733 30.7332C295.897 30.5223 296.103 30.3465 296.337 30.2163C296.571 30.0862 296.829 30.0043 297.096 29.9755C297.363 29.9467 297.632 29.9717 297.889 30.0489C298.146 30.1261 298.384 30.2539 298.59 30.4249C299.072 30.7225 299.488 31.1137 299.814 31.5751C300.14 32.0365 300.37 32.5586 300.488 33.1102C300.488 33.1798 300.488 33.2594 300.538 33.329C300.162 34.3559 300.015 35.4523 300.109 36.5415C299.502 37.0685 298.965 37.67 298.51 38.3317C297.706 37.9652 296.826 37.7948 295.943 37.8344C296.167 37.3213 296.283 36.7678 296.283 36.2083C296.283 35.6488 296.167 35.0953 295.943 34.5822C295.743 34.0252 295.463 33.4881 295.283 32.9212C295.204 32.6626 295.134 32.4637 295.094 32.2847L295.493 30.952ZM294.764 39.7838C295.054 39.3164 295.303 38.9086 295.513 38.5306C296.421 38.3879 297.351 38.5341 298.171 38.9484C298.168 39.0014 298.168 39.0545 298.171 39.1075C298.144 39.3938 298.202 39.6817 298.336 39.936C298.471 40.1903 298.677 40.4 298.93 40.5397C299.337 40.8536 299.76 41.1457 300.199 41.4149C300.305 41.7403 300.388 42.0726 300.448 42.4095C298.288 42.1636 296.1 42.2949 293.985 42.7974C293.947 41.7323 294.236 40.681 294.814 39.7838H294.764ZM291.317 41.9818C291.726 40.8046 292.554 39.8173 293.645 39.207C292.953 40.4172 292.608 41.7932 292.646 43.1853C292.122 43.3686 291.614 43.5948 291.128 43.8616C291.089 43.2256 291.17 42.5881 291.367 41.9818H291.317ZM293.196 60.8788C293.774 59.8898 294.211 58.8253 294.494 57.716C294.914 54.2648 290.898 52.226 289.969 49.1527C289.784 48.5807 289.758 47.9694 289.896 47.3842C290.033 46.799 290.328 46.2621 290.748 45.8308C290.892 46.242 291.069 46.6411 291.277 47.0243C292.326 48.9339 294.145 50.1871 295.453 51.9276C297.032 54.0361 296.782 56.433 295.923 58.6808C295.726 58.9069 295.595 59.1819 295.543 59.4764C295.543 59.5262 295.543 59.5759 295.543 59.6256C295.383 59.9837 295.204 60.3318 295.024 60.6799C294.524 61.6744 293.945 62.5994 293.395 63.594C293.121 63.1936 292.962 62.7261 292.936 62.2423C292.909 61.7584 293.016 61.2766 293.245 60.8489L293.196 60.8788ZM293.935 72.943C293.372 72.3526 292.945 71.6464 292.686 70.8743C292.24 69.1853 292.428 67.3923 293.215 65.8318C293.693 66.3903 293.973 67.0888 294.015 67.8209C294.135 69.5018 293.975 71.2124 293.985 72.9132L293.935 72.943ZM294.055 64.5985L293.885 64.3797L294.025 64.1012C294.584 63.037 295.214 61.9728 295.773 60.8987C296.735 62.2656 298.06 63.3398 299.599 64.0018C298.752 64.4256 298.005 65.0259 297.411 65.7621C295.853 67.7513 297.242 69.999 298.55 71.7296C297.849 72.284 297.311 73.0156 296.992 73.8481C296.923 74.0433 296.866 74.2426 296.822 74.4448C296.289 74.352 295.776 74.1704 295.303 73.9077C295.303 72.1274 295.363 70.367 295.403 68.726C295.541 67.2236 295.074 65.7282 294.105 64.5687L294.055 64.5985ZM298.051 84.5696C297.698 84.1764 297.39 83.7462 297.132 83.2866C295.847 80.6609 295.197 77.7728 295.233 74.8526C295.673 75.046 296.137 75.1798 296.612 75.2504C296.552 76.0245 296.652 76.8026 296.907 77.5366C297.161 78.2705 297.564 78.9447 298.091 79.5171C298.387 79.8418 298.723 80.129 299.09 80.3725C298.859 80.9643 298.662 81.5686 298.5 82.1826C298.317 82.9608 298.197 83.7524 298.141 84.5497L298.051 84.5696ZM302.167 88.8662C301.508 88.9011 300.856 88.7274 300.303 88.37C299.75 88.0126 299.325 87.4899 299.09 86.877C299.553 87.116 300.042 87.2996 300.548 87.424C302.057 87.7821 303.545 87.7721 304.944 88.1003C304.135 88.5916 303.204 88.8498 302.257 88.8463L302.167 88.8662ZM306.163 87.245C305.695 87.0516 305.21 86.9018 304.714 86.7974C303.276 86.4991 301.717 86.6781 300.378 86.1808C299.789 85.9639 299.242 85.6477 298.76 85.2459C298.76 85.2459 298.76 85.2459 298.76 85.1962C298.76 83.6475 299.051 82.1125 299.619 80.6708C300.84 81.2253 302.148 81.5651 303.485 81.6754C303.645 82.0831 303.795 82.4909 303.965 82.8788C304.466 84.4359 305.328 85.8534 306.482 87.0163L306.163 87.245ZM305.164 82.6202C305.074 82.4014 304.984 82.1727 304.904 81.9539C305.324 82.0135 305.743 82.0832 306.153 82.1627C307.232 82.344 308.257 82.7656 309.15 83.396C308.53 84.2513 307.981 85.1465 307.322 85.9819C306.387 85.0301 305.692 83.8712 305.294 82.6003L305.164 82.6202ZM317.801 93.5606C314.846 92.5487 312.063 91.0931 309.549 89.2441C308.782 88.6599 307.978 88.1251 307.142 87.6428L307.252 87.5235C308.517 88.0715 309.943 88.1283 311.248 87.6826C311.701 87.5656 312.145 87.416 312.577 87.2351C313.056 87.9076 313.601 88.5306 314.205 89.0949C314.82 89.6972 315.551 90.1684 316.355 90.4796C317.159 90.7909 318.018 90.9356 318.88 90.905C318.808 91.9974 319.069 93.086 319.63 94.028C319.056 93.9226 318.488 93.7831 317.931 93.6103L317.801 93.5606ZM320.489 93.9087C319.835 92.9654 319.522 91.8295 319.6 90.6862C319.865 90.5942 320.119 90.4742 320.359 90.3282C320.885 90.0212 321.344 89.6119 321.708 89.1248C322.307 90.1193 323.056 91.3128 322.707 92.4964C322.62 92.9702 322.364 93.3967 321.985 93.6967C321.607 93.9966 321.132 94.1497 320.649 94.1275C320.738 94.0678 320.679 94.0081 320.619 93.9286L320.489 93.9087ZM326.483 91.9195C326.143 92.9141 325.564 94.6645 324.485 95.1121C324.06 95.2999 323.6 95.3927 323.136 95.3841C322.671 95.3755 322.215 95.2657 321.797 95.0624C323.156 94.7839 324.045 93.849 323.935 91.8201C323.838 90.8748 323.52 89.9654 323.006 89.1645C322.767 88.7369 322.487 88.3191 322.237 87.8915C322.326 86.8834 322.073 85.8747 321.518 85.0271C321.784 84.0694 322.313 83.2048 323.046 82.5307C323.549 82.0552 324.022 81.5504 324.465 81.0189C325.568 82.1957 326.479 83.5383 327.162 84.9973C327.991 87.2947 327.382 89.6917 326.623 91.9096L326.483 91.9195Z" fill="white"/>
<path d="M260.398 112C257.363 111.878 254.459 110.739 252.156 108.768C252.063 108.685 252.007 108.568 252.001 108.444C251.994 108.32 252.037 108.199 252.121 108.106C252.204 108.014 252.321 107.958 252.446 107.952C252.57 107.945 252.692 107.988 252.785 108.071C252.785 108.071 256.941 111.741 261.876 110.936C261.999 110.916 262.125 110.946 262.227 111.019C262.328 111.091 262.396 111.201 262.416 111.324C262.436 111.446 262.406 111.572 262.333 111.673C262.26 111.773 262.149 111.841 262.026 111.861C261.488 111.951 260.943 111.997 260.398 112V112Z" fill="white"/>
<path d="M366.164 65.424C366.148 65.3486 366.108 65.2803 366.051 65.2285C365.993 65.1768 365.921 65.1443 365.844 65.1356C365.1 64.9379 364.321 64.9013 363.561 65.0282C362.801 65.1552 362.078 65.4427 361.439 65.8715C362.124 63.9409 362.124 61.8347 361.439 59.9041C361.109 58.7205 360.749 57.5967 360.519 56.4629C360.536 55.4104 360.687 54.3642 360.969 53.3498C362.278 49.3715 366.963 46.5071 365.385 42.0017C364.666 40.3358 363.628 38.8256 362.328 37.556C360.862 35.9127 359.585 34.1113 358.521 32.1852C358.22 30.7918 357.527 29.5122 356.523 28.4954C354.975 25.8001 352.857 23.2539 349.48 22.5279C347.342 20.131 343.486 19.6735 340.319 20.0813H340.08C339.604 19.3717 339.066 18.706 338.471 18.0921C337.042 16.7096 334.865 15.536 332.837 16.1825C331.873 16.6062 331.048 17.2922 330.459 18.1617C329.331 19.3657 327.93 20.2831 326.373 20.8371C325.516 21.1266 324.795 21.7183 324.346 22.5007C323.897 23.283 323.751 24.2019 323.935 25.084C324.213 26.4374 324.413 27.8055 324.535 29.1816C323.599 30.8703 323.198 32.8017 323.386 34.7214C323.386 34.7811 323.386 34.8408 323.386 34.9004C323.066 37.8245 324.215 40.5795 325.384 43.1753L325.524 43.4836C324.967 44.1963 324.447 44.9365 323.965 45.7015C321.072 50.6318 317.015 54.7862 312.147 57.8055C308.87 59.7947 306.822 62.3408 308.52 65.971C310.129 69.4222 314.405 70.7848 318.331 70.5659L318.95 70.5063C318.802 71.1338 318.871 71.7928 319.147 72.3762C319.422 72.9595 319.888 73.4327 320.469 73.7188C321.468 74.2359 322.607 74.0171 323.466 74.4846C323.238 75.2723 323.173 76.098 323.276 76.9113C323.412 77.8742 323.805 78.783 324.415 79.5424C325.025 80.3019 325.829 80.884 326.743 81.2278C327.062 81.4963 327.412 81.745 327.742 81.9837C326.213 84.6989 325.584 87.4041 327.792 90.0596C328.077 90.401 328.395 90.7141 328.741 90.9945C328.667 91.1924 328.607 91.3951 328.561 91.6012C328.436 92.0233 328.409 92.4684 328.483 92.9023C328.557 93.3361 328.73 93.7474 328.989 94.1045C329.247 94.4616 329.584 94.7551 329.974 94.9625C330.364 95.1699 330.796 95.2857 331.238 95.3011C334.425 95.679 338.231 94.5352 341.128 93.4313C344.336 92.2096 347.322 90.4763 349.97 88.2992C350.399 87.9511 349.79 87.3047 349.36 87.6926C344.795 91.3824 338.371 94.4855 332.377 94.3662C329.5 94.3164 329.19 93.103 329.66 91.6211C330.825 92.251 332.111 92.6289 333.433 92.73C334.755 92.8311 336.084 92.6532 337.332 92.2079C339.48 91.4719 340.729 90.0696 342.397 88.7468C345.115 86.5985 347.912 87.5334 351.129 87.1555C355.125 86.688 357.612 83.6148 358.581 80.3426C359.71 76.5334 357.922 64.7278 365.385 65.9014C368.651 68.1193 371.269 70.556 372.378 74.2956C373.607 78.5822 371.928 82.3616 369.541 86.0416C365.345 92.5063 361.918 99.9656 364.595 107.514C364.725 107.873 365.405 107.833 365.365 107.425C364.875 102.571 364.775 97.9267 366.723 93.2821C368.492 89.085 371.948 85.594 373.407 81.2875C375.325 75.7079 372.508 67.8408 366.164 65.424ZM360.819 51.5994C360.679 51.848 360.569 52.1066 360.47 52.3652V52.3155C360.659 51.48 360.879 50.6744 361.009 49.8788C361.648 49.3715 362.328 48.8146 362.947 48.2377C362.258 49.3317 361.429 50.4258 360.819 51.6093V51.5994ZM363.427 46.8652C362.779 47.727 361.992 48.4764 361.099 49.0831C361.178 48.2243 361.041 47.3594 360.699 46.5668C360.24 45.5126 359.7 44.5777 359.301 43.5831C359.753 43.1674 360.308 42.879 360.909 42.7476C363.806 42.1509 364.675 45.0451 363.427 46.8652ZM358.831 34.5722C359.201 35.1704 359.608 35.7451 360.05 36.2928C361.189 37.6753 362.518 38.9484 363.527 40.4203C364.168 41.2946 364.558 42.326 364.655 43.4041C364.396 43.0781 364.086 42.796 363.736 42.5686C362.999 42.1701 362.16 41.9954 361.324 42.0661C360.488 42.1368 359.69 42.4498 359.031 42.9665C358.703 42.1279 358.521 41.2401 358.491 40.3408C358.432 38.4113 358.871 36.4918 358.841 34.5722H358.831ZM359.95 49.9484C359.451 50.3241 358.983 50.7399 358.551 51.1916C358.1 49.6687 357.895 48.0842 357.942 46.4972C357.996 45.8844 358.166 45.2873 358.442 44.7368C359.431 46.6563 360.17 47.9194 359.96 49.9484H359.95ZM359.321 55.4384C359.397 55.9514 359.504 56.4595 359.64 56.9601C359.58 58.8498 359.441 60.9384 357.922 62.2016C357.869 60.9652 357.742 59.7331 357.542 58.5117C357.881 58.037 358.178 57.5346 358.432 57.0099C359.095 55.363 359.186 53.5426 358.691 51.8381C358.726 51.8213 358.756 51.7976 358.781 51.7685C359.091 51.4366 359.425 51.1275 359.78 50.8435C359.78 50.8435 359.78 50.9131 359.78 50.943C359.355 52.4014 359.206 53.9258 359.341 55.4384H359.321ZM358.072 43.961C357.375 45.121 357.08 46.4769 357.233 47.82C357.442 50.6147 358.991 53.3598 358.012 56.1645C357.837 56.6387 357.616 57.095 357.353 57.5271C357.173 56.5325 356.963 55.6274 356.703 54.7124C356.347 53.2648 355.893 51.8427 355.345 50.4556C354.687 48.6767 354.461 46.7683 354.685 44.886C355.055 42.688 356.513 40.9077 357.413 38.9185C357.251 40.6289 357.484 42.3534 358.092 43.961H358.072ZM354.605 69.9294C353.666 70.924 353.796 72.207 353.796 73.4502C353.626 73.5895 353.446 73.7287 353.257 73.848L352.977 74.0072L353.047 73.8779C353.575 72.7843 353.689 71.5374 353.366 70.367C353.723 69.6376 353.94 68.8483 354.006 68.0397C354.106 66.8661 354.126 65.7721 354.286 64.6979C354.771 64.2591 355.204 63.765 355.574 63.226C355.764 63.2375 355.954 63.2375 356.144 63.226C356.14 63.2924 356.153 63.3586 356.181 63.4189C356.209 63.4792 356.252 63.5318 356.305 63.572C356.358 63.6122 356.421 63.6388 356.486 63.6496C356.552 63.6604 356.62 63.6549 356.683 63.6338C356.833 63.6338 356.963 63.5343 357.093 63.4846C357.149 65.2243 356.971 66.9637 356.563 68.6564C355.826 68.929 355.16 69.3642 354.615 69.9294H354.605ZM356.304 69.5316C356.092 70.2211 355.811 70.8875 355.464 71.5207C355.184 71.9953 354.848 72.4359 354.465 72.8336C354.465 72.6943 354.465 72.5551 354.465 72.4159C354.45 71.8066 354.618 71.2067 354.947 70.6929C355.277 70.1791 355.752 69.7748 356.314 69.5316H356.304ZM349.95 79.5569C348.671 80.2321 347.241 80.5742 345.794 80.5515C345.852 79.8324 345.805 79.1088 345.654 78.4032C346.928 78.2873 348.173 77.9507 349.33 77.4086C349.423 78.1538 349.635 78.8793 349.96 79.5569H349.95ZM344.126 78.9602C344.126 79.3083 344.126 79.7061 344.205 80.1238V80.3327C343.936 80.273 343.666 80.2133 343.396 80.1338C341.657 79.6282 340.096 78.646 338.891 77.2992C339.55 76.6229 340.359 77.4683 341.208 77.7866C342.148 78.1327 343.135 78.3372 344.136 78.3933C344.116 78.5723 344.126 78.7712 344.136 78.9602H344.126ZM336.683 86.6482C336.026 85.9544 335.564 85.1001 335.344 84.1718C335.344 83.9828 335.284 83.7938 335.254 83.6048C335.705 83.7454 336.191 83.7227 336.626 83.5406C337.061 83.3586 337.417 83.029 337.632 82.6103C338.471 81.3969 338.051 79.9647 338.261 78.632C339.761 80.2076 341.749 81.2371 343.906 81.556C343.779 82.2282 343.612 82.8925 343.406 83.5452C343.326 83.7839 343.226 84.0325 343.127 84.2812C342.267 85.0856 341.253 85.7096 340.146 86.1163C339.039 86.5229 337.861 86.7038 336.683 86.6482V86.6482ZM341.498 86.6482C341.198 86.9078 340.861 87.1222 340.499 87.2848C339.896 87.5709 339.224 87.6813 338.561 87.603C339.498 87.4582 340.41 87.1802 341.268 86.7775L341.498 86.6482ZM327.062 80.452C325.144 78.7016 326.063 76.4737 324.894 74.584C324.772 74.3898 324.616 74.2182 324.435 74.0768C324.485 73.9475 324.545 73.8083 324.605 73.679C324.894 74.4106 325.395 75.0405 326.043 75.4891C326.913 75.9674 327.725 76.5449 328.461 77.2097C329.46 78.5126 329.02 79.7558 328.341 80.9792C328.026 80.9327 327.715 80.8595 327.412 80.7604L327.062 80.452ZM322.627 65.8815C323.737 66.1491 324.755 66.709 325.574 67.5027L322.886 68.3779C321.995 68.6607 321.083 68.8735 320.159 69.0144C320.682 67.8274 321.39 66.7298 322.257 65.7621L322.627 65.8815ZM325.334 66.3092C324.534 65.8267 323.679 65.4427 322.786 65.1654C323.276 64.6184 323.785 64.1111 324.145 63.6934L324.814 62.9475H324.894C326.213 62.9475 327.622 62.858 329.01 62.8978C328.697 64.3068 328.196 65.6681 327.522 66.9457L326.393 67.264C326.092 66.8926 325.735 66.5704 325.334 66.3092V66.3092ZM325.394 29.5098C326.118 28.2092 327.232 27.166 328.581 26.5261C329.848 25.9136 331.251 25.6329 332.657 25.7106C327.592 29.5098 326.932 35.5768 327.432 41.3254L326.902 41.8326C326.076 40.2639 325.356 38.6425 324.745 36.9791C324.494 36.1244 324.346 35.2429 324.305 34.3534C324.747 32.7709 325.11 31.1677 325.394 29.5496V29.5098ZM349.161 23.1843C349.82 24.0395 350.172 25.0902 350.16 26.1681C350.173 26.3634 350.173 26.5595 350.16 26.7549C349.722 26.746 349.284 26.7095 348.851 26.6455C347.626 26.4142 346.432 26.0403 345.294 25.5315C345.072 25.1529 344.785 24.8162 344.445 24.537V24.537C345.085 23.9389 345.859 23.5024 346.703 23.2639C347.512 23.0894 348.347 23.0759 349.161 23.2241V23.1843ZM349.31 35.9249V36.0541C348.245 35.3845 347.444 34.3692 347.043 33.1798C346.663 31.6183 346.783 29.8778 345.414 28.6744L345.284 28.5749C345.555 28.0891 345.686 27.5386 345.664 26.9836C346.994 27.5236 348.399 27.859 349.83 27.9782C349.354 29.0845 348.973 30.229 348.691 31.3995C348.542 32.9354 348.754 34.4847 349.31 35.9249V35.9249ZM351.748 74.5343L351.149 74.7034C351.568 74.584 350.22 74.8426 350.15 74.8625C349.892 75.0622 349.683 75.3169 349.538 75.6078C349.393 75.8988 349.315 76.2185 349.31 76.5433C348.267 77.1165 347.119 77.475 345.934 77.5976C346.745 76.4543 347.761 75.4697 348.931 74.6934C350.327 73.8102 351.578 72.7164 352.637 71.4511C352.749 72.5543 352.43 73.658 351.748 74.5343V74.5343ZM338.271 76.5235C338.031 76.2062 337.81 75.874 337.612 75.5289C338.893 75.0764 340.272 74.97 341.608 75.2206C341.694 75.2436 341.786 75.234 341.865 75.1935C341.944 75.1531 342.006 75.0848 342.038 75.0018C342.372 73.5937 342.404 72.131 342.13 70.71C341.856 69.2889 341.283 67.9417 340.449 66.7567C339.535 65.5374 338.972 64.0933 338.821 62.5795C339.904 63.5606 341.052 64.4678 342.257 65.2947C343.128 67.6056 343.65 70.0322 343.806 72.4954C343.532 73.3232 343.557 74.22 343.876 75.0316L343.996 75.3698C343.996 76.1356 344.066 76.8914 344.096 77.6473C342.407 77.4949 340.789 76.9051 339.4 75.9367C339.338 75.8999 339.267 75.8804 339.195 75.8804C339.123 75.8804 339.053 75.8999 338.991 75.9367C338.719 76.1059 338.476 76.3174 338.271 76.5632V76.5235ZM333.886 81.6754C333.451 81.2187 333.112 80.6814 332.887 80.094C333.039 79.9396 333.182 79.7769 333.316 79.6066C333.948 78.6198 334.664 77.6882 335.454 76.8218C335.294 78.6021 334.695 80.3227 334.555 82.0831C334.308 81.9903 334.081 81.852 333.886 81.6754V81.6754ZM327.212 42.6681L327.522 42.3598C327.592 43.0162 327.672 43.6726 327.762 44.3489C327.612 43.8616 327.462 43.3543 327.282 42.8769L327.212 42.6681ZM346.953 35.0397C347.419 35.6375 348 36.1378 348.661 36.5117C349.109 36.8167 349.524 37.1666 349.9 37.556V37.6256L349.84 37.7051C349.198 38.3395 348.398 38.7925 347.522 39.018C346.913 36.5713 344.285 34.7811 341.788 33.7965C341.343 33.6184 340.881 33.4851 340.409 33.3986C340.258 31.8071 339.588 30.3086 338.501 29.1319L338.711 29.0324C339.35 29.6656 340.146 30.1186 341.019 30.3453C341.691 30.5266 342.4 30.5195 343.068 30.3247C343.736 30.1299 344.337 29.7549 344.805 29.2413C346.443 30.6934 345.784 33.2793 346.953 35.0596V35.0397ZM351.438 51.0424C351.568 50.6545 351.698 50.2766 351.808 49.8987C351.918 49.5207 351.928 49.4113 351.998 49.1726C352.594 50.1665 352.887 51.3116 352.841 52.4683C352.794 53.625 352.411 54.7433 351.738 55.6871L351.638 55.8164C351.744 54.2225 351.677 52.622 351.438 51.0424V51.0424ZM350.959 52.8327C351.039 54.0361 350.959 55.3191 350.889 56.5921C350.442 56.9285 349.947 57.1966 349.42 57.3878C349.81 55.748 350.31 54.1364 350.919 52.5641C350.939 52.6138 350.949 52.7034 350.959 52.8327ZM350.27 64.4394L350.07 64.0515C349.632 63.1798 349.342 62.2423 349.211 61.2766C349.956 62.1461 350.335 63.2684 350.27 64.4095V64.4394ZM342.757 64.2902C342.465 63.6493 342.131 63.0281 341.758 62.4303C341.276 61.6623 340.742 60.9279 340.159 60.2323C340.304 60.1348 340.454 60.0452 340.609 59.9638C341.171 59.6773 341.769 59.4666 342.387 59.3372C342.803 59.5498 343.259 59.675 343.726 59.7052C345.494 59.8643 346.883 59.3471 348.481 60.6003C348.54 61.9229 348.881 63.2178 349.48 64.3996C349.67 64.7775 349.87 65.1455 350.09 65.5234C350.09 65.5931 350.09 65.6627 350.04 65.7323C348.791 66.0232 347.494 66.0422 346.237 65.7882C344.98 65.5341 343.793 65.013 342.757 64.2603V64.2902ZM349.36 67.0153C348.102 68.7658 345.834 69.7703 344.545 71.2323C344.366 69.4384 343.997 67.6683 343.446 65.9511C345.248 66.9401 347.327 67.3073 349.36 66.9954V67.0153ZM336.373 67.5126L336.193 67.4231C336.146 66.7134 335.956 66.0203 335.636 65.3848C335.315 64.7493 334.869 64.1844 334.325 63.7233C334.699 62.534 334.858 61.288 334.795 60.0433C334.743 59.5472 334.619 59.0612 334.425 58.6012C335.449 59.8708 336.662 60.9776 338.022 61.8833C337.442 64.0017 339.18 65.9312 340.229 67.6916C341.095 69.0354 341.607 70.5746 341.718 72.1672C341.718 72.9131 342.028 74.0967 341.158 74.5244C340.443 74.5737 339.726 74.5737 339.011 74.5244C338.448 74.6082 337.896 74.7481 337.362 74.9421C336.418 72.8167 336.19 70.444 336.713 68.179C336.737 68.0435 336.717 67.9039 336.656 67.7804C336.595 67.657 336.496 67.5562 336.373 67.4927V67.5126ZM330.159 53.141L330.719 52.9719C330.902 53.8893 331.272 54.7594 331.808 55.528C332.986 57.2884 334.225 58.8299 334.105 60.9882C334.048 61.7573 333.921 62.5196 333.726 63.2658C332.67 62.6177 331.475 62.2291 330.239 62.1319C330.648 59.1468 330.621 56.1184 330.159 53.141ZM340.549 34.3435C341.614 34.6237 342.626 35.0738 343.546 35.6762C345.364 36.8001 346.333 38.0135 346.543 39.5849C345.204 40.4862 344.189 41.7893 343.646 43.3046C341.918 42.8968 340.139 42.5587 338.431 42.0912C339.355 40.7855 340.004 39.307 340.339 37.7449C340.56 36.6253 340.63 35.4815 340.549 34.3435V34.3435ZM346.613 40.3109C346.615 40.8426 346.558 41.3729 346.443 41.8923C346.313 42.5587 346.094 43.2549 346.014 43.9511C345.424 43.7621 344.835 43.593 344.225 43.4439C344.225 43.3742 344.225 43.2947 344.305 43.225C344.81 42.0612 345.604 41.0446 346.613 40.2712V40.3109ZM333.916 57.4773C333.941 57.5683 333.971 57.6579 334.005 57.7459C333.216 56.3535 332.007 55.1301 331.488 53.5786C331.398 53.3293 331.327 53.0732 331.278 52.8128L331.568 52.7232C332.417 53.6383 333.326 54.5135 334.245 55.3887C333.902 56.0279 333.786 56.764 333.916 57.4773V57.4773ZM336.813 44.0605C337.162 44.3091 337.522 44.5677 337.892 44.8064C338.131 47.5415 335.974 49.9981 333.376 51.311C332.906 51.5458 332.423 51.7518 331.928 51.9276C331.698 51.669 331.488 51.4005 331.268 51.1319C331.808 48.3471 334.825 46.1093 336.823 44.0605H336.813ZM336.073 42.0713C336.403 42.1907 336.733 42.31 337.072 42.4194V42.499L336.843 42.7675C336.603 42.5587 336.333 42.3299 336.073 42.0813V42.0713ZM332.457 52.4249C335.454 51.3109 337.982 49.5406 338.661 46.4574C338.742 46.0915 338.786 45.7182 338.791 45.3435C341.218 46.8851 344.175 48.8146 343.786 51.5596C343.027 51.48 342.098 51.3308 341.788 51.3507C339.69 51.4524 337.668 52.1648 335.974 53.3996C335.493 53.7669 335.066 54.1987 334.705 54.6826C333.896 53.9466 333.136 53.2006 332.457 52.4249ZM338.641 43.9909C338.541 43.566 338.397 43.1527 338.211 42.7576C339.011 42.9764 339.81 43.1554 340.589 43.2947C341.588 43.4737 342.587 43.6527 343.526 43.8715C343.194 45.0806 343.226 46.3599 343.616 47.5514C343.703 47.7792 343.803 48.0017 343.916 48.2178C342.627 46.4176 340.549 45.2639 338.591 43.9909H338.641ZM339.24 39.2169C338.86 40.1595 338.341 41.0409 337.702 41.8326C336.9 40.6258 335.674 39.7604 334.265 39.4059C334.133 39.0819 334.023 38.7497 333.936 38.4113C334.694 37.2664 335.593 36.2206 336.613 35.2983C337.057 34.9166 337.576 34.631 338.136 34.4598C338.697 34.2886 339.287 34.2354 339.87 34.3037C340.024 35.9716 339.792 37.6525 339.19 39.2169H339.24ZM333.746 37.2277C333.564 35.5391 333.962 33.8389 334.875 32.4041C335.633 31.2634 336.628 30.297 337.792 29.5695C338.684 30.3936 339.31 31.4634 339.59 32.6428C339.65 32.8616 339.69 33.0704 339.73 33.2892C337.052 33.2196 335.294 35.1292 333.696 37.2675L333.746 37.2277ZM332.747 34.98C332.521 36.1163 332.552 37.2883 332.837 38.4113L332.407 38.9882C329.58 36.2133 329 31.31 333.136 29.1717C333.714 28.828 334.369 28.635 335.041 28.6107C335.714 28.5864 336.382 28.7314 336.983 29.0324C335.912 29.7007 334.985 30.5742 334.256 31.602C333.527 32.6298 333.011 33.7916 332.737 35.0198L332.747 34.98ZM328.881 45.075C330.109 43.4339 331.338 41.8028 332.577 40.1717C333.047 40.517 333.541 40.8294 334.055 41.1066C334.663 41.9954 335.389 42.7983 336.213 43.4936C334.075 45.8109 331.578 48.009 330.859 50.5551C330.347 49.9225 329.876 49.2581 329.45 48.5659C329.24 47.4222 329.04 46.2684 328.871 45.1147L328.881 45.075ZM328.721 43.9411C328.641 43.3146 328.561 42.6979 328.501 42.0713C328.501 41.8923 328.501 41.7133 328.501 41.5343C329.085 41.0891 329.727 40.7245 330.409 40.4502C330.797 40.2995 331.198 40.1863 331.608 40.112L328.721 43.9411ZM330.639 51.6193C330.639 51.858 330.639 52.0668 330.639 52.2856L330.069 52.4547C329.976 51.7917 329.88 51.1584 329.78 50.5551C330.049 50.9628 330.329 51.3209 330.629 51.669L330.639 51.6193ZM334.085 64.5488C334.649 65.1894 334.998 65.9889 335.084 66.8363C334.607 66.6598 334.116 66.5234 333.616 66.4285C333.746 65.8715 333.906 65.245 334.075 64.6283L334.085 64.5488ZM335.194 56.8308C335.151 56.6209 335.151 56.4043 335.194 56.1943C336.528 57.4153 337.799 58.7033 339.001 60.0533C338.83 60.2244 338.677 60.4108 338.541 60.6102C337.302 59.6554 335.454 58.4023 335.184 56.9104L335.194 56.8308ZM335.544 55.4086C336.658 54.1088 338.12 53.1501 339.76 52.6437C340.995 52.2555 342.294 52.1037 343.586 52.1961C343.543 52.3378 343.493 52.4772 343.436 52.6138C342.657 54.3444 340.899 55.5976 341.308 57.5867C341.382 57.9455 341.532 58.2845 341.748 58.5813C341.01 58.7511 340.306 59.0472 339.67 59.4565C338.391 58.1536 336.963 56.811 335.534 55.4882L335.544 55.4086ZM339.54 60.6699C339.94 61.1573 340.319 61.6645 340.669 62.1817C340.819 62.4104 340.959 62.6392 341.099 62.8679C340.449 62.301 339.82 61.7242 339.18 61.1573C339.289 61.0239 339.409 60.9007 339.54 60.7893V60.6699ZM348.531 59.6753C348.117 59.4051 347.671 59.1879 347.203 59.0289C346.856 58.9205 346.497 58.857 346.134 58.8399L346.863 58.7603C347.475 58.682 348.077 58.542 348.661 58.3426C348.581 58.8033 348.527 59.2682 348.501 59.735L348.531 59.6753ZM343.196 58.3824C341.688 57.6464 342.477 56.1048 343.316 54.8218C343.876 54.0557 344.339 53.2239 344.695 52.3453L345.294 52.4547C345.504 52.4547 345.804 52.395 345.834 52.1762C345.972 51.1342 345.735 50.077 345.165 49.1925C344.166 47.4222 343.596 45.8507 344.086 43.9909C344.752 44.15 345.418 44.339 346.084 44.5578C346.085 44.8057 346.115 45.0527 346.174 45.2938C346.465 46.2292 347.1 47.021 347.952 47.5117C349.404 48.4068 350.441 49.8367 350.839 51.49C350.037 53.472 349.369 55.5055 348.841 57.5768C346.97 57.9836 345.075 58.2693 343.166 58.4321L343.196 58.3824ZM351.189 50.1473C350.772 48.9457 349.99 47.9029 348.951 47.1636C348.161 46.6439 347.561 45.8831 347.242 44.9954C348.126 45.3742 348.959 45.8621 349.72 46.4475C350.476 47.0378 351.131 47.7465 351.658 48.546C351.512 49.1229 351.362 49.6765 351.209 50.207L351.189 50.1473ZM352.038 46.5967C352.038 46.9249 351.938 47.2531 351.878 47.5912C350.622 46.076 348.974 44.9309 347.113 44.2793C347.08 43.7629 347.117 43.2443 347.223 42.7377C347.432 41.9371 347.586 41.1229 347.682 40.301C347.704 40.0495 347.704 39.7966 347.682 39.5451C347.852 39.4556 348.032 39.3561 348.202 39.2766C349.68 38.6202 349.84 38.9583 350.2 38.282C351.289 40.9872 352.437 43.5831 352.058 46.6563L352.038 46.5967ZM342.377 29.659C341.861 29.7232 341.337 29.6727 340.843 29.511C340.349 29.3493 339.897 29.0806 339.52 28.7241C340.749 28.244 342.099 28.1639 343.376 28.4954C343.646 28.5719 343.907 28.6751 344.156 28.8037C343.67 29.2708 343.047 29.5706 342.377 29.659V29.659ZM338.161 28.4158L337.792 28.5849C336.922 28.0736 335.909 27.8572 334.905 27.9682C330.978 28.2865 328.711 32.2947 329.36 35.5071C329.658 36.9554 330.389 38.2799 331.458 39.3064C330.329 39.5199 329.263 39.9858 328.341 40.669C328.111 36.9891 328.451 33.15 330.509 29.9077C331.459 28.3699 332.768 27.0835 334.325 26.1581L334.645 26.2675C335.784 26.7549 336.643 27.7494 337.882 28.0776L338.161 28.4158ZM328.461 48.556V48.7151L328.341 48.3769L328.461 48.556ZM329.25 53.6979C329.572 56.0385 329.615 58.4087 329.38 60.7594C329.33 61.207 329.26 61.6545 329.17 62.1021C328.071 62.1021 326.723 62.2215 325.494 62.1021C327.592 59.6157 329.1 56.99 329.25 53.688V53.6979ZM324.525 62.0225C323.256 61.7938 322.307 61.2368 322.257 59.9439C322.127 56.4629 325.114 54.4737 328.431 53.5786C328.431 53.7576 328.431 53.9366 328.431 54.1256C328.231 57.3281 326.523 59.735 324.525 62.0126V62.0225ZM329.919 63.6835C329.979 63.4448 330.019 63.2061 330.069 62.9574C330.93 63.0259 331.774 63.2342 332.567 63.5741C332.921 63.7241 333.256 63.9144 333.566 64.141C333.366 64.8969 333.166 65.6428 333.026 66.4086C331.658 66.2618 330.275 66.3357 328.93 66.6274C329.347 65.6782 329.675 64.6927 329.909 63.6835H329.919ZM333.456 67.7513C334.028 67.8834 334.584 68.0768 335.114 68.3282C335.01 69.3436 334.792 70.3444 334.465 71.3119C333.818 70.2573 333.472 69.0468 333.466 67.811L333.456 67.7513ZM334.885 73.5895C335.222 74.2478 335.416 74.9697 335.454 75.7079C335.454 75.8074 335.454 75.9068 335.454 76.0063C334.958 76.357 334.509 76.7679 334.115 77.2296C333.826 77.5678 333.576 77.9258 333.326 78.2839C333.556 77.5976 333.786 76.9511 333.946 76.424C334.235 75.4692 334.575 74.5443 334.895 73.6193L334.885 73.5895ZM336.123 76.235L336.393 76.0759C336.741 76.7491 337.156 77.3856 337.632 77.9755C337.482 78.7314 337.492 79.5569 337.402 80.3924C337.339 80.924 337.07 81.41 336.652 81.7464C336.233 82.0829 335.7 82.243 335.164 82.1925C335.274 80.2332 336.063 78.2739 336.133 76.2649L336.123 76.235ZM352.198 71.2621C350.569 73.4701 347.532 74.4746 345.774 76.603C345.611 76.8056 345.461 77.0182 345.324 77.2396C345.145 76.7522 344.925 76.245 344.715 75.7974C344.715 74.4846 344.715 73.1916 344.615 71.9981V71.8788C345.158 71.1775 345.838 70.5923 346.613 70.1582C348.088 69.379 349.337 68.235 350.24 66.8363L350.749 66.6871C351.548 67.9182 352.164 69.2583 352.577 70.6654C352.468 70.8659 352.344 71.0587 352.208 71.2423L352.198 71.2621ZM351.438 66.4285C352.114 66.172 352.758 65.8383 353.357 65.4339C353.373 66.7674 353.262 68.0994 353.027 69.4122C352.586 68.3732 352.055 67.3747 351.438 66.4285V66.4285ZM351.618 65.1654C351.364 65.2785 351.104 65.3781 350.839 65.4638L350.769 65.3544C350.99 64.4234 350.95 63.45 350.655 62.5399C350.359 61.6298 349.818 60.8179 349.091 60.1925C349.08 59.5267 349.127 58.8612 349.231 58.2034C349.804 57.9629 350.348 57.6558 350.849 57.2884C350.809 58.7112 351.237 60.1081 352.068 61.2667C352.578 61.9068 353.227 62.4236 353.966 62.7784C353.871 62.9894 353.788 63.2051 353.716 63.4249C353.716 63.5741 353.636 63.7332 353.596 63.8824C353.024 64.4118 352.37 64.8452 351.658 65.1654H351.618ZM351.618 56.5921C352.736 55.4914 353.413 54.0227 353.521 52.461C353.63 50.8994 353.163 49.3519 352.208 48.1084C352.422 46.9847 352.5 45.8392 352.437 44.697C352.661 45.8905 352.968 47.067 353.357 48.2178C354.425 51.2015 355.834 54.245 355.924 57.4674C355.948 58.2685 355.878 59.0696 355.714 59.8544C355.151 60.5683 354.646 61.3267 354.206 62.122C352.497 61.0777 351.778 58.5216 351.668 56.5921H351.618ZM353.117 43.8317C352.737 41.9918 352.557 40.0424 351.588 38.3516C351.314 37.9141 350.978 37.5187 350.589 37.178C350.929 36.3227 351.279 35.4673 351.588 34.622L352.118 33.4185C352.857 31.7476 352.327 31.7078 354.545 31.9068C356.294 32.0659 356.324 31.9068 356.793 33.2494C357.018 33.8737 357.153 34.5267 357.193 35.1889C357.22 36.301 356.999 37.4053 356.543 38.4212C355.375 41.1961 353.826 43.2549 353.626 45.9999C353.516 45.2739 353.317 44.5578 353.167 43.8317H353.117ZM344.865 26.6952C344.878 26.8341 344.878 26.974 344.865 27.1129C344.863 27.4836 344.764 27.8474 344.575 28.1672C343.421 27.6245 342.132 27.4309 340.869 27.6102C341.603 27.1427 342.274 26.5846 342.867 25.9493C343.646 26.178 344.275 26.4366 344.915 26.6852L344.865 26.6952ZM341.578 26.0984C340.389 27.093 339.47 27.471 338.141 27.093C337.712 26.4565 337.312 25.7802 336.873 25.1039C338.084 24.8404 339.338 24.8404 340.549 25.1039C341.069 25.2232 341.548 25.3724 342.068 25.5315C341.948 25.7901 341.798 25.9791 341.628 26.0885L341.578 26.0984ZM336.143 25.5813C336.383 25.9194 336.613 26.2675 336.843 26.5758H336.793C336.373 26.367 336.013 25.989 335.604 25.7702L335.314 25.631C335.534 25.5415 335.764 25.452 336.003 25.3823L336.143 25.5813ZM333.646 25.1039C331.651 24.7804 329.604 25.1305 327.832 26.0984C328.87 24.9979 330.098 24.0917 331.458 23.423C332.751 23.2715 334.052 23.6283 335.084 24.4176C334.604 24.6087 334.139 24.8382 333.696 25.1039H333.646ZM326.773 44.697L326.313 43.7024L326.373 43.6229C326.553 43.971 326.683 44.329 326.822 44.6871L326.773 44.697ZM328.461 52.9321C325.863 53.6184 323.466 54.424 322.117 57.1093C320.938 59.4665 321.118 62.2016 323.835 62.8083L323.356 63.3354C323.006 63.7133 322.527 64.2504 322.017 64.8869C318.97 63.8923 316.023 62.8978 318.491 58.9891C320.489 55.8462 323.046 52.8923 325.294 49.8887L327.232 47.3128C327.949 49.1058 328.365 51.0045 328.461 52.9321V52.9321ZM326.902 70.1681C326.942 70.054 326.975 69.9378 327.002 69.82C327.402 69.2233 327.832 68.6365 328.161 68.0596L328.211 67.9602C329.718 67.5608 331.289 67.4561 332.837 67.6518C332.766 68.3685 332.82 69.0918 332.996 69.7902C333.277 70.6659 333.677 71.4992 334.185 72.2667C333.526 74.1763 332.867 76.0759 332.297 78.0054C332.3 76.6484 332.54 75.3023 333.006 74.0271C334.005 70.2377 329.86 69.5018 326.813 70.3074C326.813 70.2875 326.852 70.2377 326.872 70.1781L326.902 70.1681ZM326.902 74.6338C326.464 74.2884 326.147 73.8136 325.996 73.2776C325.845 72.7416 325.869 72.1719 326.063 71.65C326.981 71.0799 328.05 70.7991 329.13 70.8444C330.839 70.9339 332.367 71.6202 332.127 73.8282C332.012 74.2682 331.858 74.6975 331.668 75.1112C331.194 76.6494 331.229 78.2985 331.768 79.8155L331.648 80.2432C331.117 80.6415 330.49 80.892 329.83 80.9692C330.041 80.5508 330.205 80.1106 330.319 79.6564C330.968 76.8915 328.641 76.2649 326.862 74.6437L326.902 74.6338ZM329.46 81.6754H329.56C330.206 81.6262 330.837 81.454 331.418 81.1681C331.187 82.013 331.106 82.8914 331.178 83.764L331.088 83.6347C330.556 83.0189 329.937 82.4829 329.25 82.0434L329.46 81.6754ZM332.537 81.2974C333.055 82.0929 333.736 82.7707 334.535 83.2866C334.56 83.8235 334.654 84.3549 334.815 84.868C335.005 85.4508 335.285 86.001 335.644 86.4991C335.103 86.3789 334.582 86.1848 334.095 85.9222C332.457 84.9674 332.217 83.1772 332.527 81.2974H332.537ZM350.23 76.8915C350.948 76.4587 351.592 75.9148 352.138 75.2802C352.682 75.0724 353.213 74.8298 353.726 74.5542C353.57 75.477 353.222 76.3575 352.707 77.1398C352.191 77.9222 351.517 78.5895 350.729 79.0994C350.403 78.4117 350.229 77.662 350.22 76.9014L350.23 76.8915ZM355.994 62.5994C356.398 61.8794 356.698 61.1058 356.883 60.3019C356.963 61.0081 357.013 61.7341 357.053 62.48C356.706 62.5637 356.351 62.607 355.994 62.6093V62.5994ZM356.224 29.8778C356.773 30.6347 357.164 31.4938 357.373 32.4041C356.743 30.7033 355.634 29.4203 353.826 30.0966C352.457 30.5939 352.008 32.6428 351.588 33.6871C351.169 34.7314 350.879 35.8453 350.389 36.8498C349.557 34.9764 349.316 32.8951 349.7 30.8824C349.96 29.8878 350.389 28.9628 350.699 28.018C352.827 28.0578 354.865 28.0677 356.224 29.8878V29.8778ZM354.755 27.3118C353.531 26.916 352.243 26.7573 350.959 26.8444C351.061 26.2074 351.023 25.556 350.849 24.9348C350.704 24.4334 350.496 23.9523 350.23 23.5026C352.09 24.2874 353.668 25.6156 354.755 27.3118V27.3118ZM348.331 22.4285C346.912 22.33 345.501 22.7197 344.335 23.5324C344.112 23.6912 343.898 23.864 343.696 24.0496C342.682 23.2718 341.779 22.3619 341.009 21.3444L340.749 20.9764C343.356 20.7775 346.443 21.0062 348.331 22.4285V22.4285ZM340.709 22.4285C341.342 23.2591 342.073 24.0104 342.887 24.6662L342.677 24.5867C340.576 23.7596 338.268 23.6032 336.073 24.1391C335.873 23.9172 335.652 23.7141 335.414 23.5324C334.821 23.096 334.139 22.7939 333.416 22.6473C334.982 22.099 336.589 21.6733 338.221 21.3742C338.691 21.2847 339.22 21.1952 339.79 21.1256C340.09 21.5433 340.449 22.0008 340.719 22.3887L340.709 22.4285ZM324.864 25.5514C324.741 25.0067 324.728 24.443 324.826 23.8932C324.924 23.3433 325.13 22.8184 325.434 22.3489C326.073 21.5632 327.432 21.3543 328.281 20.9963C330.279 20.0912 331.278 17.6445 333.436 17.1373C335.964 16.5505 337.722 18.3805 339.17 20.3001C336.402 20.6468 333.706 21.422 331.178 22.5975C330.29 22.7591 329.452 23.1258 328.732 23.6682C328.012 24.2106 327.43 24.9135 327.032 25.7205C327.007 25.7803 326.995 25.8447 326.996 25.9096C326.997 25.9744 327.011 26.0384 327.039 26.0973C327.066 26.1563 327.105 26.2089 327.154 26.2519C327.203 26.2949 327.26 26.3273 327.322 26.3471C326.738 26.7 326.201 27.1243 325.724 27.6102C325.594 27.7494 325.474 27.8887 325.354 28.0279C325.254 27.1925 325.014 26.3869 324.864 25.5514ZM324.635 39.3064C325.124 40.48 325.634 41.6437 326.083 42.8073L326.003 42.9167C325.458 41.7486 325.001 40.5419 324.635 39.3064V39.3064ZM308.92 63.0469C309.01 60.0632 312.177 58.82 314.515 57.1988C316.407 55.8937 318.164 54.4044 319.759 52.7531C321.321 51.1157 322.713 49.3265 323.915 47.4122C324.565 46.4176 325.204 45.3037 325.913 44.2793C326.246 45.002 326.563 45.7281 326.862 46.4574L324.045 50.2468L319.809 55.9158C318.631 57.4972 316.682 59.377 316.643 61.4059C316.593 63.9321 319.19 64.8372 321.488 65.5334C320.616 66.6328 319.891 67.8396 319.33 69.1238C314.475 69.6708 308.75 68.4574 308.92 63.0469ZM319.909 71.6898C319.783 71.2506 319.746 70.7909 319.799 70.3372C321.91 69.8788 323.988 69.2875 326.023 68.5668C326.044 68.7519 326.044 68.9387 326.023 69.1238C325.497 69.7815 325.051 70.4993 324.695 71.2621C324.633 71.3176 324.585 71.3875 324.558 71.4657C324.53 71.5439 324.522 71.6278 324.535 71.7097C324.459 71.9491 324.409 72.1958 324.385 72.4457C324.124 72.8388 323.9 73.255 323.716 73.6889C322.377 73.1419 320.469 73.4999 319.939 71.7296L319.909 71.6898ZM324.315 78.0352C323.953 77.1002 323.876 76.0794 324.095 75.1012C324.163 75.1992 324.223 75.3023 324.275 75.4095C324.794 76.5036 324.525 77.8661 324.964 79.0099C324.964 79.1094 325.054 79.1889 325.094 79.2784C324.777 78.9085 324.523 78.4883 324.345 78.0352H324.315ZM329.15 89.9005C328.346 89.1422 327.813 88.1426 327.632 87.0543C327.452 85.966 327.634 84.8488 328.151 83.8734C328.341 83.4954 328.561 83.1175 328.781 82.7495C330.659 84.0922 331.778 85.6139 330.479 87.9511C330.089 88.6573 329.62 89.2938 329.22 89.9403L329.15 89.9005ZM341.238 88.6374C338.241 91.1935 333.686 93.1826 330.099 90.6266C330.599 89.5822 331.278 88.4982 331.608 87.6428C331.88 86.9993 331.993 86.3 331.938 85.6039C332.564 86.3268 333.352 86.8926 334.239 87.2555C335.126 87.6183 336.087 87.7681 337.042 87.6926C337.581 88.0075 338.187 88.1883 338.811 88.2197C339.764 88.2063 340.695 87.9295 341.499 87.4202C342.303 86.9109 342.95 86.1891 343.366 85.3354C343.96 84.7896 344.466 84.1555 344.865 83.4557C345.04 84.1088 345.368 84.711 345.824 85.2126C346.279 85.7141 346.847 86.1006 347.482 86.3399C345.184 86.2943 342.954 87.115 341.238 88.6374ZM345.734 83.4855C345.591 83.1615 345.468 82.8294 345.364 82.4909C345.453 82.2595 345.529 82.0238 345.594 81.7848C345.964 81.7848 346.353 81.7848 346.743 81.735C348.043 81.5958 349.301 81.1931 350.439 80.5515C350.549 80.8001 350.649 81.0388 350.739 81.2875C351.195 82.1807 351.281 83.2161 350.979 84.1718C349.76 86.5687 346.663 85.5642 345.734 83.4855ZM358.052 77.518C357.532 81.7549 355.444 85.8924 350.369 86.3499C352.747 85.3553 351.848 82.292 351.089 80.1934C352.393 79.371 353.433 78.1942 354.086 76.8019C354.451 75.9239 354.615 74.976 354.565 74.0271C355.989 72.7291 356.965 71.0165 357.353 69.1338C358.224 68.7533 359.057 68.2904 359.84 67.7513C358.332 70.6555 358.352 75.0216 358.052 77.4683V77.518ZM358.182 68.0696C357.952 68.1889 357.712 68.2884 357.462 68.3878C357.817 66.6768 357.988 64.9331 357.972 63.1862C358.657 62.7613 359.228 62.1774 359.637 61.4845C360.046 60.7917 360.28 60.0105 360.32 59.2079C361.349 62.5397 362.228 65.9909 358.182 68.0198V68.0696Z" fill="#7F3F98"/>
</svg>
