<svg width="512" height="200" viewBox="0 0 512 200" fill="none" xmlns="http://www.w3.org/2000/svg">
<path d="M442.7 168.15C449.11 170.646 456.067 171.395 462.862 170.321C469.656 169.246 476.043 166.387 481.369 162.034C486.696 157.682 490.771 151.993 493.178 145.55C495.586 139.106 496.238 132.139 495.07 125.36H482.72" stroke="white" stroke-linecap="round" stroke-linejoin="round"/>
<path d="M420.8 146.46C422.525 150.744 425.001 154.686 428.11 158.1" stroke="white" stroke-linecap="round" stroke-linejoin="round"/>
<path d="M491.46 114.45C487.215 106.104 480.098 99.5722 471.418 96.0588C462.738 92.5455 453.082 92.287 444.226 95.3308C435.371 98.3747 427.914 104.516 423.229 112.623C418.544 120.731 416.946 130.258 418.73 139.45H427.63" stroke="white" stroke-linecap="round" stroke-linejoin="round"/>
<path d="M475.03 104.76H469.67V116.36H482.28V161.29" stroke="white" stroke-linecap="round" stroke-linejoin="round"/>
<path d="M482.28 137.38H469.96" stroke="white" stroke-linecap="round" stroke-linejoin="round"/>
<path d="M443.72 156H434" stroke="#7F3F98" stroke-linecap="round" stroke-linejoin="round"/>
<path d="M427.63 122.88H419.09" stroke="white" stroke-linecap="round" stroke-linejoin="round"/>
<path d="M482.28 156.37H469.96" stroke="white" stroke-linecap="round" stroke-linejoin="round"/>
<path d="M473 125.92H451.26V138.54" stroke="white" stroke-linecap="round" stroke-linejoin="round"/>
<path d="M442.71 96.06V104.91H461.41V145.64H473" stroke="white" stroke-linecap="round" stroke-linejoin="round"/>
<path d="M463.66 170V156.11H452.56V146.85H442.31V116.26H454.74" stroke="white" stroke-linecap="round" stroke-linejoin="round"/>
<path d="M434.38 100.32V113.98" stroke="white" stroke-linecap="round" stroke-linejoin="round"/>
<path d="M434 121V182.99" stroke="#7F3F98" stroke-linecap="round" stroke-linejoin="round"/>
<path d="M434 183L323 183" stroke="#7F3F98" stroke-linecap="round" stroke-linejoin="round"/>
<path d="M129.875 181C134.75 181 137.5 177.969 137.5 172.969C137.5 168 134.75 165 130.094 165H124.938V181H129.875ZM126.875 179.281V166.719H129.969C133.719 166.719 135.625 169.094 135.625 172.969C135.625 176.875 133.719 179.281 129.75 179.281H126.875ZM145.531 181.25C147.969 181.25 149.75 180.031 150.313 178.219L148.531 177.719C148.063 178.969 146.977 179.594 145.531 179.594C143.367 179.594 141.875 178.195 141.789 175.625H150.5V174.844C150.5 170.375 147.844 168.844 145.344 168.844C142.094 168.844 139.938 171.406 139.938 175.094C139.938 178.781 142.063 181.25 145.531 181.25ZM141.789 174.031C141.914 172.164 143.234 170.5 145.344 170.5C147.344 170.5 148.625 172 148.625 174.031H141.789ZM161.805 171.687C161.227 169.984 159.93 168.844 157.555 168.844C155.023 168.844 153.148 170.281 153.148 172.312C153.148 173.969 154.133 175.078 156.336 175.594L158.336 176.062C159.547 176.344 160.117 176.922 160.117 177.75C160.117 178.781 159.023 179.625 157.305 179.625C155.797 179.625 154.852 178.977 154.523 177.687L152.773 178.125C153.203 180.164 154.883 181.25 157.336 181.25C160.125 181.25 162.023 179.727 162.023 177.656C162.023 175.984 160.977 174.93 158.836 174.406L157.055 173.969C155.633 173.617 154.992 173.141 154.992 172.219C154.992 171.187 156.086 170.437 157.555 170.437C159.164 170.437 159.828 171.328 160.148 172.156L161.805 171.687ZM164.799 181H166.643V169H164.799V181ZM165.736 167C166.455 167 167.049 166.438 167.049 165.75C167.049 165.063 166.455 164.5 165.736 164.5C165.018 164.5 164.424 165.063 164.424 165.75C164.424 166.438 165.018 167 165.736 167ZM174.863 185.75C177.738 185.75 180.051 184.438 180.051 181.344V169H178.27V170.906H178.082C177.676 170.281 176.926 168.844 174.582 168.844C171.551 168.844 169.457 171.25 169.457 174.937C169.457 178.687 171.645 180.812 174.551 180.812C176.895 180.812 177.645 179.438 178.051 178.781H178.207V181.219C178.207 183.219 176.801 184.125 174.863 184.125C172.684 184.125 171.918 182.977 171.426 182.313L169.957 183.344C170.707 184.602 172.184 185.75 174.863 185.75ZM174.801 179.156C172.488 179.156 171.301 177.406 171.301 174.906C171.301 172.469 172.457 170.5 174.801 170.5C177.051 170.5 178.238 172.312 178.238 174.906C178.238 177.562 177.02 179.156 174.801 179.156ZM185.27 173.781C185.27 171.687 186.566 170.5 188.332 170.5C190.043 170.5 191.082 171.617 191.082 173.5V181H192.926V173.375C192.926 170.312 191.293 168.844 188.863 168.844C187.051 168.844 185.926 169.656 185.363 170.875H185.207V169H183.426V181H185.27V173.781ZM196.295 181H198.139V169H196.295V181ZM197.232 167C197.951 167 198.545 166.438 198.545 165.75C198.545 165.063 197.951 164.5 197.232 164.5C196.514 164.5 195.92 165.063 195.92 165.75C195.92 166.438 196.514 167 197.232 167ZM203.359 173.781C203.359 171.687 204.656 170.5 206.422 170.5C208.133 170.5 209.172 171.617 209.172 173.5V181H211.016V173.375C211.016 170.312 209.383 168.844 206.953 168.844C205.141 168.844 204.016 169.656 203.453 170.875H203.297V169H201.516V181H203.359V173.781ZM219.229 185.75C222.104 185.75 224.416 184.438 224.416 181.344V169H222.635V170.906H222.447C222.041 170.281 221.291 168.844 218.947 168.844C215.916 168.844 213.822 171.25 213.822 174.937C213.822 178.687 216.01 180.812 218.916 180.812C221.26 180.812 222.01 179.438 222.416 178.781H222.572V181.219C222.572 183.219 221.166 184.125 219.229 184.125C217.049 184.125 216.283 182.977 215.791 182.313L214.322 183.344C215.072 184.602 216.549 185.75 219.229 185.75ZM219.166 179.156C216.854 179.156 215.666 177.406 215.666 174.906C215.666 172.469 216.822 170.5 219.166 170.5C221.416 170.5 222.604 172.312 222.604 174.906C222.604 177.562 221.385 179.156 219.166 179.156ZM237.51 181.281C239.604 181.281 240.697 180.156 241.072 179.375H241.166V181H243.01V173.094C243.01 169.281 240.104 168.844 238.572 168.844C236.76 168.844 234.697 169.469 233.76 171.656L235.51 172.281C235.916 171.406 236.877 170.469 238.635 170.469C240.33 170.469 241.166 171.367 241.166 172.906V172.969C241.166 173.859 240.26 173.781 238.072 174.063C235.846 174.352 233.416 174.844 233.416 177.594C233.416 179.937 235.229 181.281 237.51 181.281ZM237.791 179.625C236.322 179.625 235.26 178.969 235.26 177.687C235.26 176.281 236.541 175.844 237.979 175.656C238.76 175.562 240.854 175.344 241.166 174.969V176.656C241.166 178.156 239.979 179.625 237.791 179.625ZM252.813 181H254.594V179.156H254.813C255.219 179.812 256 181.25 258.313 181.25C261.313 181.25 263.406 178.844 263.406 175.031C263.406 171.25 261.313 168.844 258.281 168.844C255.938 168.844 255.219 170.281 254.813 170.906H254.656V165H252.813V181ZM254.625 175C254.625 172.312 255.813 170.5 258.063 170.5C260.406 170.5 261.563 172.469 261.563 175C261.563 177.562 260.375 179.594 258.063 179.594C255.844 179.594 254.625 177.719 254.625 175ZM271.258 181.25C273.695 181.25 275.477 180.031 276.039 178.219L274.258 177.719C273.789 178.969 272.703 179.594 271.258 179.594C269.094 179.594 267.602 178.195 267.516 175.625H276.227V174.844C276.227 170.375 273.57 168.844 271.07 168.844C267.82 168.844 265.664 171.406 265.664 175.094C265.664 178.781 267.789 181.25 271.258 181.25ZM267.516 174.031C267.641 172.164 268.961 170.5 271.07 170.5C273.07 170.5 274.352 172 274.352 174.031H267.516ZM284.25 169H281.688V166.125H279.844V169H278.031V170.562H279.844V178.062C279.844 180.156 281.531 181.156 283.094 181.156C283.781 181.156 284.219 181.031 284.469 180.937L284.094 179.281C283.937 179.312 283.688 179.375 283.281 179.375C282.469 179.375 281.688 179.125 281.688 177.562V170.562H284.25V169ZM292.242 169H289.68V166.125H287.836V169H286.023V170.562H287.836V178.062C287.836 180.156 289.523 181.156 291.086 181.156C291.773 181.156 292.211 181.031 292.461 180.937L292.086 179.281C291.93 179.312 291.68 179.375 291.273 179.375C290.461 179.375 289.68 179.125 289.68 177.562V170.562H292.242V169ZM299.918 181.25C302.355 181.25 304.137 180.031 304.699 178.219L302.918 177.719C302.449 178.969 301.363 179.594 299.918 179.594C297.754 179.594 296.262 178.195 296.176 175.625H304.887V174.844C304.887 170.375 302.23 168.844 299.73 168.844C296.48 168.844 294.324 171.406 294.324 175.094C294.324 178.781 296.449 181.25 299.918 181.25ZM296.176 174.031C296.301 172.164 297.621 170.5 299.73 170.5C301.73 170.5 303.012 172 303.012 174.031H296.176ZM307.691 181H309.535V173.406C309.535 171.781 310.816 170.594 312.566 170.594C313.059 170.594 313.566 170.688 313.691 170.719V168.844C313.48 168.828 312.996 168.812 312.723 168.812C311.285 168.812 310.035 169.625 309.598 170.812H309.473V169H307.691V181ZM385.52 181.125C386.293 181.125 386.926 180.492 386.926 179.719C386.926 178.945 386.293 178.312 385.52 178.312C384.746 178.312 384.113 178.945 384.113 179.719C384.113 180.492 384.746 181.125 385.52 181.125Z" fill="white"/>
<path d="M327.408 169H324.721V167.781C324.721 166.594 325.221 165.969 326.439 165.969C326.971 165.969 327.283 166.094 327.471 166.156L328.002 164.562C327.721 164.437 327.158 164.25 326.252 164.25C324.533 164.25 322.877 165.281 322.877 167.344V169H320.939V170.562H322.877V181H324.721V170.562H327.408V169ZM337.555 176.094C337.555 178.344 335.836 179.375 334.461 179.375C332.93 179.375 331.836 178.25 331.836 176.5V169H329.992V176.625C329.992 179.687 331.617 181.156 333.867 181.156C335.68 181.156 336.867 180.187 337.43 178.969H337.555V181H339.398V169H337.555V176.094ZM347.994 169H345.432V166.125H343.588V169H341.775V170.562H343.588V178.062C343.588 180.156 345.275 181.156 346.838 181.156C347.525 181.156 347.963 181.031 348.213 180.937L347.838 179.281C347.682 179.312 347.432 179.375 347.025 179.375C346.213 179.375 345.432 179.125 345.432 177.562V170.562H347.994V169ZM358.33 176.094C358.33 178.344 356.611 179.375 355.236 179.375C353.705 179.375 352.611 178.25 352.611 176.5V169H350.768V176.625C350.768 179.687 352.393 181.156 354.643 181.156C356.455 181.156 357.643 180.187 358.205 178.969H358.33V181H360.174V169H358.33V176.094ZM363.551 181H365.395V173.406C365.395 171.781 366.676 170.594 368.426 170.594C368.918 170.594 369.426 170.688 369.551 170.719V168.844C369.34 168.828 368.855 168.812 368.582 168.812C367.145 168.812 365.895 169.625 365.457 170.812H365.332V169H363.551V181ZM376.402 181.25C378.84 181.25 380.621 180.031 381.184 178.219L379.402 177.719C378.934 178.969 377.848 179.594 376.402 179.594C374.238 179.594 372.746 178.195 372.66 175.625H381.371V174.844C381.371 170.375 378.715 168.844 376.215 168.844C372.965 168.844 370.809 171.406 370.809 175.094C370.809 178.781 372.934 181.25 376.402 181.25ZM372.66 174.031C372.785 172.164 374.105 170.5 376.215 170.5C378.215 170.5 379.496 172 379.496 174.031H372.66Z" fill="#7F3F98"/>
<path d="M21.875 88H19.9375V104H21.875V88ZM27.3535 96.7812C27.3535 94.6875 28.6504 93.5 30.416 93.5C32.127 93.5 33.166 94.6172 33.166 96.5V104H35.0098V96.375C35.0098 93.3125 33.377 91.8438 30.9473 91.8438C29.1348 91.8438 28.0098 92.6562 27.4473 93.875H27.291V92H25.5098V104H27.3535V96.7812ZM44.5664 108.5H46.4102V102.156H46.5664C46.9727 102.812 47.7539 104.25 50.0664 104.25C53.0664 104.25 55.1602 101.844 55.1602 98.0313C55.1602 94.25 53.0664 91.8438 50.0352 91.8438C47.6914 91.8438 46.9727 93.2812 46.5664 93.9062H46.3477V92H44.5664V108.5ZM46.3789 98C46.3789 95.3125 47.5664 93.5 49.8164 93.5C52.1602 93.5 53.3164 95.4687 53.3164 98C53.3164 100.562 52.1289 102.594 49.8164 102.594C47.5977 102.594 46.3789 100.719 46.3789 98ZM65.5352 99.0937C65.5352 101.344 63.8164 102.375 62.4414 102.375C60.9102 102.375 59.8164 101.25 59.8164 99.5V92H57.9727V99.625C57.9727 102.687 59.5977 104.156 61.8477 104.156C63.6602 104.156 64.8477 103.187 65.4102 101.969H65.5352V104H67.3789V92H65.5352V99.0937ZM70.7559 104H72.5996V96.4062C72.5996 94.7812 73.8809 93.5937 75.6309 93.5937C76.123 93.5937 76.6309 93.6875 76.7559 93.7187V91.8438C76.5449 91.8281 76.0605 91.8125 75.7871 91.8125C74.3496 91.8125 73.0996 92.625 72.6621 93.8125H72.5371V92H70.7559V104ZM87.4414 94.6875C86.8633 92.9844 85.5664 91.8438 83.1914 91.8438C80.6602 91.8438 78.7852 93.2812 78.7852 95.3125C78.7852 96.9687 79.7695 98.0781 81.9727 98.5937L83.9727 99.0625C85.1836 99.3437 85.7539 99.9219 85.7539 100.75C85.7539 101.781 84.6602 102.625 82.9414 102.625C81.4336 102.625 80.4883 101.977 80.1602 100.687L78.4102 101.125C78.8398 103.164 80.5195 104.25 82.9727 104.25C85.7617 104.25 87.6602 102.727 87.6602 100.656C87.6602 98.9844 86.6133 97.9297 84.4727 97.4063L82.6914 96.9687C81.2695 96.6172 80.6289 96.1406 80.6289 95.2187C80.6289 94.1875 81.7227 93.4375 83.1914 93.4375C84.8008 93.4375 85.4648 94.3281 85.7852 95.1562L87.4414 94.6875ZM97.998 99.0937C97.998 101.344 96.2793 102.375 94.9043 102.375C93.373 102.375 92.2793 101.25 92.2793 99.5V92H90.4355V99.625C90.4355 102.687 92.0605 104.156 94.3105 104.156C96.123 104.156 97.3105 103.187 97.873 101.969H97.998V104H99.8418V92H97.998V99.0937ZM103.219 104H105.063V92H103.219V104ZM104.156 90C104.875 90 105.469 89.4375 105.469 88.75C105.469 88.0625 104.875 87.5 104.156 87.5C103.437 87.5 102.844 88.0625 102.844 88.75C102.844 89.4375 103.437 90 104.156 90ZM113.658 92H111.096V89.125H109.252V92H107.439V93.5625H109.252V101.062C109.252 103.156 110.939 104.156 112.502 104.156C113.189 104.156 113.627 104.031 113.877 103.937L113.502 102.281C113.346 102.312 113.096 102.375 112.689 102.375C111.877 102.375 111.096 102.125 111.096 100.562V93.5625H113.658V92ZM127.494 104.25C130.744 104.25 132.932 101.781 132.932 98.0625C132.932 94.3125 130.744 91.8438 127.494 91.8438C124.244 91.8438 122.057 94.3125 122.057 98.0625C122.057 101.781 124.244 104.25 127.494 104.25ZM127.494 102.594C125.025 102.594 123.9 100.469 123.9 98.0625C123.9 95.6562 125.025 93.5 127.494 93.5C129.963 93.5 131.088 95.6562 131.088 98.0625C131.088 100.469 129.963 102.594 127.494 102.594ZM141.09 92H138.402V90.7812C138.402 89.5937 138.902 88.9687 140.121 88.9687C140.652 88.9687 140.965 89.0938 141.152 89.1562L141.684 87.5625C141.402 87.4375 140.84 87.25 139.934 87.25C138.215 87.25 136.559 88.2812 136.559 90.3438V92H134.621V93.5625H136.559V104H138.402V93.5625H141.09V92ZM239.893 104.125C240.666 104.125 241.299 103.492 241.299 102.719C241.299 101.945 240.666 101.312 239.893 101.312C239.119 101.312 238.486 101.945 238.486 102.719C238.486 103.492 239.119 104.125 239.893 104.125Z" fill="white"/>
<path d="M149.861 104H151.705V96.5C151.705 94.7422 152.986 93.5 154.424 93.5C155.822 93.5 156.799 94.4141 156.799 95.7812V104H158.674V96.1875C158.674 94.6406 159.643 93.5 161.33 93.5C162.643 93.5 163.768 94.1953 163.768 95.9687V104H165.611V95.9687C165.611 93.1484 164.096 91.8438 161.955 91.8438C160.236 91.8438 158.979 92.6328 158.361 93.875H158.236C157.643 92.5937 156.596 91.8438 155.018 91.8438C153.455 91.8438 152.299 92.5937 151.799 93.875H151.643V92H149.861V104ZM174.014 104.25C176.451 104.25 178.232 103.031 178.795 101.219L177.014 100.719C176.545 101.969 175.459 102.594 174.014 102.594C171.85 102.594 170.357 101.195 170.271 98.625H178.982V97.8437C178.982 93.375 176.326 91.8438 173.826 91.8438C170.576 91.8438 168.42 94.4062 168.42 98.0938C168.42 101.781 170.545 104.25 174.014 104.25ZM170.271 97.0312C170.396 95.1641 171.717 93.5 173.826 93.5C175.826 93.5 177.107 95 177.107 97.0312H170.271ZM185.318 104.281C187.412 104.281 188.506 103.156 188.881 102.375H188.975V104H190.818V96.0938C190.818 92.2812 187.912 91.8438 186.381 91.8438C184.568 91.8438 182.506 92.4687 181.568 94.6562L183.318 95.2812C183.725 94.4062 184.686 93.4687 186.443 93.4687C188.139 93.4687 188.975 94.3672 188.975 95.9062V95.9687C188.975 96.8594 188.068 96.7812 185.881 97.0625C183.654 97.3516 181.225 97.8437 181.225 100.594C181.225 102.937 183.037 104.281 185.318 104.281ZM185.6 102.625C184.131 102.625 183.068 101.969 183.068 100.687C183.068 99.2812 184.35 98.8438 185.787 98.6562C186.568 98.5625 188.662 98.3437 188.975 97.9687V99.6562C188.975 101.156 187.787 102.625 185.6 102.625ZM196.027 96.7812C196.027 94.6875 197.324 93.5 199.09 93.5C200.801 93.5 201.84 94.6172 201.84 96.5V104H203.684V96.375C203.684 93.3125 202.051 91.8438 199.621 91.8438C197.809 91.8438 196.684 92.6562 196.121 93.875H195.965V92H194.184V104H196.027V96.7812ZM207.053 104H208.896V92H207.053V104ZM207.99 90C208.709 90 209.303 89.4375 209.303 88.75C209.303 88.0625 208.709 87.5 207.99 87.5C207.271 87.5 206.678 88.0625 206.678 88.75C206.678 89.4375 207.271 90 207.99 90ZM214.117 96.7812C214.117 94.6875 215.414 93.5 217.18 93.5C218.891 93.5 219.93 94.6172 219.93 96.5V104H221.773V96.375C221.773 93.3125 220.141 91.8438 217.711 91.8438C215.898 91.8438 214.773 92.6562 214.211 93.875H214.055V92H212.273V104H214.117V96.7812ZM229.986 108.75C232.861 108.75 235.174 107.438 235.174 104.344V92H233.393V93.9062H233.205C232.799 93.2812 232.049 91.8438 229.705 91.8438C226.674 91.8438 224.58 94.25 224.58 97.9375C224.58 101.687 226.768 103.812 229.674 103.812C232.018 103.812 232.768 102.438 233.174 101.781H233.33V104.219C233.33 106.219 231.924 107.125 229.986 107.125C227.807 107.125 227.041 105.977 226.549 105.313L225.08 106.344C225.83 107.602 227.307 108.75 229.986 108.75ZM229.924 102.156C227.611 102.156 226.424 100.406 226.424 97.9062C226.424 95.4687 227.58 93.5 229.924 93.5C232.174 93.5 233.361 95.3125 233.361 97.9062C233.361 100.562 232.143 102.156 229.924 102.156Z" fill="#7F3F98"/>
<path d="M316.034 80.0741C316.604 79.0435 316.788 77.8454 316.554 76.6925C316.014 73.7088 314.036 71.1229 313.986 68.179C314.455 67.2806 315.201 66.5556 316.114 66.1103C317.226 65.6775 318.224 64.9971 319.031 64.1211C323.507 58.7404 319.361 51.122 319.89 45.0451C320.19 41.574 321.189 37.7449 319.071 34.612C318.555 33.8407 317.836 33.225 316.993 32.8317C317.093 31.9068 317.203 30.9818 317.303 30.0569C317.363 29.5397 317.453 28.9728 317.483 28.4059C317.547 28.4615 317.622 28.5025 317.704 28.5258C317.786 28.5492 317.871 28.5545 317.955 28.5412C318.039 28.5279 318.119 28.4964 318.189 28.449C318.26 28.4015 318.319 28.3393 318.362 28.2666C318.955 27.2649 319.154 26.0796 318.92 24.9404C318.685 23.8011 318.034 22.7891 317.093 22.1002C315.904 21.3635 314.625 20.7819 313.287 20.3697C311.408 19.4857 309.434 18.8183 307.403 18.3805C306.03 18.1432 304.617 18.3893 303.407 19.0767C301.529 20.1608 300.24 21.1852 297.962 21.4637C295.504 21.7621 292.877 21.8814 291.438 24.0695C289.122 24.8593 287.197 26.4992 286.054 28.6545C285.984 28.7937 285.924 28.933 285.854 29.0722C285.719 29.136 285.589 29.2091 285.464 29.291C284.973 29.6394 284.61 30.1378 284.43 30.7104C284.249 31.2831 284.262 31.8987 284.465 32.4637L284.385 32.6527C283.524 34.5071 282.293 36.1683 280.769 37.5361C278.631 39.6048 276.983 41.6536 276.423 44.4086C275.334 49.7694 277.722 55.0903 277.332 60.4611C277.072 64.1112 275.174 66.8462 271.678 68.9547C269.02 70.556 265.973 71.7495 263.686 73.7685C258.141 78.6618 260.139 85.7034 261.018 91.7305C261.636 95.5469 261.345 99.4543 260.169 103.138C259.09 106.401 257.172 110.1 252.876 110.906C252.147 111.045 252.457 111.99 253.186 111.901C262.417 110.16 263.176 97.9069 262.247 91.7106C261.538 86.7974 259.819 81.2179 262.846 76.5831C265.324 72.7938 270.539 71.471 274.215 68.7359C281.129 63.594 278.022 55.6374 277.582 48.924C277.393 47.064 277.573 45.185 278.111 43.3941C278.911 41.0569 280.729 39.4158 282.547 37.6455C283.543 36.6667 284.395 35.5515 285.075 34.3335C285.165 34.5623 285.254 34.791 285.324 35.0198C285.651 36.0877 285.573 37.2379 285.105 38.2522C284.439 38.4681 283.819 38.8053 283.276 39.2467C282.523 39.8756 281.951 40.6919 281.617 41.6126C281.284 42.5333 281.201 43.5254 281.378 44.4882C280.608 44.9884 280.023 45.7257 279.713 46.5876C279.403 47.4495 279.384 48.3887 279.66 49.2621C280.329 51.7884 282.997 53.4493 283.946 55.8462C285.085 58.7106 281.338 61.1374 282.767 63.9122C283.004 64.3519 283.293 64.7625 283.626 65.1356C282.714 66.7799 282.389 68.6843 282.707 70.5361C283.053 71.9424 283.853 73.1968 284.985 74.1066C284.95 77.1319 285.482 80.137 286.553 82.9683C287.112 84.3049 288.007 85.4761 289.151 86.3698C289.217 86.9174 289.402 87.4443 289.691 87.9145C289.981 88.3848 290.369 88.7874 290.829 89.0949C292.737 90.358 295.355 89.7215 297.123 88.538C297.323 88.6175 297.512 88.6971 297.712 88.7965C299.411 89.6718 300.819 90.9448 302.448 91.9096C304.076 92.8743 308.332 95.0126 311.439 95.2215C311.858 95.6719 312.377 96.0195 312.954 96.2369C313.532 96.4543 314.151 96.5357 314.766 96.4747C317.303 96.1763 318.242 93.3716 318.842 91.2929C319.841 87.981 319.761 85.3255 317.703 82.4511C317.133 81.5759 316.564 80.82 316.034 80.0741ZM315.395 79.1491C313.925 77.1738 313.124 74.7845 313.107 72.3264C313.111 71.6195 313.175 70.9142 313.297 70.2179C314.176 73.2115 316.334 76.3246 315.395 79.1491ZM312.977 67.6021C312.969 67.7744 312.969 67.947 312.977 68.1193C312.474 69.4626 312.211 70.8829 312.198 72.3164C312.156 75.1929 313.096 77.9985 314.865 80.273L314.815 80.3625C313.956 81.5859 312.548 82.5009 311.818 83.8137C311.051 82.8422 310.206 81.9341 309.291 81.0985C309.441 80.7106 309.581 80.3327 309.691 79.9448C310.92 75.5041 310.961 70.8204 309.81 66.3589C309.628 65.7133 309.391 65.0844 309.101 64.4791C310.385 63.5897 311.378 62.3448 311.958 60.8987C313.087 57.4773 309.96 54.9312 308.222 52.1365C307.69 50.9347 307.323 49.6667 307.133 48.367C307.274 47.5378 307.617 46.7557 308.132 46.0894C308.442 45.6509 308.776 45.2293 309.131 44.8263C309.471 44.8263 309.75 45.075 310.39 45.4728C311.788 46.3381 311.778 46.8453 311.469 48.3372C311.213 49.2042 311.003 50.084 310.839 50.9728C310.754 51.4988 310.781 52.037 310.921 52.5515C311.06 53.066 311.308 53.545 311.649 53.9565C311.915 54.2376 312.258 54.4354 312.635 54.5258C313.012 54.6162 313.408 54.5952 313.773 54.4655C314.139 54.3357 314.458 54.1028 314.693 53.7952C314.928 53.4876 315.068 53.1186 315.095 52.7332C315.098 52.6966 315.093 52.6598 315.082 52.625C315.07 52.5902 315.052 52.558 315.028 52.5303C315.003 52.5025 314.974 52.4798 314.941 52.4635C314.908 52.4471 314.872 52.4373 314.835 52.4348C314.986 52.1872 315.117 51.9278 315.225 51.6591C315.493 52.2786 315.703 52.9211 315.854 53.5786C316.457 56.19 316.269 58.9205 315.315 61.4258C314.516 63.5045 313.187 65.4041 312.977 67.6021ZM308.062 83.4457C308.396 82.9541 308.693 82.4389 308.951 81.9041C309.814 82.6663 310.594 83.5163 311.279 84.4403C311.349 84.5398 311.419 84.6492 311.479 84.7586C311.334 85.8954 311.596 87.0467 312.218 88.0108C312.123 88.3732 311.952 88.7119 311.719 89.0054C311.468 89.3309 311.156 89.6046 310.799 89.811C310.879 88.9756 311.009 88.1302 311.049 87.2649C311.129 85.0768 309.74 84.1917 308.052 83.4557L308.062 83.4457ZM315.055 46.9845C315.055 47.3824 315.055 47.7802 315.055 48.178C313.976 46.3779 312.698 44.5379 312.538 42.4791C312.378 40.4203 313.247 38.5008 313.537 36.4619C313.657 35.7359 313.767 34.9104 313.816 34.0551C313.966 33.7865 314.106 33.518 314.246 33.2395C314.386 32.961 314.386 32.9511 314.446 32.8019C314.974 32.8787 315.496 32.9984 316.004 33.1599L314.506 46.6265C314.466 46.9249 314.785 47.0442 315.045 46.9945L315.055 46.9845ZM314.386 52.7531L312.008 53.0714L311.639 51.6392C311.654 51.0321 311.751 50.4299 311.928 49.8489C312.088 49.1726 312.338 48.5162 312.428 47.8598C312.486 47.3974 312.486 46.9297 312.428 46.4674C313.137 47.8598 314.006 49.2124 314.716 50.6148C314.528 51.3045 314.408 52.0106 314.356 52.7233C314.357 52.737 314.36 52.7504 314.366 52.763L314.386 52.7531ZM309.391 55.2097C310.39 56.5325 311.389 57.9448 311.389 59.5659C311.389 61.1871 310.2 62.5497 308.781 63.7332C307.921 62.2016 306.697 60.9038 305.215 59.9538L305.385 59.8046C306.634 58.8101 308.452 58.1835 309.171 56.8209C309.404 56.3212 309.478 55.7622 309.381 55.2196L309.391 55.2097ZM305.475 77.8164C306.227 77.3896 306.822 76.7343 307.173 75.9466C307.347 75.5058 307.425 75.0333 307.403 74.5603C307.38 74.0872 307.258 73.6242 307.043 73.2016C306.254 71.3915 304.905 69.8598 303.986 68.1094C304.604 67.5963 305.247 67.115 305.914 66.6672C306.564 66.2296 307.243 65.782 307.912 65.3146C308.6 67.043 308.982 68.8769 309.041 70.735C309.322 73.8586 309.045 77.0071 308.222 80.0343L308.062 79.9846C307.063 79.1094 306.154 78.3634 305.475 77.8164ZM307.822 80.9692C307.593 81.5272 307.319 82.066 307.003 82.5804C306.933 82.6998 306.833 82.8092 306.753 82.9186L306.384 82.7595C305.385 82.302 304.326 81.8146 303.307 81.3173C303.844 80.8718 304.482 80.563 305.166 80.4174C305.85 80.2719 306.559 80.294 307.233 80.4819L307.822 80.9692ZM293.946 62.6591V62.5894C293.716 61.933 293.536 61.2766 293.367 60.6003C294.293 60.7187 295.234 60.651 296.134 60.4014C297.133 60.1726 297.942 59.9538 298.791 59.8146C298.812 60.086 298.812 60.3587 298.791 60.6301C297.862 61.0777 296.973 61.4755 296.214 61.8137C295.454 62.1518 294.735 62.3905 293.946 62.6591ZM294.186 64.4593L293.297 64.1609L292.737 63.962L293.736 63.5741L294.186 64.4593ZM292.188 57.6464C292.248 58.0906 292.314 58.5316 292.387 58.9692C291.935 58.6874 291.55 58.3106 291.259 57.8652L292.188 57.6464ZM290.819 57.0397C290.615 56.5365 290.503 56.0009 290.489 55.4583C290.488 54.2273 290.96 53.0424 291.808 52.1464C291.808 53.6979 291.908 55.2495 292.068 56.7911L290.819 57.0397ZM292.377 42.5985C292.377 42.4095 292.308 42.2106 292.258 42.0216C293.077 42.4891 293.926 42.9466 294.685 43.4041C296.733 44.6473 299.181 45.5026 301.678 44.6672C302.126 44.5691 302.548 44.3756 302.913 44.1C303.279 43.8244 303.58 43.4733 303.797 43.0707C304.013 42.6681 304.14 42.2237 304.167 41.7679C304.195 41.3121 304.123 40.8558 303.956 40.4303C303.736 39.7341 303.437 39.0777 303.217 38.4411L303.836 38.7196C305.505 39.4457 305.674 39.6247 305.275 41.1663C304.965 41.9658 304.485 42.6886 303.866 43.2847C303.2 43.9417 302.459 44.5192 301.658 45.0053C300.255 45.8374 298.807 46.5944 297.323 47.273C296.57 47.1404 295.814 47.0276 295.055 46.9348C295.055 46.8553 295.055 46.7757 295.055 46.6961C295.169 46.2495 295.188 45.7841 295.111 45.3296C295.034 44.8752 294.863 44.4417 294.608 44.057C294.353 43.6723 294.021 43.3447 293.631 43.0953C293.242 42.8458 292.805 42.68 292.347 42.6084L292.377 42.5985ZM298.182 48.1283C299.572 48.3672 300.935 48.7471 302.248 49.2621C304.246 50.0976 304.605 51.9674 303.087 53.3996C302.079 54.1702 300.906 54.7009 299.66 54.9511L298.252 55.329C297.393 54.3345 296.364 53.4891 295.564 52.4746C294.946 51.7778 294.593 50.8875 294.565 49.9583C295.729 49.2917 296.926 48.6843 298.152 48.1383L298.182 48.1283ZM294.725 48.5858C294.785 48.2974 294.845 47.999 294.905 47.6907L296.184 47.8299C295.664 48.0786 295.175 48.3372 294.695 48.5958L294.725 48.5858ZM292.487 43.8815C293.836 44.5379 293.836 45.6021 293.576 46.726L292.487 46.6762C292.487 45.7911 292.547 44.876 292.487 43.8815ZM292.487 47.5216H293.396C293.307 47.8299 293.227 48.1283 293.167 48.4267C293.094 48.7867 293.06 49.1535 293.067 49.5207L292.457 49.9484C292.457 49.5572 292.457 49.1693 292.457 48.7847C292.417 48.4466 292.427 48.009 292.487 47.5614V47.5216ZM293.267 50.8037C293.836 52.6735 295.544 54.0162 296.923 55.6274C295.624 55.9357 294.326 56.2341 293.037 56.5623L292.727 56.6319C292.557 54.9113 292.497 53.1907 292.477 51.4601C292.687 51.2712 292.947 51.0524 293.227 50.8435L293.267 50.8037ZM297.443 56.2739C297.858 56.8247 298.194 57.4306 298.442 58.0741C298.501 58.2332 298.531 58.3923 298.581 58.5515C297.932 58.6609 297.273 58.82 296.583 58.999C295.471 59.4212 294.261 59.5144 293.097 59.2676C292.984 58.6708 292.887 58.0674 292.807 57.4574L297.443 56.2739ZM302.288 63.594C302.137 65.0739 302.397 66.5666 303.037 67.9104C302.114 68.6909 301.362 69.6525 300.829 70.735C301.149 68.8056 299.361 66.7567 297.333 65.6726C298.236 64.9551 298.969 64.0485 299.481 63.0171C299.812 62.3089 300.015 61.548 300.08 60.7694C300.619 60.481 301.149 60.1726 301.678 59.8544C302.194 59.9625 302.697 60.1259 303.177 60.3417L303.567 60.5307C302.828 61.4123 302.369 62.4923 302.248 63.6338L302.288 63.594ZM304.286 60.8589C305.737 61.7366 306.906 63.0102 307.652 64.5289C306.903 65.056 306.124 65.5235 305.435 66.0207C304.745 66.518 304.276 66.8462 303.696 67.3137C303.582 67.0474 303.482 66.7751 303.397 66.4981C303.078 65.5647 302.989 64.5685 303.138 63.5938C303.288 62.6191 303.671 61.6946 304.256 60.8987L304.286 60.8589ZM295.814 66.886C296.084 66.6473 296.374 66.4285 296.683 66.1998L296.893 66.2893C298.008 66.7955 298.92 67.6609 299.481 68.7459C299.84 69.462 300.48 71.8887 298.971 71.65C298.192 71.5207 297.323 70.7151 296.443 70.4566C296.501 69.2447 296.275 68.036 295.784 66.9258L295.814 66.886ZM296.214 62.6193C296.963 62.2911 297.762 61.933 298.561 61.5451C298.132 62.8869 297.311 64.071 296.204 64.9466L296.064 65.0659C295.654 64.9068 295.235 64.7676 294.825 64.6283C294.632 64.2106 294.449 63.7896 294.276 63.3652C294.955 63.1464 295.624 62.8978 296.184 62.6591L296.214 62.6193ZM295.984 70.3074C295.359 70.186 294.722 70.1326 294.086 70.1482C294.141 69.3266 294.421 68.5357 294.895 67.8607C295.06 67.6335 295.244 67.4206 295.444 67.2242C295.826 68.2199 295.999 69.2825 295.954 70.3471L295.984 70.3074ZM296.324 71.1925C297.317 71.4775 298.223 72.0039 298.961 72.7242C299.053 72.7976 299.168 72.8376 299.286 72.8376C299.404 72.8376 299.518 72.7976 299.61 72.7242C300.002 72.4038 300.325 72.0081 300.559 71.5605C300.369 72.3596 300.435 73.198 300.749 73.9575C301.526 75.4094 302.631 76.6622 303.976 77.6175C303.312 77.8136 302.618 77.8844 301.928 77.8264C299.381 77.5578 298.282 76.0262 296.663 74.594C296.202 74.145 295.646 73.805 295.035 73.5994C295.265 73.2811 295.484 72.9529 295.684 72.6048C295.952 72.1783 296.157 71.7162 296.294 71.2323L296.324 71.1925ZM301.519 71.8688C301.778 70.6318 302.437 69.5137 303.397 68.6862C304.022 69.8788 304.716 71.0345 305.475 72.1473C306.294 73.3806 306.883 74.6437 306.194 76.1256C305.914 76.6502 305.473 77.0718 304.935 77.3291C303.177 75.7676 301.159 74.1763 301.479 71.9086L301.519 71.8688ZM305.924 58.5614C305.446 58.8621 304.989 59.1943 304.556 59.556C304.083 59.3069 303.592 59.0941 303.087 58.9195C304.105 58.2172 305.025 57.3846 305.824 56.443C306.744 55.2472 307.195 53.7587 307.093 52.2558C307.093 52.1663 307.093 52.0668 307.093 51.9773C307.459 52.6194 307.866 53.2373 308.312 53.8272C308.448 54.093 308.526 54.3845 308.542 54.6826C308.562 56.7115 307.473 57.5569 305.894 58.6012L305.924 58.5614ZM306.344 46.6762C306.149 47.3851 306.068 48.1203 306.104 48.8544C306.104 48.9936 306.104 49.1229 306.104 49.2621C306.261 50.5821 306.321 51.9117 306.284 53.2404C306.064 55.4186 304.286 57.2187 302.188 58.6111H302.098C301.402 58.4417 300.686 58.3647 299.97 58.3824C299.725 57.4794 299.308 56.6318 298.741 55.886C301.818 55.0008 306.733 53.0912 304.546 49.7793C303.547 48.2974 301.039 47.9294 299.241 47.5614C300.217 47.126 301.171 46.6413 302.098 46.1093C304.765 44.5081 308.272 41.3155 306.434 38.282C306.068 37.6988 305.551 37.2247 304.938 36.9096C304.324 36.5945 303.636 36.4502 302.947 36.4918C303.027 36.0102 303.218 35.5538 303.507 35.159C304.243 34.2844 305.052 33.4726 305.924 32.7323C307.303 33.339 308.921 33.6274 310.04 34.7214C310.595 35.2207 311.052 35.8175 311.389 36.4818C310.52 37.5659 309.601 38.6401 308.831 39.7341C307.335 41.7757 306.461 44.203 306.314 46.726L306.344 46.6762ZM299.461 30.1265C299.518 29.4375 299.697 28.764 299.99 28.1373C300.647 28.2063 301.281 28.4207 301.845 28.7649C302.408 29.1091 302.887 29.5743 303.247 30.1265C303.571 30.6787 303.924 31.2132 304.306 31.7277C304.567 32.0041 304.866 32.2419 305.195 32.4339C304.114 33.3641 303.175 34.4463 302.408 35.6464C302.239 35.9918 302.141 36.367 302.118 36.7504C301.453 36.9838 300.843 37.353 300.33 37.8344C300.33 37.6554 300.33 37.4764 300.38 37.3073C300.48 34.9303 299.231 32.5731 299.431 30.1663L299.461 30.1265ZM297.962 30.037C297.9 30.4683 297.877 30.9044 297.892 31.3399C297.413 30.8923 296.893 30.4646 296.374 29.9972C296.182 29.8231 296.002 29.637 295.834 29.4402C296.579 28.8414 297.455 28.4257 298.392 28.2268H298.491C298.225 28.82 298.037 29.4452 297.932 30.0867L297.962 30.037ZM298.432 37.2576C298.312 38.65 298.362 38.4809 296.483 38.7196C294.605 38.9583 294.485 38.8091 293.986 37.3073C293.768 36.6257 293.607 35.9271 293.506 35.2187C293.786 34.9203 294.076 34.6319 294.386 34.3534C295.454 33.2196 296.743 33.2395 298.242 34.3534V34.6021C298.386 35.4928 298.436 36.3962 298.392 37.2974L298.432 37.2576ZM297.253 27.3814C296.541 27.6129 295.868 27.9481 295.255 28.376C295.444 26.7151 297.323 25.9095 299.251 26.1283C299.443 26.1539 299.634 26.1938 299.82 26.2476C299.554 26.4953 299.313 26.7684 299.101 27.0632C298.462 27.1011 297.831 27.2214 297.223 27.4212L297.253 27.3814ZM306.474 29.6889C306.485 29.8511 306.485 30.014 306.474 30.1762L306.224 30.0668C305.826 29.5796 305.49 29.045 305.225 28.4755C305.62 28.901 306.037 29.306 306.474 29.6889V29.6889ZM304.755 26.9737C304.566 26.7449 304.366 26.4963 304.196 26.2178C304.678 26.4033 305.11 26.6998 305.455 27.0831C305.215 27.0433 304.985 26.9737 304.755 26.9737ZM311.649 27.5804C311.649 27.6798 311.569 27.7693 311.529 27.8688C311.309 27.7097 311.079 27.5505 310.839 27.4013C311.192 27.2952 311.525 27.1726 311.838 27.0333L311.649 27.5804ZM312.268 31.6482C311.767 31.5447 311.273 31.4084 310.789 31.2404L310.28 31.0415C310.784 30.673 311.212 30.2102 311.539 29.6789L311.609 29.7585C311.972 30.3221 312.198 30.9624 312.268 31.6283V31.6482ZM310.949 29.0722C310.889 29.1717 310.849 29.2711 310.789 29.3706C310.651 29.6626 310.455 29.9239 310.213 30.1392C309.971 30.3544 309.688 30.5192 309.381 30.6238C308.682 30.2684 308.013 29.8559 307.383 29.3905C307.35 28.9039 307.246 28.4246 307.073 27.9682C307.645 27.9606 308.215 27.9174 308.781 27.8389C309.554 28.1487 310.282 28.5566 310.949 29.0523V29.0722ZM308.472 31.688C308.792 31.6556 309.107 31.5855 309.411 31.4791C310.314 31.9033 311.258 32.2365 312.228 32.4737H312.368C312.368 32.8914 312.368 33.3091 312.368 33.6871C312.358 34.2836 312.305 34.8786 312.208 35.4674L312.038 35.6961C311.662 35.0236 311.176 34.4185 310.6 33.9059C309.677 33.1822 308.626 32.6358 307.503 32.2947C307.203 32.1852 306.943 32.0659 306.693 31.9366C306.783 31.8033 306.864 31.6637 306.933 31.5189C307.424 31.7011 307.953 31.7592 308.472 31.688ZM312.338 28.5053L312.228 28.4158C312.558 27.7097 312.847 26.9936 313.167 26.4267C313.201 26.3435 313.208 26.2519 313.186 26.1647C313.165 26.0776 313.117 25.9993 313.048 25.941C312.98 25.8828 312.894 25.8474 312.805 25.8399C312.715 25.8325 312.625 25.8533 312.548 25.8995C311.689 26.3077 310.788 26.6212 309.86 26.8344C308.467 26.1035 307.017 25.4849 305.525 24.9845C306.851 24.8268 308.185 24.7471 309.521 24.7458C310.12 24.7458 310.949 24.7458 311.798 24.7458C312.002 24.8425 312.199 24.9521 312.388 25.074C313.19 25.689 313.808 26.511 314.174 27.4507C314.541 28.3905 314.641 29.4122 314.466 30.405C314.405 30.9436 314.284 31.4739 314.106 31.9863L313.776 31.9267C313.699 30.6516 313.18 29.4427 312.308 28.5053H312.338ZM311.679 37.2775C311.721 37.4212 311.754 37.5674 311.778 37.7151C311.579 38.5704 311.389 39.4158 311.249 40.2811C310.389 41.7055 309.385 43.0386 308.252 44.2594C307.881 44.4487 307.543 44.6974 307.253 44.9954C307.902 42.0713 309.82 39.7241 311.659 37.2874L311.679 37.2775ZM311.159 42.5885C311.244 43.2919 311.412 43.9829 311.659 44.6473C311.22 44.1795 310.613 43.9041 309.97 43.8815C310.37 43.4737 310.769 43.046 311.129 42.5985L311.159 42.5885ZM314.756 32.0957C315.535 29.7187 315.395 26.8742 313.387 25.0243L313.227 24.895C313.913 24.9461 314.577 25.1573 315.165 25.5116C315.982 26.3028 316.479 27.3641 316.564 28.4954C316.56 29.1637 316.49 29.8301 316.354 30.4845L316.134 32.4737C315.672 32.3239 315.202 32.201 314.726 32.1057L314.756 32.0957ZM312.038 24.0795C310.15 23.0849 308.152 23.5125 306.144 24.159C305.355 24.2386 304.576 24.3281 303.796 24.4474L303.437 24.338C303.344 23.7942 303.455 23.2355 303.746 22.7666C304.406 21.772 305.854 21.4538 306.983 21.4339C309.592 21.5185 312.08 22.5516 313.976 24.338C313.326 24.213 312.669 24.13 312.008 24.0894L312.038 24.0795ZM303.946 27.6301C304.725 28.6943 305.185 30.1862 306.184 31.0415C306.113 31.192 306.033 31.3381 305.944 31.4791C305.4 31.1239 304.94 30.6556 304.595 30.1066C304.292 29.5335 303.919 28.9991 303.487 28.5153C302.697 27.7818 301.699 27.3093 300.629 27.1626C300.783 26.9872 300.954 26.8273 301.139 26.6852C302.03 27.1055 302.964 27.4257 303.926 27.64L303.946 27.6301ZM299.95 25.2431C299.879 25.2572 299.813 25.2907 299.76 25.3399C299.707 25.3891 299.669 25.452 299.65 25.5216C298.529 25.2477 297.348 25.3527 296.294 25.82C295.681 26.1376 295.187 26.6432 294.885 27.2621C294.885 26.2078 295.574 25.2729 297.373 24.7359C297.988 24.557 298.634 24.5029 299.271 24.5767L299.95 24.706C300.265 24.7885 300.573 24.8983 300.869 25.0342L299.95 25.2431ZM295.235 30.027C296.252 30.7977 297.183 31.6747 298.012 32.6428V32.9212C297.537 32.7198 297.024 32.621 296.507 32.6312C295.99 32.6415 295.482 32.7607 295.015 32.9809C294.383 33.2848 293.808 33.6953 293.317 34.1943C293.267 33.876 293.207 33.5578 293.137 33.1997C293.597 32.0211 294.294 30.9483 295.185 30.0469L295.235 30.027ZM293.177 40.2115C293.375 40.3537 293.582 40.4833 293.796 40.5994C294.285 41.1445 294.928 41.5308 295.641 41.7081C296.353 41.8855 297.103 41.8457 297.792 41.5939C298.339 41.3819 298.826 41.0406 299.211 40.5994C299.715 40.2549 300.186 39.8654 300.619 39.4357C300.839 39.2368 301.049 39.008 301.279 38.8191C301.878 38.3317 302.088 38.1229 302.358 38.1229C302.747 39.3064 303.517 40.4402 303.447 41.763C303.307 44.15 300.12 44.6771 297.962 44.1401C296.074 43.6627 294.575 42.4294 293.037 41.4348C292.717 41.2259 292.188 40.9574 291.838 40.7088C291.562 40.0873 291.161 39.5288 290.659 39.0677H290.609C290.735 38.5612 290.966 38.0867 291.289 37.6753V37.6753C291.609 38.6992 292.254 39.5923 293.127 40.2214L293.177 40.2115ZM291.718 45.3137C291.718 45.7413 291.718 46.1789 291.718 46.6066C290.819 46.5469 289.92 46.5071 289.021 46.5071C286.723 46.5071 285.764 45.9203 285.195 43.9113C285.775 43.7073 286.379 43.5769 286.993 43.5234C288.527 43.325 290.083 43.3552 291.608 43.6129C291.638 44.2196 291.648 44.8064 291.678 45.3236L291.718 45.3137ZM288.112 47.5316C289.271 47.5316 290.509 47.5316 291.778 47.5316C291.778 48.5261 291.778 49.5207 291.778 50.5153C289.95 51.9972 288.781 53.8073 289.161 56.2341C289.227 56.6188 289.334 56.9955 289.48 57.358C289.022 57.4846 288.574 57.6475 288.142 57.8453C288.376 57.0772 288.504 56.2808 288.521 55.4782C288.521 52.1365 285.804 50.5053 283.866 47.9095C283.241 47.0914 282.761 46.1731 282.447 45.1943C282.915 44.8391 283.425 44.5418 283.966 44.3091C284.227 45.1035 284.641 45.8398 285.185 46.4773C286.144 47.6211 286.493 47.6012 288.062 47.5515L288.112 47.5316ZM289.61 58.2829L289.94 58.1934C290.515 59.1894 291.413 59.961 292.487 60.3815L292.687 60.4412C292.687 60.5904 292.747 60.7296 292.787 60.8788C292.964 61.5587 293.195 62.2238 293.476 62.8679C292.857 63.0768 292.248 63.3155 291.648 63.5641C290.06 62.9177 288.252 61.9629 287.972 60.7893C287.909 60.522 287.9 60.2448 287.946 59.9741C287.992 59.7034 288.092 59.4446 288.24 59.2129C288.388 58.9812 288.581 58.7813 288.808 58.625C289.034 58.4688 289.29 58.3592 289.56 58.3028L289.61 58.2829ZM291.728 64.4095C292.727 64.7974 293.726 65.1057 294.725 65.4041L294.975 65.9511C293.876 66.7024 293.101 67.839 292.807 69.1338C292.737 69.5117 292.697 69.9095 292.657 70.3074C291.794 70.4895 290.971 70.8266 290.23 71.3019C289.9 70.8444 289.59 70.377 289.31 69.8896C287.612 67.075 289.36 65.5135 291.678 64.4294L291.728 64.4095ZM292.597 73.6989L292.298 73.7784C291.766 73.2411 291.262 72.6768 290.789 72.0877C291.335 71.7302 291.931 71.4554 292.557 71.2721C292.505 72.0868 292.505 72.904 292.557 73.7188L292.597 73.6989ZM290.22 72.5054C290.629 73.0126 291.039 73.5 291.478 73.9972C290.743 74.2217 289.992 74.388 289.231 74.4945H288.801C289.078 73.7258 289.554 73.0432 290.18 72.5153L290.22 72.5054ZM291.968 74.4945C292.238 74.773 292.517 75.0515 292.797 75.3101C292.797 75.4792 292.797 75.6383 292.867 75.8074C292.358 76.3753 291.897 76.984 291.488 77.6274C291.117 78.2469 290.784 78.8879 290.489 79.547C289.974 79.1672 289.542 78.6866 289.221 78.1347C288.69 77.282 288.462 76.2772 288.571 75.2802C289.723 75.1776 290.853 74.9096 291.928 74.4846L291.968 74.4945ZM291.688 78.5226C292.064 77.7989 292.498 77.107 292.987 76.4538C293.288 77.9774 293.702 79.4766 294.226 80.9394C293.117 80.7762 292.046 80.4228 291.059 79.8951C291.199 79.4276 291.418 78.9602 291.638 78.5126L291.688 78.5226ZM294.146 73.5497C294.096 72.8535 294.056 72.1573 294.056 71.4511C294.056 71.3019 294.056 71.1627 294.056 71.0235C294.671 70.9795 295.29 71.0196 295.894 71.1428C295.769 71.7527 295.536 72.3354 295.205 72.8634C295.045 73.122 294.855 73.3607 294.665 73.5994C294.477 73.5617 294.287 73.5384 294.096 73.5298L294.146 73.5497ZM294.605 74.3553C295.051 74.4875 295.47 74.6962 295.844 74.9719C297.423 76.1157 298.162 77.6175 300.2 78.3236C301.668 78.8186 303.261 78.7975 304.715 78.264L305.055 78.5624C305.495 78.9602 305.964 79.3481 306.434 79.7459C305.094 79.7869 303.797 80.2231 302.707 80.9991C300.836 80.0781 299.024 79.0417 297.283 77.896C296.273 77.2165 295.3 76.4862 294.366 75.7079C294.366 75.3896 294.266 75.0714 294.226 74.7133L294.605 74.3553ZM302.008 81.5361C301.696 81.7942 301.402 82.0733 301.129 82.3716L300.879 82.67C299.3 81.85 297.57 81.3561 295.794 81.2179C295.285 79.8061 294.891 78.356 294.615 76.8815C296.905 78.6585 299.364 80.2075 301.958 81.5063L302.008 81.5361ZM301.009 83.9728C301.7 84.6515 302.316 85.4017 302.847 86.2106L302.478 86.3598C301.447 86.8083 300.282 86.8369 299.231 86.4394C299.75 85.6537 300.33 84.7785 300.949 83.943L301.009 83.9728ZM301.598 83.207C301.958 82.7502 302.349 82.3182 302.767 81.9141C303.766 82.4114 304.765 82.9087 305.764 83.3463L306.374 83.6148C305.627 84.5112 304.715 85.2573 303.686 85.8128C303.104 84.8317 302.376 83.9433 301.528 83.1772L301.598 83.207ZM307.593 84.2016C308.951 84.8282 310.14 85.6636 310.19 87.3842C310.173 88.3412 310.083 89.2954 309.92 90.2387C308.042 90.547 305.924 88.9258 304.925 87.7025C304.725 87.4539 304.546 87.1953 304.366 86.9267C305.617 86.2246 306.706 85.2692 307.563 84.122L307.593 84.2016ZM317.783 34.254C320.92 37.2974 319.271 42.2106 319.061 45.9402C318.842 49.9185 320.39 53.688 320.38 57.6464C320.415 59.4469 319.97 61.2245 319.091 62.7983C317.982 64.6681 316.664 64.7875 314.915 65.782C314.686 65.9143 314.471 66.0711 314.276 66.2495C315.185 63.1663 317.183 60.4909 317.493 57.2983C317.693 54.6187 317.092 51.9401 315.765 49.6003C315.921 48.3083 315.85 46.999 315.555 45.7314L316.714 35.3977L316.903 33.6672C317.21 33.7998 317.499 33.9702 317.763 34.1744L317.783 34.254ZM298.701 22.1002C300.839 21.8019 302.008 20.7675 303.836 19.763C306.833 18.1518 310.15 20.0216 312.897 21.225C315.365 22.2992 318.502 23.7413 317.663 26.725C314.855 23.1147 309.671 19.3552 305.055 20.7576C302.927 21.4239 302.308 22.6473 302.518 24.0198C299.212 22.9797 295.681 22.873 292.318 23.7115C294.016 22.2892 296.483 22.3986 298.701 22.1002ZM289.76 26.2277C291.677 24.8865 293.983 24.2087 296.324 24.2983C294.685 25.0044 293.426 26.4167 293.806 28.0478C293.908 28.4378 294.088 28.8032 294.336 29.122C293.618 29.7714 292.996 30.518 292.487 31.3399C292.162 30.7027 291.702 30.1429 291.139 29.6988C290.146 28.9572 288.933 28.5685 287.692 28.5948C288.212 27.6709 288.92 26.8648 289.77 26.2277H289.76ZM286.493 30.952L286.733 30.7332C286.897 30.5223 287.103 30.3465 287.337 30.2163C287.571 30.0862 287.829 30.0043 288.096 29.9755C288.363 29.9467 288.632 29.9717 288.889 30.0489C289.146 30.1261 289.384 30.2539 289.59 30.4249C290.072 30.7225 290.488 31.1137 290.814 31.5751C291.14 32.0365 291.37 32.5586 291.488 33.1102C291.488 33.1798 291.488 33.2594 291.538 33.329C291.162 34.3559 291.015 35.4523 291.109 36.5415C290.502 37.0685 289.965 37.67 289.51 38.3317C288.706 37.9652 287.826 37.7948 286.943 37.8344C287.167 37.3213 287.283 36.7678 287.283 36.2083C287.283 35.6488 287.167 35.0953 286.943 34.5822C286.743 34.0252 286.463 33.4881 286.283 32.9212C286.204 32.6626 286.134 32.4637 286.094 32.2847L286.493 30.952ZM285.764 39.7838C286.054 39.3164 286.303 38.9086 286.513 38.5306C287.421 38.3879 288.351 38.5341 289.171 38.9484C289.168 39.0014 289.168 39.0545 289.171 39.1075C289.144 39.3938 289.202 39.6817 289.336 39.936C289.471 40.1903 289.677 40.4 289.93 40.5397C290.337 40.8536 290.76 41.1457 291.199 41.4149C291.305 41.7403 291.388 42.0726 291.448 42.4095C289.288 42.1636 287.1 42.2949 284.985 42.7974C284.947 41.7323 285.236 40.681 285.814 39.7838H285.764ZM282.317 41.9818C282.726 40.8046 283.554 39.8173 284.645 39.207C283.953 40.4172 283.608 41.7932 283.646 43.1853C283.122 43.3686 282.614 43.5948 282.128 43.8616C282.089 43.2256 282.17 42.5881 282.367 41.9818H282.317ZM284.196 60.8788C284.774 59.8898 285.211 58.8253 285.494 57.716C285.914 54.2648 281.898 52.226 280.969 49.1527C280.784 48.5807 280.758 47.9694 280.896 47.3842C281.033 46.799 281.328 46.2621 281.748 45.8308C281.892 46.242 282.069 46.6411 282.277 47.0243C283.326 48.9339 285.145 50.1871 286.453 51.9276C288.032 54.0361 287.782 56.433 286.923 58.6808C286.726 58.9069 286.595 59.1819 286.543 59.4764C286.543 59.5262 286.543 59.5759 286.543 59.6256C286.383 59.9837 286.204 60.3318 286.024 60.6799C285.524 61.6744 284.945 62.5994 284.395 63.594C284.121 63.1936 283.962 62.7261 283.936 62.2423C283.909 61.7584 284.016 61.2766 284.245 60.8489L284.196 60.8788ZM284.935 72.943C284.372 72.3526 283.945 71.6464 283.686 70.8743C283.24 69.1853 283.428 67.3923 284.215 65.8318C284.693 66.3903 284.973 67.0888 285.015 67.8209C285.135 69.5018 284.975 71.2124 284.985 72.9132L284.935 72.943ZM285.055 64.5985L284.885 64.3797L285.025 64.1012C285.584 63.037 286.214 61.9728 286.773 60.8987C287.735 62.2656 289.06 63.3398 290.599 64.0018C289.752 64.4256 289.005 65.0259 288.411 65.7621C286.853 67.7513 288.242 69.999 289.55 71.7296C288.849 72.284 288.311 73.0156 287.992 73.8481C287.923 74.0433 287.866 74.2426 287.822 74.4448C287.289 74.352 286.776 74.1704 286.303 73.9077C286.303 72.1274 286.363 70.367 286.403 68.726C286.541 67.2236 286.074 65.7282 285.105 64.5687L285.055 64.5985ZM289.051 84.5696C288.698 84.1764 288.39 83.7462 288.132 83.2866C286.847 80.6609 286.197 77.7728 286.233 74.8526C286.673 75.046 287.137 75.1798 287.612 75.2504C287.552 76.0245 287.652 76.8026 287.907 77.5366C288.161 78.2705 288.564 78.9447 289.091 79.5171C289.387 79.8418 289.723 80.129 290.09 80.3725C289.859 80.9643 289.662 81.5686 289.5 82.1826C289.317 82.9608 289.197 83.7524 289.141 84.5497L289.051 84.5696ZM293.167 88.8662C292.508 88.9011 291.856 88.7274 291.303 88.37C290.75 88.0126 290.325 87.4899 290.09 86.877C290.553 87.116 291.042 87.2996 291.548 87.424C293.057 87.7821 294.545 87.7721 295.944 88.1003C295.135 88.5916 294.204 88.8498 293.257 88.8463L293.167 88.8662ZM297.163 87.245C296.695 87.0516 296.21 86.9018 295.714 86.7974C294.276 86.4991 292.717 86.6781 291.378 86.1808C290.789 85.9639 290.242 85.6477 289.76 85.2459C289.76 85.2459 289.76 85.2459 289.76 85.1962C289.76 83.6475 290.051 82.1125 290.619 80.6708C291.84 81.2253 293.148 81.5651 294.485 81.6754C294.645 82.0831 294.795 82.4909 294.965 82.8788C295.466 84.4359 296.328 85.8534 297.482 87.0163L297.163 87.245ZM296.164 82.6202C296.074 82.4014 295.984 82.1727 295.904 81.9539C296.324 82.0135 296.743 82.0832 297.153 82.1627C298.232 82.344 299.257 82.7656 300.15 83.396C299.53 84.2513 298.981 85.1465 298.322 85.9819C297.387 85.0301 296.692 83.8712 296.294 82.6003L296.164 82.6202ZM308.801 93.5606C305.846 92.5487 303.063 91.0931 300.549 89.2441C299.782 88.6599 298.978 88.1251 298.142 87.6428L298.252 87.5235C299.517 88.0715 300.943 88.1283 302.248 87.6826C302.701 87.5656 303.145 87.416 303.577 87.2351C304.056 87.9076 304.601 88.5306 305.205 89.0949C305.82 89.6972 306.551 90.1684 307.355 90.4796C308.159 90.7909 309.018 90.9356 309.88 90.905C309.808 91.9974 310.069 93.086 310.63 94.028C310.056 93.9226 309.488 93.7831 308.931 93.6103L308.801 93.5606ZM311.489 93.9087C310.835 92.9654 310.522 91.8295 310.6 90.6862C310.865 90.5942 311.119 90.4742 311.359 90.3282C311.885 90.0212 312.344 89.6119 312.708 89.1248C313.307 90.1193 314.056 91.3128 313.707 92.4964C313.62 92.9702 313.364 93.3967 312.985 93.6967C312.607 93.9966 312.132 94.1497 311.649 94.1275C311.738 94.0678 311.679 94.0081 311.619 93.9286L311.489 93.9087ZM317.483 91.9195C317.143 92.9141 316.564 94.6645 315.485 95.1121C315.06 95.2999 314.6 95.3927 314.136 95.3841C313.671 95.3755 313.215 95.2657 312.797 95.0624C314.156 94.7839 315.045 93.849 314.935 91.8201C314.838 90.8748 314.52 89.9654 314.006 89.1645C313.767 88.7369 313.487 88.3191 313.237 87.8915C313.326 86.8834 313.073 85.8747 312.518 85.0271C312.784 84.0694 313.313 83.2048 314.046 82.5307C314.549 82.0552 315.022 81.5504 315.465 81.0189C316.568 82.1957 317.479 83.5383 318.162 84.9973C318.991 87.2947 318.382 89.6917 317.623 91.9096L317.483 91.9195Z" fill="white"/>
<path d="M251.398 112C248.363 111.878 245.459 110.739 243.156 108.768C243.063 108.685 243.007 108.568 243.001 108.444C242.994 108.32 243.037 108.199 243.121 108.106C243.204 108.014 243.321 107.958 243.446 107.952C243.57 107.945 243.692 107.988 243.785 108.071C243.785 108.071 247.941 111.741 252.876 110.936C252.999 110.916 253.125 110.946 253.227 111.019C253.328 111.091 253.396 111.201 253.416 111.324C253.436 111.446 253.406 111.572 253.333 111.673C253.26 111.773 253.149 111.841 253.026 111.861C252.488 111.951 251.943 111.997 251.398 112V112Z" fill="white"/>
<path d="M357.164 65.424C357.148 65.3486 357.108 65.2803 357.051 65.2285C356.993 65.1768 356.921 65.1443 356.844 65.1356C356.1 64.9379 355.321 64.9013 354.561 65.0282C353.801 65.1552 353.078 65.4427 352.439 65.8715C353.124 63.9409 353.124 61.8347 352.439 59.9041C352.109 58.7205 351.749 57.5967 351.519 56.4629C351.536 55.4104 351.687 54.3642 351.969 53.3498C353.278 49.3715 357.963 46.5071 356.385 42.0017C355.666 40.3358 354.628 38.8256 353.328 37.556C351.862 35.9127 350.585 34.1113 349.521 32.1852C349.22 30.7918 348.527 29.5122 347.523 28.4954C345.975 25.8001 343.857 23.2539 340.48 22.5279C338.342 20.131 334.486 19.6735 331.319 20.0813H331.08C330.604 19.3717 330.066 18.706 329.471 18.0921C328.042 16.7096 325.865 15.536 323.837 16.1825C322.873 16.6062 322.048 17.2922 321.459 18.1617C320.331 19.3657 318.93 20.2831 317.373 20.8371C316.516 21.1266 315.795 21.7183 315.346 22.5007C314.897 23.283 314.751 24.2019 314.935 25.084C315.213 26.4374 315.413 27.8055 315.535 29.1816C314.599 30.8703 314.198 32.8017 314.386 34.7214C314.386 34.7811 314.386 34.8408 314.386 34.9004C314.066 37.8245 315.215 40.5795 316.384 43.1753L316.524 43.4836C315.967 44.1963 315.447 44.9365 314.965 45.7015C312.072 50.6318 308.015 54.7862 303.147 57.8055C299.87 59.7947 297.822 62.3408 299.52 65.971C301.129 69.4222 305.405 70.7848 309.331 70.5659L309.95 70.5063C309.802 71.1338 309.871 71.7928 310.147 72.3762C310.422 72.9595 310.888 73.4327 311.469 73.7188C312.468 74.2359 313.607 74.0171 314.466 74.4846C314.238 75.2723 314.173 76.098 314.276 76.9113C314.412 77.8742 314.805 78.783 315.415 79.5424C316.025 80.3019 316.829 80.884 317.743 81.2278C318.062 81.4963 318.412 81.745 318.742 81.9837C317.213 84.6989 316.584 87.4041 318.792 90.0596C319.077 90.401 319.395 90.7141 319.741 90.9945C319.667 91.1924 319.607 91.3951 319.561 91.6012C319.436 92.0233 319.409 92.4684 319.483 92.9023C319.557 93.3361 319.73 93.7474 319.989 94.1045C320.247 94.4616 320.584 94.7551 320.974 94.9625C321.364 95.1699 321.796 95.2857 322.238 95.3011C325.425 95.679 329.231 94.5352 332.128 93.4313C335.336 92.2096 338.322 90.4763 340.97 88.2992C341.399 87.9511 340.79 87.3047 340.36 87.6926C335.795 91.3824 329.371 94.4855 323.377 94.3662C320.5 94.3164 320.19 93.103 320.66 91.6211C321.825 92.251 323.111 92.6289 324.433 92.73C325.755 92.8311 327.084 92.6532 328.332 92.2079C330.48 91.4719 331.729 90.0696 333.397 88.7468C336.115 86.5985 338.912 87.5334 342.129 87.1555C346.125 86.688 348.612 83.6148 349.581 80.3426C350.71 76.5334 348.922 64.7278 356.385 65.9014C359.651 68.1193 362.269 70.556 363.378 74.2956C364.607 78.5822 362.928 82.3616 360.541 86.0416C356.345 92.5063 352.918 99.9656 355.595 107.514C355.725 107.873 356.405 107.833 356.365 107.425C355.875 102.571 355.775 97.9267 357.723 93.2821C359.492 89.085 362.948 85.594 364.407 81.2875C366.325 75.7079 363.508 67.8408 357.164 65.424ZM351.819 51.5994C351.679 51.848 351.569 52.1066 351.47 52.3652V52.3155C351.659 51.48 351.879 50.6744 352.009 49.8788C352.648 49.3715 353.328 48.8146 353.947 48.2377C353.258 49.3317 352.429 50.4258 351.819 51.6093V51.5994ZM354.427 46.8652C353.779 47.727 352.992 48.4764 352.099 49.0831C352.178 48.2243 352.041 47.3594 351.699 46.5668C351.24 45.5126 350.7 44.5777 350.301 43.5831C350.753 43.1674 351.308 42.879 351.909 42.7476C354.806 42.1509 355.675 45.0451 354.427 46.8652ZM349.831 34.5722C350.201 35.1704 350.608 35.7451 351.05 36.2928C352.189 37.6753 353.518 38.9484 354.527 40.4203C355.168 41.2946 355.558 42.326 355.655 43.4041C355.396 43.0781 355.086 42.796 354.736 42.5686C353.999 42.1701 353.16 41.9954 352.324 42.0661C351.488 42.1368 350.69 42.4498 350.031 42.9665C349.703 42.1279 349.521 41.2401 349.491 40.3408C349.432 38.4113 349.871 36.4918 349.841 34.5722H349.831ZM350.95 49.9484C350.45 50.3241 349.983 50.7399 349.551 51.1916C349.1 49.6687 348.895 48.0842 348.942 46.4972C348.996 45.8844 349.166 45.2873 349.442 44.7368C350.431 46.6563 351.17 47.9194 350.96 49.9484H350.95ZM350.321 55.4384C350.397 55.9514 350.504 56.4595 350.64 56.9601C350.58 58.8498 350.441 60.9384 348.922 62.2016C348.869 60.9652 348.742 59.7331 348.542 58.5117C348.881 58.037 349.178 57.5346 349.432 57.0099C350.095 55.363 350.186 53.5426 349.691 51.8381C349.726 51.8213 349.756 51.7976 349.781 51.7685C350.091 51.4366 350.425 51.1275 350.78 50.8435C350.78 50.8435 350.78 50.9131 350.78 50.943C350.355 52.4014 350.206 53.9258 350.341 55.4384H350.321ZM349.072 43.961C348.375 45.121 348.08 46.4769 348.233 47.82C348.442 50.6147 349.991 53.3598 349.012 56.1645C348.837 56.6387 348.616 57.095 348.353 57.5271C348.173 56.5325 347.963 55.6274 347.703 54.7124C347.347 53.2648 346.893 51.8427 346.345 50.4556C345.687 48.6767 345.461 46.7683 345.685 44.886C346.055 42.688 347.513 40.9077 348.413 38.9185C348.251 40.6289 348.484 42.3534 349.092 43.961H349.072ZM345.605 69.9294C344.666 70.924 344.796 72.207 344.796 73.4502C344.626 73.5895 344.446 73.7287 344.257 73.848L343.977 74.0072L344.047 73.8779C344.575 72.7843 344.689 71.5374 344.366 70.367C344.723 69.6376 344.94 68.8483 345.006 68.0397C345.106 66.8661 345.126 65.7721 345.286 64.6979C345.771 64.2591 346.204 63.765 346.574 63.226C346.764 63.2375 346.954 63.2375 347.144 63.226C347.14 63.2924 347.153 63.3586 347.181 63.4189C347.209 63.4792 347.252 63.5318 347.305 63.572C347.358 63.6122 347.421 63.6388 347.486 63.6496C347.552 63.6604 347.62 63.6549 347.683 63.6338C347.833 63.6338 347.963 63.5343 348.093 63.4846C348.149 65.2243 347.971 66.9637 347.563 68.6564C346.826 68.929 346.16 69.3642 345.615 69.9294H345.605ZM347.304 69.5316C347.092 70.2211 346.811 70.8875 346.464 71.5207C346.184 71.9953 345.848 72.4359 345.465 72.8336C345.465 72.6943 345.465 72.5551 345.465 72.4159C345.45 71.8066 345.618 71.2067 345.947 70.6929C346.277 70.1791 346.752 69.7748 347.314 69.5316H347.304ZM340.95 79.5569C339.671 80.2321 338.241 80.5742 336.794 80.5515C336.852 79.8324 336.805 79.1088 336.654 78.4032C337.928 78.2873 339.172 77.9507 340.33 77.4086C340.423 78.1538 340.635 78.8793 340.96 79.5569H340.95ZM335.126 78.9602C335.126 79.3083 335.126 79.7061 335.205 80.1238V80.3327C334.936 80.273 334.666 80.2133 334.396 80.1338C332.657 79.6282 331.096 78.646 329.891 77.2992C330.55 76.6229 331.359 77.4683 332.208 77.7866C333.148 78.1327 334.135 78.3372 335.136 78.3933C335.116 78.5723 335.126 78.7712 335.136 78.9602H335.126ZM327.683 86.6482C327.026 85.9544 326.564 85.1001 326.344 84.1718C326.344 83.9828 326.284 83.7938 326.254 83.6048C326.705 83.7454 327.191 83.7227 327.626 83.5406C328.061 83.3586 328.417 83.029 328.632 82.6103C329.471 81.3969 329.051 79.9647 329.261 78.632C330.761 80.2076 332.749 81.2371 334.906 81.556C334.779 82.2282 334.612 82.8925 334.406 83.5452C334.326 83.7839 334.226 84.0325 334.127 84.2812C333.267 85.0856 332.253 85.7096 331.146 86.1163C330.039 86.5229 328.861 86.7038 327.683 86.6482V86.6482ZM332.498 86.6482C332.198 86.9078 331.861 87.1222 331.499 87.2848C330.896 87.5709 330.224 87.6813 329.561 87.603C330.498 87.4582 331.41 87.1802 332.268 86.7775L332.498 86.6482ZM318.062 80.452C316.144 78.7016 317.063 76.4737 315.894 74.584C315.772 74.3898 315.616 74.2182 315.435 74.0768C315.485 73.9475 315.545 73.8083 315.605 73.679C315.894 74.4106 316.395 75.0405 317.043 75.4891C317.913 75.9674 318.725 76.5449 319.461 77.2097C320.46 78.5126 320.02 79.7558 319.341 80.9792C319.026 80.9327 318.715 80.8595 318.412 80.7604L318.062 80.452ZM313.627 65.8815C314.737 66.1491 315.755 66.709 316.574 67.5027L313.886 68.3779C312.995 68.6607 312.083 68.8735 311.159 69.0144C311.682 67.8274 312.39 66.7298 313.257 65.7621L313.627 65.8815ZM316.334 66.3092C315.534 65.8267 314.679 65.4427 313.786 65.1654C314.276 64.6184 314.785 64.1111 315.145 63.6934L315.814 62.9475H315.894C317.213 62.9475 318.622 62.858 320.01 62.8978C319.697 64.3068 319.196 65.6681 318.522 66.9457L317.393 67.264C317.092 66.8926 316.735 66.5704 316.334 66.3092V66.3092ZM316.394 29.5098C317.118 28.2092 318.232 27.166 319.581 26.5261C320.848 25.9136 322.251 25.6329 323.657 25.7106C318.592 29.5098 317.932 35.5768 318.432 41.3254L317.902 41.8326C317.076 40.2639 316.356 38.6425 315.745 36.9791C315.494 36.1244 315.346 35.2429 315.305 34.3534C315.747 32.7709 316.11 31.1677 316.394 29.5496V29.5098ZM340.161 23.1843C340.82 24.0395 341.172 25.0902 341.16 26.1681C341.173 26.3634 341.173 26.5595 341.16 26.7549C340.721 26.746 340.284 26.7095 339.851 26.6455C338.626 26.4142 337.432 26.0403 336.294 25.5315C336.072 25.1529 335.785 24.8162 335.445 24.537V24.537C336.085 23.9389 336.859 23.5024 337.703 23.2639C338.512 23.0894 339.347 23.0759 340.161 23.2241V23.1843ZM340.31 35.9249V36.0541C339.245 35.3845 338.444 34.3692 338.043 33.1798C337.663 31.6183 337.783 29.8778 336.414 28.6744L336.284 28.5749C336.555 28.0891 336.686 27.5386 336.664 26.9836C337.994 27.5236 339.399 27.859 340.83 27.9782C340.354 29.0845 339.973 30.229 339.691 31.3995C339.542 32.9354 339.754 34.4847 340.31 35.9249V35.9249ZM342.748 74.5343L342.149 74.7034C342.568 74.584 341.22 74.8426 341.15 74.8625C340.892 75.0622 340.683 75.3169 340.538 75.6078C340.393 75.8988 340.315 76.2185 340.31 76.5433C339.267 77.1165 338.119 77.475 336.934 77.5976C337.745 76.4543 338.761 75.4697 339.931 74.6934C341.327 73.8102 342.578 72.7164 343.637 71.4511C343.749 72.5543 343.43 73.658 342.748 74.5343V74.5343ZM329.271 76.5235C329.031 76.2062 328.81 75.874 328.612 75.5289C329.893 75.0764 331.272 74.97 332.608 75.2206C332.694 75.2436 332.786 75.234 332.865 75.1935C332.944 75.1531 333.006 75.0848 333.038 75.0018C333.372 73.5937 333.404 72.131 333.13 70.71C332.856 69.2889 332.283 67.9417 331.449 66.7567C330.535 65.5374 329.972 64.0933 329.821 62.5795C330.904 63.5606 332.052 64.4678 333.257 65.2947C334.128 67.6056 334.65 70.0322 334.806 72.4954C334.532 73.3232 334.557 74.22 334.876 75.0316L334.996 75.3698C334.996 76.1356 335.066 76.8914 335.096 77.6473C333.407 77.4949 331.788 76.9051 330.4 75.9367C330.338 75.8999 330.267 75.8804 330.195 75.8804C330.123 75.8804 330.052 75.8999 329.991 75.9367C329.719 76.1059 329.476 76.3174 329.271 76.5632V76.5235ZM324.886 81.6754C324.451 81.2187 324.112 80.6814 323.887 80.094C324.039 79.9396 324.182 79.7769 324.316 79.6066C324.948 78.6198 325.664 77.6882 326.454 76.8218C326.294 78.6021 325.695 80.3227 325.555 82.0831C325.308 81.9903 325.081 81.852 324.886 81.6754V81.6754ZM318.212 42.6681L318.522 42.3598C318.592 43.0162 318.672 43.6726 318.762 44.3489C318.612 43.8616 318.462 43.3543 318.282 42.8769L318.212 42.6681ZM337.953 35.0397C338.419 35.6375 339 36.1378 339.661 36.5117C340.109 36.8167 340.524 37.1666 340.9 37.556V37.6256L340.84 37.7051C340.198 38.3395 339.398 38.7925 338.522 39.018C337.913 36.5713 335.285 34.7811 332.788 33.7965C332.343 33.6184 331.881 33.4851 331.409 33.3986C331.258 31.8071 330.588 30.3086 329.501 29.1319L329.711 29.0324C330.35 29.6656 331.146 30.1186 332.019 30.3453C332.691 30.5266 333.4 30.5195 334.068 30.3247C334.736 30.1299 335.337 29.7549 335.805 29.2413C337.443 30.6934 336.784 33.2793 337.953 35.0596V35.0397ZM342.438 51.0424C342.568 50.6545 342.698 50.2766 342.808 49.8987C342.918 49.5207 342.928 49.4113 342.998 49.1726C343.594 50.1665 343.887 51.3116 343.841 52.4683C343.794 53.625 343.411 54.7433 342.738 55.6871L342.638 55.8164C342.744 54.2225 342.677 52.622 342.438 51.0424V51.0424ZM341.959 52.8327C342.039 54.0361 341.959 55.3191 341.889 56.5921C341.442 56.9285 340.947 57.1966 340.42 57.3878C340.81 55.748 341.31 54.1364 341.919 52.5641C341.939 52.6138 341.949 52.7034 341.959 52.8327ZM341.269 64.4394L341.07 64.0515C340.632 63.1798 340.342 62.2423 340.211 61.2766C340.956 62.1461 341.335 63.2684 341.269 64.4095V64.4394ZM333.757 64.2902C333.465 63.6493 333.131 63.0281 332.758 62.4303C332.276 61.6623 331.742 60.9279 331.159 60.2323C331.304 60.1348 331.454 60.0452 331.609 59.9638C332.171 59.6773 332.769 59.4666 333.387 59.3372C333.803 59.5498 334.259 59.675 334.726 59.7052C336.494 59.8643 337.883 59.3471 339.481 60.6003C339.54 61.9229 339.881 63.2178 340.48 64.3996C340.67 64.7775 340.87 65.1455 341.09 65.5234C341.09 65.5931 341.09 65.6627 341.04 65.7323C339.791 66.0232 338.494 66.0422 337.237 65.7882C335.98 65.5341 334.793 65.013 333.757 64.2603V64.2902ZM340.36 67.0153C339.102 68.7658 336.834 69.7703 335.545 71.2323C335.366 69.4384 334.997 67.6683 334.446 65.9511C336.248 66.9401 338.327 67.3073 340.36 66.9954V67.0153ZM327.373 67.5126L327.193 67.4231C327.146 66.7134 326.956 66.0203 326.636 65.3848C326.315 64.7493 325.869 64.1844 325.325 63.7233C325.699 62.534 325.858 61.288 325.795 60.0433C325.743 59.5472 325.619 59.0612 325.425 58.6012C326.449 59.8708 327.662 60.9776 329.022 61.8833C328.442 64.0017 330.18 65.9312 331.229 67.6916C332.095 69.0354 332.607 70.5746 332.718 72.1672C332.718 72.9131 333.028 74.0967 332.158 74.5244C331.443 74.5737 330.726 74.5737 330.011 74.5244C329.448 74.6082 328.896 74.7481 328.362 74.9421C327.418 72.8167 327.19 70.444 327.713 68.179C327.737 68.0435 327.717 67.9039 327.656 67.7804C327.595 67.657 327.496 67.5562 327.373 67.4927V67.5126ZM321.159 53.141L321.719 52.9719C321.902 53.8893 322.272 54.7594 322.808 55.528C323.986 57.2884 325.225 58.8299 325.105 60.9882C325.048 61.7573 324.921 62.5196 324.726 63.2658C323.67 62.6177 322.475 62.2291 321.239 62.1319C321.648 59.1468 321.621 56.1184 321.159 53.141ZM331.549 34.3435C332.614 34.6237 333.626 35.0738 334.546 35.6762C336.364 36.8001 337.333 38.0135 337.543 39.5849C336.204 40.4862 335.189 41.7893 334.646 43.3046C332.918 42.8968 331.139 42.5587 329.431 42.0912C330.355 40.7855 331.004 39.307 331.339 37.7449C331.56 36.6253 331.63 35.4815 331.549 34.3435V34.3435ZM337.613 40.3109C337.615 40.8426 337.558 41.3729 337.443 41.8923C337.313 42.5587 337.094 43.2549 337.014 43.9511C336.424 43.7621 335.835 43.593 335.225 43.4439C335.225 43.3742 335.225 43.2947 335.305 43.225C335.81 42.0612 336.604 41.0446 337.613 40.2712V40.3109ZM324.916 57.4773C324.941 57.5683 324.971 57.6579 325.005 57.7459C324.216 56.3535 323.007 55.1301 322.488 53.5786C322.398 53.3293 322.327 53.0732 322.278 52.8128L322.568 52.7232C323.417 53.6383 324.326 54.5135 325.245 55.3887C324.902 56.0279 324.786 56.764 324.916 57.4773V57.4773ZM327.813 44.0605C328.162 44.3091 328.522 44.5677 328.892 44.8064C329.131 47.5415 326.974 49.9981 324.376 51.311C323.906 51.5458 323.423 51.7518 322.927 51.9276C322.698 51.669 322.488 51.4005 322.268 51.1319C322.808 48.3471 325.825 46.1093 327.823 44.0605H327.813ZM327.073 42.0713C327.403 42.1907 327.733 42.31 328.072 42.4194V42.499L327.843 42.7675C327.603 42.5587 327.333 42.3299 327.073 42.0813V42.0713ZM323.457 52.4249C326.454 51.3109 328.982 49.5406 329.661 46.4574C329.742 46.0915 329.786 45.7182 329.791 45.3435C332.218 46.8851 335.175 48.8146 334.786 51.5596C334.027 51.48 333.098 51.3308 332.788 51.3507C330.69 51.4524 328.668 52.1648 326.974 53.3996C326.493 53.7669 326.066 54.1987 325.705 54.6826C324.896 53.9466 324.136 53.2006 323.457 52.4249ZM329.641 43.9909C329.541 43.566 329.397 43.1527 329.211 42.7576C330.011 42.9764 330.81 43.1554 331.589 43.2947C332.588 43.4737 333.587 43.6527 334.526 43.8715C334.194 45.0806 334.226 46.3599 334.616 47.5514C334.703 47.7792 334.803 48.0017 334.916 48.2178C333.627 46.4176 331.549 45.2639 329.591 43.9909H329.641ZM330.24 39.2169C329.86 40.1595 329.341 41.0409 328.702 41.8326C327.9 40.6258 326.674 39.7604 325.265 39.4059C325.133 39.0819 325.023 38.7497 324.936 38.4113C325.694 37.2664 326.593 36.2206 327.613 35.2983C328.057 34.9166 328.575 34.631 329.136 34.4598C329.697 34.2886 330.287 34.2354 330.87 34.3037C331.024 35.9716 330.792 37.6525 330.19 39.2169H330.24ZM324.746 37.2277C324.564 35.5391 324.962 33.8389 325.875 32.4041C326.633 31.2634 327.628 30.297 328.792 29.5695C329.684 30.3936 330.31 31.4634 330.59 32.6428C330.65 32.8616 330.69 33.0704 330.73 33.2892C328.052 33.2196 326.294 35.1292 324.696 37.2675L324.746 37.2277ZM323.747 34.98C323.521 36.1163 323.552 37.2883 323.837 38.4113L323.407 38.9882C320.58 36.2133 320 31.31 324.136 29.1717C324.714 28.828 325.369 28.635 326.041 28.6107C326.714 28.5864 327.381 28.7314 327.983 29.0324C326.912 29.7007 325.985 30.5742 325.256 31.602C324.527 32.6298 324.011 33.7916 323.737 35.0198L323.747 34.98ZM319.88 45.075C321.109 43.4339 322.338 41.8028 323.577 40.1717C324.047 40.517 324.541 40.8294 325.055 41.1066C325.663 41.9954 326.389 42.7983 327.213 43.4936C325.075 45.8109 322.578 48.009 321.859 50.5551C321.347 49.9225 320.876 49.2581 320.45 48.5659C320.24 47.4222 320.04 46.2684 319.87 45.1147L319.88 45.075ZM319.721 43.9411C319.641 43.3146 319.561 42.6979 319.501 42.0713C319.501 41.8923 319.501 41.7133 319.501 41.5343C320.085 41.0891 320.727 40.7245 321.409 40.4502C321.797 40.2995 322.198 40.1863 322.608 40.112L319.721 43.9411ZM321.639 51.6193C321.639 51.858 321.639 52.0668 321.639 52.2856L321.069 52.4547C320.976 51.7917 320.88 51.1584 320.78 50.5551C321.049 50.9628 321.329 51.3209 321.629 51.669L321.639 51.6193ZM325.085 64.5488C325.649 65.1894 325.998 65.9889 326.084 66.8363C325.607 66.6598 325.116 66.5234 324.616 66.4285C324.746 65.8715 324.906 65.245 325.075 64.6283L325.085 64.5488ZM326.194 56.8308C326.151 56.6209 326.151 56.4043 326.194 56.1943C327.528 57.4153 328.799 58.7033 330.001 60.0533C329.83 60.2244 329.677 60.4108 329.541 60.6102C328.302 59.6554 326.454 58.4023 326.184 56.9104L326.194 56.8308ZM326.544 55.4086C327.658 54.1088 329.12 53.1501 330.76 52.6437C331.995 52.2555 333.294 52.1037 334.586 52.1961C334.543 52.3378 334.493 52.4772 334.436 52.6138C333.657 54.3444 331.899 55.5976 332.308 57.5867C332.382 57.9455 332.532 58.2845 332.748 58.5813C332.01 58.7511 331.306 59.0472 330.67 59.4565C329.391 58.1536 327.963 56.811 326.534 55.4882L326.544 55.4086ZM330.54 60.6699C330.94 61.1573 331.319 61.6645 331.669 62.1817C331.819 62.4104 331.959 62.6392 332.098 62.8679C331.449 62.301 330.82 61.7242 330.18 61.1573C330.289 61.0239 330.409 60.9007 330.54 60.7893V60.6699ZM339.531 59.6753C339.117 59.4051 338.671 59.1879 338.203 59.0289C337.856 58.9205 337.497 58.857 337.134 58.8399L337.863 58.7603C338.475 58.682 339.077 58.542 339.661 58.3426C339.581 58.8033 339.527 59.2682 339.501 59.735L339.531 59.6753ZM334.196 58.3824C332.688 57.6464 333.477 56.1048 334.316 54.8218C334.876 54.0557 335.339 53.2239 335.695 52.3453L336.294 52.4547C336.504 52.4547 336.804 52.395 336.834 52.1762C336.972 51.1342 336.735 50.077 336.165 49.1925C335.165 47.4222 334.596 45.8507 335.086 43.9909C335.752 44.15 336.418 44.339 337.084 44.5578C337.085 44.8057 337.115 45.0527 337.174 45.2938C337.465 46.2292 338.1 47.021 338.952 47.5117C340.404 48.4068 341.441 49.8367 341.839 51.49C341.037 53.472 340.369 55.5055 339.841 57.5768C337.97 57.9836 336.075 58.2693 334.166 58.4321L334.196 58.3824ZM342.189 50.1473C341.772 48.9457 340.99 47.9029 339.951 47.1636C339.161 46.6439 338.561 45.8831 338.242 44.9954C339.126 45.3742 339.959 45.8621 340.72 46.4475C341.476 47.0378 342.131 47.7465 342.658 48.546C342.512 49.1229 342.362 49.6765 342.209 50.207L342.189 50.1473ZM343.038 46.5967C343.038 46.9249 342.938 47.2531 342.878 47.5912C341.622 46.076 339.974 44.9309 338.113 44.2793C338.08 43.7629 338.117 43.2443 338.222 42.7377C338.432 41.9371 338.586 41.1229 338.682 40.301C338.704 40.0495 338.704 39.7966 338.682 39.5451C338.852 39.4556 339.032 39.3561 339.202 39.2766C340.68 38.6202 340.84 38.9583 341.2 38.282C342.289 40.9872 343.437 43.5831 343.058 46.6563L343.038 46.5967ZM333.377 29.659C332.861 29.7232 332.337 29.6727 331.843 29.511C331.349 29.3493 330.897 29.0806 330.52 28.7241C331.749 28.244 333.099 28.1639 334.376 28.4954C334.646 28.5719 334.907 28.6751 335.155 28.8037C334.67 29.2708 334.047 29.5706 333.377 29.659V29.659ZM329.161 28.4158L328.792 28.5849C327.922 28.0736 326.909 27.8572 325.905 27.9682C321.978 28.2865 319.711 32.2947 320.36 35.5071C320.658 36.9554 321.389 38.2799 322.458 39.3064C321.329 39.5199 320.263 39.9858 319.341 40.669C319.111 36.9891 319.451 33.15 321.509 29.9077C322.459 28.3699 323.768 27.0835 325.325 26.1581L325.645 26.2675C326.784 26.7549 327.643 27.7494 328.882 28.0776L329.161 28.4158ZM319.461 48.556V48.7151L319.341 48.3769L319.461 48.556ZM320.25 53.6979C320.572 56.0385 320.615 58.4087 320.38 60.7594C320.33 61.207 320.26 61.6545 320.17 62.1021C319.071 62.1021 317.723 62.2215 316.494 62.1021C318.592 59.6157 320.1 56.99 320.25 53.688V53.6979ZM315.525 62.0225C314.256 61.7938 313.307 61.2368 313.257 59.9439C313.127 56.4629 316.114 54.4737 319.431 53.5786C319.431 53.7576 319.431 53.9366 319.431 54.1256C319.231 57.3281 317.523 59.735 315.525 62.0126V62.0225ZM320.919 63.6835C320.979 63.4448 321.019 63.2061 321.069 62.9574C321.93 63.0259 322.774 63.2342 323.567 63.5741C323.921 63.7241 324.256 63.9144 324.566 64.141C324.366 64.8969 324.166 65.6428 324.026 66.4086C322.658 66.2618 321.275 66.3357 319.93 66.6274C320.347 65.6782 320.675 64.6927 320.909 63.6835H320.919ZM324.456 67.7513C325.028 67.8834 325.584 68.0768 326.114 68.3282C326.01 69.3436 325.792 70.3444 325.465 71.3119C324.818 70.2573 324.472 69.0468 324.466 67.811L324.456 67.7513ZM325.885 73.5895C326.222 74.2478 326.416 74.9697 326.454 75.7079C326.454 75.8074 326.454 75.9068 326.454 76.0063C325.958 76.357 325.509 76.7679 325.115 77.2296C324.826 77.5678 324.576 77.9258 324.326 78.2839C324.556 77.5976 324.786 76.9511 324.946 76.424C325.235 75.4692 325.575 74.5443 325.895 73.6193L325.885 73.5895ZM327.123 76.235L327.393 76.0759C327.741 76.7491 328.156 77.3856 328.632 77.9755C328.482 78.7314 328.492 79.5569 328.402 80.3924C328.339 80.924 328.07 81.41 327.652 81.7464C327.233 82.0829 326.7 82.243 326.164 82.1925C326.274 80.2332 327.063 78.2739 327.133 76.2649L327.123 76.235ZM343.198 71.2621C341.569 73.4701 338.532 74.4746 336.774 76.603C336.611 76.8056 336.461 77.0182 336.324 77.2396C336.145 76.7522 335.925 76.245 335.715 75.7974C335.715 74.4846 335.715 73.1916 335.615 71.9981V71.8788C336.158 71.1775 336.838 70.5923 337.613 70.1582C339.088 69.379 340.337 68.235 341.24 66.8363L341.749 66.6871C342.548 67.9182 343.164 69.2583 343.577 70.6654C343.467 70.8659 343.344 71.0587 343.208 71.2423L343.198 71.2621ZM342.438 66.4285C343.114 66.172 343.758 65.8383 344.356 65.4339C344.373 66.7674 344.262 68.0994 344.027 69.4122C343.586 68.3732 343.055 67.3747 342.438 66.4285V66.4285ZM342.618 65.1654C342.364 65.2785 342.104 65.3781 341.839 65.4638L341.769 65.3544C341.99 64.4234 341.95 63.45 341.655 62.5399C341.359 61.6298 340.818 60.8179 340.091 60.1925C340.08 59.5267 340.127 58.8612 340.231 58.2034C340.804 57.9629 341.348 57.6558 341.849 57.2884C341.809 58.7112 342.237 60.1081 343.068 61.2667C343.578 61.9068 344.227 62.4236 344.966 62.7784C344.871 62.9894 344.788 63.2051 344.716 63.4249C344.716 63.5741 344.636 63.7332 344.596 63.8824C344.024 64.4118 343.37 64.8452 342.658 65.1654H342.618ZM342.618 56.5921C343.736 55.4914 344.413 54.0227 344.521 52.461C344.63 50.8994 344.163 49.3519 343.208 48.1084C343.422 46.9847 343.5 45.8392 343.437 44.697C343.661 45.8905 343.968 47.067 344.356 48.2178C345.425 51.2015 346.834 54.245 346.924 57.4674C346.948 58.2685 346.878 59.0696 346.714 59.8544C346.151 60.5683 345.646 61.3267 345.206 62.122C343.497 61.0777 342.778 58.5216 342.668 56.5921H342.618ZM344.117 43.8317C343.737 41.9918 343.557 40.0424 342.588 38.3516C342.314 37.9141 341.978 37.5187 341.589 37.178C341.929 36.3227 342.279 35.4673 342.588 34.622L343.118 33.4185C343.857 31.7476 343.327 31.7078 345.545 31.9068C347.294 32.0659 347.324 31.9068 347.793 33.2494C348.018 33.8737 348.153 34.5267 348.193 35.1889C348.22 36.301 347.999 37.4053 347.543 38.4212C346.374 41.1961 344.826 43.2549 344.626 45.9999C344.516 45.2739 344.317 44.5578 344.167 43.8317H344.117ZM335.865 26.6952C335.878 26.8341 335.878 26.974 335.865 27.1129C335.863 27.4836 335.764 27.8474 335.575 28.1672C334.421 27.6245 333.132 27.4309 331.869 27.6102C332.603 27.1427 333.274 26.5846 333.867 25.9493C334.646 26.178 335.275 26.4366 335.915 26.6852L335.865 26.6952ZM332.578 26.0984C331.389 27.093 330.47 27.471 329.141 27.093C328.712 26.4565 328.312 25.7802 327.873 25.1039C329.084 24.8404 330.338 24.8404 331.549 25.1039C332.069 25.2232 332.548 25.3724 333.068 25.5315C332.948 25.7901 332.798 25.9791 332.628 26.0885L332.578 26.0984ZM327.143 25.5813C327.383 25.9194 327.613 26.2675 327.843 26.5758H327.793C327.373 26.367 327.013 25.989 326.604 25.7702L326.314 25.631C326.534 25.5415 326.764 25.452 327.003 25.3823L327.143 25.5813ZM324.646 25.1039C322.651 24.7804 320.604 25.1305 318.832 26.0984C319.87 24.9979 321.098 24.0917 322.458 23.423C323.751 23.2715 325.052 23.6283 326.084 24.4176C325.604 24.6087 325.139 24.8382 324.696 25.1039H324.646ZM317.773 44.697L317.313 43.7024L317.373 43.6229C317.553 43.971 317.683 44.329 317.822 44.6871L317.773 44.697ZM319.461 52.9321C316.863 53.6184 314.466 54.424 313.117 57.1093C311.938 59.4665 312.118 62.2016 314.835 62.8083L314.356 63.3354C314.006 63.7133 313.527 64.2504 313.017 64.8869C309.97 63.8923 307.023 62.8978 309.491 58.9891C311.489 55.8462 314.046 52.8923 316.294 49.8887L318.232 47.3128C318.949 49.1058 319.365 51.0045 319.461 52.9321V52.9321ZM317.902 70.1681C317.942 70.054 317.975 69.9378 318.002 69.82C318.402 69.2233 318.832 68.6365 319.161 68.0596L319.211 67.9602C320.718 67.5608 322.289 67.4561 323.837 67.6518C323.766 68.3685 323.82 69.0918 323.996 69.7902C324.277 70.6659 324.677 71.4992 325.185 72.2667C324.526 74.1763 323.867 76.0759 323.297 78.0054C323.3 76.6484 323.54 75.3023 324.006 74.0271C325.005 70.2377 320.86 69.5018 317.813 70.3074C317.813 70.2875 317.852 70.2377 317.872 70.1781L317.902 70.1681ZM317.902 74.6338C317.464 74.2884 317.147 73.8136 316.996 73.2776C316.845 72.7416 316.869 72.1719 317.063 71.65C317.981 71.0799 319.05 70.7991 320.13 70.8444C321.839 70.9339 323.367 71.6202 323.127 73.8282C323.012 74.2682 322.858 74.6975 322.668 75.1112C322.194 76.6494 322.229 78.2985 322.768 79.8155L322.648 80.2432C322.117 80.6415 321.49 80.892 320.83 80.9692C321.041 80.5508 321.205 80.1106 321.319 79.6564C321.968 76.8915 319.641 76.2649 317.862 74.6437L317.902 74.6338ZM320.46 81.6754H320.56C321.206 81.6262 321.837 81.454 322.418 81.1681C322.187 82.013 322.106 82.8914 322.178 83.764L322.088 83.6347C321.556 83.0189 320.937 82.4829 320.25 82.0434L320.46 81.6754ZM323.537 81.2974C324.055 82.0929 324.736 82.7707 325.535 83.2866C325.56 83.8235 325.654 84.3549 325.815 84.868C326.005 85.4508 326.285 86.001 326.644 86.4991C326.103 86.3789 325.582 86.1848 325.095 85.9222C323.457 84.9674 323.217 83.1772 323.527 81.2974H323.537ZM341.23 76.8915C341.948 76.4587 342.592 75.9148 343.138 75.2802C343.682 75.0724 344.213 74.8298 344.726 74.5542C344.57 75.477 344.222 76.3575 343.707 77.1398C343.191 77.9222 342.517 78.5895 341.729 79.0994C341.403 78.4117 341.229 77.662 341.22 76.9014L341.23 76.8915ZM346.994 62.5994C347.398 61.8794 347.698 61.1058 347.883 60.3019C347.963 61.0081 348.013 61.7341 348.053 62.48C347.706 62.5637 347.351 62.607 346.994 62.6093V62.5994ZM347.224 29.8778C347.773 30.6347 348.164 31.4938 348.373 32.4041C347.743 30.7033 346.634 29.4203 344.826 30.0966C343.457 30.5939 343.008 32.6428 342.588 33.6871C342.169 34.7314 341.879 35.8453 341.389 36.8498C340.557 34.9764 340.316 32.8951 340.7 30.8824C340.96 29.8878 341.389 28.9628 341.699 28.018C343.827 28.0578 345.865 28.0677 347.224 29.8878V29.8778ZM345.755 27.3118C344.531 26.916 343.243 26.7573 341.959 26.8444C342.061 26.2074 342.023 25.556 341.849 24.9348C341.704 24.4334 341.495 23.9523 341.23 23.5026C343.09 24.2874 344.668 25.6156 345.755 27.3118V27.3118ZM339.331 22.4285C337.912 22.33 336.501 22.7197 335.335 23.5324C335.111 23.6912 334.898 23.864 334.696 24.0496C333.682 23.2718 332.779 22.3619 332.009 21.3444L331.749 20.9764C334.356 20.7775 337.443 21.0062 339.331 22.4285V22.4285ZM331.709 22.4285C332.342 23.2591 333.073 24.0104 333.887 24.6662L333.677 24.5867C331.576 23.7596 329.268 23.6032 327.073 24.1391C326.873 23.9172 326.652 23.7141 326.414 23.5324C325.821 23.096 325.139 22.7939 324.416 22.6473C325.982 22.099 327.589 21.6733 329.221 21.3742C329.691 21.2847 330.22 21.1952 330.79 21.1256C331.089 21.5433 331.449 22.0008 331.719 22.3887L331.709 22.4285ZM315.864 25.5514C315.741 25.0067 315.728 24.443 315.826 23.8932C315.923 23.3433 316.13 22.8184 316.434 22.3489C317.073 21.5632 318.432 21.3543 319.281 20.9963C321.279 20.0912 322.278 17.6445 324.436 17.1373C326.964 16.5505 328.722 18.3805 330.17 20.3001C327.402 20.6468 324.706 21.422 322.178 22.5975C321.29 22.7591 320.452 23.1258 319.732 23.6682C319.012 24.2106 318.43 24.9135 318.032 25.7205C318.007 25.7803 317.995 25.8447 317.996 25.9096C317.997 25.9744 318.011 26.0384 318.039 26.0973C318.066 26.1563 318.105 26.2089 318.154 26.2519C318.203 26.2949 318.26 26.3273 318.322 26.3471C317.738 26.7 317.201 27.1243 316.724 27.6102C316.594 27.7494 316.474 27.8887 316.354 28.0279C316.254 27.1925 316.014 26.3869 315.864 25.5514ZM315.635 39.3064C316.124 40.48 316.634 41.6437 317.083 42.8073L317.003 42.9167C316.458 41.7486 316.001 40.5419 315.635 39.3064V39.3064ZM299.92 63.0469C300.01 60.0632 303.177 58.82 305.515 57.1988C307.407 55.8937 309.164 54.4044 310.759 52.7531C312.321 51.1157 313.713 49.3265 314.915 47.4122C315.565 46.4176 316.204 45.3037 316.913 44.2793C317.246 45.002 317.563 45.7281 317.862 46.4574L315.045 50.2468L310.809 55.9158C309.631 57.4972 307.682 59.377 307.642 61.4059C307.593 63.9321 310.19 64.8372 312.488 65.5334C311.616 66.6328 310.891 67.8396 310.33 69.1238C305.475 69.6708 299.75 68.4574 299.92 63.0469ZM310.909 71.6898C310.783 71.2506 310.746 70.7909 310.799 70.3372C312.91 69.8788 314.988 69.2875 317.023 68.5668C317.044 68.7519 317.044 68.9387 317.023 69.1238C316.497 69.7815 316.051 70.4993 315.695 71.2621C315.633 71.3176 315.585 71.3875 315.558 71.4657C315.53 71.5439 315.522 71.6278 315.535 71.7097C315.459 71.9491 315.409 72.1958 315.385 72.4457C315.124 72.8388 314.9 73.255 314.716 73.6889C313.377 73.1419 311.469 73.4999 310.939 71.7296L310.909 71.6898ZM315.315 78.0352C314.953 77.1002 314.876 76.0794 315.095 75.1012C315.163 75.1992 315.223 75.3023 315.275 75.4095C315.794 76.5036 315.525 77.8661 315.964 79.0099C315.964 79.1094 316.054 79.1889 316.094 79.2784C315.777 78.9085 315.523 78.4883 315.345 78.0352H315.315ZM320.15 89.9005C319.346 89.1422 318.813 88.1426 318.632 87.0543C318.452 85.966 318.634 84.8488 319.151 83.8734C319.341 83.4954 319.561 83.1175 319.781 82.7495C321.659 84.0922 322.778 85.6139 321.479 87.9511C321.089 88.6573 320.62 89.2938 320.22 89.9403L320.15 89.9005ZM332.238 88.6374C329.241 91.1935 324.686 93.1826 321.099 90.6266C321.599 89.5822 322.278 88.4982 322.608 87.6428C322.88 86.9993 322.993 86.3 322.937 85.6039C323.564 86.3268 324.352 86.8926 325.239 87.2555C326.126 87.6183 327.087 87.7681 328.042 87.6926C328.581 88.0075 329.187 88.1883 329.811 88.2197C330.764 88.2063 331.695 87.9295 332.499 87.4202C333.303 86.9109 333.95 86.1891 334.366 85.3354C334.96 84.7896 335.466 84.1555 335.865 83.4557C336.04 84.1088 336.368 84.711 336.824 85.2126C337.279 85.7141 337.847 86.1006 338.482 86.3399C336.184 86.2943 333.954 87.115 332.238 88.6374ZM336.734 83.4855C336.591 83.1615 336.468 82.8294 336.364 82.4909C336.453 82.2595 336.529 82.0238 336.594 81.7848C336.964 81.7848 337.353 81.7848 337.743 81.735C339.043 81.5958 340.301 81.1931 341.439 80.5515C341.549 80.8001 341.649 81.0388 341.739 81.2875C342.195 82.1807 342.281 83.2161 341.979 84.1718C340.76 86.5687 337.663 85.5642 336.734 83.4855ZM349.052 77.518C348.532 81.7549 346.444 85.8924 341.369 86.3499C343.747 85.3553 342.848 82.292 342.089 80.1934C343.393 79.371 344.433 78.1942 345.086 76.8019C345.451 75.9239 345.615 74.976 345.565 74.0271C346.989 72.7291 347.965 71.0165 348.353 69.1338C349.224 68.7533 350.057 68.2904 350.84 67.7513C349.332 70.6555 349.352 75.0216 349.052 77.4683V77.518ZM349.182 68.0696C348.952 68.1889 348.712 68.2884 348.462 68.3878C348.817 66.6768 348.988 64.9331 348.972 63.1862C349.657 62.7613 350.228 62.1774 350.637 61.4845C351.046 60.7917 351.28 60.0105 351.32 59.2079C352.349 62.5397 353.228 65.9909 349.182 68.0198V68.0696Z" fill="#7F3F98"/>
</svg>
