<svg width="960" height="266" viewBox="0 0 960 266" fill="none" xmlns="http://www.w3.org/2000/svg">
<path d="M800.05 225.725C809.665 229.469 820.101 230.593 830.292 228.981C840.484 227.369 850.064 223.08 858.054 216.552C866.044 210.023 872.157 201.49 875.768 191.825C879.379 182.159 880.358 171.708 878.605 161.54H860.08" stroke="white" stroke-width="2" stroke-linecap="round" stroke-linejoin="round"/>
<path d="M767.2 193.19C769.788 199.616 773.501 205.528 778.165 210.65" stroke="white" stroke-width="2" stroke-linecap="round" stroke-linejoin="round"/>
<path d="M873.19 145.175C866.823 132.655 856.146 122.858 843.127 117.588C830.108 112.318 815.622 111.93 802.339 116.496C789.057 121.062 777.871 130.274 770.843 142.435C763.816 154.596 761.419 168.887 764.095 182.675H777.445" stroke="white" stroke-width="2" stroke-linecap="round" stroke-linejoin="round"/>
<path d="M848.545 130.64H840.505V148.04H859.42V215.435" stroke="white" stroke-width="2" stroke-linecap="round" stroke-linejoin="round"/>
<path d="M859.42 179.57H840.94" stroke="white" stroke-width="2" stroke-linecap="round" stroke-linejoin="round"/>
<path d="M801.58 207.5H787" stroke="#7F3F98" stroke-width="2" stroke-linecap="round" stroke-linejoin="round"/>
<path d="M777.445 157.82H764.635" stroke="white" stroke-width="2" stroke-linecap="round" stroke-linejoin="round"/>
<path d="M859.42 208.055H840.94" stroke="white" stroke-width="2" stroke-linecap="round" stroke-linejoin="round"/>
<path d="M845.5 162.38H812.89V181.31" stroke="white" stroke-width="2" stroke-linecap="round" stroke-linejoin="round"/>
<path d="M800.065 117.59V130.865H828.115V191.96H845.5" stroke="white" stroke-width="2" stroke-linecap="round" stroke-linejoin="round"/>
<path d="M831.49 228.5V207.665H814.84V193.775H799.465V147.89H818.11" stroke="white" stroke-width="2" stroke-linecap="round" stroke-linejoin="round"/>
<path d="M787.57 123.98V144.47" stroke="white" stroke-width="2" stroke-linecap="round" stroke-linejoin="round"/>
<path d="M787 155V247.985" stroke="#7F3F98" stroke-width="2" stroke-linecap="round" stroke-linejoin="round"/>
<path d="M787 248L571 248" stroke="#7F3F98" stroke-width="2" stroke-linecap="round" stroke-linejoin="round"/>
<path d="M307.375 245C314.023 245 317.773 240.866 317.773 234.048C317.773 227.273 314.023 223.182 307.673 223.182H300.642V245H307.375ZM303.284 242.656V225.526H307.503C312.616 225.526 315.216 228.764 315.216 234.048C315.216 239.375 312.616 242.656 307.205 242.656H303.284ZM328.724 245.341C332.048 245.341 334.477 243.679 335.244 241.207L332.815 240.526C332.176 242.23 330.695 243.082 328.724 243.082C325.773 243.082 323.739 241.175 323.621 237.67H335.5V236.605C335.5 230.511 331.878 228.423 328.469 228.423C324.037 228.423 321.097 231.918 321.097 236.946C321.097 241.974 323.994 245.341 328.724 245.341ZM323.621 235.497C323.792 232.951 325.592 230.682 328.469 230.682C331.196 230.682 332.943 232.727 332.943 235.497H323.621ZM350.915 232.301C350.127 229.979 348.359 228.423 345.12 228.423C341.668 228.423 339.112 230.384 339.112 233.153C339.112 235.412 340.454 236.925 343.458 237.628L346.185 238.267C347.837 238.651 348.614 239.439 348.614 240.568C348.614 241.974 347.123 243.125 344.779 243.125C342.723 243.125 341.434 242.241 340.987 240.483L338.6 241.08C339.186 243.86 341.477 245.341 344.822 245.341C348.625 245.341 351.214 243.263 351.214 240.44C351.214 238.161 349.786 236.722 346.867 236.009L344.438 235.412C342.499 234.933 341.626 234.283 341.626 233.026C341.626 231.619 343.117 230.597 345.12 230.597C347.315 230.597 348.22 231.811 348.657 232.94L350.915 232.301ZM354.998 245H357.513V228.636H354.998V245ZM356.277 225.909C357.257 225.909 358.067 225.142 358.067 224.205C358.067 223.267 357.257 222.5 356.277 222.5C355.297 222.5 354.487 223.267 354.487 224.205C354.487 225.142 355.297 225.909 356.277 225.909ZM368.723 251.477C372.643 251.477 375.797 249.688 375.797 245.469V228.636H373.368V231.236H373.112C372.558 230.384 371.535 228.423 368.339 228.423C364.206 228.423 361.35 231.705 361.35 236.733C361.35 241.847 364.333 244.744 368.297 244.744C371.493 244.744 372.515 242.869 373.069 241.974H373.282V245.298C373.282 248.026 371.365 249.261 368.723 249.261C365.75 249.261 364.706 247.695 364.035 246.79L362.032 248.196C363.055 249.911 365.069 251.477 368.723 251.477ZM368.637 242.486C365.484 242.486 363.865 240.099 363.865 236.69C363.865 233.366 365.441 230.682 368.637 230.682C371.706 230.682 373.325 233.153 373.325 236.69C373.325 240.312 371.663 242.486 368.637 242.486ZM382.913 235.156C382.913 232.301 384.681 230.682 387.089 230.682C389.422 230.682 390.839 232.205 390.839 234.773V245H393.353V234.602C393.353 230.426 391.127 228.423 387.814 228.423C385.342 228.423 383.808 229.531 383.041 231.193H382.828V228.636H380.399V245H382.913V235.156ZM397.948 245H400.462V228.636H397.948V245ZM399.226 225.909C400.206 225.909 401.016 225.142 401.016 224.205C401.016 223.267 400.206 222.5 399.226 222.5C398.246 222.5 397.436 223.267 397.436 224.205C397.436 225.142 398.246 225.909 399.226 225.909ZM407.581 235.156C407.581 232.301 409.349 230.682 411.757 230.682C414.09 230.682 415.507 232.205 415.507 234.773V245H418.021V234.602C418.021 230.426 415.795 228.423 412.482 228.423C410.01 228.423 408.476 229.531 407.709 231.193H407.496V228.636H405.067V245H407.581V235.156ZM429.221 251.477C433.141 251.477 436.295 249.688 436.295 245.469V228.636H433.866V231.236H433.61C433.056 230.384 432.033 228.423 428.837 228.423C424.704 228.423 421.849 231.705 421.849 236.733C421.849 241.847 424.831 244.744 428.795 244.744C431.991 244.744 433.013 242.869 433.567 241.974H433.78V245.298C433.78 248.026 431.863 249.261 429.221 249.261C426.248 249.261 425.204 247.695 424.533 246.79L422.53 248.196C423.553 249.911 425.567 251.477 429.221 251.477ZM429.135 242.486C425.982 242.486 424.363 240.099 424.363 236.69C424.363 233.366 425.939 230.682 429.135 230.682C432.204 230.682 433.823 233.153 433.823 236.69C433.823 240.312 432.161 242.486 429.135 242.486ZM454.15 245.384C457.005 245.384 458.496 243.849 459.008 242.784H459.135V245H461.65V234.219C461.65 229.02 457.687 228.423 455.599 228.423C453.127 228.423 450.314 229.276 449.036 232.259L451.422 233.111C451.976 231.918 453.287 230.639 455.684 230.639C457.996 230.639 459.135 231.864 459.135 233.963V234.048C459.135 235.263 457.9 235.156 454.917 235.54C451.881 235.934 448.567 236.605 448.567 240.355C448.567 243.551 451.039 245.384 454.15 245.384ZM454.533 243.125C452.53 243.125 451.081 242.23 451.081 240.483C451.081 238.565 452.829 237.969 454.789 237.713C455.854 237.585 458.709 237.287 459.135 236.776V239.077C459.135 241.122 457.516 243.125 454.533 243.125ZM475.017 245H477.446V242.486H477.744C478.298 243.381 479.364 245.341 482.517 245.341C486.608 245.341 489.463 242.06 489.463 236.861C489.463 231.705 486.608 228.423 482.474 228.423C479.278 228.423 478.298 230.384 477.744 231.236H477.531V223.182H475.017V245ZM477.489 236.818C477.489 233.153 479.108 230.682 482.176 230.682C485.372 230.682 486.949 233.366 486.949 236.818C486.949 240.312 485.33 243.082 482.176 243.082C479.151 243.082 477.489 240.526 477.489 236.818ZM500.17 245.341C503.494 245.341 505.923 243.679 506.69 241.207L504.261 240.526C503.621 242.23 502.141 243.082 500.17 243.082C497.219 243.082 495.184 241.175 495.067 237.67H506.945V236.605C506.945 230.511 503.323 228.423 499.914 228.423C495.482 228.423 492.542 231.918 492.542 236.946C492.542 241.974 495.44 245.341 500.17 245.341ZM495.067 235.497C495.237 232.951 497.038 230.682 499.914 230.682C502.641 230.682 504.388 232.727 504.388 235.497H495.067ZM517.886 228.636H514.392V224.716H511.878V228.636H509.406V230.767H511.878V240.994C511.878 243.849 514.179 245.213 516.31 245.213C517.247 245.213 517.844 245.043 518.185 244.915L517.673 242.656C517.46 242.699 517.119 242.784 516.565 242.784C515.457 242.784 514.392 242.443 514.392 240.312V230.767H517.886V228.636ZM528.785 228.636H525.29V224.716H522.776V228.636H520.305V230.767H522.776V240.994C522.776 243.849 525.077 245.213 527.208 245.213C528.146 245.213 528.742 245.043 529.083 244.915L528.572 242.656C528.359 242.699 528.018 242.784 527.464 242.784C526.356 242.784 525.29 242.443 525.29 240.312V230.767H528.785V228.636ZM539.252 245.341C542.576 245.341 545.005 243.679 545.772 241.207L543.343 240.526C542.703 242.23 541.223 243.082 539.252 243.082C536.301 243.082 534.266 241.175 534.149 237.67H546.027V236.605C546.027 230.511 542.405 228.423 538.996 228.423C534.564 228.423 531.624 231.918 531.624 236.946C531.624 241.974 534.522 245.341 539.252 245.341ZM534.149 235.497C534.319 232.951 536.12 230.682 538.996 230.682C541.723 230.682 543.471 232.727 543.471 235.497H534.149ZM549.852 245H552.366V234.645C552.366 232.429 554.113 230.81 556.5 230.81C557.171 230.81 557.863 230.938 558.034 230.98V228.423C557.746 228.402 557.086 228.381 556.713 228.381C554.752 228.381 553.048 229.489 552.451 231.108H552.281V228.636H549.852V245ZM655.981 245.17C657.036 245.17 657.899 244.308 657.899 243.253C657.899 242.198 657.036 241.335 655.981 241.335C654.926 241.335 654.064 242.198 654.064 243.253C654.064 244.308 654.926 245.17 655.981 245.17Z" fill="white"/>
<path d="M576.738 228.636H573.074V226.974C573.074 225.355 573.756 224.503 575.417 224.503C576.142 224.503 576.568 224.673 576.824 224.759L577.548 222.585C577.165 222.415 576.398 222.159 575.162 222.159C572.818 222.159 570.559 223.565 570.559 226.378V228.636H567.917V230.767H570.559V245H573.074V230.767H576.738V228.636ZM590.575 238.31C590.575 241.378 588.231 242.784 586.356 242.784C584.268 242.784 582.776 241.25 582.776 238.864V228.636H580.262V239.034C580.262 243.21 582.478 245.213 585.546 245.213C588.018 245.213 589.637 243.892 590.404 242.23H590.575V245H593.089V228.636H590.575V238.31ZM604.81 228.636H601.316V224.716H598.802V228.636H596.33V230.767H598.802V240.994C598.802 243.849 601.103 245.213 603.233 245.213C604.171 245.213 604.768 245.043 605.108 244.915L604.597 242.656C604.384 242.699 604.043 242.784 603.489 242.784C602.381 242.784 601.316 242.443 601.316 240.312V230.767H604.81V228.636ZM618.905 238.31C618.905 241.378 616.561 242.784 614.686 242.784C612.598 242.784 611.106 241.25 611.106 238.864V228.636H608.592V239.034C608.592 243.21 610.808 245.213 613.876 245.213C616.348 245.213 617.967 243.892 618.734 242.23H618.905V245H621.419V228.636H618.905V238.31ZM626.024 245H628.538V234.645C628.538 232.429 630.285 230.81 632.672 230.81C633.343 230.81 634.035 230.938 634.206 230.98V228.423C633.918 228.402 633.257 228.381 632.885 228.381C630.924 228.381 629.22 229.489 628.623 231.108H628.453V228.636H626.024V245ZM643.549 245.341C646.873 245.341 649.301 243.679 650.069 241.207L647.64 240.526C647 242.23 645.52 243.082 643.549 243.082C640.598 243.082 638.563 241.175 638.446 237.67H650.324V236.605C650.324 230.511 646.702 228.423 643.293 228.423C638.861 228.423 635.921 231.918 635.921 236.946C635.921 241.974 638.819 245.341 643.549 245.341ZM638.446 235.497C638.616 232.951 640.417 230.682 643.293 230.682C646.02 230.682 647.767 232.727 647.767 235.497H638.446Z" fill="#7F3F98"/>
<path d="M85.2841 129.182H82.642V151H85.2841V129.182ZM92.7548 141.156C92.7548 138.301 94.5233 136.682 96.9309 136.682C99.264 136.682 100.681 138.205 100.681 140.773V151H103.195V140.602C103.195 136.426 100.969 134.423 97.6554 134.423C95.1838 134.423 93.6497 135.531 92.8826 137.193H92.6696V134.636H90.2406V151H92.7548V141.156ZM116.227 157.136H118.741V148.486H118.954C119.508 149.381 120.574 151.341 123.727 151.341C127.818 151.341 130.673 148.06 130.673 142.861C130.673 137.705 127.818 134.423 123.684 134.423C120.488 134.423 119.508 136.384 118.954 137.236H118.656V134.636H116.227V157.136ZM118.699 142.818C118.699 139.153 120.318 136.682 123.386 136.682C126.582 136.682 128.159 139.366 128.159 142.818C128.159 146.312 126.539 149.082 123.386 149.082C120.36 149.082 118.699 146.526 118.699 142.818ZM144.821 144.31C144.821 147.378 142.477 148.784 140.602 148.784C138.514 148.784 137.022 147.25 137.022 144.864V134.636H134.508V145.034C134.508 149.21 136.724 151.213 139.792 151.213C142.264 151.213 143.883 149.892 144.65 148.23H144.821V151H147.335V134.636H144.821V144.31ZM151.94 151H154.454V140.645C154.454 138.429 156.201 136.81 158.588 136.81C159.259 136.81 159.951 136.938 160.122 136.98V134.423C159.834 134.402 159.173 134.381 158.801 134.381C156.84 134.381 155.136 135.489 154.539 137.108H154.369V134.636H151.94V151ZM174.693 138.301C173.904 135.979 172.136 134.423 168.897 134.423C165.446 134.423 162.889 136.384 162.889 139.153C162.889 141.412 164.231 142.925 167.235 143.628L169.963 144.267C171.614 144.651 172.392 145.439 172.392 146.568C172.392 147.974 170.9 149.125 168.556 149.125C166.5 149.125 165.211 148.241 164.764 146.483L162.377 147.08C162.963 149.86 165.254 151.341 168.599 151.341C172.402 151.341 174.991 149.263 174.991 146.44C174.991 144.161 173.564 142.722 170.645 142.009L168.216 141.412C166.277 140.933 165.403 140.283 165.403 139.026C165.403 137.619 166.895 136.597 168.897 136.597C171.092 136.597 171.998 137.811 172.434 138.94L174.693 138.301ZM189.088 144.31C189.088 147.378 186.744 148.784 184.869 148.784C182.781 148.784 181.29 147.25 181.29 144.864V134.636H178.776V145.034C178.776 149.21 180.992 151.213 184.06 151.213C186.531 151.213 188.151 149.892 188.918 148.23H189.088V151H191.602V134.636H189.088V144.31ZM196.207 151H198.722V134.636H196.207V151ZM197.486 131.909C198.466 131.909 199.276 131.142 199.276 130.205C199.276 129.267 198.466 128.5 197.486 128.5C196.506 128.5 195.696 129.267 195.696 130.205C195.696 131.142 196.506 131.909 197.486 131.909ZM210.443 134.636H206.949V130.716H204.434V134.636H201.963V136.767H204.434V146.994C204.434 149.849 206.736 151.213 208.866 151.213C209.804 151.213 210.4 151.043 210.741 150.915L210.23 148.656C210.017 148.699 209.676 148.784 209.122 148.784C208.014 148.784 206.949 148.443 206.949 146.312V136.767H210.443V134.636ZM229.31 151.341C233.742 151.341 236.725 147.974 236.725 142.903C236.725 137.79 233.742 134.423 229.31 134.423C224.878 134.423 221.895 137.79 221.895 142.903C221.895 147.974 224.878 151.341 229.31 151.341ZM229.31 149.082C225.944 149.082 224.41 146.185 224.41 142.903C224.41 139.622 225.944 136.682 229.31 136.682C232.677 136.682 234.211 139.622 234.211 142.903C234.211 146.185 232.677 149.082 229.31 149.082ZM247.85 134.636H244.185V132.974C244.185 131.355 244.867 130.503 246.529 130.503C247.253 130.503 247.679 130.673 247.935 130.759L248.659 128.585C248.276 128.415 247.509 128.159 246.273 128.159C243.929 128.159 241.671 129.565 241.671 132.378V134.636H239.029V136.767H241.671V151H244.185V136.767H247.85V134.636ZM382.581 151.17C383.635 151.17 384.498 150.308 384.498 149.253C384.498 148.198 383.635 147.335 382.581 147.335C381.526 147.335 380.663 148.198 380.663 149.253C380.663 150.308 381.526 151.17 382.581 151.17Z" fill="white"/>
<path d="M259.811 151H262.325V140.773C262.325 138.376 264.072 136.682 266.032 136.682C267.939 136.682 269.271 137.928 269.271 139.793V151H271.828V140.347C271.828 138.237 273.149 136.682 275.45 136.682C277.24 136.682 278.774 137.63 278.774 140.048V151H281.288V140.048C281.288 136.202 279.221 134.423 276.302 134.423C273.959 134.423 272.243 135.499 271.402 137.193H271.231C270.422 135.446 268.994 134.423 266.842 134.423C264.711 134.423 263.135 135.446 262.453 137.193H262.24V134.636H259.811V151ZM292.746 151.341C296.07 151.341 298.499 149.679 299.266 147.207L296.837 146.526C296.198 148.23 294.717 149.082 292.746 149.082C289.795 149.082 287.76 147.175 287.643 143.67H299.521V142.605C299.521 136.511 295.899 134.423 292.49 134.423C288.058 134.423 285.118 137.918 285.118 142.946C285.118 147.974 288.016 151.341 292.746 151.341ZM287.643 141.497C287.813 138.951 289.614 136.682 292.49 136.682C295.218 136.682 296.965 138.727 296.965 141.497H287.643ZM308.161 151.384C311.017 151.384 312.508 149.849 313.019 148.784H313.147V151H315.661V140.219C315.661 135.02 311.698 134.423 309.61 134.423C307.139 134.423 304.326 135.276 303.048 138.259L305.434 139.111C305.988 137.918 307.298 136.639 309.695 136.639C312.007 136.639 313.147 137.864 313.147 139.963V140.048C313.147 141.263 311.911 141.156 308.928 141.54C305.892 141.934 302.579 142.605 302.579 146.355C302.579 149.551 305.051 151.384 308.161 151.384ZM308.545 149.125C306.542 149.125 305.093 148.23 305.093 146.483C305.093 144.565 306.84 143.969 308.801 143.713C309.866 143.585 312.721 143.287 313.147 142.776V145.077C313.147 147.122 311.528 149.125 308.545 149.125ZM322.765 141.156C322.765 138.301 324.533 136.682 326.941 136.682C329.274 136.682 330.691 138.205 330.691 140.773V151H333.205V140.602C333.205 136.426 330.978 134.423 327.665 134.423C325.194 134.423 323.659 135.531 322.892 137.193H322.679V134.636H320.25V151H322.765V141.156ZM337.799 151H340.313V134.636H337.799V151ZM339.078 131.909C340.058 131.909 340.867 131.142 340.867 130.205C340.867 129.267 340.058 128.5 339.078 128.5C338.097 128.5 337.288 129.267 337.288 130.205C337.288 131.142 338.097 131.909 339.078 131.909ZM347.433 141.156C347.433 138.301 349.201 136.682 351.609 136.682C353.942 136.682 355.359 138.205 355.359 140.773V151H357.873V140.602C357.873 136.426 355.646 134.423 352.333 134.423C349.862 134.423 348.327 135.531 347.56 137.193H347.347V134.636H344.918V151H347.433V141.156ZM369.072 157.477C372.993 157.477 376.146 155.688 376.146 151.469V134.636H373.717V137.236H373.461C372.907 136.384 371.885 134.423 368.689 134.423C364.555 134.423 361.7 137.705 361.7 142.733C361.7 147.847 364.683 150.744 368.646 150.744C371.842 150.744 372.865 148.869 373.419 147.974H373.632V151.298C373.632 154.026 371.714 155.261 369.072 155.261C366.1 155.261 365.056 153.695 364.385 152.79L362.382 154.196C363.405 155.911 365.418 157.477 369.072 157.477ZM368.987 148.486C365.834 148.486 364.214 146.099 364.214 142.69C364.214 139.366 365.791 136.682 368.987 136.682C372.055 136.682 373.675 139.153 373.675 142.69C373.675 146.312 372.013 148.486 368.987 148.486Z" fill="#7F3F98"/>
<path d="M497.551 112.111C498.406 110.565 498.682 108.768 498.331 107.039C497.521 102.563 494.554 98.6844 494.479 94.2684C495.183 92.9209 496.301 91.8334 497.671 91.1654C499.339 90.5163 500.836 89.4957 502.047 88.1816C508.76 80.1107 502.541 68.683 503.336 59.5677C503.785 54.3611 505.284 48.6174 502.107 43.918C501.333 42.7611 500.255 41.8375 498.99 41.2476C499.14 39.8601 499.305 38.4727 499.455 37.0853C499.544 36.3095 499.679 35.4591 499.724 34.6088C499.82 34.6922 499.933 34.7537 500.056 34.7888C500.178 34.8238 500.307 34.8317 500.433 34.8118C500.559 34.7918 500.678 34.7446 500.784 34.6734C500.889 34.6023 500.978 34.5089 501.043 34.3999C501.933 32.8973 502.231 31.1194 501.879 29.4106C501.528 27.7017 500.551 26.1836 499.14 25.1504C497.356 24.0453 495.437 23.1728 493.43 22.5545C490.612 21.2285 487.651 20.2275 484.604 19.5708C482.545 19.2147 480.425 19.584 478.61 20.6151C475.793 22.2412 473.86 23.7778 470.443 24.1956C466.757 24.6431 462.815 24.8222 460.658 28.1043C457.184 29.2889 454.295 31.7488 452.58 34.9817C452.476 35.1906 452.386 35.3995 452.281 35.6083C452.078 35.7039 451.883 35.8136 451.696 35.9365C450.96 36.459 450.415 37.2066 450.145 38.0656C449.874 38.9247 449.893 39.8481 450.198 40.6956L450.078 40.979C448.786 43.7606 446.94 46.2524 444.653 48.3041C441.446 51.4072 438.974 54.4804 438.135 58.6129C436.501 66.654 440.083 74.6355 439.498 82.6916C439.109 88.1667 436.262 92.2693 431.017 95.4321C427.031 97.834 422.46 99.6242 419.028 102.653C410.712 109.993 413.709 120.555 415.027 129.596C415.954 135.32 415.518 141.181 413.754 146.708C412.135 151.601 409.258 157.151 402.814 158.359C401.72 158.568 402.185 159.985 403.279 159.851C417.125 157.24 418.264 138.86 416.871 129.566C415.807 122.196 413.229 113.827 417.77 106.875C421.486 101.191 429.308 99.2065 434.823 95.1039C445.193 87.3909 440.532 75.456 439.873 65.3859C439.589 62.5959 439.859 59.7776 440.667 57.0912C441.866 53.5853 444.593 51.1237 447.321 48.4682C448.815 47 450.092 45.3272 451.112 43.5003C451.247 43.8434 451.382 44.1866 451.487 44.5297C451.977 46.1315 451.86 47.8569 451.157 49.3782C450.158 49.7021 449.228 50.208 448.415 50.8701C447.285 51.8134 446.426 53.0379 445.926 54.4189C445.426 55.7999 445.302 57.2882 445.567 58.7322C444.412 59.4826 443.535 60.5885 443.069 61.8813C442.604 63.1742 442.576 64.5831 442.99 65.8932C443.994 69.6825 447.995 72.1739 449.419 75.7693C451.127 80.0659 445.507 83.706 447.65 87.8683C448.007 88.5279 448.439 89.1437 448.939 89.7033C447.57 92.1699 447.084 95.0264 447.56 97.8042C448.08 99.9136 449.28 101.795 450.977 103.16C450.926 107.698 451.723 112.205 453.33 116.452C454.168 118.457 455.51 120.214 457.226 121.555C457.326 122.376 457.603 123.166 458.037 123.872C458.471 124.577 459.053 125.181 459.743 125.642C462.606 127.537 466.532 126.582 469.184 124.807C469.484 124.926 469.769 125.046 470.068 125.195C472.616 126.508 474.729 128.417 477.171 129.864C479.614 131.311 485.998 134.519 490.658 134.832C491.288 135.508 492.066 136.029 492.932 136.355C493.797 136.681 494.727 136.804 495.648 136.712C499.455 136.264 500.863 132.057 501.762 128.939C503.261 123.971 503.141 119.988 500.054 115.677C499.2 114.364 498.346 113.23 497.551 112.111ZM496.592 110.724C494.388 107.761 493.186 104.177 493.161 100.49C493.167 99.4292 493.262 98.3712 493.445 97.3268C494.764 101.817 498.001 106.487 496.592 110.724ZM492.966 93.4032C492.953 93.6616 492.953 93.9205 492.966 94.1789C492.212 96.1939 491.816 98.3244 491.797 100.475C491.733 104.789 493.144 108.998 495.798 112.41L495.723 112.544C494.434 114.379 492.322 115.751 491.228 117.721C490.076 116.263 488.809 114.901 487.436 113.648C487.661 113.066 487.871 112.499 488.036 111.917C489.88 105.256 489.942 98.2306 488.216 91.5383C487.942 90.5699 487.586 89.6266 487.152 88.7187C489.077 87.3845 490.567 85.5172 491.437 83.348C493.131 78.216 488.44 74.3968 485.833 70.2047C485.035 68.402 484.485 66.5 484.2 64.5505C484.41 63.3067 484.925 62.1335 485.698 61.1341C486.163 60.4763 486.663 59.8439 487.197 59.2395C487.706 59.2395 488.126 59.6124 489.085 60.2092C491.183 61.5071 491.168 62.268 490.703 64.5057C490.32 65.8064 490.005 67.126 489.759 68.4592C489.63 69.2482 489.672 70.0555 489.881 70.8273C490.091 71.599 490.463 72.3175 490.973 72.9348C491.372 73.3564 491.886 73.6531 492.452 73.7887C493.018 73.9242 493.611 73.8928 494.16 73.6982C494.708 73.5036 495.188 73.1542 495.54 72.6928C495.892 72.2314 496.101 71.6778 496.143 71.0998C496.147 71.0449 496.14 70.9898 496.123 70.9375C496.105 70.8853 496.078 70.837 496.041 70.7954C496.005 70.7538 495.961 70.7197 495.912 70.6952C495.862 70.6706 495.808 70.656 495.753 70.6522C495.98 70.2809 496.175 69.8917 496.338 69.4886C496.739 70.4179 497.055 71.3816 497.282 72.3679C498.185 76.2849 497.904 80.3807 496.472 84.1387C495.274 87.2567 493.281 90.1061 492.966 93.4032ZM485.593 117.169C486.094 116.431 486.54 115.658 486.927 114.856C488.221 115.999 489.391 117.274 490.418 118.66C490.523 118.81 490.628 118.974 490.718 119.138C490.501 120.843 490.894 122.57 491.827 124.016C491.684 124.56 491.429 125.068 491.078 125.508C490.702 125.996 490.233 126.407 489.699 126.717C489.819 125.463 490.014 124.195 490.074 122.897C490.194 119.615 488.111 118.287 485.578 117.183L485.593 117.169ZM496.083 62.4768C496.083 63.0736 496.083 63.6703 496.083 64.267C494.464 61.5668 492.546 58.8068 492.307 55.7187C492.067 52.6305 493.371 49.7512 493.805 46.6929C493.985 45.6038 494.15 44.3656 494.225 43.0826C494.449 42.6798 494.659 42.277 494.869 41.8592C495.079 41.4415 495.079 41.4266 495.169 41.2028C495.961 41.318 496.743 41.4976 497.506 41.7399L495.259 61.9397C495.199 62.3873 495.678 62.5663 496.068 62.4917L496.083 62.4768ZM495.079 71.1296L491.512 71.607L490.958 69.4587C490.98 68.5482 491.127 67.6449 491.392 66.7734C491.632 65.7589 492.007 64.7743 492.142 63.7897C492.229 63.0962 492.229 62.3945 492.142 61.701C493.206 63.7897 494.509 65.8186 495.573 67.9221C495.292 68.9568 495.112 70.0159 495.034 71.0849C495.036 71.1054 495.041 71.1256 495.049 71.1445L495.079 71.1296ZM487.586 74.8145C489.085 76.7987 490.583 78.9172 490.583 81.3489C490.583 83.7806 488.8 85.8245 486.672 87.5998C485.382 85.3024 483.545 83.3557 481.322 81.9307L481.577 81.707C483.45 80.2151 486.178 79.2752 487.257 77.2314C487.606 76.4818 487.716 75.6433 487.571 74.8295L487.586 74.8145ZM481.712 108.725C482.84 108.084 483.733 107.102 484.259 105.92C484.52 105.259 484.638 104.55 484.604 103.84C484.57 103.131 484.387 102.436 484.065 101.802C482.881 99.0872 480.858 96.7897 479.479 94.164C480.406 93.3945 481.371 92.6725 482.371 92.0008C483.345 91.3444 484.364 90.6731 485.368 89.9719C486.4 92.5646 486.973 95.3154 487.062 98.1025C487.483 102.788 487.067 107.511 485.833 112.051L485.593 111.977C484.095 110.664 482.731 109.545 481.712 108.725ZM485.233 113.454C484.889 114.291 484.478 115.099 484.005 115.871C483.9 116.05 483.75 116.214 483.63 116.378L483.076 116.139C481.577 115.453 479.989 114.722 478.46 113.976C479.266 113.308 480.224 112.844 481.249 112.626C482.275 112.408 483.339 112.441 484.349 112.723L485.233 113.454ZM464.419 85.9886V85.8842C464.074 84.8995 463.805 83.9149 463.55 82.9004C464.94 83.078 466.351 82.9765 467.701 82.6021C469.199 82.2589 470.413 81.9307 471.687 81.7219C471.718 82.129 471.718 82.538 471.687 82.9452C470.293 83.6165 468.959 84.2133 467.821 84.7205C466.682 85.2277 465.603 85.5858 464.419 85.9886ZM464.779 88.6889L463.445 88.2413L462.606 87.9429L464.104 87.3611L464.779 88.6889ZM461.781 78.4696C461.871 79.136 461.971 79.7974 462.081 80.4538C461.402 80.0311 460.824 79.4659 460.388 78.7978L461.781 78.4696ZM459.728 77.5596C459.422 76.8047 459.255 76.0013 459.234 75.1875C459.232 73.3409 459.94 71.5636 461.212 70.2196C461.212 72.5469 461.362 74.8742 461.602 77.1866L459.728 77.5596ZM462.066 55.8977C462.066 55.6142 461.961 55.3159 461.886 55.0324C463.115 55.7336 464.389 56.4198 465.528 57.1061C468.6 58.9709 472.271 60.2539 476.018 59.0008C476.689 58.8536 477.321 58.5634 477.87 58.15C478.418 57.7366 478.871 57.2099 479.195 56.606C479.52 56.0022 479.709 55.3355 479.751 54.6518C479.792 53.9681 479.684 53.2836 479.434 52.6454C479.105 51.6011 478.655 50.6165 478.325 49.6617L479.254 50.0794C481.757 51.1685 482.012 51.437 481.412 53.7494C480.948 54.9486 480.227 56.0329 479.299 56.9271C478.3 57.9126 477.188 58.7787 475.988 59.508C473.882 60.7561 471.711 61.8915 469.484 62.9095C468.355 62.7105 467.221 62.5415 466.082 62.4022C466.082 62.2829 466.082 62.1635 466.082 62.0442C466.253 61.3742 466.282 60.6761 466.167 59.9944C466.051 59.3128 465.794 58.6626 465.412 58.0855C465.03 57.5084 464.531 57.017 463.947 56.6429C463.363 56.2687 462.707 56.02 462.021 55.9126L462.066 55.8977ZM470.773 64.1925C472.859 64.5508 474.902 65.1207 476.872 65.8932C479.869 67.1463 480.408 69.9511 478.13 72.0993C476.618 73.2553 474.86 74.0514 472.99 74.4266L470.878 74.9936C469.589 73.5017 468.045 72.2336 466.846 70.7119C465.919 69.6667 465.389 68.3313 465.348 66.9375C467.094 65.9376 468.889 65.0264 470.728 64.2074L470.773 64.1925ZM465.588 64.8787C465.678 64.4461 465.768 63.9985 465.858 63.536L467.776 63.7449C466.996 64.1179 466.262 64.5058 465.543 64.8936L465.588 64.8787ZM462.231 57.8222C464.254 58.8068 464.254 60.4031 463.864 62.0889L462.231 62.0143C462.231 60.6866 462.321 59.3141 462.231 57.8222ZM462.231 63.2824H463.595C463.46 63.7449 463.34 64.1925 463.25 64.64C463.141 65.1801 463.091 65.7303 463.1 66.2811L462.186 66.9226C462.186 66.3358 462.186 65.7539 462.186 65.1771C462.126 64.6699 462.141 64.0134 462.231 63.3421V63.2824ZM463.4 68.2056C464.254 71.0103 466.817 73.0243 468.885 75.4411C466.936 75.9036 464.988 76.3512 463.055 76.8435L462.591 76.9479C462.336 74.367 462.246 71.786 462.216 69.1902C462.531 68.9067 462.92 68.5785 463.34 68.2652L463.4 68.2056ZM469.664 76.4108C470.287 77.237 470.792 78.1459 471.162 79.1111C471.252 79.3498 471.297 79.5885 471.372 79.8272C470.398 79.9913 469.409 80.23 468.375 80.4985C466.707 81.1318 464.891 81.2717 463.145 80.9013C462.975 80.0062 462.83 79.1012 462.711 78.1861L469.664 76.4108ZM476.932 87.391C476.706 89.6108 477.095 91.8498 478.056 93.8657C476.671 95.0364 475.543 96.4787 474.744 98.1025C475.223 95.2083 472.541 92.1351 469.499 90.509C470.853 89.4327 471.953 88.0727 472.721 86.5257C473.218 85.4634 473.522 84.3219 473.62 83.1541C474.429 82.7214 475.223 82.2589 476.018 81.7815C476.791 81.9437 477.545 82.1889 478.265 82.5126L478.85 82.796C477.742 84.1184 477.054 85.7384 476.872 87.4506L476.932 87.391ZM479.929 83.2883C482.106 84.6049 483.859 86.5153 484.979 88.7933C483.855 89.584 482.686 90.2852 481.652 91.0311C480.618 91.777 479.914 92.2693 479.045 92.9705C478.873 92.5711 478.723 92.1627 478.595 91.7472C478.116 90.3471 477.983 88.8528 478.208 87.3907C478.432 85.9286 479.007 84.5419 479.884 83.348L479.929 83.2883ZM467.221 92.329C467.626 91.971 468.06 91.6428 468.525 91.2996L468.84 91.4339C470.512 92.1932 471.88 93.4913 472.721 95.1188C473.26 96.193 474.219 99.8331 471.956 99.4751C470.788 99.2811 469.484 98.0727 468.165 97.6848C468.252 95.867 467.913 94.0541 467.176 92.3887L467.221 92.329ZM467.821 85.9289C468.944 85.4366 470.143 84.8995 471.342 84.3177C470.698 86.3303 469.467 88.1064 467.806 89.4199L467.596 89.5989C466.981 89.3602 466.352 89.1514 465.738 88.9425C465.448 88.3159 465.173 87.6843 464.913 87.0478C465.932 86.7196 466.936 86.3466 467.776 85.9886L467.821 85.9289ZM467.476 97.461C466.538 97.2789 465.584 97.1989 464.629 97.2223C464.712 95.9899 465.132 94.8036 465.843 93.7911C466.09 93.4502 466.365 93.1308 466.667 92.8363C467.238 94.3299 467.498 95.9238 467.431 97.5207L467.476 97.461ZM467.985 98.7888C469.475 99.2163 470.835 100.006 471.942 101.086C472.08 101.196 472.251 101.256 472.429 101.256C472.606 101.256 472.777 101.196 472.916 101.086C473.503 100.606 473.987 100.012 474.339 99.3408C474.053 100.539 474.153 101.797 474.624 102.936C475.789 105.114 477.446 106.993 479.464 108.426C478.469 108.72 477.427 108.827 476.392 108.74C472.571 108.337 470.923 106.039 468.495 103.891C467.803 103.217 466.969 102.708 466.052 102.399C466.397 101.922 466.727 101.429 467.026 100.907C467.427 100.268 467.735 99.5743 467.94 98.8485L467.985 98.7888ZM475.778 99.8033C476.166 97.9477 477.156 96.2705 478.595 95.0293C479.533 96.8183 480.573 98.5517 481.712 100.221C482.941 102.071 483.825 103.966 482.791 106.188C482.371 106.975 481.709 107.608 480.903 107.994C478.265 105.651 475.238 103.264 475.718 99.8629L475.778 99.8033ZM482.386 79.8421C481.669 80.2931 480.983 80.7915 480.333 81.334C479.625 80.9603 478.888 80.6411 478.13 80.3792C479.657 79.3259 481.038 78.0769 482.236 76.6644C483.617 74.8708 484.293 72.638 484.14 70.3837C484.14 70.2494 484.14 70.1002 484.14 69.966C484.688 70.9291 485.299 71.856 485.968 72.7408C486.172 73.1396 486.29 73.5768 486.312 74.0238C486.342 77.0672 484.709 78.3353 482.341 79.9018L482.386 79.8421ZM483.016 62.0143C482.723 63.0777 482.602 64.1804 482.656 65.2815C482.656 65.4904 482.656 65.6843 482.656 65.8932C482.891 67.8732 482.981 69.8676 482.926 71.8606C482.596 75.1278 479.929 77.8281 476.782 79.9167H476.647C475.603 79.6625 474.53 79.5471 473.455 79.5736C473.088 78.2191 472.462 76.9477 471.612 75.829C476.227 74.5012 483.6 71.6369 480.318 66.669C478.82 64.4461 475.058 63.8941 472.361 63.3421C473.826 62.689 475.256 61.962 476.647 61.164C480.648 58.7621 485.908 53.9732 483.151 49.423C482.602 48.5483 481.827 47.8371 480.906 47.3644C479.986 46.8918 478.954 46.6753 477.921 46.7376C478.04 46.0153 478.328 45.3307 478.76 44.7385C479.865 43.4266 481.078 42.2089 482.386 41.0984C484.454 42.0084 486.882 42.4411 488.56 44.0821C489.392 44.8311 490.078 45.7263 490.583 46.7227C489.28 48.3489 487.901 49.9601 486.747 51.6011C484.503 54.6635 483.192 58.3045 482.971 62.0889L483.016 62.0143ZM472.691 37.1897C472.776 36.1562 473.045 35.146 473.485 34.206C474.471 34.3095 475.422 34.6311 476.267 35.1473C477.112 35.6636 477.831 36.3614 478.37 37.1897C478.856 38.018 479.386 38.8198 479.959 39.5916C480.35 40.0062 480.799 40.3629 481.292 40.6508C479.671 42.0462 478.262 43.6695 477.111 45.4696C476.858 45.9876 476.711 46.5504 476.677 47.1255C475.679 47.4757 474.765 48.0295 473.995 48.7517C473.995 48.4831 473.994 48.2146 474.069 47.961C474.219 44.3954 472.346 40.8597 472.646 37.2494L472.691 37.1897ZM470.443 37.0554C470.35 37.7025 470.315 38.3565 470.338 39.0098C469.619 38.3384 468.84 37.6969 468.06 36.9958C467.773 36.7346 467.503 36.4556 467.251 36.1603C468.368 35.262 469.683 34.6385 471.087 34.3402H471.237C470.837 35.2299 470.555 36.1678 470.398 37.13L470.443 37.0554ZM471.147 47.8864C470.967 49.975 471.042 49.7214 468.225 50.0794C465.408 50.4375 465.228 50.2137 464.479 47.961C464.151 46.9386 463.911 45.8906 463.76 44.8281C464.179 44.3805 464.614 43.9478 465.078 43.5301C466.682 41.8294 468.615 41.8592 470.863 43.5301V43.9031C471.079 45.2392 471.154 46.5943 471.087 47.9461L471.147 47.8864ZM469.379 33.0722C468.311 33.4194 467.302 33.9222 466.382 34.564C466.667 32.0726 469.484 30.8642 472.376 31.1924C472.665 31.2308 472.95 31.2906 473.23 31.3714C472.831 31.7429 472.47 32.1526 472.151 32.5948C471.193 32.6516 470.246 32.8321 469.334 33.1318L469.379 33.0722ZM483.21 36.5333C483.228 36.7767 483.228 37.0209 483.21 37.2643L482.836 37.1002C482.239 36.3693 481.736 35.5675 481.337 34.7132C481.93 35.3515 482.555 35.959 483.21 36.5333V36.5333ZM480.633 32.4605C480.348 32.1174 480.049 31.7444 479.794 31.3267C480.517 31.605 481.164 32.0497 481.682 32.6246C481.322 32.5649 480.978 32.4605 480.633 32.4605ZM490.973 33.3705C490.973 33.5197 490.853 33.654 490.793 33.8032C490.463 33.5645 490.119 33.3258 489.759 33.102C490.289 32.9429 490.788 32.7589 491.258 32.55L490.973 33.3705ZM491.902 39.4723C491.15 39.317 490.409 39.1127 489.684 38.8606L488.92 38.5622C489.677 38.0095 490.318 37.3153 490.808 36.5184L490.913 36.6377C491.458 37.4831 491.796 38.4436 491.902 39.4424V39.4723ZM489.924 35.6083C489.834 35.7575 489.774 35.9067 489.684 36.0559C489.476 36.4939 489.182 36.8859 488.819 37.2088C488.456 37.5316 488.032 37.7788 487.571 37.9356C486.522 37.4026 485.52 36.7839 484.574 36.0857C484.525 35.3558 484.369 34.637 484.11 33.9524C484.967 33.9409 485.823 33.8762 486.672 33.7584C487.83 34.2231 488.923 34.8349 489.924 35.5785V35.6083ZM486.208 39.5319C486.688 39.4834 487.161 39.3782 487.616 39.2186C488.971 39.8549 490.387 40.3547 491.842 40.7105H492.052C492.052 41.3371 492.052 41.9637 492.052 42.5306C492.038 43.4254 491.958 44.3179 491.812 45.201L491.557 45.5441C490.994 44.5354 490.264 43.6277 489.399 42.8588C488.015 41.7733 486.44 40.9537 484.754 40.442C484.304 40.2779 483.915 40.0988 483.54 39.9049C483.675 39.705 483.795 39.4956 483.9 39.2783C484.636 39.5516 485.429 39.6387 486.208 39.5319ZM492.007 34.758L491.842 34.6237C492.337 33.5645 492.771 32.4903 493.251 31.64C493.301 31.5153 493.311 31.3778 493.279 31.2471C493.247 31.1164 493.175 30.999 493.072 30.9116C492.969 30.8241 492.842 30.7711 492.707 30.7599C492.572 30.7487 492.437 30.78 492.322 30.8493C491.033 31.4615 489.681 31.9317 488.291 32.2516C486.201 31.1553 484.026 30.2274 481.787 29.4768C483.776 29.2402 485.778 29.1206 487.781 29.1187C488.68 29.1187 489.924 29.1187 491.198 29.1187C491.503 29.2637 491.798 29.4282 492.082 29.611C493.285 30.5335 494.212 31.7664 494.761 33.1761C495.311 34.5857 495.462 36.1183 495.199 37.6074C495.107 38.4154 494.926 39.2109 494.659 39.9795L494.165 39.89C494.048 37.9774 493.27 36.164 491.962 34.758H492.007ZM491.018 47.9162C491.081 48.1318 491.131 48.351 491.168 48.5726C490.868 49.8556 490.583 51.1237 490.373 52.4216C489.083 54.5583 487.577 56.5579 485.878 58.3891C485.321 58.6731 484.815 59.046 484.379 59.4931C485.353 55.107 488.231 51.5862 490.988 47.9311L491.018 47.9162ZM490.239 55.8828C490.366 56.9379 490.617 57.9744 490.988 58.9709C490.33 58.2693 489.419 57.8562 488.455 57.8222C489.055 57.2105 489.654 56.569 490.194 55.8977L490.239 55.8828ZM495.633 40.1436C496.802 36.578 496.592 32.3113 493.58 29.5364L493.341 29.3425C494.369 29.4191 495.365 29.736 496.248 30.2675C497.473 31.4542 498.219 33.0462 498.346 34.743C498.341 35.7456 498.235 36.7451 498.031 37.7268L497.701 40.7105C497.008 40.4858 496.303 40.3015 495.588 40.1585L495.633 40.1436ZM491.557 28.1192C488.725 26.6273 485.728 27.2688 482.716 28.2385C481.532 28.3579 480.363 28.4921 479.194 28.6712L478.655 28.5071C478.517 27.6912 478.682 26.8532 479.119 26.1499C480.108 24.658 482.281 24.1806 483.975 24.1508C487.889 24.2777 491.62 25.8274 494.464 28.5071C493.49 28.3195 492.503 28.1949 491.512 28.1341L491.557 28.1192ZM479.419 33.4451C480.588 35.0414 481.277 37.2792 482.776 38.5622C482.669 38.788 482.549 39.0072 482.416 39.2186C481.601 38.6858 480.91 37.9835 480.393 37.1599C479.938 36.3002 479.379 35.4987 478.73 34.7729C477.546 33.6727 476.049 32.964 474.444 32.7439C474.674 32.4808 474.93 32.2409 475.208 32.0279C476.544 32.6583 477.947 33.1386 479.389 33.46L479.419 33.4451ZM473.425 29.8646C473.319 29.8858 473.22 29.9361 473.141 30.0099C473.061 30.0837 473.004 30.178 472.976 30.2824C471.294 29.8715 469.522 30.029 467.94 30.7299C467.021 31.2064 466.28 31.9649 465.828 32.8931C465.828 31.3118 466.862 29.9094 469.559 29.1038C470.482 28.8355 471.451 28.7543 472.406 28.8651L473.425 29.059C473.898 29.1828 474.36 29.3475 474.804 29.5514L473.425 29.8646ZM466.352 37.0405C467.877 38.1966 469.274 39.512 470.518 40.9641V41.3818C469.805 41.0797 469.035 40.9314 468.26 40.9469C467.486 40.9623 466.723 41.1411 466.022 41.4714C465.074 41.9272 464.212 42.543 463.475 43.2914C463.4 42.814 463.31 42.3366 463.205 41.7996C463.895 40.0316 464.941 38.4224 466.277 37.0704L466.352 37.0405ZM463.265 52.3172C463.562 52.5306 463.872 52.7249 464.194 52.899C464.928 53.7168 465.892 54.2962 466.961 54.5622C468.03 54.8282 469.154 54.7685 470.188 54.3909C471.009 54.0729 471.739 53.5609 472.316 52.899C473.072 52.3823 473.78 51.7981 474.429 51.1536C474.759 50.8552 475.073 50.5121 475.418 50.2286C476.317 49.4976 476.632 49.1843 477.037 49.1843C477.621 50.9596 478.775 52.6603 478.67 54.6445C478.46 58.225 473.68 59.0157 470.443 58.2101C467.611 57.494 465.363 55.6441 463.055 54.1522C462.576 53.8389 461.781 53.4361 461.257 53.0631C460.843 52.131 460.241 51.2932 459.489 50.6016H459.414C459.602 49.8418 459.949 49.1301 460.433 48.513V48.513C460.914 50.0487 461.881 51.3884 463.19 52.3321L463.265 52.3172ZM461.077 59.9705C461.077 60.612 461.077 61.2684 461.077 61.9099C459.729 61.8204 458.38 61.7607 457.031 61.7607C453.585 61.7607 452.146 60.8805 451.292 57.8669C452.163 57.5609 453.069 57.3654 453.989 57.2851C456.291 56.9875 458.624 57.0327 460.912 57.4194C460.957 58.3294 460.972 59.2096 461.017 59.9854L461.077 59.9705ZM455.667 63.2973C457.406 63.2973 459.264 63.2973 461.167 63.2973C461.167 64.7892 461.167 66.2811 461.167 67.7729C458.425 69.9958 456.672 72.711 457.241 76.3512C457.341 76.9283 457.502 77.4933 457.72 78.037C457.033 78.2269 456.361 78.4713 455.712 78.768C456.064 77.6159 456.256 76.4212 456.282 75.2173C456.282 70.2047 452.206 67.758 449.299 63.8642C448.362 62.6371 447.642 61.2597 447.171 59.7915C447.873 59.2586 448.638 58.8127 449.449 58.4637C449.841 59.6553 450.462 60.7598 451.277 61.716C452.715 63.4316 453.24 63.4018 455.593 63.3272L455.667 63.2973ZM457.915 79.4244L458.41 79.2901C459.273 80.7841 460.62 81.9416 462.231 82.5722L462.531 82.6617C462.531 82.8855 462.621 83.0944 462.681 83.3182C462.947 84.3381 463.292 85.3357 463.715 86.3019C462.785 86.6152 461.871 86.9732 460.972 87.3462C458.59 86.3765 455.877 84.9443 455.458 83.1839C455.363 82.783 455.35 82.3673 455.419 81.9612C455.488 81.5551 455.638 81.1669 455.86 80.8193C456.082 80.4718 456.371 80.172 456.712 79.9376C457.052 79.7031 457.435 79.5388 457.84 79.4542L457.915 79.4244ZM461.092 88.6143C462.591 89.1961 464.089 89.6586 465.588 90.1061L465.962 90.9267C464.313 92.0536 463.152 93.7584 462.711 95.7006C462.606 96.2675 462.546 96.8643 462.486 97.461C461.191 97.7343 459.957 98.2398 458.844 98.9529C458.35 98.2666 457.885 97.5655 457.466 96.8345C454.918 92.6125 457.541 90.2703 461.017 88.6441L461.092 88.6143ZM462.396 102.548L461.946 102.668C461.149 101.862 460.393 101.015 459.684 100.131C460.502 99.5953 461.396 99.1831 462.336 98.9081C462.258 100.13 462.258 101.356 462.336 102.578L462.396 102.548ZM458.829 100.758C459.444 101.519 460.058 102.25 460.718 102.996C459.615 103.333 458.488 103.582 457.346 103.742H456.701C457.117 102.589 457.83 101.565 458.769 100.773L458.829 100.758ZM461.452 103.742C461.856 104.16 462.276 104.577 462.696 104.965C462.696 105.219 462.696 105.457 462.8 105.711C462.037 106.563 461.345 107.476 460.733 108.441C460.176 109.37 459.676 110.332 459.234 111.32C458.461 110.751 457.814 110.03 457.331 109.202C456.536 107.923 456.193 106.416 456.357 104.92C458.084 104.766 459.78 104.364 461.392 103.727L461.452 103.742ZM461.032 109.784C461.595 108.698 462.247 107.66 462.98 106.681C463.432 108.966 464.053 111.215 464.838 113.409C463.176 113.164 461.569 112.634 460.088 111.843C460.298 111.141 460.628 110.44 460.957 109.769L461.032 109.784ZM464.719 102.325C464.644 101.28 464.584 100.236 464.584 99.1767C464.584 98.9529 464.584 98.744 464.584 98.5352C465.507 98.4692 466.434 98.5294 467.341 98.7142C467.154 99.629 466.803 100.503 466.307 101.295C466.067 101.683 465.783 102.041 465.498 102.399C465.216 102.342 464.931 102.308 464.644 102.295L464.719 102.325ZM465.408 103.533C466.077 103.731 466.705 104.044 467.266 104.458C469.634 106.174 470.743 108.426 473.8 109.485C476.001 110.228 478.392 110.196 480.573 109.396L481.083 109.844C481.742 110.44 482.446 111.022 483.151 111.619C481.141 111.68 479.196 112.335 477.561 113.499C474.754 112.117 472.036 110.563 469.424 108.844C467.91 107.825 466.45 106.729 465.048 105.562C465.048 105.084 464.898 104.607 464.838 104.07L465.408 103.533ZM476.512 114.304C476.044 114.691 475.603 115.11 475.193 115.557L474.819 116.005C472.449 114.775 469.855 114.034 467.191 113.827C466.428 111.709 465.837 109.534 465.423 107.322C468.858 109.988 472.547 112.311 476.437 114.259L476.512 114.304ZM475.014 117.959C476.05 118.977 476.974 120.102 477.771 121.316L477.216 121.54C475.671 122.212 473.923 122.255 472.346 121.659C473.125 120.481 473.995 119.168 474.924 117.915L475.014 117.959ZM475.898 116.811C476.437 116.125 477.023 115.477 477.651 114.871C479.149 115.617 480.648 116.363 482.147 117.019L483.061 117.422C481.94 118.767 480.572 119.886 479.03 120.719C478.155 119.248 477.064 117.915 475.793 116.766L475.898 116.811ZM484.889 118.302C486.927 119.242 488.71 120.495 488.785 123.076C488.76 124.512 488.624 125.943 488.38 127.358C485.563 127.82 482.386 125.389 480.888 123.554C480.588 123.181 480.318 122.793 480.049 122.39C481.925 121.337 483.558 119.904 484.844 118.183L484.889 118.302ZM500.174 43.3809C504.879 47.946 502.407 55.3159 502.092 60.9104C501.762 66.8778 504.085 72.532 504.07 78.4696C504.123 81.1703 503.456 83.8367 502.137 86.1975C500.474 89.0022 498.495 89.1812 495.873 90.673C495.529 90.8715 495.207 91.1066 494.914 91.3742C496.278 86.7494 499.275 82.7363 499.739 77.9474C500.039 73.928 499.137 69.9101 497.147 66.4004C497.382 64.4625 497.275 62.4985 496.832 60.5971L498.57 45.0966L498.855 42.5007C499.315 42.6997 499.748 42.9553 500.144 43.2616L500.174 43.3809ZM471.552 25.1504C474.759 24.7028 476.512 23.1513 479.254 21.6445C483.75 19.2277 488.725 22.0324 492.846 23.8375C496.547 25.4487 501.253 27.6119 499.994 32.0875C495.783 26.6721 488.006 21.0328 481.083 23.1363C477.891 24.1359 476.962 25.9709 477.276 28.0297C472.317 26.4696 467.021 26.3095 461.976 27.5672C464.524 25.4338 468.225 25.5979 471.552 25.1504ZM458.14 31.3416C461.015 29.3298 464.474 28.313 467.985 28.4474C465.528 29.5066 463.64 31.6251 464.209 34.0717C464.362 34.6567 464.632 35.2047 465.003 35.6829C463.927 36.6571 462.994 37.777 462.231 39.0098C461.742 38.054 461.052 37.2144 460.208 36.5482C458.719 35.4358 456.899 34.8527 455.038 34.8922C455.819 33.5063 456.88 32.2972 458.155 31.3416H458.14ZM453.24 38.428L453.599 38.0997C453.846 37.7834 454.154 37.5198 454.506 37.3245C454.857 37.1292 455.244 37.0064 455.644 36.9632C456.044 36.9201 456.448 36.9575 456.833 37.0733C457.219 37.1891 457.576 37.3809 457.885 37.6373C458.607 38.0837 459.232 38.6705 459.721 39.3626C460.21 40.0547 460.554 40.8378 460.733 41.6653C460.733 41.7697 460.732 41.8891 460.807 41.9935C460.243 43.5339 460.023 45.1784 460.163 46.8122C459.253 47.6027 458.447 48.505 457.765 49.4976C456.559 48.9478 455.239 48.6921 453.914 48.7517C454.25 47.982 454.424 47.1517 454.424 46.3125C454.424 45.4732 454.25 44.6429 453.914 43.8733C453.615 43.0378 453.195 42.2322 452.925 41.3818C452.805 40.994 452.7 40.6956 452.64 40.4271L453.24 38.428ZM452.146 51.6757C452.58 50.9745 452.955 50.3629 453.27 49.796C454.632 49.5819 456.027 49.8012 457.256 50.4225C457.252 50.5021 457.252 50.5817 457.256 50.6612C457.216 51.0907 457.302 51.5225 457.505 51.904C457.707 52.2854 458.016 52.6001 458.395 52.8095C459.005 53.2803 459.641 53.7186 460.298 54.1224C460.457 54.6104 460.583 55.1089 460.673 55.6142C457.431 55.2454 454.15 55.4423 450.977 56.1961C450.92 54.5984 451.354 53.0216 452.221 51.6757H452.146ZM446.976 54.9727C447.589 53.2068 448.832 51.726 450.468 50.8104C449.43 52.6258 448.911 54.6898 448.969 56.7779C448.183 57.0529 447.421 57.3922 446.691 57.7924C446.634 56.8384 446.756 55.8821 447.051 54.9727H446.976ZM449.793 83.3182C450.661 81.8347 451.317 80.2379 451.741 78.574C452.371 73.3973 446.347 70.3389 444.953 65.7291C444.675 64.8711 444.638 63.9541 444.843 63.0763C445.049 62.1986 445.491 61.3931 446.122 60.7462C446.338 61.363 446.604 61.9617 446.916 62.5365C448.49 65.4009 451.217 67.2806 453.18 69.8914C455.548 73.0541 455.173 76.6495 453.884 80.0211C453.589 80.3603 453.393 80.7728 453.315 81.2146C453.315 81.2892 453.315 81.3638 453.315 81.4384C453.075 81.9755 452.805 82.4976 452.536 83.0198C451.786 84.5117 450.917 85.8991 450.093 87.391C449.682 86.7904 449.443 86.0892 449.404 85.3634C449.364 84.6376 449.525 83.9148 449.868 83.2734L449.793 83.3182ZM450.902 101.414C450.057 100.529 449.418 99.4696 449.029 98.3114C448.36 95.778 448.642 93.0885 449.823 90.7476C450.539 91.5854 450.96 92.6333 451.022 93.7314C451.202 96.2526 450.962 98.8186 450.977 101.37L450.902 101.414ZM451.082 88.8977L450.827 88.5695L451.037 88.1518C451.876 86.5555 452.82 84.9592 453.659 83.348C455.103 85.3983 457.09 87.0096 459.399 88.0026C458.127 88.6383 457.008 89.5389 456.117 90.6432C453.779 93.6269 455.862 96.9986 457.825 99.5944C456.774 100.426 455.967 101.523 455.488 102.772C455.385 103.065 455.299 103.364 455.233 103.667C454.434 103.528 453.664 103.256 452.955 102.862C452.955 100.191 453.045 97.5506 453.105 95.089C453.312 92.8354 452.611 90.5923 451.157 88.853L451.082 88.8977ZM457.076 118.854C456.548 118.265 456.085 117.619 455.697 116.93C453.771 112.991 452.796 108.659 452.85 104.279C453.51 104.569 454.205 104.77 454.918 104.876C454.828 106.037 454.978 107.204 455.36 108.305C455.741 109.406 456.346 110.417 457.136 111.276C457.581 111.763 458.084 112.193 458.635 112.559C458.289 113.446 457.993 114.353 457.75 115.274C457.475 116.441 457.295 117.629 457.211 118.825L457.076 118.854ZM463.25 125.299C462.263 125.352 461.284 125.091 460.455 124.555C459.625 124.019 458.988 123.235 458.635 122.316C459.329 122.674 460.063 122.949 460.822 123.136C463.085 123.673 465.318 123.658 467.416 124.151C466.202 124.887 464.807 125.275 463.385 125.269L463.25 125.299ZM469.244 122.867C468.542 122.577 467.815 122.353 467.071 122.196C464.913 121.749 462.576 122.017 460.568 121.271C459.684 120.946 458.862 120.472 458.14 119.869C458.14 119.869 458.14 119.869 458.14 119.794C458.139 117.471 458.577 115.169 459.429 113.006C461.26 113.838 463.222 114.348 465.228 114.513C465.468 115.125 465.693 115.736 465.947 116.318C466.698 118.654 467.992 120.78 469.724 122.524L469.244 122.867ZM467.746 115.93C467.611 115.602 467.476 115.259 467.356 114.931C467.985 115.02 468.615 115.125 469.229 115.244C470.848 115.516 472.385 116.148 473.725 117.094C472.796 118.377 471.971 119.72 470.982 120.973C469.58 119.545 468.538 117.807 467.94 115.9L467.746 115.93ZM486.702 132.341C482.269 130.823 478.095 128.64 474.324 125.866C473.173 124.99 471.967 124.188 470.713 123.464L470.878 123.285C472.776 124.107 474.914 124.192 476.872 123.524C477.551 123.348 478.218 123.124 478.865 122.853C479.583 123.861 480.402 124.796 481.307 125.642C482.23 126.546 483.327 127.253 484.533 127.719C485.739 128.186 487.027 128.403 488.32 128.358C488.212 129.996 488.604 131.629 489.444 133.042C488.583 132.884 487.733 132.675 486.897 132.415L486.702 132.341ZM490.733 132.863C489.753 131.448 489.283 129.744 489.399 128.029C489.797 127.891 490.179 127.711 490.538 127.492C491.327 127.032 492.015 126.418 492.561 125.687C493.46 127.179 494.584 128.969 494.06 130.745C493.93 131.455 493.546 132.095 492.978 132.545C492.41 132.995 491.698 133.225 490.973 133.191C491.108 133.102 491.018 133.012 490.928 132.893L490.733 132.863ZM499.724 129.879C499.215 131.371 498.346 133.997 496.727 134.668C496.091 134.95 495.4 135.089 494.703 135.076C494.007 135.063 493.322 134.899 492.696 134.594C494.734 134.176 496.068 132.773 495.903 129.73C495.757 128.312 495.28 126.948 494.509 125.747C494.15 125.105 493.73 124.479 493.356 123.837C493.49 122.325 493.11 120.812 492.277 119.541C492.675 118.104 493.469 116.807 494.569 115.796C495.323 115.083 496.034 114.326 496.697 113.528C498.353 115.294 499.718 117.307 500.743 119.496C501.987 122.942 501.073 126.537 499.934 129.864L499.724 129.879Z" fill="white"/>
<path d="M400.596 160C396.044 159.817 391.688 158.108 388.234 155.151C388.094 155.027 388.011 154.852 388.001 154.666C387.991 154.48 388.056 154.298 388.181 154.159C388.306 154.021 388.482 153.938 388.669 153.928C388.855 153.918 389.039 153.983 389.178 154.107C389.178 154.107 395.412 159.612 402.814 158.404C402.999 158.374 403.188 158.419 403.34 158.528C403.492 158.637 403.594 158.802 403.624 158.986C403.653 159.17 403.608 159.358 403.499 159.509C403.389 159.66 403.224 159.761 403.039 159.791C402.232 159.926 401.415 159.996 400.596 160V160Z" fill="white"/>
<path d="M559.246 90.136C559.222 90.023 559.162 89.9204 559.076 89.8428C558.99 89.7652 558.882 89.7164 558.766 89.7033C557.65 89.4068 556.482 89.3519 555.342 89.5423C554.202 89.7327 553.116 90.1641 552.158 90.8073C553.186 87.9114 553.186 84.752 552.158 81.8561C551.663 80.0808 551.124 78.395 550.779 76.6943C550.803 75.1155 551.03 73.5463 551.454 72.0247C553.417 66.0573 560.445 61.7607 558.077 55.0026C556.999 52.5037 555.442 50.2384 553.492 48.3339C551.292 45.8691 549.377 43.1669 547.782 40.2779C547.33 38.1877 546.29 36.2683 544.785 34.743C542.462 30.7001 539.286 26.8809 534.22 25.7919C531.014 22.1965 525.229 21.5102 520.479 22.1219H520.119C519.406 21.0575 518.599 20.059 517.707 19.1381C515.564 17.0645 512.297 15.3041 509.255 16.2738C507.809 16.9092 506.573 17.9383 505.688 19.2426C503.997 21.0485 501.895 22.4246 499.559 23.2557C498.274 23.6899 497.192 24.5775 496.519 25.751C495.845 26.9245 495.626 28.3028 495.903 29.626C496.32 31.6561 496.62 33.7083 496.802 35.7724C495.398 38.3055 494.797 41.2025 495.079 44.0821C495.079 44.1716 495.079 44.2611 495.079 44.3507C494.599 48.7367 496.323 52.8692 498.076 56.763L498.286 57.2254C497.451 58.2944 496.67 59.4048 495.948 60.5523C491.607 67.9477 485.523 74.1793 478.22 78.7083C473.305 81.692 470.233 85.5112 472.781 90.9565C475.193 96.1333 481.607 98.1771 487.496 97.8489L488.425 97.7594C488.203 98.7007 488.307 99.6893 488.72 100.564C489.134 101.439 489.833 102.149 490.703 102.578C492.202 103.354 493.91 103.026 495.199 103.727C494.857 104.908 494.76 106.147 494.914 107.367C495.118 108.811 495.708 110.175 496.623 111.314C497.538 112.453 498.744 113.326 500.114 113.842C500.593 114.245 501.118 114.617 501.612 114.976C499.32 119.048 498.376 123.106 501.687 127.089C502.115 127.602 502.592 128.071 503.111 128.492C503 128.789 502.91 129.093 502.841 129.402C502.653 130.035 502.613 130.703 502.725 131.353C502.836 132.004 503.095 132.621 503.483 133.157C503.87 133.692 504.376 134.133 504.961 134.444C505.546 134.755 506.195 134.929 506.857 134.952C511.638 135.518 517.347 133.803 521.693 132.147C526.504 130.314 530.983 127.714 534.955 124.449C535.599 123.927 534.685 122.957 534.041 123.539C527.192 129.074 517.557 133.728 508.566 133.549C504.25 133.475 503.785 131.655 504.49 129.432C506.238 130.377 508.166 130.943 510.15 131.095C512.133 131.247 514.126 130.98 515.998 130.312C519.22 129.208 521.093 127.104 523.596 125.12C527.672 121.898 531.868 123.3 536.693 122.733C542.687 122.032 546.418 117.422 547.872 112.514C549.565 106.8 546.883 89.0917 558.077 90.8521C562.977 94.1789 566.903 97.834 568.567 103.443C570.41 109.873 567.892 115.542 564.311 121.062C558.017 130.759 552.877 141.948 556.893 153.272C557.088 153.809 558.107 153.749 558.047 153.137C557.313 145.857 557.163 138.89 560.085 131.923C562.737 125.627 567.922 120.391 570.11 113.931C572.987 105.562 568.762 93.7612 559.246 90.136ZM551.229 69.3991C551.019 69.772 550.854 70.1599 550.704 70.5478V70.4732C550.989 69.22 551.319 68.0116 551.513 66.8181C552.473 66.0573 553.492 65.2218 554.421 64.3566C553.387 65.9976 552.143 67.6387 551.229 69.414V69.3991ZM555.14 62.2978C554.168 63.5906 552.988 64.7146 551.648 65.6246C551.767 64.3364 551.561 63.0391 551.049 61.8502C550.36 60.2689 549.55 58.8665 548.951 57.3746C549.629 56.7511 550.462 56.3186 551.364 56.1215C555.709 55.2264 557.013 59.5677 555.14 62.2978ZM548.247 43.8583C548.802 44.7556 549.412 45.6176 550.075 46.4393C551.783 48.513 553.776 50.4225 555.29 52.6305C556.252 53.9419 556.837 55.4889 556.983 57.1061C556.594 56.6172 556.129 56.194 555.604 55.8529C554.498 55.2552 553.24 54.9931 551.986 55.0992C550.731 55.2052 549.536 55.6747 548.546 56.4497C548.055 55.1918 547.781 53.8601 547.737 52.5112C547.647 49.6169 548.307 46.7376 548.262 43.8583H548.247ZM549.925 66.9226C549.176 67.4861 548.474 68.1098 547.827 68.7874C547.151 66.503 546.842 64.1263 546.913 61.7458C546.995 60.8267 547.249 59.9309 547.662 59.1052C549.146 61.9845 550.255 63.8792 549.94 66.9226H549.925ZM548.981 75.1577C549.096 75.9272 549.256 76.6893 549.461 77.4402C549.371 80.2748 549.161 83.4077 546.883 85.3023C546.803 83.4478 546.613 81.5996 546.314 79.7675C546.821 79.0555 547.267 78.3019 547.647 77.5148C548.642 75.0445 548.78 72.3139 548.037 69.7571C548.089 69.7319 548.135 69.6963 548.172 69.6527C548.637 69.1549 549.138 68.6912 549.67 68.2652C549.67 68.2652 549.67 68.3697 549.67 68.4144C549.033 70.6021 548.809 72.8887 549.011 75.1577H548.981ZM547.108 57.9415C546.062 59.6815 545.62 61.7153 545.849 63.73C546.164 67.9221 548.486 72.0397 547.018 76.2467C546.755 76.9581 546.424 77.6425 546.029 78.2906C545.759 76.7987 545.444 75.4411 545.055 74.0686C544.52 71.8972 543.839 69.764 543.017 67.6834C542.031 65.015 541.692 62.1525 542.028 59.329C542.582 56.032 544.77 53.3615 546.119 50.3778C545.877 52.9434 546.225 55.5301 547.138 57.9415H547.108ZM541.908 96.8941C540.499 98.386 540.694 100.31 540.694 102.175C540.439 102.384 540.17 102.593 539.885 102.772L539.465 103.011L539.57 102.817C540.363 101.176 540.533 99.3061 540.05 97.5505C540.585 96.4564 540.91 95.2725 541.009 94.0596C541.159 92.2992 541.189 90.6581 541.428 89.0469C542.157 88.3886 542.806 87.6476 543.362 86.839C543.646 86.8562 543.931 86.8562 544.216 86.839C544.21 86.9386 544.23 87.0379 544.272 87.1284C544.314 87.2188 544.378 87.2976 544.458 87.358C544.537 87.4183 544.631 87.4582 544.73 87.4744C544.829 87.4905 544.93 87.4824 545.025 87.4506C545.25 87.4506 545.444 87.3014 545.639 87.2268C545.724 89.8364 545.457 92.4456 544.845 94.9845C543.739 95.3935 542.74 96.0463 541.923 96.8941H541.908ZM544.455 96.2974C544.138 97.3316 543.716 98.3313 543.197 99.2811C542.775 99.993 542.272 100.654 541.698 101.25C541.698 101.042 541.698 100.833 541.698 100.624C541.676 99.7099 541.927 98.8101 542.421 98.0394C542.915 97.2687 543.628 96.6622 544.47 96.2974H544.455ZM534.925 111.335C533.006 112.348 530.862 112.861 528.691 112.827C528.778 111.749 528.707 110.663 528.481 109.605C530.392 109.431 532.259 108.926 533.996 108.113C534.134 109.231 534.453 110.319 534.94 111.335H534.925ZM526.188 110.44C526.188 110.962 526.188 111.559 526.308 112.186V112.499C525.904 112.41 525.499 112.32 525.094 112.201C522.486 111.442 520.144 109.969 518.336 107.949C519.325 106.934 520.539 108.202 521.813 108.68C523.223 109.199 524.702 109.506 526.203 109.59C526.173 109.858 526.188 110.157 526.203 110.44H526.188ZM515.024 121.972C514.038 120.932 513.346 119.65 513.016 118.258C513.016 117.974 512.926 117.691 512.881 117.407C513.557 117.618 514.286 117.584 514.939 117.311C515.592 117.038 516.126 116.543 516.448 115.915C517.707 114.095 517.077 111.947 517.392 109.948C519.642 112.311 522.623 113.856 525.859 114.334C525.668 115.342 525.418 116.339 525.109 117.318C524.989 117.676 524.84 118.049 524.69 118.422C523.4 119.628 521.88 120.564 520.219 121.174C518.559 121.784 516.792 122.056 515.024 121.972V121.972ZM522.247 121.972C521.797 122.362 521.292 122.683 520.749 122.927C519.844 123.356 518.836 123.522 517.841 123.405C519.248 123.187 520.615 122.77 521.903 122.166L522.247 121.972ZM500.593 112.678C497.716 110.052 499.095 106.711 497.342 103.876C497.158 103.585 496.924 103.327 496.652 103.115C496.727 102.921 496.817 102.712 496.907 102.518C497.341 103.616 498.092 104.561 499.065 105.234C500.37 105.951 501.587 106.817 502.691 107.815C504.19 109.769 503.531 111.634 502.512 113.469C502.038 113.399 501.572 113.289 501.118 113.141L500.593 112.678ZM493.94 90.8222C495.606 91.2237 497.133 92.0636 498.361 93.254L494.33 94.5668C492.993 94.991 491.625 95.3103 490.239 95.5216C491.024 93.741 492.086 92.0947 493.386 90.6432L493.94 90.8222ZM498.001 91.4637C496.802 90.7401 495.518 90.164 494.18 89.7481C494.914 88.9276 495.678 88.1667 496.218 87.5401L497.222 86.4212H497.342C499.32 86.4212 501.433 86.287 503.516 86.3466C503.045 88.4602 502.294 90.5021 501.283 92.4185L499.589 92.8959C499.138 92.3388 498.602 91.8556 498.001 91.4637V91.4637ZM498.091 36.2648C499.177 34.3137 500.849 32.7491 502.871 31.7892C504.772 30.8705 506.876 30.4494 508.985 30.5658C501.388 36.2648 500.399 45.3651 501.148 53.9881L500.354 54.749C499.115 52.3959 498.033 49.9638 497.117 47.4687C496.741 46.1866 496.519 44.8644 496.457 43.5301C497.12 41.1563 497.665 38.7515 498.091 36.3244V36.2648ZM533.741 26.7765C534.73 28.0592 535.257 29.6353 535.239 31.2521C535.26 31.5451 535.26 31.8392 535.239 32.1323C534.582 32.1191 533.927 32.0642 533.276 31.9682C531.439 31.6212 529.648 31.0604 527.942 30.2973C527.608 29.7293 527.177 29.2243 526.668 28.8054V28.8054C527.627 27.9084 528.788 27.2535 530.055 26.8958C531.267 26.6342 532.52 26.6139 533.741 26.8362V26.7765ZM533.966 45.8873V46.0812C532.367 45.0767 531.166 43.5538 530.564 41.7697C529.995 39.4275 530.174 36.8167 528.121 35.0116L527.927 34.8624C528.332 34.1337 528.529 33.308 528.496 32.4754C530.491 33.2854 532.598 33.7885 534.745 33.9673C534.031 35.6267 533.459 37.3436 533.037 39.0993C532.813 41.4031 533.131 43.727 533.966 45.8873V45.8873ZM537.622 103.801L536.723 104.055C537.352 103.876 535.329 104.264 535.224 104.294C534.838 104.593 534.525 104.975 534.307 105.412C534.089 105.848 533.972 106.328 533.966 106.815C532.401 107.675 530.678 108.212 528.901 108.396C530.117 106.681 531.641 105.205 533.396 104.04C535.491 102.715 537.367 101.075 538.956 99.1767C539.123 100.831 538.646 102.487 537.622 103.801V103.801ZM517.407 106.785C517.046 106.309 516.715 105.811 516.418 105.293C518.34 104.615 520.408 104.455 522.412 104.831C522.541 104.865 522.679 104.851 522.798 104.79C522.917 104.73 523.009 104.627 523.056 104.503C523.558 102.39 523.605 100.197 523.195 98.065C522.784 95.9334 521.925 93.9125 520.674 92.1351C519.303 90.3061 518.459 88.14 518.231 85.8693C519.855 87.3409 521.578 88.7016 523.386 89.942C524.692 93.4084 525.475 97.0483 525.709 100.743C525.299 101.985 525.336 103.33 525.814 104.547L525.994 105.055C525.994 106.203 526.098 107.337 526.143 108.471C523.611 108.242 521.183 107.358 519.1 105.905C519.007 105.85 518.901 105.821 518.793 105.821C518.685 105.821 518.579 105.85 518.486 105.905C518.078 106.159 517.714 106.476 517.407 106.845V106.785ZM510.828 114.513C510.177 113.828 509.668 113.022 509.33 112.141C509.558 111.909 509.773 111.665 509.974 111.41C510.922 109.93 511.995 108.532 513.181 107.233C512.941 109.903 512.042 112.484 511.832 115.125C511.462 114.986 511.121 114.778 510.828 114.513V114.513ZM500.818 56.0021L501.283 55.5396C501.388 56.5243 501.508 57.5089 501.642 58.5234C501.418 57.7924 501.193 57.0315 500.923 56.3154L500.818 56.0021ZM530.429 44.5595C531.129 45.4563 532 46.2067 532.992 46.7675C533.663 47.225 534.286 47.7499 534.85 48.3339V48.4384L534.76 48.5577C533.797 49.5092 532.597 50.1888 531.283 50.527C530.369 46.857 526.428 44.1716 522.682 42.6947C522.014 42.4276 521.321 42.2277 520.614 42.0979C520.387 39.7107 519.382 37.4628 517.752 35.6978L518.066 35.5487C519.025 36.4984 520.219 37.178 521.528 37.5179C522.536 37.79 523.6 37.7793 524.602 37.487C525.604 37.1948 526.506 36.6324 527.207 35.8619C529.665 38.0401 528.676 41.9189 530.429 44.5894V44.5595ZM537.158 68.5636C537.352 67.9818 537.547 67.4149 537.712 66.848C537.877 66.2811 537.892 66.117 537.997 65.7589C538.891 67.2498 539.33 68.9674 539.261 70.7024C539.192 72.4374 538.617 74.115 537.607 75.5306L537.457 75.7246C537.616 73.3338 537.516 70.9329 537.158 68.5636V68.5636ZM536.438 71.249C536.558 73.0541 536.438 74.9786 536.333 76.8882C535.663 77.3927 534.92 77.795 534.131 78.0817C534.715 75.622 535.466 73.2046 536.378 70.8462C536.408 70.9208 536.423 71.055 536.438 71.249ZM535.404 88.659L535.105 88.0772C534.448 86.7698 534.013 85.3634 533.816 83.9149C534.934 85.2191 535.503 86.9026 535.404 88.6143V88.659ZM524.135 88.4352C523.697 87.474 523.196 86.5421 522.637 85.6455C521.914 84.4934 521.113 83.3918 520.239 82.3484C520.456 82.2022 520.682 82.0677 520.914 81.9456C521.757 81.516 522.654 81.1999 523.581 81.0058C524.205 81.3247 524.889 81.5126 525.589 81.5578C528.241 81.7965 530.324 81.0207 532.722 82.9004C532.811 84.8843 533.321 86.8268 534.22 88.5994C534.505 89.1663 534.805 89.7183 535.135 90.2852C535.135 90.3896 535.135 90.494 535.06 90.5985C533.186 91.0347 531.241 91.0633 529.355 90.6823C527.47 90.3012 525.689 89.5195 524.135 88.3905V88.4352ZM534.041 92.523C532.153 95.1486 528.751 96.6554 526.818 98.8485C526.549 96.1577 525.996 93.5025 525.169 90.9267C527.871 92.4101 530.991 92.961 534.041 92.4931V92.523ZM514.56 93.2689L514.29 93.1346C514.219 92.0701 513.935 91.0305 513.453 90.0772C512.972 89.124 512.304 88.2765 511.488 87.5849C512.049 85.801 512.287 83.932 512.192 82.065C512.115 81.3207 511.928 80.5919 511.638 79.9018C513.174 81.8062 514.993 83.4663 517.032 84.8249C516.163 88.0026 518.771 90.8968 520.344 93.5374C521.643 95.5531 522.411 97.8619 522.577 100.251C522.577 101.37 523.041 103.145 521.738 103.787C520.665 103.86 519.589 103.86 518.516 103.787C517.673 103.912 516.844 104.122 516.043 104.413C514.627 101.225 514.285 97.666 515.069 94.2684C515.105 94.0652 515.076 93.8558 514.984 93.6707C514.892 93.4855 514.744 93.3343 514.56 93.2391V93.2689ZM505.239 71.7115L506.078 71.4578C506.352 72.8339 506.908 74.1391 507.711 75.2919C509.48 77.9325 511.338 80.2449 511.158 83.4823C511.073 84.6359 510.882 85.7794 510.589 86.8986C509.006 85.9266 507.213 85.3436 505.359 85.1979C505.972 80.7202 505.932 76.1776 505.239 71.7115ZM520.824 43.5152C522.421 43.9356 523.939 44.6107 525.319 45.5143C528.047 47.2001 529.5 49.0202 529.815 51.3773C527.807 52.7293 526.284 54.684 525.469 56.9569C522.877 56.3452 520.209 55.838 517.647 55.1368C519.033 53.1782 520.007 50.9606 520.509 48.6174C520.839 46.9379 520.945 45.2223 520.824 43.5152V43.5152ZM529.92 52.4664C529.922 53.264 529.836 54.0594 529.665 54.8385C529.47 55.838 529.14 56.8823 529.021 57.9266C528.136 57.6432 527.252 57.3896 526.338 57.1658C526.338 57.0613 526.338 56.942 526.458 56.8376C527.215 55.0918 528.406 53.5668 529.92 52.4067V52.4664ZM510.873 78.216C510.911 78.3524 510.956 78.4869 511.008 78.6188C509.824 76.5302 508.011 74.6952 507.232 72.3679C507.096 71.9939 506.991 71.6098 506.917 71.2191L507.352 71.0849C508.626 72.4574 509.989 73.7702 511.368 75.0831C510.853 76.0419 510.678 77.146 510.873 78.216V78.216ZM515.219 58.0907C515.744 58.4637 516.283 58.8516 516.838 59.2096C517.197 63.3123 513.96 66.9972 510.064 68.9664C509.36 69.3187 508.634 69.6276 507.891 69.8914C507.547 69.5035 507.232 69.1007 506.902 68.6979C507.711 64.5207 512.237 61.164 515.234 58.0907H515.219ZM514.11 55.107C514.605 55.286 515.099 55.465 515.609 55.6292V55.7485L515.264 56.1513C514.904 55.838 514.5 55.4949 514.11 55.1219V55.107ZM508.685 70.6373C513.181 68.9664 516.972 66.3109 517.991 61.6861C518.114 61.1373 518.179 60.5774 518.186 60.0152C521.828 62.3276 526.263 65.2218 525.679 69.3394C524.54 69.22 523.146 68.9963 522.682 69.0261C519.535 69.1786 516.503 70.2472 513.96 72.0993C513.24 72.6503 512.599 73.298 512.057 74.0238C510.843 72.9199 509.704 71.801 508.685 70.6373ZM517.961 57.9863C517.812 57.349 517.596 56.729 517.317 56.1364C518.516 56.4646 519.715 56.7331 520.884 56.942C522.382 57.2105 523.881 57.4791 525.289 57.8073C524.792 59.6209 524.838 61.5398 525.424 63.3272C525.554 63.6688 525.704 64.0026 525.874 64.3267C523.941 61.6264 520.824 59.8959 517.886 57.9863H517.961ZM518.861 50.8254C518.29 52.2392 517.512 53.5614 516.553 54.749C515.35 52.9387 513.512 51.6406 511.398 51.1088C511.2 50.6229 511.035 50.1245 510.903 49.6169C512.041 47.8997 513.39 46.331 514.919 44.9474C515.585 44.3749 516.363 43.9465 517.204 43.6897C518.045 43.4328 518.931 43.3531 519.805 43.4555C520.036 45.9574 519.687 48.4788 518.786 50.8254H518.861ZM510.619 47.8416C510.346 45.3086 510.943 42.7583 512.312 40.6061C513.45 38.8951 514.942 37.4456 516.688 36.3543C518.026 37.5904 518.965 39.1951 519.385 40.9641C519.475 41.2923 519.535 41.6056 519.595 41.9338C515.579 41.8294 512.941 44.6938 510.544 47.9013L510.619 47.8416ZM509.12 44.47C508.781 46.1744 508.828 47.9324 509.255 49.6169L508.611 50.4822C504.37 46.3199 503.501 38.965 509.704 35.7575C510.571 35.242 511.554 34.9526 512.562 34.916C513.571 34.8795 514.572 35.0971 515.474 35.5487C513.868 36.5511 512.478 37.8612 511.384 39.403C510.291 40.9447 509.516 42.6874 509.105 44.5297L509.12 44.47ZM503.321 59.6124C505.164 57.1509 507.007 54.7042 508.865 52.2575C509.571 52.7755 510.312 53.2441 511.083 53.6599C511.995 54.9931 513.084 56.1975 514.32 57.2404C511.113 60.7164 507.367 64.0134 506.288 67.8326C505.52 66.8838 504.815 65.8872 504.175 64.8489C503.86 63.1332 503.561 61.4027 503.306 59.6721L503.321 59.6124ZM503.081 57.9117C502.961 56.9718 502.841 56.0469 502.751 55.107C502.751 54.8385 502.751 54.5699 502.751 54.3014C503.628 53.6337 504.59 53.0867 505.614 52.6753C506.195 52.4493 506.797 52.2794 507.412 52.168L503.081 57.9117ZM505.958 69.4289C505.958 69.7869 505.958 70.1002 505.958 70.4284L505.104 70.6821C504.964 69.6875 504.819 68.7377 504.669 67.8326C505.074 68.4443 505.494 68.9813 505.943 69.5035L505.958 69.4289ZM511.128 88.8231C511.974 89.7841 512.497 90.9834 512.627 92.2544C511.911 91.9897 511.174 91.7851 510.424 91.6428C510.619 90.8073 510.858 89.8674 511.113 88.9425L511.128 88.8231ZM512.791 77.2463C512.726 76.9313 512.726 76.6064 512.791 76.2915C514.792 78.123 516.698 80.055 518.501 82.0799C518.246 82.3365 518.015 82.6162 517.812 82.9154C515.953 81.4832 513.181 79.6034 512.776 77.3656L512.791 77.2463ZM513.316 75.1129C514.988 73.1632 517.18 71.7251 519.64 70.9655C521.493 70.3833 523.441 70.1555 525.379 70.2942C525.315 70.5067 525.24 70.7158 525.154 70.9208C523.985 73.5166 521.348 75.3964 521.962 78.3801C522.074 78.9183 522.298 79.4268 522.622 79.8719C521.514 80.1266 520.46 80.5708 519.505 81.1848C517.587 79.2305 515.444 77.2164 513.301 75.2322L513.316 75.1129ZM519.31 83.0049C519.909 83.7359 520.479 84.4967 521.003 85.2725C521.228 85.6156 521.438 85.9588 521.648 86.3019C520.674 85.4515 519.73 84.5862 518.771 83.7359C518.933 83.5359 519.114 83.3511 519.31 83.1839V83.0049ZM532.797 81.513C532.176 81.1076 531.506 80.7818 530.804 80.5433C530.284 80.3807 529.745 80.2855 529.2 80.2598L530.294 80.1405C531.212 80.023 532.116 79.8131 532.992 79.5139C532.871 80.2049 532.791 80.9023 532.752 81.6025L532.797 81.513ZM524.795 79.5736C522.532 78.4696 523.716 76.1572 524.975 74.2327C525.814 73.0835 526.509 71.8359 527.042 70.518L527.942 70.6821C528.256 70.6821 528.706 70.5926 528.751 70.2643C528.958 68.7012 528.602 67.1155 527.747 65.7888C526.248 63.1332 525.394 60.7761 526.128 57.9863C527.127 58.225 528.126 58.5085 529.125 58.8367C529.128 59.2086 529.173 59.579 529.26 59.9406C529.698 61.3438 530.65 62.5315 531.928 63.2675C534.105 64.6102 535.662 66.755 536.258 69.235C535.055 72.208 534.054 75.2583 533.261 78.3652C530.455 78.9754 527.612 79.404 524.75 79.6482L524.795 79.5736ZM536.783 67.2209C536.158 65.4185 534.984 63.8544 533.426 62.7453C532.241 61.9659 531.342 60.8247 530.864 59.4931C532.189 60.0613 533.438 60.7931 534.58 61.6712C535.714 62.5566 536.696 63.6198 537.487 64.819C537.267 65.6843 537.043 66.5148 536.813 67.3105L536.783 67.2209ZM538.057 61.895C538.057 62.3873 537.907 62.8796 537.817 63.3868C535.933 61.114 533.461 59.3963 530.669 58.4189C530.62 57.6443 530.675 56.8665 530.834 56.1065C531.148 54.9056 531.379 53.6843 531.523 52.4515C531.556 52.0742 531.556 51.6949 531.523 51.3177C531.778 51.1834 532.048 51.0342 532.302 50.9149C534.52 49.9302 534.76 50.4375 535.299 49.423C536.933 53.4809 538.656 57.3746 538.087 61.9845L538.057 61.895ZM523.566 36.4885C522.792 36.5848 522.006 36.509 521.265 36.2665C520.524 36.024 519.846 35.6209 519.28 35.0862C521.123 34.3659 523.148 34.2458 525.064 34.743C525.469 34.8578 525.86 35.0127 526.233 35.2055C525.505 35.9062 524.57 36.3559 523.566 36.4885V36.4885ZM517.242 34.6237L516.688 34.8773C515.383 34.1103 513.863 33.7857 512.357 33.9524C506.468 34.4298 503.066 40.442 504.04 45.2607C504.487 47.4331 505.584 49.4199 507.187 50.9596C505.493 51.2798 503.895 51.9787 502.512 53.0035C502.167 47.4836 502.676 41.725 505.763 36.8615C507.188 34.5548 509.152 32.6252 511.488 31.2372L511.967 31.4013C513.676 32.1323 514.964 33.6242 516.823 34.1165L517.242 34.6237ZM502.691 64.834V65.0727L502.512 64.5654L502.691 64.834ZM503.875 72.5469C504.357 76.0578 504.423 79.613 504.07 83.1391C503.995 83.8105 503.89 84.4818 503.755 85.1532C502.107 85.1532 500.084 85.3322 498.241 85.1532C501.388 81.4235 503.65 77.485 503.875 72.532V72.5469ZM496.787 85.0338C494.884 84.6907 493.46 83.8552 493.386 81.9158C493.191 76.6943 497.671 73.7106 502.646 72.3679C502.646 72.6364 502.646 72.9049 502.646 73.1884C502.347 77.9922 499.784 81.6025 496.787 85.0189V85.0338ZM504.879 87.5252C504.969 87.1672 505.029 86.8091 505.104 86.4362C506.395 86.5389 507.661 86.8513 508.85 87.3611C509.381 87.5862 509.884 87.8715 510.349 88.2115C510.049 89.3453 509.749 90.4642 509.54 91.6129C507.487 91.3927 505.413 91.5036 503.396 91.9411C504.021 90.5174 504.512 89.0391 504.864 87.5252H504.879ZM510.184 93.6269C511.042 93.8251 511.876 94.1152 512.672 94.4922C512.515 96.0155 512.188 97.5166 511.698 98.9678C510.727 97.3859 510.209 95.5701 510.199 93.7164L510.184 93.6269ZM512.327 102.384C512.833 103.372 513.124 104.455 513.181 105.562C513.181 105.711 513.181 105.86 513.181 106.009C512.438 106.535 511.763 107.152 511.173 107.844C510.738 108.352 510.364 108.889 509.989 109.426C510.334 108.396 510.679 107.427 510.918 106.636C511.353 105.204 511.862 103.816 512.342 102.429L512.327 102.384ZM514.185 106.353L514.59 106.114C515.111 107.124 515.733 108.078 516.448 108.963C516.223 110.097 516.238 111.335 516.103 112.589C516.009 113.386 515.605 114.115 514.978 114.62C514.35 115.124 513.549 115.364 512.746 115.289C512.911 112.35 514.095 109.411 514.2 106.397L514.185 106.353ZM538.296 98.8932C535.854 102.205 531.298 103.712 528.661 106.905C528.416 107.208 528.191 107.527 527.987 107.859C527.717 107.128 527.387 106.367 527.072 105.696C527.072 103.727 527.072 101.787 526.923 99.9972V99.8182C527.737 98.7662 528.757 97.8885 529.92 97.2373C532.132 96.0685 534.006 94.3525 535.359 92.2544L536.124 92.0306C537.323 93.8773 538.246 95.8874 538.866 97.9981C538.701 98.2989 538.516 98.588 538.311 98.8634L538.296 98.8932ZM537.158 91.6428C538.171 91.2581 539.137 90.7574 540.035 90.1509C540.059 92.1511 539.894 94.1492 539.54 96.1184C538.88 94.5597 538.082 93.0621 537.158 91.6428V91.6428ZM537.427 89.7481C537.046 89.9178 536.656 90.0671 536.258 90.1956L536.154 90.0315C536.485 88.6351 536.426 87.175 535.982 85.8099C535.538 84.4447 534.727 83.2269 533.636 82.2888C533.62 81.29 533.69 80.2918 533.846 79.305C534.707 78.9443 535.521 78.4836 536.273 77.9325C536.214 80.0668 536.856 82.1622 538.102 83.9C538.867 84.8602 539.84 85.6355 540.949 86.1676C540.807 86.484 540.682 86.8077 540.574 87.1373C540.574 87.3611 540.454 87.5998 540.394 87.8236C539.537 88.6177 538.555 89.2677 537.487 89.7481H537.427ZM537.427 76.8882C539.104 75.2371 540.119 73.034 540.282 70.6915C540.445 68.3491 539.744 66.0279 538.311 64.1626C538.634 62.4771 538.75 60.7588 538.656 59.0455C538.991 60.8358 539.452 62.6005 540.035 64.3267C541.638 68.8023 543.751 73.3674 543.886 78.2011C543.923 79.4027 543.817 80.6045 543.571 81.7815C542.726 82.8525 541.969 83.9901 541.308 85.183C538.746 83.6165 537.667 79.7824 537.502 76.8882H537.427ZM539.675 57.7476C539.106 54.9877 538.836 52.0636 537.382 49.5274C536.972 48.8711 536.467 48.278 535.884 47.767C536.393 46.484 536.918 45.201 537.382 43.9329L538.177 42.1278C539.285 39.6214 538.491 39.5618 541.818 39.8601C544.44 40.0988 544.485 39.8601 545.19 41.8742C545.528 42.8105 545.73 43.7901 545.789 44.7833C545.831 46.4515 545.498 48.1079 544.815 49.6319C543.062 53.7942 540.739 56.8823 540.439 60.9999C540.275 59.9108 539.975 58.8367 539.75 57.7476H539.675ZM527.297 32.0428C527.317 32.2512 527.317 32.4609 527.297 32.6694C527.295 33.2254 527.145 33.7711 526.863 34.2507C525.131 33.4368 523.199 33.1463 521.303 33.4153C522.404 32.7141 523.411 31.877 524.3 30.9239C525.469 31.267 526.413 31.6549 527.372 32.0279L527.297 32.0428ZM522.367 31.1477C520.584 32.6395 519.205 33.2064 517.212 32.6395C516.568 31.6847 515.968 30.6703 515.309 29.6558C517.126 29.2606 519.007 29.2606 520.824 29.6558C521.603 29.8348 522.322 30.0586 523.101 30.2973C522.922 30.6852 522.697 30.9686 522.442 31.1327L522.367 31.1477ZM514.215 30.3719C514.575 30.8791 514.919 31.4013 515.264 31.8637H515.189C514.56 31.5505 514.02 30.9836 513.406 30.6553L512.971 30.4465C513.301 30.3122 513.646 30.1779 514.005 30.0735L514.215 30.3719ZM510.469 29.6558C507.476 29.1706 504.406 29.6957 501.747 31.1477C503.305 29.4968 505.147 28.1375 507.187 27.1345C509.126 26.9072 511.078 27.4425 512.627 28.6264C511.906 28.913 511.209 29.2573 510.544 29.6558H510.469ZM500.159 59.0455L499.47 57.5537L499.559 57.4343C499.829 57.9565 500.024 58.4935 500.234 59.0306L500.159 59.0455ZM502.691 71.3982C498.795 72.4275 495.199 73.636 493.176 77.664C491.407 81.1997 491.677 85.3023 495.753 86.2124L495.034 87.0031C494.509 87.57 493.79 88.3756 493.026 89.3304C488.455 87.8385 484.035 86.3466 487.736 80.4836C490.733 75.7693 494.569 71.3385 497.941 66.8331L500.848 62.9691C501.924 65.6587 502.547 68.5067 502.691 71.3982V71.3982ZM500.354 97.2522C500.413 97.0809 500.463 96.9066 500.504 96.73C501.103 95.8349 501.747 94.9547 502.242 94.0894L502.317 93.9402C504.578 93.3411 506.934 93.1841 509.255 93.4778C509.149 94.5527 509.231 95.6377 509.495 96.6853C509.916 97.9989 510.516 99.2488 511.278 100.4C510.289 103.264 509.3 106.114 508.446 109.008C508.451 106.973 508.811 104.953 509.51 103.041C511.008 97.3566 504.789 96.2526 500.219 97.461C500.219 97.4312 500.279 97.3566 500.309 97.2671L500.354 97.2522ZM500.354 103.951C499.696 103.433 499.22 102.72 498.994 101.916C498.768 101.112 498.803 100.258 499.095 99.475C500.471 98.6198 502.075 98.1986 503.695 98.2666C506.258 98.4009 508.551 99.4303 508.191 102.742C508.017 103.402 507.787 104.046 507.502 104.667C506.791 106.974 506.843 109.448 507.652 111.723L507.472 112.365C506.676 112.962 505.734 113.338 504.744 113.454C505.061 112.826 505.307 112.166 505.479 111.485C506.453 107.337 502.961 106.397 500.294 103.966L500.354 103.951ZM504.19 114.513H504.34C505.309 114.439 506.255 114.181 507.127 113.752C506.781 115.019 506.659 116.337 506.767 117.646L506.633 117.452C505.834 116.528 504.905 115.724 503.875 115.065L504.19 114.513ZM508.805 113.946C509.583 115.139 510.604 116.156 511.802 116.93C511.84 117.735 511.981 118.532 512.222 119.302C512.508 120.176 512.927 121.001 513.466 121.749C512.655 121.568 511.873 121.277 511.143 120.883C508.686 119.451 508.326 116.766 508.79 113.946H508.805ZM535.344 107.337C536.421 106.688 537.387 105.872 538.207 104.92C539.023 104.609 539.819 104.245 540.589 103.831C540.355 105.216 539.834 106.536 539.06 107.71C538.286 108.883 537.276 109.884 536.094 110.649C535.604 109.618 535.343 108.493 535.329 107.352L535.344 107.337ZM543.991 85.8991C544.597 84.8191 545.046 83.6587 545.325 82.4529C545.444 83.5121 545.519 84.6012 545.579 85.7201C545.059 85.8455 544.526 85.9106 543.991 85.914V85.8991ZM544.336 36.8167C545.159 37.952 545.745 39.2407 546.059 40.6061C545.115 38.055 543.451 36.1305 540.739 37.145C538.686 37.8909 538.012 40.9641 537.382 42.5306C536.753 44.097 536.318 45.7679 535.584 47.2747C534.335 44.4646 533.975 41.3426 534.55 38.3235C534.94 36.8317 535.584 35.4442 536.049 34.027C539.241 34.0866 542.298 34.1015 544.336 36.8317V36.8167ZM542.133 32.9677C540.297 32.3739 538.364 32.1359 536.438 32.2666C536.591 31.3111 536.535 30.334 536.273 29.4022C536.055 28.6501 535.743 27.9284 535.344 27.2539C538.136 28.4311 540.503 30.4234 542.133 32.9677V32.9677ZM532.497 25.6427C530.368 25.495 528.252 26.0796 526.503 27.2986C526.167 27.5369 525.847 27.796 525.544 28.0744C524.024 26.9078 522.668 25.5429 521.513 24.0165L521.123 23.4646C525.034 23.1662 529.665 23.5093 532.497 25.6427V25.6427ZM521.063 25.6427C522.012 26.8886 523.109 28.0157 524.33 28.9994L524.015 28.88C520.863 27.6395 517.402 27.4049 514.11 28.2087C513.809 27.8758 513.478 27.5712 513.121 27.2986C512.231 26.6441 511.208 26.1909 510.124 25.9709C512.473 25.1484 514.883 24.51 517.332 24.0613C518.036 23.927 518.831 23.7928 519.685 23.6883C520.134 24.3149 520.674 25.0012 521.078 25.583L521.063 25.6427ZM497.297 30.3271C497.112 29.51 497.092 28.6645 497.239 27.8397C497.385 27.015 497.695 26.2275 498.151 25.5233C499.11 24.3448 501.148 24.0315 502.422 23.4944C505.419 22.1368 506.917 18.4668 510.154 17.706C513.945 16.8258 516.583 19.5708 518.756 22.4501C514.604 22.9702 510.559 24.133 506.767 25.8963C505.435 26.1387 504.178 26.6888 503.098 27.5023C502.018 28.3159 501.145 29.3702 500.548 30.5808C500.511 30.6705 500.492 30.767 500.493 30.8643C500.495 30.9617 500.517 31.0576 500.558 31.146C500.599 31.2344 500.658 31.3133 500.731 31.3778C500.804 31.4423 500.89 31.491 500.983 31.5206C500.107 32.05 499.302 32.6865 498.585 33.4153C498.391 33.6242 498.211 33.833 498.031 34.0419C497.881 32.7887 497.521 31.5803 497.297 30.3271ZM496.952 50.9596C497.686 52.72 498.451 54.4655 499.125 56.211L499.005 56.3751C498.187 54.6229 497.501 52.8128 496.952 50.9596V50.9596ZM473.38 86.5704C473.515 82.0948 478.265 80.23 481.772 77.7983C484.61 75.8405 487.245 73.6067 489.639 71.1296C491.981 68.6736 494.07 65.9897 495.873 63.1183C496.847 61.6264 497.806 59.9556 498.87 58.4189C499.37 59.503 499.844 60.5921 500.294 61.6861L496.068 67.3701L489.714 75.8738C487.946 78.2458 485.024 81.0654 484.964 84.1088C484.889 87.8982 488.785 89.2558 492.232 90.3001C490.924 91.9492 489.837 93.7594 488.995 95.6857C481.712 96.5062 473.125 94.6862 473.38 86.5704ZM489.864 99.5347C489.675 98.8759 489.619 98.1863 489.699 97.5058C492.864 96.8182 495.983 95.9312 499.035 94.8503C499.067 95.1279 499.067 95.4081 499.035 95.6857C498.245 96.6722 497.576 97.749 497.042 98.8932C496.949 98.9763 496.878 99.0813 496.836 99.1986C496.794 99.3158 496.783 99.4416 496.802 99.5646C496.688 99.9236 496.613 100.294 496.577 100.669C496.186 101.258 495.85 101.882 495.573 102.533C493.565 101.713 490.703 102.25 489.909 99.5944L489.864 99.5347ZM496.472 109.053C495.929 107.65 495.814 106.119 496.143 104.652C496.245 104.799 496.335 104.953 496.413 105.114C497.192 106.755 496.787 108.799 497.447 110.515C497.447 110.664 497.581 110.783 497.641 110.918C497.165 110.363 496.785 109.732 496.517 109.053H496.472ZM503.725 126.851C502.519 125.713 501.719 124.214 501.448 122.581C501.178 120.949 501.451 119.273 502.227 117.81C502.512 117.243 502.841 116.676 503.171 116.124C505.988 118.138 507.666 120.421 505.718 123.927C505.134 124.986 504.43 125.941 503.83 126.91L503.725 126.851ZM521.858 124.956C517.362 128.79 510.529 131.774 505.149 127.94C505.898 126.373 506.917 124.747 507.412 123.464C507.82 122.499 507.99 121.45 507.906 120.406C508.846 121.49 510.029 122.339 511.359 122.883C512.689 123.428 514.13 123.652 515.564 123.539C516.371 124.011 517.281 124.282 518.216 124.33C519.646 124.309 521.042 123.894 522.249 123.13C523.455 122.366 524.425 121.284 525.049 120.003C525.94 119.184 526.699 118.233 527.297 117.183C527.56 118.163 528.053 119.067 528.735 119.819C529.418 120.571 530.271 121.151 531.223 121.51C527.777 121.441 524.431 122.672 521.858 124.956ZM528.601 117.228C528.387 116.742 528.202 116.244 528.047 115.736C528.179 115.389 528.294 115.036 528.391 114.677C528.946 114.677 529.53 114.677 530.114 114.603C532.065 114.394 533.952 113.79 535.659 112.827C535.824 113.2 535.974 113.558 536.109 113.931C536.792 115.271 536.922 116.824 536.468 118.258C534.64 121.853 529.995 120.346 528.601 117.228ZM547.078 108.277C546.299 114.632 543.167 120.839 535.554 121.525C539.121 120.033 537.772 115.438 536.633 112.29C538.589 111.057 540.149 109.291 541.129 107.203C541.676 105.886 541.922 104.464 541.848 103.041C543.984 101.094 545.447 98.5247 546.029 95.7006C547.337 95.13 548.586 94.4356 549.76 93.6269C547.497 97.9832 547.527 104.532 547.078 108.202V108.277ZM547.273 94.1043C546.928 94.2834 546.568 94.4325 546.194 94.5817C546.725 92.0152 546.981 89.3997 546.958 86.7793C547.986 86.1419 548.843 85.2661 549.456 84.2268C550.069 83.1875 550.421 82.0158 550.48 80.8118C552.023 85.8096 553.342 90.9863 547.273 94.0297V94.1043Z" fill="#7F3F98"/>
</svg>
