<svg width="600" height="156" viewBox="0 0 600 156" fill="none" xmlns="http://www.w3.org/2000/svg">
<path d="M1.232 91.832H6.656C7.584 91.832 8.304 92.0933 8.816 92.616C9.33867 93.1387 9.6 93.832 9.6 94.696C9.6 95.1227 9.54133 95.4853 9.424 95.784C9.31733 96.0827 9.168 96.328 8.976 96.52C8.79467 96.712 8.576 96.856 8.32 96.952C8.07467 97.0373 7.808 97.0853 7.52 97.096V97.192C7.78667 97.192 8.064 97.24 8.352 97.336C8.65067 97.432 8.92267 97.5867 9.168 97.8C9.41333 98.0027 9.616 98.2693 9.776 98.6C9.94667 98.9307 10.032 99.336 10.032 99.816C10.032 100.253 9.95733 100.669 9.808 101.064C9.66933 101.448 9.472 101.784 9.216 102.072C8.96 102.36 8.656 102.589 8.304 102.76C7.952 102.92 7.568 103 7.152 103H1.232V91.832ZM3.664 100.952H6.464C6.784 100.952 7.03467 100.867 7.216 100.696C7.408 100.515 7.504 100.264 7.504 99.944V99.4C7.504 99.08 7.408 98.8347 7.216 98.664C7.03467 98.4827 6.784 98.392 6.464 98.392H3.664V100.952ZM3.664 96.408H6.08C6.4 96.408 6.65067 96.3173 6.832 96.136C7.01333 95.9547 7.104 95.704 7.104 95.384V94.904C7.104 94.584 7.01333 94.3333 6.832 94.152C6.65067 93.9707 6.4 93.88 6.08 93.88H3.664V96.408ZM15.1839 103.192C14.5652 103.192 14.0105 103.091 13.5199 102.888C13.0399 102.685 12.6292 102.392 12.2879 102.008C11.9572 101.624 11.7012 101.16 11.5199 100.616C11.3385 100.072 11.2479 99.464 11.2479 98.792C11.2479 98.12 11.3385 97.512 11.5199 96.968C11.7012 96.424 11.9572 95.9653 12.2879 95.592C12.6292 95.208 13.0399 94.9147 13.5199 94.712C14.0105 94.5093 14.5652 94.408 15.1839 94.408C15.8025 94.408 16.3519 94.5093 16.8319 94.712C17.3225 94.9147 17.7332 95.208 18.0639 95.592C18.4052 95.9653 18.6665 96.424 18.8479 96.968C19.0292 97.512 19.1199 98.12 19.1199 98.792C19.1199 99.464 19.0292 100.072 18.8479 100.616C18.6665 101.16 18.4052 101.624 18.0639 102.008C17.7332 102.392 17.3225 102.685 16.8319 102.888C16.3519 103.091 15.8025 103.192 15.1839 103.192ZM15.1839 101.32C15.6532 101.32 16.0159 101.176 16.2719 100.888C16.5279 100.6 16.6559 100.189 16.6559 99.656V97.944C16.6559 97.4107 16.5279 97 16.2719 96.712C16.0159 96.424 15.6532 96.28 15.1839 96.28C14.7145 96.28 14.3519 96.424 14.0959 96.712C13.8399 97 13.7119 97.4107 13.7119 97.944V99.656C13.7119 100.189 13.8399 100.6 14.0959 100.888C14.3519 101.176 14.7145 101.32 15.1839 101.32ZM24.2151 103.192C23.5965 103.192 23.0418 103.091 22.5511 102.888C22.0711 102.685 21.6605 102.392 21.3191 102.008C20.9885 101.624 20.7325 101.16 20.5511 100.616C20.3698 100.072 20.2791 99.464 20.2791 98.792C20.2791 98.12 20.3698 97.512 20.5511 96.968C20.7325 96.424 20.9885 95.9653 21.3191 95.592C21.6605 95.208 22.0711 94.9147 22.5511 94.712C23.0418 94.5093 23.5965 94.408 24.2151 94.408C24.8338 94.408 25.3831 94.5093 25.8631 94.712C26.3538 94.9147 26.7645 95.208 27.0951 95.592C27.4365 95.9653 27.6978 96.424 27.8791 96.968C28.0605 97.512 28.1511 98.12 28.1511 98.792C28.1511 99.464 28.0605 100.072 27.8791 100.616C27.6978 101.16 27.4365 101.624 27.0951 102.008C26.7645 102.392 26.3538 102.685 25.8631 102.888C25.3831 103.091 24.8338 103.192 24.2151 103.192ZM24.2151 101.32C24.6845 101.32 25.0471 101.176 25.3031 100.888C25.5591 100.6 25.6871 100.189 25.6871 99.656V97.944C25.6871 97.4107 25.5591 97 25.3031 96.712C25.0471 96.424 24.6845 96.28 24.2151 96.28C23.7458 96.28 23.3831 96.424 23.1271 96.712C22.8711 97 22.7431 97.4107 22.7431 97.944V99.656C22.7431 100.189 22.8711 100.6 23.1271 100.888C23.3831 101.176 23.7458 101.32 24.2151 101.32ZM29.8384 91.16H32.2064V98.152H32.3024L33.3424 96.6L35.0224 94.6H37.6464L34.8464 97.816L37.9664 103H35.1504L33.2624 99.448L32.2064 100.632V103H29.8384V91.16ZM40.2568 93.704C39.7768 93.704 39.4248 93.5973 39.2008 93.384C38.9874 93.16 38.8808 92.8773 38.8808 92.536V92.184C38.8808 91.8427 38.9874 91.5653 39.2008 91.352C39.4248 91.128 39.7768 91.016 40.2568 91.016C40.7368 91.016 41.0834 91.128 41.2968 91.352C41.5208 91.5653 41.6328 91.8427 41.6328 92.184V92.536C41.6328 92.8773 41.5208 93.16 41.2968 93.384C41.0834 93.5973 40.7368 93.704 40.2568 93.704ZM39.0728 94.6H41.4408V103H39.0728V94.6ZM43.6509 103V94.6H46.0189V96.024H46.1149C46.2642 95.5867 46.5255 95.208 46.8989 94.888C47.2722 94.568 47.7895 94.408 48.4509 94.408C49.3149 94.408 49.9655 94.696 50.4029 95.272C50.8509 95.848 51.0749 96.6693 51.0749 97.736V103H48.7069V97.928C48.7069 97.384 48.6215 96.984 48.4509 96.728C48.2802 96.4613 47.9762 96.328 47.5389 96.328C47.3469 96.328 47.1602 96.3547 46.9789 96.408C46.7975 96.4507 46.6322 96.5253 46.4829 96.632C46.3442 96.7387 46.2322 96.872 46.1469 97.032C46.0615 97.1813 46.0189 97.3573 46.0189 97.56V103H43.6509ZM60.9581 103.608C60.9581 104.056 60.8781 104.451 60.7181 104.792C60.5688 105.133 60.3181 105.421 59.9661 105.656C59.6141 105.901 59.1448 106.083 58.5581 106.2C57.9821 106.328 57.2675 106.392 56.4141 106.392C55.6888 106.392 55.0701 106.344 54.5581 106.248C54.0568 106.163 53.6461 106.035 53.3261 105.864C53.0168 105.704 52.7875 105.501 52.6381 105.256C52.4995 105.021 52.4301 104.749 52.4301 104.44C52.4301 103.971 52.5688 103.603 52.8461 103.336C53.1235 103.069 53.5075 102.904 53.9981 102.84V102.664C53.5928 102.589 53.2888 102.419 53.0861 102.152C52.8835 101.875 52.7821 101.555 52.7821 101.192C52.7821 100.968 52.8248 100.776 52.9101 100.616C53.0061 100.445 53.1235 100.301 53.2621 100.184C53.4115 100.056 53.5821 99.9547 53.7741 99.88C53.9661 99.8053 54.1581 99.7467 54.3501 99.704V99.64C53.8381 99.4053 53.4595 99.0853 53.2141 98.68C52.9688 98.264 52.8461 97.784 52.8461 97.24C52.8461 96.3867 53.1395 95.704 53.7261 95.192C54.3235 94.6693 55.2301 94.408 56.4461 94.408C57.0008 94.408 57.4755 94.4613 57.8701 94.568V94.248C57.8701 93.8 57.9768 93.48 58.1901 93.288C58.4141 93.0853 58.7288 92.984 59.1341 92.984H60.4621V94.744H58.6061V94.84C59.0968 95.0747 59.4595 95.4 59.6941 95.816C59.9288 96.2213 60.0461 96.696 60.0461 97.24C60.0461 98.0827 59.7475 98.76 59.1501 99.272C58.5635 99.7733 57.6621 100.024 56.4461 100.024C55.9021 100.024 55.4061 99.9653 54.9581 99.848C54.7128 100.008 54.5901 100.232 54.5901 100.52C54.5901 100.723 54.6648 100.883 54.8141 101C54.9741 101.107 55.2355 101.16 55.5981 101.16H58.0301C59.0541 101.16 59.7955 101.373 60.2541 101.8C60.7235 102.227 60.9581 102.829 60.9581 103.608ZM58.7341 103.928C58.7341 103.683 58.6381 103.496 58.4461 103.368C58.2541 103.24 57.9181 103.176 57.4381 103.176H54.5581C54.4515 103.283 54.3715 103.4 54.3181 103.528C54.2755 103.667 54.2541 103.8 54.2541 103.928C54.2541 104.237 54.3875 104.461 54.6541 104.6C54.9208 104.749 55.3741 104.824 56.0141 104.824H56.9741C57.6141 104.824 58.0675 104.749 58.3341 104.6C58.6008 104.461 58.7341 104.237 58.7341 103.928ZM56.4461 98.472C56.9155 98.472 57.2621 98.376 57.4861 98.184C57.7208 97.9813 57.8381 97.6933 57.8381 97.32V97.128C57.8381 96.7547 57.7208 96.472 57.4861 96.28C57.2621 96.0773 56.9155 95.976 56.4461 95.976C55.9768 95.976 55.6248 96.0773 55.3901 96.28C55.1661 96.472 55.0541 96.7547 55.0541 97.128V97.32C55.0541 97.6933 55.1661 97.9813 55.3901 98.184C55.6248 98.376 55.9768 98.472 56.4461 98.472ZM64.8583 103.192C64.0476 103.192 63.3649 103.064 62.8103 102.808C62.2556 102.541 61.7596 102.168 61.3223 101.688L62.7143 100.28C63.0129 100.611 63.3436 100.872 63.7063 101.064C64.0689 101.256 64.4796 101.352 64.9383 101.352C65.4076 101.352 65.7329 101.283 65.9143 101.144C66.0956 100.995 66.1863 100.797 66.1863 100.552C66.1863 100.157 65.9036 99.9227 65.3383 99.848L64.4263 99.736C62.5383 99.5013 61.5943 98.6373 61.5943 97.144C61.5943 96.7387 61.6689 96.3707 61.8183 96.04C61.9783 95.6987 62.1969 95.4107 62.4743 95.176C62.7623 94.9307 63.1036 94.744 63.4983 94.616C63.9036 94.4773 64.3569 94.408 64.8583 94.408C65.2956 94.408 65.6796 94.44 66.0103 94.504C66.3516 94.5573 66.6503 94.6427 66.9063 94.76C67.1729 94.8667 67.4129 95.0053 67.6263 95.176C67.8503 95.336 68.0689 95.5173 68.2823 95.72L66.9223 97.112C66.6556 96.8453 66.3516 96.6373 66.0103 96.488C65.6796 96.328 65.3383 96.248 64.9863 96.248C64.5809 96.248 64.2929 96.312 64.1223 96.44C63.9516 96.568 63.8663 96.7387 63.8663 96.952C63.8663 97.176 63.9249 97.352 64.0423 97.48C64.1703 97.5973 64.4049 97.6827 64.7463 97.736L65.6903 97.864C67.5356 98.1093 68.4583 98.952 68.4583 100.392C68.4583 100.797 68.3729 101.171 68.2023 101.512C68.0316 101.853 67.7863 102.152 67.4663 102.408C67.1569 102.653 66.7783 102.845 66.3303 102.984C65.8929 103.123 65.4023 103.192 64.8583 103.192Z" fill="#CBD5E0"/>
<path d="M5.744 143.192C4.98667 143.192 4.304 143.075 3.696 142.84C3.088 142.595 2.57067 142.237 2.144 141.768C1.71733 141.288 1.38667 140.696 1.152 139.992C0.917333 139.277 0.8 138.445 0.8 137.496C0.8 136.557 0.917333 135.725 1.152 135C1.38667 134.264 1.71733 133.651 2.144 133.16C2.57067 132.659 3.088 132.28 3.696 132.024C4.304 131.768 4.98667 131.64 5.744 131.64C6.77867 131.64 7.632 131.853 8.304 132.28C8.976 132.696 9.51467 133.357 9.92 134.264L7.824 135.352C7.67467 134.883 7.44 134.509 7.12 134.232C6.81067 133.944 6.352 133.8 5.744 133.8C5.02933 133.8 4.45333 134.035 4.016 134.504C3.58933 134.963 3.376 135.635 3.376 136.52V138.312C3.376 139.197 3.58933 139.875 4.016 140.344C4.45333 140.803 5.02933 141.032 5.744 141.032C6.34133 141.032 6.816 140.872 7.168 140.552C7.53067 140.221 7.79733 139.827 7.968 139.368L9.952 140.52C9.536 141.373 8.98667 142.035 8.304 142.504C7.632 142.963 6.77867 143.192 5.744 143.192ZM17.7339 143C17.3072 143 16.9499 142.867 16.6619 142.6C16.3845 142.333 16.2085 141.976 16.1339 141.528H16.0379C15.9099 142.072 15.6272 142.488 15.1899 142.776C14.7525 143.053 14.2139 143.192 13.5739 143.192C12.7312 143.192 12.0859 142.968 11.6379 142.52C11.1899 142.072 10.9659 141.48 10.9659 140.744C10.9659 139.859 11.2859 139.203 11.9259 138.776C12.5765 138.339 13.4565 138.12 14.5659 138.12H15.8939V137.592C15.8939 137.187 15.7872 136.867 15.5739 136.632C15.3605 136.387 15.0032 136.264 14.5019 136.264C14.0325 136.264 13.6592 136.365 13.3819 136.568C13.1045 136.771 12.8752 137 12.6939 137.256L11.2859 136.008C11.6272 135.507 12.0539 135.117 12.5659 134.84C13.0885 134.552 13.7925 134.408 14.6779 134.408C15.8725 134.408 16.7685 134.669 17.3659 135.192C17.9632 135.715 18.2619 136.477 18.2619 137.48V141.16H19.0459V143H17.7339ZM14.4539 141.544C14.8485 141.544 15.1845 141.459 15.4619 141.288C15.7499 141.117 15.8939 140.84 15.8939 140.456V139.464H14.7419C13.8139 139.464 13.3499 139.779 13.3499 140.408V140.648C13.3499 140.957 13.4459 141.187 13.6379 141.336C13.8299 141.475 14.1019 141.544 14.4539 141.544ZM22.9873 143C22.1766 143 21.5793 142.803 21.1953 142.408C20.8219 142.013 20.6353 141.443 20.6353 140.696V131.16H23.0033V141.16H24.0593V143H22.9873ZM27.706 143C26.8953 143 26.298 142.803 25.914 142.408C25.5407 142.013 25.354 141.443 25.354 140.696V131.16H27.722V141.16H28.778V143H27.706ZM33.0458 143.192C32.2351 143.192 31.5524 143.064 30.9978 142.808C30.4431 142.541 29.9471 142.168 29.5098 141.688L30.9018 140.28C31.2004 140.611 31.5311 140.872 31.8938 141.064C32.2564 141.256 32.6671 141.352 33.1258 141.352C33.5951 141.352 33.9204 141.283 34.1018 141.144C34.2831 140.995 34.3738 140.797 34.3738 140.552C34.3738 140.157 34.0911 139.923 33.5258 139.848L32.6138 139.736C30.7258 139.501 29.7818 138.637 29.7818 137.144C29.7818 136.739 29.8564 136.371 30.0058 136.04C30.1658 135.699 30.3844 135.411 30.6618 135.176C30.9498 134.931 31.2911 134.744 31.6858 134.616C32.0911 134.477 32.5444 134.408 33.0458 134.408C33.4831 134.408 33.8671 134.44 34.1978 134.504C34.5391 134.557 34.8378 134.643 35.0938 134.76C35.3604 134.867 35.6004 135.005 35.8138 135.176C36.0378 135.336 36.2564 135.517 36.4698 135.72L35.1098 137.112C34.8431 136.845 34.5391 136.637 34.1978 136.488C33.8671 136.328 33.5258 136.248 33.1738 136.248C32.7684 136.248 32.4804 136.312 32.3098 136.44C32.1391 136.568 32.0538 136.739 32.0538 136.952C32.0538 137.176 32.1124 137.352 32.2298 137.48C32.3578 137.597 32.5924 137.683 32.9338 137.736L33.8778 137.864C35.7231 138.109 36.6458 138.952 36.6458 140.392C36.6458 140.797 36.5604 141.171 36.3898 141.512C36.2191 141.853 35.9738 142.152 35.6538 142.408C35.3444 142.653 34.9658 142.845 34.5178 142.984C34.0804 143.123 33.5898 143.192 33.0458 143.192Z" fill="#CBD5E0"/>
<path d="M391.488 69V57.832H398.144V59.016H392.832V62.76H397.68V63.944H392.832V69H391.488ZM399.985 69V60.744H401.265V62.264H401.345C401.494 61.8693 401.761 61.5173 402.145 61.208C402.529 60.8987 403.057 60.744 403.729 60.744H404.225V62.024H403.473C402.78 62.024 402.236 62.1573 401.841 62.424C401.457 62.68 401.265 63.0053 401.265 63.4V69H399.985ZM406.5 58.808C406.223 58.808 406.02 58.744 405.892 58.616C405.775 58.4773 405.716 58.3013 405.716 58.088V57.88C405.716 57.6667 405.775 57.496 405.892 57.368C406.02 57.2293 406.223 57.16 406.5 57.16C406.777 57.16 406.975 57.2293 407.092 57.368C407.22 57.496 407.284 57.6667 407.284 57.88V58.088C407.284 58.3013 407.22 58.4773 407.092 58.616C406.975 58.744 406.777 58.808 406.5 58.808ZM405.86 60.744H407.14V69H405.86V60.744ZM410.676 69.192C410.335 69.192 410.084 69.1067 409.924 68.936C409.775 68.7653 409.7 68.5413 409.7 68.264V68.056C409.7 67.7787 409.775 67.5547 409.924 67.384C410.084 67.2133 410.335 67.128 410.676 67.128C411.017 67.128 411.263 67.2133 411.412 67.384C411.572 67.5547 411.652 67.7787 411.652 68.056V68.264C411.652 68.5413 411.572 68.7653 411.412 68.936C411.263 69.1067 411.017 69.192 410.676 69.192Z" fill="#CBD5E0"/>
<path d="M325.248 59.016V69H323.904V59.016H320.352V57.832H328.8V59.016H325.248ZM330.516 57.16H331.796V62.088H331.86C332.063 61.6187 332.346 61.2453 332.708 60.968C333.082 60.6907 333.578 60.552 334.196 60.552C335.05 60.552 335.722 60.8293 336.212 61.384C336.714 61.928 336.964 62.7013 336.964 63.704V69H335.684V63.928C335.684 62.4453 335.06 61.704 333.812 61.704C333.556 61.704 333.306 61.736 333.06 61.8C332.826 61.864 332.612 61.96 332.42 62.088C332.228 62.216 332.074 62.3813 331.956 62.584C331.85 62.776 331.796 63.0053 331.796 63.272V69H330.516V57.16ZM344.698 67.656H344.634C344.549 67.848 344.442 68.04 344.314 68.232C344.197 68.4133 344.047 68.5787 343.866 68.728C343.685 68.8667 343.466 68.9787 343.21 69.064C342.954 69.1493 342.655 69.192 342.314 69.192C341.461 69.192 340.783 68.92 340.282 68.376C339.781 67.8213 339.53 67.0427 339.53 66.04V60.744H340.81V65.816C340.81 67.2987 341.439 68.04 342.698 68.04C342.954 68.04 343.199 68.008 343.434 67.944C343.679 67.88 343.893 67.784 344.074 67.656C344.266 67.528 344.415 67.368 344.522 67.176C344.639 66.9733 344.698 66.7333 344.698 66.456V60.744H345.978V69H344.698V67.656ZM348.704 69V60.744H349.984V62.264H350.064C350.213 61.8693 350.48 61.5173 350.864 61.208C351.248 60.8987 351.776 60.744 352.448 60.744H352.944V62.024H352.192C351.498 62.024 350.954 62.1573 350.56 62.424C350.176 62.68 349.984 63.0053 349.984 63.4V69H348.704ZM357.059 69.192C356.291 69.192 355.645 69.048 355.123 68.76C354.611 68.4613 354.168 68.0667 353.795 67.576L354.707 66.84C355.027 67.2453 355.384 67.56 355.779 67.784C356.173 67.9973 356.632 68.104 357.155 68.104C357.699 68.104 358.12 67.9867 358.419 67.752C358.728 67.5173 358.883 67.1867 358.883 66.76C358.883 66.44 358.776 66.168 358.563 65.944C358.36 65.7093 357.987 65.5493 357.443 65.464L356.787 65.368C356.403 65.3147 356.051 65.2347 355.731 65.128C355.411 65.0107 355.128 64.8613 354.883 64.68C354.648 64.488 354.461 64.2533 354.323 63.976C354.195 63.6987 354.131 63.368 354.131 62.984C354.131 62.5787 354.205 62.2267 354.355 61.928C354.504 61.6187 354.707 61.3627 354.963 61.16C355.229 60.9573 355.544 60.808 355.907 60.712C356.269 60.6053 356.659 60.552 357.075 60.552C357.747 60.552 358.307 60.6693 358.755 60.904C359.213 61.1387 359.613 61.464 359.955 61.88L359.107 62.648C358.925 62.392 358.659 62.1627 358.307 61.96C357.955 61.7467 357.512 61.64 356.979 61.64C356.445 61.64 356.04 61.7573 355.763 61.992C355.496 62.216 355.363 62.5253 355.363 62.92C355.363 63.3253 355.496 63.6187 355.763 63.8C356.04 63.9813 356.435 64.1147 356.947 64.2L357.587 64.296C358.504 64.4347 359.155 64.7013 359.539 65.096C359.923 65.48 360.115 65.9867 360.115 66.616C360.115 67.416 359.843 68.0453 359.299 68.504C358.755 68.9627 358.008 69.192 357.059 69.192ZM363.114 69.192C362.772 69.192 362.522 69.1067 362.362 68.936C362.212 68.7653 362.138 68.5413 362.138 68.264V68.056C362.138 67.7787 362.212 67.5547 362.362 67.384C362.522 67.2133 362.772 67.128 363.114 67.128C363.455 67.128 363.7 67.2133 363.85 67.384C364.01 67.5547 364.09 67.7787 364.09 68.056V68.264C364.09 68.5413 364.01 68.7653 363.85 68.936C363.7 69.1067 363.455 69.192 363.114 69.192Z" fill="#CBD5E0"/>
<path d="M464.624 69.192C463.717 69.192 462.944 69.0213 462.304 68.68C461.664 68.328 461.12 67.848 460.672 67.24L461.664 66.408C462.059 66.9307 462.496 67.3307 462.976 67.608C463.456 67.8747 464.021 68.008 464.672 68.008C465.472 68.008 466.08 67.816 466.496 67.432C466.923 67.048 467.136 66.536 467.136 65.896C467.136 65.3627 466.976 64.952 466.656 64.664C466.336 64.376 465.808 64.1467 465.072 63.976L464.16 63.768C463.136 63.5333 462.352 63.1813 461.808 62.712C461.275 62.232 461.008 61.56 461.008 60.696C461.008 60.2053 461.099 59.768 461.28 59.384C461.461 59 461.712 58.68 462.032 58.424C462.363 58.168 462.752 57.976 463.2 57.848C463.659 57.7093 464.16 57.64 464.704 57.64C465.547 57.64 466.267 57.7947 466.864 58.104C467.472 58.4133 467.984 58.8667 468.4 59.464L467.392 60.2C467.083 59.7733 466.709 59.4373 466.272 59.192C465.835 58.9467 465.291 58.824 464.64 58.824C463.925 58.824 463.36 58.9787 462.944 59.288C462.539 59.5867 462.336 60.04 462.336 60.648C462.336 61.1813 462.507 61.5867 462.848 61.864C463.2 62.1307 463.728 62.344 464.432 62.504L465.344 62.712C466.443 62.9573 467.237 63.3307 467.728 63.832C468.219 64.3333 468.464 65 468.464 65.832C468.464 66.344 468.373 66.808 468.192 67.224C468.021 67.64 467.771 67.992 467.44 68.28C467.109 68.568 466.704 68.792 466.224 68.952C465.755 69.112 465.221 69.192 464.624 69.192ZM476.657 69C476.177 69 475.83 68.872 475.617 68.616C475.414 68.36 475.286 68.04 475.233 67.656H475.153C474.972 68.168 474.673 68.552 474.257 68.808C473.841 69.064 473.345 69.192 472.769 69.192C471.894 69.192 471.212 68.968 470.721 68.52C470.241 68.072 470.001 67.464 470.001 66.696C470.001 65.9173 470.284 65.32 470.849 64.904C471.425 64.488 472.316 64.28 473.521 64.28H475.153V63.464C475.153 62.8773 474.993 62.4293 474.673 62.12C474.353 61.8107 473.862 61.656 473.201 61.656C472.7 61.656 472.278 61.768 471.937 61.992C471.606 62.216 471.329 62.5147 471.105 62.888L470.337 62.168C470.561 61.72 470.918 61.3413 471.409 61.032C471.9 60.712 472.518 60.552 473.265 60.552C474.268 60.552 475.046 60.7973 475.601 61.288C476.156 61.7787 476.433 62.4613 476.433 63.336V67.88H477.377V69H476.657ZM472.977 68.104C473.297 68.104 473.59 68.0667 473.857 67.992C474.124 67.9173 474.353 67.8107 474.545 67.672C474.737 67.5333 474.886 67.3733 474.993 67.192C475.1 67.0107 475.153 66.8133 475.153 66.6V65.24H473.457C472.721 65.24 472.182 65.3467 471.841 65.56C471.51 65.7733 471.345 66.0827 471.345 66.488V66.824C471.345 67.2293 471.489 67.544 471.777 67.768C472.076 67.992 472.476 68.104 472.977 68.104ZM481.028 69C480.58 69 480.238 68.8773 480.004 68.632C479.78 68.376 479.668 68.0453 479.668 67.64V61.864H478.308V60.744H479.076C479.353 60.744 479.54 60.6907 479.636 60.584C479.742 60.4667 479.796 60.2693 479.796 59.992V58.456H480.948V60.744H482.756V61.864H480.948V67.88H482.628V69H481.028ZM485.629 69.192C485.288 69.192 485.037 69.1067 484.877 68.936C484.728 68.7653 484.653 68.5413 484.653 68.264V68.056C484.653 67.7787 484.728 67.5547 484.877 67.384C485.037 67.2133 485.288 67.128 485.629 67.128C485.97 67.128 486.216 67.2133 486.365 67.384C486.525 67.5547 486.605 67.7787 486.605 68.056V68.264C486.605 68.5413 486.525 68.7653 486.365 68.936C486.216 69.1067 485.97 69.192 485.629 69.192Z" fill="#CBD5E0"/>
<path d="M534.624 69.192C533.717 69.192 532.944 69.0213 532.304 68.68C531.664 68.328 531.12 67.848 530.672 67.24L531.664 66.408C532.059 66.9307 532.496 67.3307 532.976 67.608C533.456 67.8747 534.021 68.008 534.672 68.008C535.472 68.008 536.08 67.816 536.496 67.432C536.923 67.048 537.136 66.536 537.136 65.896C537.136 65.3627 536.976 64.952 536.656 64.664C536.336 64.376 535.808 64.1467 535.072 63.976L534.16 63.768C533.136 63.5333 532.352 63.1813 531.808 62.712C531.275 62.232 531.008 61.56 531.008 60.696C531.008 60.2053 531.099 59.768 531.28 59.384C531.461 59 531.712 58.68 532.032 58.424C532.363 58.168 532.752 57.976 533.2 57.848C533.659 57.7093 534.16 57.64 534.704 57.64C535.547 57.64 536.267 57.7947 536.864 58.104C537.472 58.4133 537.984 58.8667 538.4 59.464L537.392 60.2C537.083 59.7733 536.709 59.4373 536.272 59.192C535.835 58.9467 535.291 58.824 534.64 58.824C533.925 58.824 533.36 58.9787 532.944 59.288C532.539 59.5867 532.336 60.04 532.336 60.648C532.336 61.1813 532.507 61.5867 532.848 61.864C533.2 62.1307 533.728 62.344 534.432 62.504L535.344 62.712C536.443 62.9573 537.237 63.3307 537.728 63.832C538.219 64.3333 538.464 65 538.464 65.832C538.464 66.344 538.373 66.808 538.192 67.224C538.021 67.64 537.771 67.992 537.44 68.28C537.109 68.568 536.704 68.792 536.224 68.952C535.755 69.112 535.221 69.192 534.624 69.192ZM545.745 67.656H545.681C545.596 67.848 545.489 68.04 545.361 68.232C545.244 68.4133 545.094 68.5787 544.913 68.728C544.732 68.8667 544.513 68.9787 544.257 69.064C544.001 69.1493 543.702 69.192 543.361 69.192C542.508 69.192 541.83 68.92 541.329 68.376C540.828 67.8213 540.577 67.0427 540.577 66.04V60.744H541.857V65.816C541.857 67.2987 542.486 68.04 543.745 68.04C544.001 68.04 544.246 68.008 544.481 67.944C544.726 67.88 544.94 67.784 545.121 67.656C545.313 67.528 545.462 67.368 545.569 67.176C545.686 66.9733 545.745 66.7333 545.745 66.456V60.744H547.025V69H545.745V67.656ZM549.751 69V60.744H551.031V62.088H551.095C551.297 61.6187 551.58 61.2453 551.943 60.968C552.316 60.6907 552.812 60.552 553.431 60.552C554.284 60.552 554.956 60.8293 555.447 61.384C555.948 61.928 556.199 62.7013 556.199 63.704V69H554.919V63.928C554.919 62.4453 554.295 61.704 553.047 61.704C552.791 61.704 552.54 61.736 552.295 61.8C552.06 61.864 551.847 61.96 551.655 62.088C551.463 62.216 551.308 62.3813 551.191 62.584C551.084 62.776 551.031 63.0053 551.031 63.272V69H549.751ZM559.66 69.192C559.319 69.192 559.068 69.1067 558.908 68.936C558.759 68.7653 558.684 68.5413 558.684 68.264V68.056C558.684 67.7787 558.759 67.5547 558.908 67.384C559.068 67.2133 559.319 67.128 559.66 67.128C560.002 67.128 560.247 67.2133 560.396 67.384C560.556 67.5547 560.636 67.7787 560.636 68.056V68.264C560.636 68.5413 560.556 68.7653 560.396 68.936C560.247 69.1067 560.002 69.192 559.66 69.192Z" fill="#CBD5E0"/>
<path d="M120.192 59.592H120.112L119.168 61.464L116.496 66.328L113.824 61.464L112.88 59.592H112.8V69H111.488V57.832H113.28L116.48 63.848H116.56L119.776 57.832H121.504V69H120.192V59.592ZM127.464 69.192C126.91 69.192 126.403 69.0907 125.944 68.888C125.486 68.6853 125.091 68.3973 124.76 68.024C124.44 67.64 124.19 67.1867 124.008 66.664C123.827 66.1307 123.736 65.5333 123.736 64.872C123.736 64.2213 123.827 63.6293 124.008 63.096C124.19 62.5627 124.44 62.1093 124.76 61.736C125.091 61.352 125.486 61.0587 125.944 60.856C126.403 60.6533 126.91 60.552 127.464 60.552C128.019 60.552 128.52 60.6533 128.968 60.856C129.427 61.0587 129.822 61.352 130.152 61.736C130.483 62.1093 130.739 62.5627 130.92 63.096C131.102 63.6293 131.192 64.2213 131.192 64.872C131.192 65.5333 131.102 66.1307 130.92 66.664C130.739 67.1867 130.483 67.64 130.152 68.024C129.822 68.3973 129.427 68.6853 128.968 68.888C128.52 69.0907 128.019 69.192 127.464 69.192ZM127.464 68.056C128.158 68.056 128.723 67.8427 129.16 67.416C129.598 66.9893 129.816 66.3387 129.816 65.464V64.28C129.816 63.4053 129.598 62.7547 129.16 62.328C128.723 61.9013 128.158 61.688 127.464 61.688C126.771 61.688 126.206 61.9013 125.768 62.328C125.331 62.7547 125.112 63.4053 125.112 64.28V65.464C125.112 66.3387 125.331 66.9893 125.768 67.416C126.206 67.8427 126.771 68.056 127.464 68.056ZM133.298 69V60.744H134.578V62.088H134.642C134.844 61.6187 135.127 61.2453 135.49 60.968C135.863 60.6907 136.359 60.552 136.978 60.552C137.831 60.552 138.503 60.8293 138.994 61.384C139.495 61.928 139.746 62.7013 139.746 63.704V69H138.466V63.928C138.466 62.4453 137.842 61.704 136.594 61.704C136.338 61.704 136.087 61.736 135.842 61.8C135.607 61.864 135.394 61.96 135.202 62.088C135.01 62.216 134.855 62.3813 134.738 62.584C134.631 62.776 134.578 63.0053 134.578 63.272V69H133.298ZM143.207 69.192C142.866 69.192 142.615 69.1067 142.455 68.936C142.306 68.7653 142.231 68.5413 142.231 68.264V68.056C142.231 67.7787 142.306 67.5547 142.455 67.384C142.615 67.2133 142.866 67.128 143.207 67.128C143.549 67.128 143.794 67.2133 143.943 67.384C144.103 67.5547 144.183 67.7787 144.183 68.056V68.264C144.183 68.5413 144.103 68.7653 143.943 68.936C143.794 69.1067 143.549 69.192 143.207 69.192Z" fill="#CBD5E0"/>
<path d="M253.04 69L250.32 57.832H251.744L252.944 63.208L253.872 67.384H253.904L254.944 63.208L256.352 57.832H257.888L259.248 63.208L260.288 67.368H260.336L261.296 63.208L262.56 57.832H263.936L261.072 69H259.584L258.128 63.432L257.104 59.336H257.072L256.016 63.432L254.528 69H253.04ZM268.48 69.192C267.914 69.192 267.402 69.0907 266.944 68.888C266.496 68.6853 266.106 68.3973 265.776 68.024C265.456 67.64 265.205 67.1867 265.024 66.664C264.853 66.1307 264.768 65.5333 264.768 64.872C264.768 64.2213 264.853 63.6293 265.024 63.096C265.205 62.5627 265.456 62.1093 265.776 61.736C266.106 61.352 266.496 61.0587 266.944 60.856C267.402 60.6533 267.914 60.552 268.48 60.552C269.034 60.552 269.53 60.6533 269.968 60.856C270.405 61.0587 270.778 61.3413 271.088 61.704C271.397 62.056 271.632 62.4773 271.792 62.968C271.962 63.4587 272.048 63.9973 272.048 64.584V65.192H266.112V65.576C266.112 65.928 266.165 66.2587 266.272 66.568C266.389 66.8667 266.549 67.128 266.752 67.352C266.965 67.576 267.221 67.752 267.52 67.88C267.829 68.008 268.176 68.072 268.56 68.072C269.082 68.072 269.536 67.9493 269.92 67.704C270.314 67.4587 270.618 67.1067 270.832 66.648L271.744 67.304C271.477 67.8693 271.061 68.328 270.496 68.68C269.93 69.0213 269.258 69.192 268.48 69.192ZM268.48 61.624C268.128 61.624 267.808 61.688 267.52 61.816C267.232 61.9333 266.981 62.104 266.768 62.328C266.565 62.552 266.405 62.8187 266.288 63.128C266.17 63.4267 266.112 63.7573 266.112 64.12V64.232H270.672V64.056C270.672 63.32 270.469 62.7333 270.064 62.296C269.669 61.848 269.141 61.624 268.48 61.624ZM279.437 67.656H279.373C278.872 68.68 278.066 69.192 276.957 69.192C276.445 69.192 275.981 69.0907 275.565 68.888C275.149 68.6853 274.792 68.3973 274.493 68.024C274.205 67.6507 273.981 67.1973 273.821 66.664C273.672 66.1307 273.597 65.5333 273.597 64.872C273.597 64.2107 273.672 63.6133 273.821 63.08C273.981 62.5467 274.205 62.0933 274.493 61.72C274.792 61.3467 275.149 61.0587 275.565 60.856C275.981 60.6533 276.445 60.552 276.957 60.552C277.533 60.552 278.024 60.68 278.429 60.936C278.845 61.1813 279.16 61.5653 279.373 62.088H279.437V57.16H280.717V69H279.437V67.656ZM277.309 68.04C277.597 68.04 277.869 68.0027 278.125 67.928C278.392 67.8533 278.621 67.7467 278.813 67.608C279.005 67.4587 279.154 67.2827 279.261 67.08C279.378 66.8667 279.437 66.6267 279.437 66.36V63.288C279.437 63.064 279.378 62.856 279.261 62.664C279.154 62.4613 279.005 62.2907 278.813 62.152C278.621 62.0133 278.392 61.9067 278.125 61.832C277.869 61.7467 277.597 61.704 277.309 61.704C276.584 61.704 276.013 61.9333 275.597 62.392C275.181 62.84 274.973 63.432 274.973 64.168V65.576C274.973 66.312 275.181 66.9093 275.597 67.368C276.013 67.816 276.584 68.04 277.309 68.04ZM284.254 69.192C283.913 69.192 283.662 69.1067 283.502 68.936C283.353 68.7653 283.278 68.5413 283.278 68.264V68.056C283.278 67.7787 283.353 67.5547 283.502 67.384C283.662 67.2133 283.913 67.128 284.254 67.128C284.595 67.128 284.841 67.2133 284.99 67.384C285.15 67.5547 285.23 67.7787 285.23 68.056V68.264C285.23 68.5413 285.15 68.7653 284.99 68.936C284.841 69.1067 284.595 69.192 284.254 69.192Z" fill="#CBD5E0"/>
<path d="M185.248 59.016V69H183.904V59.016H180.352V57.832H188.8V59.016H185.248ZM194.807 67.656H194.743C194.658 67.848 194.551 68.04 194.423 68.232C194.306 68.4133 194.157 68.5787 193.975 68.728C193.794 68.8667 193.575 68.9787 193.319 69.064C193.063 69.1493 192.765 69.192 192.423 69.192C191.57 69.192 190.893 68.92 190.391 68.376C189.89 67.8213 189.639 67.0427 189.639 66.04V60.744H190.919V65.816C190.919 67.2987 191.549 68.04 192.807 68.04C193.063 68.04 193.309 68.008 193.543 67.944C193.789 67.88 194.002 67.784 194.183 67.656C194.375 67.528 194.525 67.368 194.631 67.176C194.749 66.9733 194.807 66.7333 194.807 66.456V60.744H196.087V69H194.807V67.656ZM201.917 69.192C201.352 69.192 200.84 69.0907 200.381 68.888C199.933 68.6853 199.544 68.3973 199.213 68.024C198.893 67.64 198.642 67.1867 198.461 66.664C198.29 66.1307 198.205 65.5333 198.205 64.872C198.205 64.2213 198.29 63.6293 198.461 63.096C198.642 62.5627 198.893 62.1093 199.213 61.736C199.544 61.352 199.933 61.0587 200.381 60.856C200.84 60.6533 201.352 60.552 201.917 60.552C202.472 60.552 202.968 60.6533 203.405 60.856C203.842 61.0587 204.216 61.3413 204.525 61.704C204.834 62.056 205.069 62.4773 205.229 62.968C205.4 63.4587 205.485 63.9973 205.485 64.584V65.192H199.549V65.576C199.549 65.928 199.602 66.2587 199.709 66.568C199.826 66.8667 199.986 67.128 200.189 67.352C200.402 67.576 200.658 67.752 200.957 67.88C201.266 68.008 201.613 68.072 201.997 68.072C202.52 68.072 202.973 67.9493 203.357 67.704C203.752 67.4587 204.056 67.1067 204.269 66.648L205.181 67.304C204.914 67.8693 204.498 68.328 203.933 68.68C203.368 69.0213 202.696 69.192 201.917 69.192ZM201.917 61.624C201.565 61.624 201.245 61.688 200.957 61.816C200.669 61.9333 200.418 62.104 200.205 62.328C200.002 62.552 199.842 62.8187 199.725 63.128C199.608 63.4267 199.549 63.7573 199.549 64.12V64.232H204.109V64.056C204.109 63.32 203.906 62.7333 203.501 62.296C203.106 61.848 202.578 61.624 201.917 61.624ZM210.074 69.192C209.306 69.192 208.661 69.048 208.138 68.76C207.626 68.4613 207.184 68.0667 206.81 67.576L207.722 66.84C208.042 67.2453 208.4 67.56 208.794 67.784C209.189 67.9973 209.648 68.104 210.17 68.104C210.714 68.104 211.136 67.9867 211.434 67.752C211.744 67.5173 211.898 67.1867 211.898 66.76C211.898 66.44 211.792 66.168 211.578 65.944C211.376 65.7093 211.002 65.5493 210.458 65.464L209.802 65.368C209.418 65.3147 209.066 65.2347 208.746 65.128C208.426 65.0107 208.144 64.8613 207.898 64.68C207.664 64.488 207.477 64.2533 207.338 63.976C207.21 63.6987 207.146 63.368 207.146 62.984C207.146 62.5787 207.221 62.2267 207.37 61.928C207.52 61.6187 207.722 61.3627 207.978 61.16C208.245 60.9573 208.56 60.808 208.922 60.712C209.285 60.6053 209.674 60.552 210.09 60.552C210.762 60.552 211.322 60.6693 211.77 60.904C212.229 61.1387 212.629 61.464 212.97 61.88L212.122 62.648C211.941 62.392 211.674 62.1627 211.322 61.96C210.97 61.7467 210.528 61.64 209.994 61.64C209.461 61.64 209.056 61.7573 208.778 61.992C208.512 62.216 208.378 62.5253 208.378 62.92C208.378 63.3253 208.512 63.6187 208.778 63.8C209.056 63.9813 209.45 64.1147 209.962 64.2L210.602 64.296C211.52 64.4347 212.17 64.7013 212.554 65.096C212.938 65.48 213.13 65.9867 213.13 66.616C213.13 67.416 212.858 68.0453 212.314 68.504C211.77 68.9627 211.024 69.192 210.074 69.192ZM216.129 69.192C215.788 69.192 215.537 69.1067 215.377 68.936C215.228 68.7653 215.153 68.5413 215.153 68.264V68.056C215.153 67.7787 215.228 67.5547 215.377 67.384C215.537 67.2133 215.788 67.128 216.129 67.128C216.47 67.128 216.716 67.2133 216.865 67.384C217.025 67.5547 217.105 67.7787 217.105 68.056V68.264C217.105 68.5413 217.025 68.7653 216.865 68.936C216.716 69.1067 216.47 69.192 216.129 69.192Z" fill="#CBD5E0"/>
<path d="M1.386 5.436H7.488C8.532 5.436 9.342 5.73 9.918 6.318C10.506 6.906 10.8 7.686 10.8 8.658C10.8 9.138 10.734 9.546 10.602 9.882C10.482 10.218 10.314 10.494 10.098 10.71C9.894 10.926 9.648 11.088 9.36 11.196C9.084 11.292 8.784 11.346 8.46 11.358V11.466C8.76 11.466 9.072 11.52 9.396 11.628C9.732 11.736 10.038 11.91 10.314 12.15C10.59 12.378 10.818 12.678 10.998 13.05C11.19 13.422 11.286 13.878 11.286 14.418C11.286 14.91 11.202 15.378 11.034 15.822C10.878 16.254 10.656 16.632 10.368 16.956C10.08 17.28 9.738 17.538 9.342 17.73C8.946 17.91 8.514 18 8.046 18H1.386V5.436ZM4.122 15.696H7.272C7.632 15.696 7.914 15.6 8.118 15.408C8.334 15.204 8.442 14.922 8.442 14.562V13.95C8.442 13.59 8.334 13.314 8.118 13.122C7.914 12.918 7.632 12.816 7.272 12.816H4.122V15.696ZM4.122 10.584H6.84C7.2 10.584 7.482 10.482 7.686 10.278C7.89 10.074 7.992 9.792 7.992 9.432V8.892C7.992 8.532 7.89 8.25 7.686 8.046C7.482 7.842 7.2 7.74 6.84 7.74H4.122V10.584ZM17.0819 18.216C16.3859 18.216 15.7619 18.102 15.2099 17.874C14.6699 17.646 14.2079 17.316 13.8239 16.884C13.4519 16.452 13.1639 15.93 12.9599 15.318C12.7559 14.706 12.6539 14.022 12.6539 13.266C12.6539 12.51 12.7559 11.826 12.9599 11.214C13.1639 10.602 13.4519 10.086 13.8239 9.666C14.2079 9.234 14.6699 8.904 15.2099 8.676C15.7619 8.448 16.3859 8.334 17.0819 8.334C17.7779 8.334 18.3959 8.448 18.9359 8.676C19.4879 8.904 19.9499 9.234 20.3219 9.666C20.7059 10.086 20.9999 10.602 21.2039 11.214C21.4079 11.826 21.5099 12.51 21.5099 13.266C21.5099 14.022 21.4079 14.706 21.2039 15.318C20.9999 15.93 20.7059 16.452 20.3219 16.884C19.9499 17.316 19.4879 17.646 18.9359 17.874C18.3959 18.102 17.7779 18.216 17.0819 18.216ZM17.0819 16.11C17.6099 16.11 18.0179 15.948 18.3059 15.624C18.5939 15.3 18.7379 14.838 18.7379 14.238V12.312C18.7379 11.712 18.5939 11.25 18.3059 10.926C18.0179 10.602 17.6099 10.44 17.0819 10.44C16.5539 10.44 16.1459 10.602 15.8579 10.926C15.5699 11.25 15.4259 11.712 15.4259 12.312V14.238C15.4259 14.838 15.5699 15.3 15.8579 15.624C16.1459 15.948 16.5539 16.11 17.0819 16.11ZM27.242 18.216C26.546 18.216 25.922 18.102 25.37 17.874C24.83 17.646 24.368 17.316 23.984 16.884C23.612 16.452 23.324 15.93 23.12 15.318C22.916 14.706 22.814 14.022 22.814 13.266C22.814 12.51 22.916 11.826 23.12 11.214C23.324 10.602 23.612 10.086 23.984 9.666C24.368 9.234 24.83 8.904 25.37 8.676C25.922 8.448 26.546 8.334 27.242 8.334C27.938 8.334 28.556 8.448 29.096 8.676C29.648 8.904 30.11 9.234 30.482 9.666C30.866 10.086 31.16 10.602 31.364 11.214C31.568 11.826 31.67 12.51 31.67 13.266C31.67 14.022 31.568 14.706 31.364 15.318C31.16 15.93 30.866 16.452 30.482 16.884C30.11 17.316 29.648 17.646 29.096 17.874C28.556 18.102 27.938 18.216 27.242 18.216ZM27.242 16.11C27.77 16.11 28.178 15.948 28.466 15.624C28.754 15.3 28.898 14.838 28.898 14.238V12.312C28.898 11.712 28.754 11.25 28.466 10.926C28.178 10.602 27.77 10.44 27.242 10.44C26.714 10.44 26.306 10.602 26.018 10.926C25.73 11.25 25.586 11.712 25.586 12.312V14.238C25.586 14.838 25.73 15.3 26.018 15.624C26.306 15.948 26.714 16.11 27.242 16.11ZM33.5682 4.68H36.2322V12.546H36.3402L37.5102 10.8L39.4002 8.55H42.3522L39.2022 12.168L42.7122 18H39.5442L37.4202 14.004L36.2322 15.336V18H33.5682V4.68ZM45.2888 7.542C44.7488 7.542 44.3528 7.422 44.1008 7.182C43.8608 6.93 43.7408 6.612 43.7408 6.228V5.832C43.7408 5.448 43.8608 5.136 44.1008 4.896C44.3528 4.644 44.7488 4.518 45.2888 4.518C45.8288 4.518 46.2188 4.644 46.4588 4.896C46.7108 5.136 46.8368 5.448 46.8368 5.832V6.228C46.8368 6.612 46.7108 6.93 46.4588 7.182C46.2188 7.422 45.8288 7.542 45.2888 7.542ZM43.9568 8.55H46.6208V18H43.9568V8.55ZM49.1072 18V8.55H51.7712V10.152H51.8792C52.0472 9.66 52.3412 9.234 52.7612 8.874C53.1812 8.514 53.7632 8.334 54.5072 8.334C55.4792 8.334 56.2112 8.658 56.7032 9.306C57.2072 9.954 57.4592 10.878 57.4592 12.078V18H54.7952V12.294C54.7952 11.682 54.6992 11.232 54.5072 10.944C54.3152 10.644 53.9732 10.494 53.4812 10.494C53.2652 10.494 53.0552 10.524 52.8512 10.584C52.6472 10.632 52.4612 10.716 52.2932 10.836C52.1372 10.956 52.0112 11.106 51.9152 11.286C51.8192 11.454 51.7712 11.652 51.7712 11.88V18H49.1072ZM68.5779 18.684C68.5779 19.188 68.4879 19.632 68.3079 20.016C68.1399 20.4 67.8579 20.724 67.4619 20.988C67.0659 21.264 66.5379 21.468 65.8779 21.6C65.2299 21.744 64.4259 21.816 63.4659 21.816C62.6499 21.816 61.9539 21.762 61.3779 21.654C60.8139 21.558 60.3519 21.414 59.9919 21.222C59.6439 21.042 59.3859 20.814 59.2179 20.538C59.0619 20.274 58.9839 19.968 58.9839 19.62C58.9839 19.092 59.1399 18.678 59.4519 18.378C59.7639 18.078 60.1959 17.892 60.7479 17.82V17.622C60.2919 17.538 59.9499 17.346 59.7219 17.046C59.4939 16.734 59.3799 16.374 59.3799 15.966C59.3799 15.714 59.4279 15.498 59.5239 15.318C59.6319 15.126 59.7639 14.964 59.9199 14.832C60.0879 14.688 60.2799 14.574 60.4959 14.49C60.7119 14.406 60.9279 14.34 61.1439 14.292V14.22C60.5679 13.956 60.1419 13.596 59.8659 13.14C59.5899 12.672 59.4519 12.132 59.4519 11.52C59.4519 10.56 59.7819 9.792 60.4419 9.216C61.1139 8.628 62.1339 8.334 63.5019 8.334C64.1259 8.334 64.6599 8.394 65.1039 8.514V8.154C65.1039 7.65 65.2239 7.29 65.4639 7.074C65.7159 6.846 66.0699 6.732 66.5259 6.732H68.0199V8.712H65.9319V8.82C66.4839 9.084 66.8919 9.45 67.1559 9.918C67.4199 10.374 67.5519 10.908 67.5519 11.52C67.5519 12.468 67.2159 13.23 66.5439 13.806C65.8839 14.37 64.8699 14.652 63.5019 14.652C62.8899 14.652 62.3319 14.586 61.8279 14.454C61.5519 14.634 61.4139 14.886 61.4139 15.21C61.4139 15.438 61.4979 15.618 61.6659 15.75C61.8459 15.87 62.1399 15.93 62.5479 15.93H65.2839C66.4359 15.93 67.2699 16.17 67.7859 16.65C68.3139 17.13 68.5779 17.808 68.5779 18.684ZM66.0759 19.044C66.0759 18.768 65.9679 18.558 65.7519 18.414C65.5359 18.27 65.1579 18.198 64.6179 18.198H61.3779C61.2579 18.318 61.1679 18.45 61.1079 18.594C61.0599 18.75 61.0359 18.9 61.0359 19.044C61.0359 19.392 61.1859 19.644 61.4859 19.8C61.7859 19.968 62.2959 20.052 63.0159 20.052H64.0959C64.8159 20.052 65.3259 19.968 65.6259 19.8C65.9259 19.644 66.0759 19.392 66.0759 19.044ZM63.5019 12.906C64.0299 12.906 64.4199 12.798 64.6719 12.582C64.9359 12.354 65.0679 12.03 65.0679 11.61V11.394C65.0679 10.974 64.9359 10.656 64.6719 10.44C64.4199 10.212 64.0299 10.098 63.5019 10.098C62.9739 10.098 62.5779 10.212 62.3139 10.44C62.0619 10.656 61.9359 10.974 61.9359 11.394V11.61C61.9359 12.03 62.0619 12.354 62.3139 12.582C62.5779 12.798 62.9739 12.906 63.5019 12.906ZM72.9655 18.216C72.0535 18.216 71.2855 18.072 70.6615 17.784C70.0375 17.484 69.4795 17.064 68.9875 16.524L70.5535 14.94C70.8895 15.312 71.2615 15.606 71.6695 15.822C72.0775 16.038 72.5395 16.146 73.0555 16.146C73.5835 16.146 73.9495 16.068 74.1535 15.912C74.3575 15.744 74.4595 15.522 74.4595 15.246C74.4595 14.802 74.1415 14.538 73.5055 14.454L72.4795 14.328C70.3555 14.064 69.2935 13.092 69.2935 11.412C69.2935 10.956 69.3775 10.542 69.5455 10.17C69.7255 9.786 69.9715 9.462 70.2835 9.198C70.6075 8.922 70.9915 8.712 71.4355 8.568C71.8915 8.412 72.4015 8.334 72.9655 8.334C73.4575 8.334 73.8895 8.37 74.2615 8.442C74.6455 8.502 74.9815 8.598 75.2695 8.73C75.5695 8.85 75.8395 9.006 76.0795 9.198C76.3315 9.378 76.5775 9.582 76.8175 9.81L75.2875 11.376C74.9875 11.076 74.6455 10.842 74.2615 10.674C73.8895 10.494 73.5055 10.404 73.1095 10.404C72.6535 10.404 72.3295 10.476 72.1375 10.62C71.9455 10.764 71.8495 10.956 71.8495 11.196C71.8495 11.448 71.9155 11.646 72.0475 11.79C72.1915 11.922 72.4555 12.018 72.8395 12.078L73.9015 12.222C75.9775 12.498 77.0155 13.446 77.0155 15.066C77.0155 15.522 76.9195 15.942 76.7275 16.326C76.5355 16.71 76.2595 17.046 75.8995 17.334C75.5515 17.61 75.1255 17.826 74.6215 17.982C74.1295 18.138 73.5775 18.216 72.9655 18.216ZM90.0698 18C89.5898 18 89.1878 17.85 88.8638 17.55C88.5518 17.25 88.3538 16.848 88.2698 16.344H88.1618C88.0178 16.956 87.6998 17.424 87.2078 17.748C86.7158 18.06 86.1098 18.216 85.3898 18.216C84.4418 18.216 83.7158 17.964 83.2118 17.46C82.7078 16.956 82.4558 16.29 82.4558 15.462C82.4558 14.466 82.8158 13.728 83.5358 13.248C84.2678 12.756 85.2578 12.51 86.5058 12.51H87.9998V11.916C87.9998 11.46 87.8798 11.1 87.6398 10.836C87.3998 10.56 86.9978 10.422 86.4338 10.422C85.9058 10.422 85.4858 10.536 85.1738 10.764C84.8618 10.992 84.6038 11.25 84.3998 11.538L82.8158 10.134C83.1998 9.57 83.6798 9.132 84.2558 8.82C84.8438 8.496 85.6358 8.334 86.6318 8.334C87.9758 8.334 88.9838 8.628 89.6558 9.216C90.3278 9.804 90.6638 10.662 90.6638 11.79V15.93H91.5458V18H90.0698ZM86.3798 16.362C86.8238 16.362 87.2018 16.266 87.5138 16.074C87.8378 15.882 87.9998 15.57 87.9998 15.138V14.022H86.7038C85.6598 14.022 85.1378 14.376 85.1378 15.084V15.354C85.1378 15.702 85.2458 15.96 85.4618 16.128C85.6778 16.284 85.9838 16.362 86.3798 16.362ZM93.3338 18V8.55H95.9978V10.152H96.1058C96.2738 9.66 96.5678 9.234 96.9878 8.874C97.4078 8.514 97.9898 8.334 98.7338 8.334C99.7058 8.334 100.438 8.658 100.93 9.306C101.434 9.954 101.686 10.878 101.686 12.078V18H99.0218V12.294C99.0218 11.682 98.9258 11.232 98.7338 10.944C98.5418 10.644 98.1998 10.494 97.7078 10.494C97.4918 10.494 97.2818 10.524 97.0778 10.584C96.8738 10.632 96.6878 10.716 96.5198 10.836C96.3638 10.956 96.2378 11.106 96.1418 11.286C96.0458 11.454 95.9978 11.652 95.9978 11.88V18H93.3338ZM109.852 16.416H109.762C109.69 16.668 109.576 16.908 109.42 17.136C109.264 17.352 109.072 17.544 108.844 17.712C108.628 17.868 108.376 17.988 108.088 18.072C107.812 18.168 107.524 18.216 107.224 18.216C106.024 18.216 105.118 17.796 104.506 16.956C103.894 16.104 103.588 14.874 103.588 13.266C103.588 11.658 103.894 10.434 104.506 9.594C105.118 8.754 106.024 8.334 107.224 8.334C107.836 8.334 108.376 8.502 108.844 8.838C109.324 9.174 109.63 9.606 109.762 10.134H109.852V4.68H112.516V18H109.852V16.416ZM108.106 16.056C108.61 16.056 109.024 15.936 109.348 15.696C109.684 15.444 109.852 15.102 109.852 14.67V11.88C109.852 11.448 109.684 11.112 109.348 10.872C109.024 10.62 108.61 10.494 108.106 10.494C107.602 10.494 107.182 10.674 106.846 11.034C106.522 11.382 106.36 11.856 106.36 12.456V14.094C106.36 14.694 106.522 15.174 106.846 15.534C107.182 15.882 107.602 16.056 108.106 16.056ZM124.482 18.216C123.63 18.216 122.862 18.084 122.178 17.82C121.494 17.544 120.912 17.142 120.432 16.614C119.952 16.074 119.58 15.408 119.316 14.616C119.052 13.812 118.92 12.876 118.92 11.808C118.92 10.752 119.052 9.816 119.316 9C119.58 8.172 119.952 7.482 120.432 6.93C120.912 6.366 121.494 5.94 122.178 5.652C122.862 5.364 123.63 5.22 124.482 5.22C125.646 5.22 126.606 5.46 127.362 5.94C128.118 6.408 128.724 7.152 129.18 8.172L126.822 9.396C126.654 8.868 126.39 8.448 126.03 8.136C125.682 7.812 125.166 7.65 124.482 7.65C123.678 7.65 123.03 7.914 122.538 8.442C122.058 8.958 121.818 9.714 121.818 10.71V12.726C121.818 13.722 122.058 14.484 122.538 15.012C123.03 15.528 123.678 15.786 124.482 15.786C125.154 15.786 125.688 15.606 126.084 15.246C126.492 14.874 126.792 14.43 126.984 13.914L129.216 15.21C128.748 16.17 128.13 16.914 127.362 17.442C126.606 17.958 125.646 18.216 124.482 18.216ZM137.97 18C137.49 18 137.088 17.85 136.764 17.55C136.452 17.25 136.254 16.848 136.17 16.344H136.062C135.918 16.956 135.6 17.424 135.108 17.748C134.616 18.06 134.01 18.216 133.29 18.216C132.342 18.216 131.616 17.964 131.112 17.46C130.608 16.956 130.356 16.29 130.356 15.462C130.356 14.466 130.716 13.728 131.436 13.248C132.168 12.756 133.158 12.51 134.406 12.51H135.9V11.916C135.9 11.46 135.78 11.1 135.54 10.836C135.3 10.56 134.898 10.422 134.334 10.422C133.806 10.422 133.386 10.536 133.074 10.764C132.762 10.992 132.504 11.25 132.3 11.538L130.716 10.134C131.1 9.57 131.58 9.132 132.156 8.82C132.744 8.496 133.536 8.334 134.532 8.334C135.876 8.334 136.884 8.628 137.556 9.216C138.228 9.804 138.564 10.662 138.564 11.79V15.93H139.446V18H137.97ZM134.28 16.362C134.724 16.362 135.102 16.266 135.414 16.074C135.738 15.882 135.9 15.57 135.9 15.138V14.022H134.604C133.56 14.022 133.038 14.376 133.038 15.084V15.354C133.038 15.702 133.146 15.96 133.362 16.128C133.578 16.284 133.884 16.362 134.28 16.362ZM143.88 18C142.968 18 142.296 17.778 141.864 17.334C141.444 16.89 141.234 16.248 141.234 15.408V4.68H143.898V15.93H145.086V18H143.88ZM149.189 18C148.277 18 147.605 17.778 147.173 17.334C146.753 16.89 146.543 16.248 146.543 15.408V4.68H149.207V15.93H150.395V18H149.189ZM155.196 18.216C154.284 18.216 153.516 18.072 152.892 17.784C152.268 17.484 151.71 17.064 151.218 16.524L152.784 14.94C153.12 15.312 153.492 15.606 153.9 15.822C154.308 16.038 154.77 16.146 155.286 16.146C155.814 16.146 156.18 16.068 156.384 15.912C156.588 15.744 156.69 15.522 156.69 15.246C156.69 14.802 156.372 14.538 155.736 14.454L154.71 14.328C152.586 14.064 151.524 13.092 151.524 11.412C151.524 10.956 151.608 10.542 151.776 10.17C151.956 9.786 152.202 9.462 152.514 9.198C152.838 8.922 153.222 8.712 153.666 8.568C154.122 8.412 154.632 8.334 155.196 8.334C155.688 8.334 156.12 8.37 156.492 8.442C156.876 8.502 157.212 8.598 157.5 8.73C157.8 8.85 158.07 9.006 158.31 9.198C158.562 9.378 158.808 9.582 159.048 9.81L157.518 11.376C157.218 11.076 156.876 10.842 156.492 10.674C156.12 10.494 155.736 10.404 155.34 10.404C154.884 10.404 154.56 10.476 154.368 10.62C154.176 10.764 154.08 10.956 154.08 11.196C154.08 11.448 154.146 11.646 154.278 11.79C154.422 11.922 154.686 12.018 155.07 12.078L156.132 12.222C158.208 12.498 159.246 13.446 159.246 15.066C159.246 15.522 159.15 15.942 158.958 16.326C158.766 16.71 158.49 17.046 158.13 17.334C157.782 17.61 157.356 17.826 156.852 17.982C156.36 18.138 155.808 18.216 155.196 18.216ZM165.46 18V5.436H171.4C171.988 5.436 172.516 5.538 172.984 5.742C173.452 5.934 173.848 6.204 174.172 6.552C174.508 6.9 174.766 7.326 174.946 7.83C175.126 8.322 175.216 8.862 175.216 9.45C175.216 10.05 175.126 10.596 174.946 11.088C174.766 11.58 174.508 12 174.172 12.348C173.848 12.696 173.452 12.972 172.984 13.176C172.516 13.368 171.988 13.464 171.4 13.464H168.196V18H165.46ZM168.196 11.088H171.076C171.484 11.088 171.802 10.986 172.03 10.782C172.27 10.566 172.39 10.254 172.39 9.846V9.054C172.39 8.646 172.27 8.34 172.03 8.136C171.802 7.92 171.484 7.812 171.076 7.812H168.196V11.088ZM180.719 18.216C179.999 18.216 179.357 18.102 178.793 17.874C178.229 17.634 177.749 17.304 177.353 16.884C176.969 16.452 176.675 15.93 176.471 15.318C176.279 14.706 176.183 14.022 176.183 13.266C176.183 12.522 176.279 11.85 176.471 11.25C176.663 10.638 176.945 10.116 177.317 9.684C177.701 9.252 178.169 8.922 178.721 8.694C179.273 8.454 179.903 8.334 180.611 8.334C181.391 8.334 182.057 8.466 182.609 8.73C183.173 8.994 183.629 9.348 183.977 9.792C184.337 10.236 184.595 10.752 184.751 11.34C184.919 11.916 185.003 12.522 185.003 13.158V13.95H178.937V14.094C178.937 14.718 179.105 15.216 179.441 15.588C179.777 15.948 180.305 16.128 181.025 16.128C181.577 16.128 182.027 16.02 182.375 15.804C182.723 15.576 183.047 15.306 183.347 14.994L184.679 16.65C184.259 17.142 183.707 17.526 183.023 17.802C182.351 18.078 181.583 18.216 180.719 18.216ZM180.665 10.296C180.125 10.296 179.699 10.476 179.387 10.836C179.087 11.184 178.937 11.652 178.937 12.24V12.384H182.249V12.222C182.249 11.646 182.117 11.184 181.853 10.836C181.601 10.476 181.205 10.296 180.665 10.296ZM186.885 18V8.55H189.549V10.602H189.639C189.687 10.338 189.771 10.086 189.891 9.846C190.011 9.594 190.167 9.372 190.359 9.18C190.563 8.988 190.803 8.838 191.079 8.73C191.355 8.61 191.679 8.55 192.051 8.55H192.519V11.034H191.853C191.073 11.034 190.491 11.136 190.107 11.34C189.735 11.544 189.549 11.922 189.549 12.474V18H186.885ZM198.56 5.436H203.294C204.122 5.436 204.878 5.568 205.562 5.832C206.246 6.096 206.828 6.492 207.308 7.02C207.788 7.536 208.16 8.19 208.424 8.982C208.688 9.762 208.82 10.674 208.82 11.718C208.82 12.762 208.688 13.68 208.424 14.472C208.16 15.252 207.788 15.906 207.308 16.434C206.828 16.95 206.246 17.34 205.562 17.604C204.878 17.868 204.122 18 203.294 18H198.56V5.436ZM203.294 15.57C204.11 15.57 204.752 15.342 205.22 14.886C205.688 14.43 205.922 13.698 205.922 12.69V10.746C205.922 9.738 205.688 9.006 205.22 8.55C204.752 8.094 204.11 7.866 203.294 7.866H201.296V15.57H203.294ZM217.951 18C217.471 18 217.069 17.85 216.745 17.55C216.433 17.25 216.235 16.848 216.151 16.344H216.043C215.899 16.956 215.581 17.424 215.089 17.748C214.597 18.06 213.991 18.216 213.271 18.216C212.323 18.216 211.597 17.964 211.093 17.46C210.589 16.956 210.337 16.29 210.337 15.462C210.337 14.466 210.697 13.728 211.417 13.248C212.149 12.756 213.139 12.51 214.387 12.51H215.881V11.916C215.881 11.46 215.761 11.1 215.521 10.836C215.281 10.56 214.879 10.422 214.315 10.422C213.787 10.422 213.367 10.536 213.055 10.764C212.743 10.992 212.485 11.25 212.281 11.538L210.697 10.134C211.081 9.57 211.561 9.132 212.137 8.82C212.725 8.496 213.517 8.334 214.513 8.334C215.857 8.334 216.865 8.628 217.537 9.216C218.209 9.804 218.545 10.662 218.545 11.79V15.93H219.427V18H217.951ZM214.261 16.362C214.705 16.362 215.083 16.266 215.395 16.074C215.719 15.882 215.881 15.57 215.881 15.138V14.022H214.585C213.541 14.022 213.019 14.376 213.019 15.084V15.354C213.019 15.702 213.127 15.96 213.343 16.128C213.559 16.284 213.865 16.362 214.261 16.362ZM226.834 8.55H229.318L225.682 19.458C225.442 20.19 225.1 20.73 224.656 21.078C224.224 21.426 223.6 21.6 222.784 21.6H221.128V19.53H222.91L223.234 18.486L219.922 8.55H222.568L223.954 12.96L224.638 15.696H224.746L225.448 12.96L226.834 8.55ZM238.76 18.216C238.064 18.216 237.44 18.102 236.888 17.874C236.348 17.646 235.886 17.316 235.502 16.884C235.13 16.452 234.842 15.93 234.638 15.318C234.434 14.706 234.332 14.022 234.332 13.266C234.332 12.51 234.434 11.826 234.638 11.214C234.842 10.602 235.13 10.086 235.502 9.666C235.886 9.234 236.348 8.904 236.888 8.676C237.44 8.448 238.064 8.334 238.76 8.334C239.456 8.334 240.074 8.448 240.614 8.676C241.166 8.904 241.628 9.234 242 9.666C242.384 10.086 242.678 10.602 242.882 11.214C243.086 11.826 243.188 12.51 243.188 13.266C243.188 14.022 243.086 14.706 242.882 15.318C242.678 15.93 242.384 16.452 242 16.884C241.628 17.316 241.166 17.646 240.614 17.874C240.074 18.102 239.456 18.216 238.76 18.216ZM238.76 16.11C239.288 16.11 239.696 15.948 239.984 15.624C240.272 15.3 240.416 14.838 240.416 14.238V12.312C240.416 11.712 240.272 11.25 239.984 10.926C239.696 10.602 239.288 10.44 238.76 10.44C238.232 10.44 237.824 10.602 237.536 10.926C237.248 11.25 237.104 11.712 237.104 12.312V14.238C237.104 14.838 237.248 15.3 237.536 15.624C237.824 15.948 238.232 16.11 238.76 16.11ZM245.448 10.62H244.116V8.55H245.448V7.434C245.448 6.522 245.688 5.838 246.168 5.382C246.648 4.914 247.35 4.68 248.274 4.68H250.002V6.75H248.112V8.55H250.002V10.62H248.112V18H245.448V10.62ZM259.05 18C258.126 18 257.424 17.766 256.944 17.298C256.476 16.83 256.242 16.146 256.242 15.246V10.62H254.91V8.55H255.576C255.936 8.55 256.182 8.466 256.314 8.298C256.446 8.118 256.512 7.866 256.512 7.542V5.994H258.906V8.55H260.778V10.62H258.906V15.93H260.634V18H259.05ZM262.629 4.68H265.293V10.152H265.401C265.569 9.66 265.863 9.234 266.283 8.874C266.703 8.514 267.285 8.334 268.029 8.334C269.001 8.334 269.733 8.658 270.225 9.306C270.729 9.954 270.981 10.878 270.981 12.078V18H268.317V12.294C268.317 11.682 268.221 11.232 268.029 10.944C267.837 10.644 267.495 10.494 267.003 10.494C266.787 10.494 266.577 10.524 266.373 10.584C266.169 10.632 265.983 10.716 265.815 10.836C265.659 10.956 265.533 11.106 265.437 11.286C265.341 11.454 265.293 11.652 265.293 11.88V18H262.629V4.68ZM277.293 18.216C276.573 18.216 275.931 18.102 275.367 17.874C274.803 17.634 274.323 17.304 273.927 16.884C273.543 16.452 273.249 15.93 273.045 15.318C272.853 14.706 272.757 14.022 272.757 13.266C272.757 12.522 272.853 11.85 273.045 11.25C273.237 10.638 273.519 10.116 273.891 9.684C274.275 9.252 274.743 8.922 275.295 8.694C275.847 8.454 276.477 8.334 277.185 8.334C277.965 8.334 278.631 8.466 279.183 8.73C279.747 8.994 280.203 9.348 280.551 9.792C280.911 10.236 281.169 10.752 281.325 11.34C281.493 11.916 281.577 12.522 281.577 13.158V13.95H275.511V14.094C275.511 14.718 275.679 15.216 276.015 15.588C276.351 15.948 276.879 16.128 277.599 16.128C278.151 16.128 278.601 16.02 278.949 15.804C279.297 15.576 279.621 15.306 279.921 14.994L281.253 16.65C280.833 17.142 280.281 17.526 279.597 17.802C278.925 18.078 278.157 18.216 277.293 18.216ZM277.239 10.296C276.699 10.296 276.273 10.476 275.961 10.836C275.661 11.184 275.511 11.652 275.511 12.24V12.384H278.823V12.222C278.823 11.646 278.691 11.184 278.427 10.836C278.175 10.476 277.779 10.296 277.239 10.296ZM289.837 18L286.993 5.436H289.693L290.881 11.466L291.547 14.958H291.601L292.393 11.466L293.779 5.436H296.767L298.171 11.466L298.945 14.958H298.999L299.665 11.466L300.871 5.436H303.463L300.547 18H297.433L295.849 11.196L295.237 8.442H295.183L294.553 11.196L292.969 18H289.837ZM308.705 18.216C307.985 18.216 307.343 18.102 306.779 17.874C306.215 17.634 305.735 17.304 305.339 16.884C304.955 16.452 304.661 15.93 304.457 15.318C304.265 14.706 304.169 14.022 304.169 13.266C304.169 12.522 304.265 11.85 304.457 11.25C304.649 10.638 304.931 10.116 305.303 9.684C305.687 9.252 306.155 8.922 306.707 8.694C307.259 8.454 307.889 8.334 308.597 8.334C309.377 8.334 310.043 8.466 310.595 8.73C311.159 8.994 311.615 9.348 311.963 9.792C312.323 10.236 312.581 10.752 312.737 11.34C312.905 11.916 312.989 12.522 312.989 13.158V13.95H306.923V14.094C306.923 14.718 307.091 15.216 307.427 15.588C307.763 15.948 308.291 16.128 309.011 16.128C309.563 16.128 310.013 16.02 310.361 15.804C310.709 15.576 311.033 15.306 311.333 14.994L312.665 16.65C312.245 17.142 311.693 17.526 311.009 17.802C310.337 18.078 309.569 18.216 308.705 18.216ZM308.651 10.296C308.111 10.296 307.685 10.476 307.373 10.836C307.073 11.184 306.923 11.652 306.923 12.24V12.384H310.235V12.222C310.235 11.646 310.103 11.184 309.839 10.836C309.587 10.476 309.191 10.296 308.651 10.296ZM318.813 18.216C318.093 18.216 317.451 18.102 316.887 17.874C316.323 17.634 315.843 17.304 315.447 16.884C315.063 16.452 314.769 15.93 314.565 15.318C314.373 14.706 314.277 14.022 314.277 13.266C314.277 12.522 314.373 11.85 314.565 11.25C314.757 10.638 315.039 10.116 315.411 9.684C315.795 9.252 316.263 8.922 316.815 8.694C317.367 8.454 317.997 8.334 318.705 8.334C319.485 8.334 320.151 8.466 320.703 8.73C321.267 8.994 321.723 9.348 322.071 9.792C322.431 10.236 322.689 10.752 322.845 11.34C323.013 11.916 323.097 12.522 323.097 13.158V13.95H317.031V14.094C317.031 14.718 317.199 15.216 317.535 15.588C317.871 15.948 318.399 16.128 319.119 16.128C319.671 16.128 320.121 16.02 320.469 15.804C320.817 15.576 321.141 15.306 321.441 14.994L322.773 16.65C322.353 17.142 321.801 17.526 321.117 17.802C320.445 18.078 319.677 18.216 318.813 18.216ZM318.759 10.296C318.219 10.296 317.793 10.476 317.481 10.836C317.181 11.184 317.031 11.652 317.031 12.24V12.384H320.343V12.222C320.343 11.646 320.211 11.184 319.947 10.836C319.695 10.476 319.299 10.296 318.759 10.296ZM324.978 4.68H327.642V12.546H327.75L328.92 10.8L330.81 8.55H333.762L330.612 12.168L334.122 18H330.954L328.83 14.004L327.642 15.336V18H324.978V4.68Z" fill="#CBD5E0"/>
<path d="M8.48 38L7.36 34.704H2.848L1.728 38H0.368L4.272 26.832H5.984L9.888 38H8.48ZM5.136 28.08H5.056L3.168 33.52H7.024L5.136 28.08ZM16.698 36.656H16.634C16.5487 36.848 16.442 37.04 16.314 37.232C16.1967 37.4133 16.0473 37.5787 15.866 37.728C15.6847 37.8667 15.466 37.9787 15.21 38.064C14.954 38.1493 14.6553 38.192 14.314 38.192C13.4607 38.192 12.7833 37.92 12.282 37.376C11.7807 36.8213 11.53 36.0427 11.53 35.04V29.744H12.81V34.816C12.81 36.2987 13.4393 37.04 14.698 37.04C14.954 37.04 15.1993 37.008 15.434 36.944C15.6793 36.88 15.8927 36.784 16.074 36.656C16.266 36.528 16.4153 36.368 16.522 36.176C16.6393 35.9733 16.698 35.7333 16.698 35.456V29.744H17.978V38H16.698V36.656ZM27.6638 38.912C27.6638 39.7653 27.3278 40.3893 26.6558 40.784C25.9944 41.1893 24.9971 41.392 23.6638 41.392C22.3731 41.392 21.4451 41.216 20.8798 40.864C20.3144 40.512 20.0318 40.0107 20.0318 39.36C20.0318 38.912 20.1491 38.56 20.3838 38.304C20.6184 38.0587 20.9384 37.8773 21.3438 37.76V37.584C20.8531 37.3493 20.6078 36.9653 20.6078 36.432C20.6078 36.016 20.7411 35.7013 21.0078 35.488C21.2744 35.264 21.6158 35.0987 22.0318 34.992V34.928C21.5411 34.6933 21.1571 34.3573 20.8798 33.92C20.6131 33.4827 20.4798 32.976 20.4798 32.4C20.4798 31.984 20.5544 31.6 20.7038 31.248C20.8531 30.896 21.0611 30.5973 21.3278 30.352C21.6051 30.096 21.9304 29.8987 22.3038 29.76C22.6878 29.6213 23.1144 29.552 23.5838 29.552C24.1704 29.552 24.6931 29.6587 25.1518 29.872V29.728C25.1518 29.408 25.2264 29.1467 25.3758 28.944C25.5251 28.7307 25.7704 28.624 26.1118 28.624H27.3438V29.744H25.7758V30.272C26.0744 30.528 26.3038 30.8373 26.4638 31.2C26.6344 31.552 26.7198 31.952 26.7198 32.4C26.7198 32.816 26.6451 33.2 26.4958 33.552C26.3464 33.904 26.1331 34.208 25.8558 34.464C25.5891 34.7093 25.2638 34.9013 24.8798 35.04C24.4958 35.1787 24.0691 35.248 23.5998 35.248C23.3331 35.248 23.0664 35.2213 22.7998 35.168C22.5224 35.2427 22.2718 35.3547 22.0478 35.504C21.8238 35.6427 21.7118 35.84 21.7118 36.096C21.7118 36.3413 21.8291 36.5067 22.0638 36.592C22.2984 36.6773 22.6024 36.72 22.9758 36.72H24.7358C25.7598 36.72 26.5011 36.9173 26.9598 37.312C27.4291 37.696 27.6638 38.2293 27.6638 38.912ZM26.4638 39.008C26.4638 38.6773 26.3358 38.4107 26.0798 38.208C25.8344 38.016 25.3918 37.92 24.7518 37.92H21.9998C21.4878 38.1547 21.2318 38.528 21.2318 39.04C21.2318 39.4027 21.3651 39.712 21.6318 39.968C21.9091 40.224 22.3731 40.352 23.0238 40.352H24.2078C24.9224 40.352 25.4771 40.24 25.8718 40.016C26.2664 39.792 26.4638 39.456 26.4638 39.008ZM23.5998 34.224C24.1438 34.224 24.5758 34.096 24.8958 33.84C25.2158 33.5733 25.3758 33.168 25.3758 32.624V32.176C25.3758 31.632 25.2158 31.232 24.8958 30.976C24.5758 30.7093 24.1438 30.576 23.5998 30.576C23.0558 30.576 22.6238 30.7093 22.3038 30.976C21.9838 31.232 21.8238 31.632 21.8238 32.176V32.624C21.8238 33.168 21.9838 33.5733 22.3038 33.84C22.6238 34.096 23.0558 34.224 23.5998 34.224ZM34.1824 36.656H34.1184C34.033 36.848 33.9264 37.04 33.7984 37.232C33.681 37.4133 33.5317 37.5787 33.3504 37.728C33.169 37.8667 32.9504 37.9787 32.6944 38.064C32.4384 38.1493 32.1397 38.192 31.7984 38.192C30.945 38.192 30.2677 37.92 29.7664 37.376C29.265 36.8213 29.0144 36.0427 29.0144 35.04V29.744H30.2944V34.816C30.2944 36.2987 30.9237 37.04 32.1824 37.04C32.4384 37.04 32.6837 37.008 32.9184 36.944C33.1637 36.88 33.377 36.784 33.5584 36.656C33.7504 36.528 33.8997 36.368 34.0064 36.176C34.1237 35.9733 34.1824 35.7333 34.1824 35.456V29.744H35.4624V38H34.1824V36.656ZM40.6681 38.192C39.9001 38.192 39.2548 38.048 38.7321 37.76C38.2201 37.4613 37.7775 37.0667 37.4041 36.576L38.3161 35.84C38.6361 36.2453 38.9935 36.56 39.3881 36.784C39.7828 36.9973 40.2415 37.104 40.7641 37.104C41.3081 37.104 41.7295 36.9867 42.0281 36.752C42.3375 36.5173 42.4921 36.1867 42.4921 35.76C42.4921 35.44 42.3855 35.168 42.1721 34.944C41.9695 34.7093 41.5961 34.5493 41.0521 34.464L40.3961 34.368C40.0121 34.3147 39.6601 34.2347 39.3401 34.128C39.0201 34.0107 38.7375 33.8613 38.4921 33.68C38.2575 33.488 38.0708 33.2533 37.9321 32.976C37.8041 32.6987 37.7401 32.368 37.7401 31.984C37.7401 31.5787 37.8148 31.2267 37.9641 30.928C38.1135 30.6187 38.3161 30.3627 38.5721 30.16C38.8388 29.9573 39.1535 29.808 39.5161 29.712C39.8788 29.6053 40.2681 29.552 40.6841 29.552C41.3561 29.552 41.9161 29.6693 42.3641 29.904C42.8228 30.1387 43.2228 30.464 43.5641 30.88L42.7161 31.648C42.5348 31.392 42.2681 31.1627 41.9161 30.96C41.5641 30.7467 41.1215 30.64 40.5881 30.64C40.0548 30.64 39.6495 30.7573 39.3721 30.992C39.1055 31.216 38.9721 31.5253 38.9721 31.92C38.9721 32.3253 39.1055 32.6187 39.3721 32.8C39.6495 32.9813 40.0441 33.1147 40.5561 33.2L41.1961 33.296C42.1135 33.4347 42.7641 33.7013 43.1481 34.096C43.5321 34.48 43.7241 34.9867 43.7241 35.616C43.7241 36.416 43.4521 37.0453 42.9081 37.504C42.3641 37.9627 41.6175 38.192 40.6681 38.192ZM47.6996 38C47.2516 38 46.9103 37.8773 46.6756 37.632C46.4516 37.376 46.3396 37.0453 46.3396 36.64V30.864H44.9796V29.744H45.7476C46.025 29.744 46.2116 29.6907 46.3076 29.584C46.4143 29.4667 46.4676 29.2693 46.4676 28.992V27.456H47.6196V29.744H49.4276V30.864H47.6196V36.88H49.2996V38H47.6996ZM55.2663 30.64V26.16H56.4183V30.64H55.2663ZM66.3093 38H58.9813V36.624L62.6293 33.264C63.1519 32.784 63.5893 32.2773 63.9413 31.744C64.2933 31.2 64.4693 30.656 64.4693 30.112V29.92C64.4693 29.3013 64.2986 28.8 63.9573 28.416C63.6159 28.032 63.0986 27.84 62.4053 27.84C62.0639 27.84 61.7653 27.888 61.5093 27.984C61.2533 28.08 61.0293 28.2133 60.8373 28.384C60.6559 28.5547 60.5013 28.7573 60.3733 28.992C60.2559 29.216 60.1599 29.4613 60.0853 29.728L58.8853 29.264C58.9919 28.9333 59.1359 28.6133 59.3173 28.304C59.5093 27.984 59.7439 27.7013 60.0213 27.456C60.3093 27.2107 60.6506 27.0133 61.0453 26.864C61.4506 26.7147 61.9253 26.64 62.4693 26.64C63.0133 26.64 63.4986 26.72 63.9253 26.88C64.3519 27.04 64.7093 27.264 64.9973 27.552C65.2853 27.84 65.5039 28.1813 65.6533 28.576C65.8133 28.9707 65.8933 29.408 65.8933 29.888C65.8933 30.3253 65.8293 30.7307 65.7013 31.104C65.5839 31.4773 65.4186 31.8347 65.2053 32.176C64.9919 32.5067 64.7306 32.832 64.4213 33.152C64.1226 33.472 63.7973 33.792 63.4453 34.112L60.4373 36.816H66.3093V38ZM72.175 38.192C70.8417 38.192 69.8657 37.6853 69.247 36.672C68.639 35.6587 68.335 34.24 68.335 32.416C68.335 30.592 68.639 29.1733 69.247 28.16C69.8657 27.1467 70.8417 26.64 72.175 26.64C73.5083 26.64 74.479 27.1467 75.087 28.16C75.7057 29.1733 76.015 30.592 76.015 32.416C76.015 34.24 75.7057 35.6587 75.087 36.672C74.479 37.6853 73.5083 38.192 72.175 38.192ZM72.175 37.024C72.6123 37.024 72.9857 36.9333 73.295 36.752C73.6043 36.5707 73.855 36.3147 74.047 35.984C74.239 35.6533 74.3777 35.264 74.463 34.816C74.559 34.368 74.607 33.872 74.607 33.328V31.504C74.607 30.96 74.559 30.464 74.463 30.016C74.3777 29.568 74.239 29.1787 74.047 28.848C73.855 28.5173 73.6043 28.2613 73.295 28.08C72.9857 27.8987 72.6123 27.808 72.175 27.808C71.7377 27.808 71.3643 27.8987 71.055 28.08C70.7457 28.2613 70.495 28.5173 70.303 28.848C70.111 29.1787 69.967 29.568 69.871 30.016C69.7857 30.464 69.743 30.96 69.743 31.504V33.328C69.743 33.872 69.7857 34.368 69.871 34.816C69.967 35.264 70.111 35.6533 70.303 35.984C70.495 36.3147 70.7457 36.5707 71.055 36.752C71.3643 36.9333 71.7377 37.024 72.175 37.024ZM81.854 33.824V32.448H86.03V33.824H81.854ZM101.114 28.592H101.034L100.09 30.464L97.4179 35.328L94.7459 30.464L93.8019 28.592H93.7219V38H92.4099V26.832H94.2019L97.4019 32.848H97.4819L100.698 26.832H102.426V38H101.114V28.592ZM111.266 38C110.786 38 110.44 37.872 110.226 37.616C110.024 37.36 109.896 37.04 109.842 36.656H109.762C109.581 37.168 109.282 37.552 108.866 37.808C108.45 38.064 107.954 38.192 107.378 38.192C106.504 38.192 105.821 37.968 105.33 37.52C104.85 37.072 104.61 36.464 104.61 35.696C104.61 34.9173 104.893 34.32 105.458 33.904C106.034 33.488 106.925 33.28 108.13 33.28H109.762V32.464C109.762 31.8773 109.602 31.4293 109.282 31.12C108.962 30.8107 108.472 30.656 107.81 30.656C107.309 30.656 106.888 30.768 106.546 30.992C106.216 31.216 105.938 31.5147 105.714 31.888L104.946 31.168C105.17 30.72 105.528 30.3413 106.018 30.032C106.509 29.712 107.128 29.552 107.874 29.552C108.877 29.552 109.656 29.7973 110.21 30.288C110.765 30.7787 111.042 31.4613 111.042 32.336V36.88H111.986V38H111.266ZM107.586 37.104C107.906 37.104 108.2 37.0667 108.466 36.992C108.733 36.9173 108.962 36.8107 109.154 36.672C109.346 36.5333 109.496 36.3733 109.602 36.192C109.709 36.0107 109.762 35.8133 109.762 35.6V34.24H108.066C107.33 34.24 106.792 34.3467 106.45 34.56C106.12 34.7733 105.954 35.0827 105.954 35.488V35.824C105.954 36.2293 106.098 36.544 106.386 36.768C106.685 36.992 107.085 37.104 107.586 37.104ZM118.823 29.744H120.087L116.391 39.92C116.295 40.1653 116.199 40.368 116.103 40.528C116.007 40.6987 115.89 40.832 115.751 40.928C115.612 41.024 115.436 41.0933 115.223 41.136C115.02 41.1787 114.77 41.2 114.471 41.2H113.815V40.08H115.111L115.735 38.32L112.647 29.744H113.927L115.911 35.36L116.295 36.704H116.375L116.823 35.36L118.823 29.744ZM125.501 30.64V26.16H126.653V30.64H125.501ZM136.544 38H129.216V36.624L132.864 33.264C133.386 32.784 133.824 32.2773 134.176 31.744C134.528 31.2 134.704 30.656 134.704 30.112V29.92C134.704 29.3013 134.533 28.8 134.192 28.416C133.85 28.032 133.333 27.84 132.64 27.84C132.298 27.84 132 27.888 131.744 27.984C131.488 28.08 131.264 28.2133 131.072 28.384C130.89 28.5547 130.736 28.7573 130.608 28.992C130.49 29.216 130.394 29.4613 130.32 29.728L129.12 29.264C129.226 28.9333 129.37 28.6133 129.552 28.304C129.744 27.984 129.978 27.7013 130.256 27.456C130.544 27.2107 130.885 27.0133 131.28 26.864C131.685 26.7147 132.16 26.64 132.704 26.64C133.248 26.64 133.733 26.72 134.16 26.88C134.586 27.04 134.944 27.264 135.232 27.552C135.52 27.84 135.738 28.1813 135.888 28.576C136.048 28.9707 136.128 29.408 136.128 29.888C136.128 30.3253 136.064 30.7307 135.936 31.104C135.818 31.4773 135.653 31.8347 135.44 32.176C135.226 32.5067 134.965 32.832 134.656 33.152C134.357 33.472 134.032 33.792 133.68 34.112L130.672 36.816H136.544V38ZM139.017 38V36.816H142.137V27.824H142.025L139.209 30.448L138.425 29.6L141.385 26.832H143.481V36.816H146.361V38H139.017Z" fill="#CBD5E0"/>
<rect x="110" y="76" width="70" height="40" fill="white"/>
<path d="M143.374 93.016H138.478L138.158 97.272H138.27C138.537 96.8987 138.836 96.6 139.166 96.376C139.508 96.152 139.972 96.04 140.558 96.04C141.038 96.04 141.481 96.12 141.886 96.28C142.292 96.44 142.644 96.6693 142.942 96.968C143.241 97.256 143.47 97.6133 143.63 98.04C143.801 98.4667 143.886 98.952 143.886 99.496C143.886 100.04 143.801 100.541 143.63 101C143.46 101.448 143.209 101.837 142.878 102.168C142.558 102.488 142.164 102.739 141.694 102.92C141.236 103.101 140.713 103.192 140.126 103.192C139.657 103.192 139.241 103.139 138.878 103.032C138.526 102.925 138.212 102.781 137.934 102.6C137.657 102.419 137.412 102.216 137.198 101.992C136.996 101.768 136.809 101.533 136.638 101.288L137.646 100.52C137.785 100.744 137.929 100.947 138.078 101.128C138.238 101.309 138.409 101.464 138.59 101.592C138.782 101.72 139.001 101.821 139.246 101.896C139.492 101.96 139.785 101.992 140.126 101.992C140.894 101.992 141.476 101.789 141.87 101.384C142.265 100.979 142.462 100.408 142.462 99.672V99.512C142.462 98.776 142.265 98.2053 141.87 97.8C141.476 97.3947 140.894 97.192 140.126 97.192C139.614 97.192 139.209 97.288 138.91 97.48C138.622 97.6613 138.361 97.88 138.126 98.136L136.99 97.976L137.39 91.832H143.374V93.016ZM152.968 93.016H148.072L147.752 97.272H147.864C148.131 96.8987 148.429 96.6 148.76 96.376C149.101 96.152 149.565 96.04 150.152 96.04C150.632 96.04 151.075 96.12 151.48 96.28C151.885 96.44 152.237 96.6693 152.536 96.968C152.835 97.256 153.064 97.6133 153.224 98.04C153.395 98.4667 153.48 98.952 153.48 99.496C153.48 100.04 153.395 100.541 153.224 101C153.053 101.448 152.803 101.837 152.472 102.168C152.152 102.488 151.757 102.739 151.288 102.92C150.829 103.101 150.307 103.192 149.72 103.192C149.251 103.192 148.835 103.139 148.472 103.032C148.12 102.925 147.805 102.781 147.528 102.6C147.251 102.419 147.005 102.216 146.792 101.992C146.589 101.768 146.403 101.533 146.232 101.288L147.24 100.52C147.379 100.744 147.523 100.947 147.672 101.128C147.832 101.309 148.003 101.464 148.184 101.592C148.376 101.72 148.595 101.821 148.84 101.896C149.085 101.96 149.379 101.992 149.72 101.992C150.488 101.992 151.069 101.789 151.464 101.384C151.859 100.979 152.056 100.408 152.056 99.672V99.512C152.056 98.776 151.859 98.2053 151.464 97.8C151.069 97.3947 150.488 97.192 149.72 97.192C149.208 97.192 148.803 97.288 148.504 97.48C148.216 97.6613 147.955 97.88 147.72 98.136L146.584 97.976L146.984 91.832H152.968V93.016Z" fill="#1A202C"/>
<rect x="180" y="76" width="70" height="40" fill="white" fill-opacity="0.55"/>
<path d="M209.582 96.568C210.34 96.568 210.905 96.3973 211.278 96.056C211.662 95.704 211.854 95.256 211.854 94.712V94.6C211.854 94.0133 211.668 93.576 211.294 93.288C210.932 92.9893 210.452 92.84 209.854 92.84C209.278 92.84 208.809 92.968 208.446 93.224C208.084 93.4693 207.785 93.8053 207.55 94.232L206.558 93.464C206.697 93.24 206.862 93.0213 207.054 92.808C207.257 92.584 207.492 92.3867 207.758 92.216C208.025 92.0453 208.334 91.9067 208.686 91.8C209.038 91.6933 209.438 91.64 209.886 91.64C210.356 91.64 210.798 91.704 211.214 91.832C211.63 91.9493 211.988 92.1307 212.286 92.376C212.596 92.6107 212.836 92.904 213.006 93.256C213.188 93.608 213.278 94.008 213.278 94.456C213.278 94.8187 213.22 95.144 213.102 95.432C212.996 95.72 212.846 95.9707 212.654 96.184C212.462 96.3973 212.233 96.5787 211.966 96.728C211.71 96.8773 211.433 96.9893 211.134 97.064V97.128C211.433 97.192 211.721 97.2987 211.998 97.448C212.286 97.5867 212.537 97.7733 212.75 98.008C212.974 98.232 213.15 98.5093 213.278 98.84C213.417 99.16 213.486 99.528 213.486 99.944C213.486 100.424 213.396 100.867 213.214 101.272C213.033 101.667 212.777 102.008 212.446 102.296C212.116 102.573 211.716 102.792 211.246 102.952C210.777 103.112 210.26 103.192 209.694 103.192C209.214 103.192 208.788 103.139 208.414 103.032C208.041 102.925 207.71 102.781 207.422 102.6C207.134 102.419 206.878 102.216 206.654 101.992C206.441 101.768 206.249 101.533 206.078 101.288L207.086 100.52C207.225 100.744 207.374 100.947 207.534 101.128C207.705 101.309 207.892 101.464 208.094 101.592C208.297 101.72 208.526 101.821 208.782 101.896C209.038 101.96 209.337 101.992 209.678 101.992C210.468 101.992 211.065 101.816 211.47 101.464C211.876 101.101 212.078 100.589 212.078 99.928V99.8C212.078 99.1387 211.876 98.632 211.47 98.28C211.065 97.9173 210.468 97.736 209.678 97.736H208.366V96.568H209.582ZM219.8 103.192C218.467 103.192 217.491 102.685 216.872 101.672C216.264 100.659 215.96 99.24 215.96 97.416C215.96 95.592 216.264 94.1733 216.872 93.16C217.491 92.1467 218.467 91.64 219.8 91.64C221.133 91.64 222.104 92.1467 222.712 93.16C223.331 94.1733 223.64 95.592 223.64 97.416C223.64 99.24 223.331 100.659 222.712 101.672C222.104 102.685 221.133 103.192 219.8 103.192ZM219.8 102.024C220.237 102.024 220.611 101.933 220.92 101.752C221.229 101.571 221.48 101.315 221.672 100.984C221.864 100.653 222.003 100.264 222.088 99.816C222.184 99.368 222.232 98.872 222.232 98.328V96.504C222.232 95.96 222.184 95.464 222.088 95.016C222.003 94.568 221.864 94.1787 221.672 93.848C221.48 93.5173 221.229 93.2613 220.92 93.08C220.611 92.8987 220.237 92.808 219.8 92.808C219.363 92.808 218.989 92.8987 218.68 93.08C218.371 93.2613 218.12 93.5173 217.928 93.848C217.736 94.1787 217.592 94.568 217.496 95.016C217.411 95.464 217.368 95.96 217.368 96.504V98.328C217.368 98.872 217.411 99.368 217.496 99.816C217.592 100.264 217.736 100.653 217.928 100.984C218.12 101.315 218.371 101.571 218.68 101.752C218.989 101.933 219.363 102.024 219.8 102.024Z" fill="#1A202C"/>
<rect x="250" y="76" width="70" height="40" fill="white" fill-opacity="0.67"/>
<path d="M279.582 96.568C280.34 96.568 280.905 96.3973 281.278 96.056C281.662 95.704 281.854 95.256 281.854 94.712V94.6C281.854 94.0133 281.668 93.576 281.294 93.288C280.932 92.9893 280.452 92.84 279.854 92.84C279.278 92.84 278.809 92.968 278.446 93.224C278.084 93.4693 277.785 93.8053 277.55 94.232L276.558 93.464C276.697 93.24 276.862 93.0213 277.054 92.808C277.257 92.584 277.492 92.3867 277.758 92.216C278.025 92.0453 278.334 91.9067 278.686 91.8C279.038 91.6933 279.438 91.64 279.886 91.64C280.356 91.64 280.798 91.704 281.214 91.832C281.63 91.9493 281.988 92.1307 282.286 92.376C282.596 92.6107 282.836 92.904 283.006 93.256C283.188 93.608 283.278 94.008 283.278 94.456C283.278 94.8187 283.22 95.144 283.102 95.432C282.996 95.72 282.846 95.9707 282.654 96.184C282.462 96.3973 282.233 96.5787 281.966 96.728C281.71 96.8773 281.433 96.9893 281.134 97.064V97.128C281.433 97.192 281.721 97.2987 281.998 97.448C282.286 97.5867 282.537 97.7733 282.75 98.008C282.974 98.232 283.15 98.5093 283.278 98.84C283.417 99.16 283.486 99.528 283.486 99.944C283.486 100.424 283.396 100.867 283.214 101.272C283.033 101.667 282.777 102.008 282.446 102.296C282.116 102.573 281.716 102.792 281.246 102.952C280.777 103.112 280.26 103.192 279.694 103.192C279.214 103.192 278.788 103.139 278.414 103.032C278.041 102.925 277.71 102.781 277.422 102.6C277.134 102.419 276.878 102.216 276.654 101.992C276.441 101.768 276.249 101.533 276.078 101.288L277.086 100.52C277.225 100.744 277.374 100.947 277.534 101.128C277.705 101.309 277.892 101.464 278.094 101.592C278.297 101.72 278.526 101.821 278.782 101.896C279.038 101.96 279.337 101.992 279.678 101.992C280.468 101.992 281.065 101.816 281.47 101.464C281.876 101.101 282.078 100.589 282.078 99.928V99.8C282.078 99.1387 281.876 98.632 281.47 98.28C281.065 97.9173 280.468 97.736 279.678 97.736H278.366V96.568H279.582ZM287.8 103L292.072 92.984H287.304V95.064H286.104V91.832H293.432V93.016L289.24 103H287.8Z" fill="#1A202C"/>
<rect x="320" y="76" width="70" height="40" fill="white" fill-opacity="0.55"/>
<path d="M349.582 96.568C350.34 96.568 350.905 96.3973 351.278 96.056C351.662 95.704 351.854 95.256 351.854 94.712V94.6C351.854 94.0133 351.668 93.576 351.294 93.288C350.932 92.9893 350.452 92.84 349.854 92.84C349.278 92.84 348.809 92.968 348.446 93.224C348.084 93.4693 347.785 93.8053 347.55 94.232L346.558 93.464C346.697 93.24 346.862 93.0213 347.054 92.808C347.257 92.584 347.492 92.3867 347.758 92.216C348.025 92.0453 348.334 91.9067 348.686 91.8C349.038 91.6933 349.438 91.64 349.886 91.64C350.356 91.64 350.798 91.704 351.214 91.832C351.63 91.9493 351.988 92.1307 352.286 92.376C352.596 92.6107 352.836 92.904 353.006 93.256C353.188 93.608 353.278 94.008 353.278 94.456C353.278 94.8187 353.22 95.144 353.102 95.432C352.996 95.72 352.846 95.9707 352.654 96.184C352.462 96.3973 352.233 96.5787 351.966 96.728C351.71 96.8773 351.433 96.9893 351.134 97.064V97.128C351.433 97.192 351.721 97.2987 351.998 97.448C352.286 97.5867 352.537 97.7733 352.75 98.008C352.974 98.232 353.15 98.5093 353.278 98.84C353.417 99.16 353.486 99.528 353.486 99.944C353.486 100.424 353.396 100.867 353.214 101.272C353.033 101.667 352.777 102.008 352.446 102.296C352.116 102.573 351.716 102.792 351.246 102.952C350.777 103.112 350.26 103.192 349.694 103.192C349.214 103.192 348.788 103.139 348.414 103.032C348.041 102.925 347.71 102.781 347.422 102.6C347.134 102.419 346.878 102.216 346.654 101.992C346.441 101.768 346.249 101.533 346.078 101.288L347.086 100.52C347.225 100.744 347.374 100.947 347.534 101.128C347.705 101.309 347.892 101.464 348.094 101.592C348.297 101.72 348.526 101.821 348.782 101.896C349.038 101.96 349.337 101.992 349.678 101.992C350.468 101.992 351.065 101.816 351.47 101.464C351.876 101.101 352.078 100.589 352.078 99.928V99.8C352.078 99.1387 351.876 98.632 351.47 98.28C351.065 97.9173 350.468 97.736 349.678 97.736H348.366V96.568H349.582ZM359.8 103.192C358.467 103.192 357.491 102.685 356.872 101.672C356.264 100.659 355.96 99.24 355.96 97.416C355.96 95.592 356.264 94.1733 356.872 93.16C357.491 92.1467 358.467 91.64 359.8 91.64C361.133 91.64 362.104 92.1467 362.712 93.16C363.331 94.1733 363.64 95.592 363.64 97.416C363.64 99.24 363.331 100.659 362.712 101.672C362.104 102.685 361.133 103.192 359.8 103.192ZM359.8 102.024C360.237 102.024 360.611 101.933 360.92 101.752C361.229 101.571 361.48 101.315 361.672 100.984C361.864 100.653 362.003 100.264 362.088 99.816C362.184 99.368 362.232 98.872 362.232 98.328V96.504C362.232 95.96 362.184 95.464 362.088 95.016C362.003 94.568 361.864 94.1787 361.672 93.848C361.48 93.5173 361.229 93.2613 360.92 93.08C360.611 92.8987 360.237 92.808 359.8 92.808C359.363 92.808 358.989 92.8987 358.68 93.08C358.371 93.2613 358.12 93.5173 357.928 93.848C357.736 94.1787 357.592 94.568 357.496 95.016C357.411 95.464 357.368 95.96 357.368 96.504V98.328C357.368 98.872 357.411 99.368 357.496 99.816C357.592 100.264 357.736 100.653 357.928 100.984C358.12 101.315 358.371 101.571 358.68 101.752C358.989 101.933 359.363 102.024 359.8 102.024Z" fill="#1A202C"/>
<rect x="390" y="76" width="70" height="40" fill="white" fill-opacity="0.42"/>
<path d="M423.934 103H416.606V101.624L420.254 98.264C420.777 97.784 421.214 97.2773 421.566 96.744C421.918 96.2 422.094 95.656 422.094 95.112V94.92C422.094 94.3013 421.924 93.8 421.582 93.416C421.241 93.032 420.724 92.84 420.03 92.84C419.689 92.84 419.39 92.888 419.134 92.984C418.878 93.08 418.654 93.2133 418.462 93.384C418.281 93.5547 418.126 93.7573 417.998 93.992C417.881 94.216 417.785 94.4613 417.71 94.728L416.51 94.264C416.617 93.9333 416.761 93.6133 416.942 93.304C417.134 92.984 417.369 92.7013 417.646 92.456C417.934 92.2107 418.276 92.0133 418.67 91.864C419.076 91.7147 419.55 91.64 420.094 91.64C420.638 91.64 421.124 91.72 421.55 91.88C421.977 92.04 422.334 92.264 422.622 92.552C422.91 92.84 423.129 93.1813 423.278 93.576C423.438 93.9707 423.518 94.408 423.518 94.888C423.518 95.3253 423.454 95.7307 423.326 96.104C423.209 96.4773 423.044 96.8347 422.83 97.176C422.617 97.5067 422.356 97.832 422.046 98.152C421.748 98.472 421.422 98.792 421.07 99.112L418.062 101.816H423.934V103ZM429.176 96.568C429.933 96.568 430.499 96.3973 430.872 96.056C431.256 95.704 431.448 95.256 431.448 94.712V94.6C431.448 94.0133 431.261 93.576 430.888 93.288C430.525 92.9893 430.045 92.84 429.448 92.84C428.872 92.84 428.403 92.968 428.04 93.224C427.677 93.4693 427.379 93.8053 427.144 94.232L426.152 93.464C426.291 93.24 426.456 93.0213 426.648 92.808C426.851 92.584 427.085 92.3867 427.352 92.216C427.619 92.0453 427.928 91.9067 428.28 91.8C428.632 91.6933 429.032 91.64 429.48 91.64C429.949 91.64 430.392 91.704 430.808 91.832C431.224 91.9493 431.581 92.1307 431.88 92.376C432.189 92.6107 432.429 92.904 432.6 93.256C432.781 93.608 432.872 94.008 432.872 94.456C432.872 94.8187 432.813 95.144 432.696 95.432C432.589 95.72 432.44 95.9707 432.248 96.184C432.056 96.3973 431.827 96.5787 431.56 96.728C431.304 96.8773 431.027 96.9893 430.728 97.064V97.128C431.027 97.192 431.315 97.2987 431.592 97.448C431.88 97.5867 432.131 97.7733 432.344 98.008C432.568 98.232 432.744 98.5093 432.872 98.84C433.011 99.16 433.08 99.528 433.08 99.944C433.08 100.424 432.989 100.867 432.808 101.272C432.627 101.667 432.371 102.008 432.04 102.296C431.709 102.573 431.309 102.792 430.84 102.952C430.371 103.112 429.853 103.192 429.288 103.192C428.808 103.192 428.381 103.139 428.008 103.032C427.635 102.925 427.304 102.781 427.016 102.6C426.728 102.419 426.472 102.216 426.248 101.992C426.035 101.768 425.843 101.533 425.672 101.288L426.68 100.52C426.819 100.744 426.968 100.947 427.128 101.128C427.299 101.309 427.485 101.464 427.688 101.592C427.891 101.72 428.12 101.821 428.376 101.896C428.632 101.96 428.931 101.992 429.272 101.992C430.061 101.992 430.659 101.816 431.064 101.464C431.469 101.101 431.672 100.589 431.672 99.928V99.8C431.672 99.1387 431.469 98.632 431.064 98.28C430.659 97.9173 430.061 97.736 429.272 97.736H427.96V96.568H429.176Z" fill="#1A202C"/>
<rect x="460" y="76" width="70" height="40" fill="white" fill-opacity="0.44"/>
<path d="M493.934 103H486.606V101.624L490.254 98.264C490.777 97.784 491.214 97.2773 491.566 96.744C491.918 96.2 492.094 95.656 492.094 95.112V94.92C492.094 94.3013 491.924 93.8 491.582 93.416C491.241 93.032 490.724 92.84 490.03 92.84C489.689 92.84 489.39 92.888 489.134 92.984C488.878 93.08 488.654 93.2133 488.462 93.384C488.281 93.5547 488.126 93.7573 487.998 93.992C487.881 94.216 487.785 94.4613 487.71 94.728L486.51 94.264C486.617 93.9333 486.761 93.6133 486.942 93.304C487.134 92.984 487.369 92.7013 487.646 92.456C487.934 92.2107 488.276 92.0133 488.67 91.864C489.076 91.7147 489.55 91.64 490.094 91.64C490.638 91.64 491.124 91.72 491.55 91.88C491.977 92.04 492.334 92.264 492.622 92.552C492.91 92.84 493.129 93.1813 493.278 93.576C493.438 93.9707 493.518 94.408 493.518 94.888C493.518 95.3253 493.454 95.7307 493.326 96.104C493.209 96.4773 493.044 96.8347 492.83 97.176C492.617 97.5067 492.356 97.832 492.046 98.152C491.748 98.472 491.422 98.792 491.07 99.112L488.062 101.816H493.934V103ZM501 103V100.808H495.608V99.624L500.28 91.832H502.28V99.688H503.896V100.808H502.28V103H501ZM496.872 99.688H501V92.872H500.92L496.872 99.688Z" fill="#1A202C"/>
<rect x="530" y="76" width="70" height="40" fill="white" fill-opacity="0.17"/>
<path d="M556.814 103V101.816H559.934V92.824H559.822L557.006 95.448L556.222 94.6L559.182 91.832H561.278V101.816H564.158V103H556.814ZM572.968 93.016H568.072L567.752 97.272H567.864C568.131 96.8987 568.429 96.6 568.76 96.376C569.101 96.152 569.565 96.04 570.152 96.04C570.632 96.04 571.075 96.12 571.48 96.28C571.885 96.44 572.237 96.6693 572.536 96.968C572.835 97.256 573.064 97.6133 573.224 98.04C573.395 98.4667 573.48 98.952 573.48 99.496C573.48 100.04 573.395 100.541 573.224 101C573.053 101.448 572.803 101.837 572.472 102.168C572.152 102.488 571.757 102.739 571.288 102.92C570.829 103.101 570.307 103.192 569.72 103.192C569.251 103.192 568.835 103.139 568.472 103.032C568.12 102.925 567.805 102.781 567.528 102.6C567.251 102.419 567.005 102.216 566.792 101.992C566.589 101.768 566.403 101.533 566.232 101.288L567.24 100.52C567.379 100.744 567.523 100.947 567.672 101.128C567.832 101.309 568.003 101.464 568.184 101.592C568.376 101.72 568.595 101.821 568.84 101.896C569.085 101.96 569.379 101.992 569.72 101.992C570.488 101.992 571.069 101.789 571.464 101.384C571.859 100.979 572.056 100.408 572.056 99.672V99.512C572.056 98.776 571.859 98.2053 571.464 97.8C571.069 97.3947 570.488 97.192 569.72 97.192C569.208 97.192 568.803 97.288 568.504 97.48C568.216 97.6613 567.955 97.88 567.72 98.136L566.584 97.976L566.984 91.832H572.968V93.016Z" fill="white"/>
<rect x="110" y="116" width="70" height="40" fill="white" fill-opacity="0.47"/>
<path d="M143.934 143H136.606V141.624L140.254 138.264C140.777 137.784 141.214 137.277 141.566 136.744C141.918 136.2 142.094 135.656 142.094 135.112V134.92C142.094 134.301 141.924 133.8 141.582 133.416C141.241 133.032 140.724 132.84 140.03 132.84C139.689 132.84 139.39 132.888 139.134 132.984C138.878 133.08 138.654 133.213 138.462 133.384C138.281 133.555 138.126 133.757 137.998 133.992C137.881 134.216 137.785 134.461 137.71 134.728L136.51 134.264C136.617 133.933 136.761 133.613 136.942 133.304C137.134 132.984 137.369 132.701 137.646 132.456C137.934 132.211 138.276 132.013 138.67 131.864C139.076 131.715 139.55 131.64 140.094 131.64C140.638 131.64 141.124 131.72 141.55 131.88C141.977 132.04 142.334 132.264 142.622 132.552C142.91 132.84 143.129 133.181 143.278 133.576C143.438 133.971 143.518 134.408 143.518 134.888C143.518 135.325 143.454 135.731 143.326 136.104C143.209 136.477 143.044 136.835 142.83 137.176C142.617 137.507 142.356 137.832 142.046 138.152C141.748 138.472 141.422 138.792 141.07 139.112L138.062 141.816H143.934V143ZM149.816 143.192C149.24 143.192 148.717 143.096 148.248 142.904C147.789 142.701 147.395 142.419 147.064 142.056C146.744 141.683 146.499 141.229 146.328 140.696C146.157 140.163 146.072 139.565 146.072 138.904C146.072 138.072 146.195 137.293 146.44 136.568C146.685 135.832 147 135.165 147.384 134.568C147.779 133.96 148.211 133.427 148.68 132.968C149.149 132.499 149.608 132.12 150.056 131.832H151.784C151.187 132.269 150.653 132.696 150.184 133.112C149.715 133.528 149.304 133.965 148.952 134.424C148.6 134.872 148.301 135.357 148.056 135.88C147.811 136.392 147.613 136.973 147.464 137.624L147.544 137.656C147.811 137.197 148.152 136.819 148.568 136.52C148.995 136.211 149.549 136.056 150.232 136.056C150.712 136.056 151.155 136.136 151.56 136.296C151.965 136.456 152.312 136.685 152.6 136.984C152.888 137.283 153.112 137.645 153.272 138.072C153.443 138.499 153.528 138.973 153.528 139.496C153.528 140.04 153.437 140.541 153.256 141C153.085 141.448 152.835 141.837 152.504 142.168C152.184 142.488 151.795 142.739 151.336 142.92C150.877 143.101 150.371 143.192 149.816 143.192ZM149.8 142.024C150.536 142.024 151.107 141.821 151.512 141.416C151.928 141.011 152.136 140.429 152.136 139.672V139.544C152.136 138.787 151.928 138.205 151.512 137.8C151.107 137.395 150.536 137.192 149.8 137.192C149.064 137.192 148.488 137.395 148.072 137.8C147.667 138.205 147.464 138.787 147.464 139.544V139.672C147.464 140.429 147.667 141.011 148.072 141.416C148.488 141.821 149.064 142.024 149.8 142.024Z" fill="#1A202C"/>
<rect x="180" y="116" width="70" height="40" fill="white" fill-opacity="0.73"/>
<path d="M211.406 143V140.808H206.014V139.624L210.686 131.832H212.686V139.688H214.302V140.808H212.686V143H211.406ZM207.278 139.688H211.406V132.872H211.326L207.278 139.688ZM219.8 143.192C218.467 143.192 217.491 142.685 216.872 141.672C216.264 140.659 215.96 139.24 215.96 137.416C215.96 135.592 216.264 134.173 216.872 133.16C217.491 132.147 218.467 131.64 219.8 131.64C221.133 131.64 222.104 132.147 222.712 133.16C223.331 134.173 223.64 135.592 223.64 137.416C223.64 139.24 223.331 140.659 222.712 141.672C222.104 142.685 221.133 143.192 219.8 143.192ZM219.8 142.024C220.237 142.024 220.611 141.933 220.92 141.752C221.229 141.571 221.48 141.315 221.672 140.984C221.864 140.653 222.003 140.264 222.088 139.816C222.184 139.368 222.232 138.872 222.232 138.328V136.504C222.232 135.96 222.184 135.464 222.088 135.016C222.003 134.568 221.864 134.179 221.672 133.848C221.48 133.517 221.229 133.261 220.92 133.08C220.611 132.899 220.237 132.808 219.8 132.808C219.363 132.808 218.989 132.899 218.68 133.08C218.371 133.261 218.12 133.517 217.928 133.848C217.736 134.179 217.592 134.568 217.496 135.016C217.411 135.464 217.368 135.96 217.368 136.504V138.328C217.368 138.872 217.411 139.368 217.496 139.816C217.592 140.264 217.736 140.653 217.928 140.984C218.12 141.315 218.371 141.571 218.68 141.752C218.989 141.933 219.363 142.024 219.8 142.024Z" fill="#1A202C"/>
<rect x="250" y="116" width="70" height="40" fill="white"/>
<path d="M283.374 133.016H278.478L278.158 137.272H278.27C278.537 136.899 278.836 136.6 279.166 136.376C279.508 136.152 279.972 136.04 280.558 136.04C281.038 136.04 281.481 136.12 281.886 136.28C282.292 136.44 282.644 136.669 282.942 136.968C283.241 137.256 283.47 137.613 283.63 138.04C283.801 138.467 283.886 138.952 283.886 139.496C283.886 140.04 283.801 140.541 283.63 141C283.46 141.448 283.209 141.837 282.878 142.168C282.558 142.488 282.164 142.739 281.694 142.92C281.236 143.101 280.713 143.192 280.126 143.192C279.657 143.192 279.241 143.139 278.878 143.032C278.526 142.925 278.212 142.781 277.934 142.6C277.657 142.419 277.412 142.216 277.198 141.992C276.996 141.768 276.809 141.533 276.638 141.288L277.646 140.52C277.785 140.744 277.929 140.947 278.078 141.128C278.238 141.309 278.409 141.464 278.59 141.592C278.782 141.72 279.001 141.821 279.246 141.896C279.492 141.96 279.785 141.992 280.126 141.992C280.894 141.992 281.476 141.789 281.87 141.384C282.265 140.979 282.462 140.408 282.462 139.672V139.512C282.462 138.776 282.265 138.205 281.87 137.8C281.476 137.395 280.894 137.192 280.126 137.192C279.614 137.192 279.209 137.288 278.91 137.48C278.622 137.661 278.361 137.88 278.126 138.136L276.99 137.976L277.39 131.832H283.374V133.016ZM292.968 133.016H288.072L287.752 137.272H287.864C288.131 136.899 288.429 136.6 288.76 136.376C289.101 136.152 289.565 136.04 290.152 136.04C290.632 136.04 291.075 136.12 291.48 136.28C291.885 136.44 292.237 136.669 292.536 136.968C292.835 137.256 293.064 137.613 293.224 138.04C293.395 138.467 293.48 138.952 293.48 139.496C293.48 140.04 293.395 140.541 293.224 141C293.053 141.448 292.803 141.837 292.472 142.168C292.152 142.488 291.757 142.739 291.288 142.92C290.829 143.101 290.307 143.192 289.72 143.192C289.251 143.192 288.835 143.139 288.472 143.032C288.12 142.925 287.805 142.781 287.528 142.6C287.251 142.419 287.005 142.216 286.792 141.992C286.589 141.768 286.403 141.533 286.232 141.288L287.24 140.52C287.379 140.744 287.523 140.947 287.672 141.128C287.832 141.309 288.003 141.464 288.184 141.592C288.376 141.72 288.595 141.821 288.84 141.896C289.085 141.96 289.379 141.992 289.72 141.992C290.488 141.992 291.069 141.789 291.464 141.384C291.859 140.979 292.056 140.408 292.056 139.672V139.512C292.056 138.776 291.859 138.205 291.464 137.8C291.069 137.395 290.488 137.192 289.72 137.192C289.208 137.192 288.803 137.288 288.504 137.48C288.216 137.661 287.955 137.88 287.72 138.136L286.584 137.976L286.984 131.832H292.968V133.016Z" fill="#1A202C"/>
<rect x="320" y="116" width="70" height="40" fill="white" fill-opacity="0.91"/>
<path d="M353.374 133.016H348.478L348.158 137.272H348.27C348.537 136.899 348.836 136.6 349.166 136.376C349.508 136.152 349.972 136.04 350.558 136.04C351.038 136.04 351.481 136.12 351.886 136.28C352.292 136.44 352.644 136.669 352.942 136.968C353.241 137.256 353.47 137.613 353.63 138.04C353.801 138.467 353.886 138.952 353.886 139.496C353.886 140.04 353.801 140.541 353.63 141C353.46 141.448 353.209 141.837 352.878 142.168C352.558 142.488 352.164 142.739 351.694 142.92C351.236 143.101 350.713 143.192 350.126 143.192C349.657 143.192 349.241 143.139 348.878 143.032C348.526 142.925 348.212 142.781 347.934 142.6C347.657 142.419 347.412 142.216 347.198 141.992C346.996 141.768 346.809 141.533 346.638 141.288L347.646 140.52C347.785 140.744 347.929 140.947 348.078 141.128C348.238 141.309 348.409 141.464 348.59 141.592C348.782 141.72 349.001 141.821 349.246 141.896C349.492 141.96 349.785 141.992 350.126 141.992C350.894 141.992 351.476 141.789 351.87 141.384C352.265 140.979 352.462 140.408 352.462 139.672V139.512C352.462 138.776 352.265 138.205 351.87 137.8C351.476 137.395 350.894 137.192 350.126 137.192C349.614 137.192 349.209 137.288 348.91 137.48C348.622 137.661 348.361 137.88 348.126 138.136L346.99 137.976L347.39 131.832H353.374V133.016ZM359.8 143.192C358.467 143.192 357.491 142.685 356.872 141.672C356.264 140.659 355.96 139.24 355.96 137.416C355.96 135.592 356.264 134.173 356.872 133.16C357.491 132.147 358.467 131.64 359.8 131.64C361.133 131.64 362.104 132.147 362.712 133.16C363.331 134.173 363.64 135.592 363.64 137.416C363.64 139.24 363.331 140.659 362.712 141.672C362.104 142.685 361.133 143.192 359.8 143.192ZM359.8 142.024C360.237 142.024 360.611 141.933 360.92 141.752C361.229 141.571 361.48 141.315 361.672 140.984C361.864 140.653 362.003 140.264 362.088 139.816C362.184 139.368 362.232 138.872 362.232 138.328V136.504C362.232 135.96 362.184 135.464 362.088 135.016C362.003 134.568 361.864 134.179 361.672 133.848C361.48 133.517 361.229 133.261 360.92 133.08C360.611 132.899 360.237 132.808 359.8 132.808C359.363 132.808 358.989 132.899 358.68 133.08C358.371 133.261 358.12 133.517 357.928 133.848C357.736 134.179 357.592 134.568 357.496 135.016C357.411 135.464 357.368 135.96 357.368 136.504V138.328C357.368 138.872 357.411 139.368 357.496 139.816C357.592 140.264 357.736 140.653 357.928 140.984C358.12 141.315 358.371 141.571 358.68 141.752C358.989 141.933 359.363 142.024 359.8 142.024Z" fill="#1A202C"/>
<rect x="390" y="116" width="70" height="40" fill="white" fill-opacity="0.55"/>
<path d="M419.582 136.568C420.34 136.568 420.905 136.397 421.278 136.056C421.662 135.704 421.854 135.256 421.854 134.712V134.6C421.854 134.013 421.668 133.576 421.294 133.288C420.932 132.989 420.452 132.84 419.854 132.84C419.278 132.84 418.809 132.968 418.446 133.224C418.084 133.469 417.785 133.805 417.55 134.232L416.558 133.464C416.697 133.24 416.862 133.021 417.054 132.808C417.257 132.584 417.492 132.387 417.758 132.216C418.025 132.045 418.334 131.907 418.686 131.8C419.038 131.693 419.438 131.64 419.886 131.64C420.356 131.64 420.798 131.704 421.214 131.832C421.63 131.949 421.988 132.131 422.286 132.376C422.596 132.611 422.836 132.904 423.006 133.256C423.188 133.608 423.278 134.008 423.278 134.456C423.278 134.819 423.22 135.144 423.102 135.432C422.996 135.72 422.846 135.971 422.654 136.184C422.462 136.397 422.233 136.579 421.966 136.728C421.71 136.877 421.433 136.989 421.134 137.064V137.128C421.433 137.192 421.721 137.299 421.998 137.448C422.286 137.587 422.537 137.773 422.75 138.008C422.974 138.232 423.15 138.509 423.278 138.84C423.417 139.16 423.486 139.528 423.486 139.944C423.486 140.424 423.396 140.867 423.214 141.272C423.033 141.667 422.777 142.008 422.446 142.296C422.116 142.573 421.716 142.792 421.246 142.952C420.777 143.112 420.26 143.192 419.694 143.192C419.214 143.192 418.788 143.139 418.414 143.032C418.041 142.925 417.71 142.781 417.422 142.6C417.134 142.419 416.878 142.216 416.654 141.992C416.441 141.768 416.249 141.533 416.078 141.288L417.086 140.52C417.225 140.744 417.374 140.947 417.534 141.128C417.705 141.309 417.892 141.464 418.094 141.592C418.297 141.72 418.526 141.821 418.782 141.896C419.038 141.96 419.337 141.992 419.678 141.992C420.468 141.992 421.065 141.816 421.47 141.464C421.876 141.101 422.078 140.589 422.078 139.928V139.8C422.078 139.139 421.876 138.632 421.47 138.28C421.065 137.917 420.468 137.736 419.678 137.736H418.366V136.568H419.582ZM429.8 143.192C428.467 143.192 427.491 142.685 426.872 141.672C426.264 140.659 425.96 139.24 425.96 137.416C425.96 135.592 426.264 134.173 426.872 133.16C427.491 132.147 428.467 131.64 429.8 131.64C431.133 131.64 432.104 132.147 432.712 133.16C433.331 134.173 433.64 135.592 433.64 137.416C433.64 139.24 433.331 140.659 432.712 141.672C432.104 142.685 431.133 143.192 429.8 143.192ZM429.8 142.024C430.237 142.024 430.611 141.933 430.92 141.752C431.229 141.571 431.48 141.315 431.672 140.984C431.864 140.653 432.003 140.264 432.088 139.816C432.184 139.368 432.232 138.872 432.232 138.328V136.504C432.232 135.96 432.184 135.464 432.088 135.016C432.003 134.568 431.864 134.179 431.672 133.848C431.48 133.517 431.229 133.261 430.92 133.08C430.611 132.899 430.237 132.808 429.8 132.808C429.363 132.808 428.989 132.899 428.68 133.08C428.371 133.261 428.12 133.517 427.928 133.848C427.736 134.179 427.592 134.568 427.496 135.016C427.411 135.464 427.368 135.96 427.368 136.504V138.328C427.368 138.872 427.411 139.368 427.496 139.816C427.592 140.264 427.736 140.653 427.928 140.984C428.12 141.315 428.371 141.571 428.68 141.752C428.989 141.933 429.363 142.024 429.8 142.024Z" fill="#1A202C"/>
<rect x="460" y="116" width="70" height="40" fill="white" fill-opacity="0.16"/>
<path d="M498.731 135.928C498.731 136.76 498.608 137.544 498.363 138.28C498.118 139.005 497.798 139.672 497.403 140.28C497.019 140.877 496.592 141.411 496.123 141.88C495.654 142.339 495.195 142.712 494.747 143H493.019C493.616 142.563 494.15 142.136 494.619 141.72C495.088 141.304 495.499 140.872 495.851 140.424C496.203 139.965 496.502 139.48 496.747 138.968C496.992 138.445 497.19 137.859 497.339 137.208L497.259 137.176C496.992 137.635 496.646 138.019 496.219 138.328C495.803 138.627 495.254 138.776 494.571 138.776C494.091 138.776 493.648 138.696 493.243 138.536C492.838 138.376 492.491 138.147 492.203 137.848C491.915 137.549 491.686 137.192 491.515 136.776C491.355 136.349 491.275 135.869 491.275 135.336C491.275 134.792 491.36 134.296 491.531 133.848C491.712 133.389 491.963 133 492.283 132.68C492.614 132.349 493.003 132.093 493.451 131.912C493.91 131.731 494.422 131.64 494.987 131.64C495.563 131.64 496.08 131.741 496.539 131.944C497.008 132.136 497.403 132.419 497.723 132.792C498.054 133.155 498.304 133.603 498.475 134.136C498.646 134.669 498.731 135.267 498.731 135.928ZM495.003 137.64C495.739 137.64 496.31 137.437 496.715 137.032C497.131 136.627 497.339 136.045 497.339 135.288V135.16C497.339 134.403 497.131 133.821 496.715 133.416C496.31 133.011 495.739 132.808 495.003 132.808C494.267 132.808 493.691 133.011 493.275 133.416C492.87 133.821 492.667 134.403 492.667 135.16V135.288C492.667 136.045 492.87 136.627 493.275 137.032C493.691 137.437 494.267 137.64 495.003 137.64Z" fill="white"/>
<rect x="530" y="116" width="70" height="40" fill="#1A202C"/>
<path d="M565.003 143.192C563.67 143.192 562.694 142.685 562.075 141.672C561.467 140.659 561.163 139.24 561.163 137.416C561.163 135.592 561.467 134.173 562.075 133.16C562.694 132.147 563.67 131.64 565.003 131.64C566.336 131.64 567.307 132.147 567.915 133.16C568.534 134.173 568.843 135.592 568.843 137.416C568.843 139.24 568.534 140.659 567.915 141.672C567.307 142.685 566.336 143.192 565.003 143.192ZM565.003 142.024C565.44 142.024 565.814 141.933 566.123 141.752C566.432 141.571 566.683 141.315 566.875 140.984C567.067 140.653 567.206 140.264 567.291 139.816C567.387 139.368 567.435 138.872 567.435 138.328V136.504C567.435 135.96 567.387 135.464 567.291 135.016C567.206 134.568 567.067 134.179 566.875 133.848C566.683 133.517 566.432 133.261 566.123 133.08C565.814 132.899 565.44 132.808 565.003 132.808C564.566 132.808 564.192 132.899 563.883 133.08C563.574 133.261 563.323 133.517 563.131 133.848C562.939 134.179 562.795 134.568 562.699 135.016C562.614 135.464 562.571 135.96 562.571 136.504V138.328C562.571 138.872 562.614 139.368 562.699 139.816C562.795 140.264 562.939 140.653 563.131 140.984C563.323 141.315 563.574 141.571 563.883 141.752C564.192 141.933 564.566 142.024 565.003 142.024Z" fill="white"/>
</svg>
