<svg width="535" height="156" viewBox="0 0 535 156" fill="none" xmlns="http://www.w3.org/2000/svg">
<path d="M211.773 133.614V132.364H220.5V133.614H216.841V144H215.432V133.614H211.773ZM224.773 144.182C223.985 144.182 223.294 143.994 222.699 143.619C222.108 143.244 221.646 142.72 221.312 142.045C220.983 141.371 220.818 140.583 220.818 139.682C220.818 138.773 220.983 137.979 221.312 137.301C221.646 136.623 222.108 136.097 222.699 135.722C223.294 135.347 223.985 135.159 224.773 135.159C225.561 135.159 226.25 135.347 226.841 135.722C227.436 136.097 227.898 136.623 228.227 137.301C228.561 137.979 228.727 138.773 228.727 139.682C228.727 140.583 228.561 141.371 228.227 142.045C227.898 142.72 227.436 143.244 226.841 143.619C226.25 143.994 225.561 144.182 224.773 144.182ZM224.773 142.977C225.371 142.977 225.864 142.824 226.25 142.517C226.636 142.21 226.922 141.807 227.108 141.307C227.294 140.807 227.386 140.265 227.386 139.682C227.386 139.098 227.294 138.555 227.108 138.051C226.922 137.547 226.636 137.14 226.25 136.83C225.864 136.519 225.371 136.364 224.773 136.364C224.174 136.364 223.682 136.519 223.295 136.83C222.909 137.14 222.623 137.547 222.438 138.051C222.252 138.555 222.159 139.098 222.159 139.682C222.159 140.265 222.252 140.807 222.438 141.307C222.623 141.807 222.909 142.21 223.295 142.517C223.682 142.824 224.174 142.977 224.773 142.977ZM234.07 144.182C233.342 144.182 232.7 143.998 232.143 143.631C231.587 143.259 231.151 142.737 230.837 142.062C230.522 141.384 230.365 140.583 230.365 139.659C230.365 138.742 230.522 137.947 230.837 137.273C231.151 136.598 231.589 136.078 232.149 135.71C232.71 135.343 233.357 135.159 234.092 135.159C234.661 135.159 235.109 135.254 235.439 135.443C235.772 135.629 236.026 135.841 236.2 136.08C236.378 136.314 236.517 136.508 236.615 136.659H236.729V132.364H238.07V144H236.774V142.659H236.615C236.517 142.818 236.376 143.019 236.195 143.261C236.013 143.5 235.753 143.714 235.416 143.903C235.079 144.089 234.63 144.182 234.07 144.182ZM234.251 142.977C234.789 142.977 235.244 142.837 235.615 142.557C235.986 142.273 236.268 141.881 236.462 141.381C236.655 140.877 236.751 140.295 236.751 139.636C236.751 138.985 236.657 138.415 236.467 137.926C236.278 137.434 235.998 137.051 235.626 136.778C235.255 136.502 234.797 136.364 234.251 136.364C233.683 136.364 233.21 136.509 232.831 136.801C232.456 137.089 232.174 137.481 231.984 137.977C231.799 138.47 231.706 139.023 231.706 139.636C231.706 140.258 231.801 140.822 231.99 141.33C232.183 141.833 232.467 142.235 232.842 142.534C233.221 142.83 233.691 142.977 234.251 142.977ZM243.28 144.205C242.727 144.205 242.225 144.1 241.774 143.892C241.323 143.68 240.965 143.375 240.7 142.977C240.435 142.576 240.303 142.091 240.303 141.523C240.303 141.023 240.401 140.617 240.598 140.307C240.795 139.992 241.058 139.746 241.388 139.568C241.717 139.39 242.081 139.258 242.479 139.17C242.88 139.08 243.284 139.008 243.689 138.955C244.219 138.886 244.649 138.835 244.979 138.801C245.312 138.763 245.554 138.701 245.706 138.614C245.861 138.527 245.939 138.375 245.939 138.159V138.114C245.939 137.553 245.786 137.117 245.479 136.807C245.176 136.496 244.715 136.341 244.098 136.341C243.458 136.341 242.956 136.481 242.592 136.761C242.229 137.042 241.973 137.341 241.825 137.659L240.553 137.205C240.78 136.674 241.083 136.261 241.462 135.966C241.844 135.667 242.261 135.458 242.712 135.341C243.166 135.22 243.613 135.159 244.053 135.159C244.333 135.159 244.655 135.193 245.018 135.261C245.386 135.326 245.74 135.46 246.081 135.665C246.426 135.869 246.712 136.178 246.939 136.591C247.166 137.004 247.28 137.557 247.28 138.25V144H245.939V142.818H245.871C245.78 143.008 245.628 143.21 245.416 143.426C245.204 143.642 244.922 143.826 244.57 143.977C244.217 144.129 243.787 144.205 243.28 144.205ZM243.484 143C244.015 143 244.462 142.896 244.825 142.688C245.193 142.479 245.469 142.21 245.655 141.881C245.844 141.551 245.939 141.205 245.939 140.841V139.614C245.882 139.682 245.757 139.744 245.564 139.801C245.375 139.854 245.155 139.902 244.905 139.943C244.659 139.981 244.418 140.015 244.183 140.045C243.952 140.072 243.765 140.095 243.621 140.114C243.272 140.159 242.946 140.233 242.643 140.335C242.344 140.434 242.102 140.583 241.916 140.784C241.734 140.981 241.643 141.25 241.643 141.591C241.643 142.057 241.816 142.409 242.161 142.648C242.509 142.883 242.95 143 243.484 143ZM250.278 147.273C250.051 147.273 249.848 147.254 249.67 147.216C249.492 147.182 249.369 147.148 249.301 147.114L249.642 145.932C249.968 146.015 250.256 146.045 250.506 146.023C250.756 146 250.977 145.888 251.17 145.688C251.367 145.491 251.547 145.17 251.71 144.727L251.96 144.045L248.733 135.273H250.188L252.597 142.227H252.688L255.097 135.273H256.551L252.847 145.273C252.68 145.723 252.473 146.097 252.227 146.392C251.981 146.691 251.695 146.913 251.369 147.057C251.047 147.201 250.684 147.273 250.278 147.273ZM260.065 132.364V133.386C260.065 133.697 260.009 134.028 259.895 134.381C259.785 134.729 259.622 135.068 259.406 135.398C259.194 135.723 258.937 136.008 258.634 136.25L257.906 135.659C258.145 135.318 258.351 134.964 258.526 134.597C258.704 134.225 258.793 133.83 258.793 133.409V132.364H260.065ZM266.784 137.227L265.58 137.568C265.504 137.367 265.392 137.172 265.244 136.983C265.1 136.79 264.903 136.631 264.653 136.506C264.403 136.381 264.083 136.318 263.693 136.318C263.159 136.318 262.714 136.441 262.358 136.688C262.006 136.93 261.83 137.239 261.83 137.614C261.83 137.947 261.951 138.21 262.193 138.403C262.436 138.597 262.814 138.758 263.33 138.886L264.625 139.205C265.405 139.394 265.987 139.684 266.369 140.074C266.752 140.46 266.943 140.958 266.943 141.568C266.943 142.068 266.799 142.515 266.511 142.909C266.227 143.303 265.83 143.614 265.318 143.841C264.807 144.068 264.212 144.182 263.534 144.182C262.644 144.182 261.907 143.989 261.324 143.602C260.741 143.216 260.371 142.652 260.216 141.909L261.489 141.591C261.61 142.061 261.839 142.413 262.176 142.648C262.517 142.883 262.962 143 263.511 143C264.136 143 264.633 142.867 265 142.602C265.371 142.333 265.557 142.011 265.557 141.636C265.557 141.333 265.451 141.08 265.239 140.875C265.027 140.667 264.701 140.511 264.261 140.409L262.807 140.068C262.008 139.879 261.42 139.585 261.045 139.188C260.674 138.786 260.489 138.284 260.489 137.682C260.489 137.189 260.627 136.754 260.903 136.375C261.184 135.996 261.564 135.699 262.045 135.483C262.53 135.267 263.08 135.159 263.693 135.159C264.557 135.159 265.235 135.348 265.727 135.727C266.223 136.106 266.576 136.606 266.784 137.227ZM273.462 144V135.273H274.757V136.591H274.848C275.007 136.159 275.295 135.809 275.712 135.54C276.128 135.271 276.598 135.136 277.121 135.136C277.219 135.136 277.342 135.138 277.49 135.142C277.638 135.146 277.75 135.152 277.825 135.159V136.523C277.78 136.511 277.676 136.494 277.513 136.472C277.354 136.445 277.185 136.432 277.007 136.432C276.583 136.432 276.204 136.521 275.871 136.699C275.541 136.873 275.28 137.116 275.087 137.426C274.897 137.733 274.803 138.083 274.803 138.477V144H273.462ZM282.695 144.182C281.907 144.182 281.215 143.994 280.621 143.619C280.03 143.244 279.568 142.72 279.234 142.045C278.905 141.371 278.74 140.583 278.74 139.682C278.74 138.773 278.905 137.979 279.234 137.301C279.568 136.623 280.03 136.097 280.621 135.722C281.215 135.347 281.907 135.159 282.695 135.159C283.482 135.159 284.172 135.347 284.763 135.722C285.357 136.097 285.82 136.623 286.149 137.301C286.482 137.979 286.649 138.773 286.649 139.682C286.649 140.583 286.482 141.371 286.149 142.045C285.82 142.72 285.357 143.244 284.763 143.619C284.172 143.994 283.482 144.182 282.695 144.182ZM282.695 142.977C283.293 142.977 283.786 142.824 284.172 142.517C284.558 142.21 284.844 141.807 285.03 141.307C285.215 140.807 285.308 140.265 285.308 139.682C285.308 139.098 285.215 138.555 285.03 138.051C284.844 137.547 284.558 137.14 284.172 136.83C283.786 136.519 283.293 136.364 282.695 136.364C282.096 136.364 281.604 136.519 281.217 136.83C280.831 137.14 280.545 137.547 280.359 138.051C280.174 138.555 280.081 139.098 280.081 139.682C280.081 140.265 280.174 140.807 280.359 141.307C280.545 141.807 280.831 142.21 281.217 142.517C281.604 142.824 282.096 142.977 282.695 142.977ZM290.037 132.364V144H288.696V132.364H290.037ZM296.152 144.182C295.311 144.182 294.586 143.996 293.976 143.625C293.37 143.25 292.902 142.727 292.572 142.057C292.247 141.383 292.084 140.598 292.084 139.705C292.084 138.811 292.247 138.023 292.572 137.341C292.902 136.655 293.36 136.121 293.947 135.739C294.538 135.352 295.228 135.159 296.016 135.159C296.47 135.159 296.919 135.235 297.362 135.386C297.805 135.538 298.209 135.784 298.572 136.125C298.936 136.462 299.226 136.909 299.442 137.466C299.658 138.023 299.766 138.708 299.766 139.523V140.091H293.038V138.932H298.402C298.402 138.439 298.304 138 298.107 137.614C297.913 137.227 297.637 136.922 297.277 136.699C296.921 136.475 296.5 136.364 296.016 136.364C295.482 136.364 295.019 136.496 294.629 136.761C294.243 137.023 293.946 137.364 293.737 137.784C293.529 138.205 293.425 138.655 293.425 139.136V139.909C293.425 140.568 293.538 141.127 293.766 141.585C293.997 142.04 294.317 142.386 294.726 142.625C295.135 142.86 295.61 142.977 296.152 142.977C296.504 142.977 296.822 142.928 297.107 142.83C297.394 142.727 297.643 142.576 297.851 142.375C298.059 142.17 298.22 141.917 298.334 141.614L299.629 141.977C299.493 142.417 299.264 142.803 298.942 143.136C298.62 143.466 298.222 143.723 297.749 143.909C297.275 144.091 296.743 144.182 296.152 144.182Z" fill="#CBD5E0"/>
<path d="M199.98 11.3636L203.435 21.1591H203.571L207.026 11.3636H208.503L204.23 23H202.776L198.503 11.3636H199.98ZM212.98 23.1818C212.139 23.1818 211.414 22.9962 210.804 22.625C210.198 22.25 209.73 21.7273 209.401 21.0568C209.075 20.3826 208.912 19.5985 208.912 18.7045C208.912 17.8106 209.075 17.0227 209.401 16.3409C209.73 15.6553 210.188 15.1212 210.776 14.7386C211.366 14.3523 212.056 14.1591 212.844 14.1591C213.298 14.1591 213.747 14.2348 214.19 14.3864C214.634 14.5379 215.037 14.7841 215.401 15.125C215.764 15.4621 216.054 15.9091 216.27 16.4659C216.486 17.0227 216.594 17.7083 216.594 18.5227V19.0909H209.866V17.9318H215.23C215.23 17.4394 215.132 17 214.935 16.6136C214.741 16.2273 214.465 15.9223 214.105 15.6989C213.749 15.4754 213.329 15.3636 212.844 15.3636C212.31 15.3636 211.848 15.4962 211.457 15.7614C211.071 16.0227 210.774 16.3636 210.565 16.7841C210.357 17.2045 210.253 17.6553 210.253 18.1364V18.9091C210.253 19.5682 210.366 20.1269 210.594 20.5852C210.825 21.0398 211.145 21.3864 211.554 21.625C211.963 21.8598 212.438 21.9773 212.98 21.9773C213.332 21.9773 213.651 21.928 213.935 21.8295C214.223 21.7273 214.471 21.5758 214.679 21.375C214.887 21.1705 215.048 20.9167 215.162 20.6136L216.457 20.9773C216.321 21.4167 216.092 21.803 215.77 22.1364C215.448 22.4659 215.05 22.7235 214.577 22.9091C214.103 23.0909 213.571 23.1818 212.98 23.1818ZM218.634 23V14.2727H219.929V15.5909H220.02C220.179 15.1591 220.467 14.8087 220.884 14.5398C221.3 14.2708 221.77 14.1364 222.293 14.1364C222.391 14.1364 222.514 14.1383 222.662 14.142C222.81 14.1458 222.921 14.1515 222.997 14.1591V15.5227C222.952 15.5114 222.848 15.4943 222.685 15.4716C222.526 15.4451 222.357 15.4318 222.179 15.4318C221.755 15.4318 221.376 15.5208 221.043 15.6989C220.713 15.8731 220.452 16.1155 220.259 16.4261C220.069 16.733 219.974 17.0833 219.974 17.4773V23H218.634ZM228.929 14.2727V15.4091H224.406V14.2727H228.929ZM225.724 12.1818H227.065V20.5C227.065 20.8788 227.12 21.1629 227.23 21.3523C227.344 21.5379 227.488 21.6629 227.662 21.7273C227.84 21.7879 228.027 21.8182 228.224 21.8182C228.372 21.8182 228.493 21.8106 228.588 21.7955C228.683 21.7765 228.759 21.7614 228.815 21.75L229.088 22.9545C228.997 22.9886 228.87 23.0227 228.707 23.0568C228.545 23.0947 228.338 23.1136 228.088 23.1136C227.709 23.1136 227.338 23.0322 226.974 22.8693C226.615 22.7064 226.315 22.4583 226.077 22.125C225.842 21.7917 225.724 21.3712 225.724 20.8636V12.1818ZM230.946 23V14.2727H232.287V23H230.946ZM231.628 12.8182C231.366 12.8182 231.141 12.7292 230.952 12.5511C230.766 12.3731 230.673 12.1591 230.673 11.9091C230.673 11.6591 230.766 11.4451 230.952 11.267C231.141 11.089 231.366 11 231.628 11C231.889 11 232.113 11.089 232.298 11.267C232.488 11.4451 232.582 11.6591 232.582 11.9091C232.582 12.1591 232.488 12.3731 232.298 12.5511C232.113 12.7292 231.889 12.8182 231.628 12.8182ZM238.288 23.1818C237.47 23.1818 236.766 22.9886 236.175 22.6023C235.584 22.2159 235.129 21.6837 234.811 21.0057C234.493 20.3277 234.334 19.553 234.334 18.6818C234.334 17.7955 234.497 17.0133 234.822 16.3352C235.152 15.6534 235.61 15.1212 236.197 14.7386C236.788 14.3523 237.478 14.1591 238.266 14.1591C238.879 14.1591 239.432 14.2727 239.925 14.5C240.417 14.7273 240.821 15.0455 241.135 15.4545C241.449 15.8636 241.644 16.3409 241.72 16.8864H240.379C240.277 16.4886 240.05 16.1364 239.697 15.8295C239.349 15.5189 238.879 15.3636 238.288 15.3636C237.766 15.3636 237.307 15.5 236.913 15.7727C236.523 16.0417 236.218 16.4223 235.999 16.9148C235.783 17.4034 235.675 17.9773 235.675 18.6364C235.675 19.3106 235.781 19.8977 235.993 20.3977C236.209 20.8977 236.512 21.286 236.902 21.5625C237.296 21.839 237.758 21.9773 238.288 21.9773C238.637 21.9773 238.953 21.9167 239.237 21.7955C239.521 21.6742 239.762 21.5 239.959 21.2727C240.156 21.0455 240.296 20.7727 240.379 20.4545H241.72C241.644 20.9697 241.457 21.4337 241.158 21.8466C240.862 22.2557 240.47 22.5814 239.982 22.8239C239.497 23.0625 238.932 23.1818 238.288 23.1818ZM246.249 23.2045C245.696 23.2045 245.194 23.1004 244.743 22.892C244.292 22.6799 243.934 22.375 243.669 21.9773C243.404 21.5758 243.271 21.0909 243.271 20.5227C243.271 20.0227 243.37 19.6174 243.567 19.3068C243.764 18.9924 244.027 18.7462 244.357 18.5682C244.686 18.3902 245.05 18.2576 245.447 18.1705C245.849 18.0795 246.252 18.0076 246.658 17.9545C247.188 17.8864 247.618 17.8352 247.947 17.8011C248.281 17.7633 248.523 17.7008 248.675 17.6136C248.83 17.5265 248.908 17.375 248.908 17.1591V17.1136C248.908 16.553 248.754 16.1174 248.447 15.8068C248.144 15.4962 247.684 15.3409 247.067 15.3409C246.427 15.3409 245.925 15.4811 245.561 15.7614C245.197 16.0417 244.942 16.3409 244.794 16.6591L243.521 16.2045C243.749 15.6742 244.052 15.2614 244.43 14.9659C244.813 14.6667 245.23 14.4583 245.68 14.3409C246.135 14.2197 246.582 14.1591 247.021 14.1591C247.302 14.1591 247.624 14.1932 247.987 14.2614C248.355 14.3258 248.709 14.4602 249.05 14.6648C249.394 14.8693 249.68 15.178 249.908 15.5909C250.135 16.0038 250.249 16.5568 250.249 17.25V23H248.908V21.8182H248.839C248.749 22.0076 248.597 22.2102 248.385 22.4261C248.173 22.642 247.891 22.8258 247.538 22.9773C247.186 23.1288 246.756 23.2045 246.249 23.2045ZM246.453 22C246.983 22 247.43 21.8958 247.794 21.6875C248.161 21.4792 248.438 21.2102 248.624 20.8807C248.813 20.5511 248.908 20.2045 248.908 19.8409V18.6136C248.851 18.6818 248.726 18.7443 248.533 18.8011C248.343 18.8542 248.124 18.9015 247.874 18.9432C247.627 18.9811 247.387 19.0152 247.152 19.0455C246.921 19.072 246.733 19.0947 246.589 19.1136C246.241 19.1591 245.915 19.233 245.612 19.3352C245.313 19.4337 245.071 19.5833 244.885 19.7841C244.703 19.9811 244.612 20.25 244.612 20.5909C244.612 21.0568 244.785 21.4091 245.129 21.6477C245.478 21.8826 245.919 22 246.453 22ZM254.037 11.3636V23H252.696V11.3636H254.037ZM264.516 26.4545C263.868 26.4545 263.311 26.3712 262.845 26.2045C262.379 26.0417 261.991 25.8258 261.68 25.5568C261.374 25.2917 261.129 25.0076 260.947 24.7045L262.016 23.9545C262.137 24.1136 262.29 24.2955 262.476 24.5C262.661 24.7083 262.915 24.8883 263.237 25.0398C263.563 25.1951 263.989 25.2727 264.516 25.2727C265.22 25.2727 265.802 25.1023 266.26 24.7614C266.718 24.4205 266.947 23.8864 266.947 23.1591V21.3864H266.834C266.735 21.5455 266.595 21.7424 266.413 21.9773C266.235 22.2083 265.978 22.4148 265.641 22.5966C265.307 22.7746 264.857 22.8636 264.288 22.8636C263.584 22.8636 262.951 22.697 262.391 22.3636C261.834 22.0303 261.393 21.5455 261.067 20.9091C260.745 20.2727 260.584 19.5 260.584 18.5909C260.584 17.697 260.741 16.9186 261.055 16.2557C261.37 15.589 261.807 15.0739 262.368 14.7102C262.929 14.3428 263.576 14.1591 264.311 14.1591C264.879 14.1591 265.33 14.2538 265.663 14.4432C266 14.6288 266.258 14.8409 266.436 15.0795C266.618 15.3144 266.758 15.5076 266.857 15.6591H266.993V14.2727H268.288V23.25C268.288 24 268.118 24.6098 267.777 25.0795C267.44 25.553 266.985 25.8996 266.413 26.1193C265.845 26.3428 265.213 26.4545 264.516 26.4545ZM264.47 21.6591C265.008 21.6591 265.463 21.536 265.834 21.2898C266.205 21.0436 266.487 20.6894 266.68 20.2273C266.874 19.7652 266.97 19.2121 266.97 18.5682C266.97 17.9394 266.875 17.3845 266.686 16.9034C266.497 16.4223 266.216 16.0455 265.845 15.7727C265.474 15.5 265.016 15.3636 264.47 15.3636C263.902 15.3636 263.429 15.5076 263.05 15.7955C262.675 16.0833 262.393 16.4697 262.203 16.9545C262.018 17.4394 261.925 17.9773 261.925 18.5682C261.925 19.1742 262.019 19.7102 262.209 20.1761C262.402 20.6383 262.686 21.0019 263.061 21.267C263.44 21.5284 263.91 21.6591 264.47 21.6591ZM270.743 23V14.2727H272.038V15.5909H272.129C272.288 15.1591 272.576 14.8087 272.993 14.5398C273.41 14.2708 273.879 14.1364 274.402 14.1364C274.5 14.1364 274.624 14.1383 274.771 14.142C274.919 14.1458 275.031 14.1515 275.107 14.1591V15.5227C275.061 15.5114 274.957 15.4943 274.794 15.4716C274.635 15.4451 274.466 15.4318 274.288 15.4318C273.864 15.4318 273.485 15.5208 273.152 15.6989C272.822 15.8731 272.561 16.1155 272.368 16.4261C272.179 16.733 272.084 17.0833 272.084 17.4773V23H270.743ZM279.976 23.1818C279.188 23.1818 278.497 22.9943 277.902 22.6193C277.311 22.2443 276.849 21.7197 276.516 21.0455C276.186 20.3712 276.021 19.5833 276.021 18.6818C276.021 17.7727 276.186 16.9792 276.516 16.3011C276.849 15.6231 277.311 15.0966 277.902 14.7216C278.497 14.3466 279.188 14.1591 279.976 14.1591C280.764 14.1591 281.453 14.3466 282.044 14.7216C282.639 15.0966 283.101 15.6231 283.43 16.3011C283.764 16.9792 283.93 17.7727 283.93 18.6818C283.93 19.5833 283.764 20.3712 283.43 21.0455C283.101 21.7197 282.639 22.2443 282.044 22.6193C281.453 22.9943 280.764 23.1818 279.976 23.1818ZM279.976 21.9773C280.574 21.9773 281.067 21.8239 281.453 21.517C281.839 21.2102 282.125 20.8068 282.311 20.3068C282.497 19.8068 282.589 19.2652 282.589 18.6818C282.589 18.0985 282.497 17.5549 282.311 17.0511C282.125 16.5473 281.839 16.1402 281.453 15.8295C281.067 15.5189 280.574 15.3636 279.976 15.3636C279.377 15.3636 278.885 15.5189 278.499 15.8295C278.112 16.1402 277.826 16.5473 277.641 17.0511C277.455 17.5549 277.362 18.0985 277.362 18.6818C277.362 19.2652 277.455 19.8068 277.641 20.3068C277.826 20.8068 278.112 21.2102 278.499 21.517C278.885 21.8239 279.377 21.9773 279.976 21.9773ZM287.658 23L284.999 14.2727H286.408L288.294 20.9545H288.385L290.249 14.2727H291.68L293.521 20.9318H293.612L295.499 14.2727H296.908L294.249 23H292.93L291.021 16.2955H290.885L288.976 23H287.658ZM302.476 14.2727V15.4091H297.953V14.2727H302.476ZM299.271 12.1818H300.612V20.5C300.612 20.8788 300.667 21.1629 300.777 21.3523C300.891 21.5379 301.035 21.6629 301.209 21.7273C301.387 21.7879 301.574 21.8182 301.771 21.8182C301.919 21.8182 302.04 21.8106 302.135 21.7955C302.23 21.7765 302.305 21.7614 302.362 21.75L302.635 22.9545C302.544 22.9886 302.417 23.0227 302.254 23.0568C302.091 23.0947 301.885 23.1136 301.635 23.1136C301.256 23.1136 300.885 23.0322 300.521 22.8693C300.161 22.7064 299.862 22.4583 299.624 22.125C299.389 21.7917 299.271 21.3712 299.271 20.8636V12.1818ZM306.021 17.75V23H304.68V11.3636H306.021V15.6364H306.135C306.339 15.1856 306.646 14.8277 307.055 14.5625C307.468 14.2936 308.018 14.1591 308.703 14.1591C309.298 14.1591 309.819 14.2784 310.266 14.517C310.713 14.7519 311.059 15.1136 311.305 15.6023C311.555 16.0871 311.68 16.7045 311.68 17.4545V23H310.339V17.5455C310.339 16.8523 310.16 16.3163 309.8 15.9375C309.444 15.5549 308.949 15.3636 308.317 15.3636C307.877 15.3636 307.483 15.4564 307.135 15.642C306.79 15.8277 306.518 16.0985 306.317 16.4545C306.12 16.8106 306.021 17.2424 306.021 17.75Z" fill="#CBD5E0"/>
<path d="M393.409 144V132.364H394.818V137.545H401.023V132.364H402.432V144H401.023V138.795H394.818V144H393.409ZM408.616 144.182C407.829 144.182 407.137 143.994 406.543 143.619C405.952 143.244 405.49 142.72 405.156 142.045C404.827 141.371 404.662 140.583 404.662 139.682C404.662 138.773 404.827 137.979 405.156 137.301C405.49 136.623 405.952 136.097 406.543 135.722C407.137 135.347 407.829 135.159 408.616 135.159C409.404 135.159 410.094 135.347 410.685 135.722C411.279 136.097 411.741 136.623 412.071 137.301C412.404 137.979 412.571 138.773 412.571 139.682C412.571 140.583 412.404 141.371 412.071 142.045C411.741 142.72 411.279 143.244 410.685 143.619C410.094 143.994 409.404 144.182 408.616 144.182ZM408.616 142.977C409.215 142.977 409.707 142.824 410.094 142.517C410.48 142.21 410.766 141.807 410.952 141.307C411.137 140.807 411.23 140.265 411.23 139.682C411.23 139.098 411.137 138.555 410.952 138.051C410.766 137.547 410.48 137.14 410.094 136.83C409.707 136.519 409.215 136.364 408.616 136.364C408.018 136.364 407.526 136.519 407.139 136.83C406.753 137.14 406.467 137.547 406.281 138.051C406.096 138.555 406.003 139.098 406.003 139.682C406.003 140.265 406.096 140.807 406.281 141.307C406.467 141.807 406.753 142.21 407.139 142.517C407.526 142.824 408.018 142.977 408.616 142.977ZM414.618 144V135.273H415.913V136.591H416.004C416.163 136.159 416.451 135.809 416.868 135.54C417.285 135.271 417.754 135.136 418.277 135.136C418.375 135.136 418.499 135.138 418.646 135.142C418.794 135.146 418.906 135.152 418.982 135.159V136.523C418.936 136.511 418.832 136.494 418.669 136.472C418.51 136.445 418.341 136.432 418.163 136.432C417.739 136.432 417.36 136.521 417.027 136.699C416.697 136.873 416.436 137.116 416.243 137.426C416.054 137.733 415.959 138.083 415.959 138.477V144H414.618ZM420.571 144V135.273H421.912V144H420.571ZM421.253 133.818C420.991 133.818 420.766 133.729 420.577 133.551C420.391 133.373 420.298 133.159 420.298 132.909C420.298 132.659 420.391 132.445 420.577 132.267C420.766 132.089 420.991 132 421.253 132C421.514 132 421.738 132.089 421.923 132.267C422.113 132.445 422.207 132.659 422.207 132.909C422.207 133.159 422.113 133.373 421.923 133.551C421.738 133.729 421.514 133.818 421.253 133.818ZM424.118 144V142.977L429.072 136.614V136.523H424.277V135.273H430.8V136.341L425.982 142.659V142.75H430.959V144H424.118ZM436.32 144.182C435.532 144.182 434.84 143.994 434.246 143.619C433.655 143.244 433.193 142.72 432.859 142.045C432.53 141.371 432.365 140.583 432.365 139.682C432.365 138.773 432.53 137.979 432.859 137.301C433.193 136.623 433.655 136.097 434.246 135.722C434.84 135.347 435.532 135.159 436.32 135.159C437.107 135.159 437.797 135.347 438.388 135.722C438.982 136.097 439.445 136.623 439.774 137.301C440.107 137.979 440.274 138.773 440.274 139.682C440.274 140.583 440.107 141.371 439.774 142.045C439.445 142.72 438.982 143.244 438.388 143.619C437.797 143.994 437.107 144.182 436.32 144.182ZM436.32 142.977C436.918 142.977 437.411 142.824 437.797 142.517C438.183 142.21 438.469 141.807 438.655 141.307C438.84 140.807 438.933 140.265 438.933 139.682C438.933 139.098 438.84 138.555 438.655 138.051C438.469 137.547 438.183 137.14 437.797 136.83C437.411 136.519 436.918 136.364 436.32 136.364C435.721 136.364 435.229 136.519 434.842 136.83C434.456 137.14 434.17 137.547 433.984 138.051C433.799 138.555 433.706 139.098 433.706 139.682C433.706 140.265 433.799 140.807 433.984 141.307C434.17 141.807 434.456 142.21 434.842 142.517C435.229 142.824 435.721 142.977 436.32 142.977ZM443.662 138.75V144H442.321V135.273H443.616V136.636H443.73C443.935 136.193 444.245 135.837 444.662 135.568C445.079 135.295 445.616 135.159 446.276 135.159C446.866 135.159 447.384 135.28 447.827 135.523C448.27 135.761 448.615 136.125 448.861 136.614C449.107 137.098 449.23 137.712 449.23 138.455V144H447.889V138.545C447.889 137.86 447.711 137.326 447.355 136.943C446.999 136.557 446.51 136.364 445.889 136.364C445.461 136.364 445.079 136.456 444.741 136.642C444.408 136.828 444.145 137.098 443.952 137.455C443.759 137.811 443.662 138.242 443.662 138.75ZM455.476 135.273V136.409H450.953V135.273H455.476ZM452.271 133.182H453.612V141.5C453.612 141.879 453.667 142.163 453.777 142.352C453.891 142.538 454.035 142.663 454.209 142.727C454.387 142.788 454.574 142.818 454.771 142.818C454.919 142.818 455.04 142.811 455.135 142.795C455.23 142.777 455.305 142.761 455.362 142.75L455.635 143.955C455.544 143.989 455.417 144.023 455.254 144.057C455.091 144.095 454.885 144.114 454.635 144.114C454.256 144.114 453.885 144.032 453.521 143.869C453.161 143.706 452.862 143.458 452.624 143.125C452.389 142.792 452.271 142.371 452.271 141.864V133.182ZM460.061 144.205C459.508 144.205 459.006 144.1 458.555 143.892C458.105 143.68 457.747 143.375 457.482 142.977C457.216 142.576 457.084 142.091 457.084 141.523C457.084 141.023 457.182 140.617 457.379 140.307C457.576 139.992 457.839 139.746 458.169 139.568C458.499 139.39 458.862 139.258 459.26 139.17C459.661 139.08 460.065 139.008 460.47 138.955C461 138.886 461.43 138.835 461.76 138.801C462.093 138.763 462.336 138.701 462.487 138.614C462.643 138.527 462.72 138.375 462.72 138.159V138.114C462.72 137.553 462.567 137.117 462.26 136.807C461.957 136.496 461.497 136.341 460.879 136.341C460.239 136.341 459.737 136.481 459.374 136.761C459.01 137.042 458.754 137.341 458.607 137.659L457.334 137.205C457.561 136.674 457.864 136.261 458.243 135.966C458.625 135.667 459.042 135.458 459.493 135.341C459.947 135.22 460.394 135.159 460.834 135.159C461.114 135.159 461.436 135.193 461.8 135.261C462.167 135.326 462.521 135.46 462.862 135.665C463.207 135.869 463.493 136.178 463.72 136.591C463.947 137.004 464.061 137.557 464.061 138.25V144H462.72V142.818H462.652C462.561 143.008 462.41 143.21 462.197 143.426C461.985 143.642 461.703 143.826 461.351 143.977C460.999 144.129 460.569 144.205 460.061 144.205ZM460.266 143C460.796 143 461.243 142.896 461.607 142.688C461.974 142.479 462.25 142.21 462.436 141.881C462.625 141.551 462.72 141.205 462.72 140.841V139.614C462.663 139.682 462.538 139.744 462.345 139.801C462.156 139.854 461.936 139.902 461.686 139.943C461.44 139.981 461.199 140.015 460.964 140.045C460.733 140.072 460.546 140.095 460.402 140.114C460.054 140.159 459.728 140.233 459.425 140.335C459.125 140.434 458.883 140.583 458.697 140.784C458.516 140.981 458.425 141.25 458.425 141.591C458.425 142.057 458.597 142.409 458.942 142.648C459.29 142.883 459.732 143 460.266 143ZM467.849 132.364V144H466.509V132.364H467.849ZM478.328 147.455C477.68 147.455 477.124 147.371 476.658 147.205C476.192 147.042 475.804 146.826 475.493 146.557C475.186 146.292 474.942 146.008 474.76 145.705L475.828 144.955C475.949 145.114 476.103 145.295 476.288 145.5C476.474 145.708 476.728 145.888 477.05 146.04C477.375 146.195 477.802 146.273 478.328 146.273C479.033 146.273 479.614 146.102 480.072 145.761C480.531 145.42 480.76 144.886 480.76 144.159V142.386H480.646C480.548 142.545 480.408 142.742 480.226 142.977C480.048 143.208 479.79 143.415 479.453 143.597C479.12 143.775 478.669 143.864 478.101 143.864C477.396 143.864 476.764 143.697 476.203 143.364C475.646 143.03 475.205 142.545 474.879 141.909C474.557 141.273 474.396 140.5 474.396 139.591C474.396 138.697 474.554 137.919 474.868 137.256C475.182 136.589 475.62 136.074 476.18 135.71C476.741 135.343 477.389 135.159 478.124 135.159C478.692 135.159 479.143 135.254 479.476 135.443C479.813 135.629 480.071 135.841 480.249 136.08C480.43 136.314 480.571 136.508 480.669 136.659H480.805V135.273H482.101V144.25C482.101 145 481.93 145.61 481.589 146.08C481.252 146.553 480.798 146.9 480.226 147.119C479.658 147.343 479.025 147.455 478.328 147.455ZM478.283 142.659C478.821 142.659 479.275 142.536 479.646 142.29C480.018 142.044 480.3 141.689 480.493 141.227C480.686 140.765 480.783 140.212 480.783 139.568C480.783 138.939 480.688 138.384 480.499 137.903C480.309 137.422 480.029 137.045 479.658 136.773C479.286 136.5 478.828 136.364 478.283 136.364C477.714 136.364 477.241 136.508 476.862 136.795C476.487 137.083 476.205 137.47 476.016 137.955C475.83 138.439 475.737 138.977 475.737 139.568C475.737 140.174 475.832 140.71 476.021 141.176C476.214 141.638 476.499 142.002 476.874 142.267C477.252 142.528 477.722 142.659 478.283 142.659ZM484.555 144V135.273H485.851V136.591H485.942C486.101 136.159 486.389 135.809 486.805 135.54C487.222 135.271 487.692 135.136 488.214 135.136C488.313 135.136 488.436 135.138 488.584 135.142C488.732 135.146 488.843 135.152 488.919 135.159V136.523C488.874 136.511 488.769 136.494 488.607 136.472C488.447 136.445 488.279 136.432 488.101 136.432C487.677 136.432 487.298 136.521 486.964 136.699C486.635 136.873 486.374 137.116 486.18 137.426C485.991 137.733 485.896 138.083 485.896 138.477V144H484.555ZM493.788 144.182C493 144.182 492.309 143.994 491.714 143.619C491.124 143.244 490.661 142.72 490.328 142.045C489.999 141.371 489.834 140.583 489.834 139.682C489.834 138.773 489.999 137.979 490.328 137.301C490.661 136.623 491.124 136.097 491.714 135.722C492.309 135.347 493 135.159 493.788 135.159C494.576 135.159 495.266 135.347 495.857 135.722C496.451 136.097 496.913 136.623 497.243 137.301C497.576 137.979 497.743 138.773 497.743 139.682C497.743 140.583 497.576 141.371 497.243 142.045C496.913 142.72 496.451 143.244 495.857 143.619C495.266 143.994 494.576 144.182 493.788 144.182ZM493.788 142.977C494.387 142.977 494.879 142.824 495.266 142.517C495.652 142.21 495.938 141.807 496.124 141.307C496.309 140.807 496.402 140.265 496.402 139.682C496.402 139.098 496.309 138.555 496.124 138.051C495.938 137.547 495.652 137.14 495.266 136.83C494.879 136.519 494.387 136.364 493.788 136.364C493.19 136.364 492.697 136.519 492.311 136.83C491.925 137.14 491.639 137.547 491.453 138.051C491.268 138.555 491.175 139.098 491.175 139.682C491.175 140.265 491.268 140.807 491.453 141.307C491.639 141.807 491.925 142.21 492.311 142.517C492.697 142.824 493.19 142.977 493.788 142.977ZM501.47 144L498.811 135.273H500.22L502.107 141.955H502.197L504.061 135.273H505.493L507.334 141.932H507.425L509.311 135.273H510.72L508.061 144H506.743L504.834 137.295H504.697L502.788 144H501.47ZM516.288 135.273V136.409H511.766V135.273H516.288ZM513.084 133.182H514.425V141.5C514.425 141.879 514.48 142.163 514.589 142.352C514.703 142.538 514.847 142.663 515.021 142.727C515.199 142.788 515.387 142.818 515.584 142.818C515.732 142.818 515.853 142.811 515.947 142.795C516.042 142.777 516.118 142.761 516.175 142.75L516.447 143.955C516.357 143.989 516.23 144.023 516.067 144.057C515.904 144.095 515.697 144.114 515.447 144.114C515.069 144.114 514.697 144.032 514.334 143.869C513.974 143.706 513.675 143.458 513.436 143.125C513.201 142.792 513.084 142.371 513.084 141.864V133.182ZM519.834 138.75V144H518.493V132.364H519.834V136.636H519.947C520.152 136.186 520.459 135.828 520.868 135.562C521.281 135.294 521.83 135.159 522.516 135.159C523.11 135.159 523.631 135.278 524.078 135.517C524.525 135.752 524.872 136.114 525.118 136.602C525.368 137.087 525.493 137.705 525.493 138.455V144H524.152V138.545C524.152 137.852 523.972 137.316 523.612 136.938C523.256 136.555 522.762 136.364 522.129 136.364C521.69 136.364 521.296 136.456 520.947 136.642C520.603 136.828 520.33 137.098 520.129 137.455C519.932 137.811 519.834 138.242 519.834 138.75Z" fill="#CBD5E0"/>
<path d="M18.7727 136H17.3636C17.2803 135.595 17.1345 135.239 16.9261 134.932C16.7216 134.625 16.4716 134.367 16.1761 134.159C15.8845 133.947 15.5606 133.788 15.2045 133.682C14.8485 133.576 14.4773 133.523 14.0909 133.523C13.3864 133.523 12.7481 133.701 12.1761 134.057C11.608 134.413 11.1553 134.938 10.8182 135.631C10.4848 136.324 10.3182 137.174 10.3182 138.182C10.3182 139.189 10.4848 140.04 10.8182 140.733C11.1553 141.426 11.608 141.951 12.1761 142.307C12.7481 142.663 13.3864 142.841 14.0909 142.841C14.4773 142.841 14.8485 142.788 15.2045 142.682C15.5606 142.576 15.8845 142.419 16.1761 142.21C16.4716 141.998 16.7216 141.739 16.9261 141.432C17.1345 141.121 17.2803 140.765 17.3636 140.364H18.7727C18.6667 140.958 18.4735 141.491 18.1932 141.96C17.9129 142.43 17.5644 142.83 17.1477 143.159C16.7311 143.485 16.2633 143.733 15.7443 143.903C15.2292 144.074 14.678 144.159 14.0909 144.159C13.0985 144.159 12.2159 143.917 11.4432 143.432C10.6705 142.947 10.0625 142.258 9.61932 141.364C9.17614 140.47 8.95455 139.409 8.95455 138.182C8.95455 136.955 9.17614 135.894 9.61932 135C10.0625 134.106 10.6705 133.417 11.4432 132.932C12.2159 132.447 13.0985 132.205 14.0909 132.205C14.678 132.205 15.2292 132.29 15.7443 132.46C16.2633 132.631 16.7311 132.881 17.1477 133.21C17.5644 133.536 17.9129 133.934 18.1932 134.403C18.4735 134.869 18.6667 135.402 18.7727 136ZM23.4361 144.205C22.883 144.205 22.3812 144.1 21.9304 143.892C21.4796 143.68 21.1217 143.375 20.8565 142.977C20.5914 142.576 20.4588 142.091 20.4588 141.523C20.4588 141.023 20.5573 140.617 20.7543 140.307C20.9512 139.992 21.2145 139.746 21.544 139.568C21.8736 139.39 22.2372 139.258 22.6349 139.17C23.0365 139.08 23.4399 139.008 23.8452 138.955C24.3755 138.886 24.8054 138.835 25.1349 138.801C25.4683 138.763 25.7107 138.701 25.8622 138.614C26.0175 138.527 26.0952 138.375 26.0952 138.159V138.114C26.0952 137.553 25.9418 137.117 25.6349 136.807C25.3319 136.496 24.8717 136.341 24.2543 136.341C23.6141 136.341 23.1122 136.481 22.7486 136.761C22.3849 137.042 22.1293 137.341 21.9815 137.659L20.7088 137.205C20.9361 136.674 21.2391 136.261 21.6179 135.966C22.0005 135.667 22.4171 135.458 22.8679 135.341C23.3224 135.22 23.7694 135.159 24.2088 135.159C24.4891 135.159 24.8111 135.193 25.1747 135.261C25.5421 135.326 25.8963 135.46 26.2372 135.665C26.5819 135.869 26.8679 136.178 27.0952 136.591C27.3224 137.004 27.4361 137.557 27.4361 138.25V144H26.0952V142.818H26.027C25.9361 143.008 25.7846 143.21 25.5724 143.426C25.3603 143.642 25.0781 143.826 24.7259 143.977C24.3736 144.129 23.9437 144.205 23.4361 144.205ZM23.6406 143C24.1709 143 24.6179 142.896 24.9815 142.688C25.349 142.479 25.6255 142.21 25.8111 141.881C26.0005 141.551 26.0952 141.205 26.0952 140.841V139.614C26.0384 139.682 25.9134 139.744 25.7202 139.801C25.5308 139.854 25.3111 139.902 25.0611 139.943C24.8149 139.981 24.5743 140.015 24.3395 140.045C24.1084 140.072 23.9209 140.095 23.777 140.114C23.4285 140.159 23.1027 140.233 22.7997 140.335C22.5005 140.434 22.258 140.583 22.0724 140.784C21.8906 140.981 21.7997 141.25 21.7997 141.591C21.7997 142.057 21.9721 142.409 22.3168 142.648C22.6652 142.883 23.1065 143 23.6406 143ZM29.8835 144V135.273H31.179V136.591H31.2699C31.429 136.159 31.7169 135.809 32.1335 135.54C32.5502 135.271 33.0199 135.136 33.5426 135.136C33.6411 135.136 33.7642 135.138 33.9119 135.142C34.0597 135.146 34.1714 135.152 34.2472 135.159V136.523C34.2017 136.511 34.0975 136.494 33.9347 136.472C33.7756 136.445 33.607 136.432 33.429 136.432C33.0047 136.432 32.6259 136.521 32.2926 136.699C31.9631 136.873 31.7017 137.116 31.5085 137.426C31.3191 137.733 31.2244 138.083 31.2244 138.477V144H29.8835ZM39.2301 144.182C38.3892 144.182 37.6638 143.996 37.054 143.625C36.4479 143.25 35.9801 142.727 35.6506 142.057C35.3248 141.383 35.1619 140.598 35.1619 139.705C35.1619 138.811 35.3248 138.023 35.6506 137.341C35.9801 136.655 36.4384 136.121 37.0256 135.739C37.6165 135.352 38.3059 135.159 39.0938 135.159C39.5483 135.159 39.9972 135.235 40.4403 135.386C40.8835 135.538 41.2869 135.784 41.6506 136.125C42.0142 136.462 42.304 136.909 42.5199 137.466C42.7358 138.023 42.8438 138.708 42.8438 139.523V140.091H36.1165V138.932H41.4801C41.4801 138.439 41.3816 138 41.1847 137.614C40.9915 137.227 40.715 136.922 40.3551 136.699C39.9991 136.475 39.5786 136.364 39.0938 136.364C38.5597 136.364 38.0975 136.496 37.7074 136.761C37.321 137.023 37.0237 137.364 36.8153 137.784C36.607 138.205 36.5028 138.655 36.5028 139.136V139.909C36.5028 140.568 36.6165 141.127 36.8438 141.585C37.0748 142.04 37.3949 142.386 37.804 142.625C38.2131 142.86 38.6884 142.977 39.2301 142.977C39.5824 142.977 39.9006 142.928 40.1847 142.83C40.4725 142.727 40.7206 142.576 40.929 142.375C41.1373 142.17 41.2983 141.917 41.4119 141.614L42.7074 141.977C42.571 142.417 42.3419 142.803 42.0199 143.136C41.6979 143.466 41.3002 143.723 40.8267 143.909C40.3532 144.091 39.821 144.182 39.2301 144.182ZM48.5426 144.182C47.7017 144.182 46.9763 143.996 46.3665 143.625C45.7604 143.25 45.2926 142.727 44.9631 142.057C44.6373 141.383 44.4744 140.598 44.4744 139.705C44.4744 138.811 44.6373 138.023 44.9631 137.341C45.2926 136.655 45.7509 136.121 46.3381 135.739C46.929 135.352 47.6184 135.159 48.4062 135.159C48.8608 135.159 49.3097 135.235 49.7528 135.386C50.196 135.538 50.5994 135.784 50.9631 136.125C51.3267 136.462 51.6165 136.909 51.8324 137.466C52.0483 138.023 52.1562 138.708 52.1562 139.523V140.091H45.429V138.932H50.7926C50.7926 138.439 50.6941 138 50.4972 137.614C50.304 137.227 50.0275 136.922 49.6676 136.699C49.3116 136.475 48.8911 136.364 48.4062 136.364C47.8722 136.364 47.41 136.496 47.0199 136.761C46.6335 137.023 46.3362 137.364 46.1278 137.784C45.9195 138.205 45.8153 138.655 45.8153 139.136V139.909C45.8153 140.568 45.929 141.127 46.1562 141.585C46.3873 142.04 46.7074 142.386 47.1165 142.625C47.5256 142.86 48.0009 142.977 48.5426 142.977C48.8949 142.977 49.2131 142.928 49.4972 142.83C49.785 142.727 50.0331 142.576 50.2415 142.375C50.4498 142.17 50.6108 141.917 50.7244 141.614L52.0199 141.977C51.8835 142.417 51.6544 142.803 51.3324 143.136C51.0104 143.466 50.6127 143.723 50.1392 143.909C49.6657 144.091 49.1335 144.182 48.5426 144.182ZM54.196 144V135.273H55.4915V136.591H55.5824C55.7415 136.159 56.0294 135.809 56.446 135.54C56.8627 135.271 57.3324 135.136 57.8551 135.136C57.9536 135.136 58.0767 135.138 58.2244 135.142C58.3722 135.146 58.4839 135.152 58.5597 135.159V136.523C58.5142 136.511 58.41 136.494 58.2472 136.472C58.0881 136.445 57.9195 136.432 57.7415 136.432C57.3172 136.432 56.9384 136.521 56.6051 136.699C56.2756 136.873 56.0142 137.116 55.821 137.426C55.6316 137.733 55.5369 138.083 55.5369 138.477V144H54.196ZM68.1946 144.182C67.3764 144.182 66.6719 143.989 66.081 143.602C65.4901 143.216 65.0355 142.684 64.7173 142.006C64.3991 141.328 64.2401 140.553 64.2401 139.682C64.2401 138.795 64.4029 138.013 64.7287 137.335C65.0582 136.653 65.5166 136.121 66.1037 135.739C66.6946 135.352 67.384 135.159 68.1719 135.159C68.7855 135.159 69.3385 135.273 69.831 135.5C70.3234 135.727 70.7268 136.045 71.0412 136.455C71.3556 136.864 71.5507 137.341 71.6264 137.886H70.2855C70.1832 137.489 69.956 137.136 69.6037 136.83C69.2552 136.519 68.7855 136.364 68.1946 136.364C67.6719 136.364 67.2135 136.5 66.8196 136.773C66.4295 137.042 66.1245 137.422 65.9048 137.915C65.6889 138.403 65.581 138.977 65.581 139.636C65.581 140.311 65.687 140.898 65.8991 141.398C66.1151 141.898 66.4181 142.286 66.8082 142.562C67.2022 142.839 67.6643 142.977 68.1946 142.977C68.5431 142.977 68.8594 142.917 69.1435 142.795C69.4276 142.674 69.6681 142.5 69.8651 142.273C70.062 142.045 70.2022 141.773 70.2855 141.455H71.6264C71.5507 141.97 71.3632 142.434 71.0639 142.847C70.7685 143.256 70.3764 143.581 69.8878 143.824C69.4029 144.062 68.8385 144.182 68.1946 144.182ZM74.9276 138.75V144H73.5866V132.364H74.9276V136.636H75.0412C75.2457 136.186 75.5526 135.828 75.9616 135.562C76.3745 135.294 76.9238 135.159 77.6094 135.159C78.2041 135.159 78.7249 135.278 79.1719 135.517C79.6188 135.752 79.9654 136.114 80.2116 136.602C80.4616 137.087 80.5866 137.705 80.5866 138.455V144H79.2457V138.545C79.2457 137.852 79.0658 137.316 78.706 136.938C78.3499 136.555 77.8556 136.364 77.223 136.364C76.7836 136.364 76.3897 136.456 76.0412 136.642C75.6965 136.828 75.4238 137.098 75.223 137.455C75.026 137.811 74.9276 138.242 74.9276 138.75ZM85.608 144.205C85.0549 144.205 84.553 144.1 84.1023 143.892C83.6515 143.68 83.2936 143.375 83.0284 142.977C82.7633 142.576 82.6307 142.091 82.6307 141.523C82.6307 141.023 82.7292 140.617 82.9261 140.307C83.1231 139.992 83.3864 139.746 83.7159 139.568C84.0455 139.39 84.4091 139.258 84.8068 139.17C85.2083 139.08 85.6117 139.008 86.017 138.955C86.5473 138.886 86.9773 138.835 87.3068 138.801C87.6402 138.763 87.8826 138.701 88.0341 138.614C88.1894 138.527 88.267 138.375 88.267 138.159V138.114C88.267 137.553 88.1136 137.117 87.8068 136.807C87.5038 136.496 87.0436 136.341 86.4261 136.341C85.786 136.341 85.2841 136.481 84.9205 136.761C84.5568 137.042 84.3011 137.341 84.1534 137.659L82.8807 137.205C83.108 136.674 83.411 136.261 83.7898 135.966C84.1723 135.667 84.589 135.458 85.0398 135.341C85.4943 135.22 85.9413 135.159 86.3807 135.159C86.661 135.159 86.983 135.193 87.3466 135.261C87.714 135.326 88.0682 135.46 88.4091 135.665C88.7538 135.869 89.0398 136.178 89.267 136.591C89.4943 137.004 89.608 137.557 89.608 138.25V144H88.267V142.818H88.1989C88.108 143.008 87.9564 143.21 87.7443 143.426C87.5322 143.642 87.25 143.826 86.8977 143.977C86.5455 144.129 86.1155 144.205 85.608 144.205ZM85.8125 143C86.3428 143 86.7898 142.896 87.1534 142.688C87.5208 142.479 87.7973 142.21 87.983 141.881C88.1723 141.551 88.267 141.205 88.267 140.841V139.614C88.2102 139.682 88.0852 139.744 87.892 139.801C87.7027 139.854 87.483 139.902 87.233 139.943C86.9867 139.981 86.7462 140.015 86.5114 140.045C86.2803 140.072 86.0928 140.095 85.9489 140.114C85.6004 140.159 85.2746 140.233 84.9716 140.335C84.6723 140.434 84.4299 140.583 84.2443 140.784C84.0625 140.981 83.9716 141.25 83.9716 141.591C83.9716 142.057 84.1439 142.409 84.4886 142.648C84.8371 142.883 85.2784 143 85.8125 143ZM93.3963 138.75V144H92.0554V135.273H93.3509V136.636H93.4645C93.669 136.193 93.9796 135.837 94.3963 135.568C94.813 135.295 95.3509 135.159 96.0099 135.159C96.6009 135.159 97.1179 135.28 97.5611 135.523C98.0043 135.761 98.349 136.125 98.5952 136.614C98.8414 137.098 98.9645 137.712 98.9645 138.455V144H97.6236V138.545C97.6236 137.86 97.4455 137.326 97.0895 136.943C96.7334 136.557 96.2448 136.364 95.6236 136.364C95.1955 136.364 94.813 136.456 94.4759 136.642C94.1425 136.828 93.8793 137.098 93.6861 137.455C93.4929 137.811 93.3963 138.242 93.3963 138.75ZM104.938 147.455C104.29 147.455 103.733 147.371 103.267 147.205C102.801 147.042 102.413 146.826 102.102 146.557C101.795 146.292 101.551 146.008 101.369 145.705L102.438 144.955C102.559 145.114 102.712 145.295 102.898 145.5C103.083 145.708 103.337 145.888 103.659 146.04C103.985 146.195 104.411 146.273 104.938 146.273C105.642 146.273 106.223 146.102 106.682 145.761C107.14 145.42 107.369 144.886 107.369 144.159V142.386H107.256C107.157 142.545 107.017 142.742 106.835 142.977C106.657 143.208 106.4 143.415 106.062 143.597C105.729 143.775 105.278 143.864 104.71 143.864C104.006 143.864 103.373 143.697 102.812 143.364C102.256 143.03 101.814 142.545 101.489 141.909C101.167 141.273 101.006 140.5 101.006 139.591C101.006 138.697 101.163 137.919 101.477 137.256C101.792 136.589 102.229 136.074 102.79 135.71C103.35 135.343 103.998 135.159 104.733 135.159C105.301 135.159 105.752 135.254 106.085 135.443C106.422 135.629 106.68 135.841 106.858 136.08C107.04 136.314 107.18 136.508 107.278 136.659H107.415V135.273H108.71V144.25C108.71 145 108.54 145.61 108.199 146.08C107.862 146.553 107.407 146.9 106.835 147.119C106.267 147.343 105.634 147.455 104.938 147.455ZM104.892 142.659C105.43 142.659 105.884 142.536 106.256 142.29C106.627 142.044 106.909 141.689 107.102 141.227C107.295 140.765 107.392 140.212 107.392 139.568C107.392 138.939 107.297 138.384 107.108 137.903C106.919 137.422 106.638 137.045 106.267 136.773C105.896 136.5 105.438 136.364 104.892 136.364C104.324 136.364 103.85 136.508 103.472 136.795C103.097 137.083 102.814 137.47 102.625 137.955C102.439 138.439 102.347 138.977 102.347 139.568C102.347 140.174 102.441 140.71 102.631 141.176C102.824 141.638 103.108 142.002 103.483 142.267C103.862 142.528 104.331 142.659 104.892 142.659ZM114.824 144.182C113.983 144.182 113.258 143.996 112.648 143.625C112.042 143.25 111.574 142.727 111.244 142.057C110.919 141.383 110.756 140.598 110.756 139.705C110.756 138.811 110.919 138.023 111.244 137.341C111.574 136.655 112.032 136.121 112.619 135.739C113.21 135.352 113.9 135.159 114.688 135.159C115.142 135.159 115.591 135.235 116.034 135.386C116.477 135.538 116.881 135.784 117.244 136.125C117.608 136.462 117.898 136.909 118.114 137.466C118.33 138.023 118.438 138.708 118.438 139.523V140.091H111.71V138.932H117.074C117.074 138.439 116.975 138 116.778 137.614C116.585 137.227 116.309 136.922 115.949 136.699C115.593 136.475 115.172 136.364 114.688 136.364C114.153 136.364 113.691 136.496 113.301 136.761C112.915 137.023 112.617 137.364 112.409 137.784C112.201 138.205 112.097 138.655 112.097 139.136V139.909C112.097 140.568 112.21 141.127 112.438 141.585C112.669 142.04 112.989 142.386 113.398 142.625C113.807 142.86 114.282 142.977 114.824 142.977C115.176 142.977 115.494 142.928 115.778 142.83C116.066 142.727 116.314 142.576 116.523 142.375C116.731 142.17 116.892 141.917 117.006 141.614L118.301 141.977C118.165 142.417 117.936 142.803 117.614 143.136C117.292 143.466 116.894 143.723 116.42 143.909C115.947 144.091 115.415 144.182 114.824 144.182Z" fill="#CBD5E0"/>
<path d="M29.7727 66H28.3636C28.2803 65.5947 28.1345 65.2386 27.9261 64.9318C27.7216 64.625 27.4716 64.3674 27.1761 64.1591C26.8845 63.947 26.5606 63.7879 26.2045 63.6818C25.8485 63.5758 25.4773 63.5227 25.0909 63.5227C24.3864 63.5227 23.7481 63.7008 23.1761 64.0568C22.608 64.4129 22.1553 64.9375 21.8182 65.6307C21.4848 66.3239 21.3182 67.1742 21.3182 68.1818C21.3182 69.1894 21.4848 70.0398 21.8182 70.733C22.1553 71.4261 22.608 71.9508 23.1761 72.3068C23.7481 72.6629 24.3864 72.8409 25.0909 72.8409C25.4773 72.8409 25.8485 72.7879 26.2045 72.6818C26.5606 72.5758 26.8845 72.4186 27.1761 72.2102C27.4716 71.9981 27.7216 71.7386 27.9261 71.4318C28.1345 71.1212 28.2803 70.7652 28.3636 70.3636H29.7727C29.6667 70.9583 29.4735 71.4905 29.1932 71.9602C28.9129 72.4299 28.5644 72.8295 28.1477 73.1591C27.7311 73.4848 27.2633 73.733 26.7443 73.9034C26.2292 74.0739 25.678 74.1591 25.0909 74.1591C24.0985 74.1591 23.2159 73.9167 22.4432 73.4318C21.6705 72.947 21.0625 72.2576 20.6193 71.3636C20.1761 70.4697 19.9545 69.4091 19.9545 68.1818C19.9545 66.9545 20.1761 65.8939 20.6193 65C21.0625 64.1061 21.6705 63.4167 22.4432 62.9318C23.2159 62.447 24.0985 62.2045 25.0909 62.2045C25.678 62.2045 26.2292 62.2898 26.7443 62.4602C27.2633 62.6307 27.7311 62.8807 28.1477 63.2102C28.5644 63.536 28.9129 63.9337 29.1932 64.4034C29.4735 64.8693 29.6667 65.4015 29.7727 66ZM35.4134 74.1818C34.6255 74.1818 33.9342 73.9943 33.3395 73.6193C32.7486 73.2443 32.2865 72.7197 31.9531 72.0455C31.6236 71.3712 31.4588 70.5833 31.4588 69.6818C31.4588 68.7727 31.6236 67.9792 31.9531 67.3011C32.2865 66.6231 32.7486 66.0966 33.3395 65.7216C33.9342 65.3466 34.6255 65.1591 35.4134 65.1591C36.2012 65.1591 36.8906 65.3466 37.4815 65.7216C38.0762 66.0966 38.5384 66.6231 38.8679 67.3011C39.2012 67.9792 39.3679 68.7727 39.3679 69.6818C39.3679 70.5833 39.2012 71.3712 38.8679 72.0455C38.5384 72.7197 38.0762 73.2443 37.4815 73.6193C36.8906 73.9943 36.2012 74.1818 35.4134 74.1818ZM35.4134 72.9773C36.0118 72.9773 36.5043 72.8239 36.8906 72.517C37.277 72.2102 37.563 71.8068 37.7486 71.3068C37.9342 70.8068 38.027 70.2652 38.027 69.6818C38.027 69.0985 37.9342 68.5549 37.7486 68.0511C37.563 67.5473 37.277 67.1402 36.8906 66.8295C36.5043 66.5189 36.0118 66.3636 35.4134 66.3636C34.8149 66.3636 34.3224 66.5189 33.9361 66.8295C33.5497 67.1402 33.2637 67.5473 33.0781 68.0511C32.8925 68.5549 32.7997 69.0985 32.7997 69.6818C32.7997 70.2652 32.8925 70.8068 33.0781 71.3068C33.2637 71.8068 33.5497 72.2102 33.9361 72.517C34.3224 72.8239 34.8149 72.9773 35.4134 72.9773ZM41.4148 74V65.2727H42.7102V66.6364H42.8239C43.0057 66.1705 43.2992 65.8087 43.7045 65.5511C44.1098 65.2898 44.5966 65.1591 45.1648 65.1591C45.7405 65.1591 46.2197 65.2898 46.6023 65.5511C46.9886 65.8087 47.2898 66.1705 47.5057 66.6364H47.5966C47.8201 66.1856 48.1553 65.8277 48.6023 65.5625C49.0492 65.2936 49.5852 65.1591 50.2102 65.1591C50.9905 65.1591 51.6288 65.4034 52.125 65.892C52.6212 66.3769 52.8693 67.1326 52.8693 68.1591V74H51.5284V68.1591C51.5284 67.5152 51.3523 67.0549 51 66.7784C50.6477 66.5019 50.233 66.3636 49.7557 66.3636C49.142 66.3636 48.6667 66.5492 48.3295 66.9205C47.9924 67.2879 47.8239 67.7538 47.8239 68.3182V74H46.4602V68.0227C46.4602 67.5265 46.2992 67.1269 45.9773 66.8239C45.6553 66.517 45.2405 66.3636 44.733 66.3636C44.3845 66.3636 44.0587 66.4564 43.7557 66.642C43.4564 66.8277 43.214 67.0852 43.0284 67.4148C42.8466 67.7405 42.7557 68.1174 42.7557 68.5455V74H41.4148ZM55.321 77.2727V65.2727H56.6165V66.6591H56.7756C56.8741 66.5076 57.0104 66.3144 57.1847 66.0795C57.3627 65.8409 57.6165 65.6288 57.946 65.4432C58.2794 65.2538 58.7301 65.1591 59.2983 65.1591C60.0331 65.1591 60.6809 65.3428 61.2415 65.7102C61.8021 66.0777 62.2396 66.5985 62.554 67.2727C62.8684 67.947 63.0256 68.7424 63.0256 69.6591C63.0256 70.5833 62.8684 71.3845 62.554 72.0625C62.2396 72.7367 61.804 73.2595 61.2472 73.6307C60.6903 73.9981 60.0483 74.1818 59.321 74.1818C58.7604 74.1818 58.3116 74.089 57.9744 73.9034C57.6373 73.714 57.3778 73.5 57.196 73.2614C57.0142 73.0189 56.8741 72.8182 56.7756 72.6591H56.6619V77.2727H55.321ZM56.6392 69.6364C56.6392 70.2955 56.7358 70.8769 56.929 71.3807C57.1222 71.8807 57.4044 72.2727 57.7756 72.5568C58.1468 72.8371 58.6013 72.9773 59.1392 72.9773C59.6998 72.9773 60.1676 72.8295 60.5426 72.5341C60.9214 72.2348 61.2055 71.8333 61.3949 71.3295C61.5881 70.822 61.6847 70.2576 61.6847 69.6364C61.6847 69.0227 61.59 68.4697 61.4006 67.9773C61.215 67.4811 60.9328 67.089 60.554 66.8011C60.179 66.5095 59.7074 66.3636 59.1392 66.3636C58.5938 66.3636 58.1354 66.5019 57.7642 66.7784C57.393 67.0511 57.1127 67.4337 56.9233 67.9261C56.7339 68.4148 56.6392 68.9848 56.6392 69.6364ZM67.6392 74.2045C67.0862 74.2045 66.5843 74.1004 66.1335 73.892C65.6828 73.6799 65.3248 73.375 65.0597 72.9773C64.7945 72.5758 64.6619 72.0909 64.6619 71.5227C64.6619 71.0227 64.7604 70.6174 64.9574 70.3068C65.1544 69.9924 65.4176 69.7462 65.7472 69.5682C66.0767 69.3902 66.4403 69.2576 66.8381 69.1705C67.2396 69.0795 67.643 69.0076 68.0483 68.9545C68.5786 68.8864 69.0085 68.8352 69.3381 68.8011C69.6714 68.7633 69.9138 68.7008 70.0653 68.6136C70.2206 68.5265 70.2983 68.375 70.2983 68.1591V68.1136C70.2983 67.553 70.1449 67.1174 69.8381 66.8068C69.535 66.4962 69.0748 66.3409 68.4574 66.3409C67.8172 66.3409 67.3153 66.4811 66.9517 66.7614C66.5881 67.0417 66.3324 67.3409 66.1847 67.6591L64.9119 67.2045C65.1392 66.6742 65.4422 66.2614 65.821 65.9659C66.2036 65.6667 66.6203 65.4583 67.071 65.3409C67.5256 65.2197 67.9725 65.1591 68.4119 65.1591C68.6922 65.1591 69.0142 65.1932 69.3778 65.2614C69.7453 65.3258 70.0994 65.4602 70.4403 65.6648C70.785 65.8693 71.071 66.178 71.2983 66.5909C71.5256 67.0038 71.6392 67.5568 71.6392 68.25V74H70.2983V72.8182H70.2301C70.1392 73.0076 69.9877 73.2102 69.7756 73.4261C69.5634 73.642 69.2813 73.8258 68.929 73.9773C68.5767 74.1288 68.1468 74.2045 67.6392 74.2045ZM67.8438 73C68.3741 73 68.821 72.8958 69.1847 72.6875C69.5521 72.4792 69.8286 72.2102 70.0142 71.8807C70.2036 71.5511 70.2983 71.2045 70.2983 70.8409V69.6136C70.2415 69.6818 70.1165 69.7443 69.9233 69.8011C69.7339 69.8542 69.5142 69.9015 69.2642 69.9432C69.018 69.9811 68.7775 70.0152 68.5426 70.0455C68.3116 70.072 68.1241 70.0947 67.9801 70.1136C67.6316 70.1591 67.3059 70.233 67.0028 70.3352C66.7036 70.4337 66.4612 70.5833 66.2756 70.7841C66.0938 70.9811 66.0028 71.25 66.0028 71.5909C66.0028 72.0568 66.1752 72.4091 66.5199 72.6477C66.8684 72.8826 67.3097 73 67.8438 73ZM75.4276 68.75V74H74.0866V65.2727H75.3821V66.6364H75.4957C75.7003 66.1932 76.0109 65.8371 76.4276 65.5682C76.8442 65.2955 77.3821 65.1591 78.0412 65.1591C78.6321 65.1591 79.1491 65.2803 79.5923 65.5227C80.0355 65.7614 80.3802 66.125 80.6264 66.6136C80.8726 67.0985 80.9957 67.7121 80.9957 68.4545V74H79.6548V68.5455C79.6548 67.8598 79.4768 67.3258 79.1207 66.9432C78.7647 66.5568 78.276 66.3636 77.6548 66.3636C77.2268 66.3636 76.8442 66.4564 76.5071 66.642C76.1738 66.8277 75.9105 67.0985 75.7173 67.4545C75.5241 67.8106 75.4276 68.2424 75.4276 68.75ZM83.9972 77.2727C83.7699 77.2727 83.5672 77.2538 83.3892 77.2159C83.2112 77.1818 83.0881 77.1477 83.0199 77.1136L83.3608 75.9318C83.6866 76.0152 83.9744 76.0455 84.2244 76.0227C84.4744 76 84.696 75.8883 84.8892 75.6875C85.0862 75.4905 85.2661 75.1705 85.429 74.7273L85.679 74.0455L82.4517 65.2727H83.9062L86.3153 72.2273H86.4062L88.8153 65.2727H90.2699L86.5653 75.2727C86.3987 75.7235 86.1922 76.0966 85.946 76.392C85.6998 76.6913 85.4138 76.9129 85.0881 77.0568C84.7661 77.2008 84.4025 77.2727 83.9972 77.2727ZM100.085 74.1818C99.267 74.1818 98.5625 73.9886 97.9716 73.6023C97.3807 73.2159 96.9261 72.6837 96.608 72.0057C96.2898 71.3277 96.1307 70.553 96.1307 69.6818C96.1307 68.7955 96.2936 68.0133 96.6193 67.3352C96.9489 66.6534 97.4072 66.1212 97.9943 65.7386C98.5852 65.3523 99.2746 65.1591 100.062 65.1591C100.676 65.1591 101.229 65.2727 101.722 65.5C102.214 65.7273 102.617 66.0455 102.932 66.4545C103.246 66.8636 103.441 67.3409 103.517 67.8864H102.176C102.074 67.4886 101.847 67.1364 101.494 66.8295C101.146 66.5189 100.676 66.3636 100.085 66.3636C99.5625 66.3636 99.1042 66.5 98.7102 66.7727C98.3201 67.0417 98.0152 67.4223 97.7955 67.9148C97.5795 68.4034 97.4716 68.9773 97.4716 69.6364C97.4716 70.3106 97.5777 70.8977 97.7898 71.3977C98.0057 71.8977 98.3087 72.286 98.6989 72.5625C99.0928 72.839 99.5549 72.9773 100.085 72.9773C100.434 72.9773 100.75 72.9167 101.034 72.7955C101.318 72.6742 101.559 72.5 101.756 72.2727C101.953 72.0455 102.093 71.7727 102.176 71.4545H103.517C103.441 71.9697 103.254 72.4337 102.955 72.8466C102.659 73.2557 102.267 73.5814 101.778 73.8239C101.294 74.0625 100.729 74.1818 100.085 74.1818ZM106.818 68.75V74H105.477V62.3636H106.818V66.6364H106.932C107.136 66.1856 107.443 65.8277 107.852 65.5625C108.265 65.2936 108.814 65.1591 109.5 65.1591C110.095 65.1591 110.616 65.2784 111.062 65.517C111.509 65.7519 111.856 66.1136 112.102 66.6023C112.352 67.0871 112.477 67.7045 112.477 68.4545V74H111.136V68.5455C111.136 67.8523 110.956 67.3163 110.597 66.9375C110.241 66.5549 109.746 66.3636 109.114 66.3636C108.674 66.3636 108.28 66.4564 107.932 66.642C107.587 66.8277 107.314 67.0985 107.114 67.4545C106.917 67.8106 106.818 68.2424 106.818 68.75ZM117.499 74.2045C116.946 74.2045 116.444 74.1004 115.993 73.892C115.542 73.6799 115.184 73.375 114.919 72.9773C114.654 72.5758 114.521 72.0909 114.521 71.5227C114.521 71.0227 114.62 70.6174 114.817 70.3068C115.014 69.9924 115.277 69.7462 115.607 69.5682C115.936 69.3902 116.3 69.2576 116.697 69.1705C117.099 69.0795 117.502 69.0076 117.908 68.9545C118.438 68.8864 118.868 68.8352 119.197 68.8011C119.531 68.7633 119.773 68.7008 119.925 68.6136C120.08 68.5265 120.158 68.375 120.158 68.1591V68.1136C120.158 67.553 120.004 67.1174 119.697 66.8068C119.394 66.4962 118.934 66.3409 118.317 66.3409C117.677 66.3409 117.175 66.4811 116.811 66.7614C116.447 67.0417 116.192 67.3409 116.044 67.6591L114.771 67.2045C114.999 66.6742 115.302 66.2614 115.68 65.9659C116.063 65.6667 116.48 65.4583 116.93 65.3409C117.385 65.2197 117.832 65.1591 118.271 65.1591C118.552 65.1591 118.874 65.1932 119.237 65.2614C119.605 65.3258 119.959 65.4602 120.3 65.6648C120.644 65.8693 120.93 66.178 121.158 66.5909C121.385 67.0038 121.499 67.5568 121.499 68.25V74H120.158V72.8182H120.089C119.999 73.0076 119.847 73.2102 119.635 73.4261C119.423 73.642 119.141 73.8258 118.788 73.9773C118.436 74.1288 118.006 74.2045 117.499 74.2045ZM117.703 73C118.233 73 118.68 72.8958 119.044 72.6875C119.411 72.4792 119.688 72.2102 119.874 71.8807C120.063 71.5511 120.158 71.2045 120.158 70.8409V69.6136C120.101 69.6818 119.976 69.7443 119.783 69.8011C119.593 69.8542 119.374 69.9015 119.124 69.9432C118.877 69.9811 118.637 70.0152 118.402 70.0455C118.171 70.072 117.983 70.0947 117.839 70.1136C117.491 70.1591 117.165 70.233 116.862 70.3352C116.563 70.4337 116.321 70.5833 116.135 70.7841C115.953 70.9811 115.862 71.25 115.862 71.5909C115.862 72.0568 116.035 72.4091 116.379 72.6477C116.728 72.8826 117.169 73 117.703 73ZM125.287 68.75V74H123.946V65.2727H125.241V66.6364H125.355C125.56 66.1932 125.87 65.8371 126.287 65.5682C126.704 65.2955 127.241 65.1591 127.901 65.1591C128.491 65.1591 129.009 65.2803 129.452 65.5227C129.895 65.7614 130.24 66.125 130.486 66.6136C130.732 67.0985 130.855 67.7121 130.855 68.4545V74H129.514V68.5455C129.514 67.8598 129.336 67.3258 128.98 66.9432C128.624 66.5568 128.135 66.3636 127.514 66.3636C127.086 66.3636 126.704 66.4564 126.366 66.642C126.033 66.8277 125.77 67.0985 125.577 67.4545C125.384 67.8106 125.287 68.2424 125.287 68.75ZM136.828 77.4545C136.18 77.4545 135.624 77.3712 135.158 77.2045C134.692 77.0417 134.304 76.8258 133.993 76.5568C133.686 76.2917 133.442 76.0076 133.26 75.7045L134.328 74.9545C134.449 75.1136 134.603 75.2955 134.788 75.5C134.974 75.7083 135.228 75.8883 135.55 76.0398C135.875 76.1951 136.302 76.2727 136.828 76.2727C137.533 76.2727 138.114 76.1023 138.572 75.7614C139.031 75.4205 139.26 74.8864 139.26 74.1591V72.3864H139.146C139.048 72.5455 138.908 72.7424 138.726 72.9773C138.548 73.2083 138.29 73.4148 137.953 73.5966C137.62 73.7746 137.169 73.8636 136.601 73.8636C135.896 73.8636 135.264 73.697 134.703 73.3636C134.146 73.0303 133.705 72.5455 133.379 71.9091C133.057 71.2727 132.896 70.5 132.896 69.5909C132.896 68.697 133.054 67.9186 133.368 67.2557C133.682 66.589 134.12 66.0739 134.68 65.7102C135.241 65.3428 135.889 65.1591 136.624 65.1591C137.192 65.1591 137.643 65.2538 137.976 65.4432C138.313 65.6288 138.571 65.8409 138.749 66.0795C138.93 66.3144 139.071 66.5076 139.169 66.6591H139.305V65.2727H140.601V74.25C140.601 75 140.43 75.6098 140.089 76.0795C139.752 76.553 139.298 76.8996 138.726 77.1193C138.158 77.3428 137.525 77.4545 136.828 77.4545ZM136.783 72.6591C137.321 72.6591 137.775 72.536 138.146 72.2898C138.518 72.0436 138.8 71.6894 138.993 71.2273C139.186 70.7652 139.283 70.2121 139.283 69.5682C139.283 68.9394 139.188 68.3845 138.999 67.9034C138.809 67.4223 138.529 67.0455 138.158 66.7727C137.786 66.5 137.328 66.3636 136.783 66.3636C136.214 66.3636 135.741 66.5076 135.362 66.7955C134.987 67.0833 134.705 67.4697 134.516 67.9545C134.33 68.4394 134.237 68.9773 134.237 69.5682C134.237 70.1742 134.332 70.7102 134.521 71.1761C134.714 71.6383 134.999 72.0019 135.374 72.267C135.752 72.5284 136.222 72.6591 136.783 72.6591ZM146.714 74.1818C145.874 74.1818 145.148 73.9962 144.538 73.625C143.932 73.25 143.464 72.7273 143.135 72.0568C142.809 71.3826 142.646 70.5985 142.646 69.7045C142.646 68.8106 142.809 68.0227 143.135 67.3409C143.464 66.6553 143.923 66.1212 144.51 65.7386C145.101 65.3523 145.79 65.1591 146.578 65.1591C147.033 65.1591 147.482 65.2348 147.925 65.3864C148.368 65.5379 148.771 65.7841 149.135 66.125C149.499 66.4621 149.788 66.9091 150.004 67.4659C150.22 68.0227 150.328 68.7083 150.328 69.5227V70.0909H143.601V68.9318H148.964C148.964 68.4394 148.866 68 148.669 67.6136C148.476 67.2273 148.199 66.9223 147.839 66.6989C147.483 66.4754 147.063 66.3636 146.578 66.3636C146.044 66.3636 145.582 66.4962 145.192 66.7614C144.805 67.0227 144.508 67.3636 144.3 67.7841C144.091 68.2045 143.987 68.6553 143.987 69.1364V69.9091C143.987 70.5682 144.101 71.1269 144.328 71.5852C144.559 72.0398 144.879 72.3864 145.288 72.625C145.697 72.8598 146.173 72.9773 146.714 72.9773C147.067 72.9773 147.385 72.928 147.669 72.8295C147.957 72.7273 148.205 72.5758 148.413 72.375C148.622 72.1705 148.783 71.9167 148.896 71.6136L150.192 71.9773C150.055 72.4167 149.826 72.803 149.504 73.1364C149.182 73.4659 148.785 73.7235 148.311 73.9091C147.838 74.0909 147.305 74.1818 146.714 74.1818Z" fill="#CBD5E0"/>
<path d="M360.773 63.6136V62.3636H369.5V63.6136H365.841V74H364.432V63.6136H360.773ZM373.886 74.1818C373.045 74.1818 372.32 73.9962 371.71 73.625C371.104 73.25 370.636 72.7273 370.307 72.0568C369.981 71.3826 369.818 70.5985 369.818 69.7045C369.818 68.8106 369.981 68.0227 370.307 67.3409C370.636 66.6553 371.095 66.1212 371.682 65.7386C372.273 65.3523 372.962 65.1591 373.75 65.1591C374.205 65.1591 374.653 65.2348 375.097 65.3864C375.54 65.5379 375.943 65.7841 376.307 66.125C376.67 66.4621 376.96 66.9091 377.176 67.4659C377.392 68.0227 377.5 68.7083 377.5 69.5227V70.0909H370.773V68.9318H376.136C376.136 68.4394 376.038 68 375.841 67.6136C375.648 67.2273 375.371 66.9223 375.011 66.6989C374.655 66.4754 374.235 66.3636 373.75 66.3636C373.216 66.3636 372.754 66.4962 372.364 66.7614C371.977 67.0227 371.68 67.3636 371.472 67.7841C371.263 68.2045 371.159 68.6553 371.159 69.1364V69.9091C371.159 70.5682 371.273 71.1269 371.5 71.5852C371.731 72.0398 372.051 72.3864 372.46 72.625C372.869 72.8598 373.345 72.9773 373.886 72.9773C374.239 72.9773 374.557 72.928 374.841 72.8295C375.129 72.7273 375.377 72.5758 375.585 72.375C375.794 72.1705 375.955 71.9167 376.068 71.6136L377.364 71.9773C377.227 72.4167 376.998 72.803 376.676 73.1364C376.354 73.4659 375.956 73.7235 375.483 73.9091C375.009 74.0909 374.477 74.1818 373.886 74.1818ZM382.108 74.2045C381.555 74.2045 381.053 74.1004 380.602 73.892C380.152 73.6799 379.794 73.375 379.528 72.9773C379.263 72.5758 379.131 72.0909 379.131 71.5227C379.131 71.0227 379.229 70.6174 379.426 70.3068C379.623 69.9924 379.886 69.7462 380.216 69.5682C380.545 69.3902 380.909 69.2576 381.307 69.1705C381.708 69.0795 382.112 69.0076 382.517 68.9545C383.047 68.8864 383.477 68.8352 383.807 68.8011C384.14 68.7633 384.383 68.7008 384.534 68.6136C384.689 68.5265 384.767 68.375 384.767 68.1591V68.1136C384.767 67.553 384.614 67.1174 384.307 66.8068C384.004 66.4962 383.544 66.3409 382.926 66.3409C382.286 66.3409 381.784 66.4811 381.42 66.7614C381.057 67.0417 380.801 67.3409 380.653 67.6591L379.381 67.2045C379.608 66.6742 379.911 66.2614 380.29 65.9659C380.672 65.6667 381.089 65.4583 381.54 65.3409C381.994 65.2197 382.441 65.1591 382.881 65.1591C383.161 65.1591 383.483 65.1932 383.847 65.2614C384.214 65.3258 384.568 65.4602 384.909 65.6648C385.254 65.8693 385.54 66.178 385.767 66.5909C385.994 67.0038 386.108 67.5568 386.108 68.25V74H384.767V72.8182H384.699C384.608 73.0076 384.456 73.2102 384.244 73.4261C384.032 73.642 383.75 73.8258 383.398 73.9773C383.045 74.1288 382.616 74.2045 382.108 74.2045ZM382.312 73C382.843 73 383.29 72.8958 383.653 72.6875C384.021 72.4792 384.297 72.2102 384.483 71.8807C384.672 71.5511 384.767 71.2045 384.767 70.8409V69.6136C384.71 69.6818 384.585 69.7443 384.392 69.8011C384.203 69.8542 383.983 69.9015 383.733 69.9432C383.487 69.9811 383.246 70.0152 383.011 70.0455C382.78 70.072 382.593 70.0947 382.449 70.1136C382.1 70.1591 381.775 70.233 381.472 70.3352C381.172 70.4337 380.93 70.5833 380.744 70.7841C380.563 70.9811 380.472 71.25 380.472 71.5909C380.472 72.0568 380.644 72.4091 380.989 72.6477C381.337 72.8826 381.778 73 382.312 73ZM388.555 74V65.2727H389.851V66.6364H389.964C390.146 66.1705 390.44 65.8087 390.845 65.5511C391.25 65.2898 391.737 65.1591 392.305 65.1591C392.881 65.1591 393.36 65.2898 393.743 65.5511C394.129 65.8087 394.43 66.1705 394.646 66.6364H394.737C394.961 66.1856 395.296 65.8277 395.743 65.5625C396.19 65.2936 396.726 65.1591 397.351 65.1591C398.131 65.1591 398.769 65.4034 399.266 65.892C399.762 66.3769 400.01 67.1326 400.01 68.1591V74H398.669V68.1591C398.669 67.5152 398.493 67.0549 398.141 66.7784C397.788 66.5019 397.374 66.3636 396.896 66.3636C396.283 66.3636 395.807 66.5492 395.47 66.9205C395.133 67.2879 394.964 67.7538 394.964 68.3182V74H393.601V68.0227C393.601 67.5265 393.44 67.1269 393.118 66.8239C392.796 66.517 392.381 66.3636 391.874 66.3636C391.525 66.3636 391.199 66.4564 390.896 66.642C390.597 66.8277 390.355 67.0852 390.169 67.4148C389.987 67.7405 389.896 68.1174 389.896 68.5455V74H388.555ZM410.507 74.1818C409.689 74.1818 408.984 73.9886 408.393 73.6023C407.803 73.2159 407.348 72.6837 407.03 72.0057C406.712 71.3277 406.553 70.553 406.553 69.6818C406.553 68.7955 406.715 68.0133 407.041 67.3352C407.371 66.6534 407.829 66.1212 408.416 65.7386C409.007 65.3523 409.696 65.1591 410.484 65.1591C411.098 65.1591 411.651 65.2727 412.143 65.5C412.636 65.7273 413.039 66.0455 413.354 66.4545C413.668 66.8636 413.863 67.3409 413.939 67.8864H412.598C412.496 67.4886 412.268 67.1364 411.916 66.8295C411.568 66.5189 411.098 66.3636 410.507 66.3636C409.984 66.3636 409.526 66.5 409.132 66.7727C408.742 67.0417 408.437 67.4223 408.217 67.9148C408.001 68.4034 407.893 68.9773 407.893 69.6364C407.893 70.3106 408 70.8977 408.212 71.3977C408.428 71.8977 408.731 72.286 409.121 72.5625C409.515 72.839 409.977 72.9773 410.507 72.9773C410.856 72.9773 411.172 72.9167 411.456 72.7955C411.74 72.6742 411.981 72.5 412.178 72.2727C412.375 72.0455 412.515 71.7727 412.598 71.4545H413.939C413.863 71.9697 413.676 72.4337 413.376 72.8466C413.081 73.2557 412.689 73.5814 412.2 73.8239C411.715 74.0625 411.151 74.1818 410.507 74.1818ZM417.24 68.75V74H415.899V62.3636H417.24V66.6364H417.354C417.558 66.1856 417.865 65.8277 418.274 65.5625C418.687 65.2936 419.236 65.1591 419.922 65.1591C420.517 65.1591 421.037 65.2784 421.484 65.517C421.931 65.7519 422.278 66.1136 422.524 66.6023C422.774 67.0871 422.899 67.7045 422.899 68.4545V74H421.558V68.5455C421.558 67.8523 421.378 67.3163 421.018 66.9375C420.662 66.5549 420.168 66.3636 419.536 66.3636C419.096 66.3636 418.702 66.4564 418.354 66.642C418.009 66.8277 417.736 67.0985 417.536 67.4545C417.339 67.8106 417.24 68.2424 417.24 68.75ZM427.92 74.2045C427.367 74.2045 426.866 74.1004 426.415 73.892C425.964 73.6799 425.606 73.375 425.341 72.9773C425.076 72.5758 424.943 72.0909 424.943 71.5227C424.943 71.0227 425.042 70.6174 425.239 70.3068C425.436 69.9924 425.699 69.7462 426.028 69.5682C426.358 69.3902 426.722 69.2576 427.119 69.1705C427.521 69.0795 427.924 69.0076 428.33 68.9545C428.86 68.8864 429.29 68.8352 429.619 68.8011C429.953 68.7633 430.195 68.7008 430.347 68.6136C430.502 68.5265 430.58 68.375 430.58 68.1591V68.1136C430.58 67.553 430.426 67.1174 430.119 66.8068C429.816 66.4962 429.356 66.3409 428.739 66.3409C428.098 66.3409 427.597 66.4811 427.233 66.7614C426.869 67.0417 426.614 67.3409 426.466 67.6591L425.193 67.2045C425.42 66.6742 425.723 66.2614 426.102 65.9659C426.485 65.6667 426.902 65.4583 427.352 65.3409C427.807 65.2197 428.254 65.1591 428.693 65.1591C428.973 65.1591 429.295 65.1932 429.659 65.2614C430.027 65.3258 430.381 65.4602 430.722 65.6648C431.066 65.8693 431.352 66.178 431.58 66.5909C431.807 67.0038 431.92 67.5568 431.92 68.25V74H430.58V72.8182H430.511C430.42 73.0076 430.269 73.2102 430.057 73.4261C429.845 73.642 429.563 73.8258 429.21 73.9773C428.858 74.1288 428.428 74.2045 427.92 74.2045ZM428.125 73C428.655 73 429.102 72.8958 429.466 72.6875C429.833 72.4792 430.11 72.2102 430.295 71.8807C430.485 71.5511 430.58 71.2045 430.58 70.8409V69.6136C430.523 69.6818 430.398 69.7443 430.205 69.8011C430.015 69.8542 429.795 69.9015 429.545 69.9432C429.299 69.9811 429.059 70.0152 428.824 70.0455C428.593 70.072 428.405 70.0947 428.261 70.1136C427.913 70.1591 427.587 70.233 427.284 70.3352C426.985 70.4337 426.742 70.5833 426.557 70.7841C426.375 70.9811 426.284 71.25 426.284 71.5909C426.284 72.0568 426.456 72.4091 426.801 72.6477C427.15 72.8826 427.591 73 428.125 73ZM435.709 68.75V74H434.368V65.2727H435.663V66.6364H435.777C435.982 66.1932 436.292 65.8371 436.709 65.5682C437.125 65.2955 437.663 65.1591 438.322 65.1591C438.913 65.1591 439.43 65.2803 439.874 65.5227C440.317 65.7614 440.661 66.125 440.908 66.6136C441.154 67.0985 441.277 67.7121 441.277 68.4545V74H439.936V68.5455C439.936 67.8598 439.758 67.3258 439.402 66.9432C439.046 66.5568 438.557 66.3636 437.936 66.3636C437.508 66.3636 437.125 66.4564 436.788 66.642C436.455 66.8277 436.192 67.0985 435.999 67.4545C435.805 67.8106 435.709 68.2424 435.709 68.75ZM447.25 77.4545C446.602 77.4545 446.045 77.3712 445.58 77.2045C445.114 77.0417 444.725 76.8258 444.415 76.5568C444.108 76.2917 443.864 76.0076 443.682 75.7045L444.75 74.9545C444.871 75.1136 445.025 75.2955 445.21 75.5C445.396 75.7083 445.65 75.8883 445.972 76.0398C446.297 76.1951 446.723 76.2727 447.25 76.2727C447.955 76.2727 448.536 76.1023 448.994 75.7614C449.453 75.4205 449.682 74.8864 449.682 74.1591V72.3864H449.568C449.47 72.5455 449.33 72.7424 449.148 72.9773C448.97 73.2083 448.712 73.4148 448.375 73.5966C448.042 73.7746 447.591 73.8636 447.023 73.8636C446.318 73.8636 445.686 73.697 445.125 73.3636C444.568 73.0303 444.127 72.5455 443.801 71.9091C443.479 71.2727 443.318 70.5 443.318 69.5909C443.318 68.697 443.475 67.9186 443.79 67.2557C444.104 66.589 444.542 66.0739 445.102 65.7102C445.663 65.3428 446.311 65.1591 447.045 65.1591C447.614 65.1591 448.064 65.2538 448.398 65.4432C448.735 65.6288 448.992 65.8409 449.17 66.0795C449.352 66.3144 449.492 66.5076 449.591 66.6591H449.727V65.2727H451.023V74.25C451.023 75 450.852 75.6098 450.511 76.0795C450.174 76.553 449.72 76.8996 449.148 77.1193C448.58 77.3428 447.947 77.4545 447.25 77.4545ZM447.205 72.6591C447.742 72.6591 448.197 72.536 448.568 72.2898C448.939 72.0436 449.222 71.6894 449.415 71.2273C449.608 70.7652 449.705 70.2121 449.705 69.5682C449.705 68.9394 449.61 68.3845 449.42 67.9034C449.231 67.4223 448.951 67.0455 448.58 66.7727C448.208 66.5 447.75 66.3636 447.205 66.3636C446.636 66.3636 446.163 66.5076 445.784 66.7955C445.409 67.0833 445.127 67.4697 444.938 67.9545C444.752 68.4394 444.659 68.9773 444.659 69.5682C444.659 70.1742 444.754 70.7102 444.943 71.1761C445.136 71.6383 445.42 72.0019 445.795 72.267C446.174 72.5284 446.644 72.6591 447.205 72.6591ZM457.136 74.1818C456.295 74.1818 455.57 73.9962 454.96 73.625C454.354 73.25 453.886 72.7273 453.557 72.0568C453.231 71.3826 453.068 70.5985 453.068 69.7045C453.068 68.8106 453.231 68.0227 453.557 67.3409C453.886 66.6553 454.345 66.1212 454.932 65.7386C455.523 65.3523 456.212 65.1591 457 65.1591C457.455 65.1591 457.903 65.2348 458.347 65.3864C458.79 65.5379 459.193 65.7841 459.557 66.125C459.92 66.4621 460.21 66.9091 460.426 67.4659C460.642 68.0227 460.75 68.7083 460.75 69.5227V70.0909H454.023V68.9318H459.386C459.386 68.4394 459.288 68 459.091 67.6136C458.898 67.2273 458.621 66.9223 458.261 66.6989C457.905 66.4754 457.485 66.3636 457 66.3636C456.466 66.3636 456.004 66.4962 455.614 66.7614C455.227 67.0227 454.93 67.3636 454.722 67.7841C454.513 68.2045 454.409 68.6553 454.409 69.1364V69.9091C454.409 70.5682 454.523 71.1269 454.75 71.5852C454.981 72.0398 455.301 72.3864 455.71 72.625C456.119 72.8598 456.595 72.9773 457.136 72.9773C457.489 72.9773 457.807 72.928 458.091 72.8295C458.379 72.7273 458.627 72.5758 458.835 72.375C459.044 72.1705 459.205 71.9167 459.318 71.6136L460.614 71.9773C460.477 72.4167 460.248 72.803 459.926 73.1364C459.604 73.4659 459.206 73.7235 458.733 73.9091C458.259 74.0909 457.727 74.1818 457.136 74.1818Z" fill="#CBD5E0"/>
<path d="M256.707 34.2929C256.317 33.9024 255.683 33.9024 255.293 34.2929L248.929 40.6569C248.538 41.0474 248.538 41.6805 248.929 42.0711C249.319 42.4616 249.953 42.4616 250.343 42.0711L256 36.4142L261.657 42.0711C262.047 42.4616 262.681 42.4616 263.071 42.0711C263.462 41.6805 263.462 41.0474 263.071 40.6569L256.707 34.2929ZM257 121L257 35L255 35L255 121L257 121Z" fill="#6B539D"/>
<path d="M160 77C159.448 77 159 77.4477 159 78V87C159 87.5523 159.448 88 160 88C160.552 88 161 87.5523 161 87V79H169C169.552 79 170 78.5523 170 78C170 77.4477 169.552 77 169 77H160ZM210.707 127.293L160.707 77.2929L159.293 78.7071L209.293 128.707L210.707 127.293Z" fill="#6B539D"/>
<path d="M127.293 138.293C126.902 138.683 126.902 139.317 127.293 139.707L133.657 146.071C134.047 146.462 134.681 146.462 135.071 146.071C135.462 145.681 135.462 145.047 135.071 144.657L129.414 139L135.071 133.343C135.462 132.953 135.462 132.319 135.071 131.929C134.681 131.538 134.047 131.538 133.657 131.929L127.293 138.293ZM210 138L128 138L128 140L210 140L210 138Z" fill="#6B539D"/>
<path d="M384.707 139.707C385.098 139.317 385.098 138.683 384.707 138.293L378.343 131.929C377.953 131.538 377.319 131.538 376.929 131.929C376.538 132.319 376.538 132.953 376.929 133.343L382.586 139L376.929 144.657C376.538 145.047 376.538 145.681 376.929 146.071C377.319 146.462 377.953 146.462 378.343 146.071L384.707 139.707ZM303 140H384V138H303V140Z" fill="#6B539D"/>
<path d="M353 77.98C352.989 77.4278 352.532 76.9892 351.98 77.0002L342.982 77.1802C342.43 77.1912 341.991 77.6478 342.002 78.2C342.013 78.7521 342.47 79.1908 343.022 79.1798L351.02 79.0198L351.18 87.0182C351.191 87.5704 351.648 88.009 352.2 87.998C352.752 87.987 353.191 87.5304 353.18 86.9782L353 77.98ZM303.721 129.693L352.721 78.6928L351.279 77.3072L302.279 128.307L303.721 129.693Z" fill="#6B539D"/>
<path d="M263.426 81.0753V80.858C263.43 80.1122 263.496 79.5178 263.624 79.0746C263.756 78.6314 263.948 78.2734 264.2 78.0007C264.451 77.728 264.754 77.4808 265.107 77.2592C265.371 77.0888 265.608 76.9119 265.817 76.7287C266.026 76.5455 266.192 76.343 266.315 76.1214C266.439 75.8956 266.501 75.6442 266.501 75.3672C266.501 75.0732 266.43 74.8153 266.29 74.5938C266.149 74.3722 265.96 74.2017 265.721 74.0824C265.487 73.9631 265.227 73.9034 264.941 73.9034C264.664 73.9034 264.402 73.9652 264.155 74.0888C263.908 74.2081 263.705 74.3871 263.548 74.6257C263.39 74.8601 263.305 75.152 263.292 75.5014H260.684C260.705 74.6491 260.91 73.946 261.298 73.392C261.685 72.8338 262.199 72.4183 262.838 72.1456C263.477 71.8686 264.183 71.7301 264.954 71.7301C265.802 71.7301 266.552 71.8707 267.204 72.152C267.856 72.429 268.367 72.8317 268.738 73.3601C269.109 73.8885 269.294 74.5256 269.294 75.2713C269.294 75.7699 269.211 76.2131 269.045 76.6009C268.883 76.9844 268.655 77.3253 268.361 77.6236C268.067 77.9176 267.719 78.1839 267.319 78.4226C266.982 78.6229 266.705 78.8317 266.488 79.049C266.275 79.2663 266.115 79.5178 266.009 79.8033C265.906 80.0888 265.853 80.4403 265.849 80.858V81.0753H263.426ZM264.692 85.1662C264.266 85.1662 263.901 85.017 263.599 84.7188C263.3 84.4162 263.153 84.054 263.158 83.6321C263.153 83.2145 263.3 82.8565 263.599 82.5582C263.901 82.2599 264.266 82.1108 264.692 82.1108C265.097 82.1108 265.452 82.2599 265.759 82.5582C266.066 82.8565 266.222 83.2145 266.226 83.6321C266.222 83.9134 266.147 84.1712 266.002 84.4055C265.862 84.6357 265.676 84.821 265.446 84.9616C265.216 85.098 264.964 85.1662 264.692 85.1662Z" fill="white"/>
<path d="M163.426 127.075V126.858C163.43 126.112 163.496 125.518 163.624 125.075C163.756 124.631 163.948 124.273 164.2 124.001C164.451 123.728 164.754 123.481 165.107 123.259C165.371 123.089 165.608 122.912 165.817 122.729C166.026 122.545 166.192 122.343 166.315 122.121C166.439 121.896 166.501 121.644 166.501 121.367C166.501 121.073 166.43 120.815 166.29 120.594C166.149 120.372 165.96 120.202 165.721 120.082C165.487 119.963 165.227 119.903 164.941 119.903C164.664 119.903 164.402 119.965 164.155 120.089C163.908 120.208 163.705 120.387 163.548 120.626C163.39 120.86 163.305 121.152 163.292 121.501H160.684C160.705 120.649 160.91 119.946 161.298 119.392C161.685 118.834 162.199 118.418 162.838 118.146C163.477 117.869 164.183 117.73 164.954 117.73C165.802 117.73 166.552 117.871 167.204 118.152C167.856 118.429 168.367 118.832 168.738 119.36C169.109 119.888 169.294 120.526 169.294 121.271C169.294 121.77 169.211 122.213 169.045 122.601C168.883 122.984 168.655 123.325 168.361 123.624C168.067 123.918 167.719 124.184 167.319 124.423C166.982 124.623 166.705 124.832 166.488 125.049C166.275 125.266 166.115 125.518 166.009 125.803C165.906 126.089 165.853 126.44 165.849 126.858V127.075H163.426ZM164.692 131.166C164.266 131.166 163.901 131.017 163.599 130.719C163.3 130.416 163.153 130.054 163.158 129.632C163.153 129.214 163.3 128.857 163.599 128.558C163.901 128.26 164.266 128.111 164.692 128.111C165.097 128.111 165.452 128.26 165.759 128.558C166.066 128.857 166.222 129.214 166.226 129.632C166.222 129.913 166.147 130.171 166.002 130.406C165.862 130.636 165.676 130.821 165.446 130.962C165.216 131.098 164.964 131.166 164.692 131.166Z" fill="white"/>
<path d="M187.426 92.0753V91.858C187.43 91.1122 187.496 90.5178 187.624 90.0746C187.756 89.6314 187.948 89.2734 188.2 89.0007C188.451 88.728 188.754 88.4808 189.107 88.2592C189.371 88.0888 189.608 87.9119 189.817 87.7287C190.026 87.5455 190.192 87.343 190.315 87.1214C190.439 86.8956 190.501 86.6442 190.501 86.3672C190.501 86.0732 190.43 85.8153 190.29 85.5938C190.149 85.3722 189.96 85.2017 189.721 85.0824C189.487 84.9631 189.227 84.9034 188.941 84.9034C188.664 84.9034 188.402 84.9652 188.155 85.0888C187.908 85.2081 187.705 85.3871 187.548 85.6257C187.39 85.8601 187.305 86.152 187.292 86.5014H184.684C184.705 85.6491 184.91 84.946 185.298 84.392C185.685 83.8338 186.199 83.4183 186.838 83.1456C187.477 82.8686 188.183 82.7301 188.954 82.7301C189.802 82.7301 190.552 82.8707 191.204 83.152C191.856 83.429 192.367 83.8317 192.738 84.3601C193.109 84.8885 193.294 85.5256 193.294 86.2713C193.294 86.7699 193.211 87.2131 193.045 87.6009C192.883 87.9844 192.655 88.3253 192.361 88.6236C192.067 88.9176 191.719 89.1839 191.319 89.4226C190.982 89.6229 190.705 89.8317 190.488 90.049C190.275 90.2663 190.115 90.5178 190.009 90.8033C189.906 91.0888 189.853 91.4403 189.849 91.858V92.0753H187.426ZM188.692 96.1662C188.266 96.1662 187.901 96.017 187.599 95.7188C187.3 95.4162 187.153 95.054 187.158 94.6321C187.153 94.2145 187.3 93.8565 187.599 93.5582C187.901 93.2599 188.266 93.1108 188.692 93.1108C189.097 93.1108 189.452 93.2599 189.759 93.5582C190.066 93.8565 190.222 94.2145 190.226 94.6321C190.222 94.9134 190.147 95.1712 190.002 95.4055C189.862 95.6357 189.676 95.821 189.446 95.9616C189.216 96.098 188.964 96.1662 188.692 96.1662Z" fill="white"/>
<path d="M320.426 92.0753V91.858C320.43 91.1122 320.496 90.5178 320.624 90.0746C320.756 89.6314 320.948 89.2734 321.2 89.0007C321.451 88.728 321.754 88.4808 322.107 88.2592C322.371 88.0888 322.608 87.9119 322.817 87.7287C323.026 87.5455 323.192 87.343 323.315 87.1214C323.439 86.8956 323.501 86.6442 323.501 86.3672C323.501 86.0732 323.43 85.8153 323.29 85.5938C323.149 85.3722 322.96 85.2017 322.721 85.0824C322.487 84.9631 322.227 84.9034 321.941 84.9034C321.664 84.9034 321.402 84.9652 321.155 85.0888C320.908 85.2081 320.705 85.3871 320.548 85.6257C320.39 85.8601 320.305 86.152 320.292 86.5014H317.684C317.705 85.6491 317.91 84.946 318.298 84.392C318.685 83.8338 319.199 83.4183 319.838 83.1456C320.477 82.8686 321.183 82.7301 321.954 82.7301C322.802 82.7301 323.552 82.8707 324.204 83.152C324.856 83.429 325.367 83.8317 325.738 84.3601C326.109 84.8885 326.294 85.5256 326.294 86.2713C326.294 86.7699 326.211 87.2131 326.045 87.6009C325.883 87.9844 325.655 88.3253 325.361 88.6236C325.067 88.9176 324.719 89.1839 324.319 89.4226C323.982 89.6229 323.705 89.8317 323.488 90.049C323.275 90.2663 323.115 90.5178 323.009 90.8033C322.906 91.0888 322.853 91.4403 322.849 91.858V92.0753H320.426ZM321.692 96.1662C321.266 96.1662 320.901 96.017 320.599 95.7188C320.3 95.4162 320.153 95.054 320.158 94.6321C320.153 94.2145 320.3 93.8565 320.599 93.5582C320.901 93.2599 321.266 93.1108 321.692 93.1108C322.097 93.1108 322.452 93.2599 322.759 93.5582C323.066 93.8565 323.222 94.2145 323.226 94.6321C323.222 94.9134 323.147 95.1712 323.002 95.4055C322.862 95.6357 322.676 95.821 322.446 95.9616C322.216 96.098 321.964 96.1662 321.692 96.1662Z" fill="white"/>
<path d="M344.426 127.075V126.858C344.43 126.112 344.496 125.518 344.624 125.075C344.756 124.631 344.948 124.273 345.2 124.001C345.451 123.728 345.754 123.481 346.107 123.259C346.371 123.089 346.608 122.912 346.817 122.729C347.026 122.545 347.192 122.343 347.315 122.121C347.439 121.896 347.501 121.644 347.501 121.367C347.501 121.073 347.43 120.815 347.29 120.594C347.149 120.372 346.96 120.202 346.721 120.082C346.487 119.963 346.227 119.903 345.941 119.903C345.664 119.903 345.402 119.965 345.155 120.089C344.908 120.208 344.705 120.387 344.548 120.626C344.39 120.86 344.305 121.152 344.292 121.501H341.684C341.705 120.649 341.91 119.946 342.298 119.392C342.685 118.834 343.199 118.418 343.838 118.146C344.477 117.869 345.183 117.73 345.954 117.73C346.802 117.73 347.552 117.871 348.204 118.152C348.856 118.429 349.367 118.832 349.738 119.36C350.109 119.888 350.294 120.526 350.294 121.271C350.294 121.77 350.211 122.213 350.045 122.601C349.883 122.984 349.655 123.325 349.361 123.624C349.067 123.918 348.719 124.184 348.319 124.423C347.982 124.623 347.705 124.832 347.488 125.049C347.275 125.266 347.115 125.518 347.009 125.803C346.906 126.089 346.853 126.44 346.849 126.858V127.075H344.426ZM345.692 131.166C345.266 131.166 344.901 131.017 344.599 130.719C344.3 130.416 344.153 130.054 344.158 129.632C344.153 129.214 344.3 128.857 344.599 128.558C344.901 128.26 345.266 128.111 345.692 128.111C346.097 128.111 346.452 128.26 346.759 128.558C347.066 128.857 347.222 129.214 347.226 129.632C347.222 129.913 347.147 130.171 347.002 130.406C346.862 130.636 346.676 130.821 346.446 130.962C346.216 131.098 345.964 131.166 345.692 131.166Z" fill="white"/>
</svg>
