<svg width="194" height="160" viewBox="0 0 194 160" fill="none" xmlns="http://www.w3.org/2000/svg">
<rect x="46" y="132" width="28" height="15" rx="7.5" transform="rotate(35 46 132)" fill="#EF8527"/>
<rect x="124.23" y="148" width="28" height="15" rx="7.5" transform="rotate(-35 124.23 148)" fill="#EF8527"/>
<circle cx="96.5" cy="84.5" r="57.5" fill="#2BA6F0"/>
<path d="M39 30.2457C39 15.3097 53.5655 4.71509 67.7756 9.31509L81.101 13.6287C91.1113 16.8692 101.889 16.8692 111.899 13.6287L125.224 9.31509C139.434 4.71509 154 15.3097 154 30.2457V84H39V30.2457Z" fill="#2BA6F0"/>
<path d="M3.15406 44.956C-1.00019 50.6781 3.15405 88.5 42 99C67.4459 96.648 73.5412 65.6764 56.9786 60.2055C40.4159 54.7347 10.1987 39.7875 3.15406 44.956Z" fill="#2BA6F0"/>
<path d="M190.964 44.956C195.118 50.6781 190.964 88.5 152.118 99C126.672 96.648 120.577 65.6764 137.139 60.2055C153.702 54.7347 183.919 39.7875 190.964 44.956Z" fill="#2BA6F0"/>
<path d="M60 24.1414C56.9999 24.6496 57 33.6414 57 33.6414L79 72.6414L96 77.6414V41.1414C82 40.6415 74.5 21.1415 70 20.1414C65.5 18.6415 67.5 29.5666 66 29.6414C62.8253 29.7997 64.0001 23.6415 60 24.1414Z" fill="#93D1F6"/>
<path d="M132 24.1414C135 24.6496 135 33.6414 135 33.6414L113 72.6414L96 77.6414V41.1414C110 40.6415 117.5 21.1415 122 20.1414C126.5 18.6415 124.5 29.5666 126 29.6414C129.175 29.7997 128 23.6415 132 24.1414Z" fill="#93D1F6"/>
<rect x="46" y="31" width="45" height="60" rx="20" fill="#93D1F6"/>
<rect x="102" y="32" width="45" height="60" rx="20" fill="#93D1F6"/>
<rect x="51" y="40" width="33" height="44" rx="16.5" fill="white"/>
<rect x="51" y="40" width="33" height="44" rx="16.5" fill="white"/>
<rect x="51" y="40" width="33" height="44" rx="16.5" fill="white"/>
<rect x="108" y="40" width="33" height="44" rx="16.5" fill="white"/>
<rect x="108" y="40" width="33" height="44" rx="16.5" fill="white"/>
<rect x="108" y="40" width="33" height="44" rx="16.5" fill="white"/>
<path fill-rule="evenodd" clip-rule="evenodd" d="M64.6532 52.0118C64.7678 52.004 64.8834 52 65 52C67.7614 52 70 54.2386 70 57C70 59.7614 67.7614 62 65 62C63.3644 62 61.9122 61.2147 61 60.0005V65.5C61 70.7467 65.2533 75 70.5 75C75.7467 75 80 70.7467 80 65.5V59.5C80 54.2533 75.7467 50 70.5 50C68.2949 50 66.2653 50.7513 64.6532 52.0118Z" fill="white"/>
<path fill-rule="evenodd" clip-rule="evenodd" d="M64.6532 52.0118C64.7678 52.004 64.8834 52 65 52C67.7614 52 70 54.2386 70 57C70 59.7614 67.7614 62 65 62C63.3644 62 61.9122 61.2147 61 60.0005V65.5C61 70.7467 65.2533 75 70.5 75C75.7467 75 80 70.7467 80 65.5V59.5C80 54.2533 75.7467 50 70.5 50C68.2949 50 66.2653 50.7513 64.6532 52.0118Z" fill="white"/>
<path fill-rule="evenodd" clip-rule="evenodd" d="M64.6532 52.0118C64.7678 52.004 64.8834 52 65 52C67.7614 52 70 54.2386 70 57C70 59.7614 67.7614 62 65 62C63.3644 62 61.9122 61.2147 61 60.0005V65.5C61 70.7467 65.2533 75 70.5 75C75.7467 75 80 70.7467 80 65.5V59.5C80 54.2533 75.7467 50 70.5 50C68.2949 50 66.2653 50.7513 64.6532 52.0118Z" fill="#353535"/>
<path fill-rule="evenodd" clip-rule="evenodd" d="M115.653 52.0118C115.768 52.004 115.883 52 116 52C118.761 52 121 54.2386 121 57C121 59.7614 118.761 62 116 62C114.364 62 112.912 61.2147 112 60.0005V65.5C112 70.7467 116.253 75 121.5 75C126.747 75 131 70.7467 131 65.5V59.5C131 54.2533 126.747 50 121.5 50C119.295 50 117.265 50.7513 115.653 52.0118Z" fill="white"/>
<path fill-rule="evenodd" clip-rule="evenodd" d="M115.653 52.0118C115.768 52.004 115.883 52 116 52C118.761 52 121 54.2386 121 57C121 59.7614 118.761 62 116 62C114.364 62 112.912 61.2147 112 60.0005V65.5C112 70.7467 116.253 75 121.5 75C126.747 75 131 70.7467 131 65.5V59.5C131 54.2533 126.747 50 121.5 50C119.295 50 117.265 50.7513 115.653 52.0118Z" fill="white"/>
<path fill-rule="evenodd" clip-rule="evenodd" d="M115.653 52.0118C115.768 52.004 115.883 52 116 52C118.761 52 121 54.2386 121 57C121 59.7614 118.761 62 116 62C114.364 62 112.912 61.2147 112 60.0005V65.5C112 70.7467 116.253 75 121.5 75C126.747 75 131 70.7467 131 65.5V59.5C131 54.2533 126.747 50 121.5 50C119.295 50 117.265 50.7513 115.653 52.0118Z" fill="#353535"/>
<rect x="88" y="69" width="16" height="28" rx="8" fill="#EF8527"/>
<rect x="89.5" y="69" width="13" height="24" rx="6.5" fill="#AB632D"/>
<path fill-rule="evenodd" clip-rule="evenodd" d="M85 79.2279C85.633 73.4752 90.5091 69 96.4304 69C102.505 69 107.48 73.7103 107.902 79.6779C104.549 81.1705 100.837 82 96.9304 82C92.6475 82 88.5976 81.0028 85 79.2279Z" fill="#F9C03E"/>
<path d="M91 72.8063C91 72.1257 91.4355 71.5215 92.0811 71.3063L93.4702 70.8433C95.1123 70.2959 96.8877 70.2959 98.5298 70.8433L99.9189 71.3063C100.565 71.5215 101 72.1257 101 72.8063V72.8063C101 73.8855 99.9427 74.6476 98.9189 74.3063L97.9525 73.9842C96.6851 73.5617 95.3149 73.5617 94.0475 73.9842L93.0811 74.3063C92.0573 74.6476 91 73.8855 91 72.8063V72.8063Z" fill="#FDDA37"/>
<path d="M118 103.5C118 107.366 114.194 110.5 109.5 110.5C104.806 110.5 101 107.366 101 103.5C101 103 104.806 103 109.5 103C114.194 103 118 103 118 103.5Z" fill="#93D1F6"/>
<path d="M92 103.5C92 107.366 88.1944 110.5 83.5 110.5C78.8056 110.5 75 107.366 75 103.5C75 103 78.8056 103 83.5 103C88.1944 103 92 103 92 103.5Z" fill="#93D1F6"/>
<path d="M105 116.5C105 120.366 101.194 123.5 96.5 123.5C91.8056 123.5 88 120.366 88 116.5C88 116 91.8056 116 96.5 116C101.194 116 105 116 105 116.5Z" fill="#93D1F6"/>
<path d="M107.038 72.7125L142.777 63.1362L145.107 71.8296C146.536 77.1642 143.37 82.6476 138.036 84.077L121.615 88.4769C116.28 89.9063 110.797 86.7405 109.367 81.4059L107.038 72.7125Z" fill="#93D1F6"/>
<path d="M49.9557 63.1362L85.6949 72.7125L83.3656 81.4059C81.9362 86.7405 76.4528 89.9064 71.1181 88.4769L54.6974 84.077C49.3627 82.6476 46.1969 77.1642 47.6263 71.8296L49.9557 63.1362Z" fill="#93D1F6"/>
</svg>
