<svg width="350" height="271" viewBox="0 0 350 271" fill="none" xmlns="http://www.w3.org/2000/svg">
<g clip-path="url(#clip0_17_429)">
<path d="M30.7071 0.292893C30.3166 -0.0976311 29.6834 -0.0976311 29.2929 0.292893L22.9289 6.65685C22.5384 7.04738 22.5384 7.68054 22.9289 8.07107C23.3195 8.46159 23.9526 8.46159 24.3431 8.07107L30 2.41421L35.6569 8.07107C36.0474 8.46159 36.6805 8.46159 37.0711 8.07107C37.4616 7.68054 37.4616 7.04738 37.0711 6.65685L30.7071 0.292893ZM29 241V242H31V241H29ZM29 1V241H31V1H29Z" fill="#6B539D"/>
<path d="M30 240H29V242H30V240ZM350.707 241.707C351.098 241.317 351.098 240.683 350.707 240.293L344.343 233.929C343.953 233.538 343.319 233.538 342.929 233.929C342.538 234.319 342.538 234.953 342.929 235.343L348.586 241L342.929 246.657C342.538 247.047 342.538 247.681 342.929 248.071C343.319 248.462 343.953 248.462 344.343 248.071L350.707 241.707ZM30 242H350V240H30V242Z" fill="#6B539D"/>
<path d="M125 221L249 21" stroke="#CBD5E0" stroke-width="2" stroke-linecap="round"/>
<path d="M51 74L327 166" stroke="#CBD5E0" stroke-width="2" stroke-linecap="round"/>
<path d="M249 221L125 21" stroke="#CBD5E0" stroke-width="2" stroke-linecap="round"/>
<path d="M51 166L327 74" stroke="#CBD5E0" stroke-width="2" stroke-linecap="round"/>
<path d="M264.138 45V31.9091H272.805V34.1911H266.906V37.3104H272.23V39.5923H266.906V45H264.138ZM277.339 31.9091V45H274.616V31.9091H277.339ZM283.956 45.1918C282.963 45.1918 282.105 44.9808 281.38 44.5589C280.66 44.1328 280.104 43.5405 279.712 42.782C279.32 42.0192 279.124 41.1349 279.124 40.1293C279.124 39.1151 279.32 38.2287 279.712 37.4702C280.104 36.7074 280.66 36.1151 281.38 35.6932C282.105 35.267 282.963 35.054 283.956 35.054C284.949 35.054 285.806 35.267 286.526 35.6932C287.25 36.1151 287.809 36.7074 288.201 37.4702C288.593 38.2287 288.789 39.1151 288.789 40.1293C288.789 41.1349 288.593 42.0192 288.201 42.782C287.809 43.5405 287.25 44.1328 286.526 44.5589C285.806 44.9808 284.949 45.1918 283.956 45.1918ZM283.969 43.0824C284.421 43.0824 284.798 42.9545 285.1 42.6989C285.403 42.4389 285.631 42.0852 285.784 41.6378C285.942 41.1903 286.021 40.6811 286.021 40.1101C286.021 39.5391 285.942 39.0298 285.784 38.5824C285.631 38.1349 285.403 37.7812 285.1 37.5213C284.798 37.2614 284.421 37.1314 283.969 37.1314C283.513 37.1314 283.13 37.2614 282.819 37.5213C282.512 37.7812 282.279 38.1349 282.122 38.5824C281.968 39.0298 281.892 39.5391 281.892 40.1101C281.892 40.6811 281.968 41.1903 282.122 41.6378C282.279 42.0852 282.512 42.4389 282.819 42.6989C283.13 42.9545 283.513 43.0824 283.969 43.0824ZM292.25 45L289.578 35.1818H292.333L293.854 41.7784H293.944L295.529 35.1818H298.233L299.844 41.7401H299.927L301.423 35.1818H304.171L301.506 45H298.623L296.935 38.8253H296.814L295.126 45H292.25Z" fill="white"/>
<path d="M161.886 25H160.409L164.682 13.3636H166.136L170.409 25H168.932L165.455 15.2045H165.364L161.886 25ZM162.432 20.4545H168.386V21.7045H162.432V20.4545ZM172.04 25V16.2727H173.335V17.5909H173.426C173.585 17.1591 173.873 16.8087 174.29 16.5398C174.706 16.2708 175.176 16.1364 175.699 16.1364C175.797 16.1364 175.92 16.1383 176.068 16.142C176.216 16.1458 176.328 16.1515 176.403 16.1591V17.5227C176.358 17.5114 176.254 17.4943 176.091 17.4716C175.932 17.4451 175.763 17.4318 175.585 17.4318C175.161 17.4318 174.782 17.5208 174.449 17.6989C174.119 17.8731 173.858 18.1155 173.665 18.4261C173.475 18.733 173.381 19.0833 173.381 19.4773V25H172.04ZM181.273 25.1818C180.485 25.1818 179.794 24.9943 179.199 24.6193C178.608 24.2443 178.146 23.7197 177.812 23.0455C177.483 22.3712 177.318 21.5833 177.318 20.6818C177.318 19.7727 177.483 18.9792 177.812 18.3011C178.146 17.6231 178.608 17.0966 179.199 16.7216C179.794 16.3466 180.485 16.1591 181.273 16.1591C182.061 16.1591 182.75 16.3466 183.341 16.7216C183.936 17.0966 184.398 17.6231 184.727 18.3011C185.061 18.9792 185.227 19.7727 185.227 20.6818C185.227 21.5833 185.061 22.3712 184.727 23.0455C184.398 23.7197 183.936 24.2443 183.341 24.6193C182.75 24.9943 182.061 25.1818 181.273 25.1818ZM181.273 23.9773C181.871 23.9773 182.364 23.8239 182.75 23.517C183.136 23.2102 183.422 22.8068 183.608 22.3068C183.794 21.8068 183.886 21.2652 183.886 20.6818C183.886 20.0985 183.794 19.5549 183.608 19.0511C183.422 18.5473 183.136 18.1402 182.75 17.8295C182.364 17.5189 181.871 17.3636 181.273 17.3636C180.674 17.3636 180.182 17.5189 179.795 17.8295C179.409 18.1402 179.123 18.5473 178.938 19.0511C178.752 19.5549 178.659 20.0985 178.659 20.6818C178.659 21.2652 178.752 21.8068 178.938 22.3068C179.123 22.8068 179.409 23.2102 179.795 23.517C180.182 23.8239 180.674 23.9773 181.273 23.9773ZM192.774 21.4318V16.2727H194.115V25H192.774V23.5227H192.683C192.479 23.9659 192.161 24.3428 191.729 24.6534C191.297 24.9602 190.751 25.1136 190.092 25.1136C189.547 25.1136 189.062 24.9943 188.638 24.7557C188.214 24.5133 187.88 24.1496 187.638 23.6648C187.395 23.1761 187.274 22.5606 187.274 21.8182V16.2727H188.615V21.7273C188.615 22.3636 188.793 22.8712 189.149 23.25C189.509 23.6288 189.967 23.8182 190.524 23.8182C190.857 23.8182 191.196 23.733 191.541 23.5625C191.89 23.392 192.181 23.1307 192.416 22.7784C192.655 22.4261 192.774 21.9773 192.774 21.4318ZM202.753 18.2273L201.548 18.5682C201.473 18.3674 201.361 18.1723 201.213 17.983C201.069 17.7898 200.872 17.6307 200.622 17.5057C200.372 17.3807 200.052 17.3182 199.662 17.3182C199.128 17.3182 198.683 17.4413 198.327 17.6875C197.974 17.9299 197.798 18.2386 197.798 18.6136C197.798 18.947 197.92 19.2102 198.162 19.4034C198.404 19.5966 198.783 19.7576 199.298 19.8864L200.594 20.2045C201.374 20.3939 201.955 20.6837 202.338 21.0739C202.721 21.4602 202.912 21.9583 202.912 22.5682C202.912 23.0682 202.768 23.5152 202.48 23.9091C202.196 24.303 201.798 24.6136 201.287 24.8409C200.776 25.0682 200.181 25.1818 199.503 25.1818C198.613 25.1818 197.876 24.9886 197.293 24.6023C196.709 24.2159 196.34 23.6515 196.185 22.9091L197.457 22.5909C197.579 23.0606 197.808 23.4129 198.145 23.6477C198.486 23.8826 198.931 24 199.48 24C200.105 24 200.601 23.8674 200.969 23.6023C201.34 23.3333 201.526 23.0114 201.526 22.6364C201.526 22.3333 201.42 22.0795 201.207 21.875C200.995 21.6667 200.67 21.5114 200.23 21.4091L198.776 21.0682C197.976 20.8788 197.389 20.5852 197.014 20.1875C196.643 19.786 196.457 19.2841 196.457 18.6818C196.457 18.1894 196.596 17.7538 196.872 17.375C197.152 16.9962 197.533 16.6989 198.014 16.483C198.499 16.267 199.048 16.1591 199.662 16.1591C200.526 16.1591 201.204 16.3485 201.696 16.7273C202.192 17.1061 202.545 17.6061 202.753 18.2273ZM207.499 25.2045C206.946 25.2045 206.444 25.1004 205.993 24.892C205.542 24.6799 205.184 24.375 204.919 23.9773C204.654 23.5758 204.521 23.0909 204.521 22.5227C204.521 22.0227 204.62 21.6174 204.817 21.3068C205.014 20.9924 205.277 20.7462 205.607 20.5682C205.936 20.3902 206.3 20.2576 206.697 20.1705C207.099 20.0795 207.502 20.0076 207.908 19.9545C208.438 19.8864 208.868 19.8352 209.197 19.8011C209.531 19.7633 209.773 19.7008 209.925 19.6136C210.08 19.5265 210.158 19.375 210.158 19.1591V19.1136C210.158 18.553 210.004 18.1174 209.697 17.8068C209.394 17.4962 208.934 17.3409 208.317 17.3409C207.677 17.3409 207.175 17.4811 206.811 17.7614C206.447 18.0417 206.192 18.3409 206.044 18.6591L204.771 18.2045C204.999 17.6742 205.302 17.2614 205.68 16.9659C206.063 16.6667 206.48 16.4583 206.93 16.3409C207.385 16.2197 207.832 16.1591 208.271 16.1591C208.552 16.1591 208.874 16.1932 209.237 16.2614C209.605 16.3258 209.959 16.4602 210.3 16.6648C210.644 16.8693 210.93 17.178 211.158 17.5909C211.385 18.0038 211.499 18.5568 211.499 19.25V25H210.158V23.8182H210.089C209.999 24.0076 209.847 24.2102 209.635 24.4261C209.423 24.642 209.141 24.8258 208.788 24.9773C208.436 25.1288 208.006 25.2045 207.499 25.2045ZM207.703 24C208.233 24 208.68 23.8958 209.044 23.6875C209.411 23.4792 209.688 23.2102 209.874 22.8807C210.063 22.5511 210.158 22.2045 210.158 21.8409V20.6136C210.101 20.6818 209.976 20.7443 209.783 20.8011C209.593 20.8542 209.374 20.9015 209.124 20.9432C208.877 20.9811 208.637 21.0152 208.402 21.0455C208.171 21.072 207.983 21.0947 207.839 21.1136C207.491 21.1591 207.165 21.233 206.862 21.3352C206.563 21.4337 206.321 21.5833 206.135 21.7841C205.953 21.9811 205.862 22.25 205.862 22.5909C205.862 23.0568 206.035 23.4091 206.379 23.6477C206.728 23.8826 207.169 24 207.703 24ZM215.287 13.3636V25H213.946V13.3636H215.287Z" fill="#CBD5E0"/>
<path d="M52.8864 45H51.4091L55.6818 33.3636H57.1364L61.4091 45H59.9318L56.4545 35.2045H56.3636L52.8864 45ZM53.4318 40.4545H59.3864V41.7045H53.4318V40.4545ZM64.3807 39.75V45H63.0398V36.2727H64.3352V37.6364H64.4489C64.6534 37.1932 64.964 36.8371 65.3807 36.5682C65.7973 36.2955 66.3352 36.1591 66.9943 36.1591C67.5852 36.1591 68.1023 36.2803 68.5455 36.5227C68.9886 36.7614 69.3333 37.125 69.5795 37.6136C69.8258 38.0985 69.9489 38.7121 69.9489 39.4545V45H68.608V39.5455C68.608 38.8598 68.4299 38.3258 68.0739 37.9432C67.7178 37.5568 67.2292 37.3636 66.608 37.3636C66.1799 37.3636 65.7973 37.4564 65.4602 37.642C65.1269 37.8277 64.8636 38.0985 64.6705 38.4545C64.4773 38.8106 64.3807 39.2424 64.3807 39.75ZM73.3991 36.2727L75.4901 39.8409L77.581 36.2727H79.1264L76.3082 40.6364L79.1264 45H77.581L75.4901 41.6136L73.3991 45H71.8537L74.6264 40.6364L71.8537 36.2727H73.3991ZM81.0398 45V36.2727H82.3807V45H81.0398ZM81.7216 34.8182C81.4602 34.8182 81.2348 34.7292 81.0455 34.5511C80.8598 34.3731 80.767 34.1591 80.767 33.9091C80.767 33.6591 80.8598 33.4451 81.0455 33.267C81.2348 33.089 81.4602 33 81.7216 33C81.983 33 82.2064 33.089 82.392 33.267C82.5814 33.4451 82.6761 33.6591 82.6761 33.9091C82.6761 34.1591 82.5814 34.3731 82.392 34.5511C82.2064 34.7292 81.983 34.8182 81.7216 34.8182ZM88.4957 45.1818C87.6548 45.1818 86.9295 44.9962 86.3196 44.625C85.7135 44.25 85.2457 43.7273 84.9162 43.0568C84.5904 42.3826 84.4276 41.5985 84.4276 40.7045C84.4276 39.8106 84.5904 39.0227 84.9162 38.3409C85.2457 37.6553 85.7041 37.1212 86.2912 36.7386C86.8821 36.3523 87.5715 36.1591 88.3594 36.1591C88.8139 36.1591 89.2628 36.2348 89.706 36.3864C90.1491 36.5379 90.5526 36.7841 90.9162 37.125C91.2798 37.4621 91.5696 37.9091 91.7855 38.4659C92.0014 39.0227 92.1094 39.7083 92.1094 40.5227V41.0909H85.3821V39.9318H90.7457C90.7457 39.4394 90.6473 39 90.4503 38.6136C90.2571 38.2273 89.9806 37.9223 89.6207 37.6989C89.2647 37.4754 88.8442 37.3636 88.3594 37.3636C87.8253 37.3636 87.3632 37.4962 86.973 37.7614C86.5866 38.0227 86.2893 38.3636 86.081 38.7841C85.8726 39.2045 85.7685 39.6553 85.7685 40.1364V40.9091C85.7685 41.5682 85.8821 42.1269 86.1094 42.5852C86.3404 43.0398 86.6605 43.3864 87.0696 43.625C87.4787 43.8598 87.9541 43.9773 88.4957 43.9773C88.848 43.9773 89.1662 43.928 89.4503 43.8295C89.7382 43.7273 89.9863 43.5758 90.1946 43.375C90.4029 43.1705 90.5639 42.9167 90.6776 42.6136L91.973 42.9773C91.8366 43.4167 91.6075 43.803 91.2855 44.1364C90.9635 44.4659 90.5658 44.7235 90.0923 44.9091C89.6188 45.0909 89.0866 45.1818 88.4957 45.1818ZM97.9446 36.2727V37.4091H93.4219V36.2727H97.9446ZM94.7401 34.1818H96.081V42.5C96.081 42.8788 96.1359 43.1629 96.2457 43.3523C96.3594 43.5379 96.5033 43.6629 96.6776 43.7273C96.8556 43.7879 97.0431 43.8182 97.2401 43.8182C97.3878 43.8182 97.509 43.8106 97.6037 43.7955C97.6984 43.7765 97.7741 43.7614 97.831 43.75L98.1037 44.9545C98.0128 44.9886 97.8859 45.0227 97.723 45.0568C97.5601 45.0947 97.3537 45.1136 97.1037 45.1136C96.7249 45.1136 96.3537 45.0322 95.9901 44.8693C95.6302 44.7064 95.331 44.4583 95.0923 44.125C94.8575 43.7917 94.7401 43.3712 94.7401 42.8636V34.1818ZM100.825 48.2727C100.598 48.2727 100.395 48.2538 100.217 48.2159C100.039 48.1818 99.9162 48.1477 99.848 48.1136L100.189 46.9318C100.515 47.0152 100.803 47.0455 101.053 47.0227C101.303 47 101.524 46.8883 101.717 46.6875C101.914 46.4905 102.094 46.1705 102.257 45.7273L102.507 45.0455L99.2798 36.2727H100.734L103.143 43.2273H103.234L105.643 36.2727H107.098L103.393 46.2727C103.227 46.7235 103.02 47.0966 102.774 47.392C102.528 47.6913 102.242 47.9129 101.916 48.0568C101.594 48.2008 101.231 48.2727 100.825 48.2727Z" fill="#CBD5E0"/>
<path d="M44.5227 125L41.3409 113.364H42.7727L45.2045 122.841H45.3182L47.7955 113.364H49.3864L51.8636 122.841H51.9773L54.4091 113.364H55.8409L52.6591 125H51.2045L48.6364 115.727H48.5455L45.9773 125H44.5227ZM60.1477 125.182C59.3598 125.182 58.6686 124.994 58.0739 124.619C57.483 124.244 57.0208 123.72 56.6875 123.045C56.358 122.371 56.1932 121.583 56.1932 120.682C56.1932 119.773 56.358 118.979 56.6875 118.301C57.0208 117.623 57.483 117.097 58.0739 116.722C58.6686 116.347 59.3598 116.159 60.1477 116.159C60.9356 116.159 61.625 116.347 62.2159 116.722C62.8106 117.097 63.2727 117.623 63.6023 118.301C63.9356 118.979 64.1023 119.773 64.1023 120.682C64.1023 121.583 63.9356 122.371 63.6023 123.045C63.2727 123.72 62.8106 124.244 62.2159 124.619C61.625 124.994 60.9356 125.182 60.1477 125.182ZM60.1477 123.977C60.7462 123.977 61.2386 123.824 61.625 123.517C62.0114 123.21 62.2973 122.807 62.483 122.307C62.6686 121.807 62.7614 121.265 62.7614 120.682C62.7614 120.098 62.6686 119.555 62.483 119.051C62.2973 118.547 62.0114 118.14 61.625 117.83C61.2386 117.519 60.7462 117.364 60.1477 117.364C59.5492 117.364 59.0568 117.519 58.6705 117.83C58.2841 118.14 57.9981 118.547 57.8125 119.051C57.6269 119.555 57.5341 120.098 57.5341 120.682C57.5341 121.265 57.6269 121.807 57.8125 122.307C57.9981 122.807 58.2841 123.21 58.6705 123.517C59.0568 123.824 59.5492 123.977 60.1477 123.977ZM66.1491 125V116.273H67.4446V117.591H67.5355C67.6946 117.159 67.9825 116.809 68.3991 116.54C68.8158 116.271 69.2855 116.136 69.8082 116.136C69.9067 116.136 70.0298 116.138 70.1776 116.142C70.3253 116.146 70.437 116.152 70.5128 116.159V117.523C70.4673 117.511 70.3632 117.494 70.2003 117.472C70.0412 117.445 69.8726 117.432 69.6946 117.432C69.2704 117.432 68.8916 117.521 68.5582 117.699C68.2287 117.873 67.9673 118.116 67.7741 118.426C67.5848 118.733 67.4901 119.083 67.4901 119.477V125H66.1491ZM72.1023 125V116.273H73.3977V117.591H73.4886C73.6477 117.159 73.9356 116.809 74.3523 116.54C74.7689 116.271 75.2386 116.136 75.7614 116.136C75.8598 116.136 75.983 116.138 76.1307 116.142C76.2784 116.146 76.3902 116.152 76.4659 116.159V117.523C76.4205 117.511 76.3163 117.494 76.1534 117.472C75.9943 117.445 75.8258 117.432 75.6477 117.432C75.2235 117.432 74.8447 117.521 74.5114 117.699C74.1818 117.873 73.9205 118.116 73.7273 118.426C73.5379 118.733 73.4432 119.083 73.4432 119.477V125H72.1023ZM79.1847 128.273C78.9574 128.273 78.7547 128.254 78.5767 128.216C78.3987 128.182 78.2756 128.148 78.2074 128.114L78.5483 126.932C78.8741 127.015 79.1619 127.045 79.4119 127.023C79.6619 127 79.8835 126.888 80.0767 126.688C80.2737 126.491 80.4536 126.17 80.6165 125.727L80.8665 125.045L77.6392 116.273H79.0938L81.5028 123.227H81.5938L84.0028 116.273H85.4574L81.7528 126.273C81.5862 126.723 81.3797 127.097 81.1335 127.392C80.8873 127.691 80.6013 127.913 80.2756 128.057C79.9536 128.201 79.59 128.273 79.1847 128.273Z" fill="#CBD5E0"/>
<path d="M52.8864 205H51.4091L55.6818 193.364H57.1364L61.4091 205H59.9318L56.4545 195.205H56.3636L52.8864 205ZM53.4318 200.455H59.3864V201.705H53.4318V200.455ZM63.0398 208.273V196.273H64.3352V197.659H64.4943C64.5928 197.508 64.7292 197.314 64.9034 197.08C65.0814 196.841 65.3352 196.629 65.6648 196.443C65.9981 196.254 66.4489 196.159 67.017 196.159C67.7519 196.159 68.3996 196.343 68.9602 196.71C69.5208 197.078 69.9583 197.598 70.2727 198.273C70.5871 198.947 70.7443 199.742 70.7443 200.659C70.7443 201.583 70.5871 202.384 70.2727 203.062C69.9583 203.737 69.5227 204.259 68.9659 204.631C68.4091 204.998 67.767 205.182 67.0398 205.182C66.4792 205.182 66.0303 205.089 65.6932 204.903C65.3561 204.714 65.0966 204.5 64.9148 204.261C64.733 204.019 64.5928 203.818 64.4943 203.659H64.3807V208.273H63.0398ZM64.358 200.636C64.358 201.295 64.4545 201.877 64.6477 202.381C64.8409 202.881 65.1231 203.273 65.4943 203.557C65.8655 203.837 66.3201 203.977 66.858 203.977C67.4186 203.977 67.8864 203.83 68.2614 203.534C68.6402 203.235 68.9242 202.833 69.1136 202.33C69.3068 201.822 69.4034 201.258 69.4034 200.636C69.4034 200.023 69.3087 199.47 69.1193 198.977C68.9337 198.481 68.6515 198.089 68.2727 197.801C67.8977 197.509 67.4261 197.364 66.858 197.364C66.3125 197.364 65.8542 197.502 65.483 197.778C65.1117 198.051 64.8314 198.434 64.642 198.926C64.4527 199.415 64.358 199.985 64.358 200.636ZM75.358 205.205C74.8049 205.205 74.303 205.1 73.8523 204.892C73.4015 204.68 73.0436 204.375 72.7784 203.977C72.5133 203.576 72.3807 203.091 72.3807 202.523C72.3807 202.023 72.4792 201.617 72.6761 201.307C72.8731 200.992 73.1364 200.746 73.4659 200.568C73.7955 200.39 74.1591 200.258 74.5568 200.17C74.9583 200.08 75.3617 200.008 75.767 199.955C76.2973 199.886 76.7273 199.835 77.0568 199.801C77.3902 199.763 77.6326 199.701 77.7841 199.614C77.9394 199.527 78.017 199.375 78.017 199.159V199.114C78.017 198.553 77.8636 198.117 77.5568 197.807C77.2538 197.496 76.7936 197.341 76.1761 197.341C75.536 197.341 75.0341 197.481 74.6705 197.761C74.3068 198.042 74.0511 198.341 73.9034 198.659L72.6307 198.205C72.858 197.674 73.161 197.261 73.5398 196.966C73.9223 196.667 74.339 196.458 74.7898 196.341C75.2443 196.22 75.6913 196.159 76.1307 196.159C76.411 196.159 76.733 196.193 77.0966 196.261C77.464 196.326 77.8182 196.46 78.1591 196.665C78.5038 196.869 78.7898 197.178 79.017 197.591C79.2443 198.004 79.358 198.557 79.358 199.25V205H78.017V203.818H77.9489C77.858 204.008 77.7064 204.21 77.4943 204.426C77.2822 204.642 77 204.826 76.6477 204.977C76.2955 205.129 75.8655 205.205 75.358 205.205ZM75.5625 204C76.0928 204 76.5398 203.896 76.9034 203.688C77.2708 203.479 77.5473 203.21 77.733 202.881C77.9223 202.551 78.017 202.205 78.017 201.841V200.614C77.9602 200.682 77.8352 200.744 77.642 200.801C77.4527 200.854 77.233 200.902 76.983 200.943C76.7367 200.981 76.4962 201.015 76.2614 201.045C76.0303 201.072 75.8428 201.095 75.6989 201.114C75.3504 201.159 75.0246 201.233 74.7216 201.335C74.4223 201.434 74.1799 201.583 73.9943 201.784C73.8125 201.981 73.7216 202.25 73.7216 202.591C73.7216 203.057 73.8939 203.409 74.2386 203.648C74.5871 203.883 75.0284 204 75.5625 204ZM85.6009 196.273V197.409H81.0781V196.273H85.6009ZM82.3963 194.182H83.7372V202.5C83.7372 202.879 83.7921 203.163 83.902 203.352C84.0156 203.538 84.1596 203.663 84.3338 203.727C84.5118 203.788 84.6993 203.818 84.8963 203.818C85.044 203.818 85.1652 203.811 85.2599 203.795C85.3546 203.777 85.4304 203.761 85.4872 203.75L85.7599 204.955C85.669 204.989 85.5421 205.023 85.3793 205.057C85.2164 205.095 85.0099 205.114 84.7599 205.114C84.3812 205.114 84.0099 205.032 83.6463 204.869C83.2865 204.706 82.9872 204.458 82.7486 204.125C82.5137 203.792 82.3963 203.371 82.3963 202.864V194.182ZM89.1463 199.75V205H87.8054V193.364H89.1463V197.636H89.2599C89.4645 197.186 89.7713 196.828 90.1804 196.562C90.5933 196.294 91.1425 196.159 91.8281 196.159C92.4228 196.159 92.9437 196.278 93.3906 196.517C93.8376 196.752 94.1842 197.114 94.4304 197.602C94.6804 198.087 94.8054 198.705 94.8054 199.455V205H93.4645V199.545C93.4645 198.852 93.2846 198.316 92.9247 197.938C92.5687 197.555 92.0743 197.364 91.4418 197.364C91.0024 197.364 90.6084 197.456 90.2599 197.642C89.9152 197.828 89.6425 198.098 89.4418 198.455C89.2448 198.811 89.1463 199.242 89.1463 199.75ZM97.8097 208.273C97.5824 208.273 97.3797 208.254 97.2017 208.216C97.0237 208.182 96.9006 208.148 96.8324 208.114L97.1733 206.932C97.4991 207.015 97.7869 207.045 98.0369 207.023C98.2869 207 98.5085 206.888 98.7017 206.688C98.8987 206.491 99.0786 206.17 99.2415 205.727L99.4915 205.045L96.2642 196.273H97.7188L100.128 203.227H100.219L102.628 196.273H104.082L100.378 206.273C100.211 206.723 100.005 207.097 99.7585 207.392C99.5123 207.691 99.2263 207.913 98.9006 208.057C98.5786 208.201 98.215 208.273 97.8097 208.273Z" fill="#CBD5E0"/>
<path d="M154.409 225V213.364H158.477C159.288 213.364 159.956 213.504 160.483 213.784C161.009 214.061 161.402 214.434 161.659 214.903C161.917 215.369 162.045 215.886 162.045 216.455C162.045 216.955 161.956 217.367 161.778 217.693C161.604 218.019 161.373 218.277 161.085 218.466C160.801 218.655 160.492 218.795 160.159 218.886V219C160.515 219.023 160.873 219.148 161.233 219.375C161.593 219.602 161.894 219.928 162.136 220.352C162.379 220.777 162.5 221.295 162.5 221.909C162.5 222.492 162.367 223.017 162.102 223.483C161.837 223.949 161.419 224.318 160.847 224.591C160.275 224.864 159.53 225 158.614 225H154.409ZM155.818 223.75H158.614C159.534 223.75 160.188 223.572 160.574 223.216C160.964 222.856 161.159 222.42 161.159 221.909C161.159 221.515 161.059 221.152 160.858 220.818C160.657 220.481 160.371 220.212 160 220.011C159.629 219.807 159.189 219.705 158.682 219.705H155.818V223.75ZM155.818 218.477H158.432C158.856 218.477 159.239 218.394 159.58 218.227C159.924 218.061 160.197 217.826 160.398 217.523C160.602 217.22 160.705 216.864 160.705 216.455C160.705 215.943 160.527 215.509 160.17 215.153C159.814 214.794 159.25 214.614 158.477 214.614H155.818V218.477ZM168.179 225.182C167.391 225.182 166.7 224.994 166.105 224.619C165.514 224.244 165.052 223.72 164.719 223.045C164.389 222.371 164.224 221.583 164.224 220.682C164.224 219.773 164.389 218.979 164.719 218.301C165.052 217.623 165.514 217.097 166.105 216.722C166.7 216.347 167.391 216.159 168.179 216.159C168.967 216.159 169.656 216.347 170.247 216.722C170.842 217.097 171.304 217.623 171.634 218.301C171.967 218.979 172.134 219.773 172.134 220.682C172.134 221.583 171.967 222.371 171.634 223.045C171.304 223.72 170.842 224.244 170.247 224.619C169.656 224.994 168.967 225.182 168.179 225.182ZM168.179 223.977C168.777 223.977 169.27 223.824 169.656 223.517C170.043 223.21 170.329 222.807 170.514 222.307C170.7 221.807 170.793 221.265 170.793 220.682C170.793 220.098 170.7 219.555 170.514 219.051C170.329 218.547 170.043 218.14 169.656 217.83C169.27 217.519 168.777 217.364 168.179 217.364C167.58 217.364 167.088 217.519 166.702 217.83C166.315 218.14 166.029 218.547 165.844 219.051C165.658 219.555 165.565 220.098 165.565 220.682C165.565 221.265 165.658 221.807 165.844 222.307C166.029 222.807 166.315 223.21 166.702 223.517C167.088 223.824 167.58 223.977 168.179 223.977ZM174.18 225V216.273H175.476V217.591H175.567C175.726 217.159 176.014 216.809 176.43 216.54C176.847 216.271 177.317 216.136 177.839 216.136C177.938 216.136 178.061 216.138 178.209 216.142C178.357 216.146 178.468 216.152 178.544 216.159V217.523C178.499 217.511 178.394 217.494 178.232 217.472C178.072 217.445 177.904 217.432 177.726 217.432C177.302 217.432 176.923 217.521 176.589 217.699C176.26 217.873 175.999 218.116 175.805 218.426C175.616 218.733 175.521 219.083 175.521 219.477V225H174.18ZM183.527 225.182C182.686 225.182 181.961 224.996 181.351 224.625C180.745 224.25 180.277 223.727 179.947 223.057C179.622 222.383 179.459 221.598 179.459 220.705C179.459 219.811 179.622 219.023 179.947 218.341C180.277 217.655 180.735 217.121 181.322 216.739C181.913 216.352 182.603 216.159 183.391 216.159C183.845 216.159 184.294 216.235 184.737 216.386C185.18 216.538 185.584 216.784 185.947 217.125C186.311 217.462 186.601 217.909 186.817 218.466C187.033 219.023 187.141 219.708 187.141 220.523V221.091H180.413V219.932H185.777C185.777 219.439 185.679 219 185.482 218.614C185.288 218.227 185.012 217.922 184.652 217.699C184.296 217.475 183.875 217.364 183.391 217.364C182.857 217.364 182.394 217.496 182.004 217.761C181.618 218.023 181.321 218.364 181.112 218.784C180.904 219.205 180.8 219.655 180.8 220.136V220.909C180.8 221.568 180.913 222.127 181.141 222.585C181.372 223.04 181.692 223.386 182.101 223.625C182.51 223.86 182.985 223.977 183.527 223.977C183.879 223.977 184.197 223.928 184.482 223.83C184.769 223.727 185.018 223.576 185.226 223.375C185.434 223.17 185.595 222.917 185.709 222.614L187.004 222.977C186.868 223.417 186.639 223.803 186.317 224.136C185.995 224.466 185.597 224.723 185.124 224.909C184.65 225.091 184.118 225.182 183.527 225.182ZM192.476 225.182C191.749 225.182 191.107 224.998 190.55 224.631C189.993 224.259 189.557 223.737 189.243 223.062C188.929 222.384 188.771 221.583 188.771 220.659C188.771 219.742 188.929 218.947 189.243 218.273C189.557 217.598 189.995 217.078 190.555 216.71C191.116 216.343 191.764 216.159 192.499 216.159C193.067 216.159 193.516 216.254 193.845 216.443C194.179 216.629 194.432 216.841 194.607 217.08C194.785 217.314 194.923 217.508 195.021 217.659H195.135V213.364H196.476V225H195.18V223.659H195.021C194.923 223.818 194.783 224.019 194.601 224.261C194.419 224.5 194.16 224.714 193.822 224.903C193.485 225.089 193.036 225.182 192.476 225.182ZM192.658 223.977C193.196 223.977 193.65 223.837 194.021 223.557C194.393 223.273 194.675 222.881 194.868 222.381C195.061 221.877 195.158 221.295 195.158 220.636C195.158 219.985 195.063 219.415 194.874 218.926C194.684 218.434 194.404 218.051 194.033 217.778C193.661 217.502 193.203 217.364 192.658 217.364C192.089 217.364 191.616 217.509 191.237 217.801C190.862 218.089 190.58 218.481 190.391 218.977C190.205 219.47 190.112 220.023 190.112 220.636C190.112 221.258 190.207 221.822 190.396 222.33C190.589 222.833 190.874 223.235 191.249 223.534C191.627 223.83 192.097 223.977 192.658 223.977ZM202.663 225.182C201.875 225.182 201.184 224.994 200.589 224.619C199.999 224.244 199.536 223.72 199.203 223.045C198.874 222.371 198.709 221.583 198.709 220.682C198.709 219.773 198.874 218.979 199.203 218.301C199.536 217.623 199.999 217.097 200.589 216.722C201.184 216.347 201.875 216.159 202.663 216.159C203.451 216.159 204.141 216.347 204.732 216.722C205.326 217.097 205.788 217.623 206.118 218.301C206.451 218.979 206.618 219.773 206.618 220.682C206.618 221.583 206.451 222.371 206.118 223.045C205.788 223.72 205.326 224.244 204.732 224.619C204.141 224.994 203.451 225.182 202.663 225.182ZM202.663 223.977C203.262 223.977 203.754 223.824 204.141 223.517C204.527 223.21 204.813 222.807 204.999 222.307C205.184 221.807 205.277 221.265 205.277 220.682C205.277 220.098 205.184 219.555 204.999 219.051C204.813 218.547 204.527 218.14 204.141 217.83C203.754 217.519 203.262 217.364 202.663 217.364C202.065 217.364 201.572 217.519 201.186 217.83C200.8 218.14 200.514 218.547 200.328 219.051C200.143 219.555 200.05 220.098 200.05 220.682C200.05 221.265 200.143 221.807 200.328 222.307C200.514 222.807 200.8 223.21 201.186 223.517C201.572 223.824 202.065 223.977 202.663 223.977ZM208.665 225V216.273H209.96V217.636H210.074C210.256 217.17 210.549 216.809 210.955 216.551C211.36 216.29 211.847 216.159 212.415 216.159C212.991 216.159 213.47 216.29 213.852 216.551C214.239 216.809 214.54 217.17 214.756 217.636H214.847C215.07 217.186 215.405 216.828 215.852 216.562C216.299 216.294 216.835 216.159 217.46 216.159C218.241 216.159 218.879 216.403 219.375 216.892C219.871 217.377 220.119 218.133 220.119 219.159V225H218.778V219.159C218.778 218.515 218.602 218.055 218.25 217.778C217.898 217.502 217.483 217.364 217.006 217.364C216.392 217.364 215.917 217.549 215.58 217.92C215.242 218.288 215.074 218.754 215.074 219.318V225H213.71V219.023C213.71 218.527 213.549 218.127 213.227 217.824C212.905 217.517 212.491 217.364 211.983 217.364C211.634 217.364 211.309 217.456 211.006 217.642C210.706 217.828 210.464 218.085 210.278 218.415C210.097 218.741 210.006 219.117 210.006 219.545V225H208.665Z" fill="#CBD5E0"/>
<path d="M264.409 205V193.364H268.341C269.25 193.364 269.996 193.519 270.58 193.83C271.163 194.136 271.595 194.559 271.875 195.097C272.155 195.634 272.295 196.246 272.295 196.932C272.295 197.617 272.155 198.225 271.875 198.756C271.595 199.286 271.165 199.703 270.585 200.006C270.006 200.305 269.265 200.455 268.364 200.455H265.182V199.182H268.318C268.939 199.182 269.439 199.091 269.818 198.909C270.201 198.727 270.477 198.47 270.648 198.136C270.822 197.799 270.909 197.398 270.909 196.932C270.909 196.466 270.822 196.059 270.648 195.71C270.473 195.362 270.195 195.093 269.812 194.903C269.43 194.71 268.924 194.614 268.295 194.614H265.818V205H264.409ZM269.886 199.773L272.75 205H271.114L268.295 199.773H269.886ZM278.027 205.182C277.186 205.182 276.461 204.996 275.851 204.625C275.245 204.25 274.777 203.727 274.447 203.057C274.122 202.383 273.959 201.598 273.959 200.705C273.959 199.811 274.122 199.023 274.447 198.341C274.777 197.655 275.235 197.121 275.822 196.739C276.413 196.352 277.103 196.159 277.891 196.159C278.345 196.159 278.794 196.235 279.237 196.386C279.68 196.538 280.084 196.784 280.447 197.125C280.811 197.462 281.101 197.909 281.317 198.466C281.533 199.023 281.641 199.708 281.641 200.523V201.091H274.913V199.932H280.277C280.277 199.439 280.179 199 279.982 198.614C279.788 198.227 279.512 197.922 279.152 197.699C278.796 197.475 278.375 197.364 277.891 197.364C277.357 197.364 276.894 197.496 276.504 197.761C276.118 198.023 275.821 198.364 275.612 198.784C275.404 199.205 275.3 199.655 275.3 200.136V200.909C275.3 201.568 275.413 202.127 275.641 202.585C275.872 203.04 276.192 203.386 276.601 203.625C277.01 203.86 277.485 203.977 278.027 203.977C278.379 203.977 278.697 203.928 278.982 203.83C279.269 203.727 279.518 203.576 279.726 203.375C279.934 203.17 280.095 202.917 280.209 202.614L281.504 202.977C281.368 203.417 281.139 203.803 280.817 204.136C280.495 204.466 280.097 204.723 279.624 204.909C279.15 205.091 278.618 205.182 278.027 205.182ZM285.021 193.364V205H283.68V193.364H285.021ZM290.045 205.205C289.492 205.205 288.991 205.1 288.54 204.892C288.089 204.68 287.731 204.375 287.466 203.977C287.201 203.576 287.068 203.091 287.068 202.523C287.068 202.023 287.167 201.617 287.364 201.307C287.561 200.992 287.824 200.746 288.153 200.568C288.483 200.39 288.847 200.258 289.244 200.17C289.646 200.08 290.049 200.008 290.455 199.955C290.985 199.886 291.415 199.835 291.744 199.801C292.078 199.763 292.32 199.701 292.472 199.614C292.627 199.527 292.705 199.375 292.705 199.159V199.114C292.705 198.553 292.551 198.117 292.244 197.807C291.941 197.496 291.481 197.341 290.864 197.341C290.223 197.341 289.722 197.481 289.358 197.761C288.994 198.042 288.739 198.341 288.591 198.659L287.318 198.205C287.545 197.674 287.848 197.261 288.227 196.966C288.61 196.667 289.027 196.458 289.477 196.341C289.932 196.22 290.379 196.159 290.818 196.159C291.098 196.159 291.42 196.193 291.784 196.261C292.152 196.326 292.506 196.46 292.847 196.665C293.191 196.869 293.477 197.178 293.705 197.591C293.932 198.004 294.045 198.557 294.045 199.25V205H292.705V203.818H292.636C292.545 204.008 292.394 204.21 292.182 204.426C291.97 204.642 291.688 204.826 291.335 204.977C290.983 205.129 290.553 205.205 290.045 205.205ZM290.25 204C290.78 204 291.227 203.896 291.591 203.688C291.958 203.479 292.235 203.21 292.42 202.881C292.61 202.551 292.705 202.205 292.705 201.841V200.614C292.648 200.682 292.523 200.744 292.33 200.801C292.14 200.854 291.92 200.902 291.67 200.943C291.424 200.981 291.184 201.015 290.949 201.045C290.718 201.072 290.53 201.095 290.386 201.114C290.038 201.159 289.712 201.233 289.409 201.335C289.11 201.434 288.867 201.583 288.682 201.784C288.5 201.981 288.409 202.25 288.409 202.591C288.409 203.057 288.581 203.409 288.926 203.648C289.275 203.883 289.716 204 290.25 204ZM297.493 196.273L299.584 199.841L301.675 196.273H303.22L300.402 200.636L303.22 205H301.675L299.584 201.614L297.493 205H295.947L298.72 200.636L295.947 196.273H297.493ZM307.702 205.205C307.149 205.205 306.647 205.1 306.196 204.892C305.745 204.68 305.387 204.375 305.122 203.977C304.857 203.576 304.724 203.091 304.724 202.523C304.724 202.023 304.823 201.617 305.02 201.307C305.217 200.992 305.48 200.746 305.81 200.568C306.139 200.39 306.503 200.258 306.901 200.17C307.302 200.08 307.705 200.008 308.111 199.955C308.641 199.886 309.071 199.835 309.401 199.801C309.734 199.763 309.976 199.701 310.128 199.614C310.283 199.527 310.361 199.375 310.361 199.159V199.114C310.361 198.553 310.207 198.117 309.901 197.807C309.598 197.496 309.137 197.341 308.52 197.341C307.88 197.341 307.378 197.481 307.014 197.761C306.651 198.042 306.395 198.341 306.247 198.659L304.974 198.205C305.202 197.674 305.505 197.261 305.884 196.966C306.266 196.667 306.683 196.458 307.134 196.341C307.588 196.22 308.035 196.159 308.474 196.159C308.755 196.159 309.077 196.193 309.44 196.261C309.808 196.326 310.162 196.46 310.503 196.665C310.848 196.869 311.134 197.178 311.361 197.591C311.588 198.004 311.702 198.557 311.702 199.25V205H310.361V203.818H310.293C310.202 204.008 310.05 204.21 309.838 204.426C309.626 204.642 309.344 204.826 308.991 204.977C308.639 205.129 308.209 205.205 307.702 205.205ZM307.906 204C308.437 204 308.884 203.896 309.247 203.688C309.615 203.479 309.891 203.21 310.077 202.881C310.266 202.551 310.361 202.205 310.361 201.841V200.614C310.304 200.682 310.179 200.744 309.986 200.801C309.796 200.854 309.577 200.902 309.327 200.943C309.08 200.981 308.84 201.015 308.605 201.045C308.374 201.072 308.187 201.095 308.043 201.114C307.694 201.159 307.368 201.233 307.065 201.335C306.766 201.434 306.524 201.583 306.338 201.784C306.156 201.981 306.065 202.25 306.065 202.591C306.065 203.057 306.238 203.409 306.582 203.648C306.931 203.883 307.372 204 307.906 204ZM317.945 196.273V197.409H313.422V196.273H317.945ZM314.74 194.182H316.081V202.5C316.081 202.879 316.136 203.163 316.246 203.352C316.359 203.538 316.503 203.663 316.678 203.727C316.856 203.788 317.043 203.818 317.24 203.818C317.388 203.818 317.509 203.811 317.604 203.795C317.698 203.777 317.774 203.761 317.831 203.75L318.104 204.955C318.013 204.989 317.886 205.023 317.723 205.057C317.56 205.095 317.354 205.114 317.104 205.114C316.725 205.114 316.354 205.032 315.99 204.869C315.63 204.706 315.331 204.458 315.092 204.125C314.857 203.792 314.74 203.371 314.74 202.864V194.182ZM319.962 205V196.273H321.303V205H319.962ZM320.643 194.818C320.382 194.818 320.157 194.729 319.967 194.551C319.782 194.373 319.689 194.159 319.689 193.909C319.689 193.659 319.782 193.445 319.967 193.267C320.157 193.089 320.382 193 320.643 193C320.905 193 321.128 193.089 321.314 193.267C321.503 193.445 321.598 193.659 321.598 193.909C321.598 194.159 321.503 194.373 321.314 194.551C321.128 194.729 320.905 194.818 320.643 194.818ZM327.304 205.182C326.516 205.182 325.825 204.994 325.23 204.619C324.639 204.244 324.177 203.72 323.844 203.045C323.514 202.371 323.349 201.583 323.349 200.682C323.349 199.773 323.514 198.979 323.844 198.301C324.177 197.623 324.639 197.097 325.23 196.722C325.825 196.347 326.516 196.159 327.304 196.159C328.092 196.159 328.781 196.347 329.372 196.722C329.967 197.097 330.429 197.623 330.759 198.301C331.092 198.979 331.259 199.773 331.259 200.682C331.259 201.583 331.092 202.371 330.759 203.045C330.429 203.72 329.967 204.244 329.372 204.619C328.781 204.994 328.092 205.182 327.304 205.182ZM327.304 203.977C327.902 203.977 328.395 203.824 328.781 203.517C329.168 203.21 329.454 202.807 329.639 202.307C329.825 201.807 329.918 201.265 329.918 200.682C329.918 200.098 329.825 199.555 329.639 199.051C329.454 198.547 329.168 198.14 328.781 197.83C328.395 197.519 327.902 197.364 327.304 197.364C326.705 197.364 326.213 197.519 325.827 197.83C325.44 198.14 325.154 198.547 324.969 199.051C324.783 199.555 324.69 200.098 324.69 200.682C324.69 201.265 324.783 201.807 324.969 202.307C325.154 202.807 325.44 203.21 325.827 203.517C326.213 203.824 326.705 203.977 327.304 203.977ZM334.646 199.75V205H333.305V196.273H334.601V197.636H334.714C334.919 197.193 335.23 196.837 335.646 196.568C336.063 196.295 336.601 196.159 337.26 196.159C337.851 196.159 338.368 196.28 338.811 196.523C339.254 196.761 339.599 197.125 339.845 197.614C340.091 198.098 340.214 198.712 340.214 199.455V205H338.874V199.545C338.874 198.86 338.696 198.326 338.339 197.943C337.983 197.557 337.495 197.364 336.874 197.364C336.446 197.364 336.063 197.456 335.726 197.642C335.393 197.828 335.129 198.098 334.936 198.455C334.743 198.811 334.646 199.242 334.646 199.75Z" fill="#CBD5E0"/>
<path d="M283.773 117H282.364C282.28 116.595 282.134 116.239 281.926 115.932C281.722 115.625 281.472 115.367 281.176 115.159C280.884 114.947 280.561 114.788 280.205 114.682C279.848 114.576 279.477 114.523 279.091 114.523C278.386 114.523 277.748 114.701 277.176 115.057C276.608 115.413 276.155 115.938 275.818 116.631C275.485 117.324 275.318 118.174 275.318 119.182C275.318 120.189 275.485 121.04 275.818 121.733C276.155 122.426 276.608 122.951 277.176 123.307C277.748 123.663 278.386 123.841 279.091 123.841C279.477 123.841 279.848 123.788 280.205 123.682C280.561 123.576 280.884 123.419 281.176 123.21C281.472 122.998 281.722 122.739 281.926 122.432C282.134 122.121 282.28 121.765 282.364 121.364H283.773C283.667 121.958 283.473 122.491 283.193 122.96C282.913 123.43 282.564 123.83 282.148 124.159C281.731 124.485 281.263 124.733 280.744 124.903C280.229 125.074 279.678 125.159 279.091 125.159C278.098 125.159 277.216 124.917 276.443 124.432C275.67 123.947 275.063 123.258 274.619 122.364C274.176 121.47 273.955 120.409 273.955 119.182C273.955 117.955 274.176 116.894 274.619 116C275.063 115.106 275.67 114.417 276.443 113.932C277.216 113.447 278.098 113.205 279.091 113.205C279.678 113.205 280.229 113.29 280.744 113.46C281.263 113.631 281.731 113.881 282.148 114.21C282.564 114.536 282.913 114.934 283.193 115.403C283.473 115.869 283.667 116.402 283.773 117ZM289.413 125.182C288.625 125.182 287.934 124.994 287.339 124.619C286.749 124.244 286.286 123.72 285.953 123.045C285.624 122.371 285.459 121.583 285.459 120.682C285.459 119.773 285.624 118.979 285.953 118.301C286.286 117.623 286.749 117.097 287.339 116.722C287.934 116.347 288.625 116.159 289.413 116.159C290.201 116.159 290.891 116.347 291.482 116.722C292.076 117.097 292.538 117.623 292.868 118.301C293.201 118.979 293.368 119.773 293.368 120.682C293.368 121.583 293.201 122.371 292.868 123.045C292.538 123.72 292.076 124.244 291.482 124.619C290.891 124.994 290.201 125.182 289.413 125.182ZM289.413 123.977C290.012 123.977 290.504 123.824 290.891 123.517C291.277 123.21 291.563 122.807 291.749 122.307C291.934 121.807 292.027 121.265 292.027 120.682C292.027 120.098 291.934 119.555 291.749 119.051C291.563 118.547 291.277 118.14 290.891 117.83C290.504 117.519 290.012 117.364 289.413 117.364C288.815 117.364 288.322 117.519 287.936 117.83C287.55 118.14 287.264 118.547 287.078 119.051C286.893 119.555 286.8 120.098 286.8 120.682C286.8 121.265 286.893 121.807 287.078 122.307C287.264 122.807 287.55 123.21 287.936 123.517C288.322 123.824 288.815 123.977 289.413 123.977ZM296.756 119.75V125H295.415V116.273H296.71V117.636H296.824C297.028 117.193 297.339 116.837 297.756 116.568C298.172 116.295 298.71 116.159 299.369 116.159C299.96 116.159 300.477 116.28 300.92 116.523C301.364 116.761 301.708 117.125 301.955 117.614C302.201 118.098 302.324 118.712 302.324 119.455V125H300.983V119.545C300.983 118.86 300.805 118.326 300.449 117.943C300.093 117.557 299.604 117.364 298.983 117.364C298.555 117.364 298.172 117.456 297.835 117.642C297.502 117.828 297.239 118.098 297.045 118.455C296.852 118.811 296.756 119.242 296.756 119.75ZM308.57 116.273V117.409H304.047V116.273H308.57ZM305.365 114.182H306.706V122.5C306.706 122.879 306.761 123.163 306.871 123.352C306.984 123.538 307.128 123.663 307.303 123.727C307.481 123.788 307.668 123.818 307.865 123.818C308.013 123.818 308.134 123.811 308.229 123.795C308.323 123.777 308.399 123.761 308.456 123.75L308.729 124.955C308.638 124.989 308.511 125.023 308.348 125.057C308.185 125.095 307.979 125.114 307.729 125.114C307.35 125.114 306.979 125.032 306.615 124.869C306.255 124.706 305.956 124.458 305.717 124.125C305.482 123.792 305.365 123.371 305.365 122.864V114.182ZM310.587 125V116.273H311.882V117.591H311.973C312.132 117.159 312.42 116.809 312.837 116.54C313.253 116.271 313.723 116.136 314.246 116.136C314.344 116.136 314.467 116.138 314.615 116.142C314.763 116.146 314.875 116.152 314.95 116.159V117.523C314.905 117.511 314.801 117.494 314.638 117.472C314.479 117.445 314.31 117.432 314.132 117.432C313.708 117.432 313.329 117.521 312.996 117.699C312.666 117.873 312.405 118.116 312.212 118.426C312.022 118.733 311.928 119.083 311.928 119.477V125H310.587ZM319.82 125.182C319.032 125.182 318.34 124.994 317.746 124.619C317.155 124.244 316.693 123.72 316.359 123.045C316.03 122.371 315.865 121.583 315.865 120.682C315.865 119.773 316.03 118.979 316.359 118.301C316.693 117.623 317.155 117.097 317.746 116.722C318.34 116.347 319.032 116.159 319.82 116.159C320.607 116.159 321.297 116.347 321.888 116.722C322.482 117.097 322.945 117.623 323.274 118.301C323.607 118.979 323.774 119.773 323.774 120.682C323.774 121.583 323.607 122.371 323.274 123.045C322.945 123.72 322.482 124.244 321.888 124.619C321.297 124.994 320.607 125.182 319.82 125.182ZM319.82 123.977C320.418 123.977 320.911 123.824 321.297 123.517C321.683 123.21 321.969 122.807 322.155 122.307C322.34 121.807 322.433 121.265 322.433 120.682C322.433 120.098 322.34 119.555 322.155 119.051C321.969 118.547 321.683 118.14 321.297 117.83C320.911 117.519 320.418 117.364 319.82 117.364C319.221 117.364 318.729 117.519 318.342 117.83C317.956 118.14 317.67 118.547 317.484 119.051C317.299 119.555 317.206 120.098 317.206 120.682C317.206 121.265 317.299 121.807 317.484 122.307C317.67 122.807 317.956 123.21 318.342 123.517C318.729 123.824 319.221 123.977 319.82 123.977ZM327.162 113.364V125H325.821V113.364H327.162Z" fill="#CBD5E0"/>
<path d="M175.744 257.182C175.668 256.534 175.357 256.031 174.811 255.673C174.266 255.315 173.597 255.136 172.804 255.136C172.224 255.136 171.717 255.23 171.283 255.418C170.852 255.605 170.516 255.863 170.273 256.191C170.034 256.519 169.915 256.892 169.915 257.31C169.915 257.659 169.998 257.96 170.164 258.211C170.335 258.458 170.552 258.665 170.816 258.831C171.08 258.993 171.357 259.127 171.647 259.234C171.937 259.336 172.203 259.419 172.446 259.483L173.776 259.841C174.116 259.93 174.496 260.054 174.913 260.212C175.335 260.369 175.738 260.585 176.121 260.857C176.509 261.126 176.829 261.471 177.08 261.893C177.332 262.315 177.457 262.832 177.457 263.446C177.457 264.153 177.272 264.793 176.901 265.364C176.535 265.935 175.998 266.388 175.29 266.725C174.587 267.062 173.733 267.23 172.727 267.23C171.79 267.23 170.978 267.079 170.292 266.776C169.61 266.474 169.073 266.052 168.681 265.511C168.293 264.969 168.074 264.341 168.023 263.625H169.659C169.702 264.119 169.868 264.528 170.158 264.852C170.452 265.172 170.822 265.411 171.27 265.568C171.722 265.722 172.207 265.798 172.727 265.798C173.332 265.798 173.876 265.7 174.357 265.504C174.839 265.304 175.22 265.027 175.501 264.673C175.783 264.315 175.923 263.898 175.923 263.42C175.923 262.986 175.802 262.632 175.559 262.359C175.316 262.087 174.996 261.865 174.6 261.695C174.204 261.524 173.776 261.375 173.315 261.247L171.705 260.787C170.682 260.493 169.872 260.073 169.276 259.528C168.679 258.982 168.381 258.268 168.381 257.386C168.381 256.653 168.579 256.014 168.975 255.469C169.376 254.919 169.913 254.493 170.586 254.19C171.263 253.884 172.02 253.73 172.855 253.73C173.699 253.73 174.449 253.881 175.105 254.184C175.761 254.482 176.281 254.891 176.665 255.411C177.053 255.931 177.257 256.521 177.278 257.182H175.744ZM181.265 263.42L181.24 261.554H181.547L185.842 257.182H187.709L183.132 261.81H183.004L181.265 263.42ZM179.859 267V253.909H181.368V267H179.859ZM186.098 267L182.263 262.142L183.336 261.094L188.015 267H186.098ZM189.65 267V257.182H191.159V267H189.65ZM190.417 255.545C190.123 255.545 189.87 255.445 189.657 255.245C189.448 255.045 189.343 254.804 189.343 254.523C189.343 254.241 189.448 254.001 189.657 253.8C189.87 253.6 190.123 253.5 190.417 253.5C190.711 253.5 190.963 253.6 191.172 253.8C191.385 254.001 191.491 254.241 191.491 254.523C191.491 254.804 191.385 255.045 191.172 255.245C190.963 255.445 190.711 255.545 190.417 255.545ZM195.43 253.909V267H193.922V253.909H195.43ZM199.702 253.909V267H198.193V253.909H199.702ZM209.419 259.381L208.064 259.764C207.979 259.538 207.853 259.319 207.687 259.106C207.525 258.888 207.303 258.71 207.022 258.569C206.741 258.428 206.381 258.358 205.942 258.358C205.341 258.358 204.84 258.496 204.44 258.773C204.044 259.046 203.845 259.393 203.845 259.815C203.845 260.19 203.982 260.487 204.254 260.704C204.527 260.921 204.953 261.102 205.533 261.247L206.99 261.605C207.868 261.818 208.522 262.144 208.953 262.583C209.383 263.018 209.598 263.578 209.598 264.264C209.598 264.827 209.436 265.33 209.112 265.773C208.793 266.216 208.345 266.565 207.77 266.821C207.195 267.077 206.526 267.205 205.763 267.205C204.762 267.205 203.933 266.987 203.276 266.553C202.62 266.118 202.205 265.483 202.03 264.648L203.462 264.29C203.598 264.818 203.856 265.214 204.235 265.479C204.619 265.743 205.119 265.875 205.737 265.875C206.441 265.875 206.999 265.726 207.412 265.428C207.83 265.125 208.039 264.763 208.039 264.341C208.039 264 207.919 263.714 207.681 263.484C207.442 263.25 207.075 263.075 206.581 262.96L204.945 262.577C204.046 262.364 203.385 262.033 202.963 261.586C202.546 261.134 202.337 260.57 202.337 259.892C202.337 259.338 202.492 258.848 202.803 258.422C203.119 257.996 203.547 257.661 204.088 257.418C204.634 257.175 205.252 257.054 205.942 257.054C206.914 257.054 207.676 257.267 208.23 257.693C208.789 258.119 209.185 258.682 209.419 259.381Z" fill="#CBD5E0"/>
<path d="M9 149.881V151.466C8.54403 151.56 8.14347 151.724 7.7983 151.958C7.45313 152.188 7.16335 152.469 6.92898 152.802C6.69034 153.13 6.51136 153.494 6.39205 153.895C6.27273 154.295 6.21307 154.713 6.21307 155.148C6.21307 155.94 6.41335 156.658 6.81392 157.302C7.21449 157.941 7.80469 158.45 8.58452 158.83C9.36435 159.205 10.321 159.392 11.4545 159.392C12.5881 159.392 13.5447 159.205 14.3246 158.83C15.1044 158.45 15.6946 157.941 16.0952 157.302C16.4957 156.658 16.696 155.94 16.696 155.148C16.696 154.713 16.6364 154.295 16.517 153.895C16.3977 153.494 16.2209 153.13 15.9865 152.802C15.7479 152.469 15.456 152.188 15.1108 151.958C14.7614 151.724 14.3608 151.56 13.9091 151.466V149.881C14.5781 150 15.1768 150.217 15.7053 150.533C16.2337 150.848 16.6832 151.24 17.054 151.709C17.4205 152.178 17.6996 152.704 17.8913 153.288C18.0831 153.867 18.179 154.487 18.179 155.148C18.179 156.264 17.9062 157.257 17.3608 158.126C16.8153 158.996 16.0398 159.68 15.0341 160.178C14.0284 160.677 12.8352 160.926 11.4545 160.926C10.0739 160.926 8.88068 160.677 7.875 160.178C6.86932 159.68 6.09375 158.996 5.5483 158.126C5.00284 157.257 4.73011 156.264 4.73011 155.148C4.73011 154.487 4.82599 153.867 5.01776 153.288C5.20952 152.704 5.49077 152.178 5.86151 151.709C6.22798 151.24 6.67543 150.848 7.20384 150.533C7.72798 150.217 8.3267 150 9 149.881ZM12.0938 146.015H18V147.524H4.90909V146.015H9.71591V145.887C9.20881 145.657 8.80611 145.312 8.50781 144.852C8.20526 144.387 8.05398 143.769 8.05398 142.998C8.05398 142.329 8.18821 141.743 8.45668 141.24C8.72088 140.737 9.12784 140.347 9.67756 140.07C10.223 139.789 10.9176 139.649 11.7614 139.649H18V141.157H11.8636C11.0838 141.157 10.4808 141.36 10.0547 141.764C9.62429 142.165 9.40909 142.721 9.40909 143.433C9.40909 143.927 9.51349 144.37 9.7223 144.762C9.93111 145.15 10.2358 145.457 10.6364 145.683C11.0369 145.904 11.5227 146.015 12.0938 146.015ZM18.2301 134C18.2301 134.622 18.1129 135.186 17.8786 135.694C17.6399 136.201 17.2969 136.603 16.8494 136.902C16.3977 137.2 15.8523 137.349 15.2131 137.349C14.6506 137.349 14.1946 137.238 13.8452 137.017C13.4915 136.795 13.2145 136.499 13.0142 136.128C12.8139 135.757 12.6648 135.348 12.5668 134.901C12.4645 134.449 12.3835 133.995 12.3239 133.539C12.2472 132.943 12.1896 132.459 12.1513 132.088C12.1087 131.713 12.0384 131.441 11.9403 131.27C11.8423 131.096 11.6719 131.008 11.429 131.008H11.3778C10.7472 131.008 10.2571 131.181 9.90767 131.526C9.55824 131.867 9.38352 132.385 9.38352 133.079C9.38352 133.799 9.54119 134.364 9.85653 134.773C10.1719 135.182 10.5085 135.47 10.8665 135.636L10.3551 137.068C9.75852 136.812 9.29403 136.471 8.96165 136.045C8.625 135.615 8.39062 135.146 8.25852 134.639C8.12216 134.127 8.05398 133.625 8.05398 133.13C8.05398 132.815 8.09233 132.453 8.16903 132.044C8.24148 131.63 8.39276 131.232 8.62287 130.848C8.85298 130.461 9.20028 130.139 9.66477 129.883C10.1293 129.627 10.7514 129.5 11.5313 129.5H18V131.008H16.6705V131.085C16.8835 131.187 17.1115 131.358 17.3544 131.596C17.5973 131.835 17.804 132.152 17.9744 132.549C18.1449 132.945 18.2301 133.429 18.2301 134ZM16.875 133.77C16.875 133.173 16.7578 132.67 16.5234 132.261C16.2891 131.848 15.9865 131.537 15.6158 131.328C15.245 131.115 14.8551 131.008 14.446 131.008H13.0653C13.142 131.072 13.2124 131.213 13.2763 131.43C13.3359 131.643 13.3892 131.89 13.4361 132.172C13.4787 132.449 13.517 132.719 13.5511 132.983C13.581 133.243 13.6065 133.454 13.6278 133.616C13.679 134.008 13.7621 134.375 13.8771 134.716C13.9879 135.052 14.1562 135.325 14.3821 135.534C14.6037 135.738 14.9062 135.841 15.2898 135.841C15.8139 135.841 16.2102 135.647 16.4787 135.259C16.7429 134.867 16.875 134.37 16.875 133.77ZM4.90909 125.238H18V126.746H4.90909L4.90909 125.238ZM4.90909 120.966H18V122.475H4.90909V120.966ZM18.2045 114.087C18.2045 115.033 17.9957 115.849 17.5781 116.535C17.1563 117.217 16.5682 117.743 15.8139 118.114C15.0554 118.48 14.1733 118.664 13.1676 118.664C12.1619 118.664 11.2756 118.48 10.5085 118.114C9.73722 117.743 9.13636 117.227 8.70597 116.567C8.27131 115.902 8.05398 115.127 8.05398 114.24C8.05398 113.729 8.1392 113.224 8.30966 112.725C8.48011 112.227 8.7571 111.773 9.14063 111.364C9.51989 110.955 10.0227 110.629 10.6491 110.386C11.2756 110.143 12.0469 110.021 12.9631 110.021H13.6023V117.59H12.2983V111.556C11.7443 111.556 11.25 111.666 10.8153 111.888C10.3807 112.105 10.0376 112.416 9.78622 112.821C9.5348 113.222 9.40909 113.695 9.40909 114.24C9.40909 114.841 9.55824 115.361 9.85653 115.8C10.1506 116.235 10.5341 116.569 11.0071 116.803C11.4801 117.038 11.9872 117.155 12.5284 117.155H13.3977C14.1392 117.155 14.7678 117.027 15.2834 116.771C15.7947 116.512 16.1847 116.151 16.4531 115.691C16.7173 115.231 16.8494 114.696 16.8494 114.087C16.8494 113.691 16.794 113.333 16.6832 113.013C16.5682 112.689 16.3977 112.41 16.1719 112.176C15.9418 111.941 15.6562 111.76 15.3153 111.632L15.7244 110.175C16.2188 110.328 16.6534 110.586 17.0284 110.948C17.3991 111.311 17.6889 111.758 17.8977 112.291C18.1023 112.823 18.2045 113.422 18.2045 114.087ZM12.0938 106.218H18V107.727H8.18182V106.269H9.71591V106.142C9.21733 105.911 8.81676 105.562 8.5142 105.093C8.20739 104.624 8.05398 104.019 8.05398 103.278C8.05398 102.613 8.19034 102.031 8.46307 101.533C8.73153 101.034 9.14063 100.646 9.69034 100.369C10.2358 100.093 10.9261 99.954 11.7614 99.954H18V101.463H11.8636C11.0923 101.463 10.4915 101.663 10.0611 102.063C9.62642 102.464 9.40909 103.014 9.40909 103.713C9.40909 104.194 9.51349 104.624 9.7223 105.004C9.93111 105.379 10.2358 105.675 10.6364 105.892C11.0369 106.11 11.5227 106.218 12.0938 106.218ZM21.8864 93.2344C21.8864 93.9631 21.7926 94.5895 21.6051 95.1136C21.4219 95.6378 21.179 96.0746 20.8764 96.424C20.5781 96.7692 20.2585 97.044 19.9176 97.2486L19.0739 96.0469C19.2528 95.9105 19.4574 95.7379 19.6875 95.5291C19.9219 95.3203 20.1243 95.0348 20.2947 94.6726C20.4695 94.3061 20.5568 93.8267 20.5568 93.2344C20.5568 92.4418 20.3651 91.7876 19.9815 91.272C19.598 90.7564 18.9972 90.4986 18.179 90.4986H16.1847V90.6264C16.3636 90.7372 16.5852 90.8949 16.8494 91.0994C17.1094 91.2997 17.3416 91.5895 17.5462 91.9688C17.7464 92.3438 17.8466 92.8509 17.8466 93.4901C17.8466 94.2827 17.6591 94.9943 17.2841 95.625C16.9091 96.2514 16.3636 96.7479 15.6477 97.1143C14.9318 97.4766 14.0625 97.6577 13.0398 97.6577C12.0341 97.6577 11.1584 97.4808 10.4126 97.1271C9.66264 96.7734 9.0831 96.2812 8.67401 95.6506C8.26065 95.0199 8.05398 94.2912 8.05398 93.4645C8.05398 92.8253 8.16051 92.3182 8.37358 91.9432C8.58239 91.5639 8.82102 91.2741 9.08949 91.0739C9.35369 90.8693 9.57102 90.7116 9.74148 90.6009V90.4474H8.18182L8.18182 88.9901H18.2813C19.125 88.9901 19.8111 89.1818 20.3395 89.5653C20.8722 89.9446 21.2621 90.456 21.5092 91.0994C21.7607 91.7386 21.8864 92.4503 21.8864 93.2344ZM16.4915 93.2855C16.4915 92.6804 16.353 92.169 16.076 91.7514C15.799 91.3338 15.4006 91.0163 14.8807 90.799C14.3608 90.5817 13.7386 90.473 13.0142 90.473C12.3068 90.473 11.6825 90.5795 11.1413 90.7926C10.6001 91.0057 10.1761 91.321 9.86932 91.7386C9.5625 92.1562 9.40909 92.6719 9.40909 93.2855C9.40909 93.9247 9.57102 94.4574 9.89489 94.8835C10.2187 95.3054 10.6534 95.6229 11.1989 95.8359C11.7443 96.0447 12.3494 96.1491 13.0142 96.1491C13.696 96.1491 14.299 96.0426 14.8232 95.8295C15.343 95.6122 15.7521 95.2926 16.0504 94.8707C16.3445 94.4446 16.4915 93.9162 16.4915 93.2855ZM18.2045 82.1122C18.2045 83.0582 17.9957 83.8743 17.5781 84.5604C17.1563 85.2422 16.5682 85.7685 15.8139 86.1392C15.0554 86.5057 14.1733 86.6889 13.1676 86.6889C12.1619 86.6889 11.2756 86.5057 10.5085 86.1392C9.73722 85.7685 9.13636 85.2528 8.70597 84.5923C8.27131 83.9276 8.05398 83.152 8.05398 82.2656C8.05398 81.7543 8.1392 81.2493 8.30966 80.7507C8.48011 80.2521 8.7571 79.7983 9.14063 79.3892C9.51989 78.9801 10.0227 78.6541 10.6491 78.4112C11.2756 78.1683 12.0469 78.0469 12.9631 78.0469H13.6023V85.6151H12.2983V79.581C11.7443 79.581 11.25 79.6918 10.8153 79.9134C10.3807 80.1307 10.0376 80.4418 9.78622 80.8466C9.5348 81.2472 9.40909 81.7202 9.40909 82.2656C9.40909 82.8665 9.55824 83.3864 9.85653 83.8253C10.1506 84.2599 10.5341 84.5945 11.0071 84.8288C11.4801 85.0632 11.9872 85.1804 12.5284 85.1804H13.3977C14.1392 85.1804 14.7678 85.0526 15.2834 84.7969C15.7947 84.5369 16.1847 84.1768 16.4531 83.7166C16.7173 83.2564 16.8494 82.7216 16.8494 82.1122C16.8494 81.7159 16.794 81.358 16.6832 81.0384C16.5682 80.7145 16.3977 80.4354 16.1719 80.201C15.9418 79.9666 15.6562 79.7855 15.3153 79.6577L15.7244 78.2003C16.2188 78.3537 16.6534 78.6115 17.0284 78.9737C17.3991 79.3359 17.6889 79.7834 17.8977 80.3161C18.1023 80.8487 18.2045 81.4474 18.2045 82.1122Z" fill="#CBD5E0"/>
</g>
<defs>
<clipPath id="clip0_17_429">
<rect width="350" height="271" fill="white"/>
</clipPath>
</defs>
</svg>
