<svg width="256" height="255" viewBox="0 0 256 255" fill="none" xmlns="http://www.w3.org/2000/svg">
<ellipse rx="91.0768" ry="91.107" transform="matrix(0.802233 0.597012 -0.597343 0.801986 127.563 127.44)" fill="#2BA6F0"/>
<path fill-rule="evenodd" clip-rule="evenodd" d="M48.2227 172.256L123.576 62.9347C137.935 65.2058 158.882 69.9586 172.097 78.4593L177.599 82.9666C195.092 94.2401 197.165 107.608 199.656 123.662C200.529 129.289 201.453 135.247 203.11 141.559L159.741 212.816C131.698 223.387 99.0309 219.891 73.2108 200.645C62.6508 192.774 54.2831 183.049 48.2227 172.256Z" fill="#45B5F3"/>
<path fill-rule="evenodd" clip-rule="evenodd" d="M89.9 194.203C87.4519 197.885 88.45 202.857 92.1293 205.31C95.7312 207.71 100.567 206.806 103.066 203.313C103.614 204.077 104.306 204.757 105.135 205.31C108.814 207.762 113.782 206.766 116.23 203.084L122.888 193.072C125.336 189.39 124.338 184.418 120.659 181.965C117.057 179.565 112.221 180.469 109.722 183.962C109.174 183.198 108.482 182.518 107.653 181.965C103.974 179.513 99.0066 180.509 96.5584 184.191L89.9 194.203Z" fill="#244982"/>
<rect width="6.00494" height="6.00542" rx="1" transform="matrix(0.695875 -0.718236 0.717355 0.696631 72.5536 189.943)" fill="#70C8F5"/>
<rect width="10.0144" height="10.0058" rx="2" transform="matrix(0.437929 -0.898926 0.898661 0.438814 59.548 97.4777)" fill="#7DCEF6"/>
<path d="M174.279 188.176C167.415 186.463 146.265 154.776 169.271 121.702C190.28 107.117 214.875 126.948 205.705 141.812C196.535 156.676 183.001 187.603 174.279 188.176Z" fill="#2858A1"/>
<path fill-rule="evenodd" clip-rule="evenodd" d="M92.4744 82.9253C90.0223 54.8657 110.781 30.1265 138.84 27.6688L151.353 26.5728C179.412 24.1151 204.146 44.8696 206.598 72.9292L210.361 115.994C212.205 137.094 200.925 156.316 183.284 165.599C173.89 173.079 161.997 177.548 149.061 177.548C127.837 177.548 109.42 165.518 100.242 147.898C85.5027 153.178 71.6854 150.578 68.9561 147.526C66.3552 141.702 76.8098 126.078 86.0938 112.203C88.9767 107.895 91.7467 103.755 93.9779 100.13L92.4744 82.9253Z" fill="#3066BA"/>
<path d="M144.585 27.3794C153.589 26.3773 154.089 26.3772 164.594 27.3794C202.61 78.9608 178.6 143.062 161.592 156.584C156.154 157.173 147.586 157.085 147.586 155.582C147.586 155.078 162.867 129.164 164.594 99.994C166.295 71.2417 154.517 39.3116 144.585 27.3794Z" fill="white"/>
<path d="M95.2605 112.875C98.9647 115.283 100.018 120.241 97.614 123.947L94.3339 129.004C91.9295 132.711 86.9775 133.763 83.2732 131.355L76.5558 126.988L88.543 108.508L95.2605 112.875Z" fill="#244982"/>
<path d="M116.58 76.486C116.647 83.9316 117.164 92.6765 118.049 97.9111C118.468 100.388 119.126 101.661 119.668 104.114C120.333 107.122 122.908 110.571 125.491 112.251C134.957 118.413 150.828 122.072 167.062 122.53C177.248 122.012 189.449 117.29 192.307 115.718C194.215 114.669 196.935 112.175 199.721 109.621L199.928 109.431C207.549 102.096 207.549 95.8084 207.549 94.2365C207.839 79.8806 207.234 72.7277 206.609 68.9737C206.153 66.2386 205.568 63.522 204.866 60.8396C202.819 53.021 197.56 47.3731 191.605 43.4043C182.874 37.5861 172.101 35.8459 167.062 35.5541C164.628 35.3075 157.465 35.1304 150.887 36.6768C148.623 37.2091 146.358 37.811 144.117 38.4338C122.34 44.4862 117.652 67.0042 116.762 73.2404C116.608 74.3205 116.57 75.395 116.58 76.486Z" fill="#3066BA"/>
<ellipse rx="43.7204" ry="30.6922" transform="matrix(0.999847 -0.0174726 0.0174322 0.999848 161.605 91.0824)" fill="#53C52D"/>
<path d="M119.09 71.1849C118.975 67.7368 119.652 64.3003 121.305 61.2713C124.473 55.4636 130.326 46.0275 135.995 43.7078C138.014 42.8815 140.199 43.7459 142.19 44.6369C142.76 44.8919 143.337 45.1434 143.918 45.3906C153.73 49.5702 164.841 48.464 174.42 43.7716C187.119 37.5511 201.807 47.3339 200.96 61.4485L198.106 109.007L120.072 100.495L119.09 71.1849Z" fill="#53C52D"/>
<path d="M131.68 56.3137C128.763 57.1852 129.859 66.1241 129.859 66.1241L156.459 102.21L173.598 104.501C173.598 104.501 170.449 74.902 169.596 67.9431C155.633 69.155 145.712 51.5615 141.122 51.1166C136.47 50.1748 139.788 60.7916 138.308 61.049C135.175 61.5939 135.591 55.3285 131.68 56.3137Z" fill="#81DE39"/>
<rect x="177.629" y="55.1077" width="28.5407" height="55.4753" rx="14.271" fill="#81DE39"/>
<rect width="44.7798" height="53.1136" rx="20" transform="matrix(0.990244 -0.139391 0.138956 0.990292 116.504 66.4017)" fill="#81DE39"/>
<path d="M196.369 47.8962C199.232 47.7778 202.996 65.0974 202.996 65.0974L191.386 95.4149L173.598 104.5C173.598 104.5 170.68 74.4868 169.307 68.0212C180.812 63.0136 185.43 46.9649 189.377 45.1595C193.227 42.8923 193.422 52.2213 194.818 51.9965C197.773 51.5206 192.588 48.2182 196.369 47.8962Z" fill="#81DE39"/>
<rect width="25.0123" height="40.0611" rx="12.5062" transform="matrix(0.992482 -0.122021 0.121717 0.99261 176.311 62.4369)" fill="white"/>
<rect width="25.0123" height="40.0611" rx="12.5062" transform="matrix(0.992482 -0.122021 0.121717 0.99261 176.311 62.4369)" fill="white"/>
<rect width="25.0123" height="40.0611" rx="12.5062" transform="matrix(0.992482 -0.122021 0.121717 0.99261 176.311 62.4369)" fill="white"/>
<path fill-rule="evenodd" clip-rule="evenodd" d="M185.129 70.1975C186.47 70.5543 187.525 71.6942 187.704 73.1557L187.949 75.1511C188.172 76.973 186.954 78.6397 185.189 79.0065C185.795 83.0063 189.479 85.8206 193.52 85.3239C197.633 84.8183 200.558 81.0738 200.054 76.9602L199.474 72.2358C198.97 68.1223 195.227 65.1975 191.114 65.7031C188.366 66.0408 186.148 67.8242 185.129 70.1975Z" fill="white"/>
<path fill-rule="evenodd" clip-rule="evenodd" d="M185.129 70.1975C186.47 70.5543 187.525 71.6942 187.704 73.1557L187.949 75.1511C188.172 76.973 186.954 78.6397 185.189 79.0065C185.795 83.0063 189.479 85.8206 193.52 85.3239C197.633 84.8183 200.558 81.0738 200.054 76.9602L199.474 72.2358C198.97 68.1223 195.227 65.1975 191.114 65.7031C188.366 66.0408 186.148 67.8242 185.129 70.1975Z" fill="white"/>
<path fill-rule="evenodd" clip-rule="evenodd" d="M185.129 70.1975C186.47 70.5543 187.525 71.6942 187.704 73.1557L187.949 75.1511C188.172 76.973 186.954 78.6397 185.189 79.0065C185.795 83.0063 189.479 85.8206 193.52 85.3239C197.633 84.8183 200.558 81.0738 200.054 76.9602L199.474 72.2358C198.97 68.1223 195.227 65.1975 191.114 65.7031C188.366 66.0408 186.148 67.8242 185.129 70.1975Z" fill="#353535"/>
<path d="M184.309 98.8581L206.571 89.8533C208.605 94.8918 206.169 100.628 201.131 102.666L197.113 104.291C192.075 106.329 186.343 103.897 184.309 98.8581Z" fill="#81DE39"/>
<rect width="32.0158" height="40.0611" rx="16.0079" transform="matrix(0.992478 -0.122055 0.121684 0.992614 125.915 68.2299)" fill="white"/>
<rect width="32.0158" height="40.0611" rx="16.0079" transform="matrix(0.992478 -0.122055 0.121684 0.992614 125.915 68.2299)" fill="white"/>
<rect width="32.0158" height="40.0611" rx="16.0079" transform="matrix(0.992478 -0.122055 0.121684 0.992614 125.915 68.2299)" fill="white"/>
<path fill-rule="evenodd" clip-rule="evenodd" d="M140.11 75.2081C141.45 75.5648 142.506 76.7048 142.685 78.1663L142.93 80.1617C143.153 81.9835 141.935 83.6503 140.17 84.0171C140.776 88.0168 144.46 90.8312 148.501 90.3345C152.614 89.8289 155.539 86.0843 155.035 81.9708L154.455 77.2464C153.951 73.1328 150.208 70.208 146.095 70.7136C143.347 71.0514 141.129 72.8348 140.11 75.2081Z" fill="white"/>
<path fill-rule="evenodd" clip-rule="evenodd" d="M140.11 75.2081C141.45 75.5648 142.506 76.7048 142.685 78.1663L142.93 80.1617C143.153 81.9835 141.935 83.6503 140.17 84.0171C140.776 88.0168 144.46 90.8312 148.501 90.3345C152.614 89.8289 155.539 86.0843 155.035 81.9708L154.455 77.2464C153.951 73.1328 150.208 70.208 146.095 70.7136C143.347 71.0514 141.129 72.8348 140.11 75.2081Z" fill="white"/>
<path fill-rule="evenodd" clip-rule="evenodd" d="M140.11 75.2081C141.45 75.5648 142.506 76.7048 142.685 78.1663L142.93 80.1617C143.153 81.9835 141.935 83.6503 140.17 84.0171C140.776 88.0168 144.46 90.8312 148.501 90.3345C152.614 89.8289 155.539 86.0843 155.035 81.9708L154.455 77.2464C153.951 73.1328 150.208 70.208 146.095 70.7136C143.347 71.0514 141.129 72.8348 140.11 75.2081Z" fill="#353535"/>
<path d="M129.601 96.7476L157.461 100.668C156.71 106.023 151.76 109.753 146.406 109L137.934 107.808C132.58 107.054 128.849 102.103 129.601 96.7476Z" fill="#81DE39"/>
<rect x="164.593" y="89.4772" width="15.0065" height="25.0397" rx="7.50358" fill="#EF8527"/>
<path d="M166.302 96.4371C165.671 92.8028 168.468 89.4772 172.157 89.4772C175.439 89.4772 178.099 92.1379 178.099 95.4199L178.099 107.623C178.099 110.324 175.91 112.514 173.209 112.514C170.831 112.514 168.798 110.803 168.391 108.46L166.302 96.4371Z" fill="#AB632D"/>
<path d="M163.593 98.4918C163.593 92.9602 168.077 88.4759 173.608 88.4759L176.065 88.4759C181.333 88.4759 185.603 92.7463 185.603 98.0142L185.603 98.4918L163.593 98.4918Z" fill="#F9C03E"/>
<path d="M170.596 93.2368C170.596 92.5822 171.004 91.9967 171.617 91.7692L172.456 91.4583C174.161 90.8261 176.036 90.8261 177.741 91.4583L178.579 91.7692C179.193 91.9967 179.6 92.5822 179.6 93.2368C179.6 94.3271 178.513 95.0834 177.491 94.7043L176.933 94.4974C175.749 94.0585 174.447 94.0585 173.264 94.4974L172.705 94.7043C171.683 95.0834 170.596 94.3271 170.596 93.2368Z" fill="#FDDA37"/>
<path d="M206.049 94.2062L206.049 94.2214V94.2365V94.2461C206.049 94.9641 206.049 96.7289 205.183 99.171C204.312 101.625 202.542 104.83 198.901 108.338L198.707 108.515L199.721 109.621L198.707 108.515C197.309 109.797 195.955 111.038 194.714 112.09C193.459 113.154 192.398 113.957 191.584 114.404C190.284 115.119 186.629 116.657 181.991 118.086C177.386 119.504 171.948 120.772 167.045 121.029C150.958 120.567 135.433 116.933 126.309 110.994C125.201 110.273 124.039 109.131 123.075 107.8C122.107 106.466 121.408 105.038 121.132 103.79C120.88 102.649 120.602 101.742 120.349 100.917C120.315 100.805 120.281 100.694 120.247 100.584C119.969 99.6716 119.722 98.8056 119.528 97.661C118.663 92.5428 118.147 83.8904 118.08 76.4724C118.07 75.4229 118.108 74.4302 118.247 73.4522C118.679 70.4272 120.036 63.4409 123.916 56.5C127.782 49.5835 134.114 42.7708 144.518 39.879C146.749 39.259 148.993 38.6629 151.23 38.137C157.602 36.6391 164.589 36.8113 166.911 37.0465L166.943 37.0497L166.975 37.0516C171.88 37.3356 182.352 39.0413 190.773 44.6525C196.531 48.4897 201.489 53.8649 203.415 61.2195C204.106 63.8593 204.681 66.5314 205.129 69.2201C205.732 72.8401 206.339 79.8865 206.049 94.2062Z" stroke="white" stroke-width="3"/>
<path d="M120.085 76.7525C120.165 83.7719 120.699 91.9418 121.608 96.9001C122.055 99.341 122.75 100.584 123.342 102.993C124.042 105.842 126.671 109.033 129.183 110.549C139.092 116.531 155.9 120.085 173.097 120.527C183.794 120.032 196.608 115.519 199.609 114.016C201.612 113.013 204.469 110.63 207.395 108.188L207.612 108.007C215.616 100.996 215.616 94.9862 215.616 93.4838C215.903 80.5464 215.201 73.8808 214.456 70.2655C213.847 67.3069 213.074 64.3809 212.186 61.4937C206.653 43.4943 181.913 37.8594 173.097 37.3948C170.489 37.1543 162.713 36.983 155.693 38.5596C153.603 39.0289 151.51 39.5376 149.429 40.0414C126.478 45.5953 121.339 66.8861 120.31 73.1875C120.117 74.3702 120.071 75.5542 120.085 76.7525Z" fill="#2BA6F0" fill-opacity="0.3"/>
<rect x="181.601" y="128.539" width="15.0065" height="10.0159" rx="5.00794" fill="#244982"/>
<ellipse cx="152.589" cy="55.4234" rx="9.00388" ry="9.0143" fill="white"/>
<path d="M150.088 135.55C150.088 141.362 145.383 146.069 139.583 146.069C133.783 146.069 129.078 141.362 129.078 135.55C129.078 129.739 133.783 125.031 139.583 125.031C145.383 125.031 150.088 129.739 150.088 135.55Z" fill="white" stroke="#244982" stroke-width="3"/>
<path d="M139.577 132.505C141.776 131.662 144.044 133.565 143.596 135.876L141.76 145.347C141.373 147.342 138.601 147.555 137.913 145.643L136.279 141.1C136.155 140.758 135.856 140.509 135.497 140.451L131.106 139.743C129.088 139.417 128.801 136.633 130.709 135.902L139.577 132.505Z" fill="#244982"/>
</svg>
