<svg width="127" height="22" viewBox="0 0 127 22" fill="none" xmlns="http://www.w3.org/2000/svg">
<path d="M6.30895 4.90909V13.9602C6.30256 15.0916 5.80398 15.6861 4.89631 15.6861C4.02699 15.6861 3.49645 15.13 3.46449 14.1136H0.31321C0.300426 16.9325 2.26918 18.179 4.71733 18.179C7.49148 18.179 9.42188 16.5107 9.42827 13.9602V4.90909H6.30895ZM23.7704 11.4545C23.7704 7.12713 21.0346 4.73011 17.519 4.73011C13.9906 4.73011 11.274 7.12713 11.274 11.4545C11.274 15.7628 13.9906 18.179 17.519 18.179C21.0346 18.179 23.7704 15.782 23.7704 11.4545ZM20.536 11.4545C20.536 14.0178 19.411 15.4048 17.519 15.4048C15.6333 15.4048 14.502 14.0178 14.502 11.4545C14.502 8.89134 15.6333 7.50426 17.519 7.50426C19.411 7.50426 20.536 8.89134 20.536 11.4545ZM25.6177 18H28.7818V13.5192H30.4054L32.796 18H36.2477L33.5311 13.0142C34.9693 12.3622 35.8002 11.0774 35.8002 9.26847C35.8002 6.57741 33.9657 4.90909 31.0254 4.90909H25.6177V18ZM28.7818 11.0263V7.45952H30.3414C31.7605 7.45952 32.5211 8.05398 32.5211 9.26847C32.5211 10.483 31.7605 11.0263 30.3414 11.0263H28.7818ZM42.3745 18C46.3631 18 48.8368 15.5391 48.8368 11.4482C48.8368 7.36364 46.3631 4.90909 42.3681 4.90909H37.5357V18H42.3745ZM40.6998 15.3026V7.60653H42.2083C44.4583 7.60653 45.6664 8.62926 45.6664 11.4482C45.6664 14.2798 44.4583 15.3026 42.253 15.3026H40.6998ZM52.7424 18L53.6053 15.2514H58.1245L58.9874 18H62.388L57.9711 4.90909H53.7587L49.3418 18H52.7424ZM54.3596 12.848L55.8105 8.20739H55.9128L57.3702 12.848H54.3596ZM74.9387 4.90909H71.7811V12.4517H71.6724L66.5204 4.90909H63.7974V18H66.9615V10.4446H67.0446L72.2541 18H74.9387V4.90909Z" fill="white"/>
<path d="M87.9915 9C87.5632 6.5902 85.5945 4.73011 82.8075 4.73011C79.5028 4.73011 77.1506 7.35724 77.1506 11.4545C77.1506 15.5518 79.5028 18.179 82.8075 18.179C85.5945 18.179 87.5632 16.3125 87.9915 13.9091H86.7898C86.4254 15.7053 84.8594 17.054 82.8075 17.054C80.3274 17.054 78.3075 15.0916 78.3075 11.4545C78.3075 7.83026 80.3274 5.85511 82.8075 5.85511C84.8594 5.85511 86.4254 7.21023 86.7898 9H87.9915ZM90.7992 18H98.2331V16.9261H91.9945V4.90909H90.7992V18ZM102.119 4.90909H100.924V18H102.119V4.90909ZM105.619 4.90909H104.366L109.128 18H110.407L115.169 4.90909H113.916L109.825 16.4467H109.71L105.619 4.90909ZM117.412 18H125.134V16.9261H118.608V11.9851H124.604V10.9112H118.608V5.98295H125.006V4.90909H117.412V18Z" fill="white"/>
</svg>
