<svg width="170" height="29" viewBox="0 0 170 29" fill="none" xmlns="http://www.w3.org/2000/svg">
<path d="M8.41193 5.54545V17.6136C8.40341 19.1222 7.73864 19.9148 6.52841 19.9148C5.36932 19.9148 4.66193 19.1733 4.61932 17.8182H0.417614C0.400568 21.5767 3.02557 23.2386 6.28977 23.2386C9.98864 23.2386 12.5625 21.0142 12.571 17.6136V5.54545H8.41193ZM31.6939 14.2727C31.6939 8.50284 28.0462 5.30682 23.3587 5.30682C18.6541 5.30682 15.032 8.50284 15.032 14.2727C15.032 20.017 18.6541 23.2386 23.3587 23.2386C28.0462 23.2386 31.6939 20.0426 31.6939 14.2727ZM27.3814 14.2727C27.3814 17.6903 25.8814 19.5398 23.3587 19.5398C20.8445 19.5398 19.3359 17.6903 19.3359 14.2727C19.3359 10.8551 20.8445 9.00568 23.3587 9.00568C25.8814 9.00568 27.3814 10.8551 27.3814 14.2727ZM34.157 23H38.3757V17.0256H40.5405L43.728 23H48.3303L44.7081 16.3523C46.6257 15.483 47.7337 13.7699 47.7337 11.358C47.7337 7.76989 45.2876 5.54545 41.3672 5.54545H34.157V23ZM38.3757 13.7017V8.94602H40.4553C42.3473 8.94602 43.3615 9.73864 43.3615 11.358C43.3615 12.9773 42.3473 13.7017 40.4553 13.7017H38.3757ZM56.4993 23C61.8175 23 65.1158 19.7188 65.1158 14.2642C65.1158 8.81818 61.8175 5.54545 56.4908 5.54545H50.0476V23H56.4993ZM54.2663 19.4034V9.14204H56.2777C59.2777 9.14204 60.8885 10.5057 60.8885 14.2642C60.8885 18.0398 59.2777 19.4034 56.3374 19.4034H54.2663ZM70.3232 23L71.4737 19.3352H77.4993L78.6499 23H83.1839L77.2947 5.54545H71.6783L65.7891 23H70.3232ZM72.4794 16.1307L74.4141 9.94318H74.5504L76.4936 16.1307H72.4794ZM99.9183 5.54545H95.7081V15.6023H95.5632L88.6939 5.54545H85.0632V23H89.282V12.9261H89.3928L96.3388 23H99.9183V5.54545Z" fill="white"/>
<path d="M117.989 11C117.418 7.78693 114.793 5.30682 111.077 5.30682C106.67 5.30682 103.534 8.80966 103.534 14.2727C103.534 19.7358 106.67 23.2386 111.077 23.2386C114.793 23.2386 117.418 20.75 117.989 17.5455H116.386C115.901 19.9403 113.812 21.7386 111.077 21.7386C107.77 21.7386 105.077 19.1222 105.077 14.2727C105.077 9.44034 107.77 6.80682 111.077 6.80682C113.812 6.80682 115.901 8.61364 116.386 11H117.989ZM121.732 23H131.644V21.5682H123.326V5.54545H121.732V23ZM136.826 5.54545H135.232V23H136.826V5.54545ZM141.492 5.54545H139.822L146.171 23H147.876L154.225 5.54545H152.555L147.1 20.929H146.947L141.492 5.54545ZM157.217 23H167.512V21.5682H158.81V14.9801H166.805V13.5483H158.81V6.97727H167.342V5.54545H157.217V23Z" fill="white"/>
</svg>
