<svg width="439" height="326" viewBox="0 0 439 326" fill="none" xmlns="http://www.w3.org/2000/svg">
<circle cx="218" cy="115" r="99.5" stroke="#CBD5E0"/>
<circle cx="266" cy="163" r="99.5" stroke="#CBD5E0"/>
<circle cx="218" cy="211" r="99.5" stroke="#CBD5E0"/>
<circle cx="170" cy="163" r="99.5" stroke="#CBD5E0"/>
<mask id="path-5-inside-1_9_1168" fill="white">
<path fill-rule="evenodd" clip-rule="evenodd" d="M260.256 205.256C267.107 192.704 271 178.307 271 163C271 147.693 267.107 133.296 260.256 120.744C247.704 113.893 233.307 110 218 110C202.693 110 188.296 113.893 175.744 120.744C168.893 133.296 165 147.693 165 163C165 178.307 168.893 192.704 175.744 205.256C188.296 212.107 202.693 216 218 216C233.307 216 247.704 212.107 260.256 205.256Z"/>
</mask>
<path fill-rule="evenodd" clip-rule="evenodd" d="M260.256 205.256C267.107 192.704 271 178.307 271 163C271 147.693 267.107 133.296 260.256 120.744C247.704 113.893 233.307 110 218 110C202.693 110 188.296 113.893 175.744 120.744C168.893 133.296 165 147.693 165 163C165 178.307 168.893 192.704 175.744 205.256C188.296 212.107 202.693 216 218 216C233.307 216 247.704 212.107 260.256 205.256Z" fill="#9F7AEA"/>
<path d="M260.256 205.256L260.735 206.134L260.993 205.993L261.134 205.735L260.256 205.256ZM260.256 120.744L261.134 120.265L260.993 120.007L260.735 119.866L260.256 120.744ZM175.744 120.744L175.265 119.866L175.007 120.007L174.866 120.265L175.744 120.744ZM175.744 205.256L174.866 205.735L175.007 205.993L175.265 206.134L175.744 205.256ZM270 163C270 178.135 266.151 192.369 259.378 204.777L261.134 205.735C268.063 193.04 272 178.478 272 163H270ZM259.379 121.223C266.151 133.631 270 147.865 270 163H272C272 147.522 268.063 132.96 261.134 120.265L259.379 121.223ZM218 111C233.135 111 247.369 114.849 259.777 121.622L260.735 119.866C248.04 112.937 233.478 109 218 109V111ZM176.223 121.622C188.631 114.849 202.865 111 218 111V109C202.522 109 187.96 112.937 175.265 119.866L176.223 121.622ZM166 163C166 147.865 169.849 133.631 176.622 121.223L174.866 120.265C167.937 132.96 164 147.522 164 163H166ZM176.622 204.777C169.849 192.369 166 178.135 166 163H164C164 178.478 167.937 193.04 174.866 205.735L176.622 204.777ZM218 215C202.865 215 188.631 211.151 176.223 204.379L175.265 206.134C187.96 213.063 202.522 217 218 217V215ZM259.777 204.378C247.369 211.151 233.135 215 218 215V217C233.478 217 248.04 213.063 260.735 206.134L259.777 204.378Z" fill="#CBD5E0" mask="url(#path-5-inside-1_9_1168)"/>
<path d="M200.472 156.364V168H198.011V156.364H200.472ZM204.643 165.489L204.649 162.585H205.001L207.797 159.273H210.575L206.82 163.659H206.246L204.643 165.489ZM202.45 168V156.364H204.871V168H202.45ZM207.905 168L205.337 164.199L206.95 162.489L210.74 168H207.905ZM211.763 168V159.273H214.183V168H211.763ZM212.979 158.148C212.619 158.148 212.31 158.028 212.053 157.79C211.799 157.547 211.672 157.258 211.672 156.92C211.672 156.587 211.799 156.301 212.053 156.062C212.31 155.82 212.619 155.699 212.979 155.699C213.339 155.699 213.645 155.82 213.899 156.062C214.157 156.301 214.286 156.587 214.286 156.92C214.286 157.258 214.157 157.547 213.899 157.79C213.645 158.028 213.339 158.148 212.979 158.148ZM220.054 171.455C219.27 171.455 218.598 171.347 218.037 171.131C217.48 170.919 217.037 170.629 216.707 170.261C216.378 169.894 216.164 169.481 216.065 169.023L218.304 168.722C218.372 168.896 218.48 169.059 218.628 169.21C218.776 169.362 218.971 169.483 219.213 169.574C219.459 169.669 219.759 169.716 220.111 169.716C220.637 169.716 221.071 169.587 221.412 169.33C221.757 169.076 221.929 168.65 221.929 168.051V166.455H221.827C221.721 166.697 221.562 166.926 221.349 167.142C221.137 167.358 220.865 167.534 220.531 167.67C220.198 167.807 219.8 167.875 219.338 167.875C218.683 167.875 218.086 167.723 217.548 167.42C217.014 167.114 216.588 166.646 216.27 166.017C215.955 165.384 215.798 164.585 215.798 163.619C215.798 162.631 215.959 161.805 216.281 161.142C216.603 160.479 217.031 159.983 217.565 159.653C218.103 159.324 218.692 159.159 219.332 159.159C219.821 159.159 220.23 159.242 220.56 159.409C220.889 159.572 221.154 159.777 221.355 160.023C221.56 160.265 221.717 160.504 221.827 160.739H221.918V159.273H224.321V168.085C224.321 168.828 224.139 169.449 223.776 169.949C223.412 170.449 222.908 170.824 222.264 171.074C221.624 171.328 220.887 171.455 220.054 171.455ZM220.105 166.057C220.495 166.057 220.825 165.96 221.094 165.767C221.366 165.57 221.575 165.29 221.719 164.926C221.866 164.559 221.94 164.119 221.94 163.608C221.94 163.097 221.868 162.653 221.724 162.278C221.58 161.9 221.372 161.606 221.099 161.398C220.827 161.189 220.495 161.085 220.105 161.085C219.707 161.085 219.372 161.193 219.099 161.409C218.827 161.621 218.62 161.917 218.48 162.295C218.34 162.674 218.27 163.112 218.27 163.608C218.27 164.112 218.34 164.547 218.48 164.915C218.624 165.278 218.83 165.561 219.099 165.761C219.372 165.958 219.707 166.057 220.105 166.057ZM228.736 168.165C228.179 168.165 227.683 168.068 227.247 167.875C226.812 167.678 226.467 167.388 226.213 167.006C225.963 166.619 225.838 166.138 225.838 165.562C225.838 165.078 225.927 164.67 226.105 164.341C226.283 164.011 226.526 163.746 226.832 163.545C227.139 163.345 227.488 163.193 227.878 163.091C228.272 162.989 228.685 162.917 229.116 162.875C229.624 162.822 230.033 162.773 230.344 162.727C230.654 162.678 230.88 162.606 231.02 162.511C231.16 162.417 231.23 162.277 231.23 162.091V162.057C231.23 161.697 231.116 161.419 230.889 161.222C230.666 161.025 230.348 160.926 229.935 160.926C229.499 160.926 229.152 161.023 228.895 161.216C228.637 161.405 228.467 161.644 228.384 161.932L226.145 161.75C226.259 161.22 226.482 160.761 226.815 160.375C227.149 159.985 227.579 159.686 228.105 159.477C228.635 159.265 229.249 159.159 229.946 159.159C230.431 159.159 230.895 159.216 231.338 159.33C231.785 159.443 232.181 159.619 232.526 159.858C232.874 160.097 233.149 160.403 233.349 160.778C233.55 161.15 233.651 161.595 233.651 162.114V168H231.355V166.79H231.287C231.147 167.062 230.959 167.303 230.724 167.511C230.49 167.716 230.207 167.877 229.878 167.994C229.548 168.108 229.168 168.165 228.736 168.165ZM229.429 166.494C229.785 166.494 230.099 166.424 230.372 166.284C230.645 166.14 230.859 165.947 231.014 165.705C231.17 165.462 231.247 165.187 231.247 164.881V163.955C231.171 164.004 231.067 164.049 230.935 164.091C230.806 164.129 230.66 164.165 230.497 164.199C230.334 164.229 230.171 164.258 230.009 164.284C229.846 164.307 229.698 164.328 229.565 164.347C229.281 164.388 229.033 164.455 228.821 164.545C228.609 164.636 228.444 164.759 228.327 164.915C228.209 165.066 228.151 165.256 228.151 165.483C228.151 165.812 228.27 166.064 228.509 166.239C228.751 166.409 229.058 166.494 229.429 166.494ZM235.528 168V159.273H237.949V168H235.528ZM236.744 158.148C236.384 158.148 236.076 158.028 235.818 157.79C235.564 157.547 235.438 157.258 235.438 156.92C235.438 156.587 235.564 156.301 235.818 156.062C236.076 155.82 236.384 155.699 236.744 155.699C237.104 155.699 237.411 155.82 237.665 156.062C237.922 156.301 238.051 156.587 238.051 156.92C238.051 157.258 237.922 157.547 237.665 157.79C237.411 158.028 237.104 158.148 236.744 158.148Z" fill="white"/>
<path d="M163.669 12L161.283 3.27273H162.357L164.181 10.3807H164.266L166.124 3.27273H167.317L169.175 10.3807H169.26L171.084 3.27273H172.158L169.772 12H168.681L166.755 5.04545H166.686L164.76 12H163.669ZM174.344 8.0625V12H173.338V3.27273H174.344V6.47727H174.429C174.583 6.1392 174.813 5.87074 175.12 5.67188C175.429 5.47017 175.841 5.36932 176.355 5.36932C176.801 5.36932 177.192 5.45881 177.527 5.63778C177.863 5.81392 178.123 6.08523 178.307 6.4517C178.495 6.81534 178.588 7.27841 178.588 7.84091V12H177.583V7.90909C177.583 7.3892 177.448 6.98722 177.178 6.70312C176.911 6.41619 176.54 6.27273 176.066 6.27273C175.736 6.27273 175.441 6.34233 175.179 6.48153C174.921 6.62074 174.716 6.82386 174.566 7.09091C174.418 7.35795 174.344 7.68182 174.344 8.0625ZM182.354 12.1534C181.94 12.1534 181.563 12.0753 181.225 11.919C180.887 11.7599 180.619 11.5312 180.42 11.233C180.221 10.9318 180.121 10.5682 180.121 10.142C180.121 9.76705 180.195 9.46307 180.343 9.23011C180.491 8.99432 180.688 8.80966 180.935 8.67614C181.183 8.54261 181.455 8.44318 181.754 8.37784C182.055 8.30966 182.357 8.25568 182.661 8.21591C183.059 8.16477 183.381 8.12642 183.629 8.10085C183.879 8.07244 184.06 8.02557 184.174 7.96023C184.29 7.89489 184.349 7.78125 184.349 7.61932V7.58523C184.349 7.16477 184.234 6.83807 184.004 6.60511C183.776 6.37216 183.431 6.25568 182.968 6.25568C182.488 6.25568 182.112 6.3608 181.839 6.57102C181.566 6.78125 181.374 7.00568 181.263 7.24432L180.309 6.90341C180.479 6.50568 180.707 6.19602 180.991 5.97443C181.278 5.75 181.59 5.59375 181.928 5.50568C182.269 5.41477 182.604 5.36932 182.934 5.36932C183.144 5.36932 183.386 5.39489 183.658 5.44602C183.934 5.49432 184.2 5.59517 184.455 5.74858C184.714 5.90199 184.928 6.13352 185.099 6.44318C185.269 6.75284 185.354 7.16761 185.354 7.6875V12H184.349V11.1136H184.298C184.229 11.2557 184.116 11.4077 183.957 11.5696C183.798 11.7315 183.586 11.8693 183.322 11.983C183.058 12.0966 182.735 12.1534 182.354 12.1534ZM182.508 11.25C182.906 11.25 183.241 11.1719 183.513 11.0156C183.789 10.8594 183.996 10.6577 184.136 10.4105C184.278 10.1634 184.349 9.90341 184.349 9.63068V8.71023C184.306 8.76136 184.212 8.80824 184.067 8.85085C183.925 8.89062 183.761 8.92614 183.573 8.95739C183.388 8.9858 183.208 9.01136 183.032 9.03409C182.859 9.05398 182.718 9.07102 182.61 9.08523C182.349 9.11932 182.104 9.17472 181.877 9.25142C181.653 9.32528 181.471 9.4375 181.332 9.58807C181.195 9.7358 181.127 9.9375 181.127 10.1932C181.127 10.5426 181.256 10.8068 181.515 10.9858C181.776 11.1619 182.107 11.25 182.508 11.25ZM190.037 5.45455V6.30682H186.645V5.45455H190.037ZM187.633 3.88636H188.639V10.125C188.639 10.4091 188.68 10.6222 188.762 10.7642C188.848 10.9034 188.956 10.9972 189.086 11.0455C189.22 11.0909 189.36 11.1136 189.508 11.1136C189.619 11.1136 189.71 11.108 189.781 11.0966C189.852 11.0824 189.909 11.071 189.951 11.0625L190.156 11.9659C190.088 11.9915 189.993 12.017 189.87 12.0426C189.748 12.071 189.593 12.0852 189.406 12.0852C189.122 12.0852 188.843 12.0241 188.571 11.902C188.301 11.7798 188.076 11.5938 187.897 11.3438C187.721 11.0938 187.633 10.7784 187.633 10.3977V3.88636ZM195.572 14.4545C195.402 14.4545 195.25 14.4403 195.116 14.4119C194.983 14.3864 194.89 14.3608 194.839 14.3352L195.095 13.4489C195.339 13.5114 195.555 13.5341 195.743 13.517C195.93 13.5 196.096 13.4162 196.241 13.2656C196.389 13.1179 196.524 12.8778 196.646 12.5455L196.833 12.0341L194.413 5.45455H195.504L197.311 10.6705H197.379L199.186 5.45455H200.277L197.498 12.9545C197.373 13.2926 197.218 13.5724 197.034 13.794C196.849 14.0185 196.635 14.1847 196.39 14.2926C196.149 14.4006 195.876 14.4545 195.572 14.4545ZM204.029 12.1364C203.438 12.1364 202.919 11.9957 202.473 11.7145C202.03 11.4332 201.684 11.0398 201.434 10.5341C201.186 10.0284 201.063 9.4375 201.063 8.76136C201.063 8.07955 201.186 7.48437 201.434 6.97585C201.684 6.46733 202.03 6.07244 202.473 5.79119C202.919 5.50994 203.438 5.36932 204.029 5.36932C204.62 5.36932 205.137 5.50994 205.58 5.79119C206.026 6.07244 206.373 6.46733 206.62 6.97585C206.87 7.48437 206.995 8.07955 206.995 8.76136C206.995 9.4375 206.87 10.0284 206.62 10.5341C206.373 11.0398 206.026 11.4332 205.58 11.7145C205.137 11.9957 204.62 12.1364 204.029 12.1364ZM204.029 11.233C204.478 11.233 204.847 11.1179 205.137 10.8878C205.426 10.6577 205.641 10.3551 205.78 9.98011C205.919 9.60511 205.989 9.19886 205.989 8.76136C205.989 8.32386 205.919 7.91619 205.78 7.53835C205.641 7.16051 205.426 6.85511 205.137 6.62216C204.847 6.3892 204.478 6.27273 204.029 6.27273C203.58 6.27273 203.211 6.3892 202.921 6.62216C202.631 6.85511 202.417 7.16051 202.277 7.53835C202.138 7.91619 202.069 8.32386 202.069 8.76136C202.069 9.19886 202.138 9.60511 202.277 9.98011C202.417 10.3551 202.631 10.6577 202.921 10.8878C203.211 11.1179 203.58 11.233 204.029 11.233ZM212.655 9.32386V5.45455H213.661V12H212.655V10.892H212.587C212.433 11.2244 212.195 11.5071 211.871 11.7401C211.547 11.9702 211.138 12.0852 210.643 12.0852C210.234 12.0852 209.871 11.9957 209.553 11.8168C209.234 11.6349 208.984 11.3622 208.803 10.9986C208.621 10.6321 208.53 10.1705 208.53 9.61364V5.45455H209.536V9.54545C209.536 10.0227 209.669 10.4034 209.936 10.6875C210.206 10.9716 210.55 11.1136 210.967 11.1136C211.217 11.1136 211.472 11.0497 211.73 10.9219C211.991 10.794 212.21 10.598 212.386 10.3338C212.565 10.0696 212.655 9.73295 212.655 9.32386ZM219.883 3.27273V12H218.877V3.27273H219.883ZM224.384 12.1364C223.793 12.1364 223.275 11.9957 222.829 11.7145C222.386 11.4332 222.039 11.0398 221.789 10.5341C221.542 10.0284 221.418 9.4375 221.418 8.76136C221.418 8.07955 221.542 7.48437 221.789 6.97585C222.039 6.46733 222.386 6.07244 222.829 5.79119C223.275 5.50994 223.793 5.36932 224.384 5.36932C224.975 5.36932 225.492 5.50994 225.935 5.79119C226.381 6.07244 226.728 6.46733 226.975 6.97585C227.225 7.48437 227.35 8.07955 227.35 8.76136C227.35 9.4375 227.225 10.0284 226.975 10.5341C226.728 11.0398 226.381 11.4332 225.935 11.7145C225.492 11.9957 224.975 12.1364 224.384 12.1364ZM224.384 11.233C224.833 11.233 225.202 11.1179 225.492 10.8878C225.782 10.6577 225.996 10.3551 226.136 9.98011C226.275 9.60511 226.344 9.19886 226.344 8.76136C226.344 8.32386 226.275 7.91619 226.136 7.53835C225.996 7.16051 225.782 6.85511 225.492 6.62216C225.202 6.3892 224.833 6.27273 224.384 6.27273C223.935 6.27273 223.566 6.3892 223.276 6.62216C222.987 6.85511 222.772 7.16051 222.633 7.53835C222.494 7.91619 222.424 8.32386 222.424 8.76136C222.424 9.19886 222.494 9.60511 222.633 9.98011C222.772 10.3551 222.987 10.6577 223.276 10.8878C223.566 11.1179 223.935 11.233 224.384 11.233ZM234.003 5.45455L231.583 12H230.56L228.14 5.45455H229.23L231.037 10.6705H231.105L232.912 5.45455H234.003ZM237.841 12.1364C237.21 12.1364 236.666 11.9972 236.208 11.7188C235.754 11.4375 235.403 11.0455 235.156 10.5426C234.912 10.0369 234.789 9.44886 234.789 8.77841C234.789 8.10795 234.912 7.51705 235.156 7.00568C235.403 6.49148 235.747 6.09091 236.187 5.80398C236.63 5.5142 237.147 5.36932 237.738 5.36932C238.079 5.36932 238.416 5.42614 238.748 5.53977C239.081 5.65341 239.383 5.83807 239.656 6.09375C239.929 6.34659 240.146 6.68182 240.308 7.09943C240.47 7.51705 240.551 8.03125 240.551 8.64205V9.06818H235.505V8.19886H239.528C239.528 7.82955 239.454 7.5 239.306 7.21023C239.162 6.92045 238.954 6.69176 238.684 6.52415C238.417 6.35653 238.102 6.27273 237.738 6.27273C237.338 6.27273 236.991 6.37216 236.699 6.57102C236.409 6.76705 236.186 7.02273 236.029 7.33807C235.873 7.65341 235.795 7.99148 235.795 8.35227V8.93182C235.795 9.42614 235.88 9.84517 236.051 10.1889C236.224 10.5298 236.464 10.7898 236.771 10.9688C237.078 11.1449 237.434 11.233 237.841 11.233C238.105 11.233 238.343 11.196 238.556 11.1222C238.772 11.0455 238.958 10.9318 239.115 10.7812C239.271 10.6278 239.392 10.4375 239.477 10.2102L240.449 10.483C240.346 10.8125 240.174 11.1023 239.933 11.3523C239.691 11.5994 239.393 11.7926 239.038 11.9318C238.683 12.0682 238.284 12.1364 237.841 12.1364ZM248.302 5.45455V6.30682H244.91V5.45455H248.302ZM245.899 3.88636H246.904V10.125C246.904 10.4091 246.946 10.6222 247.028 10.7642C247.113 10.9034 247.221 10.9972 247.352 11.0455C247.485 11.0909 247.626 11.1136 247.774 11.1136C247.885 11.1136 247.975 11.108 248.047 11.0966C248.118 11.0824 248.174 11.071 248.217 11.0625L248.422 11.9659C248.353 11.9915 248.258 12.017 248.136 12.0426C248.014 12.071 247.859 12.0852 247.672 12.0852C247.387 12.0852 247.109 12.0241 246.836 11.902C246.566 11.7798 246.342 11.5938 246.163 11.3438C245.987 11.0938 245.899 10.7784 245.899 10.3977V3.88636ZM252.404 12.1364C251.813 12.1364 251.294 11.9957 250.848 11.7145C250.405 11.4332 250.059 11.0398 249.809 10.5341C249.561 10.0284 249.438 9.4375 249.438 8.76136C249.438 8.07955 249.561 7.48437 249.809 6.97585C250.059 6.46733 250.405 6.07244 250.848 5.79119C251.294 5.50994 251.813 5.36932 252.404 5.36932C252.995 5.36932 253.512 5.50994 253.955 5.79119C254.401 6.07244 254.748 6.46733 254.995 6.97585C255.245 7.48437 255.37 8.07955 255.37 8.76136C255.37 9.4375 255.245 10.0284 254.995 10.5341C254.748 11.0398 254.401 11.4332 253.955 11.7145C253.512 11.9957 252.995 12.1364 252.404 12.1364ZM252.404 11.233C252.853 11.233 253.222 11.1179 253.512 10.8878C253.801 10.6577 254.016 10.3551 254.155 9.98011C254.294 9.60511 254.364 9.19886 254.364 8.76136C254.364 8.32386 254.294 7.91619 254.155 7.53835C254.016 7.16051 253.801 6.85511 253.512 6.62216C253.222 6.3892 252.853 6.27273 252.404 6.27273C251.955 6.27273 251.586 6.3892 251.296 6.62216C251.006 6.85511 250.792 7.16051 250.652 7.53835C250.513 7.91619 250.444 8.32386 250.444 8.76136C250.444 9.19886 250.513 9.60511 250.652 9.98011C250.792 10.3551 251.006 10.6577 251.296 10.8878C251.586 11.1179 251.955 11.233 252.404 11.233ZM262.751 12.1364C262.206 12.1364 261.724 11.9986 261.307 11.723C260.889 11.4446 260.563 11.0526 260.327 10.5469C260.091 10.0384 259.973 9.4375 259.973 8.74432C259.973 8.05682 260.091 7.46023 260.327 6.95455C260.563 6.44886 260.891 6.05824 261.311 5.78267C261.732 5.5071 262.217 5.36932 262.768 5.36932C263.195 5.36932 263.531 5.44034 263.778 5.58239C264.028 5.72159 264.219 5.88068 264.349 6.05966C264.483 6.2358 264.587 6.38068 264.661 6.49432H264.746V3.27273H265.751V12H264.78V10.9943H264.661C264.587 11.1136 264.482 11.2642 264.345 11.446C264.209 11.625 264.014 11.7855 263.761 11.9276C263.509 12.0668 263.172 12.1364 262.751 12.1364ZM262.888 11.233C263.291 11.233 263.632 11.1278 263.911 10.9176C264.189 10.7045 264.401 10.4105 264.545 10.0355C264.69 9.65767 264.763 9.22159 264.763 8.72727C264.763 8.23864 264.692 7.81108 264.55 7.4446C264.408 7.07528 264.197 6.78835 263.919 6.58381C263.641 6.37642 263.297 6.27273 262.888 6.27273C262.462 6.27273 262.107 6.3821 261.822 6.60085C261.541 6.81676 261.33 7.1108 261.188 7.48295C261.048 7.85227 260.979 8.26705 260.979 8.72727C260.979 9.19318 261.05 9.61648 261.192 9.99716C261.337 10.375 261.55 10.6761 261.831 10.9006C262.115 11.1222 262.467 11.233 262.888 11.233ZM270.392 12.1364C269.801 12.1364 269.283 11.9957 268.837 11.7145C268.393 11.4332 268.047 11.0398 267.797 10.5341C267.55 10.0284 267.426 9.4375 267.426 8.76136C267.426 8.07955 267.55 7.48437 267.797 6.97585C268.047 6.46733 268.393 6.07244 268.837 5.79119C269.283 5.50994 269.801 5.36932 270.392 5.36932C270.983 5.36932 271.5 5.50994 271.943 5.79119C272.389 6.07244 272.736 6.46733 272.983 6.97585C273.233 7.48437 273.358 8.07955 273.358 8.76136C273.358 9.4375 273.233 10.0284 272.983 10.5341C272.736 11.0398 272.389 11.4332 271.943 11.7145C271.5 11.9957 270.983 12.1364 270.392 12.1364ZM270.392 11.233C270.841 11.233 271.21 11.1179 271.5 10.8878C271.79 10.6577 272.004 10.3551 272.143 9.98011C272.283 9.60511 272.352 9.19886 272.352 8.76136C272.352 8.32386 272.283 7.91619 272.143 7.53835C272.004 7.16051 271.79 6.85511 271.5 6.62216C271.21 6.3892 270.841 6.27273 270.392 6.27273C269.943 6.27273 269.574 6.3892 269.284 6.62216C268.994 6.85511 268.78 7.16051 268.641 7.53835C268.501 7.91619 268.432 8.32386 268.432 8.76136C268.432 9.19886 268.501 9.60511 268.641 9.98011C268.78 10.3551 268.994 10.6577 269.284 10.8878C269.574 11.1179 269.943 11.233 270.392 11.233Z" fill="white"/>
<path d="M149.126 323L146.74 314.273H147.814L149.638 321.381H149.723L151.581 314.273H152.774L154.632 321.381H154.717L156.541 314.273H157.615L155.229 323H154.138L152.212 316.045H152.143L150.217 323H149.126ZM159.801 319.062V323H158.795V314.273H159.801V317.477H159.886C160.04 317.139 160.27 316.871 160.577 316.672C160.886 316.47 161.298 316.369 161.812 316.369C162.259 316.369 162.649 316.459 162.984 316.638C163.32 316.814 163.58 317.085 163.764 317.452C163.952 317.815 164.045 318.278 164.045 318.841V323H163.04V318.909C163.04 318.389 162.905 317.987 162.635 317.703C162.368 317.416 161.997 317.273 161.523 317.273C161.193 317.273 160.898 317.342 160.636 317.482C160.378 317.621 160.173 317.824 160.023 318.091C159.875 318.358 159.801 318.682 159.801 319.062ZM167.811 323.153C167.397 323.153 167.02 323.075 166.682 322.919C166.344 322.76 166.076 322.531 165.877 322.233C165.678 321.932 165.578 321.568 165.578 321.142C165.578 320.767 165.652 320.463 165.8 320.23C165.948 319.994 166.145 319.81 166.392 319.676C166.64 319.543 166.912 319.443 167.211 319.378C167.512 319.31 167.814 319.256 168.118 319.216C168.516 319.165 168.838 319.126 169.086 319.101C169.336 319.072 169.517 319.026 169.631 318.96C169.748 318.895 169.806 318.781 169.806 318.619V318.585C169.806 318.165 169.691 317.838 169.461 317.605C169.233 317.372 168.888 317.256 168.425 317.256C167.945 317.256 167.569 317.361 167.296 317.571C167.023 317.781 166.831 318.006 166.721 318.244L165.766 317.903C165.936 317.506 166.164 317.196 166.448 316.974C166.735 316.75 167.047 316.594 167.385 316.506C167.726 316.415 168.061 316.369 168.391 316.369C168.601 316.369 168.843 316.395 169.115 316.446C169.391 316.494 169.657 316.595 169.912 316.749C170.171 316.902 170.385 317.134 170.556 317.443C170.726 317.753 170.811 318.168 170.811 318.688V323H169.806V322.114H169.755C169.686 322.256 169.573 322.408 169.414 322.57C169.255 322.732 169.043 322.869 168.779 322.983C168.515 323.097 168.192 323.153 167.811 323.153ZM167.965 322.25C168.363 322.25 168.698 322.172 168.971 322.016C169.246 321.859 169.453 321.658 169.593 321.411C169.735 321.163 169.806 320.903 169.806 320.631V319.71C169.763 319.761 169.669 319.808 169.525 319.851C169.382 319.891 169.218 319.926 169.03 319.957C168.846 319.986 168.665 320.011 168.489 320.034C168.316 320.054 168.175 320.071 168.067 320.085C167.806 320.119 167.561 320.175 167.334 320.251C167.11 320.325 166.928 320.437 166.789 320.588C166.652 320.736 166.584 320.937 166.584 321.193C166.584 321.543 166.713 321.807 166.972 321.986C167.233 322.162 167.564 322.25 167.965 322.25ZM175.494 316.455V317.307H172.102V316.455H175.494ZM173.09 314.886H174.096V321.125C174.096 321.409 174.137 321.622 174.219 321.764C174.305 321.903 174.413 321.997 174.543 322.045C174.677 322.091 174.817 322.114 174.965 322.114C175.076 322.114 175.167 322.108 175.238 322.097C175.309 322.082 175.366 322.071 175.408 322.062L175.613 322.966C175.545 322.991 175.45 323.017 175.327 323.043C175.205 323.071 175.05 323.085 174.863 323.085C174.579 323.085 174.3 323.024 174.028 322.902C173.758 322.78 173.533 322.594 173.354 322.344C173.178 322.094 173.09 321.778 173.09 321.398V314.886ZM181.029 325.455C180.859 325.455 180.707 325.44 180.573 325.412C180.44 325.386 180.347 325.361 180.296 325.335L180.552 324.449C180.796 324.511 181.012 324.534 181.2 324.517C181.387 324.5 181.553 324.416 181.698 324.266C181.846 324.118 181.981 323.878 182.103 323.545L182.29 323.034L179.87 316.455H180.961L182.768 321.67H182.836L184.643 316.455H185.734L182.955 323.955C182.83 324.293 182.675 324.572 182.491 324.794C182.306 325.018 182.092 325.185 181.847 325.293C181.606 325.401 181.333 325.455 181.029 325.455ZM189.486 323.136C188.895 323.136 188.376 322.996 187.93 322.714C187.487 322.433 187.141 322.04 186.891 321.534C186.643 321.028 186.52 320.437 186.52 319.761C186.52 319.08 186.643 318.484 186.891 317.976C187.141 317.467 187.487 317.072 187.93 316.791C188.376 316.51 188.895 316.369 189.486 316.369C190.077 316.369 190.594 316.51 191.037 316.791C191.483 317.072 191.83 317.467 192.077 317.976C192.327 318.484 192.452 319.08 192.452 319.761C192.452 320.437 192.327 321.028 192.077 321.534C191.83 322.04 191.483 322.433 191.037 322.714C190.594 322.996 190.077 323.136 189.486 323.136ZM189.486 322.233C189.935 322.233 190.304 322.118 190.594 321.888C190.884 321.658 191.098 321.355 191.237 320.98C191.376 320.605 191.446 320.199 191.446 319.761C191.446 319.324 191.376 318.916 191.237 318.538C191.098 318.161 190.884 317.855 190.594 317.622C190.304 317.389 189.935 317.273 189.486 317.273C189.037 317.273 188.668 317.389 188.378 317.622C188.088 317.855 187.874 318.161 187.734 318.538C187.595 318.916 187.526 319.324 187.526 319.761C187.526 320.199 187.595 320.605 187.734 320.98C187.874 321.355 188.088 321.658 188.378 321.888C188.668 322.118 189.037 322.233 189.486 322.233ZM198.112 320.324V316.455H199.118V323H198.112V321.892H198.044C197.89 322.224 197.652 322.507 197.328 322.74C197.004 322.97 196.595 323.085 196.1 323.085C195.691 323.085 195.328 322.996 195.01 322.817C194.691 322.635 194.441 322.362 194.26 321.999C194.078 321.632 193.987 321.17 193.987 320.614V316.455H194.993V320.545C194.993 321.023 195.126 321.403 195.393 321.688C195.663 321.972 196.007 322.114 196.424 322.114C196.674 322.114 196.929 322.05 197.187 321.922C197.449 321.794 197.667 321.598 197.843 321.334C198.022 321.07 198.112 320.733 198.112 320.324ZM206.994 323.136C206.38 323.136 205.852 322.991 205.408 322.702C204.965 322.412 204.624 322.013 204.386 321.504C204.147 320.996 204.028 320.415 204.028 319.761C204.028 319.097 204.15 318.51 204.394 318.001C204.641 317.49 204.985 317.091 205.425 316.804C205.869 316.514 206.386 316.369 206.977 316.369C207.437 316.369 207.852 316.455 208.221 316.625C208.59 316.795 208.893 317.034 209.129 317.341C209.364 317.648 209.511 318.006 209.567 318.415H208.562C208.485 318.116 208.315 317.852 208.05 317.622C207.789 317.389 207.437 317.273 206.994 317.273C206.602 317.273 206.258 317.375 205.962 317.58C205.67 317.781 205.441 318.067 205.276 318.436C205.114 318.803 205.033 319.233 205.033 319.727C205.033 320.233 205.113 320.673 205.272 321.048C205.434 321.423 205.661 321.714 205.954 321.922C206.249 322.129 206.596 322.233 206.994 322.233C207.255 322.233 207.492 322.188 207.705 322.097C207.918 322.006 208.099 321.875 208.246 321.705C208.394 321.534 208.499 321.33 208.562 321.091H209.567C209.511 321.477 209.37 321.825 209.146 322.135C208.924 322.442 208.63 322.686 208.263 322.868C207.9 323.047 207.477 323.136 206.994 323.136ZM212.964 323.153C212.549 323.153 212.173 323.075 211.835 322.919C211.496 322.76 211.228 322.531 211.029 322.233C210.83 321.932 210.731 321.568 210.731 321.142C210.731 320.767 210.805 320.463 210.952 320.23C211.1 319.994 211.298 319.81 211.545 319.676C211.792 319.543 212.065 319.443 212.363 319.378C212.664 319.31 212.967 319.256 213.271 319.216C213.668 319.165 213.991 319.126 214.238 319.101C214.488 319.072 214.67 319.026 214.783 318.96C214.9 318.895 214.958 318.781 214.958 318.619V318.585C214.958 318.165 214.843 317.838 214.613 317.605C214.386 317.372 214.04 317.256 213.577 317.256C213.097 317.256 212.721 317.361 212.448 317.571C212.175 317.781 211.984 318.006 211.873 318.244L210.918 317.903C211.089 317.506 211.316 317.196 211.6 316.974C211.887 316.75 212.2 316.594 212.538 316.506C212.879 316.415 213.214 316.369 213.543 316.369C213.754 316.369 213.995 316.395 214.268 316.446C214.543 316.494 214.809 316.595 215.065 316.749C215.323 316.902 215.538 317.134 215.708 317.443C215.879 317.753 215.964 318.168 215.964 318.688V323H214.958V322.114H214.907C214.839 322.256 214.725 322.408 214.566 322.57C214.407 322.732 214.195 322.869 213.931 322.983C213.667 323.097 213.344 323.153 212.964 323.153ZM213.117 322.25C213.515 322.25 213.85 322.172 214.123 322.016C214.398 321.859 214.606 321.658 214.745 321.411C214.887 321.163 214.958 320.903 214.958 320.631V319.71C214.915 319.761 214.822 319.808 214.677 319.851C214.535 319.891 214.37 319.926 214.183 319.957C213.998 319.986 213.817 320.011 213.641 320.034C213.468 320.054 213.327 320.071 213.219 320.085C212.958 320.119 212.714 320.175 212.487 320.251C212.262 320.325 212.08 320.437 211.941 320.588C211.805 320.736 211.737 320.937 211.737 321.193C211.737 321.543 211.866 321.807 212.124 321.986C212.386 322.162 212.717 322.25 213.117 322.25ZM218.805 319.062V323H217.799V316.455H218.771V317.477H218.856C219.01 317.145 219.243 316.878 219.555 316.676C219.868 316.472 220.271 316.369 220.765 316.369C221.208 316.369 221.596 316.46 221.929 316.642C222.261 316.821 222.52 317.094 222.704 317.46C222.889 317.824 222.981 318.284 222.981 318.841V323H221.975V318.909C221.975 318.395 221.842 317.994 221.575 317.707C221.308 317.418 220.941 317.273 220.475 317.273C220.154 317.273 219.868 317.342 219.615 317.482C219.365 317.621 219.167 317.824 219.022 318.091C218.877 318.358 218.805 318.682 218.805 319.062ZM228.33 323V314.273H229.336V317.494H229.421C229.495 317.381 229.597 317.236 229.728 317.06C229.862 316.881 230.052 316.722 230.299 316.582C230.549 316.44 230.887 316.369 231.313 316.369C231.864 316.369 232.35 316.507 232.771 316.783C233.191 317.058 233.519 317.449 233.755 317.955C233.991 318.46 234.109 319.057 234.109 319.744C234.109 320.438 233.991 321.038 233.755 321.547C233.519 322.053 233.192 322.445 232.775 322.723C232.357 322.999 231.876 323.136 231.33 323.136C230.91 323.136 230.573 323.067 230.32 322.928C230.067 322.786 229.873 322.625 229.737 322.446C229.6 322.264 229.495 322.114 229.421 321.994H229.302V323H228.33ZM229.319 319.727C229.319 320.222 229.391 320.658 229.536 321.036C229.681 321.411 229.893 321.705 230.171 321.918C230.45 322.128 230.79 322.233 231.194 322.233C231.614 322.233 231.965 322.122 232.246 321.901C232.531 321.676 232.744 321.375 232.886 320.997C233.031 320.616 233.103 320.193 233.103 319.727C233.103 319.267 233.032 318.852 232.89 318.483C232.751 318.111 232.539 317.817 232.255 317.601C231.974 317.382 231.62 317.273 231.194 317.273C230.785 317.273 230.441 317.376 230.163 317.584C229.884 317.788 229.674 318.075 229.532 318.445C229.39 318.811 229.319 319.239 229.319 319.727ZM238.391 323.136C237.761 323.136 237.217 322.997 236.759 322.719C236.305 322.438 235.954 322.045 235.707 321.543C235.462 321.037 235.34 320.449 235.34 319.778C235.34 319.108 235.462 318.517 235.707 318.006C235.954 317.491 236.298 317.091 236.738 316.804C237.181 316.514 237.698 316.369 238.289 316.369C238.63 316.369 238.967 316.426 239.299 316.54C239.631 316.653 239.934 316.838 240.207 317.094C240.479 317.347 240.697 317.682 240.859 318.099C241.021 318.517 241.102 319.031 241.102 319.642V320.068H236.056V319.199H240.079C240.079 318.83 240.005 318.5 239.857 318.21C239.712 317.92 239.505 317.692 239.235 317.524C238.968 317.357 238.653 317.273 238.289 317.273C237.888 317.273 237.542 317.372 237.249 317.571C236.96 317.767 236.737 318.023 236.58 318.338C236.424 318.653 236.346 318.991 236.346 319.352V319.932C236.346 320.426 236.431 320.845 236.602 321.189C236.775 321.53 237.015 321.79 237.322 321.969C237.629 322.145 237.985 322.233 238.391 322.233C238.656 322.233 238.894 322.196 239.107 322.122C239.323 322.045 239.509 321.932 239.665 321.781C239.822 321.628 239.942 321.437 240.028 321.21L240.999 321.483C240.897 321.812 240.725 322.102 240.484 322.352C240.242 322.599 239.944 322.793 239.589 322.932C239.234 323.068 238.835 323.136 238.391 323.136ZM246.006 325.455V316.455H246.978V317.494H247.097C247.171 317.381 247.273 317.236 247.404 317.06C247.538 316.881 247.728 316.722 247.975 316.582C248.225 316.44 248.563 316.369 248.989 316.369C249.54 316.369 250.026 316.507 250.447 316.783C250.867 317.058 251.195 317.449 251.431 317.955C251.667 318.46 251.785 319.057 251.785 319.744C251.785 320.438 251.667 321.038 251.431 321.547C251.195 322.053 250.869 322.445 250.451 322.723C250.033 322.999 249.552 323.136 249.006 323.136C248.586 323.136 248.249 323.067 247.996 322.928C247.744 322.786 247.549 322.625 247.413 322.446C247.276 322.264 247.171 322.114 247.097 321.994H247.012V325.455H246.006ZM246.995 319.727C246.995 320.222 247.067 320.658 247.212 321.036C247.357 321.411 247.569 321.705 247.847 321.918C248.126 322.128 248.467 322.233 248.87 322.233C249.29 322.233 249.641 322.122 249.923 321.901C250.207 321.676 250.42 321.375 250.562 320.997C250.707 320.616 250.779 320.193 250.779 319.727C250.779 319.267 250.708 318.852 250.566 318.483C250.427 318.111 250.215 317.817 249.931 317.601C249.65 317.382 249.296 317.273 248.87 317.273C248.461 317.273 248.117 317.376 247.839 317.584C247.56 317.788 247.35 318.075 247.208 318.445C247.066 318.811 246.995 319.239 246.995 319.727ZM255.245 323.153C254.83 323.153 254.454 323.075 254.116 322.919C253.778 322.76 253.509 322.531 253.31 322.233C253.112 321.932 253.012 321.568 253.012 321.142C253.012 320.767 253.086 320.463 253.234 320.23C253.381 319.994 253.579 319.81 253.826 319.676C254.073 319.543 254.346 319.443 254.644 319.378C254.945 319.31 255.248 319.256 255.552 319.216C255.95 319.165 256.272 319.126 256.519 319.101C256.769 319.072 256.951 319.026 257.065 318.96C257.181 318.895 257.239 318.781 257.239 318.619V318.585C257.239 318.165 257.124 317.838 256.894 317.605C256.667 317.372 256.322 317.256 255.859 317.256C255.379 317.256 255.002 317.361 254.729 317.571C254.457 317.781 254.265 318.006 254.154 318.244L253.2 317.903C253.37 317.506 253.597 317.196 253.881 316.974C254.168 316.75 254.481 316.594 254.819 316.506C255.16 316.415 255.495 316.369 255.825 316.369C256.035 316.369 256.276 316.395 256.549 316.446C256.825 316.494 257.09 316.595 257.346 316.749C257.604 316.902 257.819 317.134 257.989 317.443C258.16 317.753 258.245 318.168 258.245 318.688V323H257.239V322.114H257.188C257.12 322.256 257.006 322.408 256.847 322.57C256.688 322.732 256.477 322.869 256.212 322.983C255.948 323.097 255.626 323.153 255.245 323.153ZM255.398 322.25C255.796 322.25 256.131 322.172 256.404 322.016C256.68 321.859 256.887 321.658 257.026 321.411C257.168 321.163 257.239 320.903 257.239 320.631V319.71C257.197 319.761 257.103 319.808 256.958 319.851C256.816 319.891 256.651 319.926 256.464 319.957C256.279 319.986 256.099 320.011 255.923 320.034C255.749 320.054 255.609 320.071 255.501 320.085C255.239 320.119 254.995 320.175 254.768 320.251C254.543 320.325 254.362 320.437 254.222 320.588C254.086 320.736 254.018 320.937 254.018 321.193C254.018 321.543 254.147 321.807 254.406 321.986C254.667 322.162 254.998 322.25 255.398 322.25ZM260.081 323V316.455H261.086V323H260.081ZM260.592 315.364C260.396 315.364 260.227 315.297 260.085 315.163C259.946 315.03 259.876 314.869 259.876 314.682C259.876 314.494 259.946 314.334 260.085 314.2C260.227 314.067 260.396 314 260.592 314C260.788 314 260.956 314.067 261.095 314.2C261.237 314.334 261.308 314.494 261.308 314.682C261.308 314.869 261.237 315.03 261.095 315.163C260.956 315.297 260.788 315.364 260.592 315.364ZM265.4 323.136C264.854 323.136 264.373 322.999 263.955 322.723C263.538 322.445 263.211 322.053 262.975 321.547C262.739 321.038 262.621 320.438 262.621 319.744C262.621 319.057 262.739 318.46 262.975 317.955C263.211 317.449 263.539 317.058 263.96 316.783C264.38 316.507 264.866 316.369 265.417 316.369C265.843 316.369 266.18 316.44 266.427 316.582C266.677 316.722 266.867 316.881 266.998 317.06C267.131 317.236 267.235 317.381 267.309 317.494H267.394V314.273H268.4V323H267.428V321.994H267.309C267.235 322.114 267.13 322.264 266.994 322.446C266.857 322.625 266.663 322.786 266.41 322.928C266.157 323.067 265.82 323.136 265.4 323.136ZM265.536 322.233C265.94 322.233 266.281 322.128 266.559 321.918C266.837 321.705 267.049 321.411 267.194 321.036C267.339 320.658 267.411 320.222 267.411 319.727C267.411 319.239 267.34 318.811 267.198 318.445C267.056 318.075 266.846 317.788 266.567 317.584C266.289 317.376 265.945 317.273 265.536 317.273C265.11 317.273 264.755 317.382 264.471 317.601C264.19 317.817 263.978 318.111 263.836 318.483C263.697 318.852 263.627 319.267 263.627 319.727C263.627 320.193 263.698 320.616 263.84 320.997C263.985 321.375 264.198 321.676 264.479 321.901C264.763 322.122 265.116 322.233 265.536 322.233ZM276.671 316.455V317.307H273.143V316.455H276.671ZM274.2 323V315.551C274.2 315.176 274.288 314.864 274.464 314.614C274.64 314.364 274.869 314.176 275.15 314.051C275.431 313.926 275.728 313.864 276.04 313.864C276.288 313.864 276.489 313.884 276.646 313.923C276.802 313.963 276.918 314 276.995 314.034L276.705 314.903C276.654 314.886 276.583 314.865 276.492 314.839C276.404 314.814 276.288 314.801 276.143 314.801C275.81 314.801 275.57 314.885 275.423 315.053C275.278 315.22 275.205 315.466 275.205 315.79V323H274.2ZM280.47 323.136C279.879 323.136 279.361 322.996 278.915 322.714C278.472 322.433 278.125 322.04 277.875 321.534C277.628 321.028 277.504 320.437 277.504 319.761C277.504 319.08 277.628 318.484 277.875 317.976C278.125 317.467 278.472 317.072 278.915 316.791C279.361 316.51 279.879 316.369 280.47 316.369C281.061 316.369 281.578 316.51 282.021 316.791C282.467 317.072 282.814 317.467 283.061 317.976C283.311 318.484 283.436 319.08 283.436 319.761C283.436 320.437 283.311 321.028 283.061 321.534C282.814 322.04 282.467 322.433 282.021 322.714C281.578 322.996 281.061 323.136 280.47 323.136ZM280.47 322.233C280.919 322.233 281.288 322.118 281.578 321.888C281.868 321.658 282.082 321.355 282.222 320.98C282.361 320.605 282.43 320.199 282.43 319.761C282.43 319.324 282.361 318.916 282.222 318.538C282.082 318.161 281.868 317.855 281.578 317.622C281.288 317.389 280.919 317.273 280.47 317.273C280.021 317.273 279.652 317.389 279.362 317.622C279.072 317.855 278.858 318.161 278.719 318.538C278.58 318.916 278.51 319.324 278.51 319.761C278.51 320.199 278.58 320.605 278.719 320.98C278.858 321.355 279.072 321.658 279.362 321.888C279.652 322.118 280.021 322.233 280.47 322.233ZM284.971 323V316.455H285.943V317.443H286.011C286.13 317.119 286.346 316.857 286.659 316.655C286.971 316.453 287.324 316.352 287.716 316.352C287.789 316.352 287.882 316.354 287.993 316.357C288.103 316.359 288.187 316.364 288.244 316.369V317.392C288.21 317.384 288.132 317.371 288.01 317.354C287.89 317.334 287.764 317.324 287.63 317.324C287.312 317.324 287.028 317.391 286.778 317.524C286.531 317.655 286.335 317.837 286.19 318.07C286.048 318.3 285.977 318.562 285.977 318.858V323H284.971Z" fill="white"/>
<path d="M2.64205 160L0.255682 151.273H1.32955L3.15341 158.381H3.23864L5.09659 151.273H6.28977L8.14773 158.381H8.23295L10.0568 151.273H11.1307L8.74432 160H7.65341L5.72727 153.045H5.65909L3.73295 160H2.64205ZM13.3168 156.062V160H12.3111V151.273H13.3168V154.477H13.402C13.5554 154.139 13.7855 153.871 14.0923 153.672C14.402 153.47 14.8139 153.369 15.3281 153.369C15.7741 153.369 16.1648 153.459 16.5 153.638C16.8352 153.814 17.0952 154.085 17.2798 154.452C17.4673 154.815 17.5611 155.278 17.5611 155.841V160H16.5554V155.909C16.5554 155.389 16.4205 154.987 16.1506 154.703C15.8835 154.416 15.5128 154.273 15.0384 154.273C14.7088 154.273 14.4134 154.342 14.152 154.482C13.8935 154.621 13.6889 154.824 13.5384 155.091C13.3906 155.358 13.3168 155.682 13.3168 156.062ZM21.3271 160.153C20.9123 160.153 20.5359 160.075 20.1978 159.919C19.8597 159.76 19.5913 159.531 19.3924 159.233C19.1935 158.932 19.0941 158.568 19.0941 158.142C19.0941 157.767 19.168 157.463 19.3157 157.23C19.4634 156.994 19.6609 156.81 19.908 156.676C20.1552 156.543 20.4279 156.443 20.7262 156.378C21.0273 156.31 21.3299 156.256 21.6339 156.216C22.0316 156.165 22.354 156.126 22.6012 156.101C22.8512 156.072 23.033 156.026 23.1467 155.96C23.2631 155.895 23.3214 155.781 23.3214 155.619V155.585C23.3214 155.165 23.2063 154.838 22.9762 154.605C22.7489 154.372 22.4038 154.256 21.9407 154.256C21.4606 154.256 21.0842 154.361 20.8114 154.571C20.5387 154.781 20.3469 155.006 20.2362 155.244L19.2816 154.903C19.4521 154.506 19.6793 154.196 19.9634 153.974C20.2504 153.75 20.5629 153.594 20.9009 153.506C21.2418 153.415 21.5771 153.369 21.9066 153.369C22.1168 153.369 22.3583 153.395 22.631 153.446C22.9066 153.494 23.1722 153.595 23.4279 153.749C23.6864 153.902 23.9009 154.134 24.0714 154.443C24.2418 154.753 24.3271 155.168 24.3271 155.688V160H23.3214V159.114H23.2702C23.2021 159.256 23.0884 159.408 22.9293 159.57C22.7702 159.732 22.5586 159.869 22.2944 159.983C22.0302 160.097 21.7077 160.153 21.3271 160.153ZM21.4805 159.25C21.8782 159.25 22.2134 159.172 22.4862 159.016C22.7617 158.859 22.9691 158.658 23.1083 158.411C23.2504 158.163 23.3214 157.903 23.3214 157.631V156.71C23.2788 156.761 23.185 156.808 23.0401 156.851C22.8981 156.891 22.7333 156.926 22.5458 156.957C22.3612 156.986 22.1808 157.011 22.0046 157.034C21.8313 157.054 21.6907 157.071 21.5827 157.085C21.3214 157.119 21.0771 157.175 20.8498 157.251C20.6254 157.325 20.4435 157.437 20.3043 157.588C20.168 157.736 20.0998 157.937 20.0998 158.193C20.0998 158.543 20.229 158.807 20.4876 158.986C20.7489 159.162 21.0799 159.25 21.4805 159.25ZM29.0092 153.455V154.307H25.6172V153.455H29.0092ZM26.6058 151.886H27.6115V158.125C27.6115 158.409 27.6527 158.622 27.7351 158.764C27.8203 158.903 27.9283 158.997 28.0589 159.045C28.1925 159.091 28.3331 159.114 28.4808 159.114C28.5916 159.114 28.6825 159.108 28.7536 159.097C28.8246 159.082 28.8814 159.071 28.924 159.062L29.1286 159.966C29.0604 159.991 28.9652 160.017 28.843 160.043C28.7209 160.071 28.5661 160.085 28.3786 160.085C28.0945 160.085 27.8161 160.024 27.5433 159.902C27.2734 159.78 27.049 159.594 26.87 159.344C26.6939 159.094 26.6058 158.778 26.6058 158.398V151.886ZM34.5447 162.455C34.3743 162.455 34.2223 162.44 34.0888 162.412C33.9553 162.386 33.8629 162.361 33.8118 162.335L34.0675 161.449C34.3118 161.511 34.5277 161.534 34.7152 161.517C34.9027 161.5 35.0689 161.416 35.2138 161.266C35.3615 161.118 35.4964 160.878 35.6186 160.545L35.8061 160.034L33.3857 153.455H34.4766L36.2834 158.67H36.3516L38.1584 153.455H39.2493L36.4709 160.955C36.3459 161.293 36.1911 161.572 36.0064 161.794C35.8217 162.018 35.6072 162.185 35.3629 162.293C35.1214 162.401 34.8487 162.455 34.5447 162.455ZM43.0014 160.136C42.4105 160.136 41.892 159.996 41.446 159.714C41.0028 159.433 40.6562 159.04 40.4062 158.534C40.1591 158.028 40.0355 157.437 40.0355 156.761C40.0355 156.08 40.1591 155.484 40.4062 154.976C40.6562 154.467 41.0028 154.072 41.446 153.791C41.892 153.51 42.4105 153.369 43.0014 153.369C43.5923 153.369 44.1094 153.51 44.5526 153.791C44.9986 154.072 45.3452 154.467 45.5923 154.976C45.8423 155.484 45.9673 156.08 45.9673 156.761C45.9673 157.437 45.8423 158.028 45.5923 158.534C45.3452 159.04 44.9986 159.433 44.5526 159.714C44.1094 159.996 43.5923 160.136 43.0014 160.136ZM43.0014 159.233C43.4503 159.233 43.8196 159.118 44.1094 158.888C44.3991 158.658 44.6136 158.355 44.7528 157.98C44.892 157.605 44.9616 157.199 44.9616 156.761C44.9616 156.324 44.892 155.916 44.7528 155.538C44.6136 155.161 44.3991 154.855 44.1094 154.622C43.8196 154.389 43.4503 154.273 43.0014 154.273C42.5526 154.273 42.1832 154.389 41.8935 154.622C41.6037 154.855 41.3892 155.161 41.25 155.538C41.1108 155.916 41.0412 156.324 41.0412 156.761C41.0412 157.199 41.1108 157.605 41.25 157.98C41.3892 158.355 41.6037 158.658 41.8935 158.888C42.1832 159.118 42.5526 159.233 43.0014 159.233ZM51.6275 157.324V153.455H52.6332V160H51.6275V158.892H51.5593C51.4059 159.224 51.1673 159.507 50.8434 159.74C50.5195 159.97 50.1104 160.085 49.6161 160.085C49.207 160.085 48.8434 159.996 48.5252 159.817C48.207 159.635 47.957 159.362 47.7752 158.999C47.5934 158.632 47.5025 158.17 47.5025 157.614V153.455H48.5082V157.545C48.5082 158.023 48.6417 158.403 48.9087 158.688C49.1786 158.972 49.5224 159.114 49.94 159.114C50.19 159.114 50.4442 159.05 50.7028 158.922C50.9641 158.794 51.1829 158.598 51.359 158.334C51.538 158.07 51.6275 157.733 51.6275 157.324ZM55.5373 151.273V152.04C55.5373 152.273 55.4947 152.521 55.4094 152.786C55.3271 153.047 55.2049 153.301 55.043 153.548C54.8839 153.793 54.6907 154.006 54.4634 154.188L53.918 153.744C54.0969 153.489 54.2518 153.223 54.3825 152.947C54.516 152.669 54.5827 152.372 54.5827 152.057V151.273H55.5373ZM56.608 160V153.455H57.5795V154.443H57.6477C57.767 154.119 57.983 153.857 58.2955 153.655C58.608 153.453 58.9602 153.352 59.3523 153.352C59.4261 153.352 59.5185 153.354 59.6293 153.357C59.7401 153.359 59.8239 153.364 59.8807 153.369V154.392C59.8466 154.384 59.7685 154.371 59.6463 154.354C59.527 154.334 59.4006 154.324 59.267 154.324C58.9489 154.324 58.6648 154.391 58.4148 154.524C58.1676 154.655 57.9716 154.837 57.8267 155.07C57.6847 155.3 57.6136 155.562 57.6136 155.858V160H56.608ZM63.6179 160.136C62.9872 160.136 62.4432 159.997 61.9858 159.719C61.5312 159.438 61.1804 159.045 60.9332 158.543C60.6889 158.037 60.5668 157.449 60.5668 156.778C60.5668 156.108 60.6889 155.517 60.9332 155.006C61.1804 154.491 61.5241 154.091 61.9645 153.804C62.4077 153.514 62.9247 153.369 63.5156 153.369C63.8565 153.369 64.1932 153.426 64.5256 153.54C64.858 153.653 65.1605 153.838 65.4332 154.094C65.706 154.347 65.9233 154.682 66.0852 155.099C66.2472 155.517 66.3281 156.031 66.3281 156.642V157.068H61.2827V156.199H65.3054C65.3054 155.83 65.2315 155.5 65.0838 155.21C64.9389 154.92 64.7315 154.692 64.4616 154.524C64.1946 154.357 63.8793 154.273 63.5156 154.273C63.1151 154.273 62.7685 154.372 62.4759 154.571C62.1861 154.767 61.9631 155.023 61.8068 155.338C61.6506 155.653 61.5724 155.991 61.5724 156.352V156.932C61.5724 157.426 61.6577 157.845 61.8281 158.189C62.0014 158.53 62.2415 158.79 62.5483 158.969C62.8551 159.145 63.2116 159.233 63.6179 159.233C63.8821 159.233 64.1207 159.196 64.3338 159.122C64.5497 159.045 64.7358 158.932 64.892 158.781C65.0483 158.628 65.169 158.437 65.2543 158.21L66.2259 158.483C66.1236 158.812 65.9517 159.102 65.7102 159.352C65.4688 159.599 65.1705 159.793 64.8153 159.932C64.4602 160.068 64.0611 160.136 63.6179 160.136ZM3.5625 177.591C3.0767 177.591 2.65909 177.528 2.30966 177.403C1.96023 177.281 1.66903 177.119 1.43608 176.918C1.20597 176.719 1.02273 176.506 0.886364 176.278L1.6875 175.716C1.77841 175.835 1.89347 175.972 2.03267 176.125C2.17188 176.281 2.36222 176.416 2.60369 176.53C2.84801 176.646 3.16761 176.705 3.5625 176.705C4.09091 176.705 4.52699 176.577 4.87074 176.321C5.21449 176.065 5.38636 175.665 5.38636 175.119V173.79H5.30114C5.22727 173.909 5.12216 174.057 4.9858 174.233C4.85227 174.406 4.65909 174.561 4.40625 174.697C4.15625 174.831 3.81818 174.898 3.39205 174.898C2.86364 174.898 2.3892 174.773 1.96875 174.523C1.55114 174.273 1.22017 173.909 0.975852 173.432C0.734375 172.955 0.613636 172.375 0.613636 171.693C0.613636 171.023 0.731534 170.439 0.96733 169.942C1.20313 169.442 1.53125 169.055 1.9517 168.783C2.37216 168.507 2.85795 168.369 3.40909 168.369C3.83523 168.369 4.1733 168.44 4.4233 168.582C4.67614 168.722 4.86932 168.881 5.00284 169.06C5.1392 169.236 5.24432 169.381 5.31818 169.494H5.42045V168.455H6.39205V175.188C6.39205 175.75 6.2642 176.207 6.00852 176.56C5.75568 176.915 5.41477 177.175 4.9858 177.339C4.55966 177.507 4.08523 177.591 3.5625 177.591ZM3.52841 173.994C3.93182 173.994 4.27273 173.902 4.55114 173.717C4.82955 173.533 5.04119 173.267 5.18608 172.92C5.33097 172.574 5.40341 172.159 5.40341 171.676C5.40341 171.205 5.33239 170.788 5.19034 170.428C5.0483 170.067 4.83807 169.784 4.55966 169.58C4.28125 169.375 3.9375 169.273 3.52841 169.273C3.10227 169.273 2.74716 169.381 2.46307 169.597C2.18182 169.812 1.97017 170.102 1.82812 170.466C1.68892 170.83 1.61932 171.233 1.61932 171.676C1.61932 172.131 1.69034 172.533 1.83239 172.882C1.97727 173.229 2.19034 173.501 2.47159 173.7C2.75568 173.896 3.10795 173.994 3.52841 173.994ZM10.892 175.136C10.3011 175.136 9.78267 174.996 9.33665 174.714C8.89347 174.433 8.54688 174.04 8.29688 173.534C8.04972 173.028 7.92614 172.437 7.92614 171.761C7.92614 171.08 8.04972 170.484 8.29688 169.976C8.54688 169.467 8.89347 169.072 9.33665 168.791C9.78267 168.51 10.3011 168.369 10.892 168.369C11.483 168.369 12 168.51 12.4432 168.791C12.8892 169.072 13.2358 169.467 13.483 169.976C13.733 170.484 13.858 171.08 13.858 171.761C13.858 172.437 13.733 173.028 13.483 173.534C13.2358 174.04 12.8892 174.433 12.4432 174.714C12 174.996 11.483 175.136 10.892 175.136ZM10.892 174.233C11.3409 174.233 11.7102 174.118 12 173.888C12.2898 173.658 12.5043 173.355 12.6435 172.98C12.7827 172.605 12.8523 172.199 12.8523 171.761C12.8523 171.324 12.7827 170.916 12.6435 170.538C12.5043 170.161 12.2898 169.855 12 169.622C11.7102 169.389 11.3409 169.273 10.892 169.273C10.4432 169.273 10.0739 169.389 9.78409 169.622C9.49432 169.855 9.27983 170.161 9.14062 170.538C9.00142 170.916 8.93182 171.324 8.93182 171.761C8.93182 172.199 9.00142 172.605 9.14062 172.98C9.27983 173.355 9.49432 173.658 9.78409 173.888C10.0739 174.118 10.4432 174.233 10.892 174.233ZM18.0522 175.136C17.4613 175.136 16.9428 174.996 16.4968 174.714C16.0536 174.433 15.707 174.04 15.457 173.534C15.2099 173.028 15.0863 172.437 15.0863 171.761C15.0863 171.08 15.2099 170.484 15.457 169.976C15.707 169.467 16.0536 169.072 16.4968 168.791C16.9428 168.51 17.4613 168.369 18.0522 168.369C18.6431 168.369 19.1602 168.51 19.6033 168.791C20.0494 169.072 20.396 169.467 20.6431 169.976C20.8931 170.484 21.0181 171.08 21.0181 171.761C21.0181 172.437 20.8931 173.028 20.6431 173.534C20.396 174.04 20.0494 174.433 19.6033 174.714C19.1602 174.996 18.6431 175.136 18.0522 175.136ZM18.0522 174.233C18.5011 174.233 18.8704 174.118 19.1602 173.888C19.4499 173.658 19.6644 173.355 19.8036 172.98C19.9428 172.605 20.0124 172.199 20.0124 171.761C20.0124 171.324 19.9428 170.916 19.8036 170.538C19.6644 170.161 19.4499 169.855 19.1602 169.622C18.8704 169.389 18.5011 169.273 18.0522 169.273C17.6033 169.273 17.234 169.389 16.9442 169.622C16.6545 169.855 16.44 170.161 16.3008 170.538C16.1616 170.916 16.092 171.324 16.092 171.761C16.092 172.199 16.1616 172.605 16.3008 172.98C16.44 173.355 16.6545 173.658 16.9442 173.888C17.234 174.118 17.6033 174.233 18.0522 174.233ZM25.0249 175.136C24.4794 175.136 23.9979 174.999 23.5803 174.723C23.1626 174.445 22.8359 174.053 22.6001 173.547C22.3643 173.038 22.2464 172.438 22.2464 171.744C22.2464 171.057 22.3643 170.46 22.6001 169.955C22.8359 169.449 23.1641 169.058 23.5845 168.783C24.005 168.507 24.4908 168.369 25.0419 168.369C25.468 168.369 25.8047 168.44 26.0518 168.582C26.3018 168.722 26.4922 168.881 26.6229 169.06C26.7564 169.236 26.8601 169.381 26.9339 169.494H27.0192V166.273H28.0249V175H27.0533V173.994H26.9339C26.8601 174.114 26.755 174.264 26.6186 174.446C26.4822 174.625 26.2876 174.786 26.0348 174.928C25.782 175.067 25.4453 175.136 25.0249 175.136ZM25.1612 174.233C25.5646 174.233 25.9055 174.128 26.1839 173.918C26.4624 173.705 26.674 173.411 26.8189 173.036C26.9638 172.658 27.0362 172.222 27.0362 171.727C27.0362 171.239 26.9652 170.811 26.8232 170.445C26.6811 170.075 26.4709 169.788 26.1925 169.584C25.9141 169.376 25.5703 169.273 25.1612 169.273C24.7351 169.273 24.38 169.382 24.0959 169.601C23.8146 169.817 23.603 170.111 23.4609 170.483C23.3217 170.852 23.2521 171.267 23.2521 171.727C23.2521 172.193 23.3232 172.616 23.4652 172.997C23.6101 173.375 23.8232 173.676 24.1044 173.901C24.3885 174.122 24.7408 174.233 25.1612 174.233ZM35.3075 175.153C34.8928 175.153 34.5163 175.075 34.1783 174.919C33.8402 174.76 33.5717 174.531 33.3729 174.233C33.174 173.932 33.0746 173.568 33.0746 173.142C33.0746 172.767 33.1484 172.463 33.2962 172.23C33.4439 171.994 33.6413 171.81 33.8885 171.676C34.1357 171.543 34.4084 171.443 34.7067 171.378C35.0078 171.31 35.3104 171.256 35.6143 171.216C36.0121 171.165 36.3345 171.126 36.5817 171.101C36.8317 171.072 37.0135 171.026 37.1271 170.96C37.2436 170.895 37.3018 170.781 37.3018 170.619V170.585C37.3018 170.165 37.1868 169.838 36.9567 169.605C36.7294 169.372 36.3842 169.256 35.9212 169.256C35.4411 169.256 35.0646 169.361 34.7919 169.571C34.5192 169.781 34.3274 170.006 34.2166 170.244L33.2621 169.903C33.4325 169.506 33.6598 169.196 33.9439 168.974C34.2308 168.75 34.5433 168.594 34.8814 168.506C35.2223 168.415 35.5575 168.369 35.8871 168.369C36.0973 168.369 36.3388 168.395 36.6115 168.446C36.8871 168.494 37.1527 168.595 37.4084 168.749C37.6669 168.902 37.8814 169.134 38.0518 169.443C38.2223 169.753 38.3075 170.168 38.3075 170.688V175H37.3018V174.114H37.2507C37.1825 174.256 37.0689 174.408 36.9098 174.57C36.7507 174.732 36.5391 174.869 36.2749 174.983C36.0107 175.097 35.6882 175.153 35.3075 175.153ZM35.4609 174.25C35.8587 174.25 36.1939 174.172 36.4666 174.016C36.7422 173.859 36.9496 173.658 37.0888 173.411C37.2308 173.163 37.3018 172.903 37.3018 172.631V171.71C37.2592 171.761 37.1655 171.808 37.0206 171.851C36.8786 171.891 36.7138 171.926 36.5263 171.957C36.3416 171.986 36.1612 172.011 35.9851 172.034C35.8118 172.054 35.6712 172.071 35.5632 172.085C35.3018 172.119 35.0575 172.175 34.8303 172.251C34.6058 172.325 34.424 172.437 34.2848 172.588C34.1484 172.736 34.0803 172.937 34.0803 173.193C34.0803 173.543 34.2095 173.807 34.468 173.986C34.7294 174.162 35.0604 174.25 35.4609 174.25ZM42.9897 168.455V169.307H39.5977V168.455H42.9897ZM40.5863 166.886H41.592V173.125C41.592 173.409 41.6332 173.622 41.7156 173.764C41.8008 173.903 41.9087 173.997 42.0394 174.045C42.1729 174.091 42.3136 174.114 42.4613 174.114C42.5721 174.114 42.663 174.108 42.734 174.097C42.805 174.082 42.8619 174.071 42.9045 174.062L43.109 174.966C43.0408 174.991 42.9457 175.017 42.8235 175.043C42.7013 175.071 42.5465 175.085 42.359 175.085C42.0749 175.085 41.7965 175.024 41.5238 174.902C41.2539 174.78 41.0295 174.594 40.8505 174.344C40.6744 174.094 40.5863 173.778 40.5863 173.398V166.886Z" fill="white"/>
<path d="M387.091 160L384.705 151.273H385.779L387.603 158.381H387.688L389.546 151.273H390.739L392.597 158.381H392.682L394.506 151.273H395.58L393.194 160H392.103L390.176 153.045H390.108L388.182 160H387.091ZM397.766 156.062V160H396.76V151.273H397.766V154.477H397.851C398.005 154.139 398.235 153.871 398.542 153.672C398.851 153.47 399.263 153.369 399.777 153.369C400.223 153.369 400.614 153.459 400.949 153.638C401.284 153.814 401.544 154.085 401.729 154.452C401.917 154.815 402.01 155.278 402.01 155.841V160H401.005V155.909C401.005 155.389 400.87 154.987 400.6 154.703C400.333 154.416 399.962 154.273 399.488 154.273C399.158 154.273 398.863 154.342 398.601 154.482C398.343 154.621 398.138 154.824 397.988 155.091C397.84 155.358 397.766 155.682 397.766 156.062ZM405.776 160.153C405.362 160.153 404.985 160.075 404.647 159.919C404.309 159.76 404.04 159.531 403.842 159.233C403.643 158.932 403.543 158.568 403.543 158.142C403.543 157.767 403.617 157.463 403.765 157.23C403.913 156.994 404.11 156.81 404.357 156.676C404.604 156.543 404.877 156.443 405.175 156.378C405.477 156.31 405.779 156.256 406.083 156.216C406.481 156.165 406.803 156.126 407.05 156.101C407.3 156.072 407.482 156.026 407.596 155.96C407.712 155.895 407.771 155.781 407.771 155.619V155.585C407.771 155.165 407.656 154.838 407.425 154.605C407.198 154.372 406.853 154.256 406.39 154.256C405.91 154.256 405.533 154.361 405.261 154.571C404.988 154.781 404.796 155.006 404.685 155.244L403.731 154.903C403.901 154.506 404.129 154.196 404.413 153.974C404.7 153.75 405.012 153.594 405.35 153.506C405.691 153.415 406.026 153.369 406.356 153.369C406.566 153.369 406.808 153.395 407.08 153.446C407.356 153.494 407.621 153.595 407.877 153.749C408.136 153.902 408.35 154.134 408.521 154.443C408.691 154.753 408.776 155.168 408.776 155.688V160H407.771V159.114H407.719C407.651 159.256 407.538 159.408 407.379 159.57C407.219 159.732 407.008 159.869 406.744 159.983C406.479 160.097 406.157 160.153 405.776 160.153ZM405.93 159.25C406.327 159.25 406.663 159.172 406.935 159.016C407.211 158.859 407.418 158.658 407.558 158.411C407.7 158.163 407.771 157.903 407.771 157.631V156.71C407.728 156.761 407.634 156.808 407.489 156.851C407.347 156.891 407.183 156.926 406.995 156.957C406.81 156.986 406.63 157.011 406.454 157.034C406.281 157.054 406.14 157.071 406.032 157.085C405.771 157.119 405.526 157.175 405.299 157.251C405.075 157.325 404.893 157.437 404.754 157.588C404.617 157.736 404.549 157.937 404.549 158.193C404.549 158.543 404.678 158.807 404.937 158.986C405.198 159.162 405.529 159.25 405.93 159.25ZM413.458 153.455V154.307H410.066V153.455H413.458ZM411.055 151.886H412.061V158.125C412.061 158.409 412.102 158.622 412.184 158.764C412.27 158.903 412.377 158.997 412.508 159.045C412.642 159.091 412.782 159.114 412.93 159.114C413.041 159.114 413.132 159.108 413.203 159.097C413.274 159.082 413.331 159.071 413.373 159.062L413.578 159.966C413.51 159.991 413.414 160.017 413.292 160.043C413.17 160.071 413.015 160.085 412.828 160.085C412.544 160.085 412.265 160.024 411.993 159.902C411.723 159.78 411.498 159.594 411.319 159.344C411.143 159.094 411.055 158.778 411.055 158.398V151.886ZM421.193 153.455V154.307H417.801V153.455H421.193ZM418.789 151.886H419.795V158.125C419.795 158.409 419.836 158.622 419.919 158.764C420.004 158.903 420.112 158.997 420.243 159.045C420.376 159.091 420.517 159.114 420.664 159.114C420.775 159.114 420.866 159.108 420.937 159.097C421.008 159.082 421.065 159.071 421.108 159.062L421.312 159.966C421.244 159.991 421.149 160.017 421.027 160.043C420.904 160.071 420.75 160.085 420.562 160.085C420.278 160.085 420 160.024 419.727 159.902C419.457 159.78 419.233 159.594 419.054 159.344C418.877 159.094 418.789 158.778 418.789 158.398V151.886ZM423.852 156.062V160H422.846V151.273H423.852V154.477H423.937C424.091 154.139 424.321 153.871 424.627 153.672C424.937 153.47 425.349 153.369 425.863 153.369C426.309 153.369 426.7 153.459 427.035 153.638C427.37 153.814 427.63 154.085 427.815 154.452C428.002 154.815 428.096 155.278 428.096 155.841V160H427.091V155.909C427.091 155.389 426.956 154.987 426.686 154.703C426.419 154.416 426.048 154.273 425.574 154.273C425.244 154.273 424.949 154.342 424.687 154.482C424.429 154.621 424.224 154.824 424.074 155.091C423.926 155.358 423.852 155.682 423.852 156.062ZM432.68 160.136C432.05 160.136 431.506 159.997 431.048 159.719C430.594 159.438 430.243 159.045 429.996 158.543C429.751 158.037 429.629 157.449 429.629 156.778C429.629 156.108 429.751 155.517 429.996 155.006C430.243 154.491 430.587 154.091 431.027 153.804C431.47 153.514 431.987 153.369 432.578 153.369C432.919 153.369 433.256 153.426 433.588 153.54C433.92 153.653 434.223 153.838 434.496 154.094C434.768 154.347 434.986 154.682 435.148 155.099C435.31 155.517 435.391 156.031 435.391 156.642V157.068H430.345V156.199H434.368C434.368 155.83 434.294 155.5 434.146 155.21C434.001 154.92 433.794 154.692 433.524 154.524C433.257 154.357 432.942 154.273 432.578 154.273C432.178 154.273 431.831 154.372 431.538 154.571C431.249 154.767 431.026 155.023 430.869 155.338C430.713 155.653 430.635 155.991 430.635 156.352V156.932C430.635 157.426 430.72 157.845 430.891 158.189C431.064 158.53 431.304 158.79 431.611 158.969C431.918 159.145 432.274 159.233 432.68 159.233C432.945 159.233 433.183 159.196 433.396 159.122C433.612 159.045 433.798 158.932 433.955 158.781C434.111 158.628 434.232 158.437 434.317 158.21L435.288 158.483C435.186 158.812 435.014 159.102 434.773 159.352C434.531 159.599 434.233 159.793 433.878 159.932C433.523 160.068 433.124 160.136 432.68 160.136ZM368.864 175L366.87 168.455H367.927L369.342 173.466H369.41L370.808 168.455H371.881L373.262 173.449H373.33L374.745 168.455H375.802L373.808 175H372.819L371.387 169.972H371.285L369.853 175H368.864ZM379.568 175.136C378.977 175.136 378.458 174.996 378.012 174.714C377.569 174.433 377.223 174.04 376.973 173.534C376.725 173.028 376.602 172.437 376.602 171.761C376.602 171.08 376.725 170.484 376.973 169.976C377.223 169.467 377.569 169.072 378.012 168.791C378.458 168.51 378.977 168.369 379.568 168.369C380.159 168.369 380.676 168.51 381.119 168.791C381.565 169.072 381.912 169.467 382.159 169.976C382.409 170.484 382.534 171.08 382.534 171.761C382.534 172.437 382.409 173.028 382.159 173.534C381.912 174.04 381.565 174.433 381.119 174.714C380.676 174.996 380.159 175.136 379.568 175.136ZM379.568 174.233C380.017 174.233 380.386 174.118 380.676 173.888C380.966 173.658 381.18 173.355 381.319 172.98C381.458 172.605 381.528 172.199 381.528 171.761C381.528 171.324 381.458 170.916 381.319 170.538C381.18 170.161 380.966 169.855 380.676 169.622C380.386 169.389 380.017 169.273 379.568 169.273C379.119 169.273 378.75 169.389 378.46 169.622C378.17 169.855 377.956 170.161 377.816 170.538C377.677 170.916 377.608 171.324 377.608 171.761C377.608 172.199 377.677 172.605 377.816 172.98C377.956 173.355 378.17 173.658 378.46 173.888C378.75 174.118 379.119 174.233 379.568 174.233ZM384.069 175V168.455H385.04V169.443H385.109C385.228 169.119 385.444 168.857 385.756 168.655C386.069 168.453 386.421 168.352 386.813 168.352C386.887 168.352 386.979 168.354 387.09 168.357C387.201 168.359 387.285 168.364 387.342 168.369V169.392C387.308 169.384 387.229 169.371 387.107 169.354C386.988 169.334 386.862 169.324 386.728 169.324C386.41 169.324 386.126 169.391 385.876 169.524C385.629 169.655 385.433 169.837 385.288 170.07C385.146 170.3 385.075 170.562 385.075 170.858V175H384.069ZM389.539 166.273V175H388.534V166.273H389.539ZM393.853 175.136C393.308 175.136 392.826 174.999 392.408 174.723C391.991 174.445 391.664 174.053 391.428 173.547C391.192 173.038 391.075 172.438 391.075 171.744C391.075 171.057 391.192 170.46 391.428 169.955C391.664 169.449 391.992 169.058 392.413 168.783C392.833 168.507 393.319 168.369 393.87 168.369C394.296 168.369 394.633 168.44 394.88 168.582C395.13 168.722 395.32 168.881 395.451 169.06C395.585 169.236 395.688 169.381 395.762 169.494H395.847V166.273H396.853V175H395.881V173.994H395.762C395.688 174.114 395.583 174.264 395.447 174.446C395.31 174.625 395.116 174.786 394.863 174.928C394.61 175.067 394.273 175.136 393.853 175.136ZM393.989 174.233C394.393 174.233 394.734 174.128 395.012 173.918C395.29 173.705 395.502 173.411 395.647 173.036C395.792 172.658 395.864 172.222 395.864 171.727C395.864 171.239 395.793 170.811 395.651 170.445C395.509 170.075 395.299 169.788 395.021 169.584C394.742 169.376 394.398 169.273 393.989 169.273C393.563 169.273 393.208 169.382 392.924 169.601C392.643 169.817 392.431 170.111 392.289 170.483C392.15 170.852 392.08 171.267 392.08 171.727C392.08 172.193 392.151 172.616 392.293 172.997C392.438 173.375 392.651 173.676 392.933 173.901C393.217 174.122 393.569 174.233 393.989 174.233ZM403.215 171.062V175H402.21V168.455H403.181V169.477H403.266C403.42 169.145 403.653 168.878 403.965 168.676C404.278 168.472 404.681 168.369 405.175 168.369C405.619 168.369 406.006 168.46 406.339 168.642C406.671 168.821 406.93 169.094 407.114 169.46C407.299 169.824 407.391 170.284 407.391 170.841V175H406.386V170.909C406.386 170.395 406.252 169.994 405.985 169.707C405.718 169.418 405.352 169.273 404.886 169.273C404.565 169.273 404.278 169.342 404.025 169.482C403.775 169.621 403.577 169.824 403.433 170.091C403.288 170.358 403.215 170.682 403.215 171.062ZM411.973 175.136C411.343 175.136 410.799 174.997 410.341 174.719C409.887 174.438 409.536 174.045 409.289 173.543C409.044 173.037 408.922 172.449 408.922 171.778C408.922 171.108 409.044 170.517 409.289 170.006C409.536 169.491 409.88 169.091 410.32 168.804C410.763 168.514 411.28 168.369 411.871 168.369C412.212 168.369 412.549 168.426 412.881 168.54C413.213 168.653 413.516 168.838 413.789 169.094C414.061 169.347 414.279 169.682 414.441 170.099C414.603 170.517 414.684 171.031 414.684 171.642V172.068H409.638V171.199H413.661C413.661 170.83 413.587 170.5 413.439 170.21C413.294 169.92 413.087 169.692 412.817 169.524C412.55 169.357 412.235 169.273 411.871 169.273C411.471 169.273 411.124 169.372 410.831 169.571C410.542 169.767 410.319 170.023 410.162 170.338C410.006 170.653 409.928 170.991 409.928 171.352V171.932C409.928 172.426 410.013 172.845 410.184 173.189C410.357 173.53 410.597 173.79 410.904 173.969C411.211 174.145 411.567 174.233 411.973 174.233C412.238 174.233 412.476 174.196 412.689 174.122C412.905 174.045 413.091 173.932 413.248 173.781C413.404 173.628 413.525 173.437 413.61 173.21L414.581 173.483C414.479 173.812 414.307 174.102 414.066 174.352C413.824 174.599 413.526 174.793 413.171 174.932C412.816 175.068 412.417 175.136 411.973 175.136ZM418.958 175.136C418.327 175.136 417.783 174.997 417.326 174.719C416.871 174.438 416.52 174.045 416.273 173.543C416.029 173.037 415.907 172.449 415.907 171.778C415.907 171.108 416.029 170.517 416.273 170.006C416.52 169.491 416.864 169.091 417.304 168.804C417.748 168.514 418.265 168.369 418.855 168.369C419.196 168.369 419.533 168.426 419.865 168.54C420.198 168.653 420.5 168.838 420.773 169.094C421.046 169.347 421.263 169.682 421.425 170.099C421.587 170.517 421.668 171.031 421.668 171.642V172.068H416.623V171.199H420.645C420.645 170.83 420.571 170.5 420.424 170.21C420.279 169.92 420.071 169.692 419.801 169.524C419.534 169.357 419.219 169.273 418.855 169.273C418.455 169.273 418.108 169.372 417.816 169.571C417.526 169.767 417.303 170.023 417.147 170.338C416.99 170.653 416.912 170.991 416.912 171.352V171.932C416.912 172.426 416.998 172.845 417.168 173.189C417.341 173.53 417.581 173.79 417.888 173.969C418.195 174.145 418.551 174.233 418.958 174.233C419.222 174.233 419.461 174.196 419.674 174.122C419.89 174.045 420.076 173.932 420.232 173.781C420.388 173.628 420.509 173.437 420.594 173.21L421.566 173.483C421.463 173.812 421.292 174.102 421.05 174.352C420.809 174.599 420.51 174.793 420.155 174.932C419.8 175.068 419.401 175.136 418.958 175.136ZM425.669 175.136C425.124 175.136 424.642 174.999 424.225 174.723C423.807 174.445 423.48 174.053 423.245 173.547C423.009 173.038 422.891 172.438 422.891 171.744C422.891 171.057 423.009 170.46 423.245 169.955C423.48 169.449 423.809 169.058 424.229 168.783C424.65 168.507 425.135 168.369 425.686 168.369C426.113 168.369 426.449 168.44 426.696 168.582C426.946 168.722 427.137 168.881 427.267 169.06C427.401 169.236 427.505 169.381 427.578 169.494H427.664V166.273H428.669V175H427.698V173.994H427.578C427.505 174.114 427.4 174.264 427.263 174.446C427.127 174.625 426.932 174.786 426.679 174.928C426.426 175.067 426.09 175.136 425.669 175.136ZM425.806 174.233C426.209 174.233 426.55 174.128 426.828 173.918C427.107 173.705 427.319 173.411 427.463 173.036C427.608 172.658 427.681 172.222 427.681 171.727C427.681 171.239 427.61 170.811 427.468 170.445C427.326 170.075 427.115 169.788 426.837 169.584C426.559 169.376 426.215 169.273 425.806 169.273C425.38 169.273 425.025 169.382 424.74 169.601C424.459 169.817 424.248 170.111 424.105 170.483C423.966 170.852 423.897 171.267 423.897 171.727C423.897 172.193 423.968 172.616 424.11 172.997C424.255 173.375 424.468 173.676 424.749 173.901C425.033 174.122 425.385 174.233 425.806 174.233ZM435.287 169.92L434.384 170.176C434.327 170.026 434.243 169.879 434.132 169.737C434.025 169.592 433.877 169.473 433.689 169.379C433.502 169.286 433.262 169.239 432.969 169.239C432.569 169.239 432.235 169.331 431.968 169.516C431.703 169.697 431.571 169.929 431.571 170.21C431.571 170.46 431.662 170.658 431.844 170.803C432.026 170.947 432.31 171.068 432.696 171.165L433.668 171.403C434.253 171.545 434.689 171.763 434.976 172.055C435.263 172.345 435.407 172.719 435.407 173.176C435.407 173.551 435.299 173.886 435.083 174.182C434.87 174.477 434.571 174.71 434.188 174.881C433.804 175.051 433.358 175.136 432.85 175.136C432.182 175.136 431.63 174.991 431.192 174.702C430.755 174.412 430.478 173.989 430.361 173.432L431.316 173.193C431.407 173.545 431.578 173.81 431.831 173.986C432.087 174.162 432.421 174.25 432.833 174.25C433.301 174.25 433.674 174.151 433.949 173.952C434.228 173.75 434.367 173.509 434.367 173.227C434.367 173 434.287 172.81 434.128 172.656C433.969 172.5 433.725 172.384 433.395 172.307L432.304 172.051C431.705 171.909 431.265 171.689 430.983 171.391C430.705 171.089 430.566 170.713 430.566 170.261C430.566 169.892 430.669 169.565 430.877 169.281C431.087 168.997 431.373 168.774 431.733 168.612C432.097 168.45 432.509 168.369 432.969 168.369C433.617 168.369 434.125 168.511 434.495 168.795C434.867 169.08 435.131 169.455 435.287 169.92Z" fill="white"/>
</svg>
