<svg width="375" height="343" viewBox="0 0 375 343" fill="none" xmlns="http://www.w3.org/2000/svg">
<path d="M10.782 9.756H10.728L9.81 11.592L7.362 16.038L4.968 11.61L4.014 9.63H3.96V18H1.386V5.436H4.284L7.362 11.322H7.398L10.44 5.436H13.356V18H10.782V9.756ZM21.768 8.55H24.252L20.616 19.458C20.376 20.19 20.034 20.73 19.59 21.078C19.158 21.426 18.534 21.6 17.718 21.6H16.062V19.53H17.844L18.168 18.486L14.856 8.55H17.502L18.888 12.96L19.572 15.696H19.68L20.382 12.96L21.768 8.55ZM39.3992 9.756H39.3452L38.4272 11.592L35.9792 16.038L33.5852 11.61L32.6312 9.63H32.5772V18H30.0032V5.436H32.9012L35.9792 11.322H36.0152L39.0572 5.436H41.9732V18H39.3992V9.756ZM48.5492 18.216C47.8292 18.216 47.1872 18.102 46.6232 17.874C46.0592 17.634 45.5792 17.304 45.1832 16.884C44.7992 16.452 44.5052 15.93 44.3012 15.318C44.1092 14.706 44.0132 14.022 44.0132 13.266C44.0132 12.522 44.1092 11.85 44.3012 11.25C44.4932 10.638 44.7752 10.116 45.1472 9.684C45.5312 9.252 45.9992 8.922 46.5512 8.694C47.1032 8.454 47.7332 8.334 48.4412 8.334C49.2212 8.334 49.8872 8.466 50.4392 8.73C51.0032 8.994 51.4592 9.348 51.8072 9.792C52.1672 10.236 52.4252 10.752 52.5812 11.34C52.7492 11.916 52.8332 12.522 52.8332 13.158V13.95H46.7672V14.094C46.7672 14.718 46.9352 15.216 47.2712 15.588C47.6072 15.948 48.1352 16.128 48.8552 16.128C49.4072 16.128 49.8572 16.02 50.2052 15.804C50.5532 15.576 50.8772 15.306 51.1772 14.994L52.5092 16.65C52.0892 17.142 51.5372 17.526 50.8532 17.802C50.1812 18.078 49.4132 18.216 48.5492 18.216ZM48.4952 10.296C47.9552 10.296 47.5292 10.476 47.2172 10.836C46.9172 11.184 46.7672 11.652 46.7672 12.24V12.384H50.0792V12.222C50.0792 11.646 49.9472 11.184 49.6832 10.836C49.4312 10.476 49.0352 10.296 48.4952 10.296ZM54.7147 18V8.55H57.3787V10.152H57.4867C57.6547 9.66 57.9487 9.234 58.3687 8.874C58.7887 8.514 59.3707 8.334 60.1147 8.334C61.0867 8.334 61.8187 8.658 62.3107 9.306C62.8147 9.954 63.0667 10.878 63.0667 12.078V18H60.4027V12.294C60.4027 11.682 60.3067 11.232 60.1147 10.944C59.9227 10.644 59.5807 10.494 59.0887 10.494C58.8727 10.494 58.6627 10.524 58.4587 10.584C58.2547 10.632 58.0687 10.716 57.9007 10.836C57.7447 10.956 57.6187 11.106 57.5227 11.286C57.4267 11.454 57.3787 11.652 57.3787 11.88V18H54.7147ZM68.7493 18C67.8253 18 67.1233 17.766 66.6433 17.298C66.1753 16.83 65.9413 16.146 65.9413 15.246V10.62H64.6093V8.55H65.2753C65.6353 8.55 65.8813 8.466 66.0133 8.298C66.1453 8.118 66.2113 7.866 66.2113 7.542V5.994H68.6053V8.55H70.4773V10.62H68.6053V15.93H70.3333V18H68.7493ZM76.0916 18.216C75.3956 18.216 74.7716 18.102 74.2196 17.874C73.6796 17.646 73.2176 17.316 72.8336 16.884C72.4616 16.452 72.1736 15.93 71.9696 15.318C71.7656 14.706 71.6636 14.022 71.6636 13.266C71.6636 12.51 71.7656 11.826 71.9696 11.214C72.1736 10.602 72.4616 10.086 72.8336 9.666C73.2176 9.234 73.6796 8.904 74.2196 8.676C74.7716 8.448 75.3956 8.334 76.0916 8.334C76.7876 8.334 77.4056 8.448 77.9456 8.676C78.4976 8.904 78.9596 9.234 79.3316 9.666C79.7156 10.086 80.0096 10.602 80.2136 11.214C80.4176 11.826 80.5196 12.51 80.5196 13.266C80.5196 14.022 80.4176 14.706 80.2136 15.318C80.0096 15.93 79.7156 16.452 79.3316 16.884C78.9596 17.316 78.4976 17.646 77.9456 17.874C77.4056 18.102 76.7876 18.216 76.0916 18.216ZM76.0916 16.11C76.6196 16.11 77.0276 15.948 77.3156 15.624C77.6036 15.3 77.7476 14.838 77.7476 14.238V12.312C77.7476 11.712 77.6036 11.25 77.3156 10.926C77.0276 10.602 76.6196 10.44 76.0916 10.44C75.5636 10.44 75.1556 10.602 74.8676 10.926C74.5796 11.25 74.4356 11.712 74.4356 12.312V14.238C74.4356 14.838 74.5796 15.3 74.8676 15.624C75.1556 15.948 75.5636 16.11 76.0916 16.11ZM82.4178 18V8.55H85.0818V10.602H85.1718C85.2198 10.338 85.3038 10.086 85.4238 9.846C85.5438 9.594 85.6998 9.372 85.8918 9.18C86.0958 8.988 86.3358 8.838 86.6118 8.73C86.8878 8.61 87.2118 8.55 87.5838 8.55H88.0518V11.034H87.3858C86.6058 11.034 86.0238 11.136 85.6398 11.34C85.2678 11.544 85.0818 11.922 85.0818 12.474V18H82.4178ZM92.8991 18.216C91.9871 18.216 91.2191 18.072 90.5951 17.784C89.9711 17.484 89.4131 17.064 88.9211 16.524L90.4871 14.94C90.8231 15.312 91.1951 15.606 91.6031 15.822C92.0111 16.038 92.4731 16.146 92.9891 16.146C93.5171 16.146 93.8831 16.068 94.0871 15.912C94.2911 15.744 94.3931 15.522 94.3931 15.246C94.3931 14.802 94.0751 14.538 93.4391 14.454L92.4131 14.328C90.2891 14.064 89.2271 13.092 89.2271 11.412C89.2271 10.956 89.3111 10.542 89.4791 10.17C89.6591 9.786 89.9051 9.462 90.2171 9.198C90.5411 8.922 90.9251 8.712 91.3691 8.568C91.8251 8.412 92.3351 8.334 92.8991 8.334C93.3911 8.334 93.8231 8.37 94.1951 8.442C94.5791 8.502 94.9151 8.598 95.2031 8.73C95.5031 8.85 95.7731 9.006 96.0131 9.198C96.2651 9.378 96.5111 9.582 96.7511 9.81L95.2211 11.376C94.9211 11.076 94.5791 10.842 94.1951 10.674C93.8231 10.494 93.4391 10.404 93.0431 10.404C92.5871 10.404 92.2631 10.476 92.0711 10.62C91.8791 10.764 91.7831 10.956 91.7831 11.196C91.7831 11.448 91.8491 11.646 91.9811 11.79C92.1251 11.922 92.3891 12.018 92.7731 12.078L93.8351 12.222C95.9111 12.498 96.9491 13.446 96.9491 15.066C96.9491 15.522 96.8531 15.942 96.6611 16.326C96.4691 16.71 96.1931 17.046 95.8331 17.334C95.4851 17.61 95.0591 17.826 94.5551 17.982C94.0631 18.138 93.5111 18.216 92.8991 18.216ZM98.7654 4.68H101.429V10.152H101.537C101.705 9.66 101.999 9.234 102.419 8.874C102.839 8.514 103.421 8.334 104.165 8.334C105.137 8.334 105.869 8.658 106.361 9.306C106.865 9.954 107.117 10.878 107.117 12.078V18H104.453V12.294C104.453 11.682 104.357 11.232 104.165 10.944C103.973 10.644 103.631 10.494 103.139 10.494C102.923 10.494 102.713 10.524 102.509 10.584C102.305 10.632 102.119 10.716 101.951 10.836C101.795 10.956 101.669 11.106 101.573 11.286C101.477 11.454 101.429 11.652 101.429 11.88V18H98.7654V4.68ZM110.82 7.542C110.28 7.542 109.884 7.422 109.632 7.182C109.392 6.93 109.272 6.612 109.272 6.228V5.832C109.272 5.448 109.392 5.136 109.632 4.896C109.884 4.644 110.28 4.518 110.82 4.518C111.36 4.518 111.75 4.644 111.99 4.896C112.242 5.136 112.368 5.448 112.368 5.832V6.228C112.368 6.612 112.242 6.93 111.99 7.182C111.75 7.422 111.36 7.542 110.82 7.542ZM109.488 8.55H112.152V18H109.488V8.55ZM114.638 8.55H117.302V10.134H117.392C117.524 9.606 117.824 9.174 118.292 8.838C118.772 8.502 119.318 8.334 119.93 8.334C121.13 8.334 122.036 8.754 122.648 9.594C123.26 10.434 123.566 11.658 123.566 13.266C123.566 14.874 123.26 16.104 122.648 16.956C122.036 17.796 121.13 18.216 119.93 18.216C119.618 18.216 119.324 18.168 119.048 18.072C118.772 17.988 118.52 17.868 118.292 17.712C118.076 17.544 117.89 17.352 117.734 17.136C117.578 16.908 117.464 16.668 117.392 16.416H117.302V21.6H114.638V8.55ZM119.048 16.056C119.552 16.056 119.966 15.882 120.29 15.534C120.626 15.174 120.794 14.694 120.794 14.094V12.456C120.794 11.856 120.626 11.382 120.29 11.034C119.966 10.674 119.552 10.494 119.048 10.494C118.544 10.494 118.124 10.62 117.788 10.872C117.464 11.112 117.302 11.448 117.302 11.88V14.67C117.302 15.102 117.464 15.444 117.788 15.696C118.124 15.936 118.544 16.056 119.048 16.056ZM137.728 18L136.828 15.012H132.634L131.734 18H128.962L133.102 5.436H136.486L140.572 18H137.728ZM134.758 7.92H134.668L133.282 12.69H136.162L134.758 7.92ZM145.982 18.216C145.274 18.216 144.644 18.102 144.092 17.874C143.54 17.634 143.078 17.304 142.706 16.884C142.334 16.452 142.052 15.93 141.86 15.318C141.668 14.706 141.572 14.022 141.572 13.266C141.572 12.51 141.668 11.832 141.86 11.232C142.052 10.62 142.334 10.098 142.706 9.666C143.078 9.234 143.54 8.904 144.092 8.676C144.644 8.448 145.274 8.334 145.982 8.334C146.942 8.334 147.74 8.55 148.376 8.982C149.024 9.414 149.486 10.02 149.762 10.8L147.602 11.736C147.518 11.376 147.344 11.07 147.08 10.818C146.816 10.566 146.45 10.44 145.982 10.44C145.442 10.44 145.034 10.62 144.758 10.98C144.482 11.328 144.344 11.802 144.344 12.402V14.166C144.344 14.766 144.482 15.24 144.758 15.588C145.034 15.936 145.442 16.11 145.982 16.11C146.462 16.11 146.84 15.984 147.116 15.732C147.404 15.468 147.614 15.126 147.746 14.706L149.816 15.606C149.504 16.506 149.018 17.166 148.358 17.586C147.71 18.006 146.918 18.216 145.982 18.216ZM154.777 18C153.853 18 153.151 17.766 152.671 17.298C152.203 16.83 151.969 16.146 151.969 15.246V10.62H150.637V8.55H151.303C151.663 8.55 151.909 8.466 152.041 8.298C152.173 8.118 152.239 7.866 152.239 7.542V5.994H154.633V8.55H156.505V10.62H154.633V15.93H156.361V18H154.777ZM159.687 7.542C159.147 7.542 158.751 7.422 158.499 7.182C158.259 6.93 158.139 6.612 158.139 6.228V5.832C158.139 5.448 158.259 5.136 158.499 4.896C158.751 4.644 159.147 4.518 159.687 4.518C160.227 4.518 160.617 4.644 160.857 4.896C161.109 5.136 161.235 5.448 161.235 5.832V6.228C161.235 6.612 161.109 6.93 160.857 7.182C160.617 7.422 160.227 7.542 159.687 7.542ZM158.355 8.55H161.019V18H158.355V8.55ZM165.522 18L162.426 8.55H165.054L166.224 12.366L167.106 15.786H167.25L168.132 12.366L169.266 8.55H171.786L168.69 18H165.522ZM174.523 7.542C173.983 7.542 173.587 7.422 173.335 7.182C173.095 6.93 172.975 6.612 172.975 6.228V5.832C172.975 5.448 173.095 5.136 173.335 4.896C173.587 4.644 173.983 4.518 174.523 4.518C175.063 4.518 175.453 4.644 175.693 4.896C175.945 5.136 176.071 5.448 176.071 5.832V6.228C176.071 6.612 175.945 6.93 175.693 7.182C175.453 7.422 175.063 7.542 174.523 7.542ZM173.191 8.55H175.855V18H173.191V8.55ZM181.654 18C180.73 18 180.028 17.766 179.548 17.298C179.08 16.83 178.846 16.146 178.846 15.246V10.62H177.514V8.55H178.18C178.54 8.55 178.786 8.466 178.918 8.298C179.05 8.118 179.116 7.866 179.116 7.542V5.994H181.51V8.55H183.382V10.62H181.51V15.93H183.238V18H181.654ZM191.01 8.55H193.494L189.858 19.458C189.618 20.19 189.276 20.73 188.832 21.078C188.4 21.426 187.776 21.6 186.96 21.6H185.304V19.53H187.086L187.41 18.486L184.098 8.55H186.744L188.13 12.96L188.814 15.696H188.922L189.624 12.96L191.01 8.55Z" fill="#CBD5E0"/>
<rect x="34" y="236" width="12" height="50" fill="#9F7AEA"/>
<rect x="34" y="176" width="12" height="60" fill="#CBD5E0"/>
<path d="M43.7311 300.928C43.7311 301.76 43.6085 302.544 43.3631 303.28C43.1178 304.005 42.7978 304.672 42.4031 305.28C42.0191 305.877 41.5925 306.411 41.1231 306.88C40.6538 307.339 40.1951 307.712 39.7471 308H38.0191C38.6165 307.563 39.1498 307.136 39.6191 306.72C40.0885 306.304 40.4991 305.872 40.8511 305.424C41.2031 304.965 41.5018 304.48 41.7471 303.968C41.9925 303.445 42.1898 302.859 42.3391 302.208L42.2591 302.176C41.9925 302.635 41.6458 303.019 41.2191 303.328C40.8031 303.627 40.2538 303.776 39.5711 303.776C39.0911 303.776 38.6485 303.696 38.2431 303.536C37.8378 303.376 37.4911 303.147 37.2031 302.848C36.9151 302.549 36.6858 302.192 36.5151 301.776C36.3551 301.349 36.2751 300.869 36.2751 300.336C36.2751 299.792 36.3605 299.296 36.5311 298.848C36.7125 298.389 36.9631 298 37.2831 297.68C37.6138 297.349 38.0031 297.093 38.4511 296.912C38.9098 296.731 39.4218 296.64 39.9871 296.64C40.5631 296.64 41.0805 296.741 41.5391 296.944C42.0085 297.136 42.4031 297.419 42.7231 297.792C43.0538 298.155 43.3045 298.603 43.4751 299.136C43.6458 299.669 43.7311 300.267 43.7311 300.928ZM40.0031 302.64C40.7391 302.64 41.3098 302.437 41.7151 302.032C42.1311 301.627 42.3391 301.045 42.3391 300.288V300.16C42.3391 299.403 42.1311 298.821 41.7151 298.416C41.3098 298.011 40.7391 297.808 40.0031 297.808C39.2671 297.808 38.6911 298.011 38.2751 298.416C37.8698 298.821 37.6671 299.403 37.6671 300.16V300.288C37.6671 301.045 37.8698 301.627 38.2751 302.032C38.6911 302.437 39.2671 302.64 40.0031 302.64Z" fill="#CBD5E0"/>
<rect x="66" y="221" width="12" height="65" fill="#9F7AEA"/>
<path d="M63.8143 308V306.816H66.9343V297.824H66.8223L64.0063 300.448L63.2223 299.6L66.1823 296.832H68.2783V306.816H71.1583V308H63.8143ZM76.8 308.192C75.4667 308.192 74.4907 307.685 73.872 306.672C73.264 305.659 72.96 304.24 72.96 302.416C72.96 300.592 73.264 299.173 73.872 298.16C74.4907 297.147 75.4667 296.64 76.8 296.64C78.1333 296.64 79.104 297.147 79.712 298.16C80.3307 299.173 80.64 300.592 80.64 302.416C80.64 304.24 80.3307 305.659 79.712 306.672C79.104 307.685 78.1333 308.192 76.8 308.192ZM76.8 307.024C77.2373 307.024 77.6107 306.933 77.92 306.752C78.2293 306.571 78.48 306.315 78.672 305.984C78.864 305.653 79.0027 305.264 79.088 304.816C79.184 304.368 79.232 303.872 79.232 303.328V301.504C79.232 300.96 79.184 300.464 79.088 300.016C79.0027 299.568 78.864 299.179 78.672 298.848C78.48 298.517 78.2293 298.261 77.92 298.08C77.6107 297.899 77.2373 297.808 76.8 297.808C76.3627 297.808 75.9893 297.899 75.68 298.08C75.3707 298.261 75.12 298.517 74.928 298.848C74.736 299.179 74.592 299.568 74.496 300.016C74.4107 300.464 74.368 300.96 74.368 301.504V303.328C74.368 303.872 74.4107 304.368 74.496 304.816C74.592 305.264 74.736 305.653 74.928 305.984C75.12 306.315 75.3707 306.571 75.68 306.752C75.9893 306.933 76.3627 307.024 76.8 307.024Z" fill="#CBD5E0"/>
<rect x="98" y="221" width="12" height="65" fill="#9F7AEA"/>
<path d="M95.8143 308V306.816H98.9343V297.824H98.8223L96.0063 300.448L95.2223 299.6L98.1823 296.832H100.278V306.816H103.158V308H95.8143ZM105.408 308V306.816H108.528V297.824H108.416L105.6 300.448L104.816 299.6L107.776 296.832H109.872V306.816H112.752V308H105.408Z" fill="#CBD5E0"/>
<rect x="130" y="221" width="12" height="65" fill="#9F7AEA"/>
<path d="M127.814 308V306.816H130.934V297.824H130.822L128.006 300.448L127.222 299.6L130.182 296.832H132.278V306.816H135.158V308H127.814ZM144.528 308H137.2V306.624L140.848 303.264C141.371 302.784 141.808 302.277 142.16 301.744C142.512 301.2 142.688 300.656 142.688 300.112V299.92C142.688 299.301 142.517 298.8 142.176 298.416C141.835 298.032 141.317 297.84 140.624 297.84C140.283 297.84 139.984 297.888 139.728 297.984C139.472 298.08 139.248 298.213 139.056 298.384C138.875 298.555 138.72 298.757 138.592 298.992C138.475 299.216 138.379 299.461 138.304 299.728L137.104 299.264C137.211 298.933 137.355 298.613 137.536 298.304C137.728 297.984 137.963 297.701 138.24 297.456C138.528 297.211 138.869 297.013 139.264 296.864C139.669 296.715 140.144 296.64 140.688 296.64C141.232 296.64 141.717 296.72 142.144 296.88C142.571 297.04 142.928 297.264 143.216 297.552C143.504 297.84 143.723 298.181 143.872 298.576C144.032 298.971 144.112 299.408 144.112 299.888C144.112 300.325 144.048 300.731 143.92 301.104C143.803 301.477 143.637 301.835 143.424 302.176C143.211 302.507 142.949 302.832 142.64 303.152C142.341 303.472 142.016 303.792 141.664 304.112L138.656 306.816H144.528V308Z" fill="#CBD5E0"/>
<rect x="162" y="221" width="12" height="65" fill="#9F7AEA"/>
<path d="M164.611 308V306.816H167.731V297.824H167.619L164.803 300.448L164.019 299.6L166.979 296.832H169.075V306.816H171.955V308H164.611Z" fill="#CBD5E0"/>
<rect x="194" y="221" width="12" height="65" fill="#9F7AEA"/>
<path d="M203.731 308H196.403V306.624L200.051 303.264C200.574 302.784 201.011 302.277 201.363 301.744C201.715 301.2 201.891 300.656 201.891 300.112V299.92C201.891 299.301 201.72 298.8 201.379 298.416C201.038 298.032 200.52 297.84 199.827 297.84C199.486 297.84 199.187 297.888 198.931 297.984C198.675 298.08 198.451 298.213 198.259 298.384C198.078 298.555 197.923 298.757 197.795 298.992C197.678 299.216 197.582 299.461 197.507 299.728L196.307 299.264C196.414 298.933 196.558 298.613 196.739 298.304C196.931 297.984 197.166 297.701 197.443 297.456C197.731 297.211 198.072 297.013 198.467 296.864C198.872 296.715 199.347 296.64 199.891 296.64C200.435 296.64 200.92 296.72 201.347 296.88C201.774 297.04 202.131 297.264 202.419 297.552C202.707 297.84 202.926 298.181 203.075 298.576C203.235 298.971 203.315 299.408 203.315 299.888C203.315 300.325 203.251 300.731 203.123 301.104C203.006 301.477 202.84 301.835 202.627 302.176C202.414 302.507 202.152 302.832 201.843 303.152C201.544 303.472 201.219 303.792 200.867 304.112L197.859 306.816H203.731V308Z" fill="#CBD5E0"/>
<rect x="226" y="221" width="12" height="65" fill="#9F7AEA"/>
<path d="M231.379 301.568C232.136 301.568 232.702 301.397 233.075 301.056C233.459 300.704 233.651 300.256 233.651 299.712V299.6C233.651 299.013 233.464 298.576 233.091 298.288C232.728 297.989 232.248 297.84 231.651 297.84C231.075 297.84 230.606 297.968 230.243 298.224C229.88 298.469 229.582 298.805 229.347 299.232L228.355 298.464C228.494 298.24 228.659 298.021 228.851 297.808C229.054 297.584 229.288 297.387 229.555 297.216C229.822 297.045 230.131 296.907 230.483 296.8C230.835 296.693 231.235 296.64 231.683 296.64C232.152 296.64 232.595 296.704 233.011 296.832C233.427 296.949 233.784 297.131 234.083 297.376C234.392 297.611 234.632 297.904 234.803 298.256C234.984 298.608 235.075 299.008 235.075 299.456C235.075 299.819 235.016 300.144 234.899 300.432C234.792 300.72 234.643 300.971 234.451 301.184C234.259 301.397 234.03 301.579 233.763 301.728C233.507 301.877 233.23 301.989 232.931 302.064V302.128C233.23 302.192 233.518 302.299 233.795 302.448C234.083 302.587 234.334 302.773 234.547 303.008C234.771 303.232 234.947 303.509 235.075 303.84C235.214 304.16 235.283 304.528 235.283 304.944C235.283 305.424 235.192 305.867 235.011 306.272C234.83 306.667 234.574 307.008 234.243 307.296C233.912 307.573 233.512 307.792 233.043 307.952C232.574 308.112 232.056 308.192 231.491 308.192C231.011 308.192 230.584 308.139 230.211 308.032C229.838 307.925 229.507 307.781 229.219 307.6C228.931 307.419 228.675 307.216 228.451 306.992C228.238 306.768 228.046 306.533 227.875 306.288L228.883 305.52C229.022 305.744 229.171 305.947 229.331 306.128C229.502 306.309 229.688 306.464 229.891 306.592C230.094 306.72 230.323 306.821 230.579 306.896C230.835 306.96 231.134 306.992 231.475 306.992C232.264 306.992 232.862 306.816 233.267 306.464C233.672 306.101 233.875 305.589 233.875 304.928V304.8C233.875 304.139 233.672 303.632 233.267 303.28C232.862 302.917 232.264 302.736 231.475 302.736H230.163V301.568H231.379Z" fill="#CBD5E0"/>
<rect x="258" y="226" width="12" height="60" fill="#9F7AEA"/>
<path d="M265.203 308V305.808H259.811V304.624L264.483 296.832H266.483V304.688H268.099V305.808H266.483V308H265.203ZM261.075 304.688H265.203V297.872H265.123L261.075 304.688Z" fill="#CBD5E0"/>
<rect x="290" y="226" width="12" height="60" fill="#9F7AEA"/>
<path d="M299.171 298.016H294.275L293.955 302.272H294.067C294.334 301.899 294.632 301.6 294.963 301.376C295.304 301.152 295.768 301.04 296.355 301.04C296.835 301.04 297.278 301.12 297.683 301.28C298.088 301.44 298.44 301.669 298.739 301.968C299.038 302.256 299.267 302.613 299.427 303.04C299.598 303.467 299.683 303.952 299.683 304.496C299.683 305.04 299.598 305.541 299.427 306C299.256 306.448 299.006 306.837 298.675 307.168C298.355 307.488 297.96 307.739 297.491 307.92C297.032 308.101 296.51 308.192 295.923 308.192C295.454 308.192 295.038 308.139 294.675 308.032C294.323 307.925 294.008 307.781 293.731 307.6C293.454 307.419 293.208 307.216 292.995 306.992C292.792 306.768 292.606 306.533 292.435 306.288L293.443 305.52C293.582 305.744 293.726 305.947 293.875 306.128C294.035 306.309 294.206 306.464 294.387 306.592C294.579 306.72 294.798 306.821 295.043 306.896C295.288 306.96 295.582 306.992 295.923 306.992C296.691 306.992 297.272 306.789 297.667 306.384C298.062 305.979 298.259 305.408 298.259 304.672V304.512C298.259 303.776 298.062 303.205 297.667 302.8C297.272 302.395 296.691 302.192 295.923 302.192C295.411 302.192 295.006 302.288 294.707 302.48C294.419 302.661 294.158 302.88 293.923 303.136L292.787 302.976L293.187 296.832H299.171V298.016Z" fill="#CBD5E0"/>
<rect x="322" y="221" width="12" height="65" fill="#9F7AEA"/>
<path d="M328.019 308.192C327.443 308.192 326.92 308.096 326.451 307.904C325.992 307.701 325.598 307.419 325.267 307.056C324.947 306.683 324.702 306.229 324.531 305.696C324.36 305.163 324.275 304.565 324.275 303.904C324.275 303.072 324.398 302.293 324.643 301.568C324.888 300.832 325.203 300.165 325.587 299.568C325.982 298.96 326.414 298.427 326.883 297.968C327.352 297.499 327.811 297.12 328.259 296.832H329.987C329.39 297.269 328.856 297.696 328.387 298.112C327.918 298.528 327.507 298.965 327.155 299.424C326.803 299.872 326.504 300.357 326.259 300.88C326.014 301.392 325.816 301.973 325.667 302.624L325.747 302.656C326.014 302.197 326.355 301.819 326.771 301.52C327.198 301.211 327.752 301.056 328.435 301.056C328.915 301.056 329.358 301.136 329.763 301.296C330.168 301.456 330.515 301.685 330.803 301.984C331.091 302.283 331.315 302.645 331.475 303.072C331.646 303.499 331.731 303.973 331.731 304.496C331.731 305.04 331.64 305.541 331.459 306C331.288 306.448 331.038 306.837 330.707 307.168C330.387 307.488 329.998 307.739 329.539 307.92C329.08 308.101 328.574 308.192 328.019 308.192ZM328.003 307.024C328.739 307.024 329.31 306.821 329.715 306.416C330.131 306.011 330.339 305.429 330.339 304.672V304.544C330.339 303.787 330.131 303.205 329.715 302.8C329.31 302.395 328.739 302.192 328.003 302.192C327.267 302.192 326.691 302.395 326.275 302.8C325.87 303.205 325.667 303.787 325.667 304.544V304.672C325.667 305.429 325.87 306.011 326.275 306.416C326.691 306.821 327.267 307.024 328.003 307.024Z" fill="#CBD5E0"/>
<rect x="354" y="221" width="12" height="65" fill="#9F7AEA"/>
<path d="M358.003 308L362.275 297.984H357.507V300.064H356.307V296.832H363.635V298.016L359.443 308H358.003Z" fill="#CBD5E0"/>
<line x1="20" y1="286.5" x2="375" y2="286.5" stroke="#CBD5E0"/>
<line x1="20" y1="236.5" x2="25" y2="236.5" stroke="#CBD5E0"/>
<line x1="20" y1="186.5" x2="25" y2="186.5" stroke="#CBD5E0"/>
<line x1="20" y1="136.5" x2="25" y2="136.5" stroke="#CBD5E0"/>
<line x1="20" y1="86.5" x2="25" y2="86.5" stroke="#CBD5E0"/>
<path d="M14.4047 290.144C13.4047 290.144 12.6727 289.764 12.2087 289.004C11.7527 288.244 11.5247 287.18 11.5247 285.812C11.5247 284.444 11.7527 283.38 12.2087 282.62C12.6727 281.86 13.4047 281.48 14.4047 281.48C15.4047 281.48 16.1327 281.86 16.5887 282.62C17.0527 283.38 17.2847 284.444 17.2847 285.812C17.2847 287.18 17.0527 288.244 16.5887 289.004C16.1327 289.764 15.4047 290.144 14.4047 290.144ZM14.4047 289.268C14.7327 289.268 15.0127 289.2 15.2447 289.064C15.4767 288.928 15.6647 288.736 15.8087 288.488C15.9527 288.24 16.0567 287.948 16.1207 287.612C16.1927 287.276 16.2287 286.904 16.2287 286.496V285.128C16.2287 284.72 16.1927 284.348 16.1207 284.012C16.0567 283.676 15.9527 283.384 15.8087 283.136C15.6647 282.888 15.4767 282.696 15.2447 282.56C15.0127 282.424 14.7327 282.356 14.4047 282.356C14.0767 282.356 13.7967 282.424 13.5647 282.56C13.3327 282.696 13.1447 282.888 13.0007 283.136C12.8567 283.384 12.7487 283.676 12.6767 284.012C12.6127 284.348 12.5807 284.72 12.5807 285.128V286.496C12.5807 286.904 12.6127 287.276 12.6767 287.612C12.7487 287.948 12.8567 288.24 13.0007 288.488C13.1447 288.736 13.3327 288.928 13.5647 289.064C13.7967 289.2 14.0767 289.268 14.4047 289.268Z" fill="white"/>
<path d="M4.66538 241V240.112H7.00538V233.368H6.92138L4.80938 235.336L4.22138 234.7L6.44138 232.624H8.01338V240.112H10.1734V241H4.66538ZM14.4047 241.144C13.4047 241.144 12.6727 240.764 12.2087 240.004C11.7527 239.244 11.5247 238.18 11.5247 236.812C11.5247 235.444 11.7527 234.38 12.2087 233.62C12.6727 232.86 13.4047 232.48 14.4047 232.48C15.4047 232.48 16.1327 232.86 16.5887 233.62C17.0527 234.38 17.2847 235.444 17.2847 236.812C17.2847 238.18 17.0527 239.244 16.5887 240.004C16.1327 240.764 15.4047 241.144 14.4047 241.144ZM14.4047 240.268C14.7327 240.268 15.0127 240.2 15.2447 240.064C15.4767 239.928 15.6647 239.736 15.8087 239.488C15.9527 239.24 16.0567 238.948 16.1207 238.612C16.1927 238.276 16.2287 237.904 16.2287 237.496V236.128C16.2287 235.72 16.1927 235.348 16.1207 235.012C16.0567 234.676 15.9527 234.384 15.8087 234.136C15.6647 233.888 15.4767 233.696 15.2447 233.56C15.0127 233.424 14.7327 233.356 14.4047 233.356C14.0767 233.356 13.7967 233.424 13.5647 233.56C13.3327 233.696 13.1447 233.888 13.0007 234.136C12.8567 234.384 12.7487 234.676 12.6767 235.012C12.6127 235.348 12.5807 235.72 12.5807 236.128V237.496C12.5807 237.904 12.6127 238.276 12.6767 238.612C12.7487 238.948 12.8567 239.24 13.0007 239.488C13.1447 239.736 13.3327 239.928 13.5647 240.064C13.7967 240.2 14.0767 240.268 14.4047 240.268Z" fill="white"/>
<path d="M8.10938 91V89.356H4.06538V88.468L7.56938 82.624H9.06938V88.516H10.2814V89.356H9.06938V91H8.10938ZM5.01338 88.516H8.10938V83.404H8.04938L5.01338 88.516ZM14.4047 91.144C13.4047 91.144 12.6727 90.764 12.2087 90.004C11.7527 89.244 11.5247 88.18 11.5247 86.812C11.5247 85.444 11.7527 84.38 12.2087 83.62C12.6727 82.86 13.4047 82.48 14.4047 82.48C15.4047 82.48 16.1327 82.86 16.5887 83.62C17.0527 84.38 17.2847 85.444 17.2847 86.812C17.2847 88.18 17.0527 89.244 16.5887 90.004C16.1327 90.764 15.4047 91.144 14.4047 91.144ZM14.4047 90.268C14.7327 90.268 15.0127 90.2 15.2447 90.064C15.4767 89.928 15.6647 89.736 15.8087 89.488C15.9527 89.24 16.0567 88.948 16.1207 88.612C16.1927 88.276 16.2287 87.904 16.2287 87.496V86.128C16.2287 85.72 16.1927 85.348 16.1207 85.012C16.0567 84.676 15.9527 84.384 15.8087 84.136C15.6647 83.888 15.4767 83.696 15.2447 83.56C15.0127 83.424 14.7327 83.356 14.4047 83.356C14.0767 83.356 13.7967 83.424 13.5647 83.56C13.3327 83.696 13.1447 83.888 13.0007 84.136C12.8567 84.384 12.7487 84.676 12.6767 85.012C12.6127 85.348 12.5807 85.72 12.5807 86.128V87.496C12.5807 87.904 12.6127 88.276 12.6767 88.612C12.7487 88.948 12.8567 89.24 13.0007 89.488C13.1447 89.736 13.3327 89.928 13.5647 90.064C13.7967 90.2 14.0767 90.268 14.4047 90.268Z" fill="white"/>
<path d="M10.0054 191H4.50938V189.968L7.24538 187.448C7.63738 187.088 7.96538 186.708 8.22938 186.308C8.49338 185.9 8.62538 185.492 8.62538 185.084V184.94C8.62538 184.476 8.49738 184.1 8.24138 183.812C7.98538 183.524 7.59738 183.38 7.07738 183.38C6.82138 183.38 6.59738 183.416 6.40538 183.488C6.21338 183.56 6.04538 183.66 5.90138 183.788C5.76538 183.916 5.64938 184.068 5.55338 184.244C5.46538 184.412 5.39338 184.596 5.33738 184.796L4.43738 184.448C4.51738 184.2 4.62538 183.96 4.76138 183.728C4.90538 183.488 5.08138 183.276 5.28938 183.092C5.50538 182.908 5.76138 182.76 6.05738 182.648C6.36138 182.536 6.71738 182.48 7.12538 182.48C7.53338 182.48 7.89738 182.54 8.21738 182.66C8.53738 182.78 8.80538 182.948 9.02138 183.164C9.23738 183.38 9.40138 183.636 9.51338 183.932C9.63338 184.228 9.69338 184.556 9.69338 184.916C9.69338 185.244 9.64538 185.548 9.54938 185.828C9.46138 186.108 9.33738 186.376 9.17738 186.632C9.01738 186.88 8.82138 187.124 8.58938 187.364C8.36538 187.604 8.12138 187.844 7.85738 188.084L5.60138 190.112H10.0054V191ZM14.4047 191.144C13.4047 191.144 12.6727 190.764 12.2087 190.004C11.7527 189.244 11.5247 188.18 11.5247 186.812C11.5247 185.444 11.7527 184.38 12.2087 183.62C12.6727 182.86 13.4047 182.48 14.4047 182.48C15.4047 182.48 16.1327 182.86 16.5887 183.62C17.0527 184.38 17.2847 185.444 17.2847 186.812C17.2847 188.18 17.0527 189.244 16.5887 190.004C16.1327 190.764 15.4047 191.144 14.4047 191.144ZM14.4047 190.268C14.7327 190.268 15.0127 190.2 15.2447 190.064C15.4767 189.928 15.6647 189.736 15.8087 189.488C15.9527 189.24 16.0567 188.948 16.1207 188.612C16.1927 188.276 16.2287 187.904 16.2287 187.496V186.128C16.2287 185.72 16.1927 185.348 16.1207 185.012C16.0567 184.676 15.9527 184.384 15.8087 184.136C15.6647 183.888 15.4767 183.696 15.2447 183.56C15.0127 183.424 14.7327 183.356 14.4047 183.356C14.0767 183.356 13.7967 183.424 13.5647 183.56C13.3327 183.696 13.1447 183.888 13.0007 184.136C12.8567 184.384 12.7487 184.676 12.6767 185.012C12.6127 185.348 12.5807 185.72 12.5807 186.128V187.496C12.5807 187.904 12.6127 188.276 12.6767 188.612C12.7487 188.948 12.8567 189.24 13.0007 189.488C13.1447 189.736 13.3327 189.928 13.5647 190.064C13.7967 190.2 14.0767 190.268 14.4047 190.268Z" fill="white"/>
<path d="M6.74138 136.176C7.30938 136.176 7.73338 136.048 8.01338 135.792C8.30138 135.528 8.44538 135.192 8.44538 134.784V134.7C8.44538 134.26 8.30538 133.932 8.02538 133.716C7.75338 133.492 7.39338 133.38 6.94538 133.38C6.51338 133.38 6.16138 133.476 5.88938 133.668C5.61738 133.852 5.39338 134.104 5.21738 134.424L4.47338 133.848C4.57738 133.68 4.70138 133.516 4.84538 133.356C4.99738 133.188 5.17338 133.04 5.37337 132.912C5.57338 132.784 5.80538 132.68 6.06938 132.6C6.33338 132.52 6.63338 132.48 6.96938 132.48C7.32138 132.48 7.65338 132.528 7.96538 132.624C8.27738 132.712 8.54538 132.848 8.76938 133.032C9.00138 133.208 9.18138 133.428 9.30938 133.692C9.44538 133.956 9.51338 134.256 9.51338 134.592C9.51338 134.864 9.46938 135.108 9.38138 135.324C9.30138 135.54 9.18938 135.728 9.04538 135.888C8.90138 136.048 8.72938 136.184 8.52938 136.296C8.33738 136.408 8.12938 136.492 7.90538 136.548V136.596C8.12938 136.644 8.34538 136.724 8.55338 136.836C8.76938 136.94 8.95738 137.08 9.11738 137.256C9.28538 137.424 9.41738 137.632 9.51338 137.88C9.61738 138.12 9.66937 138.396 9.66937 138.708C9.66937 139.068 9.60138 139.4 9.46538 139.704C9.32938 140 9.13738 140.256 8.88938 140.472C8.64138 140.68 8.34138 140.844 7.98938 140.964C7.63738 141.084 7.24938 141.144 6.82538 141.144C6.46538 141.144 6.14538 141.104 5.86538 141.024C5.58538 140.944 5.33738 140.836 5.12138 140.7C4.90538 140.564 4.71338 140.412 4.54538 140.244C4.38538 140.076 4.24138 139.9 4.11338 139.716L4.86938 139.14C4.97338 139.308 5.08538 139.46 5.20538 139.596C5.33338 139.732 5.47338 139.848 5.62538 139.944C5.77738 140.04 5.94938 140.116 6.14138 140.172C6.33338 140.22 6.55738 140.244 6.81338 140.244C7.40538 140.244 7.85338 140.112 8.15738 139.848C8.46138 139.576 8.61338 139.192 8.61338 138.696V138.6C8.61338 138.104 8.46138 137.724 8.15738 137.46C7.85338 137.188 7.40538 137.052 6.81338 137.052H5.82938V136.176H6.74138ZM14.4047 141.144C13.4047 141.144 12.6727 140.764 12.2087 140.004C11.7527 139.244 11.5247 138.18 11.5247 136.812C11.5247 135.444 11.7527 134.38 12.2087 133.62C12.6727 132.86 13.4047 132.48 14.4047 132.48C15.4047 132.48 16.1327 132.86 16.5887 133.62C17.0527 134.38 17.2847 135.444 17.2847 136.812C17.2847 138.18 17.0527 139.244 16.5887 140.004C16.1327 140.764 15.4047 141.144 14.4047 141.144ZM14.4047 140.268C14.7327 140.268 15.0127 140.2 15.2447 140.064C15.4767 139.928 15.6647 139.736 15.8087 139.488C15.9527 139.24 16.0567 138.948 16.1207 138.612C16.1927 138.276 16.2287 137.904 16.2287 137.496V136.128C16.2287 135.72 16.1927 135.348 16.1207 135.012C16.0567 134.676 15.9527 134.384 15.8087 134.136C15.6647 133.888 15.4767 133.696 15.2447 133.56C15.0127 133.424 14.7327 133.356 14.4047 133.356C14.0767 133.356 13.7967 133.424 13.5647 133.56C13.3327 133.696 13.1447 133.888 13.0007 134.136C12.8567 134.384 12.7487 134.676 12.6767 135.012C12.6127 135.348 12.5807 135.72 12.5807 136.128V137.496C12.5807 137.904 12.6127 138.276 12.6767 138.612C12.7487 138.948 12.8567 139.24 13.0007 139.488C13.1447 139.736 13.3327 139.928 13.5647 140.064C13.7967 140.2 14.0767 140.268 14.4047 140.268Z" fill="white"/>
<path d="M39.816 339H31.912V336.808L35.352 333.864C35.6613 333.597 35.9227 333.357 36.136 333.144C36.3493 332.92 36.52 332.707 36.648 332.504C36.7867 332.291 36.8827 332.083 36.936 331.88C37 331.677 37.032 331.459 37.032 331.224V331C37.032 330.787 36.9893 330.6 36.904 330.44C36.8187 330.28 36.7067 330.147 36.568 330.04C36.4293 329.933 36.2693 329.853 36.088 329.8C35.9173 329.747 35.7413 329.72 35.56 329.72C35.2933 329.72 35.0587 329.763 34.856 329.848C34.664 329.933 34.4933 330.051 34.344 330.2C34.2053 330.339 34.088 330.504 33.992 330.696C33.896 330.877 33.8213 331.075 33.768 331.288L31.672 330.488C31.8 330.104 31.976 329.741 32.2 329.4C32.424 329.048 32.7013 328.744 33.032 328.488C33.3733 328.221 33.7733 328.013 34.232 327.864C34.6907 327.715 35.208 327.64 35.784 327.64C36.392 327.64 36.9307 327.725 37.4 327.896C37.8693 328.067 38.264 328.301 38.584 328.6C38.9147 328.899 39.1653 329.256 39.336 329.672C39.5067 330.077 39.592 330.52 39.592 331C39.592 331.48 39.512 331.917 39.352 332.312C39.192 332.707 38.9733 333.08 38.696 333.432C38.4293 333.773 38.1147 334.099 37.752 334.408C37.3893 334.717 37.0107 335.032 36.616 335.352L34.536 336.984H39.816V339ZM45.3938 339.192C43.9324 339.192 42.8498 338.685 42.1458 337.672C41.4418 336.659 41.0898 335.24 41.0898 333.416C41.0898 331.592 41.4418 330.173 42.1458 329.16C42.8498 328.147 43.9324 327.64 45.3938 327.64C46.8551 327.64 47.9378 328.147 48.6418 329.16C49.3458 330.173 49.6978 331.592 49.6978 333.416C49.6978 335.24 49.3458 336.659 48.6418 337.672C47.9378 338.685 46.8551 339.192 45.3938 339.192ZM45.3938 337.16C46.0338 337.16 46.4764 336.925 46.7218 336.456C46.9671 335.987 47.0898 335.325 47.0898 334.472V332.36C47.0898 331.507 46.9671 330.845 46.7218 330.376C46.4764 329.907 46.0338 329.672 45.3938 329.672C44.7538 329.672 44.3111 329.907 44.0658 330.376C43.8204 330.845 43.6978 331.507 43.6978 332.36V334.472C43.6978 335.325 43.8204 335.987 44.0658 336.456C44.3111 336.925 44.7538 337.16 45.3938 337.16ZM59.0035 339H51.0995V336.808L54.5395 333.864C54.8488 333.597 55.1102 333.357 55.3235 333.144C55.5368 332.92 55.7075 332.707 55.8355 332.504C55.9742 332.291 56.0702 332.083 56.1235 331.88C56.1875 331.677 56.2195 331.459 56.2195 331.224V331C56.2195 330.787 56.1768 330.6 56.0915 330.44C56.0062 330.28 55.8942 330.147 55.7555 330.04C55.6168 329.933 55.4568 329.853 55.2755 329.8C55.1048 329.747 54.9288 329.72 54.7475 329.72C54.4808 329.72 54.2462 329.763 54.0435 329.848C53.8515 329.933 53.6808 330.051 53.5315 330.2C53.3928 330.339 53.2755 330.504 53.1795 330.696C53.0835 330.877 53.0088 331.075 52.9555 331.288L50.8595 330.488C50.9875 330.104 51.1635 329.741 51.3875 329.4C51.6115 329.048 51.8888 328.744 52.2195 328.488C52.5608 328.221 52.9608 328.013 53.4195 327.864C53.8782 327.715 54.3955 327.64 54.9715 327.64C55.5795 327.64 56.1182 327.725 56.5875 327.896C57.0568 328.067 57.4515 328.301 57.7715 328.6C58.1022 328.899 58.3528 329.256 58.5235 329.672C58.6942 330.077 58.7795 330.52 58.7795 331C58.7795 331.48 58.6995 331.917 58.5395 332.312C58.3795 332.707 58.1608 333.08 57.8835 333.432C57.6168 333.773 57.3022 334.099 56.9395 334.408C56.5768 334.717 56.1982 335.032 55.8035 335.352L53.7235 336.984H59.0035V339ZM64.5813 339.192C63.1199 339.192 62.0373 338.685 61.3333 337.672C60.6293 336.659 60.2773 335.24 60.2773 333.416C60.2773 331.592 60.6293 330.173 61.3333 329.16C62.0373 328.147 63.1199 327.64 64.5813 327.64C66.0426 327.64 67.1253 328.147 67.8293 329.16C68.5333 330.173 68.8853 331.592 68.8853 333.416C68.8853 335.24 68.5333 336.659 67.8293 337.672C67.1253 338.685 66.0426 339.192 64.5813 339.192ZM64.5813 337.16C65.2213 337.16 65.6639 336.925 65.9093 336.456C66.1546 335.987 66.2773 335.325 66.2773 334.472V332.36C66.2773 331.507 66.1546 330.845 65.9093 330.376C65.6639 329.907 65.2213 329.672 64.5813 329.672C63.9413 329.672 63.4986 329.907 63.2533 330.376C63.0079 330.845 62.8853 331.507 62.8853 332.36V334.472C62.8853 335.325 63.0079 335.987 63.2533 336.456C63.4986 336.925 63.9413 337.16 64.5813 337.16Z" fill="#CBD5E0"/>
<path d="M167.816 339H159.912V336.808L163.352 333.864C163.661 333.597 163.923 333.357 164.136 333.144C164.349 332.92 164.52 332.707 164.648 332.504C164.787 332.291 164.883 332.083 164.936 331.88C165 331.677 165.032 331.459 165.032 331.224V331C165.032 330.787 164.989 330.6 164.904 330.44C164.819 330.28 164.707 330.147 164.568 330.04C164.429 329.933 164.269 329.853 164.088 329.8C163.917 329.747 163.741 329.72 163.56 329.72C163.293 329.72 163.059 329.763 162.856 329.848C162.664 329.933 162.493 330.051 162.344 330.2C162.205 330.339 162.088 330.504 161.992 330.696C161.896 330.877 161.821 331.075 161.768 331.288L159.672 330.488C159.8 330.104 159.976 329.741 160.2 329.4C160.424 329.048 160.701 328.744 161.032 328.488C161.373 328.221 161.773 328.013 162.232 327.864C162.691 327.715 163.208 327.64 163.784 327.64C164.392 327.64 164.931 327.725 165.4 327.896C165.869 328.067 166.264 328.301 166.584 328.6C166.915 328.899 167.165 329.256 167.336 329.672C167.507 330.077 167.592 330.52 167.592 331C167.592 331.48 167.512 331.917 167.352 332.312C167.192 332.707 166.973 333.08 166.696 333.432C166.429 333.773 166.115 334.099 165.752 334.408C165.389 334.717 165.011 335.032 164.616 335.352L162.536 336.984H167.816V339ZM173.394 339.192C171.932 339.192 170.85 338.685 170.146 337.672C169.442 336.659 169.09 335.24 169.09 333.416C169.09 331.592 169.442 330.173 170.146 329.16C170.85 328.147 171.932 327.64 173.394 327.64C174.855 327.64 175.938 328.147 176.642 329.16C177.346 330.173 177.698 331.592 177.698 333.416C177.698 335.24 177.346 336.659 176.642 337.672C175.938 338.685 174.855 339.192 173.394 339.192ZM173.394 337.16C174.034 337.16 174.476 336.925 174.722 336.456C174.967 335.987 175.09 335.325 175.09 334.472V332.36C175.09 331.507 174.967 330.845 174.722 330.376C174.476 329.907 174.034 329.672 173.394 329.672C172.754 329.672 172.311 329.907 172.066 330.376C171.82 330.845 171.698 331.507 171.698 332.36V334.472C171.698 335.325 171.82 335.987 172.066 336.456C172.311 336.925 172.754 337.16 173.394 337.16ZM187.003 339H179.1V336.808L182.54 333.864C182.849 333.597 183.11 333.357 183.324 333.144C183.537 332.92 183.708 332.707 183.836 332.504C183.974 332.291 184.07 332.083 184.124 331.88C184.188 331.677 184.22 331.459 184.22 331.224V331C184.22 330.787 184.177 330.6 184.092 330.44C184.006 330.28 183.894 330.147 183.756 330.04C183.617 329.933 183.457 329.853 183.276 329.8C183.105 329.747 182.929 329.72 182.748 329.72C182.481 329.72 182.246 329.763 182.044 329.848C181.852 329.933 181.681 330.051 181.532 330.2C181.393 330.339 181.276 330.504 181.18 330.696C181.084 330.877 181.009 331.075 180.956 331.288L178.86 330.488C178.988 330.104 179.164 329.741 179.388 329.4C179.612 329.048 179.889 328.744 180.22 328.488C180.561 328.221 180.961 328.013 181.42 327.864C181.878 327.715 182.396 327.64 182.972 327.64C183.58 327.64 184.118 327.725 184.588 327.896C185.057 328.067 185.452 328.301 185.772 328.6C186.102 328.899 186.353 329.256 186.524 329.672C186.694 330.077 186.78 330.52 186.78 331C186.78 331.48 186.7 331.917 186.54 332.312C186.38 332.707 186.161 333.08 185.884 333.432C185.617 333.773 185.302 334.099 184.94 334.408C184.577 334.717 184.198 335.032 183.804 335.352L181.724 336.984H187.003V339ZM189.285 339V337.064H192.293V329.576H192.149L189.877 332.552L188.341 331.352L191.013 327.832H194.693V337.064H197.061V339H189.285Z" fill="#CBD5E0"/>
<line x1="40.3153" y1="95.6119" x2="72.3153" y2="121.612" stroke="white"/>
<line x1="72.4412" y1="121.765" x2="104.441" y2="181.765" stroke="white"/>
<line x1="104.265" y1="181.576" x2="136.265" y2="201.576" stroke="white"/>
<line x1="135.788" y1="201.547" x2="167.788" y2="186.547" stroke="white"/>
<line x1="168.265" y1="186.576" x2="200.265" y2="206.576" stroke="white"/>
<line x1="232" y1="207.5" x2="200" y2="207.5" stroke="white"/>
<line x1="263.788" y1="222.453" x2="231.788" y2="207.453" stroke="white"/>
<line x1="296.39" y1="182.312" x2="264.39" y2="222.312" stroke="white"/>
<line x1="327.652" y1="213.359" x2="295.652" y2="182.359" stroke="white"/>
<line x1="360.46" y1="137.196" x2="328.46" y2="212.196" stroke="white"/>
<rect x="35" y="91" width="10" height="10" rx="5" fill="#1A202C" stroke="white" stroke-width="2"/>
<rect x="67" y="117" width="10" height="10" rx="5" fill="#1A202C" stroke="white" stroke-width="2"/>
<rect x="99" y="177" width="10" height="10" rx="5" fill="#1A202C" stroke="white" stroke-width="2"/>
<rect x="131" y="197" width="10" height="10" rx="5" fill="#1A202C" stroke="white" stroke-width="2"/>
<rect x="163" y="182" width="10" height="10" rx="5" fill="#1A202C" stroke="white" stroke-width="2"/>
<rect x="195" y="202" width="10" height="10" rx="5" fill="#1A202C" stroke="white" stroke-width="2"/>
<rect x="227" y="202" width="10" height="10" rx="5" fill="#1A202C" stroke="white" stroke-width="2"/>
<rect x="259" y="217" width="10" height="10" rx="5" fill="#1A202C" stroke="white" stroke-width="2"/>
<rect x="291" y="177" width="10" height="10" rx="5" fill="#1A202C" stroke="white" stroke-width="2"/>
<rect x="323" y="207" width="10" height="10" rx="5" fill="#1A202C" stroke="white" stroke-width="2"/>
<rect x="355" y="132" width="10" height="10" rx="5" fill="#1A202C" stroke="white" stroke-width="2"/>
<line x1="40.0772" y1="241.506" x2="72.0772" y2="246.506" stroke="#6B539D"/>
<line x1="72" y1="246.5" x2="104" y2="246.5" stroke="#6B539D"/>
<line x1="104" y1="246.5" x2="136" y2="246.5" stroke="#6B539D"/>
<line x1="136" y1="246.5" x2="168" y2="246.5" stroke="#6B539D"/>
<line x1="168.149" y1="246.523" x2="200.149" y2="256.523" stroke="#6B539D"/>
<line x1="232.077" y1="252.494" x2="200.077" y2="257.494" stroke="#6B539D"/>
<line x1="263.745" y1="271.43" x2="231.745" y2="252.43" stroke="#6B539D"/>
<line x1="296.255" y1="252.43" x2="264.255" y2="271.43" stroke="#6B539D"/>
<line x1="327.923" y1="257.494" x2="295.923" y2="252.494" stroke="#6B539D"/>
<line x1="359.865" y1="266.481" x2="327.865" y2="257.481" stroke="#6B539D"/>
<rect x="35" y="237" width="10" height="10" rx="5" fill="#9F7AEA" stroke="#6B539D" stroke-width="2"/>
<rect x="67" y="242" width="10" height="10" rx="5" fill="#9F7AEA" stroke="#6B539D" stroke-width="2"/>
<rect x="99" y="242" width="10" height="10" rx="5" fill="#9F7AEA" stroke="#6B539D" stroke-width="2"/>
<rect x="131" y="242" width="10" height="10" rx="5" fill="#9F7AEA" stroke="#6B539D" stroke-width="2"/>
<rect x="163" y="242" width="10" height="10" rx="5" fill="#9F7AEA" stroke="#6B539D" stroke-width="2"/>
<rect x="195" y="252" width="10" height="10" rx="5" fill="#9F7AEA" stroke="#6B539D" stroke-width="2"/>
<rect x="227" y="247" width="10" height="10" rx="5" fill="#9F7AEA" stroke="#6B539D" stroke-width="2"/>
<rect x="259" y="266" width="10" height="10" rx="5" fill="#9F7AEA" stroke="#6B539D" stroke-width="2"/>
<rect x="291" y="247" width="10" height="10" rx="5" fill="#9F7AEA" stroke="#6B539D" stroke-width="2"/>
<rect x="323" y="252" width="10" height="10" rx="5" fill="#9F7AEA" stroke="#6B539D" stroke-width="2"/>
<rect x="355" y="261" width="10" height="10" rx="5" fill="#9F7AEA" stroke="#6B539D" stroke-width="2"/>
<path d="M280.468 90.144C279.788 90.144 279.208 90.016 278.728 89.76C278.248 89.496 277.84 89.136 277.504 88.68L278.248 88.056C278.544 88.448 278.872 88.748 279.232 88.956C279.592 89.156 280.016 89.256 280.504 89.256C281.104 89.256 281.56 89.112 281.872 88.824C282.192 88.536 282.352 88.152 282.352 87.672C282.352 87.272 282.232 86.964 281.992 86.748C281.752 86.532 281.356 86.36 280.804 86.232L280.12 86.076C279.352 85.9 278.764 85.636 278.356 85.284C277.956 84.924 277.756 84.42 277.756 83.772C277.756 83.404 277.824 83.076 277.96 82.788C278.096 82.5 278.284 82.26 278.524 82.068C278.772 81.876 279.064 81.732 279.4 81.636C279.744 81.532 280.12 81.48 280.528 81.48C281.16 81.48 281.7 81.596 282.148 81.828C282.604 82.06 282.988 82.4 283.3 82.848L282.544 83.4C282.312 83.08 282.032 82.828 281.704 82.644C281.376 82.46 280.968 82.368 280.48 82.368C279.944 82.368 279.52 82.484 279.208 82.716C278.904 82.94 278.752 83.28 278.752 83.736C278.752 84.136 278.88 84.44 279.136 84.648C279.4 84.848 279.796 85.008 280.324 85.128L281.008 85.284C281.832 85.468 282.428 85.748 282.796 86.124C283.164 86.5 283.348 87 283.348 87.624C283.348 88.008 283.28 88.356 283.144 88.668C283.016 88.98 282.828 89.244 282.58 89.46C282.332 89.676 282.028 89.844 281.668 89.964C281.316 90.084 280.916 90.144 280.468 90.144ZM288.809 88.992H288.761C288.697 89.136 288.617 89.28 288.521 89.424C288.433 89.56 288.321 89.684 288.185 89.796C288.049 89.9 287.885 89.984 287.693 90.048C287.501 90.112 287.277 90.144 287.021 90.144C286.381 90.144 285.873 89.94 285.497 89.532C285.121 89.116 284.933 88.532 284.933 87.78V83.808H285.893V87.612C285.893 88.724 286.365 89.28 287.309 89.28C287.501 89.28 287.685 89.256 287.861 89.208C288.045 89.16 288.205 89.088 288.341 88.992C288.485 88.896 288.597 88.776 288.677 88.632C288.765 88.48 288.809 88.3 288.809 88.092V83.808H289.769V90H288.809V88.992ZM291.813 81.12H292.773V84.816H292.821C292.981 84.424 293.213 84.136 293.517 83.952C293.829 83.76 294.201 83.664 294.633 83.664C295.017 83.664 295.365 83.74 295.677 83.892C295.989 84.044 296.253 84.26 296.469 84.54C296.693 84.82 296.861 85.16 296.973 85.56C297.093 85.96 297.153 86.408 297.153 86.904C297.153 87.4 297.093 87.848 296.973 88.248C296.861 88.648 296.693 88.988 296.469 89.268C296.253 89.548 295.989 89.764 295.677 89.916C295.365 90.068 295.017 90.144 294.633 90.144C293.793 90.144 293.189 89.76 292.821 88.992H292.773V90H291.813V81.12ZM294.369 89.28C294.913 89.28 295.341 89.112 295.653 88.776C295.965 88.432 296.121 87.984 296.121 87.432V86.376C296.121 85.824 295.965 85.38 295.653 85.044C295.341 84.7 294.913 84.528 294.369 84.528C294.153 84.528 293.945 84.56 293.745 84.624C293.553 84.68 293.385 84.76 293.241 84.864C293.097 84.968 292.981 85.096 292.893 85.248C292.813 85.392 292.773 85.548 292.773 85.716V88.02C292.773 88.22 292.813 88.4 292.893 88.56C292.981 88.712 293.097 88.844 293.241 88.956C293.385 89.06 293.553 89.14 293.745 89.196C293.945 89.252 294.153 89.28 294.369 89.28ZM300.634 90.144C300.058 90.144 299.574 90.036 299.182 89.82C298.798 89.596 298.466 89.3 298.186 88.932L298.87 88.38C299.11 88.684 299.378 88.92 299.674 89.088C299.97 89.248 300.314 89.328 300.706 89.328C301.114 89.328 301.43 89.24 301.654 89.064C301.886 88.888 302.002 88.64 302.002 88.32C302.002 88.08 301.922 87.876 301.762 87.708C301.61 87.532 301.33 87.412 300.922 87.348L300.43 87.276C300.142 87.236 299.878 87.176 299.638 87.096C299.398 87.008 299.186 86.896 299.002 86.76C298.826 86.616 298.686 86.44 298.582 86.232C298.486 86.024 298.438 85.776 298.438 85.488C298.438 85.184 298.494 84.92 298.606 84.696C298.718 84.464 298.87 84.272 299.062 84.12C299.262 83.968 299.498 83.856 299.77 83.784C300.042 83.704 300.334 83.664 300.646 83.664C301.15 83.664 301.57 83.752 301.906 83.928C302.25 84.104 302.55 84.348 302.806 84.66L302.17 85.236C302.034 85.044 301.834 84.872 301.57 84.72C301.306 84.56 300.974 84.48 300.574 84.48C300.174 84.48 299.87 84.568 299.662 84.744C299.462 84.912 299.362 85.144 299.362 85.44C299.362 85.744 299.462 85.964 299.662 86.1C299.87 86.236 300.166 86.336 300.55 86.4L301.03 86.472C301.718 86.576 302.206 86.776 302.494 87.072C302.782 87.36 302.926 87.74 302.926 88.212C302.926 88.812 302.722 89.284 302.314 89.628C301.906 89.972 301.346 90.144 300.634 90.144ZM305.908 90C305.572 90 305.316 89.908 305.14 89.724C304.972 89.532 304.888 89.284 304.888 88.98V84.648H303.868V83.808H304.444C304.652 83.808 304.792 83.768 304.864 83.688C304.944 83.6 304.984 83.452 304.984 83.244V82.092H305.848V83.808H307.204V84.648H305.848V89.16H307.108V90H305.908ZM309.227 82.356C309.019 82.356 308.867 82.308 308.771 82.212C308.683 82.108 308.639 81.976 308.639 81.816V81.66C308.639 81.5 308.683 81.372 308.771 81.276C308.867 81.172 309.019 81.12 309.227 81.12C309.435 81.12 309.583 81.172 309.671 81.276C309.767 81.372 309.815 81.5 309.815 81.66V81.816C309.815 81.976 309.767 82.108 309.671 82.212C309.583 82.308 309.435 82.356 309.227 82.356ZM308.747 83.808H309.707V90H308.747V83.808ZM313.115 90C312.779 90 312.523 89.908 312.347 89.724C312.179 89.532 312.095 89.284 312.095 88.98V84.648H311.075V83.808H311.651C311.859 83.808 311.999 83.768 312.071 83.688C312.151 83.6 312.191 83.452 312.191 83.244V82.092H313.055V83.808H314.411V84.648H313.055V89.16H314.315V90H313.115ZM319.77 88.992H319.722C319.658 89.136 319.578 89.28 319.482 89.424C319.394 89.56 319.282 89.684 319.146 89.796C319.01 89.9 318.846 89.984 318.654 90.048C318.462 90.112 318.238 90.144 317.982 90.144C317.342 90.144 316.834 89.94 316.458 89.532C316.082 89.116 315.894 88.532 315.894 87.78V83.808H316.854V87.612C316.854 88.724 317.326 89.28 318.27 89.28C318.462 89.28 318.646 89.256 318.822 89.208C319.006 89.16 319.166 89.088 319.302 88.992C319.446 88.896 319.558 88.776 319.638 88.632C319.726 88.48 319.77 88.3 319.77 88.092V83.808H320.73V90H319.77V88.992ZM324.142 90C323.806 90 323.55 89.908 323.374 89.724C323.206 89.532 323.122 89.284 323.122 88.98V84.648H322.102V83.808H322.678C322.886 83.808 323.026 83.768 323.098 83.688C323.178 83.6 323.218 83.452 323.218 83.244V82.092H324.082V83.808H325.438V84.648H324.082V89.16H325.342V90H324.142ZM327.461 82.356C327.253 82.356 327.101 82.308 327.005 82.212C326.917 82.108 326.873 81.976 326.873 81.816V81.66C326.873 81.5 326.917 81.372 327.005 81.276C327.101 81.172 327.253 81.12 327.461 81.12C327.669 81.12 327.817 81.172 327.905 81.276C328.001 81.372 328.049 81.5 328.049 81.66V81.816C328.049 81.976 328.001 82.108 327.905 82.212C327.817 82.308 327.669 82.356 327.461 82.356ZM326.981 83.808H327.941V90H326.981V83.808ZM329.981 90V83.808H330.941V84.816H330.989C331.141 84.464 331.353 84.184 331.625 83.976C331.905 83.768 332.277 83.664 332.741 83.664C333.381 83.664 333.885 83.872 334.253 84.288C334.629 84.696 334.817 85.276 334.817 86.028V90H333.857V86.196C333.857 85.084 333.389 84.528 332.453 84.528C332.261 84.528 332.073 84.552 331.889 84.6C331.713 84.648 331.553 84.72 331.409 84.816C331.265 84.912 331.149 85.036 331.061 85.188C330.981 85.332 330.941 85.504 330.941 85.704V90H329.981ZM342.021 90.684C342.021 91.324 341.769 91.792 341.265 92.088C340.769 92.392 340.021 92.544 339.021 92.544C338.053 92.544 337.357 92.412 336.933 92.148C336.509 91.884 336.297 91.508 336.297 91.02C336.297 90.684 336.385 90.42 336.561 90.228C336.737 90.044 336.977 89.908 337.281 89.82V89.688C336.913 89.512 336.729 89.224 336.729 88.824C336.729 88.512 336.829 88.276 337.029 88.116C337.229 87.948 337.485 87.824 337.797 87.744V87.696C337.429 87.52 337.141 87.268 336.933 86.94C336.733 86.612 336.633 86.232 336.633 85.8C336.633 85.488 336.689 85.2 336.801 84.936C336.913 84.672 337.069 84.448 337.269 84.264C337.477 84.072 337.721 83.924 338.001 83.82C338.289 83.716 338.609 83.664 338.961 83.664C339.401 83.664 339.793 83.744 340.137 83.904V83.796C340.137 83.556 340.193 83.36 340.305 83.208C340.417 83.048 340.601 82.968 340.857 82.968H341.781V83.808H340.605V84.204C340.829 84.396 341.001 84.628 341.121 84.9C341.249 85.164 341.313 85.464 341.313 85.8C341.313 86.112 341.257 86.4 341.145 86.664C341.033 86.928 340.873 87.156 340.665 87.348C340.465 87.532 340.221 87.676 339.933 87.78C339.645 87.884 339.325 87.936 338.973 87.936C338.773 87.936 338.573 87.916 338.373 87.876C338.165 87.932 337.977 88.016 337.809 88.128C337.641 88.232 337.557 88.38 337.557 88.572C337.557 88.756 337.645 88.88 337.821 88.944C337.997 89.008 338.225 89.04 338.505 89.04H339.825C340.593 89.04 341.149 89.188 341.493 89.484C341.845 89.772 342.021 90.172 342.021 90.684ZM341.121 90.756C341.121 90.508 341.025 90.308 340.833 90.156C340.649 90.012 340.317 89.94 339.837 89.94H337.773C337.389 90.116 337.197 90.396 337.197 90.78C337.197 91.052 337.297 91.284 337.497 91.476C337.705 91.668 338.053 91.764 338.541 91.764H339.429C339.965 91.764 340.381 91.68 340.677 91.512C340.973 91.344 341.121 91.092 341.121 90.756ZM338.973 87.168C339.381 87.168 339.705 87.072 339.945 86.88C340.185 86.68 340.305 86.376 340.305 85.968V85.632C340.305 85.224 340.185 84.924 339.945 84.732C339.705 84.532 339.381 84.432 338.973 84.432C338.565 84.432 338.241 84.532 338.001 84.732C337.761 84.924 337.641 85.224 337.641 85.632V85.968C337.641 86.376 337.761 86.68 338.001 86.88C338.241 87.072 338.565 87.168 338.973 87.168Z" fill="#CBD5E0"/>
<path d="M284.644 54.944H284.584L283.876 56.348L281.872 59.996L279.868 56.348L279.16 54.944H279.1V62H278.116V53.624H279.46L281.86 58.136H281.92L284.332 53.624H285.628V62H284.644V54.944ZM291.574 55.808H292.522L289.75 63.44C289.678 63.624 289.606 63.776 289.534 63.896C289.462 64.024 289.374 64.124 289.27 64.196C289.166 64.268 289.034 64.32 288.874 64.352C288.722 64.384 288.534 64.4 288.31 64.4H287.818V63.56H288.79L289.258 62.24L286.942 55.808H287.902L289.39 60.02L289.678 61.028H289.738L290.074 60.02L291.574 55.808ZM299.031 62.144C298.351 62.144 297.771 62.016 297.291 61.76C296.811 61.496 296.403 61.136 296.067 60.68L296.811 60.056C297.107 60.448 297.435 60.748 297.795 60.956C298.155 61.156 298.579 61.256 299.067 61.256C299.667 61.256 300.123 61.112 300.435 60.824C300.755 60.536 300.915 60.152 300.915 59.672C300.915 59.272 300.795 58.964 300.555 58.748C300.315 58.532 299.919 58.36 299.367 58.232L298.683 58.076C297.915 57.9 297.327 57.636 296.919 57.284C296.519 56.924 296.319 56.42 296.319 55.772C296.319 55.404 296.387 55.076 296.523 54.788C296.659 54.5 296.847 54.26 297.087 54.068C297.335 53.876 297.627 53.732 297.963 53.636C298.307 53.532 298.683 53.48 299.09 53.48C299.723 53.48 300.263 53.596 300.711 53.828C301.167 54.06 301.551 54.4 301.863 54.848L301.107 55.4C300.875 55.08 300.595 54.828 300.267 54.644C299.939 54.46 299.531 54.368 299.043 54.368C298.507 54.368 298.083 54.484 297.771 54.716C297.467 54.94 297.315 55.28 297.315 55.736C297.315 56.136 297.443 56.44 297.699 56.648C297.963 56.848 298.359 57.008 298.887 57.128L299.571 57.284C300.395 57.468 300.991 57.748 301.359 58.124C301.727 58.5 301.911 59 301.911 59.624C301.911 60.008 301.843 60.356 301.707 60.668C301.579 60.98 301.391 61.244 301.143 61.46C300.895 61.676 300.591 61.844 300.231 61.964C299.879 62.084 299.479 62.144 299.031 62.144ZM304.923 62C304.587 62 304.331 61.908 304.155 61.724C303.987 61.532 303.903 61.284 303.903 60.98V56.648H302.883V55.808H303.459C303.667 55.808 303.807 55.768 303.879 55.688C303.959 55.6 303.999 55.452 303.999 55.244V54.092H304.863V55.808H306.219V56.648H304.863V61.16H306.123V62H304.923ZM311.578 60.992H311.53C311.466 61.136 311.386 61.28 311.29 61.424C311.202 61.56 311.09 61.684 310.954 61.796C310.818 61.9 310.654 61.984 310.462 62.048C310.27 62.112 310.046 62.144 309.79 62.144C309.15 62.144 308.642 61.94 308.266 61.532C307.89 61.116 307.702 60.532 307.702 59.78V55.808H308.662V59.612C308.662 60.724 309.134 61.28 310.078 61.28C310.27 61.28 310.454 61.256 310.63 61.208C310.814 61.16 310.974 61.088 311.11 60.992C311.254 60.896 311.366 60.776 311.446 60.632C311.534 60.48 311.578 60.3 311.578 60.092V55.808H312.538V62H311.578V60.992ZM318.543 60.992H318.495C318.119 61.76 317.515 62.144 316.683 62.144C316.299 62.144 315.951 62.068 315.639 61.916C315.327 61.764 315.059 61.548 314.835 61.268C314.619 60.988 314.451 60.648 314.331 60.248C314.219 59.848 314.163 59.4 314.163 58.904C314.163 58.408 314.219 57.96 314.331 57.56C314.451 57.16 314.619 56.82 314.835 56.54C315.059 56.26 315.327 56.044 315.639 55.892C315.951 55.74 316.299 55.664 316.683 55.664C317.115 55.664 317.483 55.76 317.787 55.952C318.099 56.136 318.335 56.424 318.495 56.816H318.543V53.12H319.503V62H318.543V60.992ZM316.947 61.28C317.163 61.28 317.367 61.252 317.559 61.196C317.759 61.14 317.931 61.06 318.075 60.956C318.219 60.844 318.331 60.712 318.411 60.56C318.499 60.4 318.543 60.22 318.543 60.02V57.716C318.543 57.548 318.499 57.392 318.411 57.248C318.331 57.096 318.219 56.968 318.075 56.864C317.931 56.76 317.759 56.68 317.559 56.624C317.367 56.56 317.163 56.528 316.947 56.528C316.403 56.528 315.975 56.7 315.663 57.044C315.351 57.38 315.195 57.824 315.195 58.376V59.432C315.195 59.984 315.351 60.432 315.663 60.776C315.975 61.112 316.403 61.28 316.947 61.28ZM323.871 62.144C323.447 62.144 323.063 62.068 322.719 61.916C322.383 61.764 322.091 61.548 321.843 61.268C321.603 60.98 321.415 60.64 321.279 60.248C321.151 59.848 321.087 59.4 321.087 58.904C321.087 58.416 321.151 57.972 321.279 57.572C321.415 57.172 321.603 56.832 321.843 56.552C322.091 56.264 322.383 56.044 322.719 55.892C323.063 55.74 323.447 55.664 323.871 55.664C324.287 55.664 324.659 55.74 324.987 55.892C325.315 56.044 325.595 56.256 325.827 56.528C326.059 56.792 326.235 57.108 326.355 57.476C326.483 57.844 326.547 58.248 326.547 58.688V59.144H322.095V59.432C322.095 59.696 322.135 59.944 322.215 60.176C322.303 60.4 322.423 60.596 322.575 60.764C322.735 60.932 322.927 61.064 323.151 61.16C323.383 61.256 323.643 61.304 323.931 61.304C324.323 61.304 324.663 61.212 324.951 61.028C325.247 60.844 325.475 60.58 325.635 60.236L326.319 60.728C326.119 61.152 325.807 61.496 325.383 61.76C324.959 62.016 324.455 62.144 323.871 62.144ZM323.871 56.468C323.607 56.468 323.367 56.516 323.151 56.612C322.935 56.7 322.747 56.828 322.587 56.996C322.435 57.164 322.315 57.364 322.227 57.596C322.139 57.82 322.095 58.068 322.095 58.34V58.424H325.515V58.292C325.515 57.74 325.363 57.3 325.059 56.972C324.763 56.636 324.367 56.468 323.871 56.468ZM328.129 62V55.808H329.089V56.816H329.137C329.289 56.464 329.501 56.184 329.773 55.976C330.053 55.768 330.425 55.664 330.889 55.664C331.529 55.664 332.033 55.872 332.401 56.288C332.777 56.696 332.965 57.276 332.965 58.028V62H332.005V58.196C332.005 57.084 331.537 56.528 330.601 56.528C330.409 56.528 330.221 56.552 330.037 56.6C329.861 56.648 329.701 56.72 329.557 56.816C329.413 56.912 329.297 57.036 329.209 57.188C329.129 57.332 329.089 57.504 329.089 57.704V62H328.129ZM336.318 62C335.982 62 335.726 61.908 335.55 61.724C335.382 61.532 335.298 61.284 335.298 60.98V56.648H334.278V55.808H334.854C335.062 55.808 335.202 55.768 335.274 55.688C335.354 55.6 335.394 55.452 335.394 55.244V54.092H336.258V55.808H337.614V56.648H336.258V61.16H337.518V62H336.318ZM341.017 62.144C340.441 62.144 339.957 62.036 339.565 61.82C339.181 61.596 338.849 61.3 338.569 60.932L339.253 60.38C339.493 60.684 339.761 60.92 340.057 61.088C340.353 61.248 340.697 61.328 341.089 61.328C341.497 61.328 341.813 61.24 342.037 61.064C342.269 60.888 342.385 60.64 342.385 60.32C342.385 60.08 342.305 59.876 342.145 59.708C341.993 59.532 341.713 59.412 341.305 59.348L340.813 59.276C340.525 59.236 340.261 59.176 340.021 59.096C339.781 59.008 339.569 58.896 339.385 58.76C339.209 58.616 339.069 58.44 338.965 58.232C338.869 58.024 338.821 57.776 338.821 57.488C338.821 57.184 338.877 56.92 338.989 56.696C339.101 56.464 339.253 56.272 339.445 56.12C339.645 55.968 339.881 55.856 340.153 55.784C340.425 55.704 340.717 55.664 341.029 55.664C341.533 55.664 341.953 55.752 342.289 55.928C342.633 56.104 342.933 56.348 343.189 56.66L342.553 57.236C342.417 57.044 342.217 56.872 341.953 56.72C341.689 56.56 341.357 56.48 340.957 56.48C340.557 56.48 340.253 56.568 340.045 56.744C339.845 56.912 339.745 57.144 339.745 57.44C339.745 57.744 339.845 57.964 340.045 58.1C340.253 58.236 340.549 58.336 340.933 58.4L341.413 58.472C342.101 58.576 342.589 58.776 342.877 59.072C343.165 59.36 343.309 59.74 343.309 60.212C343.309 60.812 343.105 61.284 342.697 61.628C342.289 61.972 341.729 62.144 341.017 62.144Z" fill="#CBD5E0"/>
<path d="M150.116 90V81.624H153.452C154.204 81.624 154.78 81.84 155.18 82.272C155.588 82.696 155.792 83.28 155.792 84.024C155.792 84.768 155.588 85.356 155.18 85.788C154.78 86.212 154.204 86.424 153.452 86.424H151.124V90H150.116ZM151.124 85.536H153.452C153.852 85.536 154.16 85.432 154.376 85.224C154.6 85.016 154.712 84.72 154.712 84.336V83.712C154.712 83.328 154.6 83.032 154.376 82.824C154.16 82.616 153.852 82.512 153.452 82.512H151.124V85.536ZM159.403 90.144C158.987 90.144 158.607 90.068 158.263 89.916C157.919 89.764 157.623 89.548 157.375 89.268C157.135 88.98 156.947 88.64 156.811 88.248C156.675 87.848 156.607 87.4 156.607 86.904C156.607 86.416 156.675 85.972 156.811 85.572C156.947 85.172 157.135 84.832 157.375 84.552C157.623 84.264 157.919 84.044 158.263 83.892C158.607 83.74 158.987 83.664 159.403 83.664C159.819 83.664 160.195 83.74 160.531 83.892C160.875 84.044 161.171 84.264 161.419 84.552C161.667 84.832 161.859 85.172 161.995 85.572C162.131 85.972 162.199 86.416 162.199 86.904C162.199 87.4 162.131 87.848 161.995 88.248C161.859 88.64 161.667 88.98 161.419 89.268C161.171 89.548 160.875 89.764 160.531 89.916C160.195 90.068 159.819 90.144 159.403 90.144ZM159.403 89.292C159.923 89.292 160.347 89.132 160.675 88.812C161.003 88.492 161.167 88.004 161.167 87.348V86.46C161.167 85.804 161.003 85.316 160.675 84.996C160.347 84.676 159.923 84.516 159.403 84.516C158.883 84.516 158.459 84.676 158.131 84.996C157.803 85.316 157.639 85.804 157.639 86.46V87.348C157.639 88.004 157.803 88.492 158.131 88.812C158.459 89.132 158.883 89.292 159.403 89.292ZM163.778 90V83.808H164.738V84.948H164.798C164.91 84.652 165.11 84.388 165.398 84.156C165.686 83.924 166.082 83.808 166.586 83.808H166.958V84.768H166.394C165.874 84.768 165.466 84.868 165.17 85.068C164.882 85.26 164.738 85.504 164.738 85.8V90H163.778ZM169.599 90C169.263 90 169.007 89.908 168.831 89.724C168.663 89.532 168.579 89.284 168.579 88.98V84.648H167.559V83.808H168.135C168.343 83.808 168.483 83.768 168.555 83.688C168.635 83.6 168.675 83.452 168.675 83.244V82.092H169.539V83.808H170.895V84.648H169.539V89.16H170.799V90H169.599ZM172.657 84.648H171.649V83.808H172.657V82.56C172.657 82.128 172.769 81.78 172.993 81.516C173.217 81.252 173.557 81.12 174.013 81.12H174.949V81.96H173.617V83.808H174.949V84.648H173.617V90H172.657V84.648ZM178.505 90.144C178.089 90.144 177.709 90.068 177.365 89.916C177.021 89.764 176.725 89.548 176.477 89.268C176.237 88.98 176.049 88.64 175.913 88.248C175.777 87.848 175.709 87.4 175.709 86.904C175.709 86.416 175.777 85.972 175.913 85.572C176.049 85.172 176.237 84.832 176.477 84.552C176.725 84.264 177.021 84.044 177.365 83.892C177.709 83.74 178.089 83.664 178.505 83.664C178.921 83.664 179.297 83.74 179.633 83.892C179.977 84.044 180.273 84.264 180.521 84.552C180.769 84.832 180.961 85.172 181.097 85.572C181.233 85.972 181.301 86.416 181.301 86.904C181.301 87.4 181.233 87.848 181.097 88.248C180.961 88.64 180.769 88.98 180.521 89.268C180.273 89.548 179.977 89.764 179.633 89.916C179.297 90.068 178.921 90.144 178.505 90.144ZM178.505 89.292C179.025 89.292 179.449 89.132 179.777 88.812C180.105 88.492 180.269 88.004 180.269 87.348V86.46C180.269 85.804 180.105 85.316 179.777 84.996C179.449 84.676 179.025 84.516 178.505 84.516C177.985 84.516 177.561 84.676 177.233 84.996C176.905 85.316 176.741 85.804 176.741 86.46V87.348C176.741 88.004 176.905 88.492 177.233 88.812C177.561 89.132 177.985 89.292 178.505 89.292ZM183.899 90C183.563 90 183.307 89.908 183.131 89.724C182.963 89.532 182.879 89.292 182.879 89.004V81.12H183.839V89.16H184.751V90H183.899ZM186.629 82.356C186.421 82.356 186.269 82.308 186.173 82.212C186.085 82.108 186.041 81.976 186.041 81.816V81.66C186.041 81.5 186.085 81.372 186.173 81.276C186.269 81.172 186.421 81.12 186.629 81.12C186.837 81.12 186.985 81.172 187.073 81.276C187.169 81.372 187.217 81.5 187.217 81.66V81.816C187.217 81.976 187.169 82.108 187.073 82.212C186.985 82.308 186.837 82.356 186.629 82.356ZM186.149 83.808H187.109V90H186.149V83.808ZM191.489 90.144C191.073 90.144 190.693 90.068 190.349 89.916C190.005 89.764 189.709 89.548 189.461 89.268C189.221 88.98 189.033 88.64 188.897 88.248C188.761 87.848 188.693 87.4 188.693 86.904C188.693 86.416 188.761 85.972 188.897 85.572C189.033 85.172 189.221 84.832 189.461 84.552C189.709 84.264 190.005 84.044 190.349 83.892C190.693 83.74 191.073 83.664 191.489 83.664C191.905 83.664 192.281 83.74 192.617 83.892C192.961 84.044 193.257 84.264 193.505 84.552C193.753 84.832 193.945 85.172 194.081 85.572C194.217 85.972 194.285 86.416 194.285 86.904C194.285 87.4 194.217 87.848 194.081 88.248C193.945 88.64 193.753 88.98 193.505 89.268C193.257 89.548 192.961 89.764 192.617 89.916C192.281 90.068 191.905 90.144 191.489 90.144ZM191.489 89.292C192.009 89.292 192.433 89.132 192.761 88.812C193.089 88.492 193.253 88.004 193.253 87.348V86.46C193.253 85.804 193.089 85.316 192.761 84.996C192.433 84.676 192.009 84.516 191.489 84.516C190.969 84.516 190.545 84.676 190.217 84.996C189.889 85.316 189.725 85.804 189.725 86.46V87.348C189.725 88.004 189.889 88.492 190.217 88.812C190.545 89.132 190.969 89.292 191.489 89.292ZM199.804 90H198.796V81.624H202.132C202.868 81.624 203.44 81.828 203.848 82.236C204.264 82.644 204.472 83.232 204.472 84C204.472 84.616 204.328 85.124 204.04 85.524C203.76 85.916 203.344 86.176 202.792 86.304L204.712 90H203.572L201.76 86.4H199.804V90ZM202.132 85.536C202.532 85.536 202.84 85.432 203.056 85.224C203.28 85.016 203.392 84.72 203.392 84.336V83.712C203.392 83.328 203.28 83.032 203.056 82.824C202.84 82.616 202.532 82.512 202.132 82.512H199.804V85.536H202.132ZM208.528 90.144C208.104 90.144 207.72 90.068 207.376 89.916C207.04 89.764 206.748 89.548 206.5 89.268C206.26 88.98 206.072 88.64 205.936 88.248C205.808 87.848 205.744 87.4 205.744 86.904C205.744 86.416 205.808 85.972 205.936 85.572C206.072 85.172 206.26 84.832 206.5 84.552C206.748 84.264 207.04 84.044 207.376 83.892C207.72 83.74 208.104 83.664 208.528 83.664C208.944 83.664 209.316 83.74 209.644 83.892C209.972 84.044 210.252 84.256 210.484 84.528C210.716 84.792 210.892 85.108 211.012 85.476C211.14 85.844 211.204 86.248 211.204 86.688V87.144H206.752V87.432C206.752 87.696 206.792 87.944 206.872 88.176C206.96 88.4 207.08 88.596 207.232 88.764C207.392 88.932 207.584 89.064 207.808 89.16C208.04 89.256 208.3 89.304 208.588 89.304C208.98 89.304 209.32 89.212 209.608 89.028C209.904 88.844 210.132 88.58 210.292 88.236L210.976 88.728C210.776 89.152 210.464 89.496 210.04 89.76C209.616 90.016 209.112 90.144 208.528 90.144ZM208.528 84.468C208.264 84.468 208.024 84.516 207.808 84.612C207.592 84.7 207.404 84.828 207.244 84.996C207.092 85.164 206.972 85.364 206.884 85.596C206.796 85.82 206.752 86.068 206.752 86.34V86.424H210.172V86.292C210.172 85.74 210.02 85.3 209.716 84.972C209.42 84.636 209.024 84.468 208.528 84.468ZM214.06 90L211.888 83.808H212.848L213.928 86.88L214.6 88.992H214.66L215.332 86.88L216.436 83.808H217.36L215.176 90H214.06ZM219.078 82.356C218.87 82.356 218.718 82.308 218.622 82.212C218.534 82.108 218.49 81.976 218.49 81.816V81.66C218.49 81.5 218.534 81.372 218.622 81.276C218.718 81.172 218.87 81.12 219.078 81.12C219.286 81.12 219.434 81.172 219.522 81.276C219.618 81.372 219.666 81.5 219.666 81.66V81.816C219.666 81.976 219.618 82.108 219.522 82.212C219.434 82.308 219.286 82.356 219.078 82.356ZM218.598 83.808H219.558V90H218.598V83.808ZM223.926 90.144C223.502 90.144 223.118 90.068 222.774 89.916C222.438 89.764 222.146 89.548 221.898 89.268C221.658 88.98 221.47 88.64 221.334 88.248C221.206 87.848 221.142 87.4 221.142 86.904C221.142 86.416 221.206 85.972 221.334 85.572C221.47 85.172 221.658 84.832 221.898 84.552C222.146 84.264 222.438 84.044 222.774 83.892C223.118 83.74 223.502 83.664 223.926 83.664C224.342 83.664 224.714 83.74 225.042 83.892C225.37 84.044 225.65 84.256 225.882 84.528C226.114 84.792 226.29 85.108 226.41 85.476C226.538 85.844 226.602 86.248 226.602 86.688V87.144H222.15V87.432C222.15 87.696 222.19 87.944 222.27 88.176C222.358 88.4 222.478 88.596 222.63 88.764C222.79 88.932 222.982 89.064 223.206 89.16C223.438 89.256 223.698 89.304 223.986 89.304C224.378 89.304 224.718 89.212 225.006 89.028C225.302 88.844 225.53 88.58 225.69 88.236L226.374 88.728C226.174 89.152 225.862 89.496 225.438 89.76C225.014 90.016 224.51 90.144 223.926 90.144ZM223.926 84.468C223.662 84.468 223.422 84.516 223.206 84.612C222.99 84.7 222.802 84.828 222.642 84.996C222.49 85.164 222.37 85.364 222.282 85.596C222.194 85.82 222.15 86.068 222.15 86.34V86.424H225.57V86.292C225.57 85.74 225.418 85.3 225.114 84.972C224.818 84.636 224.422 84.468 223.926 84.468ZM227.477 83.808H228.413L229.073 86.484L229.733 89.196H229.757L230.513 86.484L231.293 83.808H232.145L232.949 86.484L233.717 89.196H233.741L234.377 86.484L235.049 83.808H235.949L234.305 90H233.117L232.253 87.024L231.713 85.14H231.689L231.161 87.024L230.297 90H229.133L227.477 83.808ZM239.173 90.144C238.597 90.144 238.113 90.036 237.721 89.82C237.337 89.596 237.005 89.3 236.725 88.932L237.409 88.38C237.649 88.684 237.917 88.92 238.213 89.088C238.509 89.248 238.853 89.328 239.245 89.328C239.653 89.328 239.969 89.24 240.193 89.064C240.425 88.888 240.541 88.64 240.541 88.32C240.541 88.08 240.461 87.876 240.301 87.708C240.149 87.532 239.869 87.412 239.461 87.348L238.969 87.276C238.681 87.236 238.417 87.176 238.177 87.096C237.937 87.008 237.725 86.896 237.541 86.76C237.365 86.616 237.225 86.44 237.121 86.232C237.025 86.024 236.977 85.776 236.977 85.488C236.977 85.184 237.033 84.92 237.145 84.696C237.257 84.464 237.409 84.272 237.601 84.12C237.801 83.968 238.037 83.856 238.309 83.784C238.581 83.704 238.873 83.664 239.185 83.664C239.689 83.664 240.109 83.752 240.445 83.928C240.789 84.104 241.089 84.348 241.345 84.66L240.709 85.236C240.573 85.044 240.373 84.872 240.109 84.72C239.845 84.56 239.513 84.48 239.113 84.48C238.713 84.48 238.409 84.568 238.201 84.744C238.001 84.912 237.901 85.144 237.901 85.44C237.901 85.744 238.001 85.964 238.201 86.1C238.409 86.236 238.705 86.336 239.089 86.4L239.569 86.472C240.257 86.576 240.745 86.776 241.033 87.072C241.321 87.36 241.465 87.74 241.465 88.212C241.465 88.812 241.261 89.284 240.853 89.628C240.445 89.972 239.885 90.144 239.173 90.144Z" fill="#CBD5E0"/>
<path d="M153.068 62.144C152.004 62.144 151.176 61.784 150.584 61.064C149.992 60.336 149.696 59.268 149.696 57.86C149.696 56.452 149.992 55.372 150.584 54.62C151.176 53.86 152.004 53.48 153.068 53.48C153.772 53.48 154.36 53.64 154.832 53.96C155.312 54.28 155.684 54.732 155.948 55.316L155.132 55.808C154.964 55.376 154.708 55.032 154.364 54.776C154.02 54.512 153.588 54.38 153.068 54.38C152.708 54.38 152.384 54.448 152.096 54.584C151.816 54.72 151.576 54.916 151.376 55.172C151.184 55.42 151.036 55.72 150.932 56.072C150.828 56.416 150.776 56.804 150.776 57.236V58.484C150.776 59.348 150.976 60.024 151.376 60.512C151.776 61 152.34 61.244 153.068 61.244C153.604 61.244 154.052 61.108 154.412 60.836C154.772 60.556 155.036 60.188 155.204 59.732L156.008 60.236C155.744 60.828 155.364 61.296 154.868 61.64C154.372 61.976 153.772 62.144 153.068 62.144ZM161.973 62C161.613 62 161.353 61.904 161.193 61.712C161.041 61.52 160.945 61.28 160.905 60.992H160.845C160.709 61.376 160.485 61.664 160.173 61.856C159.861 62.048 159.489 62.144 159.057 62.144C158.401 62.144 157.889 61.976 157.521 61.64C157.161 61.304 156.981 60.848 156.981 60.272C156.981 59.688 157.193 59.24 157.617 58.928C158.049 58.616 158.717 58.46 159.621 58.46H160.845V57.848C160.845 57.408 160.725 57.072 160.485 56.84C160.245 56.608 159.877 56.492 159.381 56.492C159.005 56.492 158.689 56.576 158.433 56.744C158.185 56.912 157.977 57.136 157.809 57.416L157.233 56.876C157.401 56.54 157.669 56.256 158.037 56.024C158.405 55.784 158.869 55.664 159.429 55.664C160.181 55.664 160.765 55.848 161.181 56.216C161.597 56.584 161.805 57.096 161.805 57.752V61.16H162.513V62H161.973ZM159.213 61.328C159.453 61.328 159.673 61.3 159.873 61.244C160.073 61.188 160.245 61.108 160.389 61.004C160.533 60.9 160.645 60.78 160.725 60.644C160.805 60.508 160.845 60.36 160.845 60.2V59.18H159.573C159.021 59.18 158.617 59.26 158.361 59.42C158.113 59.58 157.989 59.812 157.989 60.116V60.368C157.989 60.672 158.097 60.908 158.313 61.076C158.537 61.244 158.837 61.328 159.213 61.328ZM164.903 62C164.567 62 164.311 61.908 164.135 61.724C163.967 61.532 163.883 61.292 163.883 61.004V53.12H164.843V61.16H165.755V62H164.903ZM168.114 62C167.778 62 167.522 61.908 167.346 61.724C167.178 61.532 167.094 61.292 167.094 61.004V53.12H168.054V61.16H168.966V62H168.114ZM172.224 62.144C171.648 62.144 171.164 62.036 170.772 61.82C170.388 61.596 170.056 61.3 169.776 60.932L170.46 60.38C170.7 60.684 170.968 60.92 171.264 61.088C171.56 61.248 171.904 61.328 172.296 61.328C172.704 61.328 173.02 61.24 173.244 61.064C173.476 60.888 173.592 60.64 173.592 60.32C173.592 60.08 173.512 59.876 173.352 59.708C173.2 59.532 172.92 59.412 172.512 59.348L172.02 59.276C171.732 59.236 171.468 59.176 171.228 59.096C170.988 59.008 170.776 58.896 170.592 58.76C170.416 58.616 170.276 58.44 170.172 58.232C170.076 58.024 170.028 57.776 170.028 57.488C170.028 57.184 170.084 56.92 170.196 56.696C170.308 56.464 170.46 56.272 170.652 56.12C170.852 55.968 171.088 55.856 171.36 55.784C171.632 55.704 171.924 55.664 172.236 55.664C172.74 55.664 173.16 55.752 173.496 55.928C173.84 56.104 174.14 56.348 174.396 56.66L173.76 57.236C173.624 57.044 173.424 56.872 173.16 56.72C172.896 56.56 172.564 56.48 172.164 56.48C171.764 56.48 171.46 56.568 171.252 56.744C171.052 56.912 170.952 57.144 170.952 57.44C170.952 57.744 171.052 57.964 171.252 58.1C171.46 58.236 171.756 58.336 172.14 58.4L172.62 58.472C173.308 58.576 173.796 58.776 174.084 59.072C174.372 59.36 174.516 59.74 174.516 60.212C174.516 60.812 174.312 61.284 173.904 61.628C173.496 61.972 172.936 62.144 172.224 62.144Z" fill="#CBD5E0"/>
<rect x="255" y="48" width="18" height="18" fill="#9F7AEA"/>
<rect x="255" y="76" width="18" height="18" fill="#C4C4C4"/>
<rect x="131" y="80" width="10" height="10" rx="5" fill="#9F7AEA" stroke="#6B539D" stroke-width="2"/>
<rect x="131" y="52" width="10" height="10" rx="5" fill="#1A202C" stroke="white" stroke-width="2"/>
</svg>
