<svg width="400" height="300" viewBox="0 0 400 300" fill="none" xmlns="http://www.w3.org/2000/svg">
<line x1="214.661" y1="144.633" x2="227.661" y2="132.633" stroke="#CBD5E0"/>
<line x1="186.984" y1="150.5" x2="155.984" y2="149.5" stroke="#CBD5E0"/>
<line x1="156.158" y1="149.474" x2="132.158" y2="157.474" stroke="#CBD5E0"/>
<line x1="132.158" y1="157.474" x2="108.158" y2="165.474" stroke="#CBD5E0"/>
<line x1="108.158" y1="165.474" x2="84.1581" y2="173.474" stroke="#CBD5E0"/>
<line x1="107.646" y1="165.354" x2="83.6464" y2="141.354" stroke="#CBD5E0"/>
<line x1="52.2236" y1="124.553" x2="84.2236" y2="140.553" stroke="#CBD5E0"/>
<line x1="28" y1="124.5" x2="52" y2="124.5" stroke="#CBD5E0"/>
<line x1="8.74948" y1="135.567" x2="27.7495" y2="124.567" stroke="#CBD5E0"/>
<line x1="25.4987" y1="83.9635" x2="28.4987" y2="124.964" stroke="#CBD5E0"/>
<line x1="9.3153" y1="70.6119" x2="25.3153" y2="83.6119" stroke="#CBD5E0"/>
<line x1="60.2746" y1="61.4179" x2="25.2746" y2="84.4179" stroke="#CBD5E0"/>
<line x1="41.4626" y1="45.1898" x2="25.4626" y2="84.1898" stroke="#CBD5E0"/>
<line x1="40.5895" y1="45.2855" x2="24.5895" y2="22.2855" stroke="#CBD5E0"/>
<line x1="84.1581" y1="173.474" x2="60.1581" y2="181.474" stroke="#CBD5E0"/>
<line x1="59.8419" y1="181.474" x2="35.8419" y2="173.474" stroke="#CBD5E0"/>
<line x1="60.2109" y1="181.453" x2="17.2109" y2="201.453" stroke="#CBD5E0"/>
<line x1="60.416" y1="181.277" x2="44.416" y2="205.277" stroke="#CBD5E0"/>
<line x1="67.8419" y1="213.474" x2="43.8419" y2="205.474" stroke="#CBD5E0"/>
<line x1="51.5257" y1="229.158" x2="43.5257" y2="205.158" stroke="#CBD5E0"/>
<line x1="16.7172" y1="252.588" x2="51.7172" y2="228.588" stroke="#CBD5E0"/>
<line x1="252.289" y1="116.408" x2="228.289" y2="133.408" stroke="#CBD5E0"/>
<line x1="280.294" y1="228.596" x2="302.294" y2="244.596" stroke="#CBD5E0"/>
<line x1="303.406" y1="244.708" x2="321.406" y2="269.708" stroke="#CBD5E0"/>
<line x1="288.776" y1="285.553" x2="320.776" y2="269.553" stroke="#CBD5E0"/>
<line x1="196.224" y1="284.553" x2="212.224" y2="292.553" stroke="#CBD5E0"/>
<line x1="284.224" y1="100.447" x2="252.224" y2="116.447" stroke="#CBD5E0"/>
<line x1="282.498" y1="78.9526" x2="284.498" y2="99.9526" stroke="#CBD5E0"/>
<line x1="315.064" y1="96.4959" x2="284.064" y2="100.496" stroke="#CBD5E0"/>
<line x1="302.407" y1="51.2906" x2="282.407" y2="79.2906" stroke="#CBD5E0"/>
<line x1="321.392" y1="27.3104" x2="302.392" y2="51.3103" stroke="#CBD5E0"/>
<line x1="336.957" y1="54.4982" x2="301.957" y2="51.4982" stroke="#CBD5E0"/>
<line x1="369.348" y1="23.3591" x2="337.348" y2="54.3591" stroke="#CBD5E0"/>
<line x1="385.149" y1="39.4772" x2="337.149" y2="54.4772" stroke="#CBD5E0"/>
<line x1="384.99" y1="55.4999" x2="336.99" y2="54.4999" stroke="#CBD5E0"/>
<line x1="313.47" y1="4.82913" x2="321.47" y2="26.8291" stroke="#CBD5E0"/>
<line x1="352.193" y1="14.4611" x2="321.193" y2="27.4611" stroke="#CBD5E0"/>
<circle cx="204" cy="117" r="3" fill="#6B539D" stroke="#6B539D" stroke-width="2"/>
<circle cx="228" cy="133" r="3" fill="#6B539D" stroke="#6B539D" stroke-width="2"/>
<circle cx="220" cy="109" r="3" fill="#6B539D" stroke="#6B539D" stroke-width="2"/>
<circle cx="196" cy="85" r="3" fill="#6B539D" stroke="#6B539D" stroke-width="2"/>
<circle cx="172" cy="93" r="3" fill="#6B539D" stroke="#6B539D" stroke-width="2"/>
<circle cx="148" cy="109" r="3" fill="#6B539D" stroke="#6B539D" stroke-width="2"/>
<circle cx="164" cy="125" r="3" fill="#6B539D" stroke="#6B539D" stroke-width="2"/>
<circle cx="180" cy="117" r="3" fill="#6B539D" stroke="#6B539D" stroke-width="2"/>
<circle cx="156" cy="173" r="3" fill="#6B539D" stroke="#6B539D" stroke-width="2"/>
<circle cx="140" cy="165" r="3" fill="#6B539D" stroke="#6B539D" stroke-width="2"/>
<circle cx="132" cy="157" r="3" fill="white" stroke="white" stroke-width="2"/>
<circle cx="108" cy="165" r="3" fill="white" stroke="white" stroke-width="2"/>
<circle cx="84" cy="141" r="3" fill="white" stroke="white" stroke-width="2"/>
<circle cx="100" cy="117" r="3" fill="#6B539D" stroke="#6B539D" stroke-width="2"/>
<circle cx="116" cy="85" r="3" fill="#6B539D" stroke="#6B539D" stroke-width="2"/>
<circle cx="124" cy="53" r="3" fill="#6B539D" stroke="#6B539D" stroke-width="2"/>
<circle cx="92" cy="61" r="3" fill="#6B539D" stroke="#6B539D" stroke-width="2"/>
<circle cx="84" cy="85" r="3" fill="#6B539D" stroke="#6B539D" stroke-width="2"/>
<circle cx="76" cy="109" r="3" fill="#6B539D" stroke="#6B539D" stroke-width="2"/>
<circle cx="68" cy="149" r="3" fill="#6B539D" stroke="#6B539D" stroke-width="2"/>
<circle cx="76" cy="189" r="3" fill="#6B539D" stroke="#6B539D" stroke-width="2"/>
<circle cx="84" cy="173" r="3" fill="white" stroke="white" stroke-width="2"/>
<circle cx="100" cy="189" r="3" fill="#6B539D" stroke="#6B539D" stroke-width="2"/>
<circle cx="108" cy="213" r="3" fill="#6B539D" stroke="#6B539D" stroke-width="2"/>
<circle cx="92" cy="245" r="3" fill="#6B539D" stroke="#6B539D" stroke-width="2"/>
<circle cx="76" cy="229" r="3" fill="#6B539D" stroke="#6B539D" stroke-width="2"/>
<circle cx="68" cy="213" r="3" fill="white" stroke="white" stroke-width="2"/>
<circle cx="60" cy="181" r="3" fill="white" stroke="white" stroke-width="2"/>
<circle cx="44" cy="149" r="3" fill="#6B539D" stroke="#6B539D" stroke-width="2"/>
<circle cx="52" cy="125" r="3" fill="white" stroke="white" stroke-width="2"/>
<circle cx="60" cy="93" r="3" fill="#6B539D" stroke="#6B539D" stroke-width="2"/>
<circle cx="60" cy="61" r="3" fill="white" stroke="white" stroke-width="2"/>
<circle cx="44" cy="93" r="3" fill="#6B539D" stroke="#6B539D" stroke-width="2"/>
<circle cx="28" cy="125" r="3" fill="white" stroke="white" stroke-width="2"/>
<circle cx="36" cy="173" r="3" fill="white" stroke="white" stroke-width="2"/>
<circle cx="44" cy="205" r="3" fill="white" stroke="white" stroke-width="2"/>
<circle cx="52" cy="229" r="3" fill="white" stroke="white" stroke-width="2"/>
<circle cx="68" cy="261" r="3" fill="#6B539D" stroke="#6B539D" stroke-width="2"/>
<circle cx="116" cy="237" r="3" fill="#6B539D" stroke="#6B539D" stroke-width="2"/>
<circle cx="156" cy="237" r="3" fill="#6B539D" stroke="#6B539D" stroke-width="2"/>
<circle cx="148" cy="261" r="3" fill="#6B539D" stroke="#6B539D" stroke-width="2"/>
<circle cx="132" cy="245" r="3" fill="#6B539D" stroke="#6B539D" stroke-width="2"/>
<circle cx="116" cy="261" r="3" fill="#6B539D" stroke="#6B539D" stroke-width="2"/>
<circle cx="124" cy="277" r="3" fill="#6B539D" stroke="#6B539D" stroke-width="2"/>
<circle cx="148" cy="293" r="3" fill="#6B539D" stroke="#6B539D" stroke-width="2"/>
<circle cx="172" cy="269" r="3" fill="#6B539D" stroke="#6B539D" stroke-width="2"/>
<circle cx="204" cy="245" r="3" fill="#6B539D" stroke="#6B539D" stroke-width="2"/>
<circle cx="236" cy="253" r="3" fill="#6B539D" stroke="#6B539D" stroke-width="2"/>
<circle cx="220" cy="269" r="3" fill="#6B539D" stroke="#6B539D" stroke-width="2"/>
<circle cx="196" cy="285" r="3" fill="white" stroke="white" stroke-width="2"/>
<circle cx="236" cy="22" r="3" fill="#6B539D" stroke="#6B539D" stroke-width="2"/>
<circle cx="212" cy="293" r="3" fill="white" stroke="white" stroke-width="2"/>
<circle cx="245" cy="285" r="3" fill="#6B539D" stroke="#6B539D" stroke-width="2"/>
<circle cx="278" cy="269" r="3" fill="#6B539D" stroke="#6B539D" stroke-width="2"/>
<circle cx="303" cy="245" r="3" fill="white" stroke="white" stroke-width="2"/>
<circle cx="280" cy="229" r="3" fill="white" stroke="white" stroke-width="2"/>
<circle cx="313" cy="222" r="3" fill="#6B539D" stroke="#6B539D" stroke-width="2"/>
<circle cx="346" cy="207" r="3" fill="#6B539D" stroke="#6B539D" stroke-width="2"/>
<circle cx="371" cy="184" r="3" fill="#6B539D" stroke="#6B539D" stroke-width="2"/>
<circle cx="348" cy="161" r="3" fill="#6B539D" stroke="#6B539D" stroke-width="2"/>
<circle cx="325" cy="178" r="3" fill="#6B539D" stroke="#6B539D" stroke-width="2"/>
<circle cx="302" cy="107" r="3" fill="#6B539D" stroke="#6B539D" stroke-width="2"/>
<circle cx="287" cy="36" r="3" fill="#6B539D" stroke="#6B539D" stroke-width="2"/>
<circle cx="272" cy="45" r="3" fill="#6B539D" stroke="#6B539D" stroke-width="2"/>
<circle cx="257" cy="62" r="3" fill="#6B539D" stroke="#6B539D" stroke-width="2"/>
<circle cx="282" cy="79" r="3" fill="white" stroke="white" stroke-width="2"/>
<circle cx="315" cy="96" r="3" fill="white" stroke="white" stroke-width="2"/>
<circle cx="348" cy="89" r="3" fill="#6B539D" stroke="#6B539D" stroke-width="2"/>
<circle cx="325" cy="66" r="3" fill="#6B539D" stroke="#6B539D" stroke-width="2"/>
<circle cx="302" cy="51" r="3" fill="white" stroke="white" stroke-width="2"/>
<circle cx="247" cy="44" r="3" fill="#6B539D" stroke="#6B539D" stroke-width="2"/>
<circle cx="200" cy="29" r="3" fill="#6B539D" stroke="#6B539D" stroke-width="2"/>
<circle cx="145" cy="22" r="3" fill="#6B539D" stroke="#6B539D" stroke-width="2"/>
<circle cx="113" cy="30" r="3" fill="#6B539D" stroke="#6B539D" stroke-width="2"/>
<circle cx="81" cy="38" r="3" fill="#6B539D" stroke="#6B539D" stroke-width="2"/>
<circle cx="209" cy="46" r="3" fill="#6B539D" stroke="#6B539D" stroke-width="2"/>
<circle cx="337" cy="54" r="3" fill="white" stroke="white" stroke-width="2"/>
<circle cx="377" cy="102" r="3" fill="#6B539D" stroke="#6B539D" stroke-width="2"/>
<circle cx="385" cy="158" r="3" fill="#6B539D" stroke="#6B539D" stroke-width="2"/>
<circle cx="361" cy="142" r="3" fill="#6B539D" stroke="#6B539D" stroke-width="2"/>
<circle cx="337" cy="118" r="3" fill="#6B539D" stroke="#6B539D" stroke-width="2"/>
<circle cx="353" cy="110" r="3" fill="#6B539D" stroke="#6B539D" stroke-width="2"/>
<circle cx="385" cy="126" r="3" fill="#6B539D" stroke="#6B539D" stroke-width="2"/>
<circle cx="337" cy="142" r="3" fill="#6B539D" stroke="#6B539D" stroke-width="2"/>
<circle cx="329" cy="206" r="3" fill="#6B539D" stroke="#6B539D" stroke-width="2"/>
<circle cx="321" cy="270" r="3" fill="white" stroke="white" stroke-width="2"/>
<circle cx="289" cy="286" r="3" fill="white" stroke="white" stroke-width="2"/>
<circle cx="385" cy="55" r="3" fill="white" stroke="white" stroke-width="2"/>
<circle cx="385" cy="39" r="3" fill="white" stroke="white" stroke-width="2"/>
<circle cx="369" cy="23" r="3" fill="white" stroke="white" stroke-width="2"/>
<circle cx="353" cy="14" r="3" fill="white" stroke="white" stroke-width="2"/>
<circle cx="313" cy="5" r="3" fill="white" stroke="white" stroke-width="2"/>
<circle cx="265" cy="12" r="3" fill="#6B539D" stroke="#6B539D" stroke-width="2"/>
<circle cx="321" cy="27" r="3" fill="white" stroke="white" stroke-width="2"/>
<circle cx="377" cy="210" r="3" fill="#6B539D" stroke="#6B539D" stroke-width="2"/>
<circle cx="361" cy="233" r="3" fill="#6B539D" stroke="#6B539D" stroke-width="2"/>
<circle cx="377" cy="264" r="3" fill="#6B539D" stroke="#6B539D" stroke-width="2"/>
<circle cx="97" cy="287" r="3" fill="#6B539D" stroke="#6B539D" stroke-width="2"/>
<circle cx="9" cy="286" r="3" fill="#6B539D" stroke="#6B539D" stroke-width="2"/>
<circle cx="17" cy="253" r="3" fill="white" stroke="white" stroke-width="2"/>
<circle cx="25" cy="268" r="3" fill="#6B539D" stroke="#6B539D" stroke-width="2"/>
<circle cx="57" cy="275" r="3" fill="#6B539D" stroke="#6B539D" stroke-width="2"/>
<circle cx="41" cy="282" r="3" fill="#6B539D" stroke="#6B539D" stroke-width="2"/>
<circle cx="17" cy="201" r="3" fill="white" stroke="white" stroke-width="2"/>
<circle cx="9" cy="136" r="3" fill="white" stroke="white" stroke-width="2"/>
<circle cx="9" cy="71" r="3" fill="white" stroke="white" stroke-width="2"/>
<circle cx="25" cy="22" r="3" fill="white" stroke="white" stroke-width="2"/>
<circle cx="41" cy="45" r="3" fill="white" stroke="white" stroke-width="2"/>
<circle cx="25" cy="84" r="3" fill="white" stroke="white" stroke-width="2"/>
<circle cx="257" cy="254" r="3" fill="#6B539D" stroke="#6B539D" stroke-width="2"/>
<circle cx="249" cy="230" r="3" fill="#6B539D" stroke="#6B539D" stroke-width="2"/>
<circle cx="281" cy="188" r="3" fill="#6B539D" stroke="#6B539D" stroke-width="2"/>
<circle cx="337" cy="234" r="3" fill="#6B539D" stroke="#6B539D" stroke-width="2"/>
<circle cx="345" cy="256" r="3" fill="#6B539D" stroke="#6B539D" stroke-width="2"/>
<circle cx="353" cy="278" r="3" fill="#6B539D" stroke="#6B539D" stroke-width="2"/>
<circle cx="156" cy="149" r="3" fill="#6B539D" stroke="#6B539D" stroke-width="2"/>
<circle cx="228" cy="181" r="3" fill="#6B539D" stroke="#6B539D" stroke-width="2"/>
<circle cx="268" cy="164" r="3" fill="#6B539D" stroke="#6B539D" stroke-width="2"/>
<circle cx="244" cy="155" r="3" fill="#6B539D" stroke="#6B539D" stroke-width="2"/>
<circle cx="180" cy="194" r="3" fill="#6B539D" stroke="#6B539D" stroke-width="2"/>
<circle cx="164" cy="218" r="3" fill="#6B539D" stroke="#6B539D" stroke-width="2"/>
<circle cx="196" cy="210" r="3" fill="#6B539D" stroke="#6B539D" stroke-width="2"/>
<circle cx="220" cy="194" r="3" fill="#6B539D" stroke="#6B539D" stroke-width="2"/>
<circle cx="252" cy="187" r="3" fill="#6B539D" stroke="#6B539D" stroke-width="2"/>
<circle cx="284" cy="148" r="3" fill="#6B539D" stroke="#6B539D" stroke-width="2"/>
<circle cx="252" cy="116" r="3" fill="white" stroke="white" stroke-width="2"/>
<circle cx="236" cy="76" r="3" fill="#6B539D" stroke="#6B539D" stroke-width="2"/>
<circle cx="260" cy="84" r="3" fill="#6B539D" stroke="#6B539D" stroke-width="2"/>
<circle cx="284" cy="100" r="3" fill="white" stroke="white" stroke-width="2"/>
<circle cx="292" cy="116" r="3" fill="#6B539D" stroke="#6B539D" stroke-width="2"/>
<circle cx="260" cy="132" r="3" fill="#6B539D" stroke="#6B539D" stroke-width="2"/>
<circle cx="220" cy="60" r="3" fill="#6B539D" stroke="#6B539D" stroke-width="2"/>
<circle cx="180" cy="52" r="3" fill="#6B539D" stroke="#6B539D" stroke-width="2"/>
<circle cx="148" cy="68" r="3" fill="#6B539D" stroke="#6B539D" stroke-width="2"/>
<circle cx="124" cy="124" r="3" fill="#6B539D" stroke="#6B539D" stroke-width="2"/>
<circle cx="132" cy="196" r="3" fill="#6B539D" stroke="#6B539D" stroke-width="2"/>
<circle cx="140" cy="220" r="3" fill="#6B539D" stroke="#6B539D" stroke-width="2"/>
<circle cx="180" cy="236" r="3" fill="#6B539D" stroke="#6B539D" stroke-width="2"/>
<circle cx="228" cy="220" r="3" fill="#6B539D" stroke="#6B539D" stroke-width="2"/>
<circle cx="268" cy="204" r="3" fill="#6B539D" stroke="#6B539D" stroke-width="2"/>
<circle cx="308" cy="188" r="3" fill="#6B539D" stroke="#6B539D" stroke-width="2"/>
<circle cx="316" cy="164" r="3" fill="#6B539D" stroke="#6B539D" stroke-width="2"/>
<circle cx="316" cy="132" r="3" fill="#6B539D" stroke="#6B539D" stroke-width="2"/>
<path d="M185.33 143.364H188.085L190.739 148.375H190.852L193.506 143.364H196.261L192.017 150.886V155H189.574V150.886L185.33 143.364ZM199.675 155.17C198.792 155.17 198.029 154.983 197.385 154.608C196.745 154.229 196.25 153.703 195.902 153.028C195.554 152.35 195.379 151.564 195.379 150.67C195.379 149.769 195.554 148.981 195.902 148.307C196.25 147.629 196.745 147.102 197.385 146.727C198.029 146.348 198.792 146.159 199.675 146.159C200.557 146.159 201.319 146.348 201.959 146.727C202.603 147.102 203.099 147.629 203.447 148.307C203.796 148.981 203.97 149.769 203.97 150.67C203.97 151.564 203.796 152.35 203.447 153.028C203.099 153.703 202.603 154.229 201.959 154.608C201.319 154.983 200.557 155.17 199.675 155.17ZM199.686 153.295C200.088 153.295 200.423 153.182 200.692 152.955C200.961 152.723 201.163 152.409 201.3 152.011C201.44 151.614 201.51 151.161 201.51 150.653C201.51 150.146 201.44 149.693 201.3 149.295C201.163 148.898 200.961 148.583 200.692 148.352C200.423 148.121 200.088 148.006 199.686 148.006C199.281 148.006 198.94 148.121 198.663 148.352C198.391 148.583 198.184 148.898 198.044 149.295C197.908 149.693 197.839 150.146 197.839 150.653C197.839 151.161 197.908 151.614 198.044 152.011C198.184 152.409 198.391 152.723 198.663 152.955C198.94 153.182 199.281 153.295 199.686 153.295ZM211.141 151.284V146.273H213.561V155H211.237V153.415H211.146C210.949 153.926 210.622 154.337 210.163 154.648C209.709 154.958 209.154 155.114 208.499 155.114C207.915 155.114 207.402 154.981 206.959 154.716C206.516 154.451 206.169 154.074 205.919 153.585C205.673 153.097 205.548 152.511 205.544 151.83V146.273H207.964V151.398C207.968 151.913 208.107 152.32 208.379 152.619C208.652 152.919 209.018 153.068 209.476 153.068C209.768 153.068 210.04 153.002 210.294 152.869C210.548 152.733 210.752 152.532 210.908 152.267C211.067 152.002 211.144 151.674 211.141 151.284Z" fill="#CBD5E0"/>
</svg>
