<svg width="179" height="172" viewBox="0 0 179 172" fill="none" xmlns="http://www.w3.org/2000/svg">
<ellipse rx="52.5116" ry="50.1594" transform="matrix(-0.788011 0.615661 0.615661 0.788011 86.7616 90.4155)" fill="#53C52D"/>
<path d="M97.7762 19.2207C90.6104 10.0489 76.4322 11.072 70.6575 21.1775C63.8155 33.1504 53.1988 42.5186 40.4674 47.8171L18.1802 57.0925C9.03386 60.899 6.02423 72.3693 12.1235 80.176L45.1134 122.401L127.873 57.7425L97.7762 19.2207Z" fill="#53C52D"/>
<path d="M90.4858 20.6884C92.9177 19.3509 97.7468 25.532 97.7468 25.532L102.86 64.7106L93.3115 77.7059L73.7086 52.6154C83.5152 44.4002 78.4398 26.7788 81.1411 23.5612C83.5739 20 88.0021 28.6346 89.1218 27.8426C91.4914 26.1665 87.3387 22.5938 90.4858 20.6884Z" fill="#85DC33"/>
<path d="M38.6712 61.1701C36.7852 63.2062 41.6144 69.3873 41.6144 69.3873L78.3921 83.8268L93.3114 77.7056L73.7086 52.6151C63.365 60.1429 47.4949 50.9553 43.7194 52.798C39.6755 54.297 46.9823 60.6826 45.943 61.5774C43.7433 63.4712 41.2814 58.5774 38.6712 61.1701Z" fill="#85DC33"/>
<rect width="35.3109" height="51.7071" rx="17.6555" transform="matrix(-0.788011 0.615661 0.615661 0.788011 100.046 21.3115)" fill="#85DC33"/>
<rect width="41.096" height="52.3402" rx="20" transform="matrix(-0.788011 0.615661 0.615661 0.788011 64.4814 49.7051)" fill="#85DC33"/>
<rect width="25.0594" height="37.9889" rx="12.5297" transform="matrix(-0.788011 0.615661 0.615661 0.788011 101.004 29.9373)" fill="white"/>
<rect width="25.0594" height="37.9889" rx="12.5297" transform="matrix(-0.788011 0.615661 0.615661 0.788011 101.004 29.9373)" fill="white"/>
<rect width="25.0594" height="37.9889" rx="12.5297" transform="matrix(-0.788011 0.615661 0.615661 0.788011 101.004 29.9373)" fill="white"/>
<rect width="29.6156" height="37.9889" rx="14.8078" transform="matrix(-0.788011 0.615661 0.615661 0.788011 66.2552 57.175)" fill="white"/>
<rect width="29.6156" height="37.9889" rx="14.8078" transform="matrix(-0.788011 0.615661 0.615661 0.788011 66.2552 57.175)" fill="white"/>
<rect width="29.6156" height="37.9889" rx="14.8078" transform="matrix(-0.788011 0.615661 0.615661 0.788011 66.2552 57.175)" fill="white"/>
<path fill-rule="evenodd" clip-rule="evenodd" d="M57.5052 76.4867C57.6702 76.2858 57.8597 76.0998 58.0731 75.933C59.6386 74.71 61.8991 74.9875 63.1222 76.553L64.3244 78.0918C65.5475 79.6573 65.2699 81.9178 63.7045 83.1409C62.7775 83.8651 61.6067 84.0632 60.552 83.7792L64.5502 88.8967C66.8741 91.8711 71.1691 92.3985 74.1434 90.0746C77.1178 87.7508 77.6452 83.4558 75.3213 80.4814L69.6582 73.2329C67.3344 70.2586 63.0394 69.7312 60.065 72.055C58.6124 73.1899 57.7434 74.795 57.5052 76.4867Z" fill="white"/>
<path fill-rule="evenodd" clip-rule="evenodd" d="M57.5052 76.4867C57.6702 76.2858 57.8597 76.0998 58.0731 75.933C59.6386 74.71 61.8991 74.9875 63.1222 76.553L64.3244 78.0918C65.5475 79.6573 65.2699 81.9178 63.7045 83.1409C62.7775 83.8651 61.6067 84.0632 60.552 83.7792L64.5502 88.8967C66.8741 91.8711 71.1691 92.3985 74.1434 90.0746C77.1178 87.7508 77.6452 83.4558 75.3213 80.4814L69.6582 73.2329C67.3344 70.2586 63.0394 69.7312 60.065 72.055C58.6124 73.1899 57.7434 74.795 57.5052 76.4867Z" fill="white"/>
<path fill-rule="evenodd" clip-rule="evenodd" d="M57.5052 76.4867C57.6702 76.2858 57.8597 76.0998 58.0731 75.933C59.6386 74.71 61.8991 74.9875 63.1222 76.553L64.3244 78.0918C65.5475 79.6573 65.2699 81.9178 63.7045 83.1409C62.7775 83.8651 61.6067 84.0632 60.552 83.7792L64.5502 88.8967C66.8741 91.8711 71.1691 92.3985 74.1434 90.0746C77.1178 87.7508 77.6452 83.4558 75.3213 80.4814L69.6582 73.2329C67.3344 70.2586 63.0394 69.7312 60.065 72.055C58.6124 73.1899 57.7434 74.795 57.5052 76.4867Z" fill="#353535"/>
<path fill-rule="evenodd" clip-rule="evenodd" d="M92.7161 45.5392C92.8812 45.3383 93.0707 45.1522 93.2841 44.9855C94.8496 43.7624 97.1101 44.04 98.3332 45.6054L99.5354 47.1442C100.759 48.7097 100.481 50.9702 98.9155 52.1933C97.9884 52.9177 96.8174 53.1157 95.7626 52.8315L99.7612 57.9495C102.085 60.9238 106.38 61.4512 109.354 59.1274C112.329 56.8035 112.856 52.5085 110.532 49.5341L104.869 42.2857C102.545 39.3113 98.2503 38.7839 95.2759 41.1078C93.8234 42.2426 92.9544 43.8476 92.7161 45.5392Z" fill="white"/>
<path fill-rule="evenodd" clip-rule="evenodd" d="M92.7161 45.5392C92.8812 45.3383 93.0707 45.1522 93.2841 44.9855C94.8496 43.7624 97.1101 44.04 98.3332 45.6054L99.5354 47.1442C100.759 48.7097 100.481 50.9702 98.9155 52.1933C97.9884 52.9177 96.8174 53.1157 95.7626 52.8315L99.7612 57.9495C102.085 60.9238 106.38 61.4512 109.354 59.1274C112.329 56.8035 112.856 52.5085 110.532 49.5341L104.869 42.2857C102.545 39.3113 98.2503 38.7839 95.2759 41.1078C93.8234 42.2426 92.9544 43.8476 92.7161 45.5392Z" fill="white"/>
<path fill-rule="evenodd" clip-rule="evenodd" d="M92.7161 45.5392C92.8812 45.3383 93.0707 45.1522 93.2841 44.9855C94.8496 43.7624 97.1101 44.04 98.3332 45.6054L99.5354 47.1442C100.759 48.7097 100.481 50.9702 98.9155 52.1933C97.9884 52.9177 96.8174 53.1157 95.7626 52.8315L99.7612 57.9495C102.085 60.9238 106.38 61.4512 109.354 59.1274C112.329 56.8035 112.856 52.5085 110.532 49.5341L104.869 42.2857C102.545 39.3113 98.2503 38.7839 95.2759 41.1078C93.8234 42.2426 92.9544 43.8476 92.7161 45.5392Z" fill="#353535"/>
<path d="M119.216 54.0538C119.216 54.0538 111.529 60.0601 109.555 62.1362C107.582 64.2123 101.651 71.8777 101.651 71.8777L106.919 76.855L124.484 59.0311L119.216 54.0538Z" fill="#85DC33"/>
<path d="M59.3604 95.4593C59.3604 95.4593 68.7847 89.9271 71.7667 88.7535C74.7486 87.58 85.214 84.708 85.214 84.708L88.337 92.6885L62.4834 103.44L59.3604 95.4593Z" fill="#85DC33"/>
<rect width="112" height="10" rx="4" transform="matrix(-1 0 0 1 149.067 161.759)" fill="#DEDEDE"/>
<path fill-rule="evenodd" clip-rule="evenodd" d="M120.022 113.231C121.926 114.331 124.022 114.796 126.067 114.693C128.111 114.796 130.208 114.331 132.113 113.231L138.125 109.76H145.067C147.266 109.76 149.315 109.114 151.034 108.003C152.856 107.07 154.439 105.619 155.538 103.714L159.009 97.7024L165.022 94.2311C166.926 93.1314 168.378 91.5482 169.31 89.7259C170.422 88.0073 171.067 85.959 171.067 83.7599V76.8174L174.538 70.8053C175.638 68.9007 176.103 66.804 176 64.7597C176.103 62.7155 175.638 60.6188 174.538 58.7143L171.067 52.7021V45.7599C171.067 43.5607 170.422 41.5123 169.31 39.7936C168.377 37.9715 166.926 36.3884 165.022 35.2888L159.009 31.8177L155.538 25.8053C154.438 23.9006 152.855 22.4492 151.033 21.5167C149.314 20.4051 147.266 19.7598 145.067 19.7598H138.125L132.113 16.2888C130.208 15.1891 128.111 14.7238 126.067 14.8273C124.023 14.724 121.926 15.1893 120.022 16.2888L114.01 19.7598H107.067C104.868 19.7598 102.82 20.4051 101.101 21.5167C99.2788 22.4492 97.6955 23.9006 96.5959 25.8053L93.1245 31.8178L87.1126 35.2888C85.2081 36.3884 83.7569 37.9714 82.8243 39.7933C81.7125 41.512 81.067 43.5606 81.067 45.7599V52.702L77.5959 58.7142C76.4963 60.6188 76.031 62.7155 76.1344 64.7598C76.031 66.804 76.4963 68.9007 77.5959 70.8053L81.067 76.8175V83.7599C81.067 85.9591 81.7124 88.0076 82.8241 89.7263C83.7567 91.5483 85.208 93.1315 87.1126 94.2311L93.1249 97.7023L96.5959 103.714C97.6954 105.619 99.2783 107.07 101.1 108.002C102.819 109.114 104.868 109.76 107.067 109.76H114.009L120.022 113.231Z" fill="url(#paint0_linear)"/>
<rect width="10.1782" height="5.45261" rx="2.72631" transform="matrix(0.999912 -0.0132559 0.0132549 0.999912 122.701 91.6981)" fill="white"/>
<rect x="149.176" y="79.7995" width="10.1782" height="5.45261" rx="2.72631" transform="rotate(-70.7595 149.176 79.7995)" fill="white"/>
<circle cx="127.507" cy="66.9591" r="20.9017" transform="rotate(-35.7595 127.507 66.9591)" fill="white"/>
<path d="M100.959 65.8612C96.829 60.1263 99.4921 52.0309 106.22 49.868V49.868C110.96 48.3443 115.098 45.3642 118.045 41.3521V41.3521C122.229 35.6567 130.751 35.6971 134.881 41.4319L144.362 54.5969L110.44 79.0262L100.959 65.8612Z" fill="white"/>
<path d="M91.5719 75.1237C91.562 77.6941 100.822 87.9683 114.511 82.8136C121.517 76.7143 116.736 66.2836 110.688 68.1882C104.641 70.0928 92.552 72.1027 91.5719 75.1237Z" fill="white"/>
<path d="M146.972 35.2276C149.413 36.0331 156.222 48.0722 146.993 59.4214C138.988 64.133 130.611 56.2919 134.334 51.1598C138.057 46.0276 143.796 35.1995 146.972 35.2276Z" fill="white"/>
<path d="M103.941 56.8919C103.142 57.6954 105.052 60.3478 105.052 60.3478L119.992 67.0587L126.198 64.8297L118.444 54.063C114.102 56.9658 107.691 52.8478 106.117 53.5332C104.437 54.0712 107.363 56.8581 106.925 57.207C105.998 57.9454 105.045 55.8729 103.941 56.8919Z" fill="white"/>
<path d="M125.134 41.6297C126.15 41.126 128.06 43.7784 128.06 43.7784L129.689 60.0758L125.608 65.2546L117.854 54.4879C121.983 51.2901 120.11 43.904 121.259 42.6286C122.302 41.2057 124.018 44.8641 124.487 44.5594C125.482 43.9144 123.818 42.3538 125.134 41.6297Z" fill="white"/>
<rect x="101.246" y="61.9053" width="16.3578" height="21.8105" rx="8.17892" transform="rotate(-35.7595 101.246 61.9053)" fill="white"/>
<rect x="117.977" y="50.3043" width="16.3578" height="21.8105" rx="8.17892" transform="rotate(-35.7595 117.977 50.3043)" fill="white"/>
<rect x="104.633" y="63.498" width="11.9957" height="15.9943" rx="5.99787" transform="rotate(-35.7595 104.633 63.498)" fill="white"/>
<rect x="104.633" y="63.498" width="11.9957" height="15.9943" rx="5.99787" transform="rotate(-35.7595 104.633 63.498)" fill="white"/>
<rect x="104.633" y="63.498" width="11.9957" height="15.9943" rx="5.99787" transform="rotate(-35.7595 104.633 63.498)" fill="white"/>
<rect x="121.446" y="51.3896" width="11.9957" height="15.9943" rx="5.99787" transform="rotate(-35.7595 121.446 51.3896)" fill="white"/>
<rect x="121.446" y="51.3896" width="11.9957" height="15.9943" rx="5.99787" transform="rotate(-35.7595 121.446 51.3896)" fill="white"/>
<rect x="121.446" y="51.3896" width="11.9957" height="15.9943" rx="5.99787" transform="rotate(-35.7595 121.446 51.3896)" fill="white"/>
<path fill-rule="evenodd" clip-rule="evenodd" d="M111.212 64.1409C111.244 64.1143 111.277 64.0885 111.311 64.0637C112.126 63.4771 113.262 63.6619 113.848 64.4765C114.435 65.2911 114.25 66.4269 113.436 67.0135C112.953 67.361 112.358 67.4378 111.831 67.2734L112.999 68.8957C114.114 70.4433 116.272 70.7944 117.82 69.6799C119.367 68.5653 119.718 66.4072 118.604 64.8595L117.329 63.0897C116.215 61.542 114.057 61.1909 112.509 62.3054C111.858 62.7739 111.419 63.4266 111.212 64.1409Z" fill="white"/>
<path fill-rule="evenodd" clip-rule="evenodd" d="M111.212 64.1409C111.244 64.1143 111.277 64.0885 111.311 64.0637C112.126 63.4771 113.262 63.6619 113.848 64.4765C114.435 65.2911 114.25 66.4269 113.436 67.0135C112.953 67.361 112.358 67.4378 111.831 67.2734L112.999 68.8957C114.114 70.4433 116.272 70.7944 117.82 69.6799C119.367 68.5653 119.718 66.4072 118.604 64.8595L117.329 63.0897C116.215 61.542 114.057 61.1909 112.509 62.3054C111.858 62.7739 111.419 63.4266 111.212 64.1409Z" fill="white"/>
<path fill-rule="evenodd" clip-rule="evenodd" d="M111.212 64.1409C111.244 64.1143 111.277 64.0885 111.311 64.0637C112.126 63.4771 113.262 63.6619 113.848 64.4765C114.435 65.2911 114.25 66.4269 113.436 67.0135C112.953 67.361 112.358 67.4378 111.831 67.2734L112.999 68.8957C114.114 70.4433 116.272 70.7944 117.82 69.6799C119.367 68.5653 119.718 66.4072 118.604 64.8595L117.329 63.0897C116.215 61.542 114.057 61.1909 112.509 62.3054C111.858 62.7739 111.419 63.4266 111.212 64.1409Z" fill="white"/>
<path fill-rule="evenodd" clip-rule="evenodd" d="M126.256 53.3071C126.288 53.2804 126.321 53.2547 126.355 53.2299C127.17 52.6433 128.306 52.8281 128.892 53.6427C129.479 54.4572 129.294 55.5931 128.48 56.1797C127.997 56.5271 127.402 56.604 126.875 56.4396L128.043 58.0618C129.158 59.6095 131.316 59.9606 132.864 58.8461C134.411 57.7315 134.762 55.5734 133.648 54.0257L132.373 52.2558C131.259 50.7082 129.1 50.3571 127.553 51.4716C126.902 51.94 126.463 52.5928 126.256 53.3071Z" fill="white"/>
<path fill-rule="evenodd" clip-rule="evenodd" d="M126.256 53.3071C126.288 53.2804 126.321 53.2547 126.355 53.2299C127.17 52.6433 128.306 52.8281 128.892 53.6427C129.479 54.4572 129.294 55.5931 128.48 56.1797C127.997 56.5271 127.402 56.604 126.875 56.4396L128.043 58.0618C129.158 59.6095 131.316 59.9606 132.864 58.8461C134.411 57.7315 134.762 55.5734 133.648 54.0257L132.373 52.2558C131.259 50.7082 129.1 50.3571 127.553 51.4716C126.902 51.94 126.463 52.5928 126.256 53.3071Z" fill="white"/>
<path fill-rule="evenodd" clip-rule="evenodd" d="M126.256 53.3071C126.288 53.2804 126.321 53.2547 126.355 53.2299C127.17 52.6433 128.306 52.8281 128.892 53.6427C129.479 54.4572 129.294 55.5931 128.48 56.1797C127.997 56.5271 127.402 56.604 126.875 56.4396L128.043 58.0618C129.158 59.6095 131.316 59.9606 132.864 58.8461C134.411 57.7315 134.762 55.5734 133.648 54.0257L132.373 52.2558C131.259 50.7082 129.1 50.3571 127.553 51.4716C126.902 51.94 126.463 52.5928 126.256 53.3071Z" fill="white"/>
<rect x="121.707" y="64.1925" width="5.81613" height="10.1782" rx="2.90806" transform="rotate(-35.7595 121.707 64.1925)" fill="white"/>
<rect x="122.15" y="63.8739" width="4.7256" height="8.72418" rx="2.3628" transform="rotate(-35.7595 122.15 63.8739)" fill="white"/>
<path fill-rule="evenodd" clip-rule="evenodd" d="M122.995 67.8468C121.96 66.0154 122.447 63.6595 124.194 62.4017C125.986 61.1112 128.454 61.4439 129.846 63.1146C129.174 64.267 128.255 65.3004 127.103 66.1302C125.84 67.04 124.433 67.6062 122.995 67.8468Z" fill="white"/>
<path d="M123.401 64.678C123.256 64.4773 123.256 64.2065 123.401 64.0059L123.66 63.6461C124.062 63.0892 124.634 62.6775 125.289 62.473L125.713 62.3409C125.949 62.2673 126.206 62.353 126.35 62.5537V62.5537C126.58 62.8721 126.43 63.3215 126.055 63.4383L125.702 63.5486C125.238 63.6932 124.834 63.9842 124.55 64.3781L124.333 64.6784C124.104 64.9965 123.63 64.9964 123.401 64.678V64.678Z" fill="white"/>
<path d="M137.885 67.9964C138.707 69.1368 138.25 70.8697 136.865 71.8669C135.48 72.8641 133.692 72.7481 132.871 71.6077C132.764 71.4602 133.887 70.6518 135.272 69.6546C136.657 68.6574 137.779 67.8489 137.885 67.9964Z" fill="white"/>
<path d="M130.216 73.5196C131.037 74.6599 130.58 76.3928 129.196 77.39C127.811 78.3873 126.022 78.2712 125.201 77.1308C125.095 76.9834 126.218 76.1749 127.602 75.1777C128.987 74.1805 130.11 73.3721 130.216 73.5196Z" fill="white"/>
<path d="M136.812 74.5927C137.633 75.7331 137.177 77.466 135.792 78.4632C134.407 79.4604 132.619 79.3444 131.798 78.204C131.691 78.0565 132.814 77.2481 134.199 76.2509C135.583 75.2536 136.706 74.4452 136.812 74.5927Z" fill="white"/>
<path d="M128.112 61.2434L136.62 50.8266L136.76 50.9416C139.637 53.291 140.064 57.5275 137.715 60.404V60.404C135.365 63.2805 131.129 63.7078 128.252 61.3584L128.112 61.2434Z" fill="white"/>
<path d="M109.239 70.5445L121.816 65.7773L121.88 65.9473C123.197 69.4202 121.449 73.3027 117.976 74.6192V74.6192C114.503 75.9356 110.62 74.1874 109.304 70.7145L109.239 70.5445Z" fill="white"/>
<path d="M144.751 41.0027C142.544 39.8585 142.133 36.7745 144.142 35.3107L157.29 25.7332C159.968 23.7821 163.721 24.3717 165.673 27.0501L174.992 39.8433C176.982 42.5755 176.309 46.3986 173.293 47.9251C168.939 50.1285 162.752 52.5061 157.994 51.3186C151.634 49.731 150.571 44.02 144.751 41.0027Z" fill="#53C52D"/>
<path d="M57.2285 106.492L111.944 66.7361C114.864 64.6144 118.894 65.1082 120.627 68.2745C125.274 76.7646 130.889 94.4844 112.782 113.972C87.4979 141.184 81.9165 140.47 81.9165 140.47L57.2285 106.492Z" fill="#53C52D"/>
<rect x="64.067" y="146.76" width="24" height="14" rx="7" fill="#EF8527"/>
<rect x="107.175" y="146.697" width="24" height="14" rx="7" transform="rotate(-30 107.175 146.697)" fill="#EF8527"/>
<defs>
<linearGradient id="paint0_linear" x1="99.067" y1="20.7595" x2="154.067" y2="102.26" gradientUnits="userSpaceOnUse">
<stop stop-color="#FCB931"/>
<stop offset="1" stop-color="#FC9A2B"/>
</linearGradient>
</defs>
</svg>
