<svg width="161" height="150" viewBox="0 0 161 150" fill="none" xmlns="http://www.w3.org/2000/svg">
<rect x="49.0001" y="135" width="28" height="15" rx="7.5" fill="#EB932F"/>
<rect x="83.0001" y="135" width="28" height="15" rx="7.5" fill="#EB932F"/>
<circle cx="80.5001" cy="84.5" r="57.5" fill="#F74044"/>
<path d="M23.0001 30.2457C23.0001 15.3097 37.5656 4.71509 51.7756 9.31509L65.101 13.6287C75.1113 16.8692 85.8888 16.8692 95.8991 13.6287L109.224 9.31509C123.435 4.71509 138 15.3097 138 30.2457V84H23.0001V30.2457Z" fill="#F74044"/>
<path d="M160.363 120.301C155.363 125.302 132.863 121.367 126.363 118.534C124.697 93.0336 128.863 54.0336 136.863 69.5336C144.863 85.0336 164.363 112.534 160.363 120.301Z" fill="#F74044"/>
<path d="M0.534527 120.301C5.53456 125.302 28.0345 121.367 34.5345 118.534C36.2012 93.0336 32.0345 54.0336 24.0345 69.5336C16.0345 85.0336 -3.46551 112.534 0.534527 120.301Z" fill="#F74044"/>
<path d="M44 24.1414C40.9999 24.6496 41 33.6414 41 33.6414L63 72.6414L80 77.6414V41.1414C66 40.6415 58.5 21.1415 54 20.1414C49.5 18.6415 51.5 29.5666 50 29.6414C46.8253 29.7997 48.0001 23.6415 44 24.1414Z" fill="#FF9496"/>
<path d="M116 24.1414C119 24.6496 119 33.6414 119 33.6414L97 72.6414L80 77.6414V41.1414C94 40.6415 101.5 21.1415 106 20.1414C110.5 18.6415 108.5 29.5666 110 29.6414C113.175 29.7997 112 23.6415 116 24.1414Z" fill="#FF9496"/>
<rect x="30" y="31" width="45" height="60" rx="20" fill="#FF9496"/>
<rect x="86" y="32" width="45" height="60" rx="20" fill="#FF9496"/>
<rect x="35" y="40" width="33" height="44" rx="16.5" fill="white"/>
<rect x="35" y="40" width="33" height="44" rx="16.5" fill="white"/>
<rect x="35" y="40" width="33" height="44" rx="16.5" fill="white"/>
<rect x="92" y="40" width="33" height="44" rx="16.5" fill="white"/>
<rect x="92" y="40" width="33" height="44" rx="16.5" fill="white"/>
<rect x="92" y="40" width="33" height="44" rx="16.5" fill="white"/>
<path fill-rule="evenodd" clip-rule="evenodd" d="M48.6532 52.0118C48.7678 52.004 48.8835 52 49.0001 52C51.7615 52 54.0001 54.2386 54.0001 57C54.0001 59.7614 51.7615 62 49.0001 62C47.3645 62 45.9123 61.2147 45.0001 60.0005V65.5C45.0001 70.7467 49.2533 75 54.5001 75C59.7468 75 64.0001 70.7467 64.0001 65.5V59.5C64.0001 54.2533 59.7468 50 54.5001 50C52.295 50 50.2654 50.7513 48.6532 52.0118Z" fill="white"/>
<path fill-rule="evenodd" clip-rule="evenodd" d="M48.6532 52.0118C48.7678 52.004 48.8835 52 49.0001 52C51.7615 52 54.0001 54.2386 54.0001 57C54.0001 59.7614 51.7615 62 49.0001 62C47.3645 62 45.9123 61.2147 45.0001 60.0005V65.5C45.0001 70.7467 49.2533 75 54.5001 75C59.7468 75 64.0001 70.7467 64.0001 65.5V59.5C64.0001 54.2533 59.7468 50 54.5001 50C52.295 50 50.2654 50.7513 48.6532 52.0118Z" fill="white"/>
<path fill-rule="evenodd" clip-rule="evenodd" d="M48.6532 52.0118C48.7678 52.004 48.8835 52 49.0001 52C51.7615 52 54.0001 54.2386 54.0001 57C54.0001 59.7614 51.7615 62 49.0001 62C47.3645 62 45.9123 61.2147 45.0001 60.0005V65.5C45.0001 70.7467 49.2533 75 54.5001 75C59.7468 75 64.0001 70.7467 64.0001 65.5V59.5C64.0001 54.2533 59.7468 50 54.5001 50C52.295 50 50.2654 50.7513 48.6532 52.0118Z" fill="#353535"/>
<path fill-rule="evenodd" clip-rule="evenodd" d="M99.6532 52.0118C99.7678 52.004 99.8835 52 100 52C102.761 52 105 54.2386 105 57C105 59.7614 102.761 62 100 62C98.3645 62 96.9123 61.2147 96.0001 60.0005V65.5C96.0001 70.7467 100.253 75 105.5 75C110.747 75 115 70.7467 115 65.5V59.5C115 54.2533 110.747 50 105.5 50C103.295 50 101.265 50.7513 99.6532 52.0118Z" fill="white"/>
<path fill-rule="evenodd" clip-rule="evenodd" d="M99.6532 52.0118C99.7678 52.004 99.8835 52 100 52C102.761 52 105 54.2386 105 57C105 59.7614 102.761 62 100 62C98.3645 62 96.9123 61.2147 96.0001 60.0005V65.5C96.0001 70.7467 100.253 75 105.5 75C110.747 75 115 70.7467 115 65.5V59.5C115 54.2533 110.747 50 105.5 50C103.295 50 101.265 50.7513 99.6532 52.0118Z" fill="white"/>
<path fill-rule="evenodd" clip-rule="evenodd" d="M99.6532 52.0118C99.7678 52.004 99.8835 52 100 52C102.761 52 105 54.2386 105 57C105 59.7614 102.761 62 100 62C98.3645 62 96.9123 61.2147 96.0001 60.0005V65.5C96.0001 70.7467 100.253 75 105.5 75C110.747 75 115 70.7467 115 65.5V59.5C115 54.2533 110.747 50 105.5 50C103.295 50 101.265 50.7513 99.6532 52.0118Z" fill="#353535"/>
<circle cx="80.5001" cy="80.5" r="7.5" fill="#EA9130"/>
<path fill-rule="evenodd" clip-rule="evenodd" d="M69.0001 79.2279C69.6331 73.4752 74.5092 69 80.4305 69C86.5053 69 91.48 73.7103 91.9016 79.6779C88.5493 81.1705 84.8368 82 80.9305 82C76.6476 82 72.5976 81.0028 69.0001 79.2279Z" fill="#F9C03E"/>
<path d="M75.0001 72.8063C75.0001 72.1257 75.4355 71.5215 76.0812 71.3063L77.4702 70.8433C79.1124 70.2959 80.8877 70.2959 82.5299 70.8433L83.9189 71.3063C84.5646 71.5215 85.0001 72.1257 85.0001 72.8063V72.8063C85.0001 73.8855 83.9428 74.6476 82.9189 74.3063L81.9525 73.9842C80.6852 73.5617 79.315 73.5617 78.0476 73.9842L77.0812 74.3063C76.0574 74.6476 75.0001 73.8855 75.0001 72.8063V72.8063Z" fill="#FFDB46"/>
<path d="M102 103.5C102 107.366 98.1944 110.5 93.5 110.5C88.8056 110.5 85 107.366 85 103.5C85 103 88.8056 103 93.5 103C98.1944 103 102 103 102 103.5Z" fill="#FF9496"/>
<path d="M76 103.5C76 107.366 72.1944 110.5 67.5 110.5C62.8056 110.5 59 107.366 59 103.5C59 103 62.8056 103 67.5 103C72.1944 103 76 103 76 103.5Z" fill="#FF9496"/>
<path d="M89 116.5C89 120.366 85.1944 123.5 80.5 123.5C75.8056 123.5 72 120.366 72 116.5C72 116 75.8056 116 80.5 116C85.1944 116 89 116 89 116.5Z" fill="#FF9496"/>
</svg>
