<svg width="304" height="333" viewBox="0 0 304 333" fill="none" xmlns="http://www.w3.org/2000/svg">
<path d="M208.792 289.359C190.323 343.552 113.677 343.552 95.2076 289.359L0 10L304 10L208.792 289.359Z" fill="#9F7AEA"/>
<ellipse cx="152" cy="10" rx="152" ry="10" fill="#6B539D"/>
<path d="M97 293L152 293.678L207 293V333H97V293Z" fill="#6B539D"/>
<mask id="mask0_4_220" style="mask-type:alpha" maskUnits="userSpaceOnUse" x="0" y="10" width="304" height="321">
<path d="M208.792 289.359C190.323 343.552 113.677 343.552 95.2076 289.359L0 10L304 10L208.792 289.359Z" fill="#9F7AEA"/>
</mask>
<g mask="url(#mask0_4_220)">
<path d="M304 50C304 51.7368 297.27 53.3702 285.432 54.7934C259.627 57.896 209.548 60 152 60C68.0527 60 0 55.5228 0 50" stroke="#6B539D"/>
<path d="M304 89C304 94.5228 235.947 99 152 99C68.0527 99 0 94.5228 0 89" stroke="#6B539D"/>
<path d="M304 128C304 133.523 235.947 138 152 138C68.0527 138 0 133.523 0 128" stroke="#6B539D"/>
<path d="M304 167C304 172.523 235.947 177 152 177C68.0527 177 0 172.523 0 167" stroke="#6B539D"/>
<path d="M304 206C304 211.523 235.947 216 152 216C68.0527 216 0 211.523 0 206" stroke="#6B539D"/>
<path d="M304 245C304 250.523 235.947 255 152 255C68.0527 255 0 250.523 0 245" stroke="#6B539D"/>
<path d="M304 284C304 289.523 235.947 294 152 294C68.0527 294 0 289.523 0 284" stroke="#6B539D"/>
</g>
<path d="M95.2607 45V33.3636H99.1925C100.105 33.3636 100.852 33.5284 101.431 33.858C102.014 34.1837 102.446 34.625 102.727 35.1818C103.007 35.7386 103.147 36.3598 103.147 37.0455C103.147 37.7311 103.007 38.3542 102.727 38.9148C102.45 39.4754 102.022 39.9223 101.442 40.2557C100.863 40.5852 100.121 40.75 99.2152 40.75H96.397V39.5H99.1697C99.7947 39.5 100.297 39.392 100.675 39.1761C101.054 38.9602 101.329 38.6686 101.499 38.3011C101.674 37.9299 101.761 37.5114 101.761 37.0455C101.761 36.5795 101.674 36.1629 101.499 35.7955C101.329 35.428 101.052 35.1402 100.67 34.9318C100.287 34.7197 99.7796 34.6136 99.147 34.6136H96.6697V45H95.2607ZM108.8 45.1818C107.96 45.1818 107.234 44.9962 106.624 44.625C106.018 44.25 105.55 43.7273 105.221 43.0568C104.895 42.3826 104.732 41.5985 104.732 40.7045C104.732 39.8106 104.895 39.0227 105.221 38.3409C105.55 37.6553 106.009 37.1212 106.596 36.7386C107.187 36.3523 107.876 36.1591 108.664 36.1591C109.119 36.1591 109.567 36.2348 110.011 36.3864C110.454 36.5379 110.857 36.7841 111.221 37.125C111.585 37.4621 111.874 37.9091 112.09 38.4659C112.306 39.0227 112.414 39.7083 112.414 40.5227V41.0909H105.687V39.9318H111.05C111.05 39.4394 110.952 39 110.755 38.6136C110.562 38.2273 110.285 37.9223 109.925 37.6989C109.569 37.4754 109.149 37.3636 108.664 37.3636C108.13 37.3636 107.668 37.4962 107.278 37.7614C106.891 38.0227 106.594 38.3636 106.386 38.7841C106.177 39.2045 106.073 39.6553 106.073 40.1364V40.9091C106.073 41.5682 106.187 42.1269 106.414 42.5852C106.645 43.0398 106.965 43.3864 107.374 43.625C107.783 43.8598 108.259 43.9773 108.8 43.9773C109.153 43.9773 109.471 43.928 109.755 43.8295C110.043 43.7273 110.291 43.5758 110.499 43.375C110.708 43.1705 110.869 42.9167 110.982 42.6136L112.278 42.9773C112.141 43.4167 111.912 43.803 111.59 44.1364C111.268 44.4659 110.871 44.7235 110.397 44.9091C109.924 45.0909 109.391 45.1818 108.8 45.1818ZM117.999 45.1818C117.211 45.1818 116.52 44.9943 115.925 44.6193C115.335 44.2443 114.872 43.7197 114.539 43.0455C114.21 42.3712 114.045 41.5833 114.045 40.6818C114.045 39.7727 114.21 38.9792 114.539 38.3011C114.872 37.6231 115.335 37.0966 115.925 36.7216C116.52 36.3466 117.211 36.1591 117.999 36.1591C118.787 36.1591 119.477 36.3466 120.067 36.7216C120.662 37.0966 121.124 37.6231 121.454 38.3011C121.787 38.9792 121.954 39.7727 121.954 40.6818C121.954 41.5833 121.787 42.3712 121.454 43.0455C121.124 43.7197 120.662 44.2443 120.067 44.6193C119.477 44.9943 118.787 45.1818 117.999 45.1818ZM117.999 43.9773C118.598 43.9773 119.09 43.8239 119.477 43.517C119.863 43.2102 120.149 42.8068 120.335 42.3068C120.52 41.8068 120.613 41.2652 120.613 40.6818C120.613 40.0985 120.52 39.5549 120.335 39.0511C120.149 38.5473 119.863 38.1402 119.477 37.8295C119.09 37.5189 118.598 37.3636 117.999 37.3636C117.401 37.3636 116.908 37.5189 116.522 37.8295C116.136 38.1402 115.85 38.5473 115.664 39.0511C115.478 39.5549 115.386 40.0985 115.386 40.6818C115.386 41.2652 115.478 41.8068 115.664 42.3068C115.85 42.8068 116.136 43.2102 116.522 43.517C116.908 43.8239 117.401 43.9773 117.999 43.9773ZM124.001 48.2727V36.2727H125.296V37.6591H125.455C125.554 37.5076 125.69 37.3144 125.864 37.0795C126.042 36.8409 126.296 36.6288 126.626 36.4432C126.959 36.2538 127.41 36.1591 127.978 36.1591C128.713 36.1591 129.361 36.3428 129.921 36.7102C130.482 37.0777 130.919 37.5985 131.234 38.2727C131.548 38.947 131.705 39.7424 131.705 40.6591C131.705 41.5833 131.548 42.3845 131.234 43.0625C130.919 43.7367 130.484 44.2595 129.927 44.6307C129.37 44.9981 128.728 45.1818 128.001 45.1818C127.44 45.1818 126.991 45.089 126.654 44.9034C126.317 44.714 126.058 44.5 125.876 44.2614C125.694 44.0189 125.554 43.8182 125.455 43.6591H125.342V48.2727H124.001ZM125.319 40.6364C125.319 41.2955 125.415 41.8769 125.609 42.3807C125.802 42.8807 126.084 43.2727 126.455 43.5568C126.826 43.8371 127.281 43.9773 127.819 43.9773C128.379 43.9773 128.847 43.8295 129.222 43.5341C129.601 43.2348 129.885 42.8333 130.075 42.3295C130.268 41.822 130.364 41.2576 130.364 40.6364C130.364 40.0227 130.27 39.4697 130.08 38.9773C129.895 38.4811 129.612 38.089 129.234 37.8011C128.859 37.5095 128.387 37.3636 127.819 37.3636C127.273 37.3636 126.815 37.5019 126.444 37.7784C126.073 38.0511 125.792 38.4337 125.603 38.9261C125.414 39.4148 125.319 39.9848 125.319 40.6364ZM135.092 33.3636V45H133.751V33.3636H135.092ZM141.207 45.1818C140.366 45.1818 139.64 44.9962 139.031 44.625C138.424 44.25 137.957 43.7273 137.627 43.0568C137.301 42.3826 137.138 41.5985 137.138 40.7045C137.138 39.8106 137.301 39.0227 137.627 38.3409C137.957 37.6553 138.415 37.1212 139.002 36.7386C139.593 36.3523 140.282 36.1591 141.07 36.1591C141.525 36.1591 141.974 36.2348 142.417 36.3864C142.86 36.5379 143.263 36.7841 143.627 37.125C143.991 37.4621 144.281 37.9091 144.496 38.4659C144.712 39.0227 144.82 39.7083 144.82 40.5227V41.0909H138.093V39.9318H143.457C143.457 39.4394 143.358 39 143.161 38.6136C142.968 38.2273 142.692 37.9223 142.332 37.6989C141.976 37.4754 141.555 37.3636 141.07 37.3636C140.536 37.3636 140.074 37.4962 139.684 37.7614C139.298 38.0227 139 38.3636 138.792 38.7841C138.584 39.2045 138.479 39.6553 138.479 40.1364V40.9091C138.479 41.5682 138.593 42.1269 138.82 42.5852C139.051 43.0398 139.371 43.3864 139.781 43.625C140.19 43.8598 140.665 43.9773 141.207 43.9773C141.559 43.9773 141.877 43.928 142.161 43.8295C142.449 43.7273 142.697 43.5758 142.906 43.375C143.114 43.1705 143.275 42.9167 143.388 42.6136L144.684 42.9773C144.548 43.4167 144.318 43.803 143.996 44.1364C143.674 44.4659 143.277 44.7235 142.803 44.9091C142.33 45.0909 141.798 45.1818 141.207 45.1818ZM160.769 33.3636V45H159.406L153.065 35.8636H152.951V45H151.542V33.3636H152.906L159.269 42.5227H159.383V33.3636H160.769ZM166.952 45.1818C166.165 45.1818 165.473 44.9943 164.879 44.6193C164.288 44.2443 163.826 43.7197 163.492 43.0455C163.163 42.3712 162.998 41.5833 162.998 40.6818C162.998 39.7727 163.163 38.9792 163.492 38.3011C163.826 37.6231 164.288 37.0966 164.879 36.7216C165.473 36.3466 166.165 36.1591 166.952 36.1591C167.74 36.1591 168.43 36.3466 169.021 36.7216C169.615 37.0966 170.077 37.6231 170.407 38.3011C170.74 38.9792 170.907 39.7727 170.907 40.6818C170.907 41.5833 170.74 42.3712 170.407 43.0455C170.077 43.7197 169.615 44.2443 169.021 44.6193C168.43 44.9943 167.74 45.1818 166.952 45.1818ZM166.952 43.9773C167.551 43.9773 168.043 43.8239 168.43 43.517C168.816 43.2102 169.102 42.8068 169.288 42.3068C169.473 41.8068 169.566 41.2652 169.566 40.6818C169.566 40.0985 169.473 39.5549 169.288 39.0511C169.102 38.5473 168.816 38.1402 168.43 37.8295C168.043 37.5189 167.551 37.3636 166.952 37.3636C166.354 37.3636 165.862 37.5189 165.475 37.8295C165.089 38.1402 164.803 38.5473 164.617 39.0511C164.432 39.5549 164.339 40.0985 164.339 40.6818C164.339 41.2652 164.432 41.8068 164.617 42.3068C164.803 42.8068 165.089 43.2102 165.475 43.517C165.862 43.8239 166.354 43.9773 166.952 43.9773ZM176.749 36.2727V37.4091H172.227V36.2727H176.749ZM173.545 34.1818H174.886V42.5C174.886 42.8788 174.941 43.1629 175.05 43.3523C175.164 43.5379 175.308 43.6629 175.482 43.7273C175.66 43.7879 175.848 43.8182 176.045 43.8182C176.192 43.8182 176.314 43.8106 176.408 43.7955C176.503 43.7765 176.579 43.7614 176.636 43.75L176.908 44.9545C176.817 44.9886 176.691 45.0227 176.528 45.0568C176.365 45.0947 176.158 45.1136 175.908 45.1136C175.53 45.1136 175.158 45.0322 174.795 44.8693C174.435 44.7064 174.136 44.4583 173.897 44.125C173.662 43.7917 173.545 43.3712 173.545 42.8636V34.1818ZM178.766 45V36.2727H180.107V45H178.766ZM179.448 34.8182C179.187 34.8182 178.961 34.7292 178.772 34.5511C178.586 34.3731 178.494 34.1591 178.494 33.9091C178.494 33.6591 178.586 33.4451 178.772 33.267C178.961 33.089 179.187 33 179.448 33C179.71 33 179.933 33.089 180.119 33.267C180.308 33.4451 180.403 33.6591 180.403 33.9091C180.403 34.1591 180.308 34.3731 180.119 34.5511C179.933 34.7292 179.71 34.8182 179.448 34.8182ZM186.45 36.2727V37.4091H181.745V36.2727H186.45ZM183.154 45V35.0682C183.154 34.5682 183.272 34.1515 183.506 33.8182C183.741 33.4848 184.046 33.2348 184.421 33.0682C184.796 32.9015 185.192 32.8182 185.609 32.8182C185.938 32.8182 186.207 32.8447 186.415 32.8977C186.624 32.9508 186.779 33 186.881 33.0455L186.495 34.2045C186.427 34.1818 186.332 34.1534 186.211 34.1193C186.094 34.0852 185.938 34.0682 185.745 34.0682C185.302 34.0682 184.982 34.1799 184.785 34.4034C184.592 34.6269 184.495 34.9545 184.495 35.3864V45H183.154ZM188.329 45V36.2727H189.67V45H188.329ZM189.011 34.8182C188.749 34.8182 188.524 34.7292 188.335 34.5511C188.149 34.3731 188.056 34.1591 188.056 33.9091C188.056 33.6591 188.149 33.4451 188.335 33.267C188.524 33.089 188.749 33 189.011 33C189.272 33 189.496 33.089 189.681 33.267C189.871 33.4451 189.965 33.6591 189.965 33.9091C189.965 34.1591 189.871 34.3731 189.681 34.5511C189.496 34.7292 189.272 34.8182 189.011 34.8182ZM195.785 45.1818C194.944 45.1818 194.219 44.9962 193.609 44.625C193.003 44.25 192.535 43.7273 192.205 43.0568C191.879 42.3826 191.717 41.5985 191.717 40.7045C191.717 39.8106 191.879 39.0227 192.205 38.3409C192.535 37.6553 192.993 37.1212 193.58 36.7386C194.171 36.3523 194.861 36.1591 195.648 36.1591C196.103 36.1591 196.552 36.2348 196.995 36.3864C197.438 36.5379 197.842 36.7841 198.205 37.125C198.569 37.4621 198.859 37.9091 199.075 38.4659C199.29 39.0227 199.398 39.7083 199.398 40.5227V41.0909H192.671V39.9318H198.035C198.035 39.4394 197.936 39 197.739 38.6136C197.546 38.2273 197.27 37.9223 196.91 37.6989C196.554 37.4754 196.133 37.3636 195.648 37.3636C195.114 37.3636 194.652 37.4962 194.262 37.7614C193.876 38.0227 193.578 38.3636 193.37 38.7841C193.162 39.2045 193.058 39.6553 193.058 40.1364V40.9091C193.058 41.5682 193.171 42.1269 193.398 42.5852C193.629 43.0398 193.95 43.3864 194.359 43.625C194.768 43.8598 195.243 43.9773 195.785 43.9773C196.137 43.9773 196.455 43.928 196.739 43.8295C197.027 43.7273 197.275 43.5758 197.484 43.375C197.692 43.1705 197.853 42.9167 197.967 42.6136L199.262 42.9773C199.126 43.4167 198.897 43.803 198.575 44.1364C198.253 44.4659 197.855 44.7235 197.381 44.9091C196.908 45.0909 196.376 45.1818 195.785 45.1818ZM204.734 45.1818C204.006 45.1818 203.364 44.9981 202.808 44.6307C202.251 44.2595 201.815 43.7367 201.501 43.0625C201.186 42.3845 201.029 41.5833 201.029 40.6591C201.029 39.7424 201.186 38.947 201.501 38.2727C201.815 37.5985 202.253 37.0777 202.813 36.7102C203.374 36.3428 204.022 36.1591 204.756 36.1591C205.325 36.1591 205.773 36.2538 206.103 36.4432C206.436 36.6288 206.69 36.8409 206.864 37.0795C207.042 37.3144 207.181 37.5076 207.279 37.6591H207.393V33.3636H208.734V45H207.438V43.6591H207.279C207.181 43.8182 207.04 44.0189 206.859 44.2614C206.677 44.5 206.417 44.714 206.08 44.9034C205.743 45.089 205.294 45.1818 204.734 45.1818ZM204.915 43.9773C205.453 43.9773 205.908 43.8371 206.279 43.5568C206.65 43.2727 206.933 42.8807 207.126 42.3807C207.319 41.8769 207.415 41.2955 207.415 40.6364C207.415 39.9848 207.321 39.4148 207.131 38.9261C206.942 38.4337 206.662 38.0511 206.29 37.7784C205.919 37.5019 205.461 37.3636 204.915 37.3636C204.347 37.3636 203.874 37.5095 203.495 37.8011C203.12 38.089 202.838 38.4811 202.648 38.9773C202.463 39.4697 202.37 40.0227 202.37 40.6364C202.37 41.2576 202.465 41.822 202.654 42.3295C202.847 42.8333 203.131 43.2348 203.506 43.5341C203.885 43.8295 204.355 43.9773 204.915 43.9773Z" fill="white"/>
<path d="M86.7919 84V72.3636H90.7237C91.6366 72.3636 92.3828 72.5284 92.9624 72.858C93.5457 73.1837 93.9775 73.625 94.2578 74.1818C94.5381 74.7386 94.6783 75.3598 94.6783 76.0455C94.6783 76.7311 94.5381 77.3542 94.2578 77.9148C93.9813 78.4754 93.5533 78.9223 92.9737 79.2557C92.3942 79.5852 91.6518 79.75 90.7464 79.75H87.9283V78.5H90.701C91.326 78.5 91.8279 78.392 92.2067 78.1761C92.5855 77.9602 92.8601 77.6686 93.0305 77.3011C93.2048 76.9299 93.2919 76.5114 93.2919 76.0455C93.2919 75.5795 93.2048 75.1629 93.0305 74.7955C92.8601 74.428 92.5836 74.1402 92.201 73.9318C91.8184 73.7197 91.3108 73.6136 90.6783 73.6136H88.201V84H86.7919ZM100.332 84.1818C99.4908 84.1818 98.7654 83.9962 98.1555 83.625C97.5495 83.25 97.0817 82.7273 96.7521 82.0568C96.4264 81.3826 96.2635 80.5985 96.2635 79.7045C96.2635 78.8106 96.4264 78.0227 96.7521 77.3409C97.0817 76.6553 97.54 76.1212 98.1271 75.7386C98.718 75.3523 99.4074 75.1591 100.195 75.1591C100.65 75.1591 101.099 75.2348 101.542 75.3864C101.985 75.5379 102.388 75.7841 102.752 76.125C103.116 76.4621 103.406 76.9091 103.621 77.4659C103.837 78.0227 103.945 78.7083 103.945 79.5227V80.0909H97.218V78.9318H102.582C102.582 78.4394 102.483 78 102.286 77.6136C102.093 77.2273 101.817 76.9223 101.457 76.6989C101.101 76.4754 100.68 76.3636 100.195 76.3636C99.6612 76.3636 99.1991 76.4962 98.8089 76.7614C98.4226 77.0227 98.1252 77.3636 97.9169 77.7841C97.7086 78.2045 97.6044 78.6553 97.6044 79.1364V79.9091C97.6044 80.5682 97.718 81.1269 97.9453 81.5852C98.1764 82.0398 98.4964 82.3864 98.9055 82.625C99.3146 82.8598 99.79 82.9773 100.332 82.9773C100.684 82.9773 101.002 82.928 101.286 82.8295C101.574 82.7273 101.822 82.5758 102.031 82.375C102.239 82.1705 102.4 81.9167 102.513 81.6136L103.809 81.9773C103.673 82.4167 103.443 82.803 103.121 83.1364C102.799 83.4659 102.402 83.7235 101.928 83.9091C101.455 84.0909 100.923 84.1818 100.332 84.1818ZM109.531 84.1818C108.743 84.1818 108.051 83.9943 107.457 83.6193C106.866 83.2443 106.404 82.7197 106.07 82.0455C105.741 81.3712 105.576 80.5833 105.576 79.6818C105.576 78.7727 105.741 77.9792 106.07 77.3011C106.404 76.6231 106.866 76.0966 107.457 75.7216C108.051 75.3466 108.743 75.1591 109.531 75.1591C110.318 75.1591 111.008 75.3466 111.599 75.7216C112.193 76.0966 112.656 76.6231 112.985 77.3011C113.318 77.9792 113.485 78.7727 113.485 79.6818C113.485 80.5833 113.318 81.3712 112.985 82.0455C112.656 82.7197 112.193 83.2443 111.599 83.6193C111.008 83.9943 110.318 84.1818 109.531 84.1818ZM109.531 82.9773C110.129 82.9773 110.621 82.8239 111.008 82.517C111.394 82.2102 111.68 81.8068 111.866 81.3068C112.051 80.8068 112.144 80.2652 112.144 79.6818C112.144 79.0985 112.051 78.5549 111.866 78.0511C111.68 77.5473 111.394 77.1402 111.008 76.8295C110.621 76.5189 110.129 76.3636 109.531 76.3636C108.932 76.3636 108.44 76.5189 108.053 76.8295C107.667 77.1402 107.381 77.5473 107.195 78.0511C107.01 78.5549 106.917 79.0985 106.917 79.6818C106.917 80.2652 107.01 80.8068 107.195 81.3068C107.381 81.8068 107.667 82.2102 108.053 82.517C108.44 82.8239 108.932 82.9773 109.531 82.9773ZM115.532 87.2727V75.2727H116.827V76.6591H116.987C117.085 76.5076 117.221 76.3144 117.396 76.0795C117.574 75.8409 117.827 75.6288 118.157 75.4432C118.49 75.2538 118.941 75.1591 119.509 75.1591C120.244 75.1591 120.892 75.3428 121.452 75.7102C122.013 76.0777 122.451 76.5985 122.765 77.2727C123.079 77.947 123.237 78.7424 123.237 79.6591C123.237 80.5833 123.079 81.3845 122.765 82.0625C122.451 82.7367 122.015 83.2595 121.458 83.6307C120.901 83.9981 120.259 84.1818 119.532 84.1818C118.971 84.1818 118.522 84.089 118.185 83.9034C117.848 83.714 117.589 83.5 117.407 83.2614C117.225 83.0189 117.085 82.8182 116.987 82.6591H116.873V87.2727H115.532ZM116.85 79.6364C116.85 80.2955 116.947 80.8769 117.14 81.3807C117.333 81.8807 117.615 82.2727 117.987 82.5568C118.358 82.8371 118.812 82.9773 119.35 82.9773C119.911 82.9773 120.379 82.8295 120.754 82.5341C121.132 82.2348 121.416 81.8333 121.606 81.3295C121.799 80.822 121.896 80.2576 121.896 79.6364C121.896 79.0227 121.801 78.4697 121.612 77.9773C121.426 77.4811 121.144 77.089 120.765 76.8011C120.39 76.5095 119.918 76.3636 119.35 76.3636C118.805 76.3636 118.346 76.5019 117.975 76.7784C117.604 77.0511 117.324 77.4337 117.134 77.9261C116.945 78.4148 116.85 78.9848 116.85 79.6364ZM126.623 72.3636V84H125.282V72.3636H126.623ZM132.738 84.1818C131.897 84.1818 131.172 83.9962 130.562 83.625C129.956 83.25 129.488 82.7273 129.158 82.0568C128.833 81.3826 128.67 80.5985 128.67 79.7045C128.67 78.8106 128.833 78.0227 129.158 77.3409C129.488 76.6553 129.946 76.1212 130.533 75.7386C131.124 75.3523 131.814 75.1591 132.602 75.1591C133.056 75.1591 133.505 75.2348 133.948 75.3864C134.391 75.5379 134.795 75.7841 135.158 76.125C135.522 76.4621 135.812 76.9091 136.028 77.4659C136.244 78.0227 136.352 78.7083 136.352 79.5227V80.0909H129.624V78.9318H134.988C134.988 78.4394 134.889 78 134.692 77.6136C134.499 77.2273 134.223 76.9223 133.863 76.6989C133.507 76.4754 133.086 76.3636 132.602 76.3636C132.067 76.3636 131.605 76.4962 131.215 76.7614C130.829 77.0227 130.531 77.3636 130.323 77.7841C130.115 78.2045 130.011 78.6553 130.011 79.1364V79.9091C130.011 80.5682 130.124 81.1269 130.352 81.5852C130.583 82.0398 130.903 82.3864 131.312 82.625C131.721 82.8598 132.196 82.9773 132.738 82.9773C133.09 82.9773 133.408 82.928 133.692 82.8295C133.98 82.7273 134.228 82.5758 134.437 82.375C134.645 82.1705 134.806 81.9167 134.92 81.6136L136.215 81.9773C136.079 82.4167 135.85 82.803 135.528 83.1364C135.206 83.4659 134.808 83.7235 134.335 83.9091C133.861 84.0909 133.329 84.1818 132.738 84.1818ZM144.482 72.3636V84H143.073V72.3636H144.482ZM148.467 78.75V84H147.126V75.2727H148.421V76.6364H148.535C148.739 76.1932 149.05 75.8371 149.467 75.5682C149.883 75.2955 150.421 75.1591 151.08 75.1591C151.671 75.1591 152.188 75.2803 152.631 75.5227C153.075 75.7614 153.419 76.125 153.665 76.6136C153.912 77.0985 154.035 77.7121 154.035 78.4545V84H152.694V78.5455C152.694 77.8598 152.516 77.3258 152.16 76.9432C151.804 76.5568 151.315 76.3636 150.694 76.3636C150.266 76.3636 149.883 76.4564 149.546 76.642C149.213 76.8277 148.95 77.0985 148.756 77.4545C148.563 77.8106 148.467 78.2424 148.467 78.75ZM160.281 75.2727V76.4091H155.758V75.2727H160.281ZM157.076 73.1818H158.417V81.5C158.417 81.8788 158.472 82.1629 158.582 82.3523C158.695 82.5379 158.839 82.6629 159.013 82.7273C159.192 82.7879 159.379 82.8182 159.576 82.8182C159.724 82.8182 159.845 82.8106 159.94 82.7955C160.034 82.7765 160.11 82.7614 160.167 82.75L160.44 83.9545C160.349 83.9886 160.222 84.0227 160.059 84.0568C159.896 84.0947 159.69 84.1136 159.44 84.1136C159.061 84.1136 158.69 84.0322 158.326 83.8693C157.966 83.7064 157.667 83.4583 157.428 83.125C157.193 82.7917 157.076 82.3712 157.076 81.8636V73.1818ZM165.863 84.1818C165.022 84.1818 164.297 83.9962 163.687 83.625C163.081 83.25 162.613 82.7273 162.283 82.0568C161.958 81.3826 161.795 80.5985 161.795 79.7045C161.795 78.8106 161.958 78.0227 162.283 77.3409C162.613 76.6553 163.071 76.1212 163.658 75.7386C164.249 75.3523 164.939 75.1591 165.727 75.1591C166.181 75.1591 166.63 75.2348 167.073 75.3864C167.516 75.5379 167.92 75.7841 168.283 76.125C168.647 76.4621 168.937 76.9091 169.153 77.4659C169.369 78.0227 169.477 78.7083 169.477 79.5227V80.0909H162.749V78.9318H168.113C168.113 78.4394 168.014 78 167.817 77.6136C167.624 77.2273 167.348 76.9223 166.988 76.6989C166.632 76.4754 166.211 76.3636 165.727 76.3636C165.192 76.3636 164.73 76.4962 164.34 76.7614C163.954 77.0227 163.656 77.3636 163.448 77.7841C163.24 78.2045 163.136 78.6553 163.136 79.1364V79.9091C163.136 80.5682 163.249 81.1269 163.477 81.5852C163.708 82.0398 164.028 82.3864 164.437 82.625C164.846 82.8598 165.321 82.9773 165.863 82.9773C166.215 82.9773 166.533 82.928 166.817 82.8295C167.105 82.7273 167.353 82.5758 167.562 82.375C167.77 82.1705 167.931 81.9167 168.045 81.6136L169.34 81.9773C169.204 82.4167 168.975 82.803 168.653 83.1364C168.331 83.4659 167.933 83.7235 167.46 83.9091C166.986 84.0909 166.454 84.1818 165.863 84.1818ZM171.516 84V75.2727H172.812V76.5909H172.903C173.062 76.1591 173.35 75.8087 173.766 75.5398C174.183 75.2708 174.653 75.1364 175.175 75.1364C175.274 75.1364 175.397 75.1383 175.545 75.142C175.692 75.1458 175.804 75.1515 175.88 75.1591V76.5227C175.835 76.5114 175.73 76.4943 175.567 76.4716C175.408 76.4451 175.24 76.4318 175.062 76.4318C174.638 76.4318 174.259 76.5208 173.925 76.6989C173.596 76.8731 173.335 77.1155 173.141 77.4261C172.952 77.733 172.857 78.0833 172.857 78.4773V84H171.516ZM180.863 84.1818C180.022 84.1818 179.297 83.9962 178.687 83.625C178.081 83.25 177.613 82.7273 177.283 82.0568C176.958 81.3826 176.795 80.5985 176.795 79.7045C176.795 78.8106 176.958 78.0227 177.283 77.3409C177.613 76.6553 178.071 76.1212 178.658 75.7386C179.249 75.3523 179.939 75.1591 180.727 75.1591C181.181 75.1591 181.63 75.2348 182.073 75.3864C182.516 75.5379 182.92 75.7841 183.283 76.125C183.647 76.4621 183.937 76.9091 184.153 77.4659C184.369 78.0227 184.477 78.7083 184.477 79.5227V80.0909H177.749V78.9318H183.113C183.113 78.4394 183.014 78 182.817 77.6136C182.624 77.2273 182.348 76.9223 181.988 76.6989C181.632 76.4754 181.211 76.3636 180.727 76.3636C180.192 76.3636 179.73 76.4962 179.34 76.7614C178.954 77.0227 178.656 77.3636 178.448 77.7841C178.24 78.2045 178.136 78.6553 178.136 79.1364V79.9091C178.136 80.5682 178.249 81.1269 178.477 81.5852C178.708 82.0398 179.028 82.3864 179.437 82.625C179.846 82.8598 180.321 82.9773 180.863 82.9773C181.215 82.9773 181.533 82.928 181.817 82.8295C182.105 82.7273 182.353 82.5758 182.562 82.375C182.77 82.1705 182.931 81.9167 183.045 81.6136L184.34 81.9773C184.204 82.4167 183.975 82.803 183.653 83.1364C183.331 83.4659 182.933 83.7235 182.46 83.9091C181.986 84.0909 181.454 84.1818 180.863 84.1818ZM192.698 77.2273L191.494 77.5682C191.418 77.3674 191.306 77.1723 191.158 76.983C191.014 76.7898 190.817 76.6307 190.567 76.5057C190.317 76.3807 189.997 76.3182 189.607 76.3182C189.073 76.3182 188.628 76.4413 188.272 76.6875C187.92 76.9299 187.744 77.2386 187.744 77.6136C187.744 77.947 187.865 78.2102 188.107 78.4034C188.35 78.5966 188.728 78.7576 189.244 78.8864L190.539 79.2045C191.319 79.3939 191.901 79.6837 192.283 80.0739C192.666 80.4602 192.857 80.9583 192.857 81.5682C192.857 82.0682 192.713 82.5152 192.425 82.9091C192.141 83.303 191.744 83.6136 191.232 83.8409C190.721 84.0682 190.126 84.1818 189.448 84.1818C188.558 84.1818 187.821 83.9886 187.238 83.6023C186.655 83.2159 186.285 82.6515 186.13 81.9091L187.403 81.5909C187.524 82.0606 187.753 82.4129 188.09 82.6477C188.431 82.8826 188.876 83 189.425 83C190.05 83 190.547 82.8674 190.914 82.6023C191.285 82.3333 191.471 82.0114 191.471 81.6364C191.471 81.3333 191.365 81.0795 191.153 80.875C190.941 80.6667 190.615 80.5114 190.175 80.4091L188.721 80.0682C187.922 79.8788 187.335 79.5852 186.96 79.1875C186.588 78.786 186.403 78.2841 186.403 77.6818C186.403 77.1894 186.541 76.7538 186.817 76.375C187.098 75.9962 187.478 75.6989 187.96 75.483C188.444 75.267 188.994 75.1591 189.607 75.1591C190.471 75.1591 191.149 75.3485 191.641 75.7273C192.138 76.1061 192.49 76.6061 192.698 77.2273ZM198.671 75.2727V76.4091H194.148V75.2727H198.671ZM195.467 73.1818H196.808V81.5C196.808 81.8788 196.862 82.1629 196.972 82.3523C197.086 82.5379 197.23 82.6629 197.404 82.7273C197.582 82.7879 197.77 82.8182 197.967 82.8182C198.114 82.8182 198.236 82.8106 198.33 82.7955C198.425 82.7765 198.501 82.7614 198.558 82.75L198.83 83.9545C198.739 83.9886 198.612 84.0227 198.45 84.0568C198.287 84.0947 198.08 84.1136 197.83 84.1136C197.451 84.1136 197.08 84.0322 196.717 83.8693C196.357 83.7064 196.058 83.4583 195.819 83.125C195.584 82.7917 195.467 82.3712 195.467 81.8636V73.1818ZM204.254 84.1818C203.413 84.1818 202.687 83.9962 202.077 83.625C201.471 83.25 201.004 82.7273 200.674 82.0568C200.348 81.3826 200.185 80.5985 200.185 79.7045C200.185 78.8106 200.348 78.0227 200.674 77.3409C201.004 76.6553 201.462 76.1212 202.049 75.7386C202.64 75.3523 203.329 75.1591 204.117 75.1591C204.572 75.1591 205.021 75.2348 205.464 75.3864C205.907 75.5379 206.31 75.7841 206.674 76.125C207.038 76.4621 207.327 76.9091 207.543 77.4659C207.759 78.0227 207.867 78.7083 207.867 79.5227V80.0909H201.14V78.9318H206.504C206.504 78.4394 206.405 78 206.208 77.6136C206.015 77.2273 205.738 76.9223 205.379 76.6989C205.022 76.4754 204.602 76.3636 204.117 76.3636C203.583 76.3636 203.121 76.4962 202.731 76.7614C202.344 77.0227 202.047 77.3636 201.839 77.7841C201.63 78.2045 201.526 78.6553 201.526 79.1364V79.9091C201.526 80.5682 201.64 81.1269 201.867 81.5852C202.098 82.0398 202.418 82.3864 202.827 82.625C203.237 82.8598 203.712 82.9773 204.254 82.9773C204.606 82.9773 204.924 82.928 205.208 82.8295C205.496 82.7273 205.744 82.5758 205.952 82.375C206.161 82.1705 206.322 81.9167 206.435 81.6136L207.731 81.9773C207.594 82.4167 207.365 82.803 207.043 83.1364C206.721 83.4659 206.324 83.7235 205.85 83.9091C205.377 84.0909 204.844 84.1818 204.254 84.1818ZM213.202 84.1818C212.475 84.1818 211.833 83.9981 211.276 83.6307C210.719 83.2595 210.284 82.7367 209.969 82.0625C209.655 81.3845 209.498 80.5833 209.498 79.6591C209.498 78.7424 209.655 77.947 209.969 77.2727C210.284 76.5985 210.721 76.0777 211.282 75.7102C211.843 75.3428 212.49 75.1591 213.225 75.1591C213.793 75.1591 214.242 75.2538 214.572 75.4432C214.905 75.6288 215.159 75.8409 215.333 76.0795C215.511 76.3144 215.649 76.5076 215.748 76.6591H215.862V72.3636H217.202V84H215.907V82.6591H215.748C215.649 82.8182 215.509 83.0189 215.327 83.2614C215.146 83.5 214.886 83.714 214.549 83.9034C214.212 84.089 213.763 84.1818 213.202 84.1818ZM213.384 82.9773C213.922 82.9773 214.377 82.8371 214.748 82.5568C215.119 82.2727 215.401 81.8807 215.594 81.3807C215.788 80.8769 215.884 80.2955 215.884 79.6364C215.884 78.9848 215.79 78.4148 215.6 77.9261C215.411 77.4337 215.13 77.0511 214.759 76.7784C214.388 76.5019 213.93 76.3636 213.384 76.3636C212.816 76.3636 212.343 76.5095 211.964 76.8011C211.589 77.089 211.307 77.4811 211.117 77.9773C210.932 78.4697 210.839 79.0227 210.839 79.6364C210.839 80.2576 210.933 80.822 211.123 81.3295C211.316 81.8333 211.6 82.2348 211.975 82.5341C212.354 82.8295 212.824 82.9773 213.384 82.9773Z" fill="white"/>
<path d="M81.9169 123V111.364H88.9396V112.614H83.326V116.545H88.576V117.795H83.326V121.75H89.0305V123H81.9169ZM91.2976 123V114.273H92.593V115.636H92.7067C92.8885 115.17 93.1821 114.809 93.5874 114.551C93.9927 114.29 94.4794 114.159 95.0476 114.159C95.6233 114.159 96.1025 114.29 96.4851 114.551C96.8714 114.809 97.1726 115.17 97.3885 115.636H97.4794C97.7029 115.186 98.0381 114.828 98.4851 114.562C98.9321 114.294 99.468 114.159 100.093 114.159C100.873 114.159 101.512 114.403 102.008 114.892C102.504 115.377 102.752 116.133 102.752 117.159V123H101.411V117.159C101.411 116.515 101.235 116.055 100.883 115.778C100.531 115.502 100.116 115.364 99.6385 115.364C99.0249 115.364 98.5495 115.549 98.2124 115.92C97.8752 116.288 97.7067 116.754 97.7067 117.318V123H96.343V117.023C96.343 116.527 96.1821 116.127 95.8601 115.824C95.5381 115.517 95.1233 115.364 94.6158 115.364C94.2673 115.364 93.9415 115.456 93.6385 115.642C93.3393 115.828 93.0968 116.085 92.9112 116.415C92.7294 116.741 92.6385 117.117 92.6385 117.545V123H91.2976ZM105.204 126.273V114.273H106.499V115.659H106.658C106.757 115.508 106.893 115.314 107.067 115.08C107.246 114.841 107.499 114.629 107.829 114.443C108.162 114.254 108.613 114.159 109.181 114.159C109.916 114.159 110.564 114.343 111.124 114.71C111.685 115.078 112.122 115.598 112.437 116.273C112.751 116.947 112.908 117.742 112.908 118.659C112.908 119.583 112.751 120.384 112.437 121.062C112.122 121.737 111.687 122.259 111.13 122.631C110.573 122.998 109.931 123.182 109.204 123.182C108.643 123.182 108.194 123.089 107.857 122.903C107.52 122.714 107.261 122.5 107.079 122.261C106.897 122.019 106.757 121.818 106.658 121.659H106.545V126.273H105.204ZM106.522 118.636C106.522 119.295 106.619 119.877 106.812 120.381C107.005 120.881 107.287 121.273 107.658 121.557C108.03 121.837 108.484 121.977 109.022 121.977C109.583 121.977 110.05 121.83 110.425 121.534C110.804 121.235 111.088 120.833 111.278 120.33C111.471 119.822 111.567 119.258 111.567 118.636C111.567 118.023 111.473 117.47 111.283 116.977C111.098 116.481 110.816 116.089 110.437 115.801C110.062 115.509 109.59 115.364 109.022 115.364C108.477 115.364 108.018 115.502 107.647 115.778C107.276 116.051 106.996 116.434 106.806 116.926C106.617 117.415 106.522 117.985 106.522 118.636ZM116.295 111.364V123H114.954V111.364H116.295ZM122.296 123.182C121.508 123.182 120.817 122.994 120.222 122.619C119.631 122.244 119.169 121.72 118.836 121.045C118.506 120.371 118.342 119.583 118.342 118.682C118.342 117.773 118.506 116.979 118.836 116.301C119.169 115.623 119.631 115.097 120.222 114.722C120.817 114.347 121.508 114.159 122.296 114.159C123.084 114.159 123.773 114.347 124.364 114.722C124.959 115.097 125.421 115.623 125.751 116.301C126.084 116.979 126.251 117.773 126.251 118.682C126.251 119.583 126.084 120.371 125.751 121.045C125.421 121.72 124.959 122.244 124.364 122.619C123.773 122.994 123.084 123.182 122.296 123.182ZM122.296 121.977C122.895 121.977 123.387 121.824 123.773 121.517C124.16 121.21 124.446 120.807 124.631 120.307C124.817 119.807 124.91 119.265 124.91 118.682C124.91 118.098 124.817 117.555 124.631 117.051C124.446 116.547 124.16 116.14 123.773 115.83C123.387 115.519 122.895 115.364 122.296 115.364C121.698 115.364 121.205 115.519 120.819 115.83C120.433 116.14 120.147 116.547 119.961 117.051C119.775 117.555 119.683 118.098 119.683 118.682C119.683 119.265 119.775 119.807 119.961 120.307C120.147 120.807 120.433 121.21 120.819 121.517C121.205 121.824 121.698 121.977 122.296 121.977ZM128.849 126.273C128.621 126.273 128.419 126.254 128.241 126.216C128.063 126.182 127.94 126.148 127.871 126.114L128.212 124.932C128.538 125.015 128.826 125.045 129.076 125.023C129.326 125 129.548 124.888 129.741 124.688C129.938 124.491 130.118 124.17 130.281 123.727L130.531 123.045L127.303 114.273H128.758L131.167 121.227H131.258L133.667 114.273H135.121L131.417 124.273C131.25 124.723 131.044 125.097 130.798 125.392C130.551 125.691 130.265 125.913 129.94 126.057C129.618 126.201 129.254 126.273 128.849 126.273ZM140.238 123.182C139.397 123.182 138.672 122.996 138.062 122.625C137.456 122.25 136.988 121.727 136.658 121.057C136.333 120.383 136.17 119.598 136.17 118.705C136.17 117.811 136.333 117.023 136.658 116.341C136.988 115.655 137.446 115.121 138.033 114.739C138.624 114.352 139.314 114.159 140.102 114.159C140.556 114.159 141.005 114.235 141.448 114.386C141.891 114.538 142.295 114.784 142.658 115.125C143.022 115.462 143.312 115.909 143.528 116.466C143.744 117.023 143.852 117.708 143.852 118.523V119.091H137.124V117.932H142.488C142.488 117.439 142.389 117 142.192 116.614C141.999 116.227 141.723 115.922 141.363 115.699C141.007 115.475 140.586 115.364 140.102 115.364C139.567 115.364 139.105 115.496 138.715 115.761C138.329 116.023 138.031 116.364 137.823 116.784C137.615 117.205 137.511 117.655 137.511 118.136V118.909C137.511 119.568 137.624 120.127 137.852 120.585C138.083 121.04 138.403 121.386 138.812 121.625C139.221 121.86 139.696 121.977 140.238 121.977C140.59 121.977 140.908 121.928 141.192 121.83C141.48 121.727 141.728 121.576 141.937 121.375C142.145 121.17 142.306 120.917 142.42 120.614L143.715 120.977C143.579 121.417 143.35 121.803 143.028 122.136C142.706 122.466 142.308 122.723 141.835 122.909C141.361 123.091 140.829 123.182 140.238 123.182ZM145.891 123V114.273H147.187V115.591H147.278C147.437 115.159 147.725 114.809 148.141 114.54C148.558 114.271 149.028 114.136 149.55 114.136C149.649 114.136 149.772 114.138 149.92 114.142C150.067 114.146 150.179 114.152 150.255 114.159V115.523C150.21 115.511 150.105 115.494 149.942 115.472C149.783 115.445 149.615 115.432 149.437 115.432C149.013 115.432 148.634 115.521 148.3 115.699C147.971 115.873 147.71 116.116 147.516 116.426C147.327 116.733 147.232 117.083 147.232 117.477V123H145.891ZM158.026 116.227L156.822 116.568C156.746 116.367 156.634 116.172 156.487 115.983C156.343 115.79 156.146 115.631 155.896 115.506C155.646 115.381 155.326 115.318 154.935 115.318C154.401 115.318 153.956 115.441 153.6 115.688C153.248 115.93 153.072 116.239 153.072 116.614C153.072 116.947 153.193 117.21 153.435 117.403C153.678 117.597 154.057 117.758 154.572 117.886L155.867 118.205C156.647 118.394 157.229 118.684 157.612 119.074C157.994 119.46 158.185 119.958 158.185 120.568C158.185 121.068 158.041 121.515 157.754 121.909C157.469 122.303 157.072 122.614 156.56 122.841C156.049 123.068 155.454 123.182 154.776 123.182C153.886 123.182 153.149 122.989 152.566 122.602C151.983 122.216 151.613 121.652 151.458 120.909L152.731 120.591C152.852 121.061 153.081 121.413 153.418 121.648C153.759 121.883 154.204 122 154.754 122C155.379 122 155.875 121.867 156.242 121.602C156.613 121.333 156.799 121.011 156.799 120.636C156.799 120.333 156.693 120.08 156.481 119.875C156.269 119.667 155.943 119.511 155.504 119.409L154.049 119.068C153.25 118.879 152.663 118.585 152.288 118.188C151.916 117.786 151.731 117.284 151.731 116.682C151.731 116.189 151.869 115.754 152.146 115.375C152.426 114.996 152.807 114.699 153.288 114.483C153.772 114.267 154.322 114.159 154.935 114.159C155.799 114.159 156.477 114.348 156.969 114.727C157.466 115.106 157.818 115.606 158.026 116.227ZM174.113 111.364V123H172.749L166.408 113.864H166.295V123H164.886V111.364H166.249L172.613 120.523H172.727V111.364H174.113ZM180.296 123.182C179.508 123.182 178.817 122.994 178.222 122.619C177.631 122.244 177.169 121.72 176.836 121.045C176.506 120.371 176.342 119.583 176.342 118.682C176.342 117.773 176.506 116.979 176.836 116.301C177.169 115.623 177.631 115.097 178.222 114.722C178.817 114.347 179.508 114.159 180.296 114.159C181.084 114.159 181.773 114.347 182.364 114.722C182.959 115.097 183.421 115.623 183.751 116.301C184.084 116.979 184.251 117.773 184.251 118.682C184.251 119.583 184.084 120.371 183.751 121.045C183.421 121.72 182.959 122.244 182.364 122.619C181.773 122.994 181.084 123.182 180.296 123.182ZM180.296 121.977C180.895 121.977 181.387 121.824 181.773 121.517C182.16 121.21 182.446 120.807 182.631 120.307C182.817 119.807 182.91 119.265 182.91 118.682C182.91 118.098 182.817 117.555 182.631 117.051C182.446 116.547 182.16 116.14 181.773 115.83C181.387 115.519 180.895 115.364 180.296 115.364C179.698 115.364 179.205 115.519 178.819 115.83C178.433 116.14 178.147 116.547 177.961 117.051C177.775 117.555 177.683 118.098 177.683 118.682C177.683 119.265 177.775 119.807 177.961 120.307C178.147 120.807 178.433 121.21 178.819 121.517C179.205 121.824 179.698 121.977 180.296 121.977ZM190.093 114.273V115.409H185.57V114.273H190.093ZM186.888 112.182H188.229V120.5C188.229 120.879 188.284 121.163 188.394 121.352C188.508 121.538 188.652 121.663 188.826 121.727C189.004 121.788 189.192 121.818 189.388 121.818C189.536 121.818 189.657 121.811 189.752 121.795C189.847 121.777 189.923 121.761 189.979 121.75L190.252 122.955C190.161 122.989 190.034 123.023 189.871 123.057C189.709 123.095 189.502 123.114 189.252 123.114C188.873 123.114 188.502 123.032 188.138 122.869C187.779 122.706 187.479 122.458 187.241 122.125C187.006 121.792 186.888 121.371 186.888 120.864V112.182ZM192.11 123V114.273H193.451V123H192.11ZM192.792 112.818C192.531 112.818 192.305 112.729 192.116 112.551C191.93 112.373 191.837 112.159 191.837 111.909C191.837 111.659 191.93 111.445 192.116 111.267C192.305 111.089 192.531 111 192.792 111C193.053 111 193.277 111.089 193.462 111.267C193.652 111.445 193.746 111.659 193.746 111.909C193.746 112.159 193.652 112.373 193.462 112.551C193.277 112.729 193.053 112.818 192.792 112.818ZM199.793 114.273V115.409H195.089V114.273H199.793ZM196.498 123V113.068C196.498 112.568 196.615 112.152 196.85 111.818C197.085 111.485 197.39 111.235 197.765 111.068C198.14 110.902 198.536 110.818 198.952 110.818C199.282 110.818 199.551 110.845 199.759 110.898C199.968 110.951 200.123 111 200.225 111.045L199.839 112.205C199.771 112.182 199.676 112.153 199.555 112.119C199.437 112.085 199.282 112.068 199.089 112.068C198.646 112.068 198.326 112.18 198.129 112.403C197.935 112.627 197.839 112.955 197.839 113.386V123H196.498ZM201.673 123V114.273H203.013V123H201.673ZM202.354 112.818C202.093 112.818 201.868 112.729 201.678 112.551C201.493 112.373 201.4 112.159 201.4 111.909C201.4 111.659 201.493 111.445 201.678 111.267C201.868 111.089 202.093 111 202.354 111C202.616 111 202.839 111.089 203.025 111.267C203.214 111.445 203.309 111.659 203.309 111.909C203.309 112.159 203.214 112.373 203.025 112.551C202.839 112.729 202.616 112.818 202.354 112.818ZM209.129 123.182C208.288 123.182 207.562 122.996 206.952 122.625C206.346 122.25 205.879 121.727 205.549 121.057C205.223 120.383 205.06 119.598 205.06 118.705C205.06 117.811 205.223 117.023 205.549 116.341C205.879 115.655 206.337 115.121 206.924 114.739C207.515 114.352 208.204 114.159 208.992 114.159C209.447 114.159 209.896 114.235 210.339 114.386C210.782 114.538 211.185 114.784 211.549 115.125C211.913 115.462 212.202 115.909 212.418 116.466C212.634 117.023 212.742 117.708 212.742 118.523V119.091H206.015V117.932H211.379C211.379 117.439 211.28 117 211.083 116.614C210.89 116.227 210.613 115.922 210.254 115.699C209.897 115.475 209.477 115.364 208.992 115.364C208.458 115.364 207.996 115.496 207.606 115.761C207.219 116.023 206.922 116.364 206.714 116.784C206.505 117.205 206.401 117.655 206.401 118.136V118.909C206.401 119.568 206.515 120.127 206.742 120.585C206.973 121.04 207.293 121.386 207.702 121.625C208.112 121.86 208.587 121.977 209.129 121.977C209.481 121.977 209.799 121.928 210.083 121.83C210.371 121.727 210.619 121.576 210.827 121.375C211.036 121.17 211.197 120.917 211.31 120.614L212.606 120.977C212.469 121.417 212.24 121.803 211.918 122.136C211.596 122.466 211.199 122.723 210.725 122.909C210.252 123.091 209.719 123.182 209.129 123.182ZM218.077 123.182C217.35 123.182 216.708 122.998 216.151 122.631C215.594 122.259 215.159 121.737 214.844 121.062C214.53 120.384 214.373 119.583 214.373 118.659C214.373 117.742 214.53 116.947 214.844 116.273C215.159 115.598 215.596 115.078 216.157 114.71C216.718 114.343 217.365 114.159 218.1 114.159C218.668 114.159 219.117 114.254 219.447 114.443C219.78 114.629 220.034 114.841 220.208 115.08C220.386 115.314 220.524 115.508 220.623 115.659H220.737V111.364H222.077V123H220.782V121.659H220.623C220.524 121.818 220.384 122.019 220.202 122.261C220.021 122.5 219.761 122.714 219.424 122.903C219.087 123.089 218.638 123.182 218.077 123.182ZM218.259 121.977C218.797 121.977 219.252 121.837 219.623 121.557C219.994 121.273 220.276 120.881 220.469 120.381C220.663 119.877 220.759 119.295 220.759 118.636C220.759 117.985 220.665 117.415 220.475 116.926C220.286 116.434 220.005 116.051 219.634 115.778C219.263 115.502 218.805 115.364 218.259 115.364C217.691 115.364 217.218 115.509 216.839 115.801C216.464 116.089 216.182 116.481 215.992 116.977C215.807 117.47 215.714 118.023 215.714 118.636C215.714 119.258 215.808 119.822 215.998 120.33C216.191 120.833 216.475 121.235 216.85 121.534C217.229 121.83 217.699 121.977 218.259 121.977Z" fill="white"/>
<path d="M73.4482 162V150.364H80.4709V151.614H74.8572V155.545H80.1072V156.795H74.8572V160.75H80.5618V162H73.4482ZM82.8288 162V153.273H84.1243V154.636H84.2379C84.4197 154.17 84.7133 153.809 85.1186 153.551C85.5239 153.29 86.0107 153.159 86.5788 153.159C87.1546 153.159 87.6338 153.29 88.0163 153.551C88.4027 153.809 88.7038 154.17 88.9197 154.636H89.0107C89.2341 154.186 89.5694 153.828 90.0163 153.562C90.4633 153.294 90.9993 153.159 91.6243 153.159C92.4046 153.159 93.0429 153.403 93.5391 153.892C94.0353 154.377 94.2834 155.133 94.2834 156.159V162H92.9425V156.159C92.9425 155.515 92.7663 155.055 92.4141 154.778C92.0618 154.502 91.647 154.364 91.1697 154.364C90.5561 154.364 90.0807 154.549 89.7436 154.92C89.4065 155.288 89.2379 155.754 89.2379 156.318V162H87.8743V156.023C87.8743 155.527 87.7133 155.127 87.3913 154.824C87.0694 154.517 86.6546 154.364 86.147 154.364C85.7985 154.364 85.4728 154.456 85.1697 154.642C84.8705 154.828 84.6281 155.085 84.4425 155.415C84.2607 155.741 84.1697 156.117 84.1697 156.545V162H82.8288ZM96.7351 165.273V153.273H98.0305V154.659H98.1896C98.2881 154.508 98.4245 154.314 98.5987 154.08C98.7768 153.841 99.0305 153.629 99.3601 153.443C99.6934 153.254 100.144 153.159 100.712 153.159C101.447 153.159 102.095 153.343 102.656 153.71C103.216 154.078 103.654 154.598 103.968 155.273C104.282 155.947 104.44 156.742 104.44 157.659C104.44 158.583 104.282 159.384 103.968 160.062C103.654 160.737 103.218 161.259 102.661 161.631C102.104 161.998 101.462 162.182 100.735 162.182C100.174 162.182 99.7256 162.089 99.3885 161.903C99.0514 161.714 98.7919 161.5 98.6101 161.261C98.4283 161.019 98.2881 160.818 98.1896 160.659H98.076V165.273H96.7351ZM98.0533 157.636C98.0533 158.295 98.1499 158.877 98.343 159.381C98.5362 159.881 98.8184 160.273 99.1896 160.557C99.5608 160.837 100.015 160.977 100.553 160.977C101.114 160.977 101.582 160.83 101.957 160.534C102.335 160.235 102.62 159.833 102.809 159.33C103.002 158.822 103.099 158.258 103.099 157.636C103.099 157.023 103.004 156.47 102.815 155.977C102.629 155.481 102.347 155.089 101.968 154.801C101.593 154.509 101.121 154.364 100.553 154.364C100.008 154.364 99.5495 154.502 99.1783 154.778C98.8071 155.051 98.5268 155.434 98.3374 155.926C98.148 156.415 98.0533 156.985 98.0533 157.636ZM107.826 150.364V162H106.485V150.364H107.826ZM113.827 162.182C113.04 162.182 112.348 161.994 111.754 161.619C111.163 161.244 110.701 160.72 110.367 160.045C110.038 159.371 109.873 158.583 109.873 157.682C109.873 156.773 110.038 155.979 110.367 155.301C110.701 154.623 111.163 154.097 111.754 153.722C112.348 153.347 113.04 153.159 113.827 153.159C114.615 153.159 115.305 153.347 115.896 153.722C116.49 154.097 116.952 154.623 117.282 155.301C117.615 155.979 117.782 156.773 117.782 157.682C117.782 158.583 117.615 159.371 117.282 160.045C116.952 160.72 116.49 161.244 115.896 161.619C115.305 161.994 114.615 162.182 113.827 162.182ZM113.827 160.977C114.426 160.977 114.918 160.824 115.305 160.517C115.691 160.21 115.977 159.807 116.163 159.307C116.348 158.807 116.441 158.265 116.441 157.682C116.441 157.098 116.348 156.555 116.163 156.051C115.977 155.547 115.691 155.14 115.305 154.83C114.918 154.519 114.426 154.364 113.827 154.364C113.229 154.364 112.737 154.519 112.35 154.83C111.964 155.14 111.678 155.547 111.492 156.051C111.307 156.555 111.214 157.098 111.214 157.682C111.214 158.265 111.307 158.807 111.492 159.307C111.678 159.807 111.964 160.21 112.35 160.517C112.737 160.824 113.229 160.977 113.827 160.977ZM120.38 165.273C120.153 165.273 119.95 165.254 119.772 165.216C119.594 165.182 119.471 165.148 119.403 165.114L119.744 163.932C120.069 164.015 120.357 164.045 120.607 164.023C120.857 164 121.079 163.888 121.272 163.688C121.469 163.491 121.649 163.17 121.812 162.727L122.062 162.045L118.835 153.273H120.289L122.698 160.227H122.789L125.198 153.273H126.653L122.948 163.273C122.781 163.723 122.575 164.097 122.329 164.392C122.083 164.691 121.797 164.913 121.471 165.057C121.149 165.201 120.785 165.273 120.38 165.273ZM131.769 162.182C130.928 162.182 130.203 161.996 129.593 161.625C128.987 161.25 128.519 160.727 128.19 160.057C127.864 159.383 127.701 158.598 127.701 157.705C127.701 156.811 127.864 156.023 128.19 155.341C128.519 154.655 128.978 154.121 129.565 153.739C130.156 153.352 130.845 153.159 131.633 153.159C132.087 153.159 132.536 153.235 132.979 153.386C133.423 153.538 133.826 153.784 134.19 154.125C134.553 154.462 134.843 154.909 135.059 155.466C135.275 156.023 135.383 156.708 135.383 157.523V158.091H128.656V156.932H134.019C134.019 156.439 133.921 156 133.724 155.614C133.531 155.227 133.254 154.922 132.894 154.699C132.538 154.475 132.118 154.364 131.633 154.364C131.099 154.364 130.637 154.496 130.246 154.761C129.86 155.023 129.563 155.364 129.354 155.784C129.146 156.205 129.042 156.655 129.042 157.136V157.909C129.042 158.568 129.156 159.127 129.383 159.585C129.614 160.04 129.934 160.386 130.343 160.625C130.752 160.86 131.228 160.977 131.769 160.977C132.121 160.977 132.44 160.928 132.724 160.83C133.012 160.727 133.26 160.576 133.468 160.375C133.676 160.17 133.837 159.917 133.951 159.614L135.246 159.977C135.11 160.417 134.881 160.803 134.559 161.136C134.237 161.466 133.839 161.723 133.366 161.909C132.892 162.091 132.36 162.182 131.769 162.182ZM137.423 162V153.273H138.718V154.591H138.809C138.968 154.159 139.256 153.809 139.673 153.54C140.089 153.271 140.559 153.136 141.082 153.136C141.18 153.136 141.303 153.138 141.451 153.142C141.599 153.146 141.71 153.152 141.786 153.159V154.523C141.741 154.511 141.637 154.494 141.474 154.472C141.315 154.445 141.146 154.432 140.968 154.432C140.544 154.432 140.165 154.521 139.832 154.699C139.502 154.873 139.241 155.116 139.048 155.426C138.858 155.733 138.763 156.083 138.763 156.477V162H137.423ZM149.558 155.227L148.353 155.568C148.277 155.367 148.165 155.172 148.018 154.983C147.874 154.79 147.677 154.631 147.427 154.506C147.177 154.381 146.857 154.318 146.467 154.318C145.933 154.318 145.487 154.441 145.131 154.688C144.779 154.93 144.603 155.239 144.603 155.614C144.603 155.947 144.724 156.21 144.967 156.403C145.209 156.597 145.588 156.758 146.103 156.886L147.398 157.205C148.179 157.394 148.76 157.684 149.143 158.074C149.525 158.46 149.717 158.958 149.717 159.568C149.717 160.068 149.573 160.515 149.285 160.909C149.001 161.303 148.603 161.614 148.092 161.841C147.58 162.068 146.986 162.182 146.308 162.182C145.417 162.182 144.681 161.989 144.097 161.602C143.514 161.216 143.145 160.652 142.989 159.909L144.262 159.591C144.383 160.061 144.612 160.413 144.95 160.648C145.29 160.883 145.736 161 146.285 161C146.91 161 147.406 160.867 147.773 160.602C148.145 160.333 148.33 160.011 148.33 159.636C148.33 159.333 148.224 159.08 148.012 158.875C147.8 158.667 147.474 158.511 147.035 158.409L145.58 158.068C144.781 157.879 144.194 157.585 143.819 157.188C143.448 156.786 143.262 156.284 143.262 155.682C143.262 155.189 143.4 154.754 143.677 154.375C143.957 153.996 144.338 153.699 144.819 153.483C145.304 153.267 145.853 153.159 146.467 153.159C147.33 153.159 148.008 153.348 148.501 153.727C148.997 154.106 149.349 154.606 149.558 155.227ZM157.826 150.364V162H156.417V150.364H157.826ZM161.81 156.75V162H160.469V153.273H161.765V154.636H161.879C162.083 154.193 162.394 153.837 162.81 153.568C163.227 153.295 163.765 153.159 164.424 153.159C165.015 153.159 165.532 153.28 165.975 153.523C166.418 153.761 166.763 154.125 167.009 154.614C167.255 155.098 167.379 155.712 167.379 156.455V162H166.038V156.545C166.038 155.86 165.86 155.326 165.504 154.943C165.147 154.557 164.659 154.364 164.038 154.364C163.61 154.364 163.227 154.456 162.89 154.642C162.557 154.828 162.293 155.098 162.1 155.455C161.907 155.811 161.81 156.242 161.81 156.75ZM173.624 153.273V154.409H169.102V153.273H173.624ZM170.42 151.182H171.761V159.5C171.761 159.879 171.816 160.163 171.925 160.352C172.039 160.538 172.183 160.663 172.357 160.727C172.535 160.788 172.723 160.818 172.92 160.818C173.067 160.818 173.189 160.811 173.283 160.795C173.378 160.777 173.454 160.761 173.511 160.75L173.783 161.955C173.692 161.989 173.566 162.023 173.403 162.057C173.24 162.095 173.033 162.114 172.783 162.114C172.405 162.114 172.033 162.032 171.67 161.869C171.31 161.706 171.011 161.458 170.772 161.125C170.537 160.792 170.42 160.371 170.42 159.864V151.182ZM179.207 162.182C178.366 162.182 177.64 161.996 177.031 161.625C176.424 161.25 175.957 160.727 175.627 160.057C175.301 159.383 175.138 158.598 175.138 157.705C175.138 156.811 175.301 156.023 175.627 155.341C175.957 154.655 176.415 154.121 177.002 153.739C177.593 153.352 178.282 153.159 179.07 153.159C179.525 153.159 179.974 153.235 180.417 153.386C180.86 153.538 181.263 153.784 181.627 154.125C181.991 154.462 182.281 154.909 182.496 155.466C182.712 156.023 182.82 156.708 182.82 157.523V158.091H176.093V156.932H181.457C181.457 156.439 181.358 156 181.161 155.614C180.968 155.227 180.692 154.922 180.332 154.699C179.976 154.475 179.555 154.364 179.07 154.364C178.536 154.364 178.074 154.496 177.684 154.761C177.298 155.023 177 155.364 176.792 155.784C176.584 156.205 176.479 156.655 176.479 157.136V157.909C176.479 158.568 176.593 159.127 176.82 159.585C177.051 160.04 177.371 160.386 177.781 160.625C178.19 160.86 178.665 160.977 179.207 160.977C179.559 160.977 179.877 160.928 180.161 160.83C180.449 160.727 180.697 160.576 180.906 160.375C181.114 160.17 181.275 159.917 181.388 159.614L182.684 159.977C182.548 160.417 182.318 160.803 181.996 161.136C181.674 161.466 181.277 161.723 180.803 161.909C180.33 162.091 179.798 162.182 179.207 162.182ZM184.86 162V153.273H186.156V154.591H186.246C186.406 154.159 186.693 153.809 187.11 153.54C187.527 153.271 187.996 153.136 188.519 153.136C188.618 153.136 188.741 153.138 188.888 153.142C189.036 153.146 189.148 153.152 189.224 153.159V154.523C189.178 154.511 189.074 154.494 188.911 154.472C188.752 154.445 188.584 154.432 188.406 154.432C187.981 154.432 187.603 154.521 187.269 154.699C186.94 154.873 186.678 155.116 186.485 155.426C186.296 155.733 186.201 156.083 186.201 156.477V162H184.86ZM194.207 162.182C193.366 162.182 192.64 161.996 192.031 161.625C191.424 161.25 190.957 160.727 190.627 160.057C190.301 159.383 190.138 158.598 190.138 157.705C190.138 156.811 190.301 156.023 190.627 155.341C190.957 154.655 191.415 154.121 192.002 153.739C192.593 153.352 193.282 153.159 194.07 153.159C194.525 153.159 194.974 153.235 195.417 153.386C195.86 153.538 196.263 153.784 196.627 154.125C196.991 154.462 197.281 154.909 197.496 155.466C197.712 156.023 197.82 156.708 197.82 157.523V158.091H191.093V156.932H196.457C196.457 156.439 196.358 156 196.161 155.614C195.968 155.227 195.692 154.922 195.332 154.699C194.976 154.475 194.555 154.364 194.07 154.364C193.536 154.364 193.074 154.496 192.684 154.761C192.298 155.023 192 155.364 191.792 155.784C191.584 156.205 191.479 156.655 191.479 157.136V157.909C191.479 158.568 191.593 159.127 191.82 159.585C192.051 160.04 192.371 160.386 192.781 160.625C193.19 160.86 193.665 160.977 194.207 160.977C194.559 160.977 194.877 160.928 195.161 160.83C195.449 160.727 195.697 160.576 195.906 160.375C196.114 160.17 196.275 159.917 196.388 159.614L197.684 159.977C197.548 160.417 197.318 160.803 196.996 161.136C196.674 161.466 196.277 161.723 195.803 161.909C195.33 162.091 194.798 162.182 194.207 162.182ZM206.042 155.227L204.837 155.568C204.762 155.367 204.65 155.172 204.502 154.983C204.358 154.79 204.161 154.631 203.911 154.506C203.661 154.381 203.341 154.318 202.951 154.318C202.417 154.318 201.972 154.441 201.616 154.688C201.263 154.93 201.087 155.239 201.087 155.614C201.087 155.947 201.209 156.21 201.451 156.403C201.693 156.597 202.072 156.758 202.587 156.886L203.883 157.205C204.663 157.394 205.245 157.684 205.627 158.074C206.01 158.46 206.201 158.958 206.201 159.568C206.201 160.068 206.057 160.515 205.769 160.909C205.485 161.303 205.087 161.614 204.576 161.841C204.065 162.068 203.47 162.182 202.792 162.182C201.902 162.182 201.165 161.989 200.582 161.602C199.998 161.216 199.629 160.652 199.474 159.909L200.746 159.591C200.868 160.061 201.097 160.413 201.434 160.648C201.775 160.883 202.22 161 202.769 161C203.394 161 203.89 160.867 204.258 160.602C204.629 160.333 204.815 160.011 204.815 159.636C204.815 159.333 204.709 159.08 204.496 158.875C204.284 158.667 203.959 158.511 203.519 158.409L202.065 158.068C201.265 157.879 200.678 157.585 200.303 157.188C199.932 156.786 199.746 156.284 199.746 155.682C199.746 155.189 199.885 154.754 200.161 154.375C200.442 153.996 200.822 153.699 201.303 153.483C201.788 153.267 202.337 153.159 202.951 153.159C203.815 153.159 204.493 153.348 204.985 153.727C205.481 154.106 205.834 154.606 206.042 155.227ZM212.015 153.273V154.409H207.492V153.273H212.015ZM208.81 151.182H210.151V159.5C210.151 159.879 210.206 160.163 210.316 160.352C210.43 160.538 210.574 160.663 210.748 160.727C210.926 160.788 211.113 160.818 211.31 160.818C211.458 160.818 211.579 160.811 211.674 160.795C211.769 160.777 211.844 160.761 211.901 160.75L212.174 161.955C212.083 161.989 211.956 162.023 211.793 162.057C211.63 162.095 211.424 162.114 211.174 162.114C210.795 162.114 210.424 162.032 210.06 161.869C209.701 161.706 209.401 161.458 209.163 161.125C208.928 160.792 208.81 160.371 208.81 159.864V151.182ZM217.597 162.182C216.756 162.182 216.031 161.996 215.421 161.625C214.815 161.25 214.347 160.727 214.018 160.057C213.692 159.383 213.529 158.598 213.529 157.705C213.529 156.811 213.692 156.023 214.018 155.341C214.347 154.655 214.806 154.121 215.393 153.739C215.984 153.352 216.673 153.159 217.461 153.159C217.915 153.159 218.364 153.235 218.808 153.386C219.251 153.538 219.654 153.784 220.018 154.125C220.381 154.462 220.671 154.909 220.887 155.466C221.103 156.023 221.211 156.708 221.211 157.523V158.091H214.484V156.932H219.847C219.847 156.439 219.749 156 219.552 155.614C219.359 155.227 219.082 154.922 218.722 154.699C218.366 154.475 217.946 154.364 217.461 154.364C216.927 154.364 216.465 154.496 216.075 154.761C215.688 155.023 215.391 155.364 215.183 155.784C214.974 156.205 214.87 156.655 214.87 157.136V157.909C214.87 158.568 214.984 159.127 215.211 159.585C215.442 160.04 215.762 160.386 216.171 160.625C216.58 160.86 217.056 160.977 217.597 160.977C217.95 160.977 218.268 160.928 218.552 160.83C218.84 160.727 219.088 160.576 219.296 160.375C219.504 160.17 219.665 159.917 219.779 159.614L221.075 159.977C220.938 160.417 220.709 160.803 220.387 161.136C220.065 161.466 219.667 161.723 219.194 161.909C218.72 162.091 218.188 162.182 217.597 162.182ZM226.546 162.182C225.819 162.182 225.177 161.998 224.62 161.631C224.063 161.259 223.628 160.737 223.313 160.062C222.999 159.384 222.842 158.583 222.842 157.659C222.842 156.742 222.999 155.947 223.313 155.273C223.628 154.598 224.065 154.078 224.626 153.71C225.186 153.343 225.834 153.159 226.569 153.159C227.137 153.159 227.586 153.254 227.915 153.443C228.249 153.629 228.503 153.841 228.677 154.08C228.855 154.314 228.993 154.508 229.092 154.659H229.205V150.364H230.546V162H229.251V160.659H229.092C228.993 160.818 228.853 161.019 228.671 161.261C228.489 161.5 228.23 161.714 227.893 161.903C227.556 162.089 227.107 162.182 226.546 162.182ZM226.728 160.977C227.266 160.977 227.72 160.837 228.092 160.557C228.463 160.273 228.745 159.881 228.938 159.381C229.131 158.877 229.228 158.295 229.228 157.636C229.228 156.985 229.133 156.415 228.944 155.926C228.754 155.434 228.474 155.051 228.103 154.778C227.732 154.502 227.273 154.364 226.728 154.364C226.16 154.364 225.686 154.509 225.308 154.801C224.933 155.089 224.65 155.481 224.461 155.977C224.275 156.47 224.183 157.023 224.183 157.636C224.183 158.258 224.277 158.822 224.467 159.33C224.66 159.833 224.944 160.235 225.319 160.534C225.698 160.83 226.167 160.977 226.728 160.977Z" fill="white"/>
<path d="M115.709 189.364V201H114.3V189.364H115.709ZM119.693 195.75V201H118.352V192.273H119.648V193.636H119.761C119.966 193.193 120.277 192.837 120.693 192.568C121.11 192.295 121.648 192.159 122.307 192.159C122.898 192.159 123.415 192.28 123.858 192.523C124.301 192.761 124.646 193.125 124.892 193.614C125.138 194.098 125.261 194.712 125.261 195.455V201H123.92V195.545C123.92 194.86 123.742 194.326 123.386 193.943C123.03 193.557 122.542 193.364 121.92 193.364C121.492 193.364 121.11 193.456 120.773 193.642C120.439 193.828 120.176 194.098 119.983 194.455C119.79 194.811 119.693 195.242 119.693 195.75ZM131.507 192.273V193.409H126.984V192.273H131.507ZM128.303 190.182H129.643V198.5C129.643 198.879 129.698 199.163 129.808 199.352C129.922 199.538 130.066 199.663 130.24 199.727C130.418 199.788 130.606 199.818 130.803 199.818C130.95 199.818 131.071 199.811 131.166 199.795C131.261 199.777 131.337 199.761 131.393 199.75L131.666 200.955C131.575 200.989 131.448 201.023 131.286 201.057C131.123 201.095 130.916 201.114 130.666 201.114C130.287 201.114 129.916 201.032 129.553 200.869C129.193 200.706 128.893 200.458 128.655 200.125C128.42 199.792 128.303 199.371 128.303 198.864V190.182ZM137.089 201.182C136.249 201.182 135.523 200.996 134.913 200.625C134.307 200.25 133.839 199.727 133.51 199.057C133.184 198.383 133.021 197.598 133.021 196.705C133.021 195.811 133.184 195.023 133.51 194.341C133.839 193.655 134.298 193.121 134.885 192.739C135.476 192.352 136.165 192.159 136.953 192.159C137.408 192.159 137.857 192.235 138.3 192.386C138.743 192.538 139.146 192.784 139.51 193.125C139.874 193.462 140.163 193.909 140.379 194.466C140.595 195.023 140.703 195.708 140.703 196.523V197.091H133.976V195.932H139.339C139.339 195.439 139.241 195 139.044 194.614C138.851 194.227 138.574 193.922 138.214 193.699C137.858 193.475 137.438 193.364 136.953 193.364C136.419 193.364 135.957 193.496 135.567 193.761C135.18 194.023 134.883 194.364 134.675 194.784C134.466 195.205 134.362 195.655 134.362 196.136V196.909C134.362 197.568 134.476 198.127 134.703 198.585C134.934 199.04 135.254 199.386 135.663 199.625C136.072 199.86 136.548 199.977 137.089 199.977C137.442 199.977 137.76 199.928 138.044 199.83C138.332 199.727 138.58 199.576 138.788 199.375C138.997 199.17 139.158 198.917 139.271 198.614L140.567 198.977C140.43 199.417 140.201 199.803 139.879 200.136C139.557 200.466 139.16 200.723 138.686 200.909C138.213 201.091 137.68 201.182 137.089 201.182ZM142.743 201V192.273H144.038V193.591H144.129C144.288 193.159 144.576 192.809 144.993 192.54C145.41 192.271 145.879 192.136 146.402 192.136C146.5 192.136 146.624 192.138 146.771 192.142C146.919 192.146 147.031 192.152 147.107 192.159V193.523C147.061 193.511 146.957 193.494 146.794 193.472C146.635 193.445 146.466 193.432 146.288 193.432C145.864 193.432 145.485 193.521 145.152 193.699C144.822 193.873 144.561 194.116 144.368 194.426C144.179 194.733 144.084 195.083 144.084 195.477V201H142.743ZM156.098 192.273L152.871 201H151.507L148.28 192.273H149.734L152.143 199.227H152.234L154.643 192.273H156.098ZM157.868 201V192.273H159.209V201H157.868ZM158.55 190.818C158.288 190.818 158.063 190.729 157.874 190.551C157.688 190.373 157.595 190.159 157.595 189.909C157.595 189.659 157.688 189.445 157.874 189.267C158.063 189.089 158.288 189 158.55 189C158.811 189 159.035 189.089 159.22 189.267C159.41 189.445 159.504 189.659 159.504 189.909C159.504 190.159 159.41 190.373 159.22 190.551C159.035 190.729 158.811 190.818 158.55 190.818ZM165.324 201.182C164.483 201.182 163.758 200.996 163.148 200.625C162.542 200.25 162.074 199.727 161.744 199.057C161.419 198.383 161.256 197.598 161.256 196.705C161.256 195.811 161.419 195.023 161.744 194.341C162.074 193.655 162.532 193.121 163.119 192.739C163.71 192.352 164.4 192.159 165.188 192.159C165.642 192.159 166.091 192.235 166.534 192.386C166.977 192.538 167.381 192.784 167.744 193.125C168.108 193.462 168.398 193.909 168.614 194.466C168.83 195.023 168.938 195.708 168.938 196.523V197.091H162.21V195.932H167.574C167.574 195.439 167.475 195 167.278 194.614C167.085 194.227 166.809 193.922 166.449 193.699C166.093 193.475 165.672 193.364 165.188 193.364C164.653 193.364 164.191 193.496 163.801 193.761C163.415 194.023 163.117 194.364 162.909 194.784C162.701 195.205 162.597 195.655 162.597 196.136V196.909C162.597 197.568 162.71 198.127 162.938 198.585C163.169 199.04 163.489 199.386 163.898 199.625C164.307 199.86 164.782 199.977 165.324 199.977C165.676 199.977 165.994 199.928 166.278 199.83C166.566 199.727 166.814 199.576 167.023 199.375C167.231 199.17 167.392 198.917 167.506 198.614L168.801 198.977C168.665 199.417 168.436 199.803 168.114 200.136C167.792 200.466 167.394 200.723 166.92 200.909C166.447 201.091 165.915 201.182 165.324 201.182ZM172.955 201L170.295 192.273H171.705L173.591 198.955H173.682L175.545 192.273H176.977L178.818 198.932H178.909L180.795 192.273H182.205L179.545 201H178.227L176.318 194.295H176.182L174.273 201H172.955ZM190.159 194.227L188.955 194.568C188.879 194.367 188.767 194.172 188.619 193.983C188.475 193.79 188.278 193.631 188.028 193.506C187.778 193.381 187.458 193.318 187.068 193.318C186.534 193.318 186.089 193.441 185.733 193.688C185.381 193.93 185.205 194.239 185.205 194.614C185.205 194.947 185.326 195.21 185.568 195.403C185.811 195.597 186.189 195.758 186.705 195.886L188 196.205C188.78 196.394 189.362 196.684 189.744 197.074C190.127 197.46 190.318 197.958 190.318 198.568C190.318 199.068 190.174 199.515 189.886 199.909C189.602 200.303 189.205 200.614 188.693 200.841C188.182 201.068 187.587 201.182 186.909 201.182C186.019 201.182 185.282 200.989 184.699 200.602C184.116 200.216 183.746 199.652 183.591 198.909L184.864 198.591C184.985 199.061 185.214 199.413 185.551 199.648C185.892 199.883 186.337 200 186.886 200C187.511 200 188.008 199.867 188.375 199.602C188.746 199.333 188.932 199.011 188.932 198.636C188.932 198.333 188.826 198.08 188.614 197.875C188.402 197.667 188.076 197.511 187.636 197.409L186.182 197.068C185.383 196.879 184.795 196.585 184.42 196.188C184.049 195.786 183.864 195.284 183.864 194.682C183.864 194.189 184.002 193.754 184.278 193.375C184.559 192.996 184.939 192.699 185.42 192.483C185.905 192.267 186.455 192.159 187.068 192.159C187.932 192.159 188.61 192.348 189.102 192.727C189.598 193.106 189.951 193.606 190.159 194.227Z" fill="white"/>
<path d="M114.558 228.364V240H113.195L106.854 230.864H106.74V240H105.331V228.364H106.695L113.058 237.523H113.172V228.364H114.558ZM120.855 240.182C120.014 240.182 119.289 239.996 118.679 239.625C118.073 239.25 117.605 238.727 117.276 238.057C116.95 237.383 116.787 236.598 116.787 235.705C116.787 234.811 116.95 234.023 117.276 233.341C117.605 232.655 118.063 232.121 118.651 231.739C119.241 231.352 119.931 231.159 120.719 231.159C121.173 231.159 121.622 231.235 122.065 231.386C122.509 231.538 122.912 231.784 123.276 232.125C123.639 232.462 123.929 232.909 124.145 233.466C124.361 234.023 124.469 234.708 124.469 235.523V236.091H117.741V234.932H123.105C123.105 234.439 123.007 234 122.81 233.614C122.616 233.227 122.34 232.922 121.98 232.699C121.624 232.475 121.204 232.364 120.719 232.364C120.185 232.364 119.723 232.496 119.332 232.761C118.946 233.023 118.649 233.364 118.44 233.784C118.232 234.205 118.128 234.655 118.128 235.136V235.909C118.128 236.568 118.241 237.127 118.469 237.585C118.7 238.04 119.02 238.386 119.429 238.625C119.838 238.86 120.313 238.977 120.855 238.977C121.207 238.977 121.526 238.928 121.81 238.83C122.098 238.727 122.346 238.576 122.554 238.375C122.762 238.17 122.923 237.917 123.037 237.614L124.332 237.977C124.196 238.417 123.967 238.803 123.645 239.136C123.323 239.466 122.925 239.723 122.452 239.909C121.978 240.091 121.446 240.182 120.855 240.182ZM130.031 243.455C129.384 243.455 128.827 243.371 128.361 243.205C127.895 243.042 127.507 242.826 127.196 242.557C126.889 242.292 126.645 242.008 126.463 241.705L127.531 240.955C127.652 241.114 127.806 241.295 127.991 241.5C128.177 241.708 128.431 241.888 128.753 242.04C129.079 242.195 129.505 242.273 130.031 242.273C130.736 242.273 131.317 242.102 131.776 241.761C132.234 241.42 132.463 240.886 132.463 240.159V238.386H132.349C132.251 238.545 132.111 238.742 131.929 238.977C131.751 239.208 131.493 239.415 131.156 239.597C130.823 239.775 130.372 239.864 129.804 239.864C129.099 239.864 128.467 239.697 127.906 239.364C127.349 239.03 126.908 238.545 126.582 237.909C126.26 237.273 126.099 236.5 126.099 235.591C126.099 234.697 126.257 233.919 126.571 233.256C126.885 232.589 127.323 232.074 127.884 231.71C128.444 231.343 129.092 231.159 129.827 231.159C130.395 231.159 130.846 231.254 131.179 231.443C131.516 231.629 131.774 231.841 131.952 232.08C132.134 232.314 132.274 232.508 132.372 232.659H132.509V231.273H133.804V240.25C133.804 241 133.634 241.61 133.293 242.08C132.955 242.553 132.501 242.9 131.929 243.119C131.361 243.343 130.728 243.455 130.031 243.455ZM129.986 238.659C130.524 238.659 130.978 238.536 131.349 238.29C131.721 238.044 132.003 237.689 132.196 237.227C132.389 236.765 132.486 236.212 132.486 235.568C132.486 234.939 132.391 234.384 132.202 233.903C132.012 233.422 131.732 233.045 131.361 232.773C130.99 232.5 130.531 232.364 129.986 232.364C129.418 232.364 128.944 232.508 128.565 232.795C128.19 233.083 127.908 233.47 127.719 233.955C127.533 234.439 127.44 234.977 127.44 235.568C127.44 236.174 127.535 236.71 127.724 237.176C127.918 237.638 128.202 238.002 128.577 238.267C128.955 238.528 129.425 238.659 129.986 238.659ZM139.804 240.182C139.016 240.182 138.325 239.994 137.73 239.619C137.139 239.244 136.677 238.72 136.344 238.045C136.014 237.371 135.849 236.583 135.849 235.682C135.849 234.773 136.014 233.979 136.344 233.301C136.677 232.623 137.139 232.097 137.73 231.722C138.325 231.347 139.016 231.159 139.804 231.159C140.592 231.159 141.281 231.347 141.872 231.722C142.467 232.097 142.929 232.623 143.259 233.301C143.592 233.979 143.759 234.773 143.759 235.682C143.759 236.583 143.592 237.371 143.259 238.045C142.929 238.72 142.467 239.244 141.872 239.619C141.281 239.994 140.592 240.182 139.804 240.182ZM139.804 238.977C140.402 238.977 140.895 238.824 141.281 238.517C141.668 238.21 141.954 237.807 142.139 237.307C142.325 236.807 142.418 236.265 142.418 235.682C142.418 235.098 142.325 234.555 142.139 234.051C141.954 233.547 141.668 233.14 141.281 232.83C140.895 232.519 140.402 232.364 139.804 232.364C139.205 232.364 138.713 232.519 138.327 232.83C137.94 233.14 137.654 233.547 137.469 234.051C137.283 234.555 137.19 235.098 137.19 235.682C137.19 236.265 137.283 236.807 137.469 237.307C137.654 237.807 137.94 238.21 138.327 238.517C138.713 238.824 139.205 238.977 139.804 238.977ZM149.601 231.273V232.409H145.078V231.273H149.601ZM146.396 229.182H147.737V237.5C147.737 237.879 147.792 238.163 147.902 238.352C148.016 238.538 148.16 238.663 148.334 238.727C148.512 238.788 148.699 238.818 148.896 238.818C149.044 238.818 149.165 238.811 149.26 238.795C149.355 238.777 149.43 238.761 149.487 238.75L149.76 239.955C149.669 239.989 149.542 240.023 149.379 240.057C149.216 240.095 149.01 240.114 148.76 240.114C148.381 240.114 148.01 240.032 147.646 239.869C147.286 239.706 146.987 239.458 146.749 239.125C146.514 238.792 146.396 238.371 146.396 237.864V229.182ZM151.618 240V231.273H152.959V240H151.618ZM152.3 229.818C152.038 229.818 151.813 229.729 151.624 229.551C151.438 229.373 151.345 229.159 151.345 228.909C151.345 228.659 151.438 228.445 151.624 228.267C151.813 228.089 152.038 228 152.3 228C152.561 228 152.785 228.089 152.97 228.267C153.16 228.445 153.254 228.659 153.254 228.909C153.254 229.159 153.16 229.373 152.97 229.551C152.785 229.729 152.561 229.818 152.3 229.818ZM157.983 240.205C157.43 240.205 156.928 240.1 156.477 239.892C156.027 239.68 155.669 239.375 155.403 238.977C155.138 238.576 155.006 238.091 155.006 237.523C155.006 237.023 155.104 236.617 155.301 236.307C155.498 235.992 155.761 235.746 156.091 235.568C156.42 235.39 156.784 235.258 157.182 235.17C157.583 235.08 157.987 235.008 158.392 234.955C158.922 234.886 159.352 234.835 159.682 234.801C160.015 234.763 160.258 234.701 160.409 234.614C160.564 234.527 160.642 234.375 160.642 234.159V234.114C160.642 233.553 160.489 233.117 160.182 232.807C159.879 232.496 159.419 232.341 158.801 232.341C158.161 232.341 157.659 232.481 157.295 232.761C156.932 233.042 156.676 233.341 156.528 233.659L155.256 233.205C155.483 232.674 155.786 232.261 156.165 231.966C156.547 231.667 156.964 231.458 157.415 231.341C157.869 231.22 158.316 231.159 158.756 231.159C159.036 231.159 159.358 231.193 159.722 231.261C160.089 231.326 160.443 231.46 160.784 231.665C161.129 231.869 161.415 232.178 161.642 232.591C161.869 233.004 161.983 233.557 161.983 234.25V240H160.642V238.818H160.574C160.483 239.008 160.331 239.21 160.119 239.426C159.907 239.642 159.625 239.826 159.273 239.977C158.92 240.129 158.491 240.205 157.983 240.205ZM158.188 239C158.718 239 159.165 238.896 159.528 238.688C159.896 238.479 160.172 238.21 160.358 237.881C160.547 237.551 160.642 237.205 160.642 236.841V235.614C160.585 235.682 160.46 235.744 160.267 235.801C160.078 235.854 159.858 235.902 159.608 235.943C159.362 235.981 159.121 236.015 158.886 236.045C158.655 236.072 158.468 236.095 158.324 236.114C157.975 236.159 157.65 236.233 157.347 236.335C157.047 236.434 156.805 236.583 156.619 236.784C156.438 236.981 156.347 237.25 156.347 237.591C156.347 238.057 156.519 238.409 156.864 238.648C157.212 238.883 157.653 239 158.188 239ZM168.226 231.273V232.409H163.703V231.273H168.226ZM165.021 229.182H166.362V237.5C166.362 237.879 166.417 238.163 166.527 238.352C166.641 238.538 166.785 238.663 166.959 238.727C167.137 238.788 167.324 238.818 167.521 238.818C167.669 238.818 167.79 238.811 167.885 238.795C167.98 238.777 168.055 238.761 168.112 238.75L168.385 239.955C168.294 239.989 168.167 240.023 168.004 240.057C167.841 240.095 167.635 240.114 167.385 240.114C167.006 240.114 166.635 240.032 166.271 239.869C165.911 239.706 165.612 239.458 165.374 239.125C165.139 238.792 165.021 238.371 165.021 237.864V229.182ZM170.243 240V231.273H171.584V240H170.243ZM170.925 229.818C170.663 229.818 170.438 229.729 170.249 229.551C170.063 229.373 169.97 229.159 169.97 228.909C169.97 228.659 170.063 228.445 170.249 228.267C170.438 228.089 170.663 228 170.925 228C171.186 228 171.41 228.089 171.595 228.267C171.785 228.445 171.879 228.659 171.879 228.909C171.879 229.159 171.785 229.373 171.595 229.551C171.41 229.729 171.186 229.818 170.925 229.818ZM177.585 240.182C176.797 240.182 176.106 239.994 175.511 239.619C174.92 239.244 174.458 238.72 174.125 238.045C173.795 237.371 173.631 236.583 173.631 235.682C173.631 234.773 173.795 233.979 174.125 233.301C174.458 232.623 174.92 232.097 175.511 231.722C176.106 231.347 176.797 231.159 177.585 231.159C178.373 231.159 179.063 231.347 179.653 231.722C180.248 232.097 180.71 232.623 181.04 233.301C181.373 233.979 181.54 234.773 181.54 235.682C181.54 236.583 181.373 237.371 181.04 238.045C180.71 238.72 180.248 239.244 179.653 239.619C179.063 239.994 178.373 240.182 177.585 240.182ZM177.585 238.977C178.184 238.977 178.676 238.824 179.062 238.517C179.449 238.21 179.735 237.807 179.92 237.307C180.106 236.807 180.199 236.265 180.199 235.682C180.199 235.098 180.106 234.555 179.92 234.051C179.735 233.547 179.449 233.14 179.062 232.83C178.676 232.519 178.184 232.364 177.585 232.364C176.987 232.364 176.494 232.519 176.108 232.83C175.722 233.14 175.436 233.547 175.25 234.051C175.064 234.555 174.972 235.098 174.972 235.682C174.972 236.265 175.064 236.807 175.25 237.307C175.436 237.807 175.722 238.21 176.108 238.517C176.494 238.824 176.987 238.977 177.585 238.977ZM184.928 234.75V240H183.587V231.273H184.882V232.636H184.996C185.2 232.193 185.511 231.837 185.928 231.568C186.344 231.295 186.882 231.159 187.541 231.159C188.132 231.159 188.649 231.28 189.092 231.523C189.536 231.761 189.88 232.125 190.126 232.614C190.373 233.098 190.496 233.712 190.496 234.455V240H189.155V234.545C189.155 233.86 188.977 233.326 188.621 232.943C188.265 232.557 187.776 232.364 187.155 232.364C186.727 232.364 186.344 232.456 186.007 232.642C185.674 232.828 185.411 233.098 185.217 233.455C185.024 233.811 184.928 234.242 184.928 234.75ZM199.128 233.227L197.923 233.568C197.848 233.367 197.736 233.172 197.588 232.983C197.444 232.79 197.247 232.631 196.997 232.506C196.747 232.381 196.427 232.318 196.037 232.318C195.503 232.318 195.058 232.441 194.702 232.688C194.349 232.93 194.173 233.239 194.173 233.614C194.173 233.947 194.295 234.21 194.537 234.403C194.779 234.597 195.158 234.758 195.673 234.886L196.969 235.205C197.749 235.394 198.33 235.684 198.713 236.074C199.096 236.46 199.287 236.958 199.287 237.568C199.287 238.068 199.143 238.515 198.855 238.909C198.571 239.303 198.173 239.614 197.662 239.841C197.151 240.068 196.556 240.182 195.878 240.182C194.988 240.182 194.251 239.989 193.668 239.602C193.084 239.216 192.715 238.652 192.56 237.909L193.832 237.591C193.954 238.061 194.183 238.413 194.52 238.648C194.861 238.883 195.306 239 195.855 239C196.48 239 196.976 238.867 197.344 238.602C197.715 238.333 197.901 238.011 197.901 237.636C197.901 237.333 197.795 237.08 197.582 236.875C197.37 236.667 197.045 236.511 196.605 236.409L195.151 236.068C194.351 235.879 193.764 235.585 193.389 235.188C193.018 234.786 192.832 234.284 192.832 233.682C192.832 233.189 192.971 232.754 193.247 232.375C193.527 231.996 193.908 231.699 194.389 231.483C194.874 231.267 195.423 231.159 196.037 231.159C196.901 231.159 197.579 231.348 198.071 231.727C198.567 232.106 198.92 232.606 199.128 233.227Z" fill="white"/>
<path d="M139.735 273.182C139.735 274.409 139.513 275.47 139.07 276.364C138.627 277.258 138.019 277.947 137.246 278.432C136.474 278.917 135.591 279.159 134.599 279.159C133.606 279.159 132.724 278.917 131.951 278.432C131.178 277.947 130.57 277.258 130.127 276.364C129.684 275.47 129.462 274.409 129.462 273.182C129.462 271.955 129.684 270.894 130.127 270C130.57 269.106 131.178 268.417 131.951 267.932C132.724 267.447 133.606 267.205 134.599 267.205C135.591 267.205 136.474 267.447 137.246 267.932C138.019 268.417 138.627 269.106 139.07 270C139.513 270.894 139.735 271.955 139.735 273.182ZM138.371 273.182C138.371 272.174 138.203 271.324 137.866 270.631C137.532 269.938 137.08 269.413 136.508 269.057C135.94 268.701 135.303 268.523 134.599 268.523C133.894 268.523 133.256 268.701 132.684 269.057C132.116 269.413 131.663 269.938 131.326 270.631C130.993 271.324 130.826 272.174 130.826 273.182C130.826 274.189 130.993 275.04 131.326 275.733C131.663 276.426 132.116 276.951 132.684 277.307C133.256 277.663 133.894 277.841 134.599 277.841C135.303 277.841 135.94 277.663 136.508 277.307C137.08 276.951 137.532 276.426 137.866 275.733C138.203 275.04 138.371 274.189 138.371 273.182ZM145.809 270.273V271.409H141.104V270.273H145.809ZM142.513 279V269.068C142.513 268.568 142.631 268.152 142.866 267.818C143.101 267.485 143.406 267.235 143.781 267.068C144.156 266.902 144.551 266.818 144.968 266.818C145.298 266.818 145.567 266.845 145.775 266.898C145.983 266.951 146.138 267 146.241 267.045L145.854 268.205C145.786 268.182 145.692 268.153 145.57 268.119C145.453 268.085 145.298 268.068 145.104 268.068C144.661 268.068 144.341 268.18 144.144 268.403C143.951 268.627 143.854 268.955 143.854 269.386V279H142.513ZM151.575 270.273V271.409H146.87V270.273H151.575ZM148.279 279V269.068C148.279 268.568 148.397 268.152 148.631 267.818C148.866 267.485 149.171 267.235 149.546 267.068C149.921 266.902 150.317 266.818 150.734 266.818C151.063 266.818 151.332 266.845 151.54 266.898C151.749 266.951 151.904 267 152.006 267.045L151.62 268.205C151.552 268.182 151.457 268.153 151.336 268.119C151.219 268.085 151.063 268.068 150.87 268.068C150.427 268.068 150.107 268.18 149.91 268.403C149.717 268.627 149.62 268.955 149.62 269.386V279H148.279ZM156.754 279.182C155.913 279.182 155.187 278.996 154.577 278.625C153.971 278.25 153.504 277.727 153.174 277.057C152.848 276.383 152.685 275.598 152.685 274.705C152.685 273.811 152.848 273.023 153.174 272.341C153.504 271.655 153.962 271.121 154.549 270.739C155.14 270.352 155.829 270.159 156.617 270.159C157.072 270.159 157.521 270.235 157.964 270.386C158.407 270.538 158.81 270.784 159.174 271.125C159.538 271.462 159.827 271.909 160.043 272.466C160.259 273.023 160.367 273.708 160.367 274.523V275.091H153.64V273.932H159.004C159.004 273.439 158.905 273 158.708 272.614C158.515 272.227 158.238 271.922 157.879 271.699C157.522 271.475 157.102 271.364 156.617 271.364C156.083 271.364 155.621 271.496 155.231 271.761C154.844 272.023 154.547 272.364 154.339 272.784C154.13 273.205 154.026 273.655 154.026 274.136V274.909C154.026 275.568 154.14 276.127 154.367 276.585C154.598 277.04 154.918 277.386 155.327 277.625C155.737 277.86 156.212 277.977 156.754 277.977C157.106 277.977 157.424 277.928 157.708 277.83C157.996 277.727 158.244 277.576 158.452 277.375C158.661 277.17 158.822 276.917 158.935 276.614L160.231 276.977C160.094 277.417 159.865 277.803 159.543 278.136C159.221 278.466 158.824 278.723 158.35 278.909C157.877 279.091 157.344 279.182 156.754 279.182ZM162.407 279V270.273H163.702V271.591H163.793C163.952 271.159 164.24 270.809 164.657 270.54C165.074 270.271 165.543 270.136 166.066 270.136C166.165 270.136 166.288 270.138 166.435 270.142C166.583 270.146 166.695 270.152 166.771 270.159V271.523C166.725 271.511 166.621 271.494 166.458 271.472C166.299 271.445 166.13 271.432 165.952 271.432C165.528 271.432 165.149 271.521 164.816 271.699C164.487 271.873 164.225 272.116 164.032 272.426C163.843 272.733 163.748 273.083 163.748 273.477V279H162.407ZM174.542 272.227L173.337 272.568C173.262 272.367 173.15 272.172 173.002 271.983C172.858 271.79 172.661 271.631 172.411 271.506C172.161 271.381 171.841 271.318 171.451 271.318C170.917 271.318 170.472 271.441 170.116 271.688C169.763 271.93 169.587 272.239 169.587 272.614C169.587 272.947 169.709 273.21 169.951 273.403C170.193 273.597 170.572 273.758 171.087 273.886L172.383 274.205C173.163 274.394 173.745 274.684 174.127 275.074C174.51 275.46 174.701 275.958 174.701 276.568C174.701 277.068 174.557 277.515 174.269 277.909C173.985 278.303 173.587 278.614 173.076 278.841C172.565 279.068 171.97 279.182 171.292 279.182C170.402 279.182 169.665 278.989 169.082 278.602C168.498 278.216 168.129 277.652 167.974 276.909L169.246 276.591C169.368 277.061 169.597 277.413 169.934 277.648C170.275 277.883 170.72 278 171.269 278C171.894 278 172.39 277.867 172.758 277.602C173.129 277.333 173.315 277.011 173.315 276.636C173.315 276.333 173.209 276.08 172.996 275.875C172.784 275.667 172.459 275.511 172.019 275.409L170.565 275.068C169.765 274.879 169.178 274.585 168.803 274.188C168.432 273.786 168.246 273.284 168.246 272.682C168.246 272.189 168.385 271.754 168.661 271.375C168.942 270.996 169.322 270.699 169.803 270.483C170.288 270.267 170.837 270.159 171.451 270.159C172.315 270.159 172.993 270.348 173.485 270.727C173.981 271.106 174.334 271.606 174.542 272.227Z" fill="white"/>
<path d="M107.798 318H105.162L109.179 306.364H112.349L116.361 318H113.724L110.81 309.023H110.719L107.798 318ZM107.634 313.426H113.861V315.347H107.634V313.426ZM121.253 318.17C120.359 318.17 119.59 317.981 118.946 317.602C118.306 317.22 117.813 316.689 117.469 316.011C117.128 315.333 116.957 314.553 116.957 313.67C116.957 312.777 117.13 311.992 117.474 311.318C117.823 310.64 118.317 310.112 118.957 309.733C119.598 309.35 120.359 309.159 121.241 309.159C122.003 309.159 122.67 309.297 123.241 309.574C123.813 309.85 124.266 310.239 124.599 310.739C124.933 311.239 125.116 311.826 125.151 312.5H122.866C122.802 312.064 122.632 311.714 122.355 311.449C122.082 311.18 121.724 311.045 121.281 311.045C120.906 311.045 120.579 311.148 120.298 311.352C120.022 311.553 119.806 311.847 119.651 312.233C119.495 312.619 119.418 313.087 119.418 313.636C119.418 314.193 119.493 314.667 119.645 315.057C119.8 315.447 120.018 315.744 120.298 315.949C120.579 316.153 120.906 316.256 121.281 316.256C121.558 316.256 121.806 316.199 122.026 316.085C122.249 315.972 122.433 315.807 122.577 315.591C122.724 315.371 122.821 315.108 122.866 314.801H125.151C125.113 315.468 124.931 316.055 124.605 316.562C124.283 317.066 123.838 317.46 123.27 317.744C122.702 318.028 122.029 318.17 121.253 318.17ZM130.643 318.17C129.75 318.17 128.981 317.981 128.337 317.602C127.696 317.22 127.204 316.689 126.859 316.011C126.518 315.333 126.348 314.553 126.348 313.67C126.348 312.777 126.52 311.992 126.865 311.318C127.214 310.64 127.708 310.112 128.348 309.733C128.988 309.35 129.75 309.159 130.632 309.159C131.393 309.159 132.06 309.297 132.632 309.574C133.204 309.85 133.657 310.239 133.99 310.739C134.323 311.239 134.507 311.826 134.541 312.5H132.257C132.193 312.064 132.022 311.714 131.746 311.449C131.473 311.18 131.115 311.045 130.672 311.045C130.297 311.045 129.969 311.148 129.689 311.352C129.412 311.553 129.196 311.847 129.041 312.233C128.886 312.619 128.808 313.087 128.808 313.636C128.808 314.193 128.884 314.667 129.036 315.057C129.191 315.447 129.409 315.744 129.689 315.949C129.969 316.153 130.297 316.256 130.672 316.256C130.948 316.256 131.196 316.199 131.416 316.085C131.64 315.972 131.823 315.807 131.967 315.591C132.115 315.371 132.212 315.108 132.257 314.801H134.541C134.503 315.468 134.321 316.055 133.996 316.562C133.674 317.066 133.229 317.46 132.661 317.744C132.092 318.028 131.42 318.17 130.643 318.17ZM140.068 318.17C139.17 318.17 138.398 317.989 137.75 317.625C137.106 317.258 136.61 316.739 136.261 316.068C135.913 315.394 135.739 314.597 135.739 313.676C135.739 312.778 135.913 311.991 136.261 311.312C136.61 310.634 137.1 310.106 137.733 309.727C138.369 309.348 139.116 309.159 139.972 309.159C140.547 309.159 141.083 309.252 141.58 309.438C142.08 309.619 142.515 309.894 142.886 310.261C143.261 310.629 143.553 311.091 143.761 311.648C143.97 312.201 144.074 312.848 144.074 313.591V314.256H136.705V312.756H141.795C141.795 312.407 141.72 312.098 141.568 311.83C141.417 311.561 141.206 311.35 140.938 311.199C140.672 311.044 140.364 310.966 140.011 310.966C139.644 310.966 139.318 311.051 139.034 311.222C138.754 311.388 138.534 311.614 138.375 311.898C138.216 312.178 138.134 312.491 138.131 312.835V314.261C138.131 314.693 138.21 315.066 138.369 315.381C138.532 315.695 138.761 315.938 139.057 316.108C139.352 316.278 139.703 316.364 140.108 316.364C140.377 316.364 140.623 316.326 140.847 316.25C141.07 316.174 141.261 316.061 141.42 315.909C141.58 315.758 141.701 315.572 141.784 315.352L144.023 315.5C143.909 316.038 143.676 316.508 143.324 316.909C142.975 317.307 142.525 317.617 141.972 317.841C141.422 318.061 140.788 318.17 140.068 318.17ZM145.653 321.273V309.273H148.04V310.739H148.148C148.254 310.504 148.407 310.265 148.608 310.023C148.813 309.777 149.078 309.572 149.403 309.409C149.733 309.242 150.142 309.159 150.631 309.159C151.267 309.159 151.854 309.326 152.392 309.659C152.93 309.989 153.36 310.487 153.682 311.153C154.004 311.816 154.165 312.648 154.165 313.648C154.165 314.621 154.008 315.443 153.693 316.114C153.383 316.78 152.958 317.286 152.42 317.631C151.886 317.972 151.288 318.142 150.625 318.142C150.155 318.142 149.756 318.064 149.426 317.909C149.1 317.754 148.833 317.559 148.625 317.324C148.417 317.085 148.258 316.845 148.148 316.602H148.074V321.273H145.653ZM148.023 313.636C148.023 314.155 148.095 314.608 148.239 314.994C148.383 315.381 148.591 315.682 148.864 315.898C149.136 316.11 149.468 316.216 149.858 316.216C150.252 316.216 150.585 316.108 150.858 315.892C151.131 315.672 151.337 315.369 151.477 314.983C151.621 314.593 151.693 314.144 151.693 313.636C151.693 313.133 151.623 312.689 151.483 312.307C151.343 311.924 151.136 311.625 150.864 311.409C150.591 311.193 150.256 311.085 149.858 311.085C149.464 311.085 149.131 311.189 148.858 311.398C148.589 311.606 148.383 311.902 148.239 312.284C148.095 312.667 148.023 313.117 148.023 313.636ZM160.42 309.273V311.091H155.165V309.273H160.42ZM156.358 307.182H158.778V315.318C158.778 315.542 158.813 315.716 158.881 315.841C158.949 315.962 159.044 316.047 159.165 316.097C159.29 316.146 159.434 316.17 159.597 316.17C159.71 316.17 159.824 316.161 159.938 316.142C160.051 316.119 160.138 316.102 160.199 316.091L160.58 317.892C160.458 317.93 160.288 317.973 160.068 318.023C159.848 318.076 159.581 318.108 159.267 318.119C158.684 318.142 158.172 318.064 157.733 317.886C157.297 317.708 156.958 317.432 156.716 317.057C156.473 316.682 156.354 316.208 156.358 315.636V307.182ZM164.486 318.165C163.929 318.165 163.433 318.068 162.997 317.875C162.562 317.678 162.217 317.388 161.963 317.006C161.713 316.619 161.588 316.138 161.588 315.562C161.588 315.078 161.677 314.67 161.855 314.341C162.033 314.011 162.276 313.746 162.582 313.545C162.889 313.345 163.238 313.193 163.628 313.091C164.022 312.989 164.435 312.917 164.866 312.875C165.374 312.822 165.783 312.773 166.094 312.727C166.404 312.678 166.63 312.606 166.77 312.511C166.91 312.417 166.98 312.277 166.98 312.091V312.057C166.98 311.697 166.866 311.419 166.639 311.222C166.416 311.025 166.098 310.926 165.685 310.926C165.249 310.926 164.902 311.023 164.645 311.216C164.387 311.405 164.217 311.644 164.134 311.932L161.895 311.75C162.009 311.22 162.232 310.761 162.565 310.375C162.899 309.985 163.329 309.686 163.855 309.477C164.385 309.265 164.999 309.159 165.696 309.159C166.181 309.159 166.645 309.216 167.088 309.33C167.535 309.443 167.931 309.619 168.276 309.858C168.624 310.097 168.899 310.403 169.099 310.778C169.3 311.15 169.401 311.595 169.401 312.114V318H167.105V316.79H167.037C166.897 317.062 166.709 317.303 166.474 317.511C166.24 317.716 165.957 317.877 165.628 317.994C165.298 318.108 164.918 318.165 164.486 318.165ZM165.179 316.494C165.535 316.494 165.849 316.424 166.122 316.284C166.395 316.14 166.609 315.947 166.764 315.705C166.92 315.462 166.997 315.187 166.997 314.881V313.955C166.921 314.004 166.817 314.049 166.685 314.091C166.556 314.129 166.41 314.165 166.247 314.199C166.084 314.229 165.921 314.258 165.759 314.284C165.596 314.307 165.448 314.328 165.315 314.347C165.031 314.388 164.783 314.455 164.571 314.545C164.359 314.636 164.194 314.759 164.077 314.915C163.959 315.066 163.901 315.256 163.901 315.483C163.901 315.812 164.02 316.064 164.259 316.239C164.501 316.409 164.808 316.494 165.179 316.494ZM173.699 312.955V318H171.278V309.273H173.585V310.812H173.688C173.881 310.305 174.205 309.903 174.659 309.608C175.114 309.309 175.665 309.159 176.312 309.159C176.919 309.159 177.447 309.292 177.898 309.557C178.348 309.822 178.699 310.201 178.949 310.693C179.199 311.182 179.324 311.765 179.324 312.443V318H176.903V312.875C176.907 312.341 176.771 311.924 176.494 311.625C176.218 311.322 175.837 311.17 175.352 311.17C175.027 311.17 174.739 311.241 174.489 311.381C174.242 311.521 174.049 311.725 173.909 311.994C173.773 312.259 173.703 312.58 173.699 312.955ZM185.175 318.17C184.281 318.17 183.512 317.981 182.868 317.602C182.228 317.22 181.735 316.689 181.391 316.011C181.05 315.333 180.879 314.553 180.879 313.67C180.879 312.777 181.052 311.992 181.396 311.318C181.745 310.64 182.239 310.112 182.879 309.733C183.519 309.35 184.281 309.159 185.163 309.159C185.925 309.159 186.591 309.297 187.163 309.574C187.735 309.85 188.188 310.239 188.521 310.739C188.855 311.239 189.038 311.826 189.072 312.5H186.788C186.724 312.064 186.554 311.714 186.277 311.449C186.004 311.18 185.646 311.045 185.203 311.045C184.828 311.045 184.5 311.148 184.22 311.352C183.944 311.553 183.728 311.847 183.572 312.233C183.417 312.619 183.339 313.087 183.339 313.636C183.339 314.193 183.415 314.667 183.567 315.057C183.722 315.447 183.94 315.744 184.22 315.949C184.5 316.153 184.828 316.256 185.203 316.256C185.48 316.256 185.728 316.199 185.947 316.085C186.171 315.972 186.355 315.807 186.499 315.591C186.646 315.371 186.743 315.108 186.788 314.801H189.072C189.035 315.468 188.853 316.055 188.527 316.562C188.205 317.066 187.76 317.46 187.192 317.744C186.624 318.028 185.951 318.17 185.175 318.17ZM194.599 318.17C193.702 318.17 192.929 317.989 192.281 317.625C191.637 317.258 191.141 316.739 190.793 316.068C190.444 315.394 190.27 314.597 190.27 313.676C190.27 312.778 190.444 311.991 190.793 311.312C191.141 310.634 191.632 310.106 192.264 309.727C192.901 309.348 193.647 309.159 194.503 309.159C195.079 309.159 195.615 309.252 196.111 309.438C196.611 309.619 197.046 309.894 197.418 310.261C197.793 310.629 198.084 311.091 198.293 311.648C198.501 312.201 198.605 312.848 198.605 313.591V314.256H191.236V312.756H196.327C196.327 312.407 196.251 312.098 196.099 311.83C195.948 311.561 195.738 311.35 195.469 311.199C195.204 311.044 194.895 310.966 194.543 310.966C194.175 310.966 193.849 311.051 193.565 311.222C193.285 311.388 193.065 311.614 192.906 311.898C192.747 312.178 192.666 312.491 192.662 312.835V314.261C192.662 314.693 192.741 315.066 192.901 315.381C193.063 315.695 193.293 315.938 193.588 316.108C193.884 316.278 194.234 316.364 194.639 316.364C194.908 316.364 195.154 316.326 195.378 316.25C195.601 316.174 195.793 316.061 195.952 315.909C196.111 315.758 196.232 315.572 196.315 315.352L198.554 315.5C198.44 316.038 198.207 316.508 197.855 316.909C197.507 317.307 197.056 317.617 196.503 317.841C195.954 318.061 195.319 318.17 194.599 318.17Z" fill="white"/>
</svg>
