<svg width="400" height="276" viewBox="0 0 400 276" fill="none" xmlns="http://www.w3.org/2000/svg">
<path d="M6.01562 174.891V179.573C6.01562 180.351 5.77148 180.966 5.2832 181.419C4.79818 181.871 4.13411 182.098 3.29102 182.098C2.46094 182.098 1.80176 181.878 1.31348 181.438C0.825195 180.999 0.576172 180.395 0.566406 179.627V174.891H2.03125V179.583C2.03125 180.049 2.14193 180.389 2.36328 180.604C2.58789 180.815 2.89714 180.921 3.29102 180.921C4.11458 180.921 4.53288 180.488 4.5459 179.622V174.891H6.01562ZM8.42285 176.717L8.4668 177.327C8.8444 176.855 9.35059 176.619 9.98535 176.619C10.5452 176.619 10.9619 176.784 11.2354 177.112C11.5088 177.441 11.6488 177.933 11.6553 178.587V182H10.2441V178.621C10.2441 178.322 10.179 178.105 10.0488 177.972C9.91862 177.835 9.70215 177.767 9.39941 177.767C9.00228 177.767 8.70443 177.936 8.50586 178.274V182H7.09473V176.717H8.42285ZM15.1611 182.098C14.3864 182.098 13.7549 181.86 13.2666 181.385C12.7816 180.91 12.5391 180.276 12.5391 179.485V179.349C12.5391 178.818 12.6416 178.344 12.8467 177.928C13.0518 177.508 13.3415 177.186 13.7158 176.961C14.0934 176.733 14.5231 176.619 15.0049 176.619C15.7275 176.619 16.2956 176.847 16.709 177.303C17.1257 177.758 17.334 178.405 17.334 179.241V179.817H13.9697C14.0153 180.162 14.152 180.439 14.3799 180.647C14.611 180.856 14.9023 180.96 15.2539 180.96C15.7975 180.96 16.2223 180.763 16.5283 180.369L17.2217 181.146C17.0101 181.445 16.7236 181.679 16.3623 181.849C16.001 182.015 15.6006 182.098 15.1611 182.098ZM15 177.762C14.7201 177.762 14.4922 177.856 14.3164 178.045C14.1439 178.234 14.0332 178.504 13.9844 178.855H15.9473V178.743C15.9408 178.431 15.8561 178.19 15.6934 178.021C15.5306 177.848 15.2995 177.762 15 177.762ZM19.4629 176.717L19.5068 177.308C19.8812 176.849 20.3874 176.619 21.0254 176.619C21.7057 176.619 22.1729 176.888 22.4268 177.425C22.7979 176.888 23.3268 176.619 24.0137 176.619C24.5866 176.619 25.013 176.787 25.293 177.122C25.5729 177.454 25.7129 177.955 25.7129 178.626V182H24.2969V178.631C24.2969 178.331 24.2383 178.113 24.1211 177.977C24.0039 177.837 23.7972 177.767 23.501 177.767C23.0778 177.767 22.7848 177.968 22.6221 178.372L22.627 182H21.2158V178.636C21.2158 178.33 21.1556 178.108 21.0352 177.972C20.9147 177.835 20.7096 177.767 20.4199 177.767C20.0195 177.767 19.7298 177.933 19.5508 178.265V182H18.1396V176.717H19.4629ZM31.5576 179.407C31.5576 180.221 31.3721 180.874 31.001 181.365C30.6331 181.854 30.1351 182.098 29.5068 182.098C28.973 182.098 28.5417 181.912 28.2129 181.541V184.031H26.8018V176.717H28.1104L28.1592 177.234C28.501 176.824 28.9469 176.619 29.4971 176.619C30.1481 176.619 30.6543 176.86 31.0156 177.342C31.377 177.824 31.5576 178.488 31.5576 179.334V179.407ZM30.1465 179.305C30.1465 178.813 30.0586 178.434 29.8828 178.167C29.7103 177.9 29.458 177.767 29.126 177.767C28.6833 177.767 28.3789 177.936 28.2129 178.274V180.438C28.3854 180.786 28.693 180.96 29.1357 180.96C29.8096 180.96 30.1465 180.408 30.1465 179.305ZM33.9258 182H32.5098V174.5H33.9258V182ZM34.873 179.31C34.873 178.785 34.974 178.318 35.1758 177.908C35.3776 177.498 35.6673 177.181 36.0449 176.956C36.4258 176.731 36.8669 176.619 37.3682 176.619C38.0811 176.619 38.6621 176.837 39.1113 177.273C39.5638 177.71 39.8161 178.302 39.8682 179.051L39.8779 179.412C39.8779 180.223 39.6517 180.874 39.1992 181.365C38.7467 181.854 38.1396 182.098 37.3779 182.098C36.6162 182.098 36.0075 181.854 35.5518 181.365C35.0993 180.877 34.873 180.213 34.873 179.373V179.31ZM36.2842 179.412C36.2842 179.913 36.3786 180.298 36.5674 180.564C36.7562 180.828 37.0264 180.96 37.3779 180.96C37.7197 180.96 37.9867 180.83 38.1787 180.569C38.3708 180.306 38.4668 179.886 38.4668 179.31C38.4668 178.818 38.3708 178.437 38.1787 178.167C37.9867 177.897 37.7165 177.762 37.3682 177.762C37.0231 177.762 36.7562 177.897 36.5674 178.167C36.3786 178.434 36.2842 178.849 36.2842 179.412ZM42.6416 180.003L43.6182 176.717H45.1318L43.0078 182.82L42.8906 183.099C42.5749 183.789 42.054 184.134 41.3281 184.134C41.123 184.134 40.9147 184.103 40.7031 184.041V182.972L40.918 182.977C41.1849 182.977 41.3835 182.936 41.5137 182.854C41.6471 182.773 41.7513 182.638 41.8262 182.449L41.9922 182.015L40.1416 176.717H41.6602L42.6416 180.003ZM48.0518 182.098C47.277 182.098 46.6455 181.86 46.1572 181.385C45.6722 180.91 45.4297 180.276 45.4297 179.485V179.349C45.4297 178.818 45.5322 178.344 45.7373 177.928C45.9424 177.508 46.2321 177.186 46.6064 176.961C46.984 176.733 47.4137 176.619 47.8955 176.619C48.6182 176.619 49.1862 176.847 49.5996 177.303C50.0163 177.758 50.2246 178.405 50.2246 179.241V179.817H46.8604C46.9059 180.162 47.0426 180.439 47.2705 180.647C47.5016 180.856 47.793 180.96 48.1445 180.96C48.6882 180.96 49.113 180.763 49.4189 180.369L50.1123 181.146C49.9007 181.445 49.6143 181.679 49.2529 181.849C48.8916 182.015 48.4912 182.098 48.0518 182.098ZM47.8906 177.762C47.6107 177.762 47.3828 177.856 47.207 178.045C47.0345 178.234 46.9238 178.504 46.875 178.855H48.8379V178.743C48.8314 178.431 48.7467 178.19 48.584 178.021C48.4212 177.848 48.1901 177.762 47.8906 177.762ZM50.8105 179.319C50.8105 178.496 50.9945 177.84 51.3623 177.352C51.7334 176.863 52.2396 176.619 52.8809 176.619C53.3952 176.619 53.82 176.811 54.1553 177.195V174.5H55.5713V182H54.2969L54.2285 181.438C53.877 181.878 53.4245 182.098 52.8711 182.098C52.2493 182.098 51.7497 181.854 51.3721 181.365C50.9977 180.874 50.8105 180.192 50.8105 179.319ZM52.2217 179.422C52.2217 179.917 52.3079 180.296 52.4805 180.56C52.653 180.823 52.9036 180.955 53.2324 180.955C53.6686 180.955 53.9762 180.771 54.1553 180.403V178.318C53.9795 177.951 53.6751 177.767 53.2422 177.767C52.5618 177.767 52.2217 178.318 52.2217 179.422Z" fill="black"/>
<path d="M6.01562 54.8906V59.5732C6.01562 60.3512 5.77148 60.9665 5.2832 61.4189C4.79818 61.8714 4.13411 62.0977 3.29102 62.0977C2.46094 62.0977 1.80176 61.8779 1.31348 61.4385C0.825195 60.999 0.576172 60.3952 0.566406 59.627V54.8906H2.03125V59.583C2.03125 60.0485 2.14193 60.3887 2.36328 60.6035C2.58789 60.8151 2.89714 60.9209 3.29102 60.9209C4.11458 60.9209 4.53288 60.488 4.5459 59.6221V54.8906H6.01562ZM8.42285 56.7168L8.4668 57.3271C8.8444 56.8551 9.35059 56.6191 9.98535 56.6191C10.5452 56.6191 10.9619 56.7835 11.2354 57.1123C11.5088 57.4411 11.6488 57.9326 11.6553 58.5869V62H10.2441V58.6211C10.2441 58.3216 10.179 58.1051 10.0488 57.9717C9.91862 57.835 9.70215 57.7666 9.39941 57.7666C9.00228 57.7666 8.70443 57.9359 8.50586 58.2744V62H7.09473V56.7168H8.42285ZM15.5908 60.54C15.5908 60.3675 15.5046 60.2324 15.332 60.1348C15.1628 60.0339 14.8893 59.9443 14.5117 59.8662C13.2552 59.6025 12.627 59.0687 12.627 58.2646C12.627 57.7959 12.8206 57.4053 13.208 57.0928C13.5986 56.777 14.1081 56.6191 14.7363 56.6191C15.4069 56.6191 15.9424 56.777 16.3428 57.0928C16.7464 57.4085 16.9482 57.8187 16.9482 58.3232H15.5371C15.5371 58.1214 15.472 57.9554 15.3418 57.8252C15.2116 57.6917 15.0081 57.625 14.7314 57.625C14.4938 57.625 14.3099 57.6787 14.1797 57.7861C14.0495 57.8936 13.9844 58.0303 13.9844 58.1963C13.9844 58.3525 14.0576 58.4795 14.2041 58.5771C14.3538 58.6715 14.6045 58.7546 14.9561 58.8262C15.3076 58.8945 15.6038 58.9727 15.8447 59.0605C16.5902 59.334 16.9629 59.8076 16.9629 60.4814C16.9629 60.9632 16.7562 61.3538 16.3428 61.6533C15.9294 61.9495 15.3955 62.0977 14.7412 62.0977C14.2985 62.0977 13.9046 62.0195 13.5596 61.8633C13.2178 61.7038 12.9492 61.4873 12.7539 61.2139C12.5586 60.9372 12.4609 60.6393 12.4609 60.3203H13.7988C13.8118 60.571 13.9046 60.763 14.0771 60.8965C14.2497 61.0299 14.4808 61.0967 14.7705 61.0967C15.0407 61.0967 15.2441 61.0462 15.3809 60.9453C15.5208 60.8411 15.5908 60.7061 15.5908 60.54ZM20.3076 62.0977C19.5329 62.0977 18.9014 61.86 18.4131 61.3848C17.9281 60.9095 17.6855 60.2764 17.6855 59.4854V59.3486C17.6855 58.818 17.7881 58.3444 17.9932 57.9277C18.1982 57.5078 18.488 57.1855 18.8623 56.9609C19.2399 56.7331 19.6696 56.6191 20.1514 56.6191C20.874 56.6191 21.4421 56.847 21.8555 57.3027C22.2721 57.7585 22.4805 58.4046 22.4805 59.2412V59.8174H19.1162C19.1618 60.1624 19.2985 60.4391 19.5264 60.6475C19.7575 60.8558 20.0488 60.96 20.4004 60.96C20.944 60.96 21.3688 60.763 21.6748 60.3691L22.3682 61.1455C22.1566 61.445 21.8701 61.6794 21.5088 61.8486C21.1475 62.0146 20.7471 62.0977 20.3076 62.0977ZM20.1465 57.7617C19.8665 57.7617 19.6387 57.8561 19.4629 58.0449C19.2904 58.2337 19.1797 58.5039 19.1309 58.8555H21.0938V58.7432C21.0872 58.4307 21.0026 58.1898 20.8398 58.0205C20.6771 57.848 20.446 57.7617 20.1465 57.7617ZM23.0811 59.3193C23.0811 58.5088 23.2731 57.8561 23.6572 57.3613C24.0446 56.8665 24.5654 56.6191 25.2197 56.6191C25.7992 56.6191 26.25 56.8177 26.5723 57.2148L26.6309 56.7168H27.9102V61.8242C27.9102 62.2865 27.8044 62.6885 27.5928 63.0303C27.3844 63.3721 27.0898 63.6325 26.709 63.8115C26.3281 63.9906 25.8822 64.0801 25.3711 64.0801C24.9837 64.0801 24.6061 64.002 24.2383 63.8457C23.8704 63.6927 23.5921 63.4941 23.4033 63.25L24.0283 62.3906C24.3799 62.7845 24.8063 62.9814 25.3076 62.9814C25.682 62.9814 25.9733 62.8805 26.1816 62.6787C26.39 62.4801 26.4941 62.1969 26.4941 61.8291V61.5459C26.1686 61.9137 25.7406 62.0977 25.21 62.0977C24.5752 62.0977 24.0609 61.8503 23.667 61.3555C23.2764 60.8574 23.0811 60.1982 23.0811 59.3779V59.3193ZM24.4922 59.4219C24.4922 59.9004 24.5882 60.2764 24.7803 60.5498C24.9723 60.82 25.236 60.9551 25.5713 60.9551C26.001 60.9551 26.3086 60.7939 26.4941 60.4717V58.25C26.3053 57.9277 26.001 57.7666 25.5811 57.7666C25.2425 57.7666 24.9756 57.9049 24.7803 58.1816C24.5882 58.4583 24.4922 58.8717 24.4922 59.4219ZM30.3223 56.7168L30.3662 57.3076C30.7406 56.8486 31.2467 56.6191 31.8848 56.6191C32.5651 56.6191 33.0322 56.8877 33.2861 57.4248C33.6572 56.8877 34.1862 56.6191 34.873 56.6191C35.446 56.6191 35.8724 56.7868 36.1523 57.1221C36.4323 57.4541 36.5723 57.9554 36.5723 58.626V62H35.1562V58.6309C35.1562 58.3314 35.0977 58.1133 34.9805 57.9766C34.8633 57.8366 34.6566 57.7666 34.3604 57.7666C33.9372 57.7666 33.6442 57.9684 33.4814 58.3721L33.4863 62H32.0752V58.6357C32.0752 58.3298 32.015 58.1084 31.8945 57.9717C31.7741 57.835 31.569 57.7666 31.2793 57.7666C30.8789 57.7666 30.5892 57.9326 30.4102 58.2646V62H28.999V56.7168H30.3223ZM40.0928 62.0977C39.318 62.0977 38.6865 61.86 38.1982 61.3848C37.7132 60.9095 37.4707 60.2764 37.4707 59.4854V59.3486C37.4707 58.818 37.5732 58.3444 37.7783 57.9277C37.9834 57.5078 38.2731 57.1855 38.6475 56.9609C39.0251 56.7331 39.4548 56.6191 39.9365 56.6191C40.6592 56.6191 41.2272 56.847 41.6406 57.3027C42.0573 57.7585 42.2656 58.4046 42.2656 59.2412V59.8174H38.9014C38.9469 60.1624 39.0837 60.4391 39.3115 60.6475C39.5426 60.8558 39.834 60.96 40.1855 60.96C40.7292 60.96 41.154 60.763 41.46 60.3691L42.1533 61.1455C41.9417 61.445 41.6553 61.6794 41.2939 61.8486C40.9326 62.0146 40.5322 62.0977 40.0928 62.0977ZM39.9316 57.7617C39.6517 57.7617 39.4238 57.8561 39.248 58.0449C39.0755 58.2337 38.9648 58.5039 38.916 58.8555H40.8789V58.7432C40.8724 58.4307 40.7878 58.1898 40.625 58.0205C40.4622 57.848 40.2311 57.7617 39.9316 57.7617ZM44.3701 56.7168L44.4141 57.3271C44.7917 56.8551 45.2979 56.6191 45.9326 56.6191C46.4925 56.6191 46.9092 56.7835 47.1826 57.1123C47.4561 57.4411 47.596 57.9326 47.6025 58.5869V62H46.1914V58.6211C46.1914 58.3216 46.1263 58.1051 45.9961 57.9717C45.8659 57.835 45.6494 57.7666 45.3467 57.7666C44.9495 57.7666 44.6517 57.9359 44.4531 58.2744V62H43.042V56.7168H44.3701ZM50.3662 55.418V56.7168H51.2695V57.752H50.3662V60.3887C50.3662 60.584 50.4036 60.724 50.4785 60.8086C50.5534 60.8932 50.6966 60.9355 50.9082 60.9355C51.0645 60.9355 51.2028 60.9242 51.3232 60.9014V61.9707C51.0465 62.0553 50.7617 62.0977 50.4688 62.0977C49.4792 62.0977 48.9746 61.598 48.9551 60.5986V57.752H48.1836V56.7168H48.9551V55.418H50.3662ZM54.4873 62.0977C53.7126 62.0977 53.0811 61.86 52.5928 61.3848C52.1077 60.9095 51.8652 60.2764 51.8652 59.4854V59.3486C51.8652 58.818 51.9678 58.3444 52.1729 57.9277C52.3779 57.5078 52.6676 57.1855 53.042 56.9609C53.4196 56.7331 53.8493 56.6191 54.3311 56.6191C55.0537 56.6191 55.6217 56.847 56.0352 57.3027C56.4518 57.7585 56.6602 58.4046 56.6602 59.2412V59.8174H53.2959C53.3415 60.1624 53.4782 60.4391 53.7061 60.6475C53.9372 60.8558 54.2285 60.96 54.5801 60.96C55.1237 60.96 55.5485 60.763 55.8545 60.3691L56.5479 61.1455C56.3363 61.445 56.0498 61.6794 55.6885 61.8486C55.3271 62.0146 54.9268 62.0977 54.4873 62.0977ZM54.3262 57.7617C54.0462 57.7617 53.8184 57.8561 53.6426 58.0449C53.4701 58.2337 53.3594 58.5039 53.3105 58.8555H55.2734V58.7432C55.2669 58.4307 55.1823 58.1898 55.0195 58.0205C54.8568 57.848 54.6257 57.7617 54.3262 57.7617ZM57.2461 59.3193C57.2461 58.4958 57.43 57.8398 57.7979 57.3516C58.1689 56.8633 58.6751 56.6191 59.3164 56.6191C59.8307 56.6191 60.2555 56.8112 60.5908 57.1953V54.5H62.0068V62H60.7324L60.6641 61.4385C60.3125 61.8779 59.86 62.0977 59.3066 62.0977C58.6849 62.0977 58.1852 61.8535 57.8076 61.3652C57.4333 60.8737 57.2461 60.1917 57.2461 59.3193ZM58.6572 59.4219C58.6572 59.9167 58.7435 60.2959 58.916 60.5596C59.0885 60.8232 59.3392 60.9551 59.668 60.9551C60.1042 60.9551 60.4118 60.7712 60.5908 60.4033V58.3184C60.415 57.9505 60.1107 57.7666 59.6777 57.7666C58.9974 57.7666 58.6572 58.3184 58.6572 59.4219Z" fill="black"/>
<path d="M85.8301 54.8906V59.7246C85.8268 60.3952 85.6152 60.9437 85.1953 61.3701C84.7786 61.7965 84.2122 62.0358 83.4961 62.0879L83.2471 62.0977C82.4691 62.0977 81.849 61.8877 81.3867 61.4678C80.9245 61.0479 80.6901 60.4701 80.6836 59.7344V54.8906H81.6113V59.7051C81.6113 60.2194 81.7529 60.6198 82.0361 60.9062C82.3193 61.1895 82.723 61.3311 83.2471 61.3311C83.7777 61.3311 84.1829 61.1895 84.4629 60.9062C84.7461 60.623 84.8877 60.2243 84.8877 59.71V54.8906H85.8301ZM88.0225 56.7168L88.0518 57.3809C88.4554 56.873 88.9827 56.6191 89.6338 56.6191C90.7503 56.6191 91.3135 57.249 91.3232 58.5088V62H90.4199V58.5039C90.4167 58.123 90.3288 57.8415 90.1562 57.6592C89.987 57.4769 89.7217 57.3857 89.3604 57.3857C89.0674 57.3857 88.8102 57.4639 88.5889 57.6201C88.3675 57.7764 88.195 57.9814 88.0713 58.2354V62H87.168V56.7168H88.0225ZM94.8779 62.0977C94.1618 62.0977 93.5791 61.8633 93.1299 61.3945C92.6807 60.9225 92.4561 60.2926 92.4561 59.5049V59.3389C92.4561 58.8148 92.5553 58.3477 92.7539 57.9375C92.9557 57.5241 93.2357 57.2018 93.5938 56.9707C93.9551 56.7363 94.3457 56.6191 94.7656 56.6191C95.4525 56.6191 95.9863 56.8454 96.3672 57.2979C96.748 57.7503 96.9385 58.3981 96.9385 59.2412V59.6172H93.3594C93.3724 60.138 93.5238 60.5596 93.8135 60.8818C94.1064 61.2008 94.4775 61.3604 94.9268 61.3604C95.2458 61.3604 95.516 61.2952 95.7373 61.165C95.9587 61.0348 96.1523 60.8623 96.3184 60.6475L96.8701 61.0771C96.4274 61.7575 95.7633 62.0977 94.8779 62.0977ZM94.7656 57.3613C94.401 57.3613 94.0951 57.4948 93.8477 57.7617C93.6003 58.0254 93.4473 58.3965 93.3887 58.875H96.0352V58.8066C96.0091 58.3477 95.8854 57.9928 95.6641 57.7422C95.4427 57.4883 95.1432 57.3613 94.7656 57.3613ZM98.8379 56.7168L98.8623 57.3027C99.2497 56.847 99.7721 56.6191 100.43 56.6191C101.169 56.6191 101.672 56.9023 101.938 57.4688C102.114 57.2148 102.342 57.0098 102.622 56.8535C102.905 56.6973 103.239 56.6191 103.623 56.6191C104.782 56.6191 105.371 57.2327 105.391 58.46V62H104.487V58.5137C104.487 58.1361 104.401 57.8545 104.229 57.6689C104.056 57.4801 103.766 57.3857 103.359 57.3857C103.024 57.3857 102.746 57.4867 102.524 57.6885C102.303 57.887 102.174 58.1556 102.139 58.4941V62H101.23V58.5381C101.23 57.7699 100.854 57.3857 100.103 57.3857C99.5101 57.3857 99.1048 57.638 98.8867 58.1426V62H97.9834V56.7168H98.8379ZM111.221 59.417C111.221 60.221 111.037 60.8688 110.669 61.3604C110.301 61.8519 109.803 62.0977 109.175 62.0977C108.534 62.0977 108.029 61.8942 107.661 61.4873V64.0312H106.758V56.7168H107.583L107.627 57.3027C107.995 56.847 108.506 56.6191 109.16 56.6191C109.795 56.6191 110.296 56.8584 110.664 57.3369C111.035 57.8154 111.221 58.4811 111.221 59.334V59.417ZM110.317 59.3145C110.317 58.7188 110.19 58.2484 109.937 57.9033C109.683 57.5583 109.334 57.3857 108.892 57.3857C108.345 57.3857 107.935 57.6283 107.661 58.1133V60.6377C107.931 61.1195 108.345 61.3604 108.901 61.3604C109.334 61.3604 109.678 61.1895 109.932 60.8477C110.189 60.5026 110.317 59.9915 110.317 59.3145ZM113.354 62H112.451V54.5H113.354V62ZM114.565 59.3096C114.565 58.792 114.666 58.3265 114.868 57.9131C115.073 57.4997 115.356 57.1807 115.718 56.9561C116.082 56.7314 116.497 56.6191 116.963 56.6191C117.682 56.6191 118.263 56.8682 118.706 57.3662C119.152 57.8643 119.375 58.5267 119.375 59.3535V59.417C119.375 59.9313 119.276 60.3936 119.077 60.8037C118.882 61.2106 118.6 61.528 118.232 61.7559C117.868 61.9837 117.448 62.0977 116.973 62.0977C116.257 62.0977 115.675 61.8486 115.229 61.3506C114.787 60.8525 114.565 60.1934 114.565 59.373V59.3096ZM115.474 59.417C115.474 60.0029 115.609 60.4733 115.879 60.8281C116.152 61.1829 116.517 61.3604 116.973 61.3604C117.432 61.3604 117.796 61.1813 118.066 60.8232C118.337 60.4619 118.472 59.9574 118.472 59.3096C118.472 58.7301 118.333 58.2614 118.057 57.9033C117.783 57.542 117.419 57.3613 116.963 57.3613C116.517 57.3613 116.157 57.5387 115.884 57.8936C115.61 58.2484 115.474 58.7562 115.474 59.417ZM122.158 60.6768L123.389 56.7168H124.355L122.231 62.8154C121.903 63.6943 121.38 64.1338 120.664 64.1338L120.493 64.1191L120.156 64.0557V63.3232L120.4 63.3428C120.706 63.3428 120.944 63.2809 121.113 63.1572C121.286 63.0335 121.427 62.8073 121.538 62.4785L121.738 61.9414L119.854 56.7168H120.84L122.158 60.6768ZM127.29 62.0977C126.574 62.0977 125.991 61.8633 125.542 61.3945C125.093 60.9225 124.868 60.2926 124.868 59.5049V59.3389C124.868 58.8148 124.967 58.3477 125.166 57.9375C125.368 57.5241 125.648 57.2018 126.006 56.9707C126.367 56.7363 126.758 56.6191 127.178 56.6191C127.865 56.6191 128.398 56.8454 128.779 57.2979C129.16 57.7503 129.351 58.3981 129.351 59.2412V59.6172H125.771C125.785 60.138 125.936 60.5596 126.226 60.8818C126.519 61.2008 126.89 61.3604 127.339 61.3604C127.658 61.3604 127.928 61.2952 128.149 61.165C128.371 61.0348 128.564 60.8623 128.73 60.6475L129.282 61.0771C128.84 61.7575 128.175 62.0977 127.29 62.0977ZM127.178 57.3613C126.813 57.3613 126.507 57.4948 126.26 57.7617C126.012 58.0254 125.859 58.3965 125.801 58.875H128.447V58.8066C128.421 58.3477 128.298 57.9928 128.076 57.7422C127.855 57.4883 127.555 57.3613 127.178 57.3613ZM130.181 59.3145C130.181 58.5039 130.373 57.8529 130.757 57.3613C131.141 56.8665 131.644 56.6191 132.266 56.6191C132.884 56.6191 133.374 56.8307 133.735 57.2539V54.5H134.639V62H133.809L133.765 61.4336C133.403 61.8763 132.9 62.0977 132.256 62.0977C131.644 62.0977 131.144 61.847 130.757 61.3457C130.373 60.8444 130.181 60.1901 130.181 59.3828V59.3145ZM131.084 59.417C131.084 60.016 131.208 60.4847 131.455 60.8232C131.702 61.1618 132.044 61.3311 132.48 61.3311C133.053 61.3311 133.472 61.0739 133.735 60.5596V58.1328C133.465 57.6348 133.05 57.3857 132.49 57.3857C132.048 57.3857 131.702 57.5566 131.455 57.8984C131.208 58.2402 131.084 58.7464 131.084 59.417ZM138.491 59.1143C138.491 58.3786 138.589 57.6722 138.784 56.9951C138.983 56.318 139.277 55.7028 139.668 55.1494C140.059 54.596 140.464 54.2054 140.884 53.9775L141.069 54.5732C140.594 54.9378 140.203 55.4945 139.897 56.2432C139.595 56.9919 139.429 57.8301 139.399 58.7578L139.395 59.1729C139.395 60.4294 139.624 61.5199 140.083 62.4443C140.36 62.9977 140.688 63.4307 141.069 63.7432L140.884 64.2949C140.451 64.054 140.037 63.6504 139.644 63.084C138.875 61.9772 138.491 60.654 138.491 59.1143ZM145.396 54.8857V55.6523H145.229C144.526 55.6654 143.966 55.8737 143.55 56.2773C143.133 56.681 142.892 57.249 142.827 57.9814C143.201 57.5518 143.713 57.3369 144.36 57.3369C144.979 57.3369 145.472 57.555 145.84 57.9912C146.211 58.4274 146.396 58.9906 146.396 59.6807C146.396 60.4131 146.196 60.999 145.796 61.4385C145.399 61.8779 144.865 62.0977 144.194 62.0977C143.514 62.0977 142.962 61.8372 142.539 61.3164C142.116 60.7923 141.904 60.1185 141.904 59.2949V58.9482C141.904 57.6396 142.183 56.6403 142.739 55.9502C143.299 55.2568 144.131 54.902 145.234 54.8857H145.396ZM144.209 58.0889C143.9 58.0889 143.615 58.1816 143.354 58.3672C143.094 58.5527 142.913 58.7855 142.812 59.0654V59.3975C142.812 59.9834 142.944 60.4554 143.208 60.8135C143.472 61.1715 143.8 61.3506 144.194 61.3506C144.601 61.3506 144.92 61.2008 145.151 60.9014C145.386 60.6019 145.503 60.2096 145.503 59.7246C145.503 59.2363 145.384 58.8424 145.146 58.543C144.912 58.2402 144.6 58.0889 144.209 58.0889ZM149.644 59.1631C149.644 59.889 149.548 60.5856 149.355 61.2529C149.167 61.917 148.875 62.5306 148.481 63.0938C148.091 63.6569 147.681 64.0573 147.251 64.2949L147.061 63.7432C147.562 63.359 147.964 62.7633 148.267 61.9561C148.573 61.1455 148.729 60.2471 148.735 59.2607V59.1045C148.735 58.4209 148.664 57.7861 148.521 57.2002C148.377 56.611 148.177 56.0837 147.92 55.6182C147.666 55.1527 147.38 54.7897 147.061 54.5293L147.251 53.9775C147.681 54.2152 148.089 54.6123 148.477 55.1689C148.867 55.7256 149.159 56.3392 149.351 57.0098C149.546 57.6803 149.644 58.3981 149.644 59.1631Z" fill="black"/>
<path d="M84.9121 88.9189H82.0996V90.8232H85.4004V92H80.6348V84.8906H85.3906V86.0771H82.0996V87.7715H84.9121V88.9189ZM87.4902 86.7168L87.5342 87.3076C87.9085 86.8486 88.4147 86.6191 89.0527 86.6191C89.7331 86.6191 90.2002 86.8877 90.4541 87.4248C90.8252 86.8877 91.3542 86.6191 92.041 86.6191C92.6139 86.6191 93.0404 86.7868 93.3203 87.1221C93.6003 87.4541 93.7402 87.9554 93.7402 88.626V92H92.3242V88.6309C92.3242 88.3314 92.2656 88.1133 92.1484 87.9766C92.0312 87.8366 91.8245 87.7666 91.5283 87.7666C91.1051 87.7666 90.8122 87.9684 90.6494 88.3721L90.6543 92H89.2432V88.6357C89.2432 88.3298 89.1829 88.1084 89.0625 87.9717C88.9421 87.835 88.737 87.7666 88.4473 87.7666C88.0469 87.7666 87.7572 87.9326 87.5781 88.2646V92H86.167V86.7168H87.4902ZM99.585 89.4072C99.585 90.221 99.3994 90.8737 99.0283 91.3652C98.6605 91.8535 98.1624 92.0977 97.5342 92.0977C97.0003 92.0977 96.569 91.9121 96.2402 91.541V94.0312H94.8291V86.7168H96.1377L96.1865 87.2344C96.5283 86.8242 96.9743 86.6191 97.5244 86.6191C98.1755 86.6191 98.6816 86.86 99.043 87.3418C99.4043 87.8236 99.585 88.4876 99.585 89.334V89.4072ZM98.1738 89.3047C98.1738 88.8132 98.0859 88.4339 97.9102 88.167C97.7376 87.9001 97.4854 87.7666 97.1533 87.7666C96.7106 87.7666 96.4062 87.9359 96.2402 88.2744V90.4375C96.4128 90.7858 96.7204 90.96 97.1631 90.96C97.8369 90.96 98.1738 90.4082 98.1738 89.3047ZM101.953 92H100.537V84.5H101.953V92ZM102.9 89.3096C102.9 88.7855 103.001 88.3184 103.203 87.9082C103.405 87.498 103.695 87.1807 104.072 86.9561C104.453 86.7314 104.894 86.6191 105.396 86.6191C106.108 86.6191 106.689 86.8372 107.139 87.2734C107.591 87.7096 107.843 88.3021 107.896 89.0508L107.905 89.4121C107.905 90.2227 107.679 90.8737 107.227 91.3652C106.774 91.8535 106.167 92.0977 105.405 92.0977C104.644 92.0977 104.035 91.8535 103.579 91.3652C103.127 90.877 102.9 90.2129 102.9 89.373V89.3096ZM104.312 89.4121C104.312 89.9134 104.406 90.2975 104.595 90.5645C104.784 90.8281 105.054 90.96 105.405 90.96C105.747 90.96 106.014 90.8298 106.206 90.5693C106.398 90.3057 106.494 89.8857 106.494 89.3096C106.494 88.818 106.398 88.4372 106.206 88.167C106.014 87.8968 105.744 87.7617 105.396 87.7617C105.05 87.7617 104.784 87.8968 104.595 88.167C104.406 88.4339 104.312 88.849 104.312 89.4121ZM110.669 90.0029L111.646 86.7168H113.159L111.035 92.8203L110.918 93.0986C110.602 93.7887 110.081 94.1338 109.355 94.1338C109.15 94.1338 108.942 94.1029 108.73 94.041V92.9717L108.945 92.9766C109.212 92.9766 109.411 92.9359 109.541 92.8545C109.674 92.7731 109.779 92.638 109.854 92.4492L110.02 92.0146L108.169 86.7168H109.688L110.669 90.0029ZM116.079 92.0977C115.304 92.0977 114.673 91.86 114.185 91.3848C113.7 90.9095 113.457 90.2764 113.457 89.4854V89.3486C113.457 88.818 113.56 88.3444 113.765 87.9277C113.97 87.5078 114.259 87.1855 114.634 86.9609C115.011 86.7331 115.441 86.6191 115.923 86.6191C116.646 86.6191 117.214 86.847 117.627 87.3027C118.044 87.7585 118.252 88.4046 118.252 89.2412V89.8174H114.888C114.933 90.1624 115.07 90.4391 115.298 90.6475C115.529 90.8558 115.82 90.96 116.172 90.96C116.715 90.96 117.14 90.763 117.446 90.3691L118.14 91.1455C117.928 91.445 117.642 91.6794 117.28 91.8486C116.919 92.0146 116.519 92.0977 116.079 92.0977ZM115.918 87.7617C115.638 87.7617 115.41 87.8561 115.234 88.0449C115.062 88.2337 114.951 88.5039 114.902 88.8555H116.865V88.7432C116.859 88.4307 116.774 88.1898 116.611 88.0205C116.449 87.848 116.217 87.7617 115.918 87.7617ZM118.838 89.3193C118.838 88.4958 119.022 87.8398 119.39 87.3516C119.761 86.8633 120.267 86.6191 120.908 86.6191C121.423 86.6191 121.847 86.8112 122.183 87.1953V84.5H123.599V92H122.324L122.256 91.4385C121.904 91.8779 121.452 92.0977 120.898 92.0977C120.277 92.0977 119.777 91.8535 119.399 91.3652C119.025 90.8737 118.838 90.1917 118.838 89.3193ZM120.249 89.4219C120.249 89.9167 120.335 90.2959 120.508 90.5596C120.68 90.8232 120.931 90.9551 121.26 90.9551C121.696 90.9551 122.004 90.7712 122.183 90.4033V88.3184C122.007 87.9505 121.702 87.7666 121.27 87.7666C120.589 87.7666 120.249 88.3184 120.249 89.4219ZM127.246 89.1094C127.246 88.3639 127.345 87.6543 127.544 86.9805C127.743 86.3066 128.035 85.7109 128.423 85.1934C128.81 84.6725 129.23 84.3112 129.683 84.1094L129.956 84.8711C129.481 85.2227 129.11 85.7663 128.843 86.502C128.576 87.2376 128.442 88.097 128.442 89.0801V89.2314C128.442 90.2178 128.574 91.0804 128.838 91.8193C129.102 92.5583 129.474 93.11 129.956 93.4746L129.683 94.2217C129.24 94.0231 128.826 93.6715 128.442 93.167C128.062 92.6657 127.77 92.0863 127.568 91.4287C127.367 90.7712 127.259 90.0843 127.246 89.3682V89.1094ZM133.94 89.1582C133.573 89.5195 133.143 89.7002 132.651 89.7002C132.023 89.7002 131.52 89.4854 131.143 89.0557C130.765 88.6227 130.576 88.04 130.576 87.3076C130.576 86.8421 130.677 86.4157 130.879 86.0283C131.084 85.6377 131.369 85.335 131.733 85.1201C132.098 84.902 132.508 84.793 132.964 84.793C133.433 84.793 133.849 84.9102 134.214 85.1445C134.578 85.3789 134.862 85.7158 135.063 86.1553C135.265 86.5947 135.368 87.0977 135.371 87.6641V88.1865C135.371 89.3714 135.076 90.3024 134.487 90.9795C133.898 91.6566 133.063 92.0179 131.982 92.0635L131.636 92.0684V90.8916L131.948 90.8867C133.175 90.8314 133.84 90.2552 133.94 89.1582ZM132.998 88.6211C133.226 88.6211 133.421 88.5625 133.584 88.4453C133.75 88.3281 133.875 88.1865 133.96 88.0205V87.4395C133.96 86.9609 133.869 86.5898 133.687 86.3262C133.504 86.0625 133.26 85.9307 132.954 85.9307C132.671 85.9307 132.438 86.0609 132.256 86.3213C132.074 86.5785 131.982 86.9023 131.982 87.293C131.982 87.6803 132.07 87.9993 132.246 88.25C132.425 88.4974 132.676 88.6211 132.998 88.6211ZM138.872 89.2217C138.872 89.9574 138.766 90.6654 138.555 91.3457C138.343 92.026 138.039 92.6266 137.642 93.1475C137.244 93.6683 136.82 94.0264 136.367 94.2217L136.094 93.4746C136.556 93.1263 136.921 92.5892 137.188 91.8633C137.454 91.1374 137.593 90.3024 137.603 89.3584V89.0996C137.603 88.1263 137.469 87.2686 137.202 86.5264C136.938 85.7842 136.569 85.2275 136.094 84.8564L136.367 84.1094C136.81 84.3014 137.227 84.6497 137.617 85.1543C138.011 85.6589 138.315 86.2464 138.53 86.917C138.748 87.5876 138.862 88.2826 138.872 89.002V89.2217Z" fill="black"/>
<path d="M82.0361 174.891L84.3604 180.691L86.6846 174.891H87.9004V182H86.9629V179.231L87.0508 176.243L84.7168 182H83.999L81.6699 176.258L81.7627 179.231V182H80.8252V174.891H82.0361ZM92.6758 182C92.6237 181.896 92.5814 181.71 92.5488 181.443C92.1289 181.88 91.6276 182.098 91.0449 182.098C90.5241 182.098 90.096 181.951 89.7607 181.658C89.4287 181.362 89.2627 180.988 89.2627 180.535C89.2627 179.985 89.471 179.559 89.8877 179.256C90.3076 178.95 90.8968 178.797 91.6553 178.797H92.5342V178.382C92.5342 178.066 92.4398 177.815 92.251 177.63C92.0622 177.441 91.7839 177.347 91.416 177.347C91.0938 177.347 90.8236 177.428 90.6055 177.591C90.3874 177.754 90.2783 177.951 90.2783 178.182H89.3701C89.3701 177.918 89.4629 177.664 89.6484 177.42C89.8372 177.173 90.0911 176.977 90.4102 176.834C90.7324 176.691 91.0856 176.619 91.4697 176.619C92.0785 176.619 92.5553 176.772 92.9004 177.078C93.2454 177.381 93.4245 177.799 93.4375 178.333V180.765C93.4375 181.25 93.4993 181.635 93.623 181.922V182H92.6758ZM91.1768 181.312C91.46 181.312 91.7285 181.238 91.9824 181.092C92.2363 180.945 92.4202 180.755 92.5342 180.521V179.437H91.8262C90.7194 179.437 90.166 179.76 90.166 180.408C90.166 180.691 90.2604 180.913 90.4492 181.072C90.638 181.232 90.8805 181.312 91.1768 181.312ZM95.835 182H94.9316V174.5H95.835V182ZM99.4775 182.098C98.7614 182.098 98.1787 181.863 97.7295 181.395C97.2803 180.923 97.0557 180.293 97.0557 179.505V179.339C97.0557 178.815 97.1549 178.348 97.3535 177.938C97.5553 177.524 97.8353 177.202 98.1934 176.971C98.5547 176.736 98.9453 176.619 99.3652 176.619C100.052 176.619 100.586 176.845 100.967 177.298C101.348 177.75 101.538 178.398 101.538 179.241V179.617H97.959C97.972 180.138 98.1234 180.56 98.4131 180.882C98.7061 181.201 99.0771 181.36 99.5264 181.36C99.8454 181.36 100.116 181.295 100.337 181.165C100.558 181.035 100.752 180.862 100.918 180.647L101.47 181.077C101.027 181.757 100.363 182.098 99.4775 182.098ZM99.3652 177.361C99.0007 177.361 98.6947 177.495 98.4473 177.762C98.1999 178.025 98.0469 178.396 97.9883 178.875H100.635V178.807C100.609 178.348 100.485 177.993 100.264 177.742C100.042 177.488 99.7428 177.361 99.3652 177.361ZM105.034 179.114C105.034 178.379 105.132 177.672 105.327 176.995C105.526 176.318 105.82 175.703 106.211 175.149C106.602 174.596 107.007 174.205 107.427 173.978L107.612 174.573C107.137 174.938 106.746 175.494 106.44 176.243C106.138 176.992 105.972 177.83 105.942 178.758L105.938 179.173C105.938 180.429 106.167 181.52 106.626 182.444C106.903 182.998 107.231 183.431 107.612 183.743L107.427 184.295C106.994 184.054 106.58 183.65 106.187 183.084C105.418 181.977 105.034 180.654 105.034 179.114ZM112.207 179.612H113.193V180.35H112.207V182H111.299V180.35H108.062V179.817L111.245 174.891H112.207V179.612ZM109.087 179.612H111.299V176.126L111.191 176.321L109.087 179.612ZM116.187 179.163C116.187 179.889 116.09 180.586 115.898 181.253C115.71 181.917 115.418 182.531 115.024 183.094C114.634 183.657 114.224 184.057 113.794 184.295L113.604 183.743C114.105 183.359 114.507 182.763 114.81 181.956C115.116 181.146 115.272 180.247 115.278 179.261V179.104C115.278 178.421 115.207 177.786 115.063 177.2C114.92 176.611 114.72 176.084 114.463 175.618C114.209 175.153 113.923 174.79 113.604 174.529L113.794 173.978C114.224 174.215 114.632 174.612 115.02 175.169C115.41 175.726 115.701 176.339 115.894 177.01C116.089 177.68 116.187 178.398 116.187 179.163Z" fill="black"/>
<path d="M385.767 182H381.108V181.351L383.569 178.616C383.934 178.203 384.185 177.868 384.321 177.61C384.461 177.35 384.531 177.081 384.531 176.805C384.531 176.434 384.419 176.129 384.194 175.892C383.97 175.654 383.67 175.535 383.296 175.535C382.847 175.535 382.497 175.664 382.246 175.921C381.999 176.175 381.875 176.53 381.875 176.985H380.972C380.972 176.331 381.182 175.802 381.602 175.398C382.025 174.995 382.59 174.793 383.296 174.793C383.957 174.793 384.479 174.967 384.863 175.315C385.247 175.66 385.439 176.121 385.439 176.697C385.439 177.397 384.993 178.23 384.102 179.197L382.197 181.263H385.767V182ZM389.692 182H388.784V175.979L386.963 176.648V175.828L389.551 174.856H389.692V182ZM392.451 181.526C392.451 181.37 392.497 181.24 392.588 181.136C392.682 181.032 392.822 180.979 393.008 180.979C393.193 180.979 393.333 181.032 393.428 181.136C393.525 181.24 393.574 181.37 393.574 181.526C393.574 181.676 393.525 181.801 393.428 181.902C393.333 182.003 393.193 182.054 393.008 182.054C392.822 182.054 392.682 182.003 392.588 181.902C392.497 181.801 392.451 181.676 392.451 181.526ZM396.289 178.006H396.968C397.394 177.999 397.729 177.887 397.974 177.669C398.218 177.451 398.34 177.156 398.34 176.785C398.34 175.952 397.925 175.535 397.095 175.535C396.704 175.535 396.392 175.647 396.157 175.872C395.926 176.093 395.811 176.388 395.811 176.756H394.907C394.907 176.193 395.112 175.726 395.522 175.354C395.936 174.98 396.46 174.793 397.095 174.793C397.765 174.793 398.291 174.97 398.672 175.325C399.053 175.68 399.243 176.173 399.243 176.805C399.243 177.114 399.142 177.413 398.94 177.703C398.742 177.993 398.47 178.209 398.125 178.353C398.516 178.476 398.817 178.681 399.028 178.968C399.243 179.254 399.351 179.604 399.351 180.018C399.351 180.656 399.142 181.162 398.726 181.536C398.309 181.91 397.767 182.098 397.1 182.098C396.432 182.098 395.889 181.917 395.469 181.556C395.052 181.194 394.844 180.717 394.844 180.125H395.752C395.752 180.499 395.874 180.799 396.118 181.023C396.362 181.248 396.689 181.36 397.1 181.36C397.536 181.36 397.869 181.246 398.101 181.019C398.332 180.791 398.447 180.464 398.447 180.037C398.447 179.624 398.32 179.306 398.066 179.085C397.812 178.864 397.446 178.75 396.968 178.743H396.289V178.006Z" fill="black"/>
<path d="M384.077 212H383.169V205.979L381.348 206.648V205.828L383.936 204.856H384.077V212ZM389.692 212H388.784V205.979L386.963 206.648V205.828L389.551 204.856H389.692V212ZM392.451 211.526C392.451 211.37 392.497 211.24 392.588 211.136C392.682 211.032 392.822 210.979 393.008 210.979C393.193 210.979 393.333 211.032 393.428 211.136C393.525 211.24 393.574 211.37 393.574 211.526C393.574 211.676 393.525 211.801 393.428 211.902C393.333 212.003 393.193 212.054 393.008 212.054C392.822 212.054 392.682 212.003 392.588 211.902C392.497 211.801 392.451 211.676 392.451 211.526ZM399.434 208.968C399.434 210.026 399.253 210.812 398.892 211.326C398.53 211.84 397.965 212.098 397.197 212.098C396.439 212.098 395.877 211.847 395.513 211.346C395.148 210.841 394.959 210.089 394.946 209.09V207.884C394.946 206.839 395.127 206.062 395.488 205.555C395.85 205.047 396.416 204.793 397.188 204.793C397.952 204.793 398.516 205.039 398.877 205.53C399.238 206.019 399.424 206.774 399.434 207.796V208.968ZM398.53 207.732C398.53 206.967 398.423 206.411 398.208 206.062C397.993 205.711 397.653 205.535 397.188 205.535C396.725 205.535 396.388 205.709 396.177 206.058C395.965 206.406 395.856 206.941 395.85 207.664V209.109C395.85 209.878 395.96 210.446 396.182 210.813C396.406 211.178 396.745 211.36 397.197 211.36C397.643 211.36 397.974 211.188 398.188 210.843C398.407 210.498 398.521 209.954 398.53 209.212V207.732Z" fill="black"/>
<path d="M391.035 236.746C391.035 237.101 390.941 237.417 390.752 237.693C390.566 237.97 390.314 238.187 389.995 238.343C390.366 238.502 390.659 238.735 390.874 239.041C391.092 239.347 391.201 239.694 391.201 240.081C391.201 240.696 390.993 241.186 390.576 241.551C390.163 241.915 389.618 242.098 388.94 242.098C388.257 242.098 387.708 241.915 387.295 241.551C386.885 241.183 386.68 240.693 386.68 240.081C386.68 239.697 386.784 239.35 386.992 239.041C387.204 238.732 387.495 238.497 387.866 238.338C387.55 238.182 387.301 237.965 387.119 237.688C386.937 237.412 386.846 237.098 386.846 236.746C386.846 236.147 387.038 235.672 387.422 235.32C387.806 234.969 388.312 234.793 388.94 234.793C389.565 234.793 390.07 234.969 390.454 235.32C390.841 235.672 391.035 236.147 391.035 236.746ZM390.298 240.062C390.298 239.664 390.171 239.34 389.917 239.09C389.666 238.839 389.338 238.714 388.931 238.714C388.524 238.714 388.197 238.838 387.949 239.085C387.705 239.332 387.583 239.658 387.583 240.062C387.583 240.465 387.702 240.783 387.939 241.014C388.18 241.245 388.514 241.36 388.94 241.36C389.364 241.36 389.696 241.245 389.937 241.014C390.177 240.779 390.298 240.462 390.298 240.062ZM388.94 235.535C388.586 235.535 388.298 235.646 388.076 235.867C387.858 236.085 387.749 236.383 387.749 236.761C387.749 237.122 387.856 237.415 388.071 237.64C388.289 237.861 388.579 237.972 388.94 237.972C389.302 237.972 389.59 237.861 389.805 237.64C390.023 237.415 390.132 237.122 390.132 236.761C390.132 236.399 390.02 236.105 389.795 235.877C389.57 235.649 389.285 235.535 388.94 235.535ZM392.451 241.526C392.451 241.37 392.497 241.24 392.588 241.136C392.682 241.032 392.822 240.979 393.008 240.979C393.193 240.979 393.333 241.032 393.428 241.136C393.525 241.24 393.574 241.37 393.574 241.526C393.574 241.676 393.525 241.801 393.428 241.902C393.333 242.003 393.193 242.054 393.008 242.054C392.822 242.054 392.682 242.003 392.588 241.902C392.497 241.801 392.451 241.676 392.451 241.526ZM399.434 238.968C399.434 240.026 399.253 240.812 398.892 241.326C398.53 241.84 397.965 242.098 397.197 242.098C396.439 242.098 395.877 241.847 395.513 241.346C395.148 240.841 394.959 240.089 394.946 239.09V237.884C394.946 236.839 395.127 236.062 395.488 235.555C395.85 235.047 396.416 234.793 397.188 234.793C397.952 234.793 398.516 235.039 398.877 235.53C399.238 236.019 399.424 236.774 399.434 237.796V238.968ZM398.53 237.732C398.53 236.967 398.423 236.411 398.208 236.062C397.993 235.711 397.653 235.535 397.188 235.535C396.725 235.535 396.388 235.709 396.177 236.058C395.965 236.406 395.856 236.941 395.85 237.664V239.109C395.85 239.878 395.96 240.446 396.182 240.813C396.406 241.178 396.745 241.36 397.197 241.36C397.643 241.36 397.974 241.188 398.188 240.843C398.407 240.498 398.521 239.954 398.53 239.212V237.732Z" fill="black"/>
<path d="M390.264 269.324H391.069V270.462H390.264V272H388.853V270.462H385.938L385.874 269.573L388.838 264.891H390.264V269.324ZM387.28 269.324H388.853V266.814L388.76 266.976L387.28 269.324ZM391.963 271.307C391.963 271.082 392.038 270.9 392.188 270.76C392.34 270.62 392.531 270.55 392.759 270.55C392.99 270.55 393.18 270.62 393.33 270.76C393.483 270.9 393.56 271.082 393.56 271.307C393.56 271.528 393.485 271.709 393.335 271.849C393.185 271.985 392.993 272.054 392.759 272.054C392.528 272.054 392.337 271.985 392.188 271.849C392.038 271.709 391.963 271.528 391.963 271.307ZM396.177 267.82H396.929C397.287 267.82 397.552 267.731 397.725 267.552C397.897 267.373 397.983 267.135 397.983 266.839C397.983 266.552 397.897 266.329 397.725 266.17C397.555 266.01 397.321 265.931 397.021 265.931C396.751 265.931 396.525 266.006 396.343 266.155C396.16 266.302 396.069 266.494 396.069 266.731H394.658C394.658 266.36 394.757 266.028 394.956 265.735C395.158 265.439 395.438 265.208 395.796 265.042C396.157 264.876 396.554 264.793 396.987 264.793C397.739 264.793 398.328 264.974 398.755 265.335C399.181 265.693 399.395 266.188 399.395 266.819C399.395 267.145 399.295 267.444 399.097 267.718C398.898 267.991 398.638 268.201 398.315 268.348C398.716 268.491 399.014 268.706 399.209 268.992C399.408 269.279 399.507 269.617 399.507 270.008C399.507 270.639 399.276 271.146 398.813 271.526C398.354 271.907 397.746 272.098 396.987 272.098C396.278 272.098 395.697 271.91 395.244 271.536C394.795 271.162 394.57 270.667 394.57 270.052H395.981C395.981 270.319 396.081 270.537 396.279 270.706C396.481 270.875 396.729 270.96 397.021 270.96C397.357 270.96 397.619 270.872 397.808 270.696C398 270.517 398.096 270.281 398.096 269.988C398.096 269.279 397.705 268.924 396.924 268.924H396.177V267.82Z" fill="black"/>
<path d="M384.077 62H383.169V55.9795L381.348 56.6484V55.8281L383.936 54.8564H384.077V62ZM391.313 55.3984L388.369 62H387.422L390.356 55.6328H386.509V54.8906H391.313V55.3984ZM392.451 61.5264C392.451 61.3701 392.497 61.2399 392.588 61.1357C392.682 61.0316 392.822 60.9795 393.008 60.9795C393.193 60.9795 393.333 61.0316 393.428 61.1357C393.525 61.2399 393.574 61.3701 393.574 61.5264C393.574 61.6761 393.525 61.8014 393.428 61.9023C393.333 62.0033 393.193 62.0537 393.008 62.0537C392.822 62.0537 392.682 62.0033 392.588 61.9023C392.497 61.8014 392.451 61.6761 392.451 61.5264ZM399.287 56.7461C399.287 57.1009 399.193 57.4167 399.004 57.6934C398.818 57.9701 398.566 58.1865 398.247 58.3428C398.618 58.5023 398.911 58.735 399.126 59.041C399.344 59.347 399.453 59.6937 399.453 60.0811C399.453 60.6963 399.245 61.1862 398.828 61.5508C398.415 61.9154 397.869 62.0977 397.192 62.0977C396.509 62.0977 395.96 61.9154 395.547 61.5508C395.137 61.1829 394.932 60.693 394.932 60.0811C394.932 59.6969 395.036 59.3503 395.244 59.041C395.456 58.7318 395.747 58.4974 396.118 58.3379C395.802 58.1816 395.553 57.9652 395.371 57.6885C395.189 57.4118 395.098 57.0977 395.098 56.7461C395.098 56.1471 395.29 55.6719 395.674 55.3203C396.058 54.9688 396.564 54.793 397.192 54.793C397.817 54.793 398.322 54.9688 398.706 55.3203C399.093 55.6719 399.287 56.1471 399.287 56.7461ZM398.55 60.0615C398.55 59.6644 398.423 59.3405 398.169 59.0898C397.918 58.8392 397.59 58.7139 397.183 58.7139C396.776 58.7139 396.449 58.8376 396.201 59.085C395.957 59.3324 395.835 59.6579 395.835 60.0615C395.835 60.4652 395.954 60.7826 396.191 61.0137C396.432 61.2448 396.766 61.3604 397.192 61.3604C397.616 61.3604 397.948 61.2448 398.188 61.0137C398.429 60.7793 398.55 60.4619 398.55 60.0615ZM397.192 55.5352C396.838 55.5352 396.549 55.6458 396.328 55.8672C396.11 56.0853 396.001 56.3831 396.001 56.7607C396.001 57.1221 396.108 57.415 396.323 57.6396C396.541 57.861 396.831 57.9717 397.192 57.9717C397.554 57.9717 397.842 57.861 398.057 57.6396C398.275 57.415 398.384 57.1221 398.384 56.7607C398.384 56.3994 398.271 56.1048 398.047 55.877C397.822 55.6491 397.537 55.5352 397.192 55.5352Z" fill="black"/>
<path d="M386.299 88.5039L386.709 84.8906H390.693V86.0674H387.866L387.69 87.5957C388.026 87.4167 388.382 87.3271 388.76 87.3271C389.437 87.3271 389.967 87.5371 390.352 87.957C390.736 88.377 390.928 88.9645 390.928 89.7197C390.928 90.1787 390.83 90.5905 390.635 90.9551C390.443 91.3164 390.166 91.598 389.805 91.7998C389.443 91.9984 389.017 92.0977 388.525 92.0977C388.096 92.0977 387.697 92.0114 387.329 91.8389C386.961 91.6631 386.67 91.4173 386.455 91.1016C386.243 90.7858 386.131 90.4261 386.118 90.0225H387.515C387.544 90.3187 387.646 90.5498 387.822 90.7158C388.001 90.8786 388.234 90.96 388.521 90.96C388.84 90.96 389.085 90.846 389.258 90.6182C389.43 90.387 389.517 90.0615 389.517 89.6416C389.517 89.238 389.417 88.9287 389.219 88.7139C389.02 88.499 388.739 88.3916 388.374 88.3916C388.039 88.3916 387.767 88.4795 387.559 88.6553L387.422 88.7822L386.299 88.5039ZM391.963 91.3066C391.963 91.082 392.038 90.8997 392.188 90.7598C392.34 90.6198 392.531 90.5498 392.759 90.5498C392.99 90.5498 393.18 90.6198 393.33 90.7598C393.483 90.8997 393.56 91.082 393.56 91.3066C393.56 91.528 393.485 91.7087 393.335 91.8486C393.185 91.9854 392.993 92.0537 392.759 92.0537C392.528 92.0537 392.337 91.9854 392.188 91.8486C392.038 91.7087 391.963 91.528 391.963 91.3066ZM398.569 84.8174V85.9795H398.433C397.795 85.9893 397.28 86.1553 396.89 86.4775C396.502 86.7998 396.27 87.2474 396.191 87.8203C396.569 87.4362 397.046 87.2441 397.622 87.2441C398.241 87.2441 398.732 87.4655 399.097 87.9082C399.461 88.3509 399.644 88.9336 399.644 89.6562C399.644 90.1185 399.543 90.5368 399.341 90.9111C399.142 91.2855 398.859 91.5768 398.491 91.7852C398.127 91.9935 397.713 92.0977 397.251 92.0977C396.502 92.0977 395.897 91.8372 395.435 91.3164C394.976 90.7956 394.746 90.1006 394.746 89.2314V88.7236C394.746 87.9521 394.891 87.2718 395.181 86.6826C395.474 86.0902 395.892 85.6328 396.436 85.3105C396.982 84.985 397.616 84.8206 398.335 84.8174H398.569ZM397.192 88.377C396.965 88.377 396.758 88.4372 396.572 88.5576C396.387 88.6748 396.25 88.8311 396.162 89.0264V89.4561C396.162 89.9281 396.255 90.2975 396.44 90.5645C396.626 90.8281 396.886 90.96 397.222 90.96C397.524 90.96 397.769 90.8411 397.954 90.6035C398.143 90.3626 398.237 90.0518 398.237 89.6709C398.237 89.2835 398.143 88.971 397.954 88.7334C397.765 88.4958 397.511 88.377 397.192 88.377Z" fill="black"/>
<path d="M384.077 122H383.169V115.979L381.348 116.648V115.828L383.936 114.856H384.077V122ZM388.037 118.006H388.716C389.142 117.999 389.478 117.887 389.722 117.669C389.966 117.451 390.088 117.156 390.088 116.785C390.088 115.952 389.673 115.535 388.843 115.535C388.452 115.535 388.14 115.647 387.905 115.872C387.674 116.093 387.559 116.388 387.559 116.756H386.655C386.655 116.193 386.86 115.726 387.271 115.354C387.684 114.98 388.208 114.793 388.843 114.793C389.513 114.793 390.039 114.97 390.42 115.325C390.801 115.68 390.991 116.173 390.991 116.805C390.991 117.114 390.89 117.413 390.688 117.703C390.49 117.993 390.218 118.209 389.873 118.353C390.264 118.476 390.565 118.681 390.776 118.968C390.991 119.254 391.099 119.604 391.099 120.018C391.099 120.656 390.89 121.162 390.474 121.536C390.057 121.91 389.515 122.098 388.848 122.098C388.18 122.098 387.637 121.917 387.217 121.556C386.8 121.194 386.592 120.717 386.592 120.125H387.5C387.5 120.499 387.622 120.799 387.866 121.023C388.11 121.248 388.438 121.36 388.848 121.36C389.284 121.36 389.618 121.246 389.849 121.019C390.08 120.791 390.195 120.464 390.195 120.037C390.195 119.624 390.068 119.306 389.814 119.085C389.561 118.864 389.194 118.75 388.716 118.743H388.037V118.006ZM392.451 121.526C392.451 121.37 392.497 121.24 392.588 121.136C392.682 121.032 392.822 120.979 393.008 120.979C393.193 120.979 393.333 121.032 393.428 121.136C393.525 121.24 393.574 121.37 393.574 121.526C393.574 121.676 393.525 121.801 393.428 121.902C393.333 122.003 393.193 122.054 393.008 122.054C392.822 122.054 392.682 122.003 392.588 121.902C392.497 121.801 392.451 121.676 392.451 121.526ZM399.287 116.746C399.287 117.101 399.193 117.417 399.004 117.693C398.818 117.97 398.566 118.187 398.247 118.343C398.618 118.502 398.911 118.735 399.126 119.041C399.344 119.347 399.453 119.694 399.453 120.081C399.453 120.696 399.245 121.186 398.828 121.551C398.415 121.915 397.869 122.098 397.192 122.098C396.509 122.098 395.96 121.915 395.547 121.551C395.137 121.183 394.932 120.693 394.932 120.081C394.932 119.697 395.036 119.35 395.244 119.041C395.456 118.732 395.747 118.497 396.118 118.338C395.802 118.182 395.553 117.965 395.371 117.688C395.189 117.412 395.098 117.098 395.098 116.746C395.098 116.147 395.29 115.672 395.674 115.32C396.058 114.969 396.564 114.793 397.192 114.793C397.817 114.793 398.322 114.969 398.706 115.32C399.093 115.672 399.287 116.147 399.287 116.746ZM398.55 120.062C398.55 119.664 398.423 119.34 398.169 119.09C397.918 118.839 397.59 118.714 397.183 118.714C396.776 118.714 396.449 118.838 396.201 119.085C395.957 119.332 395.835 119.658 395.835 120.062C395.835 120.465 395.954 120.783 396.191 121.014C396.432 121.245 396.766 121.36 397.192 121.36C397.616 121.36 397.948 121.245 398.188 121.014C398.429 120.779 398.55 120.462 398.55 120.062ZM397.192 115.535C396.838 115.535 396.549 115.646 396.328 115.867C396.11 116.085 396.001 116.383 396.001 116.761C396.001 117.122 396.108 117.415 396.323 117.64C396.541 117.861 396.831 117.972 397.192 117.972C397.554 117.972 397.842 117.861 398.057 117.64C398.275 117.415 398.384 117.122 398.384 116.761C398.384 116.399 398.271 116.105 398.047 115.877C397.822 115.649 397.537 115.535 397.192 115.535Z" fill="black"/>
<path d="M390.264 149.324H391.069V150.462H390.264V152H388.853V150.462H385.938L385.874 149.573L388.838 144.891H390.264V149.324ZM387.28 149.324H388.853V146.814L388.76 146.976L387.28 149.324ZM391.963 151.307C391.963 151.082 392.038 150.9 392.188 150.76C392.34 150.62 392.531 150.55 392.759 150.55C392.99 150.55 393.18 150.62 393.33 150.76C393.483 150.9 393.56 151.082 393.56 151.307C393.56 151.528 393.485 151.709 393.335 151.849C393.185 151.985 392.993 152.054 392.759 152.054C392.528 152.054 392.337 151.985 392.188 151.849C392.038 151.709 391.963 151.528 391.963 151.307ZM398.916 149.324H399.722V150.462H398.916V152H397.505V150.462H394.59L394.526 149.573L397.49 144.891H398.916V149.324ZM395.933 149.324H397.505V146.814L397.412 146.976L395.933 149.324Z" fill="black"/>
<path d="M84.7461 208.86H81.7627V212H80.8252V204.891H85.2295V205.662H81.7627V208.094H84.7461V208.86ZM88.2959 212.098C87.5798 212.098 86.9971 211.863 86.5479 211.395C86.0986 210.923 85.874 210.293 85.874 209.505V209.339C85.874 208.815 85.9733 208.348 86.1719 207.938C86.3737 207.524 86.6536 207.202 87.0117 206.971C87.373 206.736 87.7637 206.619 88.1836 206.619C88.8704 206.619 89.4043 206.845 89.7852 207.298C90.166 207.75 90.3564 208.398 90.3564 209.241V209.617H86.7773C86.7904 210.138 86.9417 210.56 87.2314 210.882C87.5244 211.201 87.8955 211.36 88.3447 211.36C88.6637 211.36 88.9339 211.295 89.1553 211.165C89.3766 211.035 89.5703 210.862 89.7363 210.647L90.2881 211.077C89.8454 211.757 89.1813 212.098 88.2959 212.098ZM88.1836 207.361C87.819 207.361 87.513 207.495 87.2656 207.762C87.0182 208.025 86.8652 208.396 86.8066 208.875H89.4531V208.807C89.4271 208.348 89.3034 207.993 89.082 207.742C88.8607 207.488 88.5612 207.361 88.1836 207.361ZM92.2559 206.717L92.2803 207.303C92.6676 206.847 93.1901 206.619 93.8477 206.619C94.5866 206.619 95.0895 206.902 95.3564 207.469C95.5322 207.215 95.7601 207.01 96.04 206.854C96.3232 206.697 96.6569 206.619 97.041 206.619C98.1999 206.619 98.7891 207.233 98.8086 208.46V212H97.9053V208.514C97.9053 208.136 97.819 207.854 97.6465 207.669C97.474 207.48 97.1842 207.386 96.7773 207.386C96.4421 207.386 96.1637 207.487 95.9424 207.688C95.721 207.887 95.5924 208.156 95.5566 208.494V212H94.6484V208.538C94.6484 207.77 94.2725 207.386 93.5205 207.386C92.9281 207.386 92.5228 207.638 92.3047 208.143V212H91.4014V206.717H92.2559ZM103.438 212C103.385 211.896 103.343 211.71 103.311 211.443C102.891 211.88 102.389 212.098 101.807 212.098C101.286 212.098 100.858 211.951 100.522 211.658C100.19 211.362 100.024 210.988 100.024 210.535C100.024 209.985 100.233 209.559 100.649 209.256C101.069 208.95 101.659 208.797 102.417 208.797H103.296V208.382C103.296 208.066 103.201 207.815 103.013 207.63C102.824 207.441 102.546 207.347 102.178 207.347C101.855 207.347 101.585 207.428 101.367 207.591C101.149 207.754 101.04 207.951 101.04 208.182H100.132C100.132 207.918 100.225 207.664 100.41 207.42C100.599 207.173 100.853 206.977 101.172 206.834C101.494 206.691 101.847 206.619 102.231 206.619C102.84 206.619 103.317 206.772 103.662 207.078C104.007 207.381 104.186 207.799 104.199 208.333V210.765C104.199 211.25 104.261 211.635 104.385 211.922V212H103.438ZM101.938 211.312C102.222 211.312 102.49 211.238 102.744 211.092C102.998 210.945 103.182 210.755 103.296 210.521V209.437H102.588C101.481 209.437 100.928 209.76 100.928 210.408C100.928 210.691 101.022 210.913 101.211 211.072C101.4 211.232 101.642 211.312 101.938 211.312ZM106.597 212H105.693V204.5H106.597V212ZM110.239 212.098C109.523 212.098 108.94 211.863 108.491 211.395C108.042 210.923 107.817 210.293 107.817 209.505V209.339C107.817 208.815 107.917 208.348 108.115 207.938C108.317 207.524 108.597 207.202 108.955 206.971C109.316 206.736 109.707 206.619 110.127 206.619C110.814 206.619 111.348 206.845 111.729 207.298C112.109 207.75 112.3 208.398 112.3 209.241V209.617H108.721C108.734 210.138 108.885 210.56 109.175 210.882C109.468 211.201 109.839 211.36 110.288 211.36C110.607 211.36 110.877 211.295 111.099 211.165C111.32 211.035 111.514 210.862 111.68 210.647L112.231 211.077C111.789 211.757 111.125 212.098 110.239 212.098ZM110.127 207.361C109.762 207.361 109.456 207.495 109.209 207.762C108.962 208.025 108.809 208.396 108.75 208.875H111.396V208.807C111.37 208.348 111.247 207.993 111.025 207.742C110.804 207.488 110.505 207.361 110.127 207.361ZM115.796 209.114C115.796 208.379 115.894 207.672 116.089 206.995C116.287 206.318 116.582 205.703 116.973 205.149C117.363 204.596 117.769 204.205 118.188 203.978L118.374 204.573C117.899 204.938 117.508 205.494 117.202 206.243C116.899 206.992 116.733 207.83 116.704 208.758L116.699 209.173C116.699 210.429 116.929 211.52 117.388 212.444C117.664 212.998 117.993 213.431 118.374 213.743L118.188 214.295C117.756 214.054 117.342 213.65 116.948 213.084C116.18 211.977 115.796 210.654 115.796 209.114ZM123.813 212H119.155V211.351L121.616 208.616C121.981 208.203 122.231 207.868 122.368 207.61C122.508 207.35 122.578 207.081 122.578 206.805C122.578 206.434 122.466 206.129 122.241 205.892C122.017 205.654 121.717 205.535 121.343 205.535C120.894 205.535 120.544 205.664 120.293 205.921C120.046 206.175 119.922 206.53 119.922 206.985H119.019C119.019 206.331 119.229 205.802 119.648 205.398C120.072 204.995 120.636 204.793 121.343 204.793C122.004 204.793 122.526 204.967 122.91 205.315C123.294 205.66 123.486 206.121 123.486 206.697C123.486 207.397 123.04 208.23 122.148 209.197L120.244 211.263H123.813V212ZM126.948 209.163C126.948 209.889 126.852 210.586 126.66 211.253C126.471 211.917 126.18 212.531 125.786 213.094C125.396 213.657 124.985 214.057 124.556 214.295L124.365 213.743C124.867 213.359 125.269 212.763 125.571 211.956C125.877 211.146 126.034 210.247 126.04 209.261V209.104C126.04 208.421 125.968 207.786 125.825 207.2C125.682 206.611 125.482 206.084 125.225 205.618C124.971 205.153 124.684 204.79 124.365 204.529L124.556 203.978C124.985 204.215 125.394 204.612 125.781 205.169C126.172 205.726 126.463 206.339 126.655 207.01C126.851 207.68 126.948 208.398 126.948 209.163Z" fill="black"/>
<path d="M82.0361 234.891L84.3604 240.691L86.6846 234.891H87.9004V242H86.9629V239.231L87.0508 236.243L84.7168 242H83.999L81.6699 236.258L81.7627 239.231V242H80.8252V234.891H82.0361ZM92.6758 242C92.6237 241.896 92.5814 241.71 92.5488 241.443C92.1289 241.88 91.6276 242.098 91.0449 242.098C90.5241 242.098 90.096 241.951 89.7607 241.658C89.4287 241.362 89.2627 240.988 89.2627 240.535C89.2627 239.985 89.471 239.559 89.8877 239.256C90.3076 238.95 90.8968 238.797 91.6553 238.797H92.5342V238.382C92.5342 238.066 92.4398 237.815 92.251 237.63C92.0622 237.441 91.7839 237.347 91.416 237.347C91.0938 237.347 90.8236 237.428 90.6055 237.591C90.3874 237.754 90.2783 237.951 90.2783 238.182H89.3701C89.3701 237.918 89.4629 237.664 89.6484 237.42C89.8372 237.173 90.0911 236.977 90.4102 236.834C90.7324 236.691 91.0856 236.619 91.4697 236.619C92.0785 236.619 92.5553 236.772 92.9004 237.078C93.2454 237.381 93.4245 237.799 93.4375 238.333V240.765C93.4375 241.25 93.4993 241.635 93.623 241.922V242H92.6758ZM91.1768 241.312C91.46 241.312 91.7285 241.238 91.9824 241.092C92.2363 240.945 92.4202 240.755 92.5342 240.521V239.437H91.8262C90.7194 239.437 90.166 239.76 90.166 240.408C90.166 240.691 90.2604 240.913 90.4492 241.072C90.638 241.232 90.8805 241.312 91.1768 241.312ZM95.835 242H94.9316V234.5H95.835V242ZM99.4775 242.098C98.7614 242.098 98.1787 241.863 97.7295 241.395C97.2803 240.923 97.0557 240.293 97.0557 239.505V239.339C97.0557 238.815 97.1549 238.348 97.3535 237.938C97.5553 237.524 97.8353 237.202 98.1934 236.971C98.5547 236.736 98.9453 236.619 99.3652 236.619C100.052 236.619 100.586 236.845 100.967 237.298C101.348 237.75 101.538 238.398 101.538 239.241V239.617H97.959C97.972 240.138 98.1234 240.56 98.4131 240.882C98.7061 241.201 99.0771 241.36 99.5264 241.36C99.8454 241.36 100.116 241.295 100.337 241.165C100.558 241.035 100.752 240.862 100.918 240.647L101.47 241.077C101.027 241.757 100.363 242.098 99.4775 242.098ZM99.3652 237.361C99.0007 237.361 98.6947 237.495 98.4473 237.762C98.1999 238.025 98.0469 238.396 97.9883 238.875H100.635V238.807C100.609 238.348 100.485 237.993 100.264 237.742C100.042 237.488 99.7428 237.361 99.3652 237.361ZM105.034 239.114C105.034 238.379 105.132 237.672 105.327 236.995C105.526 236.318 105.82 235.703 106.211 235.149C106.602 234.596 107.007 234.205 107.427 233.978L107.612 234.573C107.137 234.938 106.746 235.494 106.44 236.243C106.138 236.992 105.972 237.83 105.942 238.758L105.938 239.173C105.938 240.429 106.167 241.52 106.626 242.444C106.903 242.998 107.231 243.431 107.612 243.743L107.427 244.295C106.994 244.054 106.58 243.65 106.187 243.084C105.418 241.977 105.034 240.654 105.034 239.114ZM109.707 238.006H110.386C110.812 237.999 111.147 237.887 111.392 237.669C111.636 237.451 111.758 237.156 111.758 236.785C111.758 235.952 111.343 235.535 110.513 235.535C110.122 235.535 109.81 235.647 109.575 235.872C109.344 236.093 109.229 236.388 109.229 236.756H108.325C108.325 236.193 108.53 235.726 108.94 235.354C109.354 234.98 109.878 234.793 110.513 234.793C111.183 234.793 111.709 234.97 112.09 235.325C112.471 235.68 112.661 236.173 112.661 236.805C112.661 237.114 112.56 237.413 112.358 237.703C112.16 237.993 111.888 238.209 111.543 238.353C111.934 238.476 112.235 238.681 112.446 238.968C112.661 239.254 112.769 239.604 112.769 240.018C112.769 240.656 112.56 241.162 112.144 241.536C111.727 241.91 111.185 242.098 110.518 242.098C109.85 242.098 109.307 241.917 108.887 241.556C108.47 241.194 108.262 240.717 108.262 240.125H109.17C109.17 240.499 109.292 240.799 109.536 241.023C109.78 241.248 110.107 241.36 110.518 241.36C110.954 241.36 111.287 241.246 111.519 241.019C111.75 240.791 111.865 240.464 111.865 240.037C111.865 239.624 111.738 239.306 111.484 239.085C111.23 238.864 110.864 238.75 110.386 238.743H109.707V238.006ZM116.187 239.163C116.187 239.889 116.09 240.586 115.898 241.253C115.71 241.917 115.418 242.531 115.024 243.094C114.634 243.657 114.224 244.057 113.794 244.295L113.604 243.743C114.105 243.359 114.507 242.763 114.81 241.956C115.116 241.146 115.272 240.247 115.278 239.261V239.104C115.278 238.421 115.207 237.786 115.063 237.2C114.92 236.611 114.72 236.084 114.463 235.618C114.209 235.153 113.923 234.79 113.604 234.529L113.794 233.978C114.224 234.215 114.632 234.612 115.02 235.169C115.41 235.726 115.701 236.339 115.894 237.01C116.089 237.68 116.187 238.398 116.187 239.163Z" fill="black"/>
<path d="M84.9121 269.095H82.0996V272H80.6348V264.891H85.2637V266.077H82.0996V267.913H84.9121V269.095ZM88.3447 272.098C87.57 272.098 86.9385 271.86 86.4502 271.385C85.9652 270.91 85.7227 270.276 85.7227 269.485V269.349C85.7227 268.818 85.8252 268.344 86.0303 267.928C86.2354 267.508 86.5251 267.186 86.8994 266.961C87.277 266.733 87.7067 266.619 88.1885 266.619C88.9111 266.619 89.4792 266.847 89.8926 267.303C90.3092 267.758 90.5176 268.405 90.5176 269.241V269.817H87.1533C87.1989 270.162 87.3356 270.439 87.5635 270.647C87.7946 270.856 88.0859 270.96 88.4375 270.96C88.9811 270.96 89.4059 270.763 89.7119 270.369L90.4053 271.146C90.1937 271.445 89.9072 271.679 89.5459 271.849C89.1846 272.015 88.7842 272.098 88.3447 272.098ZM88.1836 267.762C87.9036 267.762 87.6758 267.856 87.5 268.045C87.3275 268.234 87.2168 268.504 87.168 268.855H89.1309V268.743C89.1243 268.431 89.0397 268.19 88.877 268.021C88.7142 267.848 88.4831 267.762 88.1836 267.762ZM92.6465 266.717L92.6904 267.308C93.0648 266.849 93.571 266.619 94.209 266.619C94.8893 266.619 95.3564 266.888 95.6104 267.425C95.9814 266.888 96.5104 266.619 97.1973 266.619C97.7702 266.619 98.1966 266.787 98.4766 267.122C98.7565 267.454 98.8965 267.955 98.8965 268.626V272H97.4805V268.631C97.4805 268.331 97.4219 268.113 97.3047 267.977C97.1875 267.837 96.9808 267.767 96.6846 267.767C96.2614 267.767 95.9684 267.968 95.8057 268.372L95.8105 272H94.3994V268.636C94.3994 268.33 94.3392 268.108 94.2188 267.972C94.0983 267.835 93.8932 267.767 93.6035 267.767C93.2031 267.767 92.9134 267.933 92.7344 268.265V272H91.3232V266.717H92.6465ZM103.047 272C102.982 271.873 102.935 271.715 102.905 271.526C102.563 271.907 102.119 272.098 101.572 272.098C101.055 272.098 100.625 271.948 100.283 271.648C99.9447 271.349 99.7754 270.971 99.7754 270.516C99.7754 269.956 99.9821 269.526 100.396 269.227C100.812 268.927 101.413 268.776 102.197 268.772H102.847V268.47C102.847 268.226 102.783 268.03 102.656 267.884C102.533 267.737 102.336 267.664 102.065 267.664C101.828 267.664 101.641 267.721 101.504 267.835C101.37 267.949 101.304 268.105 101.304 268.304H99.8926C99.8926 267.998 99.987 267.715 100.176 267.454C100.365 267.194 100.632 266.99 100.977 266.844C101.322 266.694 101.709 266.619 102.139 266.619C102.79 266.619 103.306 266.784 103.687 267.112C104.071 267.438 104.263 267.897 104.263 268.489V270.779C104.266 271.281 104.336 271.66 104.473 271.917V272H103.047ZM101.88 271.019C102.088 271.019 102.28 270.973 102.456 270.882C102.632 270.787 102.762 270.662 102.847 270.506V269.598H102.319C101.613 269.598 101.237 269.842 101.191 270.33L101.187 270.413C101.187 270.589 101.248 270.734 101.372 270.848C101.496 270.962 101.665 271.019 101.88 271.019ZM106.836 272H105.42V264.5H106.836V272ZM110.435 272.098C109.66 272.098 109.028 271.86 108.54 271.385C108.055 270.91 107.812 270.276 107.812 269.485V269.349C107.812 268.818 107.915 268.344 108.12 267.928C108.325 267.508 108.615 267.186 108.989 266.961C109.367 266.733 109.797 266.619 110.278 266.619C111.001 266.619 111.569 266.847 111.982 267.303C112.399 267.758 112.607 268.405 112.607 269.241V269.817H109.243C109.289 270.162 109.425 270.439 109.653 270.647C109.884 270.856 110.176 270.96 110.527 270.96C111.071 270.96 111.496 270.763 111.802 270.369L112.495 271.146C112.284 271.445 111.997 271.679 111.636 271.849C111.274 272.015 110.874 272.098 110.435 272.098ZM110.273 267.762C109.993 267.762 109.766 267.856 109.59 268.045C109.417 268.234 109.307 268.504 109.258 268.855H111.221V268.743C111.214 268.431 111.13 268.19 110.967 268.021C110.804 267.848 110.573 267.762 110.273 267.762ZM115.967 269.109C115.967 268.364 116.066 267.654 116.265 266.98C116.463 266.307 116.756 265.711 117.144 265.193C117.531 264.673 117.951 264.311 118.403 264.109L118.677 264.871C118.201 265.223 117.83 265.766 117.563 266.502C117.297 267.238 117.163 268.097 117.163 269.08V269.231C117.163 270.218 117.295 271.08 117.559 271.819C117.822 272.558 118.195 273.11 118.677 273.475L118.403 274.222C117.961 274.023 117.547 273.672 117.163 273.167C116.782 272.666 116.491 272.086 116.289 271.429C116.087 270.771 115.98 270.084 115.967 269.368V269.109ZM123.188 264.817V265.979H123.052C122.414 265.989 121.899 266.155 121.509 266.478C121.121 266.8 120.889 267.247 120.811 267.82C121.188 267.436 121.665 267.244 122.241 267.244C122.86 267.244 123.351 267.465 123.716 267.908C124.08 268.351 124.263 268.934 124.263 269.656C124.263 270.118 124.162 270.537 123.96 270.911C123.761 271.285 123.478 271.577 123.11 271.785C122.746 271.993 122.332 272.098 121.87 272.098C121.121 272.098 120.516 271.837 120.054 271.316C119.595 270.796 119.365 270.101 119.365 269.231V268.724C119.365 267.952 119.51 267.272 119.8 266.683C120.093 266.09 120.511 265.633 121.055 265.311C121.602 264.985 122.235 264.821 122.954 264.817H123.188ZM121.812 268.377C121.584 268.377 121.377 268.437 121.191 268.558C121.006 268.675 120.869 268.831 120.781 269.026V269.456C120.781 269.928 120.874 270.298 121.06 270.564C121.245 270.828 121.506 270.96 121.841 270.96C122.144 270.96 122.388 270.841 122.573 270.604C122.762 270.363 122.856 270.052 122.856 269.671C122.856 269.284 122.762 268.971 122.573 268.733C122.384 268.496 122.131 268.377 121.812 268.377ZM127.593 269.222C127.593 269.957 127.487 270.665 127.275 271.346C127.064 272.026 126.759 272.627 126.362 273.147C125.965 273.668 125.54 274.026 125.088 274.222L124.814 273.475C125.277 273.126 125.641 272.589 125.908 271.863C126.175 271.137 126.313 270.302 126.323 269.358V269.1C126.323 268.126 126.19 267.269 125.923 266.526C125.659 265.784 125.29 265.228 124.814 264.856L125.088 264.109C125.531 264.301 125.947 264.65 126.338 265.154C126.732 265.659 127.036 266.246 127.251 266.917C127.469 267.588 127.583 268.283 127.593 269.002V269.222Z" fill="black"/>
<path d="M4.91211 238.919H2.09961V240.823H5.40039V242H0.634766V234.891H5.39062V236.077H2.09961V237.771H4.91211V238.919ZM7.49023 236.717L7.53418 237.308C7.90853 236.849 8.41471 236.619 9.05273 236.619C9.73307 236.619 10.2002 236.888 10.4541 237.425C10.8252 236.888 11.3542 236.619 12.041 236.619C12.6139 236.619 13.0404 236.787 13.3203 237.122C13.6003 237.454 13.7402 237.955 13.7402 238.626V242H12.3242V238.631C12.3242 238.331 12.2656 238.113 12.1484 237.977C12.0312 237.837 11.8245 237.767 11.5283 237.767C11.1051 237.767 10.8122 237.968 10.6494 238.372L10.6543 242H9.24316V238.636C9.24316 238.33 9.18294 238.108 9.0625 237.972C8.94206 237.835 8.73698 237.767 8.44727 237.767C8.04688 237.767 7.75716 237.933 7.57812 238.265V242H6.16699V236.717H7.49023ZM19.585 239.407C19.585 240.221 19.3994 240.874 19.0283 241.365C18.6605 241.854 18.1624 242.098 17.5342 242.098C17.0003 242.098 16.569 241.912 16.2402 241.541V244.031H14.8291V236.717H16.1377L16.1865 237.234C16.5283 236.824 16.9743 236.619 17.5244 236.619C18.1755 236.619 18.6816 236.86 19.043 237.342C19.4043 237.824 19.585 238.488 19.585 239.334V239.407ZM18.1738 239.305C18.1738 238.813 18.0859 238.434 17.9102 238.167C17.7376 237.9 17.4854 237.767 17.1533 237.767C16.7106 237.767 16.4062 237.936 16.2402 238.274V240.438C16.4128 240.786 16.7204 240.96 17.1631 240.96C17.8369 240.96 18.1738 240.408 18.1738 239.305ZM21.9531 242H20.5371V234.5H21.9531V242ZM22.9004 239.31C22.9004 238.785 23.0013 238.318 23.2031 237.908C23.4049 237.498 23.6947 237.181 24.0723 236.956C24.4531 236.731 24.8942 236.619 25.3955 236.619C26.1084 236.619 26.6895 236.837 27.1387 237.273C27.5911 237.71 27.8434 238.302 27.8955 239.051L27.9053 239.412C27.9053 240.223 27.679 240.874 27.2266 241.365C26.7741 241.854 26.167 242.098 25.4053 242.098C24.6436 242.098 24.0348 241.854 23.5791 241.365C23.1266 240.877 22.9004 240.213 22.9004 239.373V239.31ZM24.3115 239.412C24.3115 239.913 24.4059 240.298 24.5947 240.564C24.7835 240.828 25.0537 240.96 25.4053 240.96C25.7471 240.96 26.014 240.83 26.2061 240.569C26.3981 240.306 26.4941 239.886 26.4941 239.31C26.4941 238.818 26.3981 238.437 26.2061 238.167C26.014 237.897 25.7438 237.762 25.3955 237.762C25.0505 237.762 24.7835 237.897 24.5947 238.167C24.4059 238.434 24.3115 238.849 24.3115 239.412ZM30.6689 240.003L31.6455 236.717H33.1592L31.0352 242.82L30.918 243.099C30.6022 243.789 30.0814 244.134 29.3555 244.134C29.1504 244.134 28.9421 244.103 28.7305 244.041V242.972L28.9453 242.977C29.2122 242.977 29.4108 242.936 29.541 242.854C29.6745 242.773 29.7786 242.638 29.8535 242.449L30.0195 242.015L28.1689 236.717H29.6875L30.6689 240.003ZM36.0791 242.098C35.3044 242.098 34.6729 241.86 34.1846 241.385C33.6995 240.91 33.457 240.276 33.457 239.485V239.349C33.457 238.818 33.5596 238.344 33.7646 237.928C33.9697 237.508 34.2594 237.186 34.6338 236.961C35.0114 236.733 35.4411 236.619 35.9229 236.619C36.6455 236.619 37.2135 236.847 37.627 237.303C38.0436 237.758 38.252 238.405 38.252 239.241V239.817H34.8877C34.9333 240.162 35.07 240.439 35.2979 240.647C35.529 240.856 35.8203 240.96 36.1719 240.96C36.7155 240.96 37.1403 240.763 37.4463 240.369L38.1396 241.146C37.9281 241.445 37.6416 241.679 37.2803 241.849C36.9189 242.015 36.5186 242.098 36.0791 242.098ZM35.918 237.762C35.638 237.762 35.4102 237.856 35.2344 238.045C35.0618 238.234 34.9512 238.504 34.9023 238.855H36.8652V238.743C36.8587 238.431 36.7741 238.19 36.6113 238.021C36.4486 237.848 36.2174 237.762 35.918 237.762ZM38.8379 239.319C38.8379 238.496 39.0218 237.84 39.3896 237.352C39.7607 236.863 40.2669 236.619 40.9082 236.619C41.4225 236.619 41.8473 236.811 42.1826 237.195V234.5H43.5986V242H42.3242L42.2559 241.438C41.9043 241.878 41.4518 242.098 40.8984 242.098C40.2767 242.098 39.777 241.854 39.3994 241.365C39.0251 240.874 38.8379 240.192 38.8379 239.319ZM40.249 239.422C40.249 239.917 40.3353 240.296 40.5078 240.56C40.6803 240.823 40.931 240.955 41.2598 240.955C41.696 240.955 42.0036 240.771 42.1826 240.403V238.318C42.0068 237.951 41.7025 237.767 41.2695 237.767C40.5892 237.767 40.249 238.318 40.249 239.422Z" fill="black"/>
<line y1="43.5" x2="400" y2="43.5" stroke="black"/>
<line x1="80" y1="193.5" x2="400" y2="193.5" stroke="black"/>
<line y1="223.5" x2="400" y2="223.5" stroke="black"/>
<line x1="80" y1="253.5" x2="400" y2="253.5" stroke="black"/>
<line x1="80" y1="73.5" x2="400" y2="73.5" stroke="black"/>
<path d="M82.0361 114.891L84.3604 120.691L86.6846 114.891H87.9004V122H86.9629V119.231L87.0508 116.243L84.7168 122H83.999L81.6699 116.258L81.7627 119.231V122H80.8252V114.891H82.0361ZM92.6758 122C92.6237 121.896 92.5814 121.71 92.5488 121.443C92.1289 121.88 91.6276 122.098 91.0449 122.098C90.5241 122.098 90.096 121.951 89.7607 121.658C89.4287 121.362 89.2627 120.988 89.2627 120.535C89.2627 119.985 89.471 119.559 89.8877 119.256C90.3076 118.95 90.8968 118.797 91.6553 118.797H92.5342V118.382C92.5342 118.066 92.4398 117.815 92.251 117.63C92.0622 117.441 91.7839 117.347 91.416 117.347C91.0938 117.347 90.8236 117.428 90.6055 117.591C90.3874 117.754 90.2783 117.951 90.2783 118.182H89.3701C89.3701 117.918 89.4629 117.664 89.6484 117.42C89.8372 117.173 90.0911 116.977 90.4102 116.834C90.7324 116.691 91.0856 116.619 91.4697 116.619C92.0785 116.619 92.5553 116.772 92.9004 117.078C93.2454 117.381 93.4245 117.799 93.4375 118.333V120.765C93.4375 121.25 93.4993 121.635 93.623 121.922V122H92.6758ZM91.1768 121.312C91.46 121.312 91.7285 121.238 91.9824 121.092C92.2363 120.945 92.4202 120.755 92.5342 120.521V119.437H91.8262C90.7194 119.437 90.166 119.76 90.166 120.408C90.166 120.691 90.2604 120.913 90.4492 121.072C90.638 121.232 90.8805 121.312 91.1768 121.312ZM95.835 122H94.9316V114.5H95.835V122ZM99.4775 122.098C98.7614 122.098 98.1787 121.863 97.7295 121.395C97.2803 120.923 97.0557 120.293 97.0557 119.505V119.339C97.0557 118.815 97.1549 118.348 97.3535 117.938C97.5553 117.524 97.8353 117.202 98.1934 116.971C98.5547 116.736 98.9453 116.619 99.3652 116.619C100.052 116.619 100.586 116.845 100.967 117.298C101.348 117.75 101.538 118.398 101.538 119.241V119.617H97.959C97.972 120.138 98.1234 120.56 98.4131 120.882C98.7061 121.201 99.0771 121.36 99.5264 121.36C99.8454 121.36 100.116 121.295 100.337 121.165C100.558 121.035 100.752 120.862 100.918 120.647L101.47 121.077C101.027 121.757 100.363 122.098 99.4775 122.098ZM99.3652 117.361C99.0007 117.361 98.6947 117.495 98.4473 117.762C98.1999 118.025 98.0469 118.396 97.9883 118.875H100.635V118.807C100.609 118.348 100.485 117.993 100.264 117.742C100.042 117.488 99.7428 117.361 99.3652 117.361ZM105.034 119.114C105.034 118.379 105.132 117.672 105.327 116.995C105.526 116.318 105.82 115.703 106.211 115.149C106.602 114.596 107.007 114.205 107.427 113.978L107.612 114.573C107.137 114.938 106.746 115.494 106.44 116.243C106.138 116.992 105.972 117.83 105.942 118.758L105.938 119.173C105.938 120.429 106.167 121.52 106.626 122.444C106.903 122.998 107.231 123.431 107.612 123.743L107.427 124.295C106.994 124.054 106.58 123.65 106.187 123.084C105.418 121.977 105.034 120.654 105.034 119.114ZM112.705 116.746C112.705 117.101 112.611 117.417 112.422 117.693C112.236 117.97 111.984 118.187 111.665 118.343C112.036 118.502 112.329 118.735 112.544 119.041C112.762 119.347 112.871 119.694 112.871 120.081C112.871 120.696 112.663 121.186 112.246 121.551C111.833 121.915 111.287 122.098 110.61 122.098C109.927 122.098 109.378 121.915 108.965 121.551C108.555 121.183 108.35 120.693 108.35 120.081C108.35 119.697 108.454 119.35 108.662 119.041C108.874 118.732 109.165 118.497 109.536 118.338C109.22 118.182 108.971 117.965 108.789 117.688C108.607 117.412 108.516 117.098 108.516 116.746C108.516 116.147 108.708 115.672 109.092 115.32C109.476 114.969 109.982 114.793 110.61 114.793C111.235 114.793 111.74 114.969 112.124 115.32C112.511 115.672 112.705 116.147 112.705 116.746ZM111.968 120.062C111.968 119.664 111.841 119.34 111.587 119.09C111.336 118.839 111.007 118.714 110.601 118.714C110.194 118.714 109.867 118.838 109.619 119.085C109.375 119.332 109.253 119.658 109.253 120.062C109.253 120.465 109.372 120.783 109.609 121.014C109.85 121.245 110.184 121.36 110.61 121.36C111.034 121.36 111.366 121.245 111.606 121.014C111.847 120.779 111.968 120.462 111.968 120.062ZM110.61 115.535C110.256 115.535 109.967 115.646 109.746 115.867C109.528 116.085 109.419 116.383 109.419 116.761C109.419 117.122 109.526 117.415 109.741 117.64C109.959 117.861 110.249 117.972 110.61 117.972C110.972 117.972 111.26 117.861 111.475 117.64C111.693 117.415 111.802 117.122 111.802 116.761C111.802 116.399 111.689 116.105 111.465 115.877C111.24 115.649 110.955 115.535 110.61 115.535ZM116.187 119.163C116.187 119.889 116.09 120.586 115.898 121.253C115.71 121.917 115.418 122.531 115.024 123.094C114.634 123.657 114.224 124.057 113.794 124.295L113.604 123.743C114.105 123.359 114.507 122.763 114.81 121.956C115.116 121.146 115.272 120.247 115.278 119.261V119.104C115.278 118.421 115.207 117.786 115.063 117.2C114.92 116.611 114.72 116.084 114.463 115.618C114.209 115.153 113.923 114.79 113.604 114.529L113.794 113.978C114.224 114.215 114.632 114.612 115.02 115.169C115.41 115.726 115.701 116.339 115.894 117.01C116.089 117.68 116.187 118.398 116.187 119.163Z" fill="black"/>
<path d="M84.9121 149.095H82.0996V152H80.6348V144.891H85.2637V146.077H82.0996V147.913H84.9121V149.095ZM88.3447 152.098C87.57 152.098 86.9385 151.86 86.4502 151.385C85.9652 150.91 85.7227 150.276 85.7227 149.485V149.349C85.7227 148.818 85.8252 148.344 86.0303 147.928C86.2354 147.508 86.5251 147.186 86.8994 146.961C87.277 146.733 87.7067 146.619 88.1885 146.619C88.9111 146.619 89.4792 146.847 89.8926 147.303C90.3092 147.758 90.5176 148.405 90.5176 149.241V149.817H87.1533C87.1989 150.162 87.3356 150.439 87.5635 150.647C87.7946 150.856 88.0859 150.96 88.4375 150.96C88.9811 150.96 89.4059 150.763 89.7119 150.369L90.4053 151.146C90.1937 151.445 89.9072 151.679 89.5459 151.849C89.1846 152.015 88.7842 152.098 88.3447 152.098ZM88.1836 147.762C87.9036 147.762 87.6758 147.856 87.5 148.045C87.3275 148.234 87.2168 148.504 87.168 148.855H89.1309V148.743C89.1243 148.431 89.0397 148.19 88.877 148.021C88.7142 147.848 88.4831 147.762 88.1836 147.762ZM92.6465 146.717L92.6904 147.308C93.0648 146.849 93.571 146.619 94.209 146.619C94.8893 146.619 95.3564 146.888 95.6104 147.425C95.9814 146.888 96.5104 146.619 97.1973 146.619C97.7702 146.619 98.1966 146.787 98.4766 147.122C98.7565 147.454 98.8965 147.955 98.8965 148.626V152H97.4805V148.631C97.4805 148.331 97.4219 148.113 97.3047 147.977C97.1875 147.837 96.9808 147.767 96.6846 147.767C96.2614 147.767 95.9684 147.968 95.8057 148.372L95.8105 152H94.3994V148.636C94.3994 148.33 94.3392 148.108 94.2188 147.972C94.0983 147.835 93.8932 147.767 93.6035 147.767C93.2031 147.767 92.9134 147.933 92.7344 148.265V152H91.3232V146.717H92.6465ZM103.047 152C102.982 151.873 102.935 151.715 102.905 151.526C102.563 151.907 102.119 152.098 101.572 152.098C101.055 152.098 100.625 151.948 100.283 151.648C99.9447 151.349 99.7754 150.971 99.7754 150.516C99.7754 149.956 99.9821 149.526 100.396 149.227C100.812 148.927 101.413 148.776 102.197 148.772H102.847V148.47C102.847 148.226 102.783 148.03 102.656 147.884C102.533 147.737 102.336 147.664 102.065 147.664C101.828 147.664 101.641 147.721 101.504 147.835C101.37 147.949 101.304 148.105 101.304 148.304H99.8926C99.8926 147.998 99.987 147.715 100.176 147.454C100.365 147.194 100.632 146.99 100.977 146.844C101.322 146.694 101.709 146.619 102.139 146.619C102.79 146.619 103.306 146.784 103.687 147.112C104.071 147.438 104.263 147.897 104.263 148.489V150.779C104.266 151.281 104.336 151.66 104.473 151.917V152H103.047ZM101.88 151.019C102.088 151.019 102.28 150.973 102.456 150.882C102.632 150.787 102.762 150.662 102.847 150.506V149.598H102.319C101.613 149.598 101.237 149.842 101.191 150.33L101.187 150.413C101.187 150.589 101.248 150.734 101.372 150.848C101.496 150.962 101.665 151.019 101.88 151.019ZM106.836 152H105.42V144.5H106.836V152ZM110.435 152.098C109.66 152.098 109.028 151.86 108.54 151.385C108.055 150.91 107.812 150.276 107.812 149.485V149.349C107.812 148.818 107.915 148.344 108.12 147.928C108.325 147.508 108.615 147.186 108.989 146.961C109.367 146.733 109.797 146.619 110.278 146.619C111.001 146.619 111.569 146.847 111.982 147.303C112.399 147.758 112.607 148.405 112.607 149.241V149.817H109.243C109.289 150.162 109.425 150.439 109.653 150.647C109.884 150.856 110.176 150.96 110.527 150.96C111.071 150.96 111.496 150.763 111.802 150.369L112.495 151.146C112.284 151.445 111.997 151.679 111.636 151.849C111.274 152.015 110.874 152.098 110.435 152.098ZM110.273 147.762C109.993 147.762 109.766 147.856 109.59 148.045C109.417 148.234 109.307 148.504 109.258 148.855H111.221V148.743C111.214 148.431 111.13 148.19 110.967 148.021C110.804 147.848 110.573 147.762 110.273 147.762ZM115.967 149.109C115.967 148.364 116.066 147.654 116.265 146.98C116.463 146.307 116.756 145.711 117.144 145.193C117.531 144.673 117.951 144.311 118.403 144.109L118.677 144.871C118.201 145.223 117.83 145.766 117.563 146.502C117.297 147.238 117.163 148.097 117.163 149.08V149.231C117.163 150.218 117.295 151.08 117.559 151.819C117.822 152.558 118.195 153.11 118.677 153.475L118.403 154.222C117.961 154.023 117.547 153.672 117.163 153.167C116.782 152.666 116.491 152.086 116.289 151.429C116.087 150.771 115.98 150.084 115.967 149.368V149.109ZM122.788 152H121.377V146.561L119.692 147.083V145.936L122.637 144.881H122.788V152ZM128.53 152H127.119V146.561L125.435 147.083V145.936L128.379 144.881H128.53V152ZM133.335 149.222C133.335 149.957 133.229 150.665 133.018 151.346C132.806 152.026 132.502 152.627 132.104 153.147C131.707 153.668 131.283 154.026 130.83 154.222L130.557 153.475C131.019 153.126 131.383 152.589 131.65 151.863C131.917 151.137 132.056 150.302 132.065 149.358V149.1C132.065 148.126 131.932 147.269 131.665 146.526C131.401 145.784 131.032 145.228 130.557 144.856L130.83 144.109C131.273 144.301 131.689 144.65 132.08 145.154C132.474 145.659 132.778 146.246 132.993 146.917C133.211 147.588 133.325 148.283 133.335 149.002V149.222Z" fill="black"/>
<line x1="80" y1="133.5" x2="400" y2="133.5" stroke="black"/>
<line y1="163.5" x2="400" y2="163.5" stroke="black"/>
<line x1="80" y1="103.5" x2="400" y2="103.5" stroke="black"/>
<path d="M174.434 33.9678C174.434 35.0257 174.253 35.8118 173.892 36.3262C173.53 36.8405 172.965 37.0977 172.197 37.0977C171.439 37.0977 170.877 36.847 170.513 36.3457C170.148 35.8411 169.959 35.0892 169.946 34.0898V32.8838C169.946 31.8389 170.127 31.0625 170.488 30.5547C170.85 30.0469 171.416 29.793 172.188 29.793C172.952 29.793 173.516 30.0387 173.877 30.5303C174.238 31.0186 174.424 31.7738 174.434 32.7959V33.9678ZM173.53 32.7324C173.53 31.9674 173.423 31.4108 173.208 31.0625C172.993 30.7109 172.653 30.5352 172.188 30.5352C171.725 30.5352 171.388 30.7093 171.177 31.0576C170.965 31.4059 170.856 31.9414 170.85 32.6641V34.1094C170.85 34.8776 170.96 35.4456 171.182 35.8135C171.406 36.1781 171.745 36.3604 172.197 36.3604C172.643 36.3604 172.974 36.1878 173.188 35.8428C173.407 35.4977 173.521 34.9541 173.53 34.2119V32.7324Z" fill="black"/>
<path d="M349.019 37H344.36V36.3506L346.821 33.6162C347.186 33.2028 347.437 32.8675 347.573 32.6104C347.713 32.3499 347.783 32.0814 347.783 31.8047C347.783 31.4336 347.671 31.1292 347.446 30.8916C347.222 30.654 346.922 30.5352 346.548 30.5352C346.099 30.5352 345.749 30.6637 345.498 30.9209C345.251 31.1748 345.127 31.5296 345.127 31.9854H344.224C344.224 31.3311 344.434 30.8021 344.854 30.3984C345.277 29.9948 345.841 29.793 346.548 29.793C347.209 29.793 347.731 29.9671 348.115 30.3154C348.499 30.6605 348.691 31.1211 348.691 31.6973C348.691 32.3971 348.245 33.2305 347.354 34.1973L345.449 36.2627H349.019V37ZM354.434 33.9678C354.434 35.0257 354.253 35.8118 353.892 36.3262C353.53 36.8405 352.965 37.0977 352.197 37.0977C351.439 37.0977 350.877 36.847 350.513 36.3457C350.148 35.8411 349.959 35.0892 349.946 34.0898V32.8838C349.946 31.8389 350.127 31.0625 350.488 30.5547C350.85 30.0469 351.416 29.793 352.188 29.793C352.952 29.793 353.516 30.0387 353.877 30.5303C354.238 31.0186 354.424 31.7738 354.434 32.7959V33.9678ZM353.53 32.7324C353.53 31.9674 353.423 31.4108 353.208 31.0625C352.993 30.7109 352.653 30.5352 352.188 30.5352C351.725 30.5352 351.388 30.7093 351.177 31.0576C350.965 31.4059 350.856 31.9414 350.85 32.6641V34.1094C350.85 34.8776 350.96 35.4456 351.182 35.8135C351.406 36.1781 351.745 36.3604 352.197 36.3604C352.643 36.3604 352.974 36.1878 353.188 35.8428C353.407 35.4977 353.521 34.9541 353.53 34.2119V32.7324Z" fill="black"/>
<line x1="354.5" y1="40" x2="354.5" y2="44" stroke="black"/>
<path d="M302.329 37H301.421V30.9795L299.6 31.6484V30.8281L302.188 29.8564H302.329V37ZM305.391 33.4355L305.752 29.8906H309.395V30.7256H306.519L306.304 32.6641C306.652 32.459 307.048 32.3564 307.49 32.3564C308.138 32.3564 308.652 32.5713 309.033 33.001C309.414 33.4274 309.604 34.0052 309.604 34.7344C309.604 35.4668 309.406 36.0446 309.009 36.4678C308.615 36.8877 308.063 37.0977 307.354 37.0977C306.725 37.0977 306.213 36.9235 305.815 36.5752C305.418 36.2269 305.192 35.7451 305.137 35.1299H305.991C306.047 35.5368 306.191 35.8444 306.426 36.0527C306.66 36.2578 306.969 36.3604 307.354 36.3604C307.773 36.3604 308.102 36.2171 308.34 35.9307C308.581 35.6442 308.701 35.2487 308.701 34.7441C308.701 34.2689 308.571 33.888 308.311 33.6016C308.053 33.3118 307.71 33.167 307.28 33.167C306.886 33.167 306.577 33.2533 306.353 33.4258L306.113 33.6211L305.391 33.4355Z" fill="black"/>
<line x1="309.5" y1="40" x2="309.5" y2="44" stroke="black"/>
<path d="M394.019 37H389.36V36.3506L391.821 33.6162C392.186 33.2028 392.437 32.8675 392.573 32.6104C392.713 32.3499 392.783 32.0814 392.783 31.8047C392.783 31.4336 392.671 31.1292 392.446 30.8916C392.222 30.654 391.922 30.5352 391.548 30.5352C391.099 30.5352 390.749 30.6637 390.498 30.9209C390.251 31.1748 390.127 31.5296 390.127 31.9854H389.224C389.224 31.3311 389.434 30.8021 389.854 30.3984C390.277 29.9948 390.841 29.793 391.548 29.793C392.209 29.793 392.731 29.9671 393.115 30.3154C393.499 30.6605 393.691 31.1211 393.691 31.6973C393.691 32.3971 393.245 33.2305 392.354 34.1973L390.449 36.2627H394.019V37ZM395.391 33.4355L395.752 29.8906H399.395V30.7256H396.519L396.304 32.6641C396.652 32.459 397.048 32.3564 397.49 32.3564C398.138 32.3564 398.652 32.5713 399.033 33.001C399.414 33.4274 399.604 34.0052 399.604 34.7344C399.604 35.4668 399.406 36.0446 399.009 36.4678C398.615 36.8877 398.063 37.0977 397.354 37.0977C396.725 37.0977 396.213 36.9235 395.815 36.5752C395.418 36.2269 395.192 35.7451 395.137 35.1299H395.991C396.047 35.5368 396.191 35.8444 396.426 36.0527C396.66 36.2578 396.969 36.3604 397.354 36.3604C397.773 36.3604 398.102 36.2171 398.34 35.9307C398.581 35.6442 398.701 35.2487 398.701 34.7441C398.701 34.2689 398.571 33.888 398.311 33.6016C398.053 33.3118 397.71 33.167 397.28 33.167C396.886 33.167 396.577 33.2533 396.353 33.4258L396.113 33.6211L395.391 33.4355Z" fill="black"/>
<line x1="399.5" y1="40" x2="399.5" y2="44" stroke="black"/>
<line x1="174.5" y1="40" x2="174.5" y2="44" stroke="black"/>
<path d="M257.329 37H256.421V30.9795L254.6 31.6484V30.8281L257.188 29.8564H257.329V37ZM264.434 33.9678C264.434 35.0257 264.253 35.8118 263.892 36.3262C263.53 36.8405 262.965 37.0977 262.197 37.0977C261.439 37.0977 260.877 36.847 260.513 36.3457C260.148 35.8411 259.959 35.0892 259.946 34.0898V32.8838C259.946 31.8389 260.127 31.0625 260.488 30.5547C260.85 30.0469 261.416 29.793 262.188 29.793C262.952 29.793 263.516 30.0387 263.877 30.5303C264.238 31.0186 264.424 31.7738 264.434 32.7959V33.9678ZM263.53 32.7324C263.53 31.9674 263.423 31.4108 263.208 31.0625C262.993 30.7109 262.653 30.5352 262.188 30.5352C261.725 30.5352 261.388 30.7093 261.177 31.0576C260.965 31.4059 260.856 31.9414 260.85 32.6641V34.1094C260.85 34.8776 260.96 35.4456 261.182 35.8135C261.406 36.1781 261.745 36.3604 262.197 36.3604C262.643 36.3604 262.974 36.1878 263.188 35.8428C263.407 35.4977 263.521 34.9541 263.53 34.2119V32.7324Z" fill="black"/>
<line x1="264.5" y1="40" x2="264.5" y2="44" stroke="black"/>
<path d="M215.391 33.4355L215.752 29.8906H219.395V30.7256H216.519L216.304 32.6641C216.652 32.459 217.048 32.3564 217.49 32.3564C218.138 32.3564 218.652 32.5713 219.033 33.001C219.414 33.4274 219.604 34.0052 219.604 34.7344C219.604 35.4668 219.406 36.0446 219.009 36.4678C218.615 36.8877 218.063 37.0977 217.354 37.0977C216.725 37.0977 216.213 36.9235 215.815 36.5752C215.418 36.2269 215.192 35.7451 215.137 35.1299H215.991C216.047 35.5368 216.191 35.8444 216.426 36.0527C216.66 36.2578 216.969 36.3604 217.354 36.3604C217.773 36.3604 218.102 36.2171 218.34 35.9307C218.581 35.6442 218.701 35.2487 218.701 34.7441C218.701 34.2689 218.571 33.888 218.311 33.6016C218.053 33.3118 217.71 33.167 217.28 33.167C216.886 33.167 216.577 33.2533 216.353 33.4258L216.113 33.6211L215.391 33.4355Z" fill="black"/>
<line x1="219.5" y1="40" x2="219.5" y2="44" stroke="black"/>
<rect x="174" y="172" width="191.7" height="14" fill="#C4C4C4"/>
<rect x="174" y="202" width="99" height="14" fill="#C4C4C4"/>
<rect x="174" y="232" width="72" height="14" fill="#C4C4C4"/>
<rect x="174" y="262" width="38.7" height="14" fill="#FF6F6F"/>
<rect x="174" y="52" width="160.2" height="14" fill="#C4C4C4"/>
<rect x="174" y="82" width="50.4" height="14" fill="#FF6F6F"/>
<rect x="174" y="112" width="124.2" height="14" fill="#C4C4C4"/>
<rect x="174" y="142" width="39.6" height="14" fill="#FF6F6F"/>
<path d="M5.57812 9.24219H2.49609L1.91016 11H0.0410156L3.2168 2.46875H4.8457L8.03906 11H6.16992L5.57812 9.24219ZM2.9707 7.81836H5.10352L4.03125 4.625L2.9707 7.81836ZM10.8047 8.93164L11.9824 4.66016H13.752L11.6133 11H9.99609L7.85742 4.66016H9.62695L10.8047 8.93164ZM17.3379 11.1172C16.4082 11.1172 15.6504 10.832 15.0645 10.2617C14.4824 9.69141 14.1914 8.93164 14.1914 7.98242V7.81836C14.1914 7.18164 14.3145 6.61328 14.5605 6.11328C14.8066 5.60938 15.1543 5.22266 15.6035 4.95312C16.0566 4.67969 16.5723 4.54297 17.1504 4.54297C18.0176 4.54297 18.6992 4.81641 19.1953 5.36328C19.6953 5.91016 19.9453 6.68555 19.9453 7.68945V8.38086H15.9082C15.9629 8.79492 16.127 9.12695 16.4004 9.37695C16.6777 9.62695 17.0273 9.75195 17.4492 9.75195C18.1016 9.75195 18.6113 9.51562 18.9785 9.04297L19.8105 9.97461C19.5566 10.334 19.2129 10.6152 18.7793 10.8184C18.3457 11.0176 17.8652 11.1172 17.3379 11.1172ZM17.1445 5.91406C16.8086 5.91406 16.5352 6.02734 16.3242 6.25391C16.1172 6.48047 15.9844 6.80469 15.9258 7.22656H18.2812V7.0918C18.2734 6.7168 18.1719 6.42773 17.9766 6.22461C17.7812 6.01758 17.5039 5.91406 17.1445 5.91406ZM24.4746 6.24805C24.2441 6.2168 24.041 6.20117 23.8652 6.20117C23.2246 6.20117 22.8047 6.41797 22.6055 6.85156V11H20.9121V4.66016H22.5117L22.5586 5.41602C22.8984 4.83398 23.3691 4.54297 23.9707 4.54297C24.1582 4.54297 24.334 4.56836 24.498 4.61914L24.4746 6.24805ZM28.793 11C28.7148 10.8477 28.6582 10.6582 28.623 10.4316C28.2129 10.8887 27.6797 11.1172 27.0234 11.1172C26.4023 11.1172 25.8867 10.9375 25.4766 10.5781C25.0703 10.2188 24.8672 9.76562 24.8672 9.21875C24.8672 8.54688 25.1152 8.03125 25.6113 7.67188C26.1113 7.3125 26.832 7.13086 27.7734 7.12695H28.5527V6.76367C28.5527 6.4707 28.4766 6.23633 28.3242 6.06055C28.1758 5.88477 27.9395 5.79688 27.6152 5.79688C27.3301 5.79688 27.1055 5.86523 26.9414 6.00195C26.7812 6.13867 26.7012 6.32617 26.7012 6.56445H25.0078C25.0078 6.19727 25.1211 5.85742 25.3477 5.54492C25.5742 5.23242 25.8945 4.98828 26.3086 4.8125C26.7227 4.63281 27.1875 4.54297 27.7031 4.54297C28.4844 4.54297 29.1035 4.74023 29.5605 5.13477C30.0215 5.52539 30.252 6.07617 30.252 6.78711V9.53516C30.2559 10.1367 30.3398 10.5918 30.5039 10.9004V11H28.793ZM27.3926 9.82227C27.6426 9.82227 27.873 9.76758 28.084 9.6582C28.2949 9.54492 28.4512 9.39453 28.5527 9.20703V8.11719H27.9199C27.0723 8.11719 26.6211 8.41016 26.5664 8.99609L26.5605 9.0957C26.5605 9.30664 26.6348 9.48047 26.7832 9.61719C26.9316 9.75391 27.1348 9.82227 27.3926 9.82227ZM31.3066 7.7832C31.3066 6.81055 31.5371 6.02734 31.998 5.43359C32.4629 4.83984 33.0879 4.54297 33.873 4.54297C34.5684 4.54297 35.1094 4.78125 35.4961 5.25781L35.5664 4.66016H37.1016V10.7891C37.1016 11.3438 36.9746 11.8262 36.7207 12.2363C36.4707 12.6465 36.1172 12.959 35.6602 13.1738C35.2031 13.3887 34.668 13.4961 34.0547 13.4961C33.5898 13.4961 33.1367 13.4023 32.6953 13.2148C32.2539 13.0312 31.9199 12.793 31.6934 12.5L32.4434 11.4688C32.8652 11.9414 33.377 12.1777 33.9785 12.1777C34.4277 12.1777 34.7773 12.0566 35.0273 11.8145C35.2773 11.5762 35.4023 11.2363 35.4023 10.7949V10.4551C35.0117 10.8965 34.498 11.1172 33.8613 11.1172C33.0996 11.1172 32.4824 10.8203 32.0098 10.2266C31.541 9.62891 31.3066 8.83789 31.3066 7.85352V7.7832ZM33 7.90625C33 8.48047 33.1152 8.93164 33.3457 9.25977C33.5762 9.58398 33.8926 9.74609 34.2949 9.74609C34.8105 9.74609 35.1797 9.55273 35.4023 9.16602V6.5C35.1758 6.11328 34.8105 5.91992 34.3066 5.91992C33.9004 5.91992 33.5801 6.08594 33.3457 6.41797C33.1152 6.75 33 7.24609 33 7.90625ZM41.3262 11.1172C40.3965 11.1172 39.6387 10.832 39.0527 10.2617C38.4707 9.69141 38.1797 8.93164 38.1797 7.98242V7.81836C38.1797 7.18164 38.3027 6.61328 38.5488 6.11328C38.7949 5.60938 39.1426 5.22266 39.5918 4.95312C40.0449 4.67969 40.5605 4.54297 41.1387 4.54297C42.0059 4.54297 42.6875 4.81641 43.1836 5.36328C43.6836 5.91016 43.9336 6.68555 43.9336 7.68945V8.38086H39.8965C39.9512 8.79492 40.1152 9.12695 40.3887 9.37695C40.666 9.62695 41.0156 9.75195 41.4375 9.75195C42.0898 9.75195 42.5996 9.51562 42.9668 9.04297L43.7988 9.97461C43.5449 10.334 43.2012 10.6152 42.7676 10.8184C42.334 11.0176 41.8535 11.1172 41.3262 11.1172ZM41.1328 5.91406C40.7969 5.91406 40.5234 6.02734 40.3125 6.25391C40.1055 6.48047 39.9727 6.80469 39.9141 7.22656H42.2695V7.0918C42.2617 6.7168 42.1602 6.42773 41.9648 6.22461C41.7695 6.01758 41.4922 5.91406 41.1328 5.91406ZM51.1465 8.59766H50.0156L49.5938 11H48.5215L48.9434 8.59766H47.6133V7.58984H49.1191L49.4121 5.92578H48.0527V4.90625H49.5938L50.0215 2.46875H51.0879L50.6602 4.90625H51.7969L52.2246 2.46875H53.2969L52.8691 4.90625H54.1523V5.92578H52.6875L52.3945 7.58984H53.707V8.59766H52.2188L51.7969 11H50.7246L51.1465 8.59766ZM50.1914 7.58984H51.3223L51.6152 5.92578H50.4785L50.1914 7.58984ZM57.7617 7.77148C57.7617 7.14258 57.8828 6.58203 58.125 6.08984C58.3672 5.59766 58.7148 5.2168 59.168 4.94727C59.625 4.67773 60.1543 4.54297 60.7559 4.54297C61.6113 4.54297 62.3086 4.80469 62.8477 5.32812C63.3906 5.85156 63.6934 6.5625 63.7559 7.46094L63.7676 7.89453C63.7676 8.86719 63.4961 9.64844 62.9531 10.2383C62.4102 10.8242 61.6816 11.1172 60.7676 11.1172C59.8535 11.1172 59.123 10.8242 58.5762 10.2383C58.0332 9.65234 57.7617 8.85547 57.7617 7.84766V7.77148ZM59.4551 7.89453C59.4551 8.49609 59.5684 8.95703 59.7949 9.27734C60.0215 9.59375 60.3457 9.75195 60.7676 9.75195C61.1777 9.75195 61.498 9.5957 61.7285 9.2832C61.959 8.9668 62.0742 8.46289 62.0742 7.77148C62.0742 7.18164 61.959 6.72461 61.7285 6.40039C61.498 6.07617 61.1738 5.91406 60.7559 5.91406C60.3418 5.91406 60.0215 6.07617 59.7949 6.40039C59.5684 6.7207 59.4551 7.21875 59.4551 7.89453ZM65.2734 11V5.90234H64.3301V4.66016H65.2734V4.12109C65.2734 3.41016 65.4766 2.85938 65.8828 2.46875C66.293 2.07422 66.8652 1.87695 67.5996 1.87695C67.834 1.87695 68.1211 1.91602 68.4609 1.99414L68.4434 3.30664C68.3027 3.27148 68.1309 3.25391 67.9277 3.25391C67.291 3.25391 66.9727 3.55273 66.9727 4.15039V4.66016H68.2324V5.90234H66.9727V11H65.2734ZM78.9082 8.1582C78.8418 9.07617 78.502 9.79883 77.8887 10.3262C77.2793 10.8535 76.4746 11.1172 75.4746 11.1172C74.3809 11.1172 73.5195 10.75 72.8906 10.0156C72.2656 9.27734 71.9531 8.26562 71.9531 6.98047V6.45898C71.9531 5.63867 72.0977 4.91602 72.3867 4.29102C72.6758 3.66602 73.0879 3.1875 73.623 2.85547C74.1621 2.51953 74.7871 2.35156 75.498 2.35156C76.4824 2.35156 77.2754 2.61523 77.877 3.14258C78.4785 3.66992 78.8262 4.41016 78.9199 5.36328H77.1621C77.1191 4.8125 76.9648 4.41406 76.6992 4.16797C76.4375 3.91797 76.0371 3.79297 75.498 3.79297C74.9121 3.79297 74.4727 4.00391 74.1797 4.42578C73.8906 4.84375 73.7422 5.49414 73.7344 6.37695V7.02148C73.7344 7.94336 73.873 8.61719 74.1504 9.04297C74.4316 9.46875 74.873 9.68164 75.4746 9.68164C76.0176 9.68164 76.4219 9.55859 76.6875 9.3125C76.957 9.0625 77.1113 8.67773 77.1504 8.1582H78.9082ZM83.625 11C83.5469 10.8477 83.4902 10.6582 83.4551 10.4316C83.0449 10.8887 82.5117 11.1172 81.8555 11.1172C81.2344 11.1172 80.7188 10.9375 80.3086 10.5781C79.9023 10.2188 79.6992 9.76562 79.6992 9.21875C79.6992 8.54688 79.9473 8.03125 80.4434 7.67188C80.9434 7.3125 81.6641 7.13086 82.6055 7.12695H83.3848V6.76367C83.3848 6.4707 83.3086 6.23633 83.1562 6.06055C83.0078 5.88477 82.7715 5.79688 82.4473 5.79688C82.1621 5.79688 81.9375 5.86523 81.7734 6.00195C81.6133 6.13867 81.5332 6.32617 81.5332 6.56445H79.8398C79.8398 6.19727 79.9531 5.85742 80.1797 5.54492C80.4062 5.23242 80.7266 4.98828 81.1406 4.8125C81.5547 4.63281 82.0195 4.54297 82.5352 4.54297C83.3164 4.54297 83.9355 4.74023 84.3926 5.13477C84.8535 5.52539 85.084 6.07617 85.084 6.78711V9.53516C85.0879 10.1367 85.1719 10.5918 85.3359 10.9004V11H83.625ZM82.2246 9.82227C82.4746 9.82227 82.7051 9.76758 82.916 9.6582C83.127 9.54492 83.2832 9.39453 83.3848 9.20703V8.11719H82.752C81.9043 8.11719 81.4531 8.41016 81.3984 8.99609L81.3926 9.0957C81.3926 9.30664 81.4668 9.48047 81.6152 9.61719C81.7637 9.75391 81.9668 9.82227 82.2246 9.82227ZM88.1719 11H86.4727V2H88.1719V11ZM91.3594 11H89.6602V2H91.3594V11ZM96.1934 9.24805C96.1934 9.04102 96.0898 8.87891 95.8828 8.76172C95.6797 8.64062 95.3516 8.5332 94.8984 8.43945C93.3906 8.12305 92.6367 7.48242 92.6367 6.51758C92.6367 5.95508 92.8691 5.48633 93.334 5.11133C93.8027 4.73242 94.4141 4.54297 95.168 4.54297C95.9727 4.54297 96.6152 4.73242 97.0957 5.11133C97.5801 5.49023 97.8223 5.98242 97.8223 6.58789H96.1289C96.1289 6.3457 96.0508 6.14648 95.8945 5.99023C95.7383 5.83008 95.4941 5.75 95.1621 5.75C94.877 5.75 94.6562 5.81445 94.5 5.94336C94.3438 6.07227 94.2656 6.23633 94.2656 6.43555C94.2656 6.62305 94.3535 6.77539 94.5293 6.89258C94.709 7.00586 95.0098 7.10547 95.4316 7.19141C95.8535 7.27344 96.209 7.36719 96.498 7.47266C97.3926 7.80078 97.8398 8.36914 97.8398 9.17773C97.8398 9.75586 97.5918 10.2246 97.0957 10.584C96.5996 10.9395 95.959 11.1172 95.1738 11.1172C94.6426 11.1172 94.1699 11.0234 93.7559 10.8359C93.3457 10.6445 93.0234 10.3848 92.7891 10.0566C92.5547 9.72461 92.4375 9.36719 92.4375 8.98438H94.043C94.0586 9.28516 94.1699 9.51562 94.377 9.67578C94.584 9.83594 94.8613 9.91602 95.209 9.91602C95.5332 9.91602 95.7773 9.85547 95.9414 9.73438C96.1094 9.60938 96.1934 9.44727 96.1934 9.24805ZM103.793 7.99414V11H102.035V2.46875H105.363C106.004 2.46875 106.566 2.58594 107.051 2.82031C107.539 3.05469 107.914 3.38867 108.176 3.82227C108.438 4.25195 108.568 4.74219 108.568 5.29297C108.568 6.12891 108.281 6.78906 107.707 7.27344C107.137 7.75391 106.346 7.99414 105.334 7.99414H103.793ZM103.793 6.57031H105.363C105.828 6.57031 106.182 6.46094 106.424 6.24219C106.67 6.02344 106.793 5.71094 106.793 5.30469C106.793 4.88672 106.67 4.54883 106.424 4.29102C106.178 4.0332 105.838 3.90039 105.404 3.89258H103.793V6.57031ZM112.506 11.1172C111.576 11.1172 110.818 10.832 110.232 10.2617C109.65 9.69141 109.359 8.93164 109.359 7.98242V7.81836C109.359 7.18164 109.482 6.61328 109.729 6.11328C109.975 5.60938 110.322 5.22266 110.771 4.95312C111.225 4.67969 111.74 4.54297 112.318 4.54297C113.186 4.54297 113.867 4.81641 114.363 5.36328C114.863 5.91016 115.113 6.68555 115.113 7.68945V8.38086H111.076C111.131 8.79492 111.295 9.12695 111.568 9.37695C111.846 9.62695 112.195 9.75195 112.617 9.75195C113.27 9.75195 113.779 9.51562 114.146 9.04297L114.979 9.97461C114.725 10.334 114.381 10.6152 113.947 10.8184C113.514 11.0176 113.033 11.1172 112.506 11.1172ZM112.312 5.91406C111.977 5.91406 111.703 6.02734 111.492 6.25391C111.285 6.48047 111.152 6.80469 111.094 7.22656H113.449V7.0918C113.441 6.7168 113.34 6.42773 113.145 6.22461C112.949 6.01758 112.672 5.91406 112.312 5.91406ZM119.643 6.24805C119.412 6.2168 119.209 6.20117 119.033 6.20117C118.393 6.20117 117.973 6.41797 117.773 6.85156V11H116.08V4.66016H117.68L117.727 5.41602C118.066 4.83398 118.537 4.54297 119.139 4.54297C119.326 4.54297 119.502 4.56836 119.666 4.61914L119.643 6.24805ZM127.986 8.76172C127.986 8.42969 127.869 8.17578 127.635 8C127.4 7.82031 126.979 7.63281 126.369 7.4375C125.76 7.23828 125.277 7.04297 124.922 6.85156C123.953 6.32812 123.469 5.62305 123.469 4.73633C123.469 4.27539 123.598 3.86523 123.855 3.50586C124.117 3.14258 124.49 2.85938 124.975 2.65625C125.463 2.45312 126.01 2.35156 126.615 2.35156C127.225 2.35156 127.768 2.46289 128.244 2.68555C128.721 2.9043 129.09 3.21484 129.352 3.61719C129.617 4.01953 129.75 4.47656 129.75 4.98828H127.992C127.992 4.59766 127.869 4.29492 127.623 4.08008C127.377 3.86133 127.031 3.75195 126.586 3.75195C126.156 3.75195 125.822 3.84375 125.584 4.02734C125.346 4.20703 125.227 4.44531 125.227 4.74219C125.227 5.01953 125.365 5.25195 125.643 5.43945C125.924 5.62695 126.336 5.80273 126.879 5.9668C127.879 6.26758 128.607 6.64062 129.064 7.08594C129.521 7.53125 129.75 8.08594 129.75 8.75C129.75 9.48828 129.471 10.0684 128.912 10.4902C128.354 10.9082 127.602 11.1172 126.656 11.1172C126 11.1172 125.402 10.998 124.863 10.7598C124.324 10.5176 123.912 10.1875 123.627 9.76953C123.346 9.35156 123.205 8.86719 123.205 8.31641H124.969C124.969 9.25781 125.531 9.72852 126.656 9.72852C127.074 9.72852 127.4 9.64453 127.635 9.47656C127.869 9.30469 127.986 9.06641 127.986 8.76172ZM132.861 3.10156V4.66016H133.945V5.90234H132.861V9.06641C132.861 9.30078 132.906 9.46875 132.996 9.57031C133.086 9.67188 133.258 9.72266 133.512 9.72266C133.699 9.72266 133.865 9.70898 134.01 9.68164V10.9648C133.678 11.0664 133.336 11.1172 132.984 11.1172C131.797 11.1172 131.191 10.5176 131.168 9.31836V5.90234H130.242V4.66016H131.168V3.10156H132.861ZM138.686 10.3555C138.268 10.8633 137.689 11.1172 136.951 11.1172C136.271 11.1172 135.752 10.9219 135.393 10.5312C135.037 10.1406 134.855 9.56836 134.848 8.81445V4.66016H136.541V8.75586C136.541 9.41602 136.842 9.74609 137.443 9.74609C138.018 9.74609 138.412 9.54688 138.627 9.14844V4.66016H140.326V11H138.732L138.686 10.3555ZM141.34 7.7832C141.34 6.79492 141.561 6.00781 142.002 5.42188C142.447 4.83594 143.055 4.54297 143.824 4.54297C144.441 4.54297 144.951 4.77344 145.354 5.23438V2H147.053V11H145.523L145.441 10.3262C145.02 10.8535 144.477 11.1172 143.812 11.1172C143.066 11.1172 142.467 10.8242 142.014 10.2383C141.564 9.64844 141.34 8.83008 141.34 7.7832ZM143.033 7.90625C143.033 8.5 143.137 8.95508 143.344 9.27148C143.551 9.58789 143.852 9.74609 144.246 9.74609C144.77 9.74609 145.139 9.52539 145.354 9.08398V6.58203C145.143 6.14062 144.777 5.91992 144.258 5.91992C143.441 5.91992 143.033 6.58203 143.033 7.90625ZM151.283 11.1172C150.354 11.1172 149.596 10.832 149.01 10.2617C148.428 9.69141 148.137 8.93164 148.137 7.98242V7.81836C148.137 7.18164 148.26 6.61328 148.506 6.11328C148.752 5.60938 149.1 5.22266 149.549 4.95312C150.002 4.67969 150.518 4.54297 151.096 4.54297C151.963 4.54297 152.645 4.81641 153.141 5.36328C153.641 5.91016 153.891 6.68555 153.891 7.68945V8.38086H149.854C149.908 8.79492 150.072 9.12695 150.346 9.37695C150.623 9.62695 150.973 9.75195 151.395 9.75195C152.047 9.75195 152.557 9.51562 152.924 9.04297L153.756 9.97461C153.502 10.334 153.158 10.6152 152.725 10.8184C152.291 11.0176 151.811 11.1172 151.283 11.1172ZM151.09 5.91406C150.754 5.91406 150.48 6.02734 150.27 6.25391C150.062 6.48047 149.93 6.80469 149.871 7.22656H152.227V7.0918C152.219 6.7168 152.117 6.42773 151.922 6.22461C151.727 6.01758 151.449 5.91406 151.09 5.91406ZM156.416 4.66016L156.469 5.39258C156.922 4.82617 157.529 4.54297 158.291 4.54297C158.963 4.54297 159.463 4.74023 159.791 5.13477C160.119 5.5293 160.287 6.11914 160.295 6.9043V11H158.602V6.94531C158.602 6.58594 158.523 6.32617 158.367 6.16602C158.211 6.00195 157.951 5.91992 157.588 5.91992C157.111 5.91992 156.754 6.12305 156.516 6.5293V11H154.822V4.66016H156.416ZM163.611 3.10156V4.66016H164.695V5.90234H163.611V9.06641C163.611 9.30078 163.656 9.46875 163.746 9.57031C163.836 9.67188 164.008 9.72266 164.262 9.72266C164.449 9.72266 164.615 9.70898 164.76 9.68164V10.9648C164.428 11.0664 164.086 11.1172 163.734 11.1172C162.547 11.1172 161.941 10.5176 161.918 9.31836V5.90234H160.992V4.66016H161.918V3.10156H163.611Z" fill="black"/>
</svg>
