<svg width="375" height="300" viewBox="0 0 375 300" fill="none" xmlns="http://www.w3.org/2000/svg">
<path d="M10.782 9.756H10.728L9.81 11.592L7.362 16.038L4.968 11.61L4.014 9.63H3.96V18H1.386V5.436H4.284L7.362 11.322H7.398L10.44 5.436H13.356V18H10.782V9.756ZM21.768 8.55H24.252L20.616 19.458C20.376 20.19 20.034 20.73 19.59 21.078C19.158 21.426 18.534 21.6 17.718 21.6H16.062V19.53H17.844L18.168 18.486L14.856 8.55H17.502L18.888 12.96L19.572 15.696H19.68L20.382 12.96L21.768 8.55ZM35.2052 14.886H32.3252L31.7852 18H30.0932L30.6332 14.886H28.8152V13.266H30.9212L31.4432 10.17H29.6252V8.55H31.7312L32.2712 5.436H33.9452L33.4052 8.55H36.2852L36.8252 5.436H38.5172L37.9772 8.55H39.7952V10.17H37.6892L37.1672 13.266H38.9852V14.886H36.8792L36.3392 18H34.6652L35.2052 14.886ZM35.4752 13.266L36.0152 10.17H33.1352L32.5952 13.266H35.4752ZM49.3201 18.216C48.6241 18.216 48.0001 18.102 47.4481 17.874C46.9081 17.646 46.4461 17.316 46.0621 16.884C45.6901 16.452 45.4021 15.93 45.1981 15.318C44.9941 14.706 44.8921 14.022 44.8921 13.266C44.8921 12.51 44.9941 11.826 45.1981 11.214C45.4021 10.602 45.6901 10.086 46.0621 9.666C46.4461 9.234 46.9081 8.904 47.4481 8.676C48.0001 8.448 48.6241 8.334 49.3201 8.334C50.0161 8.334 50.6341 8.448 51.1741 8.676C51.7261 8.904 52.1881 9.234 52.5601 9.666C52.9441 10.086 53.2381 10.602 53.4421 11.214C53.6461 11.826 53.7481 12.51 53.7481 13.266C53.7481 14.022 53.6461 14.706 53.4421 15.318C53.2381 15.93 52.9441 16.452 52.5601 16.884C52.1881 17.316 51.7261 17.646 51.1741 17.874C50.6341 18.102 50.0161 18.216 49.3201 18.216ZM49.3201 16.11C49.8481 16.11 50.2561 15.948 50.5441 15.624C50.8321 15.3 50.9761 14.838 50.9761 14.238V12.312C50.9761 11.712 50.8321 11.25 50.5441 10.926C50.2561 10.602 49.8481 10.44 49.3201 10.44C48.7921 10.44 48.3841 10.602 48.0961 10.926C47.8081 11.25 47.6641 11.712 47.6641 12.312V14.238C47.6641 14.838 47.8081 15.3 48.0961 15.624C48.3841 15.948 48.7921 16.11 49.3201 16.11ZM56.0088 10.62H54.6768V8.55H56.0088V7.434C56.0088 6.522 56.2488 5.838 56.7288 5.382C57.2088 4.914 57.9108 4.68 58.8348 4.68H60.5628V6.75H58.6728V8.55H60.5628V10.62H58.6728V18H56.0088V10.62ZM69.0346 5.436V13.14C69.0346 14.028 69.2086 14.694 69.5566 15.138C69.9046 15.57 70.4866 15.786 71.3026 15.786C72.1186 15.786 72.7006 15.57 73.0486 15.138C73.3966 14.694 73.5706 14.028 73.5706 13.14V5.436H76.2346V12.852C76.2346 13.776 76.1446 14.58 75.9646 15.264C75.7966 15.936 75.5146 16.494 75.1186 16.938C74.7226 17.37 74.2126 17.694 73.5886 17.91C72.9646 18.114 72.2026 18.216 71.3026 18.216C70.4026 18.216 69.6406 18.114 69.0166 17.91C68.3926 17.694 67.8826 17.37 67.4866 16.938C67.0906 16.494 66.8026 15.936 66.6226 15.264C66.4546 14.58 66.3706 13.776 66.3706 12.852V5.436H69.0346ZM89.3807 18H86.2127L83.4947 13.374H83.4407L80.7947 18H77.8427L81.8747 11.502L78.0407 5.436H81.2267L83.6747 9.684H83.7287L86.2127 5.436H89.1647L85.2947 11.556L89.3807 18ZM99.3739 18.216C98.2699 18.216 97.3339 18.03 96.5659 17.658C95.7979 17.274 95.1439 16.782 94.6039 16.182L96.4039 14.364C97.2559 15.324 98.3059 15.804 99.5539 15.804C100.226 15.804 100.724 15.666 101.048 15.39C101.372 15.114 101.534 14.748 101.534 14.292C101.534 13.944 101.438 13.656 101.246 13.428C101.054 13.188 100.664 13.026 100.076 12.942L98.8339 12.78C97.5019 12.612 96.5239 12.21 95.8999 11.574C95.2879 10.938 94.9819 10.092 94.9819 9.036C94.9819 8.472 95.0899 7.956 95.3059 7.488C95.5219 7.02 95.8279 6.618 96.2239 6.282C96.6319 5.946 97.1239 5.688 97.6999 5.508C98.2879 5.316 98.9539 5.22 99.6979 5.22C100.646 5.22 101.48 5.37 102.2 5.67C102.92 5.97 103.538 6.408 104.054 6.984L102.236 8.82C101.936 8.472 101.57 8.19 101.138 7.974C100.718 7.746 100.184 7.632 99.5359 7.632C98.9239 7.632 98.4679 7.74 98.1679 7.956C97.8679 8.172 97.7179 8.472 97.7179 8.856C97.7179 9.288 97.8319 9.6 98.0599 9.792C98.2999 9.984 98.6839 10.122 99.2119 10.206L100.454 10.404C101.75 10.608 102.71 11.01 103.334 11.61C103.958 12.198 104.27 13.038 104.27 14.13C104.27 14.73 104.162 15.282 103.946 15.786C103.73 16.29 103.412 16.722 102.992 17.082C102.584 17.442 102.074 17.724 101.462 17.928C100.85 18.12 100.154 18.216 99.3739 18.216ZM109.618 18C108.694 18 107.992 17.766 107.512 17.298C107.044 16.83 106.81 16.146 106.81 15.246V10.62H105.478V8.55H106.144C106.504 8.55 106.75 8.466 106.882 8.298C107.014 8.118 107.08 7.866 107.08 7.542V5.994H109.474V8.55H111.346V10.62H109.474V15.93H111.202V18H109.618ZM118.777 16.416H118.687C118.603 16.656 118.489 16.884 118.345 17.1C118.213 17.316 118.039 17.508 117.823 17.676C117.607 17.844 117.349 17.976 117.049 18.072C116.761 18.168 116.425 18.216 116.041 18.216C115.069 18.216 114.331 17.898 113.827 17.262C113.335 16.614 113.089 15.69 113.089 14.49V8.55H115.753V14.256C115.753 14.832 115.855 15.276 116.059 15.588C116.263 15.9 116.611 16.056 117.103 16.056C117.307 16.056 117.511 16.026 117.715 15.966C117.919 15.906 118.099 15.822 118.255 15.714C118.411 15.594 118.537 15.45 118.633 15.282C118.729 15.114 118.777 14.916 118.777 14.688V8.55H121.441V18H118.777V16.416ZM129.716 16.416H129.626C129.554 16.668 129.44 16.908 129.284 17.136C129.128 17.352 128.936 17.544 128.708 17.712C128.492 17.868 128.24 17.988 127.952 18.072C127.676 18.168 127.388 18.216 127.088 18.216C125.888 18.216 124.982 17.796 124.37 16.956C123.758 16.104 123.452 14.874 123.452 13.266C123.452 11.658 123.758 10.434 124.37 9.594C124.982 8.754 125.888 8.334 127.088 8.334C127.7 8.334 128.24 8.502 128.708 8.838C129.188 9.174 129.494 9.606 129.626 10.134H129.716V4.68H132.38V18H129.716V16.416ZM127.97 16.056C128.474 16.056 128.888 15.936 129.212 15.696C129.548 15.444 129.716 15.102 129.716 14.67V11.88C129.716 11.448 129.548 11.112 129.212 10.872C128.888 10.62 128.474 10.494 127.97 10.494C127.466 10.494 127.046 10.674 126.71 11.034C126.386 11.382 126.224 11.856 126.224 12.456V14.094C126.224 14.694 126.386 15.174 126.71 15.534C127.046 15.882 127.466 16.056 127.97 16.056ZM138.813 18.216C138.093 18.216 137.451 18.102 136.887 17.874C136.323 17.634 135.843 17.304 135.447 16.884C135.063 16.452 134.769 15.93 134.565 15.318C134.373 14.706 134.277 14.022 134.277 13.266C134.277 12.522 134.373 11.85 134.565 11.25C134.757 10.638 135.039 10.116 135.411 9.684C135.795 9.252 136.263 8.922 136.815 8.694C137.367 8.454 137.997 8.334 138.705 8.334C139.485 8.334 140.151 8.466 140.703 8.73C141.267 8.994 141.723 9.348 142.071 9.792C142.431 10.236 142.689 10.752 142.845 11.34C143.013 11.916 143.097 12.522 143.097 13.158V13.95H137.031V14.094C137.031 14.718 137.199 15.216 137.535 15.588C137.871 15.948 138.399 16.128 139.119 16.128C139.671 16.128 140.121 16.02 140.469 15.804C140.817 15.576 141.141 15.306 141.441 14.994L142.773 16.65C142.353 17.142 141.801 17.526 141.117 17.802C140.445 18.078 139.677 18.216 138.813 18.216ZM138.759 10.296C138.219 10.296 137.793 10.476 137.481 10.836C137.181 11.184 137.031 11.652 137.031 12.24V12.384H140.343V12.222C140.343 11.646 140.211 11.184 139.947 10.836C139.695 10.476 139.299 10.296 138.759 10.296ZM144.978 18V8.55H147.642V10.152H147.75C147.918 9.66 148.212 9.234 148.632 8.874C149.052 8.514 149.634 8.334 150.378 8.334C151.35 8.334 152.082 8.658 152.574 9.306C153.078 9.954 153.33 10.878 153.33 12.078V18H150.666V12.294C150.666 11.682 150.57 11.232 150.378 10.944C150.186 10.644 149.844 10.494 149.352 10.494C149.136 10.494 148.926 10.524 148.722 10.584C148.518 10.632 148.332 10.716 148.164 10.836C148.008 10.956 147.882 11.106 147.786 11.286C147.69 11.454 147.642 11.652 147.642 11.88V18H144.978ZM159.013 18C158.089 18 157.387 17.766 156.907 17.298C156.439 16.83 156.205 16.146 156.205 15.246V10.62H154.873V8.55H155.539C155.899 8.55 156.145 8.466 156.277 8.298C156.409 8.118 156.475 7.866 156.475 7.542V5.994H158.869V8.55H160.741V10.62H158.869V15.93H160.597V18H159.013ZM165.796 18.216C164.884 18.216 164.116 18.072 163.492 17.784C162.868 17.484 162.31 17.064 161.818 16.524L163.384 14.94C163.72 15.312 164.092 15.606 164.5 15.822C164.908 16.038 165.37 16.146 165.886 16.146C166.414 16.146 166.78 16.068 166.984 15.912C167.188 15.744 167.29 15.522 167.29 15.246C167.29 14.802 166.972 14.538 166.336 14.454L165.31 14.328C163.186 14.064 162.124 13.092 162.124 11.412C162.124 10.956 162.208 10.542 162.376 10.17C162.556 9.786 162.802 9.462 163.114 9.198C163.438 8.922 163.822 8.712 164.266 8.568C164.722 8.412 165.232 8.334 165.796 8.334C166.288 8.334 166.72 8.37 167.092 8.442C167.476 8.502 167.812 8.598 168.1 8.73C168.4 8.85 168.67 9.006 168.91 9.198C169.162 9.378 169.408 9.582 169.648 9.81L168.118 11.376C167.818 11.076 167.476 10.842 167.092 10.674C166.72 10.494 166.336 10.404 165.94 10.404C165.484 10.404 165.16 10.476 164.968 10.62C164.776 10.764 164.68 10.956 164.68 11.196C164.68 11.448 164.746 11.646 164.878 11.79C165.022 11.922 165.286 12.018 165.67 12.078L166.732 12.222C168.808 12.498 169.846 13.446 169.846 15.066C169.846 15.522 169.75 15.942 169.558 16.326C169.366 16.71 169.09 17.046 168.73 17.334C168.382 17.61 167.956 17.826 167.452 17.982C166.96 18.138 166.408 18.216 165.796 18.216ZM176.06 18V5.436H184.61V7.866H178.796V10.44H183.782V12.852H178.796V15.57H184.61V18H176.06ZM193.833 18C193.353 18 192.951 17.85 192.627 17.55C192.315 17.25 192.117 16.848 192.033 16.344H191.925C191.781 16.956 191.463 17.424 190.971 17.748C190.479 18.06 189.873 18.216 189.153 18.216C188.205 18.216 187.479 17.964 186.975 17.46C186.471 16.956 186.219 16.29 186.219 15.462C186.219 14.466 186.579 13.728 187.299 13.248C188.031 12.756 189.021 12.51 190.269 12.51H191.763V11.916C191.763 11.46 191.643 11.1 191.403 10.836C191.163 10.56 190.761 10.422 190.197 10.422C189.669 10.422 189.249 10.536 188.937 10.764C188.625 10.992 188.367 11.25 188.163 11.538L186.579 10.134C186.963 9.57 187.443 9.132 188.019 8.82C188.607 8.496 189.399 8.334 190.395 8.334C191.739 8.334 192.747 8.628 193.419 9.216C194.091 9.804 194.427 10.662 194.427 11.79V15.93H195.309V18H193.833ZM190.143 16.362C190.587 16.362 190.965 16.266 191.277 16.074C191.601 15.882 191.763 15.57 191.763 15.138V14.022H190.467C189.423 14.022 188.901 14.376 188.901 15.084V15.354C188.901 15.702 189.009 15.96 189.225 16.128C189.441 16.284 189.747 16.362 190.143 16.362ZM200.913 18.216C200.205 18.216 199.575 18.102 199.023 17.874C198.471 17.634 198.009 17.304 197.637 16.884C197.265 16.452 196.983 15.93 196.791 15.318C196.599 14.706 196.503 14.022 196.503 13.266C196.503 12.51 196.599 11.832 196.791 11.232C196.983 10.62 197.265 10.098 197.637 9.666C198.009 9.234 198.471 8.904 199.023 8.676C199.575 8.448 200.205 8.334 200.913 8.334C201.873 8.334 202.671 8.55 203.307 8.982C203.955 9.414 204.417 10.02 204.693 10.8L202.533 11.736C202.449 11.376 202.275 11.07 202.011 10.818C201.747 10.566 201.381 10.44 200.913 10.44C200.373 10.44 199.965 10.62 199.689 10.98C199.413 11.328 199.275 11.802 199.275 12.402V14.166C199.275 14.766 199.413 15.24 199.689 15.588C199.965 15.936 200.373 16.11 200.913 16.11C201.393 16.11 201.771 15.984 202.047 15.732C202.335 15.468 202.545 15.126 202.677 14.706L204.747 15.606C204.435 16.506 203.949 17.166 203.289 17.586C202.641 18.006 201.849 18.216 200.913 18.216ZM206.396 4.68H209.06V10.152H209.168C209.336 9.66 209.63 9.234 210.05 8.874C210.47 8.514 211.052 8.334 211.796 8.334C212.768 8.334 213.5 8.658 213.992 9.306C214.496 9.954 214.748 10.878 214.748 12.078V18H212.084V12.294C212.084 11.682 211.988 11.232 211.796 10.944C211.604 10.644 211.262 10.494 210.77 10.494C210.554 10.494 210.344 10.524 210.14 10.584C209.936 10.632 209.75 10.716 209.582 10.836C209.426 10.956 209.3 11.106 209.204 11.286C209.108 11.454 209.06 11.652 209.06 11.88V18H206.396V4.68ZM230.913 9.756H230.859L229.941 11.592L227.493 16.038L225.099 11.61L224.145 9.63H224.091V18H221.517V5.436H224.415L227.493 11.322H227.529L230.571 5.436H233.487V18H230.913V9.756ZM239.955 18.216C239.259 18.216 238.635 18.102 238.083 17.874C237.543 17.646 237.081 17.316 236.697 16.884C236.325 16.452 236.037 15.93 235.833 15.318C235.629 14.706 235.527 14.022 235.527 13.266C235.527 12.51 235.629 11.826 235.833 11.214C236.037 10.602 236.325 10.086 236.697 9.666C237.081 9.234 237.543 8.904 238.083 8.676C238.635 8.448 239.259 8.334 239.955 8.334C240.651 8.334 241.269 8.448 241.809 8.676C242.361 8.904 242.823 9.234 243.195 9.666C243.579 10.086 243.873 10.602 244.077 11.214C244.281 11.826 244.383 12.51 244.383 13.266C244.383 14.022 244.281 14.706 244.077 15.318C243.873 15.93 243.579 16.452 243.195 16.884C242.823 17.316 242.361 17.646 241.809 17.874C241.269 18.102 240.651 18.216 239.955 18.216ZM239.955 16.11C240.483 16.11 240.891 15.948 241.179 15.624C241.467 15.3 241.611 14.838 241.611 14.238V12.312C241.611 11.712 241.467 11.25 241.179 10.926C240.891 10.602 240.483 10.44 239.955 10.44C239.427 10.44 239.019 10.602 238.731 10.926C238.443 11.25 238.299 11.712 238.299 12.312V14.238C238.299 14.838 238.443 15.3 238.731 15.624C239.019 15.948 239.427 16.11 239.955 16.11ZM246.281 18V8.55H248.945V10.152H249.053C249.221 9.66 249.515 9.234 249.935 8.874C250.355 8.514 250.937 8.334 251.681 8.334C252.653 8.334 253.385 8.658 253.877 9.306C254.381 9.954 254.633 10.878 254.633 12.078V18H251.969V12.294C251.969 11.682 251.873 11.232 251.681 10.944C251.489 10.644 251.147 10.494 250.655 10.494C250.439 10.494 250.229 10.524 250.025 10.584C249.821 10.632 249.635 10.716 249.467 10.836C249.311 10.956 249.185 11.106 249.089 11.286C248.993 11.454 248.945 11.652 248.945 11.88V18H246.281ZM260.316 18C259.392 18 258.69 17.766 258.21 17.298C257.742 16.83 257.508 16.146 257.508 15.246V10.62H256.176V8.55H256.842C257.202 8.55 257.448 8.466 257.58 8.298C257.712 8.118 257.778 7.866 257.778 7.542V5.994H260.172V8.55H262.044V10.62H260.172V15.93H261.9V18H260.316ZM263.894 4.68H266.558V10.152H266.666C266.834 9.66 267.128 9.234 267.548 8.874C267.968 8.514 268.55 8.334 269.294 8.334C270.266 8.334 270.998 8.658 271.49 9.306C271.994 9.954 272.246 10.878 272.246 12.078V18H269.582V12.294C269.582 11.682 269.486 11.232 269.294 10.944C269.102 10.644 268.76 10.494 268.268 10.494C268.052 10.494 267.842 10.524 267.638 10.584C267.434 10.632 267.248 10.716 267.08 10.836C266.924 10.956 266.798 11.106 266.702 11.286C266.606 11.454 266.558 11.652 266.558 11.88V18H263.894V4.68Z" fill="white"/>
<rect x="31" y="143" width="18" height="100" fill="#CBD5E0"/>
<rect x="31" y="43" width="18" height="100" fill="#9F7AEA"/>
<path d="M43.7311 257.928C43.7311 258.76 43.6085 259.544 43.3631 260.28C43.1178 261.005 42.7978 261.672 42.4031 262.28C42.0191 262.877 41.5925 263.411 41.1231 263.88C40.6538 264.339 40.1951 264.712 39.7471 265H38.0191C38.6165 264.563 39.1498 264.136 39.6191 263.72C40.0885 263.304 40.4991 262.872 40.8511 262.424C41.2031 261.965 41.5018 261.48 41.7471 260.968C41.9925 260.445 42.1898 259.859 42.3391 259.208L42.2591 259.176C41.9925 259.635 41.6458 260.019 41.2191 260.328C40.8031 260.627 40.2538 260.776 39.5711 260.776C39.0911 260.776 38.6485 260.696 38.2431 260.536C37.8378 260.376 37.4911 260.147 37.2031 259.848C36.9151 259.549 36.6858 259.192 36.5151 258.776C36.3551 258.349 36.2751 257.869 36.2751 257.336C36.2751 256.792 36.3605 256.296 36.5311 255.848C36.7125 255.389 36.9631 255 37.2831 254.68C37.6138 254.349 38.0031 254.093 38.4511 253.912C38.9098 253.731 39.4218 253.64 39.9871 253.64C40.5631 253.64 41.0805 253.741 41.5391 253.944C42.0085 254.136 42.4031 254.419 42.7231 254.792C43.0538 255.155 43.3045 255.603 43.4751 256.136C43.6458 256.669 43.7311 257.267 43.7311 257.928ZM40.0031 259.64C40.7391 259.64 41.3098 259.437 41.7151 259.032C42.1311 258.627 42.3391 258.045 42.3391 257.288V257.16C42.3391 256.403 42.1311 255.821 41.7151 255.416C41.3098 255.011 40.7391 254.808 40.0031 254.808C39.2671 254.808 38.6911 255.011 38.2751 255.416C37.8698 255.821 37.6671 256.403 37.6671 257.16V257.288C37.6671 258.045 37.8698 258.627 38.2751 259.032C38.6911 259.437 39.2671 259.64 40.0031 259.64Z" fill="#CBD5E0"/>
<rect x="63" y="113" width="18" height="130" fill="#CBD5E0"/>
<path d="M63.8143 265V263.816H66.9343V254.824H66.8223L64.0063 257.448L63.2223 256.6L66.1823 253.832H68.2783V263.816H71.1583V265H63.8143ZM76.8 265.192C75.4667 265.192 74.4907 264.685 73.872 263.672C73.264 262.659 72.96 261.24 72.96 259.416C72.96 257.592 73.264 256.173 73.872 255.16C74.4907 254.147 75.4667 253.64 76.8 253.64C78.1333 253.64 79.104 254.147 79.712 255.16C80.3307 256.173 80.64 257.592 80.64 259.416C80.64 261.24 80.3307 262.659 79.712 263.672C79.104 264.685 78.1333 265.192 76.8 265.192ZM76.8 264.024C77.2373 264.024 77.6107 263.933 77.92 263.752C78.2293 263.571 78.48 263.315 78.672 262.984C78.864 262.653 79.0027 262.264 79.088 261.816C79.184 261.368 79.232 260.872 79.232 260.328V258.504C79.232 257.96 79.184 257.464 79.088 257.016C79.0027 256.568 78.864 256.179 78.672 255.848C78.48 255.517 78.2293 255.261 77.92 255.08C77.6107 254.899 77.2373 254.808 76.8 254.808C76.3627 254.808 75.9893 254.899 75.68 255.08C75.3707 255.261 75.12 255.517 74.928 255.848C74.736 256.179 74.592 256.568 74.496 257.016C74.4107 257.464 74.368 257.96 74.368 258.504V260.328C74.368 260.872 74.4107 261.368 74.496 261.816C74.592 262.264 74.736 262.653 74.928 262.984C75.12 263.315 75.3707 263.571 75.68 263.752C75.9893 263.933 76.3627 264.024 76.8 264.024Z" fill="#CBD5E0"/>
<rect x="95" y="113" width="18" height="130" fill="#CBD5E0"/>
<path d="M95.8143 265V263.816H98.9343V254.824H98.8223L96.0063 257.448L95.2223 256.6L98.1823 253.832H100.278V263.816H103.158V265H95.8143ZM105.408 265V263.816H108.528V254.824H108.416L105.6 257.448L104.816 256.6L107.776 253.832H109.872V263.816H112.752V265H105.408Z" fill="#CBD5E0"/>
<rect x="127" y="113" width="18" height="130" fill="#CBD5E0"/>
<path d="M127.814 265V263.816H130.934V254.824H130.822L128.006 257.448L127.222 256.6L130.182 253.832H132.278V263.816H135.158V265H127.814ZM144.528 265H137.2V263.624L140.848 260.264C141.371 259.784 141.808 259.277 142.16 258.744C142.512 258.2 142.688 257.656 142.688 257.112V256.92C142.688 256.301 142.517 255.8 142.176 255.416C141.835 255.032 141.317 254.84 140.624 254.84C140.283 254.84 139.984 254.888 139.728 254.984C139.472 255.08 139.248 255.213 139.056 255.384C138.875 255.555 138.72 255.757 138.592 255.992C138.475 256.216 138.379 256.461 138.304 256.728L137.104 256.264C137.211 255.933 137.355 255.613 137.536 255.304C137.728 254.984 137.963 254.701 138.24 254.456C138.528 254.211 138.869 254.013 139.264 253.864C139.669 253.715 140.144 253.64 140.688 253.64C141.232 253.64 141.717 253.72 142.144 253.88C142.571 254.04 142.928 254.264 143.216 254.552C143.504 254.84 143.723 255.181 143.872 255.576C144.032 255.971 144.112 256.408 144.112 256.888C144.112 257.325 144.048 257.731 143.92 258.104C143.803 258.477 143.637 258.835 143.424 259.176C143.211 259.507 142.949 259.832 142.64 260.152C142.341 260.472 142.016 260.792 141.664 261.112L138.656 263.816H144.528V265Z" fill="#CBD5E0"/>
<rect x="159" y="113" width="18" height="130" fill="#CBD5E0"/>
<path d="M164.611 265V263.816H167.731V254.824H167.619L164.803 257.448L164.019 256.6L166.979 253.832H169.075V263.816H171.955V265H164.611Z" fill="#CBD5E0"/>
<rect x="191" y="113" width="18" height="130" fill="#CBD5E0"/>
<path d="M203.731 265H196.403V263.624L200.051 260.264C200.574 259.784 201.011 259.277 201.363 258.744C201.715 258.2 201.891 257.656 201.891 257.112V256.92C201.891 256.301 201.72 255.8 201.379 255.416C201.038 255.032 200.52 254.84 199.827 254.84C199.486 254.84 199.187 254.888 198.931 254.984C198.675 255.08 198.451 255.213 198.259 255.384C198.078 255.555 197.923 255.757 197.795 255.992C197.678 256.216 197.582 256.461 197.507 256.728L196.307 256.264C196.414 255.933 196.558 255.613 196.739 255.304C196.931 254.984 197.166 254.701 197.443 254.456C197.731 254.211 198.072 254.013 198.467 253.864C198.872 253.715 199.347 253.64 199.891 253.64C200.435 253.64 200.92 253.72 201.347 253.88C201.774 254.04 202.131 254.264 202.419 254.552C202.707 254.84 202.926 255.181 203.075 255.576C203.235 255.971 203.315 256.408 203.315 256.888C203.315 257.325 203.251 257.731 203.123 258.104C203.006 258.477 202.84 258.835 202.627 259.176C202.414 259.507 202.152 259.832 201.843 260.152C201.544 260.472 201.219 260.792 200.867 261.112L197.859 263.816H203.731V265Z" fill="#CBD5E0"/>
<rect x="223" y="113" width="18" height="130" fill="#CBD5E0"/>
<path d="M231.379 258.568C232.136 258.568 232.702 258.397 233.075 258.056C233.459 257.704 233.651 257.256 233.651 256.712V256.6C233.651 256.013 233.464 255.576 233.091 255.288C232.728 254.989 232.248 254.84 231.651 254.84C231.075 254.84 230.606 254.968 230.243 255.224C229.88 255.469 229.582 255.805 229.347 256.232L228.355 255.464C228.494 255.24 228.659 255.021 228.851 254.808C229.054 254.584 229.288 254.387 229.555 254.216C229.822 254.045 230.131 253.907 230.483 253.8C230.835 253.693 231.235 253.64 231.683 253.64C232.152 253.64 232.595 253.704 233.011 253.832C233.427 253.949 233.784 254.131 234.083 254.376C234.392 254.611 234.632 254.904 234.803 255.256C234.984 255.608 235.075 256.008 235.075 256.456C235.075 256.819 235.016 257.144 234.899 257.432C234.792 257.72 234.643 257.971 234.451 258.184C234.259 258.397 234.03 258.579 233.763 258.728C233.507 258.877 233.23 258.989 232.931 259.064V259.128C233.23 259.192 233.518 259.299 233.795 259.448C234.083 259.587 234.334 259.773 234.547 260.008C234.771 260.232 234.947 260.509 235.075 260.84C235.214 261.16 235.283 261.528 235.283 261.944C235.283 262.424 235.192 262.867 235.011 263.272C234.83 263.667 234.574 264.008 234.243 264.296C233.912 264.573 233.512 264.792 233.043 264.952C232.574 265.112 232.056 265.192 231.491 265.192C231.011 265.192 230.584 265.139 230.211 265.032C229.838 264.925 229.507 264.781 229.219 264.6C228.931 264.419 228.675 264.216 228.451 263.992C228.238 263.768 228.046 263.533 227.875 263.288L228.883 262.52C229.022 262.744 229.171 262.947 229.331 263.128C229.502 263.309 229.688 263.464 229.891 263.592C230.094 263.72 230.323 263.821 230.579 263.896C230.835 263.96 231.134 263.992 231.475 263.992C232.264 263.992 232.862 263.816 233.267 263.464C233.672 263.101 233.875 262.589 233.875 261.928V261.8C233.875 261.139 233.672 260.632 233.267 260.28C232.862 259.917 232.264 259.736 231.475 259.736H230.163V258.568H231.379Z" fill="#CBD5E0"/>
<rect x="255" y="123" width="18" height="120" fill="#CBD5E0"/>
<path d="M265.203 265V262.808H259.811V261.624L264.483 253.832H266.483V261.688H268.099V262.808H266.483V265H265.203ZM261.075 261.688H265.203V254.872H265.123L261.075 261.688Z" fill="#CBD5E0"/>
<rect x="287" y="123" width="18" height="120" fill="#CBD5E0"/>
<path d="M299.171 255.016H294.275L293.955 259.272H294.067C294.334 258.899 294.632 258.6 294.963 258.376C295.304 258.152 295.768 258.04 296.355 258.04C296.835 258.04 297.278 258.12 297.683 258.28C298.088 258.44 298.44 258.669 298.739 258.968C299.038 259.256 299.267 259.613 299.427 260.04C299.598 260.467 299.683 260.952 299.683 261.496C299.683 262.04 299.598 262.541 299.427 263C299.256 263.448 299.006 263.837 298.675 264.168C298.355 264.488 297.96 264.739 297.491 264.92C297.032 265.101 296.51 265.192 295.923 265.192C295.454 265.192 295.038 265.139 294.675 265.032C294.323 264.925 294.008 264.781 293.731 264.6C293.454 264.419 293.208 264.216 292.995 263.992C292.792 263.768 292.606 263.533 292.435 263.288L293.443 262.52C293.582 262.744 293.726 262.947 293.875 263.128C294.035 263.309 294.206 263.464 294.387 263.592C294.579 263.72 294.798 263.821 295.043 263.896C295.288 263.96 295.582 263.992 295.923 263.992C296.691 263.992 297.272 263.789 297.667 263.384C298.062 262.979 298.259 262.408 298.259 261.672V261.512C298.259 260.776 298.062 260.205 297.667 259.8C297.272 259.395 296.691 259.192 295.923 259.192C295.411 259.192 295.006 259.288 294.707 259.48C294.419 259.661 294.158 259.88 293.923 260.136L292.787 259.976L293.187 253.832H299.171V255.016Z" fill="#CBD5E0"/>
<rect x="319" y="113" width="18" height="130" fill="#CBD5E0"/>
<path d="M328.019 265.192C327.443 265.192 326.92 265.096 326.451 264.904C325.992 264.701 325.598 264.419 325.267 264.056C324.947 263.683 324.702 263.229 324.531 262.696C324.36 262.163 324.275 261.565 324.275 260.904C324.275 260.072 324.398 259.293 324.643 258.568C324.888 257.832 325.203 257.165 325.587 256.568C325.982 255.96 326.414 255.427 326.883 254.968C327.352 254.499 327.811 254.12 328.259 253.832H329.987C329.39 254.269 328.856 254.696 328.387 255.112C327.918 255.528 327.507 255.965 327.155 256.424C326.803 256.872 326.504 257.357 326.259 257.88C326.014 258.392 325.816 258.973 325.667 259.624L325.747 259.656C326.014 259.197 326.355 258.819 326.771 258.52C327.198 258.211 327.752 258.056 328.435 258.056C328.915 258.056 329.358 258.136 329.763 258.296C330.168 258.456 330.515 258.685 330.803 258.984C331.091 259.283 331.315 259.645 331.475 260.072C331.646 260.499 331.731 260.973 331.731 261.496C331.731 262.04 331.64 262.541 331.459 263C331.288 263.448 331.038 263.837 330.707 264.168C330.387 264.488 329.998 264.739 329.539 264.92C329.08 265.101 328.574 265.192 328.019 265.192ZM328.003 264.024C328.739 264.024 329.31 263.821 329.715 263.416C330.131 263.011 330.339 262.429 330.339 261.672V261.544C330.339 260.787 330.131 260.205 329.715 259.8C329.31 259.395 328.739 259.192 328.003 259.192C327.267 259.192 326.691 259.395 326.275 259.8C325.87 260.205 325.667 260.787 325.667 261.544V261.672C325.667 262.429 325.87 263.011 326.275 263.416C326.691 263.821 327.267 264.024 328.003 264.024Z" fill="#CBD5E0"/>
<rect x="351" y="113" width="18" height="130" fill="#CBD5E0"/>
<path d="M358.003 265L362.275 254.984H357.507V257.064H356.307V253.832H363.635V255.016L359.443 265H358.003Z" fill="#CBD5E0"/>
<line x1="20" y1="243.5" x2="375" y2="243.5" stroke="#CBD5E0"/>
<line x1="20" y1="143.5" x2="25" y2="143.5" stroke="#CBD5E0"/>
<line x1="20" y1="43.5" x2="25" y2="43.5" stroke="#CBD5E0"/>
<path d="M14.4047 248.144C13.4047 248.144 12.6727 247.764 12.2087 247.004C11.7527 246.244 11.5247 245.18 11.5247 243.812C11.5247 242.444 11.7527 241.38 12.2087 240.62C12.6727 239.86 13.4047 239.48 14.4047 239.48C15.4047 239.48 16.1327 239.86 16.5887 240.62C17.0527 241.38 17.2847 242.444 17.2847 243.812C17.2847 245.18 17.0527 246.244 16.5887 247.004C16.1327 247.764 15.4047 248.144 14.4047 248.144ZM14.4047 247.268C14.7327 247.268 15.0127 247.2 15.2447 247.064C15.4767 246.928 15.6647 246.736 15.8087 246.488C15.9527 246.24 16.0567 245.948 16.1207 245.612C16.1927 245.276 16.2287 244.904 16.2287 244.496V243.128C16.2287 242.72 16.1927 242.348 16.1207 242.012C16.0567 241.676 15.9527 241.384 15.8087 241.136C15.6647 240.888 15.4767 240.696 15.2447 240.56C15.0127 240.424 14.7327 240.356 14.4047 240.356C14.0767 240.356 13.7967 240.424 13.5647 240.56C13.3327 240.696 13.1447 240.888 13.0007 241.136C12.8567 241.384 12.7487 241.676 12.6767 242.012C12.6127 242.348 12.5807 242.72 12.5807 243.128V244.496C12.5807 244.904 12.6127 245.276 12.6767 245.612C12.7487 245.948 12.8567 246.24 13.0007 246.488C13.1447 246.736 13.3327 246.928 13.5647 247.064C13.7967 247.2 14.0767 247.268 14.4047 247.268Z" fill="white"/>
<path d="M4.66538 148V147.112H7.00538V140.368H6.92138L4.80938 142.336L4.22138 141.7L6.44138 139.624H8.01338V147.112H10.1734V148H4.66538ZM14.4047 148.144C13.4047 148.144 12.6727 147.764 12.2087 147.004C11.7527 146.244 11.5247 145.18 11.5247 143.812C11.5247 142.444 11.7527 141.38 12.2087 140.62C12.6727 139.86 13.4047 139.48 14.4047 139.48C15.4047 139.48 16.1327 139.86 16.5887 140.62C17.0527 141.38 17.2847 142.444 17.2847 143.812C17.2847 145.18 17.0527 146.244 16.5887 147.004C16.1327 147.764 15.4047 148.144 14.4047 148.144ZM14.4047 147.268C14.7327 147.268 15.0127 147.2 15.2447 147.064C15.4767 146.928 15.6647 146.736 15.8087 146.488C15.9527 146.24 16.0567 145.948 16.1207 145.612C16.1927 145.276 16.2287 144.904 16.2287 144.496V143.128C16.2287 142.72 16.1927 142.348 16.1207 142.012C16.0567 141.676 15.9527 141.384 15.8087 141.136C15.6647 140.888 15.4767 140.696 15.2447 140.56C15.0127 140.424 14.7327 140.356 14.4047 140.356C14.0767 140.356 13.7967 140.424 13.5647 140.56C13.3327 140.696 13.1447 140.888 13.0007 141.136C12.8567 141.384 12.7487 141.676 12.6767 142.012C12.6127 142.348 12.5807 142.72 12.5807 143.128V144.496C12.5807 144.904 12.6127 145.276 12.6767 145.612C12.7487 145.948 12.8567 146.24 13.0007 146.488C13.1447 146.736 13.3327 146.928 13.5647 147.064C13.7967 147.2 14.0767 147.268 14.4047 147.268Z" fill="white"/>
<path d="M10.0054 48H4.50938V46.968L7.24538 44.448C7.63738 44.088 7.96538 43.708 8.22938 43.308C8.49338 42.9 8.62538 42.492 8.62538 42.084V41.94C8.62538 41.476 8.49738 41.1 8.24138 40.812C7.98538 40.524 7.59738 40.38 7.07738 40.38C6.82138 40.38 6.59738 40.416 6.40538 40.488C6.21338 40.56 6.04538 40.66 5.90138 40.788C5.76538 40.916 5.64938 41.068 5.55338 41.244C5.46538 41.412 5.39338 41.596 5.33738 41.796L4.43738 41.448C4.51738 41.2 4.62538 40.96 4.76138 40.728C4.90538 40.488 5.08138 40.276 5.28938 40.092C5.50538 39.908 5.76138 39.76 6.05738 39.648C6.36138 39.536 6.71738 39.48 7.12538 39.48C7.53338 39.48 7.89738 39.54 8.21738 39.66C8.53738 39.78 8.80538 39.948 9.02138 40.164C9.23738 40.38 9.40138 40.636 9.51338 40.932C9.63338 41.228 9.69338 41.556 9.69338 41.916C9.69338 42.244 9.64538 42.548 9.54938 42.828C9.46138 43.108 9.33738 43.376 9.17738 43.632C9.01738 43.88 8.82138 44.124 8.58938 44.364C8.36538 44.604 8.12138 44.844 7.85738 45.084L5.60138 47.112H10.0054V48ZM14.4047 48.144C13.4047 48.144 12.6727 47.764 12.2087 47.004C11.7527 46.244 11.5247 45.18 11.5247 43.812C11.5247 42.444 11.7527 41.38 12.2087 40.62C12.6727 39.86 13.4047 39.48 14.4047 39.48C15.4047 39.48 16.1327 39.86 16.5887 40.62C17.0527 41.38 17.2847 42.444 17.2847 43.812C17.2847 45.18 17.0527 46.244 16.5887 47.004C16.1327 47.764 15.4047 48.144 14.4047 48.144ZM14.4047 47.268C14.7327 47.268 15.0127 47.2 15.2447 47.064C15.4767 46.928 15.6647 46.736 15.8087 46.488C15.9527 46.24 16.0567 45.948 16.1207 45.612C16.1927 45.276 16.2287 44.904 16.2287 44.496V43.128C16.2287 42.72 16.1927 42.348 16.1207 42.012C16.0567 41.676 15.9527 41.384 15.8087 41.136C15.6647 40.888 15.4767 40.696 15.2447 40.56C15.0127 40.424 14.7327 40.356 14.4047 40.356C14.0767 40.356 13.7967 40.424 13.5647 40.56C13.3327 40.696 13.1447 40.888 13.0007 41.136C12.8567 41.384 12.7487 41.676 12.6767 42.012C12.6127 42.348 12.5807 42.72 12.5807 43.128V44.496C12.5807 44.904 12.6127 45.276 12.6767 45.612C12.7487 45.948 12.8567 46.24 13.0007 46.488C13.1447 46.736 13.3327 46.928 13.5647 47.064C13.7967 47.2 14.0767 47.268 14.4047 47.268Z" fill="white"/>
<path d="M39.816 296H31.912V293.808L35.352 290.864C35.6613 290.597 35.9227 290.357 36.136 290.144C36.3493 289.92 36.52 289.707 36.648 289.504C36.7867 289.291 36.8827 289.083 36.936 288.88C37 288.677 37.032 288.459 37.032 288.224V288C37.032 287.787 36.9893 287.6 36.904 287.44C36.8187 287.28 36.7067 287.147 36.568 287.04C36.4293 286.933 36.2693 286.853 36.088 286.8C35.9173 286.747 35.7413 286.72 35.56 286.72C35.2933 286.72 35.0587 286.763 34.856 286.848C34.664 286.933 34.4933 287.051 34.344 287.2C34.2053 287.339 34.088 287.504 33.992 287.696C33.896 287.877 33.8213 288.075 33.768 288.288L31.672 287.488C31.8 287.104 31.976 286.741 32.2 286.4C32.424 286.048 32.7013 285.744 33.032 285.488C33.3733 285.221 33.7733 285.013 34.232 284.864C34.6907 284.715 35.208 284.64 35.784 284.64C36.392 284.64 36.9307 284.725 37.4 284.896C37.8693 285.067 38.264 285.301 38.584 285.6C38.9147 285.899 39.1653 286.256 39.336 286.672C39.5067 287.077 39.592 287.52 39.592 288C39.592 288.48 39.512 288.917 39.352 289.312C39.192 289.707 38.9733 290.08 38.696 290.432C38.4293 290.773 38.1147 291.099 37.752 291.408C37.3893 291.717 37.0107 292.032 36.616 292.352L34.536 293.984H39.816V296ZM45.3938 296.192C43.9324 296.192 42.8498 295.685 42.1458 294.672C41.4418 293.659 41.0898 292.24 41.0898 290.416C41.0898 288.592 41.4418 287.173 42.1458 286.16C42.8498 285.147 43.9324 284.64 45.3938 284.64C46.8551 284.64 47.9378 285.147 48.6418 286.16C49.3458 287.173 49.6978 288.592 49.6978 290.416C49.6978 292.24 49.3458 293.659 48.6418 294.672C47.9378 295.685 46.8551 296.192 45.3938 296.192ZM45.3938 294.16C46.0338 294.16 46.4764 293.925 46.7218 293.456C46.9671 292.987 47.0898 292.325 47.0898 291.472V289.36C47.0898 288.507 46.9671 287.845 46.7218 287.376C46.4764 286.907 46.0338 286.672 45.3938 286.672C44.7538 286.672 44.3111 286.907 44.0658 287.376C43.8204 287.845 43.6978 288.507 43.6978 289.36V291.472C43.6978 292.325 43.8204 292.987 44.0658 293.456C44.3111 293.925 44.7538 294.16 45.3938 294.16ZM59.0035 296H51.0995V293.808L54.5395 290.864C54.8488 290.597 55.1102 290.357 55.3235 290.144C55.5368 289.92 55.7075 289.707 55.8355 289.504C55.9742 289.291 56.0702 289.083 56.1235 288.88C56.1875 288.677 56.2195 288.459 56.2195 288.224V288C56.2195 287.787 56.1768 287.6 56.0915 287.44C56.0062 287.28 55.8942 287.147 55.7555 287.04C55.6168 286.933 55.4568 286.853 55.2755 286.8C55.1048 286.747 54.9288 286.72 54.7475 286.72C54.4808 286.72 54.2462 286.763 54.0435 286.848C53.8515 286.933 53.6808 287.051 53.5315 287.2C53.3928 287.339 53.2755 287.504 53.1795 287.696C53.0835 287.877 53.0088 288.075 52.9555 288.288L50.8595 287.488C50.9875 287.104 51.1635 286.741 51.3875 286.4C51.6115 286.048 51.8888 285.744 52.2195 285.488C52.5608 285.221 52.9608 285.013 53.4195 284.864C53.8782 284.715 54.3955 284.64 54.9715 284.64C55.5795 284.64 56.1182 284.725 56.5875 284.896C57.0568 285.067 57.4515 285.301 57.7715 285.6C58.1022 285.899 58.3528 286.256 58.5235 286.672C58.6942 287.077 58.7795 287.52 58.7795 288C58.7795 288.48 58.6995 288.917 58.5395 289.312C58.3795 289.707 58.1608 290.08 57.8835 290.432C57.6168 290.773 57.3022 291.099 56.9395 291.408C56.5768 291.717 56.1982 292.032 55.8035 292.352L53.7235 293.984H59.0035V296ZM64.5813 296.192C63.1199 296.192 62.0373 295.685 61.3333 294.672C60.6293 293.659 60.2773 292.24 60.2773 290.416C60.2773 288.592 60.6293 287.173 61.3333 286.16C62.0373 285.147 63.1199 284.64 64.5813 284.64C66.0426 284.64 67.1253 285.147 67.8293 286.16C68.5333 287.173 68.8853 288.592 68.8853 290.416C68.8853 292.24 68.5333 293.659 67.8293 294.672C67.1253 295.685 66.0426 296.192 64.5813 296.192ZM64.5813 294.16C65.2213 294.16 65.6639 293.925 65.9093 293.456C66.1546 292.987 66.2773 292.325 66.2773 291.472V289.36C66.2773 288.507 66.1546 287.845 65.9093 287.376C65.6639 286.907 65.2213 286.672 64.5813 286.672C63.9413 286.672 63.4986 286.907 63.2533 287.376C63.0079 287.845 62.8853 288.507 62.8853 289.36V291.472C62.8853 292.325 63.0079 292.987 63.2533 293.456C63.4986 293.925 63.9413 294.16 64.5813 294.16Z" fill="white"/>
<path d="M167.816 296H159.912V293.808L163.352 290.864C163.661 290.597 163.923 290.357 164.136 290.144C164.349 289.92 164.52 289.707 164.648 289.504C164.787 289.291 164.883 289.083 164.936 288.88C165 288.677 165.032 288.459 165.032 288.224V288C165.032 287.787 164.989 287.6 164.904 287.44C164.819 287.28 164.707 287.147 164.568 287.04C164.429 286.933 164.269 286.853 164.088 286.8C163.917 286.747 163.741 286.72 163.56 286.72C163.293 286.72 163.059 286.763 162.856 286.848C162.664 286.933 162.493 287.051 162.344 287.2C162.205 287.339 162.088 287.504 161.992 287.696C161.896 287.877 161.821 288.075 161.768 288.288L159.672 287.488C159.8 287.104 159.976 286.741 160.2 286.4C160.424 286.048 160.701 285.744 161.032 285.488C161.373 285.221 161.773 285.013 162.232 284.864C162.691 284.715 163.208 284.64 163.784 284.64C164.392 284.64 164.931 284.725 165.4 284.896C165.869 285.067 166.264 285.301 166.584 285.6C166.915 285.899 167.165 286.256 167.336 286.672C167.507 287.077 167.592 287.52 167.592 288C167.592 288.48 167.512 288.917 167.352 289.312C167.192 289.707 166.973 290.08 166.696 290.432C166.429 290.773 166.115 291.099 165.752 291.408C165.389 291.717 165.011 292.032 164.616 292.352L162.536 293.984H167.816V296ZM173.394 296.192C171.932 296.192 170.85 295.685 170.146 294.672C169.442 293.659 169.09 292.24 169.09 290.416C169.09 288.592 169.442 287.173 170.146 286.16C170.85 285.147 171.932 284.64 173.394 284.64C174.855 284.64 175.938 285.147 176.642 286.16C177.346 287.173 177.698 288.592 177.698 290.416C177.698 292.24 177.346 293.659 176.642 294.672C175.938 295.685 174.855 296.192 173.394 296.192ZM173.394 294.16C174.034 294.16 174.476 293.925 174.722 293.456C174.967 292.987 175.09 292.325 175.09 291.472V289.36C175.09 288.507 174.967 287.845 174.722 287.376C174.476 286.907 174.034 286.672 173.394 286.672C172.754 286.672 172.311 286.907 172.066 287.376C171.82 287.845 171.698 288.507 171.698 289.36V291.472C171.698 292.325 171.82 292.987 172.066 293.456C172.311 293.925 172.754 294.16 173.394 294.16ZM187.003 296H179.1V293.808L182.54 290.864C182.849 290.597 183.11 290.357 183.324 290.144C183.537 289.92 183.708 289.707 183.836 289.504C183.974 289.291 184.07 289.083 184.124 288.88C184.188 288.677 184.22 288.459 184.22 288.224V288C184.22 287.787 184.177 287.6 184.092 287.44C184.006 287.28 183.894 287.147 183.756 287.04C183.617 286.933 183.457 286.853 183.276 286.8C183.105 286.747 182.929 286.72 182.748 286.72C182.481 286.72 182.246 286.763 182.044 286.848C181.852 286.933 181.681 287.051 181.532 287.2C181.393 287.339 181.276 287.504 181.18 287.696C181.084 287.877 181.009 288.075 180.956 288.288L178.86 287.488C178.988 287.104 179.164 286.741 179.388 286.4C179.612 286.048 179.889 285.744 180.22 285.488C180.561 285.221 180.961 285.013 181.42 284.864C181.878 284.715 182.396 284.64 182.972 284.64C183.58 284.64 184.118 284.725 184.588 284.896C185.057 285.067 185.452 285.301 185.772 285.6C186.102 285.899 186.353 286.256 186.524 286.672C186.694 287.077 186.78 287.52 186.78 288C186.78 288.48 186.7 288.917 186.54 289.312C186.38 289.707 186.161 290.08 185.884 290.432C185.617 290.773 185.302 291.099 184.94 291.408C184.577 291.717 184.198 292.032 183.804 292.352L181.724 293.984H187.003V296ZM189.285 296V294.064H192.293V286.576H192.149L189.877 289.552L188.341 288.352L191.013 284.832H194.693V294.064H197.061V296H189.285Z" fill="white"/>
<path d="M280.468 57.144C279.788 57.144 279.208 57.016 278.728 56.76C278.248 56.496 277.84 56.136 277.504 55.68L278.248 55.056C278.544 55.448 278.872 55.748 279.232 55.956C279.592 56.156 280.016 56.256 280.504 56.256C281.104 56.256 281.56 56.112 281.872 55.824C282.192 55.536 282.352 55.152 282.352 54.672C282.352 54.272 282.232 53.964 281.992 53.748C281.752 53.532 281.356 53.36 280.804 53.232L280.12 53.076C279.352 52.9 278.764 52.636 278.356 52.284C277.956 51.924 277.756 51.42 277.756 50.772C277.756 50.404 277.824 50.076 277.96 49.788C278.096 49.5 278.284 49.26 278.524 49.068C278.772 48.876 279.064 48.732 279.4 48.636C279.744 48.532 280.12 48.48 280.528 48.48C281.16 48.48 281.7 48.596 282.148 48.828C282.604 49.06 282.988 49.4 283.3 49.848L282.544 50.4C282.312 50.08 282.032 49.828 281.704 49.644C281.376 49.46 280.968 49.368 280.48 49.368C279.944 49.368 279.52 49.484 279.208 49.716C278.904 49.94 278.752 50.28 278.752 50.736C278.752 51.136 278.88 51.44 279.136 51.648C279.4 51.848 279.796 52.008 280.324 52.128L281.008 52.284C281.832 52.468 282.428 52.748 282.796 53.124C283.164 53.5 283.348 54 283.348 54.624C283.348 55.008 283.28 55.356 283.144 55.668C283.016 55.98 282.828 56.244 282.58 56.46C282.332 56.676 282.028 56.844 281.668 56.964C281.316 57.084 280.916 57.144 280.468 57.144ZM288.809 55.992H288.761C288.697 56.136 288.617 56.28 288.521 56.424C288.433 56.56 288.321 56.684 288.185 56.796C288.049 56.9 287.885 56.984 287.693 57.048C287.501 57.112 287.277 57.144 287.021 57.144C286.381 57.144 285.873 56.94 285.497 56.532C285.121 56.116 284.933 55.532 284.933 54.78V50.808H285.893V54.612C285.893 55.724 286.365 56.28 287.309 56.28C287.501 56.28 287.685 56.256 287.861 56.208C288.045 56.16 288.205 56.088 288.341 55.992C288.485 55.896 288.597 55.776 288.677 55.632C288.765 55.48 288.809 55.3 288.809 55.092V50.808H289.769V57H288.809V55.992ZM291.813 48.12H292.773V51.816H292.821C292.981 51.424 293.213 51.136 293.517 50.952C293.829 50.76 294.201 50.664 294.633 50.664C295.017 50.664 295.365 50.74 295.677 50.892C295.989 51.044 296.253 51.26 296.469 51.54C296.693 51.82 296.861 52.16 296.973 52.56C297.093 52.96 297.153 53.408 297.153 53.904C297.153 54.4 297.093 54.848 296.973 55.248C296.861 55.648 296.693 55.988 296.469 56.268C296.253 56.548 295.989 56.764 295.677 56.916C295.365 57.068 295.017 57.144 294.633 57.144C293.793 57.144 293.189 56.76 292.821 55.992H292.773V57H291.813V48.12ZM294.369 56.28C294.913 56.28 295.341 56.112 295.653 55.776C295.965 55.432 296.121 54.984 296.121 54.432V53.376C296.121 52.824 295.965 52.38 295.653 52.044C295.341 51.7 294.913 51.528 294.369 51.528C294.153 51.528 293.945 51.56 293.745 51.624C293.553 51.68 293.385 51.76 293.241 51.864C293.097 51.968 292.981 52.096 292.893 52.248C292.813 52.392 292.773 52.548 292.773 52.716V55.02C292.773 55.22 292.813 55.4 292.893 55.56C292.981 55.712 293.097 55.844 293.241 55.956C293.385 56.06 293.553 56.14 293.745 56.196C293.945 56.252 294.153 56.28 294.369 56.28ZM300.634 57.144C300.058 57.144 299.574 57.036 299.182 56.82C298.798 56.596 298.466 56.3 298.186 55.932L298.87 55.38C299.11 55.684 299.378 55.92 299.674 56.088C299.97 56.248 300.314 56.328 300.706 56.328C301.114 56.328 301.43 56.24 301.654 56.064C301.886 55.888 302.002 55.64 302.002 55.32C302.002 55.08 301.922 54.876 301.762 54.708C301.61 54.532 301.33 54.412 300.922 54.348L300.43 54.276C300.142 54.236 299.878 54.176 299.638 54.096C299.398 54.008 299.186 53.896 299.002 53.76C298.826 53.616 298.686 53.44 298.582 53.232C298.486 53.024 298.438 52.776 298.438 52.488C298.438 52.184 298.494 51.92 298.606 51.696C298.718 51.464 298.87 51.272 299.062 51.12C299.262 50.968 299.498 50.856 299.77 50.784C300.042 50.704 300.334 50.664 300.646 50.664C301.15 50.664 301.57 50.752 301.906 50.928C302.25 51.104 302.55 51.348 302.806 51.66L302.17 52.236C302.034 52.044 301.834 51.872 301.57 51.72C301.306 51.56 300.974 51.48 300.574 51.48C300.174 51.48 299.87 51.568 299.662 51.744C299.462 51.912 299.362 52.144 299.362 52.44C299.362 52.744 299.462 52.964 299.662 53.1C299.87 53.236 300.166 53.336 300.55 53.4L301.03 53.472C301.718 53.576 302.206 53.776 302.494 54.072C302.782 54.36 302.926 54.74 302.926 55.212C302.926 55.812 302.722 56.284 302.314 56.628C301.906 56.972 301.346 57.144 300.634 57.144ZM305.908 57C305.572 57 305.316 56.908 305.14 56.724C304.972 56.532 304.888 56.284 304.888 55.98V51.648H303.868V50.808H304.444C304.652 50.808 304.792 50.768 304.864 50.688C304.944 50.6 304.984 50.452 304.984 50.244V49.092H305.848V50.808H307.204V51.648H305.848V56.16H307.108V57H305.908ZM309.227 49.356C309.019 49.356 308.867 49.308 308.771 49.212C308.683 49.108 308.639 48.976 308.639 48.816V48.66C308.639 48.5 308.683 48.372 308.771 48.276C308.867 48.172 309.019 48.12 309.227 48.12C309.435 48.12 309.583 48.172 309.671 48.276C309.767 48.372 309.815 48.5 309.815 48.66V48.816C309.815 48.976 309.767 49.108 309.671 49.212C309.583 49.308 309.435 49.356 309.227 49.356ZM308.747 50.808H309.707V57H308.747V50.808ZM313.115 57C312.779 57 312.523 56.908 312.347 56.724C312.179 56.532 312.095 56.284 312.095 55.98V51.648H311.075V50.808H311.651C311.859 50.808 311.999 50.768 312.071 50.688C312.151 50.6 312.191 50.452 312.191 50.244V49.092H313.055V50.808H314.411V51.648H313.055V56.16H314.315V57H313.115ZM319.77 55.992H319.722C319.658 56.136 319.578 56.28 319.482 56.424C319.394 56.56 319.282 56.684 319.146 56.796C319.01 56.9 318.846 56.984 318.654 57.048C318.462 57.112 318.238 57.144 317.982 57.144C317.342 57.144 316.834 56.94 316.458 56.532C316.082 56.116 315.894 55.532 315.894 54.78V50.808H316.854V54.612C316.854 55.724 317.326 56.28 318.27 56.28C318.462 56.28 318.646 56.256 318.822 56.208C319.006 56.16 319.166 56.088 319.302 55.992C319.446 55.896 319.558 55.776 319.638 55.632C319.726 55.48 319.77 55.3 319.77 55.092V50.808H320.73V57H319.77V55.992ZM324.142 57C323.806 57 323.55 56.908 323.374 56.724C323.206 56.532 323.122 56.284 323.122 55.98V51.648H322.102V50.808H322.678C322.886 50.808 323.026 50.768 323.098 50.688C323.178 50.6 323.218 50.452 323.218 50.244V49.092H324.082V50.808H325.438V51.648H324.082V56.16H325.342V57H324.142ZM327.461 49.356C327.253 49.356 327.101 49.308 327.005 49.212C326.917 49.108 326.873 48.976 326.873 48.816V48.66C326.873 48.5 326.917 48.372 327.005 48.276C327.101 48.172 327.253 48.12 327.461 48.12C327.669 48.12 327.817 48.172 327.905 48.276C328.001 48.372 328.049 48.5 328.049 48.66V48.816C328.049 48.976 328.001 49.108 327.905 49.212C327.817 49.308 327.669 49.356 327.461 49.356ZM326.981 50.808H327.941V57H326.981V50.808ZM329.981 57V50.808H330.941V51.816H330.989C331.141 51.464 331.353 51.184 331.625 50.976C331.905 50.768 332.277 50.664 332.741 50.664C333.381 50.664 333.885 50.872 334.253 51.288C334.629 51.696 334.817 52.276 334.817 53.028V57H333.857V53.196C333.857 52.084 333.389 51.528 332.453 51.528C332.261 51.528 332.073 51.552 331.889 51.6C331.713 51.648 331.553 51.72 331.409 51.816C331.265 51.912 331.149 52.036 331.061 52.188C330.981 52.332 330.941 52.504 330.941 52.704V57H329.981ZM342.021 57.684C342.021 58.324 341.769 58.792 341.265 59.088C340.769 59.392 340.021 59.544 339.021 59.544C338.053 59.544 337.357 59.412 336.933 59.148C336.509 58.884 336.297 58.508 336.297 58.02C336.297 57.684 336.385 57.42 336.561 57.228C336.737 57.044 336.977 56.908 337.281 56.82V56.688C336.913 56.512 336.729 56.224 336.729 55.824C336.729 55.512 336.829 55.276 337.029 55.116C337.229 54.948 337.485 54.824 337.797 54.744V54.696C337.429 54.52 337.141 54.268 336.933 53.94C336.733 53.612 336.633 53.232 336.633 52.8C336.633 52.488 336.689 52.2 336.801 51.936C336.913 51.672 337.069 51.448 337.269 51.264C337.477 51.072 337.721 50.924 338.001 50.82C338.289 50.716 338.609 50.664 338.961 50.664C339.401 50.664 339.793 50.744 340.137 50.904V50.796C340.137 50.556 340.193 50.36 340.305 50.208C340.417 50.048 340.601 49.968 340.857 49.968H341.781V50.808H340.605V51.204C340.829 51.396 341.001 51.628 341.121 51.9C341.249 52.164 341.313 52.464 341.313 52.8C341.313 53.112 341.257 53.4 341.145 53.664C341.033 53.928 340.873 54.156 340.665 54.348C340.465 54.532 340.221 54.676 339.933 54.78C339.645 54.884 339.325 54.936 338.973 54.936C338.773 54.936 338.573 54.916 338.373 54.876C338.165 54.932 337.977 55.016 337.809 55.128C337.641 55.232 337.557 55.38 337.557 55.572C337.557 55.756 337.645 55.88 337.821 55.944C337.997 56.008 338.225 56.04 338.505 56.04H339.825C340.593 56.04 341.149 56.188 341.493 56.484C341.845 56.772 342.021 57.172 342.021 57.684ZM341.121 57.756C341.121 57.508 341.025 57.308 340.833 57.156C340.649 57.012 340.317 56.94 339.837 56.94H337.773C337.389 57.116 337.197 57.396 337.197 57.78C337.197 58.052 337.297 58.284 337.497 58.476C337.705 58.668 338.053 58.764 338.541 58.764H339.429C339.965 58.764 340.381 58.68 340.677 58.512C340.973 58.344 341.121 58.092 341.121 57.756ZM338.973 54.168C339.381 54.168 339.705 54.072 339.945 53.88C340.185 53.68 340.305 53.376 340.305 52.968V52.632C340.305 52.224 340.185 51.924 339.945 51.732C339.705 51.532 339.381 51.432 338.973 51.432C338.565 51.432 338.241 51.532 338.001 51.732C337.761 51.924 337.641 52.224 337.641 52.632V52.968C337.641 53.376 337.761 53.68 338.001 53.88C338.241 54.072 338.565 54.168 338.973 54.168ZM346.313 51.648H345.305V50.808H346.313V49.56C346.313 49.128 346.425 48.78 346.649 48.516C346.873 48.252 347.213 48.12 347.669 48.12H348.605V48.96H347.273V50.808H348.605V51.648H347.273V57H346.313V51.648ZM352.161 57.144C351.745 57.144 351.365 57.068 351.021 56.916C350.677 56.764 350.381 56.548 350.133 56.268C349.893 55.98 349.705 55.64 349.569 55.248C349.433 54.848 349.365 54.4 349.365 53.904C349.365 53.416 349.433 52.972 349.569 52.572C349.705 52.172 349.893 51.832 350.133 51.552C350.381 51.264 350.677 51.044 351.021 50.892C351.365 50.74 351.745 50.664 352.161 50.664C352.577 50.664 352.953 50.74 353.289 50.892C353.633 51.044 353.929 51.264 354.177 51.552C354.425 51.832 354.617 52.172 354.753 52.572C354.889 52.972 354.957 53.416 354.957 53.904C354.957 54.4 354.889 54.848 354.753 55.248C354.617 55.64 354.425 55.98 354.177 56.268C353.929 56.548 353.633 56.764 353.289 56.916C352.953 57.068 352.577 57.144 352.161 57.144ZM352.161 56.292C352.681 56.292 353.105 56.132 353.433 55.812C353.761 55.492 353.925 55.004 353.925 54.348V53.46C353.925 52.804 353.761 52.316 353.433 51.996C353.105 51.676 352.681 51.516 352.161 51.516C351.641 51.516 351.217 51.676 350.889 51.996C350.561 52.316 350.397 52.804 350.397 53.46V54.348C350.397 55.004 350.561 55.492 350.889 55.812C351.217 56.132 351.641 56.292 352.161 56.292ZM356.536 57V50.808H357.496V51.948H357.556C357.668 51.652 357.868 51.388 358.156 51.156C358.444 50.924 358.84 50.808 359.344 50.808H359.716V51.768H359.152C358.632 51.768 358.224 51.868 357.928 52.068C357.64 52.26 357.496 52.504 357.496 52.8V57H356.536ZM282.52 73C282.16 73 281.9 72.904 281.74 72.712C281.588 72.52 281.492 72.28 281.452 71.992H281.392C281.256 72.376 281.032 72.664 280.72 72.856C280.408 73.048 280.036 73.144 279.604 73.144C278.948 73.144 278.436 72.976 278.068 72.64C277.708 72.304 277.528 71.848 277.528 71.272C277.528 70.688 277.74 70.24 278.164 69.928C278.596 69.616 279.264 69.46 280.168 69.46H281.392V68.848C281.392 68.408 281.272 68.072 281.032 67.84C280.792 67.608 280.424 67.492 279.928 67.492C279.552 67.492 279.236 67.576 278.98 67.744C278.732 67.912 278.524 68.136 278.356 68.416L277.78 67.876C277.948 67.54 278.216 67.256 278.584 67.024C278.952 66.784 279.416 66.664 279.976 66.664C280.728 66.664 281.312 66.848 281.728 67.216C282.144 67.584 282.352 68.096 282.352 68.752V72.16H283.06V73H282.52ZM279.76 72.328C280 72.328 280.22 72.3 280.42 72.244C280.62 72.188 280.792 72.108 280.936 72.004C281.08 71.9 281.192 71.78 281.272 71.644C281.352 71.508 281.392 71.36 281.392 71.2V70.18H280.12C279.568 70.18 279.164 70.26 278.908 70.42C278.66 70.58 278.536 70.812 278.536 71.116V71.368C278.536 71.672 278.644 71.908 278.86 72.076C279.084 72.244 279.384 72.328 279.76 72.328ZM284.43 64.12H285.39V67.816H285.438C285.598 67.424 285.83 67.136 286.134 66.952C286.446 66.76 286.818 66.664 287.25 66.664C287.634 66.664 287.982 66.74 288.294 66.892C288.606 67.044 288.87 67.26 289.086 67.54C289.31 67.82 289.478 68.16 289.59 68.56C289.71 68.96 289.77 69.408 289.77 69.904C289.77 70.4 289.71 70.848 289.59 71.248C289.478 71.648 289.31 71.988 289.086 72.268C288.87 72.548 288.606 72.764 288.294 72.916C287.982 73.068 287.634 73.144 287.25 73.144C286.41 73.144 285.806 72.76 285.438 71.992H285.39V73H284.43V64.12ZM286.986 72.28C287.53 72.28 287.958 72.112 288.27 71.776C288.582 71.432 288.738 70.984 288.738 70.432V69.376C288.738 68.824 288.582 68.38 288.27 68.044C287.958 67.7 287.53 67.528 286.986 67.528C286.77 67.528 286.562 67.56 286.362 67.624C286.17 67.68 286.002 67.76 285.858 67.864C285.714 67.968 285.598 68.096 285.51 68.248C285.43 68.392 285.39 68.548 285.39 68.716V71.02C285.39 71.22 285.43 71.4 285.51 71.56C285.598 71.712 285.714 71.844 285.858 71.956C286.002 72.06 286.17 72.14 286.362 72.196C286.562 72.252 286.77 72.28 286.986 72.28ZM293.251 73.144C292.675 73.144 292.191 73.036 291.799 72.82C291.415 72.596 291.083 72.3 290.803 71.932L291.487 71.38C291.727 71.684 291.995 71.92 292.291 72.088C292.587 72.248 292.931 72.328 293.323 72.328C293.731 72.328 294.047 72.24 294.271 72.064C294.503 71.888 294.619 71.64 294.619 71.32C294.619 71.08 294.539 70.876 294.379 70.708C294.227 70.532 293.947 70.412 293.539 70.348L293.047 70.276C292.759 70.236 292.495 70.176 292.255 70.096C292.015 70.008 291.803 69.896 291.619 69.76C291.443 69.616 291.303 69.44 291.199 69.232C291.103 69.024 291.055 68.776 291.055 68.488C291.055 68.184 291.111 67.92 291.223 67.696C291.335 67.464 291.487 67.272 291.679 67.12C291.879 66.968 292.115 66.856 292.387 66.784C292.659 66.704 292.951 66.664 293.263 66.664C293.767 66.664 294.187 66.752 294.523 66.928C294.867 67.104 295.167 67.348 295.423 67.66L294.787 68.236C294.651 68.044 294.451 67.872 294.187 67.72C293.923 67.56 293.591 67.48 293.191 67.48C292.791 67.48 292.487 67.568 292.279 67.744C292.079 67.912 291.979 68.144 291.979 68.44C291.979 68.744 292.079 68.964 292.279 69.1C292.487 69.236 292.783 69.336 293.167 69.4L293.647 69.472C294.335 69.576 294.823 69.776 295.111 70.072C295.399 70.36 295.543 70.74 295.543 71.212C295.543 71.812 295.339 72.284 294.931 72.628C294.523 72.972 293.963 73.144 293.251 73.144ZM299.567 73.144C299.143 73.144 298.759 73.068 298.415 72.916C298.079 72.764 297.787 72.548 297.539 72.268C297.299 71.98 297.111 71.64 296.975 71.248C296.847 70.848 296.783 70.4 296.783 69.904C296.783 69.416 296.847 68.972 296.975 68.572C297.111 68.172 297.299 67.832 297.539 67.552C297.787 67.264 298.079 67.044 298.415 66.892C298.759 66.74 299.143 66.664 299.567 66.664C299.983 66.664 300.355 66.74 300.683 66.892C301.011 67.044 301.291 67.256 301.523 67.528C301.755 67.792 301.931 68.108 302.051 68.476C302.179 68.844 302.243 69.248 302.243 69.688V70.144H297.791V70.432C297.791 70.696 297.831 70.944 297.911 71.176C297.999 71.4 298.119 71.596 298.271 71.764C298.431 71.932 298.623 72.064 298.847 72.16C299.079 72.256 299.339 72.304 299.627 72.304C300.019 72.304 300.359 72.212 300.647 72.028C300.943 71.844 301.171 71.58 301.331 71.236L302.015 71.728C301.815 72.152 301.503 72.496 301.079 72.76C300.655 73.016 300.151 73.144 299.567 73.144ZM299.567 67.468C299.303 67.468 299.063 67.516 298.847 67.612C298.631 67.7 298.443 67.828 298.283 67.996C298.131 68.164 298.011 68.364 297.923 68.596C297.835 68.82 297.791 69.068 297.791 69.34V69.424H301.211V69.292C301.211 68.74 301.059 68.3 300.755 67.972C300.459 67.636 300.063 67.468 299.567 67.468ZM303.825 73V66.808H304.785V67.816H304.833C304.985 67.464 305.197 67.184 305.469 66.976C305.749 66.768 306.121 66.664 306.585 66.664C307.225 66.664 307.729 66.872 308.097 67.288C308.473 67.696 308.661 68.276 308.661 69.028V73H307.701V69.196C307.701 68.084 307.233 67.528 306.297 67.528C306.105 67.528 305.917 67.552 305.733 67.6C305.557 67.648 305.397 67.72 305.253 67.816C305.109 67.912 304.993 68.036 304.905 68.188C304.825 68.332 304.785 68.504 304.785 68.704V73H303.825ZM312.013 73C311.677 73 311.421 72.908 311.245 72.724C311.077 72.532 310.993 72.284 310.993 71.98V67.648H309.973V66.808H310.549C310.757 66.808 310.897 66.768 310.969 66.688C311.049 66.6 311.089 66.452 311.089 66.244V65.092H311.953V66.808H313.309V67.648H311.953V72.16H313.213V73H312.013ZM317.688 73V66.808H318.648V67.816H318.696C318.768 67.656 318.848 67.508 318.936 67.372C319.032 67.228 319.144 67.104 319.272 67C319.408 66.896 319.564 66.816 319.74 66.76C319.916 66.696 320.124 66.664 320.364 66.664C320.772 66.664 321.148 66.764 321.492 66.964C321.836 67.156 322.092 67.476 322.26 67.924H322.284C322.396 67.588 322.604 67.296 322.908 67.048C323.22 66.792 323.64 66.664 324.168 66.664C324.8 66.664 325.292 66.872 325.644 67.288C326.004 67.696 326.184 68.276 326.184 69.028V73H325.224V69.196C325.224 68.644 325.116 68.228 324.9 67.948C324.684 67.668 324.34 67.528 323.868 67.528C323.676 67.528 323.492 67.552 323.316 67.6C323.148 67.648 322.996 67.72 322.86 67.816C322.724 67.912 322.616 68.036 322.536 68.188C322.456 68.332 322.416 68.504 322.416 68.704V73H321.456V69.196C321.456 68.644 321.348 68.228 321.132 67.948C320.916 67.668 320.58 67.528 320.124 67.528C319.932 67.528 319.748 67.552 319.572 67.6C319.396 67.648 319.24 67.72 319.104 67.816C318.968 67.912 318.856 68.036 318.768 68.188C318.688 68.332 318.648 68.504 318.648 68.704V73H317.688ZM330.493 73.144C330.069 73.144 329.685 73.068 329.341 72.916C329.005 72.764 328.713 72.548 328.465 72.268C328.225 71.98 328.037 71.64 327.901 71.248C327.773 70.848 327.709 70.4 327.709 69.904C327.709 69.416 327.773 68.972 327.901 68.572C328.037 68.172 328.225 67.832 328.465 67.552C328.713 67.264 329.005 67.044 329.341 66.892C329.685 66.74 330.069 66.664 330.493 66.664C330.909 66.664 331.281 66.74 331.609 66.892C331.937 67.044 332.217 67.256 332.449 67.528C332.681 67.792 332.857 68.108 332.977 68.476C333.105 68.844 333.169 69.248 333.169 69.688V70.144H328.717V70.432C328.717 70.696 328.757 70.944 328.837 71.176C328.925 71.4 329.045 71.596 329.197 71.764C329.357 71.932 329.549 72.064 329.773 72.16C330.005 72.256 330.265 72.304 330.553 72.304C330.945 72.304 331.285 72.212 331.573 72.028C331.869 71.844 332.097 71.58 332.257 71.236L332.941 71.728C332.741 72.152 332.429 72.496 332.005 72.76C331.581 73.016 331.077 73.144 330.493 73.144ZM330.493 67.468C330.229 67.468 329.989 67.516 329.773 67.612C329.557 67.7 329.369 67.828 329.209 67.996C329.057 68.164 328.937 68.364 328.849 68.596C328.761 68.82 328.717 69.068 328.717 69.34V69.424H332.137V69.292C332.137 68.74 331.985 68.3 331.681 67.972C331.385 67.636 330.989 67.468 330.493 67.468ZM334.75 73V66.808H335.71V67.816H335.758C335.91 67.464 336.122 67.184 336.394 66.976C336.674 66.768 337.046 66.664 337.51 66.664C338.15 66.664 338.654 66.872 339.022 67.288C339.398 67.696 339.586 68.276 339.586 69.028V73H338.626V69.196C338.626 68.084 338.158 67.528 337.222 67.528C337.03 67.528 336.842 67.552 336.658 67.6C336.482 67.648 336.322 67.72 336.178 67.816C336.034 67.912 335.918 68.036 335.83 68.188C335.75 68.332 335.71 68.504 335.71 68.704V73H334.75ZM342.939 73C342.603 73 342.347 72.908 342.171 72.724C342.003 72.532 341.919 72.284 341.919 71.98V67.648H340.899V66.808H341.475C341.683 66.808 341.823 66.768 341.895 66.688C341.975 66.6 342.015 66.452 342.015 66.244V65.092H342.879V66.808H344.235V67.648H342.879V72.16H344.139V73H342.939ZM348.071 73.144C347.655 73.144 347.275 73.068 346.931 72.916C346.587 72.764 346.291 72.548 346.043 72.268C345.803 71.98 345.615 71.64 345.479 71.248C345.343 70.848 345.275 70.4 345.275 69.904C345.275 69.416 345.343 68.972 345.479 68.572C345.615 68.172 345.803 67.832 346.043 67.552C346.291 67.264 346.587 67.044 346.931 66.892C347.275 66.74 347.655 66.664 348.071 66.664C348.487 66.664 348.863 66.74 349.199 66.892C349.543 67.044 349.839 67.264 350.087 67.552C350.335 67.832 350.527 68.172 350.663 68.572C350.799 68.972 350.867 69.416 350.867 69.904C350.867 70.4 350.799 70.848 350.663 71.248C350.527 71.64 350.335 71.98 350.087 72.268C349.839 72.548 349.543 72.764 349.199 72.916C348.863 73.068 348.487 73.144 348.071 73.144ZM348.071 72.292C348.591 72.292 349.015 72.132 349.343 71.812C349.671 71.492 349.835 71.004 349.835 70.348V69.46C349.835 68.804 349.671 68.316 349.343 67.996C349.015 67.676 348.591 67.516 348.071 67.516C347.551 67.516 347.127 67.676 346.799 67.996C346.471 68.316 346.307 68.804 346.307 69.46V70.348C346.307 71.004 346.471 71.492 346.799 71.812C347.127 72.132 347.551 72.292 348.071 72.292ZM352.446 73V66.808H353.406V67.948H353.466C353.578 67.652 353.778 67.388 354.066 67.156C354.354 66.924 354.75 66.808 355.254 66.808H355.626V67.768H355.062C354.542 67.768 354.134 67.868 353.838 68.068C353.55 68.26 353.406 68.504 353.406 68.8V73H352.446Z" fill="#CBD5E0"/>
<rect x="255" y="43" width="18" height="18" fill="#9F7AEA"/>
</svg>
