<svg width="375" height="318" viewBox="0 0 375 318" fill="none" xmlns="http://www.w3.org/2000/svg">
<path d="M3.222 18L11.934 5.436H14.31L5.598 18H3.222ZM4.14 12.348C3.084 12.348 2.28 12.048 1.728 11.448C1.176 10.848 0.9 9.96 0.9 8.784C0.9 7.608 1.176 6.72 1.728 6.12C2.28 5.52 3.084 5.22 4.14 5.22C5.196 5.22 6 5.52 6.552 6.12C7.104 6.72 7.38 7.608 7.38 8.784C7.38 9.96 7.104 10.848 6.552 11.448C6 12.048 5.196 12.348 4.14 12.348ZM4.14 10.8C4.452 10.8 4.686 10.68 4.842 10.44C4.998 10.188 5.076 9.792 5.076 9.252V8.316C5.076 7.776 4.998 7.386 4.842 7.146C4.686 6.894 4.452 6.768 4.14 6.768C3.828 6.768 3.594 6.894 3.438 7.146C3.282 7.386 3.204 7.776 3.204 8.316V9.252C3.204 9.792 3.282 10.188 3.438 10.44C3.594 10.68 3.828 10.8 4.14 10.8ZM13.392 18.216C12.336 18.216 11.532 17.916 10.98 17.316C10.428 16.716 10.152 15.828 10.152 14.652C10.152 13.476 10.428 12.588 10.98 11.988C11.532 11.388 12.336 11.088 13.392 11.088C14.448 11.088 15.252 11.388 15.804 11.988C16.356 12.588 16.632 13.476 16.632 14.652C16.632 15.828 16.356 16.716 15.804 17.316C15.252 17.916 14.448 18.216 13.392 18.216ZM13.392 16.668C13.704 16.668 13.938 16.548 14.094 16.308C14.25 16.056 14.328 15.66 14.328 15.12V14.184C14.328 13.644 14.25 13.254 14.094 13.014C13.938 12.762 13.704 12.636 13.392 12.636C13.08 12.636 12.846 12.762 12.69 13.014C12.534 13.254 12.456 13.644 12.456 14.184V15.12C12.456 15.66 12.534 16.056 12.69 16.308C12.846 16.548 13.08 16.668 13.392 16.668ZM22.6793 18V15.822H24.2993V7.614H22.6793V5.436H28.6553V7.614H27.0353V15.822H28.6553V18H22.6793ZM30.7908 18V8.55H33.4548V10.152H33.5628C33.7308 9.66 34.0248 9.234 34.4448 8.874C34.8648 8.514 35.4468 8.334 36.1908 8.334C37.1628 8.334 37.8948 8.658 38.3868 9.306C38.8908 9.954 39.1428 10.878 39.1428 12.078V18H36.4788V12.294C36.4788 11.682 36.3828 11.232 36.1908 10.944C35.9988 10.644 35.6568 10.494 35.1648 10.494C34.9488 10.494 34.7388 10.524 34.5348 10.584C34.3308 10.632 34.1448 10.716 33.9768 10.836C33.8208 10.956 33.6948 11.106 33.5988 11.286C33.5028 11.454 33.4548 11.652 33.4548 11.88V18H30.7908ZM45.3295 18.216C44.6215 18.216 43.9915 18.102 43.4395 17.874C42.8875 17.634 42.4255 17.304 42.0535 16.884C41.6815 16.452 41.3995 15.93 41.2075 15.318C41.0155 14.706 40.9195 14.022 40.9195 13.266C40.9195 12.51 41.0155 11.832 41.2075 11.232C41.3995 10.62 41.6815 10.098 42.0535 9.666C42.4255 9.234 42.8875 8.904 43.4395 8.676C43.9915 8.448 44.6215 8.334 45.3295 8.334C46.2895 8.334 47.0875 8.55 47.7235 8.982C48.3715 9.414 48.8335 10.02 49.1095 10.8L46.9495 11.736C46.8655 11.376 46.6915 11.07 46.4275 10.818C46.1635 10.566 45.7975 10.44 45.3295 10.44C44.7895 10.44 44.3815 10.62 44.1055 10.98C43.8295 11.328 43.6915 11.802 43.6915 12.402V14.166C43.6915 14.766 43.8295 15.24 44.1055 15.588C44.3815 15.936 44.7895 16.11 45.3295 16.11C45.8095 16.11 46.1875 15.984 46.4635 15.732C46.7515 15.468 46.9615 15.126 47.0935 14.706L49.1635 15.606C48.8515 16.506 48.3655 17.166 47.7055 17.586C47.0575 18.006 46.2655 18.216 45.3295 18.216ZM50.8123 18V8.55H53.4763V10.602H53.5663C53.6143 10.338 53.6983 10.086 53.8183 9.846C53.9383 9.594 54.0943 9.372 54.2863 9.18C54.4903 8.988 54.7303 8.838 55.0063 8.73C55.2823 8.61 55.6063 8.55 55.9783 8.55H56.4463V11.034H55.7803C55.0003 11.034 54.4183 11.136 54.0343 11.34C53.6623 11.544 53.4763 11.922 53.4763 12.474V18H50.8123ZM61.9438 18.216C61.2238 18.216 60.5818 18.102 60.0178 17.874C59.4538 17.634 58.9738 17.304 58.5778 16.884C58.1938 16.452 57.8998 15.93 57.6958 15.318C57.5038 14.706 57.4078 14.022 57.4078 13.266C57.4078 12.522 57.5038 11.85 57.6958 11.25C57.8878 10.638 58.1698 10.116 58.5418 9.684C58.9258 9.252 59.3938 8.922 59.9458 8.694C60.4978 8.454 61.1278 8.334 61.8358 8.334C62.6158 8.334 63.2818 8.466 63.8338 8.73C64.3978 8.994 64.8538 9.348 65.2018 9.792C65.5618 10.236 65.8198 10.752 65.9758 11.34C66.1438 11.916 66.2278 12.522 66.2278 13.158V13.95H60.1618V14.094C60.1618 14.718 60.3298 15.216 60.6658 15.588C61.0018 15.948 61.5298 16.128 62.2498 16.128C62.8018 16.128 63.2518 16.02 63.5998 15.804C63.9478 15.576 64.2718 15.306 64.5718 14.994L65.9038 16.65C65.4838 17.142 64.9318 17.526 64.2478 17.802C63.5758 18.078 62.8078 18.216 61.9438 18.216ZM61.8898 10.296C61.3498 10.296 60.9238 10.476 60.6118 10.836C60.3118 11.184 60.1618 11.652 60.1618 12.24V12.384H63.4738V12.222C63.4738 11.646 63.3418 11.184 63.0778 10.836C62.8258 10.476 62.4298 10.296 61.8898 10.296ZM75.0932 18C74.6132 18 74.2112 17.85 73.8872 17.55C73.5752 17.25 73.3772 16.848 73.2932 16.344H73.1852C73.0412 16.956 72.7232 17.424 72.2312 17.748C71.7392 18.06 71.1332 18.216 70.4132 18.216C69.4652 18.216 68.7392 17.964 68.2352 17.46C67.7312 16.956 67.4792 16.29 67.4792 15.462C67.4792 14.466 67.8392 13.728 68.5592 13.248C69.2912 12.756 70.2812 12.51 71.5292 12.51H73.0232V11.916C73.0232 11.46 72.9032 11.1 72.6632 10.836C72.4232 10.56 72.0212 10.422 71.4572 10.422C70.9292 10.422 70.5092 10.536 70.1972 10.764C69.8852 10.992 69.6272 11.25 69.4232 11.538L67.8392 10.134C68.2232 9.57 68.7032 9.132 69.2792 8.82C69.8672 8.496 70.6592 8.334 71.6552 8.334C72.9992 8.334 74.0072 8.628 74.6792 9.216C75.3512 9.804 75.6872 10.662 75.6872 11.79V15.93H76.5692V18H75.0932ZM71.4032 16.362C71.8472 16.362 72.2252 16.266 72.5372 16.074C72.8612 15.882 73.0232 15.57 73.0232 15.138V14.022H71.7272C70.6832 14.022 70.1612 14.376 70.1612 15.084V15.354C70.1612 15.702 70.2692 15.96 70.4852 16.128C70.7012 16.284 71.0072 16.362 71.4032 16.362ZM81.5612 18.216C80.6492 18.216 79.8812 18.072 79.2572 17.784C78.6332 17.484 78.0752 17.064 77.5832 16.524L79.1492 14.94C79.4852 15.312 79.8572 15.606 80.2652 15.822C80.6732 16.038 81.1352 16.146 81.6512 16.146C82.1792 16.146 82.5452 16.068 82.7492 15.912C82.9532 15.744 83.0552 15.522 83.0552 15.246C83.0552 14.802 82.7372 14.538 82.1012 14.454L81.0752 14.328C78.9512 14.064 77.8892 13.092 77.8892 11.412C77.8892 10.956 77.9732 10.542 78.1412 10.17C78.3212 9.786 78.5672 9.462 78.8792 9.198C79.2032 8.922 79.5872 8.712 80.0312 8.568C80.4872 8.412 80.9972 8.334 81.5612 8.334C82.0532 8.334 82.4852 8.37 82.8572 8.442C83.2412 8.502 83.5772 8.598 83.8652 8.73C84.1652 8.85 84.4352 9.006 84.6752 9.198C84.9272 9.378 85.1732 9.582 85.4132 9.81L83.8832 11.376C83.5832 11.076 83.2412 10.842 82.8572 10.674C82.4852 10.494 82.1012 10.404 81.7052 10.404C81.2492 10.404 80.9252 10.476 80.7332 10.62C80.5412 10.764 80.4452 10.956 80.4452 11.196C80.4452 11.448 80.5112 11.646 80.6432 11.79C80.7872 11.922 81.0512 12.018 81.4352 12.078L82.4972 12.222C84.5732 12.498 85.6112 13.446 85.6112 15.066C85.6112 15.522 85.5152 15.942 85.3232 16.326C85.1312 16.71 84.8552 17.046 84.4952 17.334C84.1472 17.61 83.7212 17.826 83.2172 17.982C82.7252 18.138 82.1732 18.216 81.5612 18.216ZM91.3695 18.216C90.6495 18.216 90.0075 18.102 89.4435 17.874C88.8795 17.634 88.3995 17.304 88.0035 16.884C87.6195 16.452 87.3255 15.93 87.1215 15.318C86.9295 14.706 86.8335 14.022 86.8335 13.266C86.8335 12.522 86.9295 11.85 87.1215 11.25C87.3135 10.638 87.5955 10.116 87.9675 9.684C88.3515 9.252 88.8195 8.922 89.3715 8.694C89.9235 8.454 90.5535 8.334 91.2615 8.334C92.0415 8.334 92.7075 8.466 93.2595 8.73C93.8235 8.994 94.2795 9.348 94.6275 9.792C94.9875 10.236 95.2455 10.752 95.4015 11.34C95.5695 11.916 95.6535 12.522 95.6535 13.158V13.95H89.5875V14.094C89.5875 14.718 89.7555 15.216 90.0915 15.588C90.4275 15.948 90.9555 16.128 91.6755 16.128C92.2275 16.128 92.6775 16.02 93.0255 15.804C93.3735 15.576 93.6975 15.306 93.9975 14.994L95.3295 16.65C94.9095 17.142 94.3575 17.526 93.6735 17.802C93.0015 18.078 92.2335 18.216 91.3695 18.216ZM91.3155 10.296C90.7755 10.296 90.3495 10.476 90.0375 10.836C89.7375 11.184 89.5875 11.652 89.5875 12.24V12.384H92.8995V12.222C92.8995 11.646 92.7675 11.184 92.5035 10.836C92.2515 10.476 91.8555 10.296 91.3155 10.296ZM103.121 7.542C102.581 7.542 102.185 7.422 101.933 7.182C101.693 6.93 101.573 6.612 101.573 6.228V5.832C101.573 5.448 101.693 5.136 101.933 4.896C102.185 4.644 102.581 4.518 103.121 4.518C103.661 4.518 104.051 4.644 104.291 4.896C104.543 5.136 104.669 5.448 104.669 5.832V6.228C104.669 6.612 104.543 6.93 104.291 7.182C104.051 7.422 103.661 7.542 103.121 7.542ZM101.789 8.55H104.453V18H101.789V8.55ZM106.939 18V8.55H109.603V10.152H109.711C109.879 9.66 110.173 9.234 110.593 8.874C111.013 8.514 111.595 8.334 112.339 8.334C113.311 8.334 114.043 8.658 114.535 9.306C115.039 9.954 115.291 10.878 115.291 12.078V18H112.627V12.294C112.627 11.682 112.531 11.232 112.339 10.944C112.147 10.644 111.805 10.494 111.313 10.494C111.097 10.494 110.887 10.524 110.683 10.584C110.479 10.632 110.293 10.716 110.125 10.836C109.969 10.956 109.843 11.106 109.747 11.286C109.651 11.454 109.603 11.652 109.603 11.88V18H106.939ZM127.262 14.886H124.382L123.842 18H122.15L122.69 14.886H120.872V13.266H122.978L123.5 10.17H121.682V8.55H123.788L124.328 5.436H126.002L125.462 8.55H128.342L128.882 5.436H130.574L130.034 8.55H131.852V10.17H129.746L129.224 13.266H131.042V14.886H128.936L128.396 18H126.722L127.262 14.886ZM127.532 13.266L128.072 10.17H125.192L124.652 13.266H127.532ZM142.763 18.216C141.911 18.216 141.143 18.084 140.459 17.82C139.775 17.544 139.193 17.142 138.713 16.614C138.233 16.074 137.861 15.408 137.597 14.616C137.333 13.812 137.201 12.876 137.201 11.808C137.201 10.752 137.333 9.816 137.597 9C137.861 8.172 138.233 7.482 138.713 6.93C139.193 6.366 139.775 5.94 140.459 5.652C141.143 5.364 141.911 5.22 142.763 5.22C143.927 5.22 144.887 5.46 145.643 5.94C146.399 6.408 147.005 7.152 147.461 8.172L145.103 9.396C144.935 8.868 144.671 8.448 144.311 8.136C143.963 7.812 143.447 7.65 142.763 7.65C141.959 7.65 141.311 7.914 140.819 8.442C140.339 8.958 140.099 9.714 140.099 10.71V12.726C140.099 13.722 140.339 14.484 140.819 15.012C141.311 15.528 141.959 15.786 142.763 15.786C143.435 15.786 143.969 15.606 144.365 15.246C144.773 14.874 145.073 14.43 145.265 13.914L147.497 15.21C147.029 16.17 146.411 16.914 145.643 17.442C144.887 17.958 143.927 18.216 142.763 18.216ZM156.251 18C155.771 18 155.369 17.85 155.045 17.55C154.733 17.25 154.535 16.848 154.451 16.344H154.343C154.199 16.956 153.881 17.424 153.389 17.748C152.897 18.06 152.291 18.216 151.571 18.216C150.623 18.216 149.897 17.964 149.393 17.46C148.889 16.956 148.637 16.29 148.637 15.462C148.637 14.466 148.997 13.728 149.717 13.248C150.449 12.756 151.439 12.51 152.687 12.51H154.181V11.916C154.181 11.46 154.061 11.1 153.821 10.836C153.581 10.56 153.179 10.422 152.615 10.422C152.087 10.422 151.667 10.536 151.355 10.764C151.043 10.992 150.785 11.25 150.581 11.538L148.997 10.134C149.381 9.57 149.861 9.132 150.437 8.82C151.025 8.496 151.817 8.334 152.813 8.334C154.157 8.334 155.165 8.628 155.837 9.216C156.509 9.804 156.845 10.662 156.845 11.79V15.93H157.727V18H156.251ZM152.561 16.362C153.005 16.362 153.383 16.266 153.695 16.074C154.019 15.882 154.181 15.57 154.181 15.138V14.022H152.885C151.841 14.022 151.319 14.376 151.319 15.084V15.354C151.319 15.702 151.427 15.96 151.643 16.128C151.859 16.284 152.165 16.362 152.561 16.362ZM162.161 18C161.249 18 160.577 17.778 160.145 17.334C159.725 16.89 159.515 16.248 159.515 15.408V4.68H162.179V15.93H163.367V18H162.161ZM167.47 18C166.558 18 165.886 17.778 165.454 17.334C165.034 16.89 164.824 16.248 164.824 15.408V4.68H167.488V15.93H168.676V18H167.47ZM173.477 18.216C172.565 18.216 171.797 18.072 171.173 17.784C170.549 17.484 169.991 17.064 169.499 16.524L171.065 14.94C171.401 15.312 171.773 15.606 172.181 15.822C172.589 16.038 173.051 16.146 173.567 16.146C174.095 16.146 174.461 16.068 174.665 15.912C174.869 15.744 174.971 15.522 174.971 15.246C174.971 14.802 174.653 14.538 174.017 14.454L172.991 14.328C170.867 14.064 169.805 13.092 169.805 11.412C169.805 10.956 169.889 10.542 170.057 10.17C170.237 9.786 170.483 9.462 170.795 9.198C171.119 8.922 171.503 8.712 171.947 8.568C172.403 8.412 172.913 8.334 173.477 8.334C173.969 8.334 174.401 8.37 174.773 8.442C175.157 8.502 175.493 8.598 175.781 8.73C176.081 8.85 176.351 9.006 176.591 9.198C176.843 9.378 177.089 9.582 177.329 9.81L175.799 11.376C175.499 11.076 175.157 10.842 174.773 10.674C174.401 10.494 174.017 10.404 173.621 10.404C173.165 10.404 172.841 10.476 172.649 10.62C172.457 10.764 172.361 10.956 172.361 11.196C172.361 11.448 172.427 11.646 172.559 11.79C172.703 11.922 172.967 12.018 173.351 12.078L174.413 12.222C176.489 12.498 177.527 13.446 177.527 15.066C177.527 15.522 177.431 15.942 177.239 16.326C177.047 16.71 176.771 17.046 176.411 17.334C176.063 17.61 175.637 17.826 175.133 17.982C174.641 18.138 174.089 18.216 173.477 18.216ZM183.741 18V5.436H189.681C190.269 5.436 190.797 5.538 191.265 5.742C191.733 5.934 192.129 6.204 192.453 6.552C192.789 6.9 193.047 7.326 193.227 7.83C193.407 8.322 193.497 8.862 193.497 9.45C193.497 10.05 193.407 10.596 193.227 11.088C193.047 11.58 192.789 12 192.453 12.348C192.129 12.696 191.733 12.972 191.265 13.176C190.797 13.368 190.269 13.464 189.681 13.464H186.477V18H183.741ZM186.477 11.088H189.357C189.765 11.088 190.083 10.986 190.311 10.782C190.551 10.566 190.671 10.254 190.671 9.846V9.054C190.671 8.646 190.551 8.34 190.311 8.136C190.083 7.92 189.765 7.812 189.357 7.812H186.477V11.088ZM199 18.216C198.28 18.216 197.638 18.102 197.074 17.874C196.51 17.634 196.03 17.304 195.634 16.884C195.25 16.452 194.956 15.93 194.752 15.318C194.56 14.706 194.464 14.022 194.464 13.266C194.464 12.522 194.56 11.85 194.752 11.25C194.944 10.638 195.226 10.116 195.598 9.684C195.982 9.252 196.45 8.922 197.002 8.694C197.554 8.454 198.184 8.334 198.892 8.334C199.672 8.334 200.338 8.466 200.89 8.73C201.454 8.994 201.91 9.348 202.258 9.792C202.618 10.236 202.876 10.752 203.032 11.34C203.2 11.916 203.284 12.522 203.284 13.158V13.95H197.218V14.094C197.218 14.718 197.386 15.216 197.722 15.588C198.058 15.948 198.586 16.128 199.306 16.128C199.858 16.128 200.308 16.02 200.656 15.804C201.004 15.576 201.328 15.306 201.628 14.994L202.96 16.65C202.54 17.142 201.988 17.526 201.304 17.802C200.632 18.078 199.864 18.216 199 18.216ZM198.946 10.296C198.406 10.296 197.98 10.476 197.668 10.836C197.368 11.184 197.218 11.652 197.218 12.24V12.384H200.53V12.222C200.53 11.646 200.398 11.184 200.134 10.836C199.882 10.476 199.486 10.296 198.946 10.296ZM205.166 18V8.55H207.83V10.602H207.92C207.968 10.338 208.052 10.086 208.172 9.846C208.292 9.594 208.448 9.372 208.64 9.18C208.844 8.988 209.084 8.838 209.36 8.73C209.636 8.61 209.96 8.55 210.332 8.55H210.8V11.034H210.134C209.354 11.034 208.772 11.136 208.388 11.34C208.016 11.544 207.83 11.922 207.83 12.474V18H205.166ZM226.237 9.756H226.183L225.265 11.592L222.817 16.038L220.423 11.61L219.469 9.63H219.415V18H216.841V5.436H219.739L222.817 11.322H222.853L225.895 5.436H228.811V18H226.237V9.756ZM235.279 18.216C234.583 18.216 233.959 18.102 233.407 17.874C232.867 17.646 232.405 17.316 232.021 16.884C231.649 16.452 231.361 15.93 231.157 15.318C230.953 14.706 230.851 14.022 230.851 13.266C230.851 12.51 230.953 11.826 231.157 11.214C231.361 10.602 231.649 10.086 232.021 9.666C232.405 9.234 232.867 8.904 233.407 8.676C233.959 8.448 234.583 8.334 235.279 8.334C235.975 8.334 236.593 8.448 237.133 8.676C237.685 8.904 238.147 9.234 238.519 9.666C238.903 10.086 239.197 10.602 239.401 11.214C239.605 11.826 239.707 12.51 239.707 13.266C239.707 14.022 239.605 14.706 239.401 15.318C239.197 15.93 238.903 16.452 238.519 16.884C238.147 17.316 237.685 17.646 237.133 17.874C236.593 18.102 235.975 18.216 235.279 18.216ZM235.279 16.11C235.807 16.11 236.215 15.948 236.503 15.624C236.791 15.3 236.935 14.838 236.935 14.238V12.312C236.935 11.712 236.791 11.25 236.503 10.926C236.215 10.602 235.807 10.44 235.279 10.44C234.751 10.44 234.343 10.602 234.055 10.926C233.767 11.25 233.623 11.712 233.623 12.312V14.238C233.623 14.838 233.767 15.3 234.055 15.624C234.343 15.948 234.751 16.11 235.279 16.11ZM241.605 18V8.55H244.269V10.152H244.377C244.545 9.66 244.839 9.234 245.259 8.874C245.679 8.514 246.261 8.334 247.005 8.334C247.977 8.334 248.709 8.658 249.201 9.306C249.705 9.954 249.957 10.878 249.957 12.078V18H247.293V12.294C247.293 11.682 247.197 11.232 247.005 10.944C246.813 10.644 246.471 10.494 245.979 10.494C245.763 10.494 245.553 10.524 245.349 10.584C245.145 10.632 244.959 10.716 244.791 10.836C244.635 10.956 244.509 11.106 244.413 11.286C244.317 11.454 244.269 11.652 244.269 11.88V18H241.605ZM255.64 18C254.716 18 254.014 17.766 253.534 17.298C253.066 16.83 252.832 16.146 252.832 15.246V10.62H251.5V8.55H252.166C252.526 8.55 252.772 8.466 252.904 8.298C253.036 8.118 253.102 7.866 253.102 7.542V5.994H255.496V8.55H257.368V10.62H255.496V15.93H257.224V18H255.64ZM259.219 4.68H261.883V10.152H261.991C262.159 9.66 262.453 9.234 262.873 8.874C263.293 8.514 263.875 8.334 264.619 8.334C265.591 8.334 266.323 8.658 266.815 9.306C267.319 9.954 267.571 10.878 267.571 12.078V18H264.907V12.294C264.907 11.682 264.811 11.232 264.619 10.944C264.427 10.644 264.085 10.494 263.593 10.494C263.377 10.494 263.167 10.524 262.963 10.584C262.759 10.632 262.573 10.716 262.405 10.836C262.249 10.956 262.123 11.106 262.027 11.286C261.931 11.454 261.883 11.652 261.883 11.88V18H259.219V4.68Z" fill="#CBD5E0"/>
<line x1="37" y1="261.5" x2="375" y2="261.5" stroke="#CBD5E0"/>
<line x1="37" y1="211.5" x2="45" y2="211.5" stroke="#CBD5E0"/>
<line x1="37" y1="161.5" x2="45" y2="161.5" stroke="#CBD5E0"/>
<line x1="37" y1="111.5" x2="45" y2="111.5" stroke="#CBD5E0"/>
<line x1="37" y1="61.5" x2="45" y2="61.5" stroke="#CBD5E0"/>
<path d="M7.44909 262.868V261.836H10.5811V262.868H7.44909ZM12.4701 266V265.112H14.8101V258.368H14.7261L12.6141 260.336L12.0261 259.7L14.2461 257.624H15.8181V265.112H17.9781V266H12.4701ZM22.2094 266.144C21.2094 266.144 20.4774 265.764 20.0134 265.004C19.5574 264.244 19.3294 263.18 19.3294 261.812C19.3294 260.444 19.5574 259.38 20.0134 258.62C20.4774 257.86 21.2094 257.48 22.2094 257.48C23.2094 257.48 23.9374 257.86 24.3934 258.62C24.8574 259.38 25.0894 260.444 25.0894 261.812C25.0894 263.18 24.8574 264.244 24.3934 265.004C23.9374 265.764 23.2094 266.144 22.2094 266.144ZM22.2094 265.268C22.5374 265.268 22.8174 265.2 23.0494 265.064C23.2814 264.928 23.4694 264.736 23.6134 264.488C23.7574 264.24 23.8614 263.948 23.9254 263.612C23.9974 263.276 24.0334 262.904 24.0334 262.496V261.128C24.0334 260.72 23.9974 260.348 23.9254 260.012C23.8614 259.676 23.7574 259.384 23.6134 259.136C23.4694 258.888 23.2814 258.696 23.0494 258.56C22.8174 258.424 22.5374 258.356 22.2094 258.356C21.8814 258.356 21.6014 258.424 21.3694 258.56C21.1374 258.696 20.9494 258.888 20.8054 259.136C20.6614 259.384 20.5534 259.676 20.4814 260.012C20.4174 260.348 20.3854 260.72 20.3854 261.128V262.496C20.3854 262.904 20.4174 263.276 20.4814 263.612C20.5534 263.948 20.6614 264.24 20.8054 264.488C20.9494 264.736 21.1374 264.928 21.3694 265.064C21.6014 265.2 21.8814 265.268 22.2094 265.268ZM29.4047 266.144C28.4047 266.144 27.6727 265.764 27.2087 265.004C26.7527 264.244 26.5247 263.18 26.5247 261.812C26.5247 260.444 26.7527 259.38 27.2087 258.62C27.6727 257.86 28.4047 257.48 29.4047 257.48C30.4047 257.48 31.1327 257.86 31.5887 258.62C32.0527 259.38 32.2847 260.444 32.2847 261.812C32.2847 263.18 32.0527 264.244 31.5887 265.004C31.1327 265.764 30.4047 266.144 29.4047 266.144ZM29.4047 265.268C29.7327 265.268 30.0127 265.2 30.2447 265.064C30.4767 264.928 30.6647 264.736 30.8087 264.488C30.9527 264.24 31.0567 263.948 31.1207 263.612C31.1927 263.276 31.2287 262.904 31.2287 262.496V261.128C31.2287 260.72 31.1927 260.348 31.1207 260.012C31.0567 259.676 30.9527 259.384 30.8087 259.136C30.6647 258.888 30.4767 258.696 30.2447 258.56C30.0127 258.424 29.7327 258.356 29.4047 258.356C29.0767 258.356 28.7967 258.424 28.5647 258.56C28.3327 258.696 28.1447 258.888 28.0007 259.136C27.8567 259.384 27.7487 259.676 27.6767 260.012C27.6127 260.348 27.5807 260.72 27.5807 261.128V262.496C27.5807 262.904 27.6127 263.276 27.6767 263.612C27.7487 263.948 27.8567 264.24 28.0007 264.488C28.1447 264.736 28.3327 264.928 28.5647 265.064C28.7967 265.2 29.0767 265.268 29.4047 265.268Z" fill="#CBD5E0"/>
<path d="M14.6444 212.868V211.836H17.7764V212.868H14.6444ZM24.5854 208.512H20.9134L20.6734 211.704H20.7574C20.9574 211.424 21.1814 211.2 21.4294 211.032C21.6854 210.864 22.0334 210.78 22.4734 210.78C22.8334 210.78 23.1654 210.84 23.4694 210.96C23.7734 211.08 24.0374 211.252 24.2614 211.476C24.4854 211.692 24.6574 211.96 24.7774 212.28C24.9054 212.6 24.9694 212.964 24.9694 213.372C24.9694 213.78 24.9054 214.156 24.7774 214.5C24.6494 214.836 24.4614 215.128 24.2134 215.376C23.9734 215.616 23.6774 215.804 23.3254 215.94C22.9814 216.076 22.5894 216.144 22.1494 216.144C21.7974 216.144 21.4854 216.104 21.2134 216.024C20.9494 215.944 20.7134 215.836 20.5054 215.7C20.2974 215.564 20.1134 215.412 19.9534 215.244C19.8014 215.076 19.6614 214.9 19.5334 214.716L20.2894 214.14C20.3934 214.308 20.5014 214.46 20.6134 214.596C20.7334 214.732 20.8614 214.848 20.9974 214.944C21.1414 215.04 21.3054 215.116 21.4894 215.172C21.6734 215.22 21.8934 215.244 22.1494 215.244C22.7254 215.244 23.1614 215.092 23.4574 214.788C23.7534 214.484 23.9014 214.056 23.9014 213.504V213.384C23.9014 212.832 23.7534 212.404 23.4574 212.1C23.1614 211.796 22.7254 211.644 22.1494 211.644C21.7654 211.644 21.4614 211.716 21.2374 211.86C21.0214 211.996 20.8254 212.16 20.6494 212.352L19.7974 212.232L20.0974 207.624H24.5854V208.512ZM29.4047 216.144C28.4047 216.144 27.6727 215.764 27.2087 215.004C26.7527 214.244 26.5247 213.18 26.5247 211.812C26.5247 210.444 26.7527 209.38 27.2087 208.62C27.6727 207.86 28.4047 207.48 29.4047 207.48C30.4047 207.48 31.1327 207.86 31.5887 208.62C32.0527 209.38 32.2847 210.444 32.2847 211.812C32.2847 213.18 32.0527 214.244 31.5887 215.004C31.1327 215.764 30.4047 216.144 29.4047 216.144ZM29.4047 215.268C29.7327 215.268 30.0127 215.2 30.2447 215.064C30.4767 214.928 30.6647 214.736 30.8087 214.488C30.9527 214.24 31.0567 213.948 31.1207 213.612C31.1927 213.276 31.2287 212.904 31.2287 212.496V211.128C31.2287 210.72 31.1927 210.348 31.1207 210.012C31.0567 209.676 30.9527 209.384 30.8087 209.136C30.6647 208.888 30.4767 208.696 30.2447 208.56C30.0127 208.424 29.7327 208.356 29.4047 208.356C29.0767 208.356 28.7967 208.424 28.5647 208.56C28.3327 208.696 28.1447 208.888 28.0007 209.136C27.8567 209.384 27.7487 209.676 27.6767 210.012C27.6127 210.348 27.5807 210.72 27.5807 211.128V212.496C27.5807 212.904 27.6127 213.276 27.6767 213.612C27.7487 213.948 27.8567 214.24 28.0007 214.488C28.1447 214.736 28.3327 214.928 28.5647 215.064C28.7967 215.2 29.0767 215.268 29.4047 215.268Z" fill="#CBD5E0"/>
<path d="M12.4701 66V65.112H14.8101V58.368H14.7261L12.6141 60.336L12.0261 59.7L14.2461 57.624H15.8181V65.112H17.9781V66H12.4701ZM22.2094 66.144C21.2094 66.144 20.4774 65.764 20.0134 65.004C19.5574 64.244 19.3294 63.18 19.3294 61.812C19.3294 60.444 19.5574 59.38 20.0134 58.62C20.4774 57.86 21.2094 57.48 22.2094 57.48C23.2094 57.48 23.9374 57.86 24.3934 58.62C24.8574 59.38 25.0894 60.444 25.0894 61.812C25.0894 63.18 24.8574 64.244 24.3934 65.004C23.9374 65.764 23.2094 66.144 22.2094 66.144ZM22.2094 65.268C22.5374 65.268 22.8174 65.2 23.0494 65.064C23.2814 64.928 23.4694 64.736 23.6134 64.488C23.7574 64.24 23.8614 63.948 23.9254 63.612C23.9974 63.276 24.0334 62.904 24.0334 62.496V61.128C24.0334 60.72 23.9974 60.348 23.9254 60.012C23.8614 59.676 23.7574 59.384 23.6134 59.136C23.4694 58.888 23.2814 58.696 23.0494 58.56C22.8174 58.424 22.5374 58.356 22.2094 58.356C21.8814 58.356 21.6014 58.424 21.3694 58.56C21.1374 58.696 20.9494 58.888 20.8054 59.136C20.6614 59.384 20.5534 59.676 20.4814 60.012C20.4174 60.348 20.3854 60.72 20.3854 61.128V62.496C20.3854 62.904 20.4174 63.276 20.4814 63.612C20.5534 63.948 20.6614 64.24 20.8054 64.488C20.9494 64.736 21.1374 64.928 21.3694 65.064C21.6014 65.2 21.8814 65.268 22.2094 65.268ZM29.4047 66.144C28.4047 66.144 27.6727 65.764 27.2087 65.004C26.7527 64.244 26.5247 63.18 26.5247 61.812C26.5247 60.444 26.7527 59.38 27.2087 58.62C27.6727 57.86 28.4047 57.48 29.4047 57.48C30.4047 57.48 31.1327 57.86 31.5887 58.62C32.0527 59.38 32.2847 60.444 32.2847 61.812C32.2847 63.18 32.0527 64.244 31.5887 65.004C31.1327 65.764 30.4047 66.144 29.4047 66.144ZM29.4047 65.268C29.7327 65.268 30.0127 65.2 30.2447 65.064C30.4767 64.928 30.6647 64.736 30.8087 64.488C30.9527 64.24 31.0567 63.948 31.1207 63.612C31.1927 63.276 31.2287 62.904 31.2287 62.496V61.128C31.2287 60.72 31.1927 60.348 31.1207 60.012C31.0567 59.676 30.9527 59.384 30.8087 59.136C30.6647 58.888 30.4767 58.696 30.2447 58.56C30.0127 58.424 29.7327 58.356 29.4047 58.356C29.0767 58.356 28.7967 58.424 28.5647 58.56C28.3327 58.696 28.1447 58.888 28.0007 59.136C27.8567 59.384 27.7487 59.676 27.6767 60.012C27.6127 60.348 27.5807 60.72 27.5807 61.128V62.496C27.5807 62.904 27.6127 63.276 27.6767 63.612C27.7487 63.948 27.8567 64.24 28.0007 64.488C28.1447 64.736 28.3327 64.928 28.5647 65.064C28.7967 65.2 29.0767 65.268 29.4047 65.268Z" fill="#CBD5E0"/>
<path d="M29.4047 166.144C28.4047 166.144 27.6727 165.764 27.2087 165.004C26.7527 164.244 26.5247 163.18 26.5247 161.812C26.5247 160.444 26.7527 159.38 27.2087 158.62C27.6727 157.86 28.4047 157.48 29.4047 157.48C30.4047 157.48 31.1327 157.86 31.5887 158.62C32.0527 159.38 32.2847 160.444 32.2847 161.812C32.2847 163.18 32.0527 164.244 31.5887 165.004C31.1327 165.764 30.4047 166.144 29.4047 166.144ZM29.4047 165.268C29.7327 165.268 30.0127 165.2 30.2447 165.064C30.4767 164.928 30.6647 164.736 30.8087 164.488C30.9527 164.24 31.0567 163.948 31.1207 163.612C31.1927 163.276 31.2287 162.904 31.2287 162.496V161.128C31.2287 160.72 31.1927 160.348 31.1207 160.012C31.0567 159.676 30.9527 159.384 30.8087 159.136C30.6647 158.888 30.4767 158.696 30.2447 158.56C30.0127 158.424 29.7327 158.356 29.4047 158.356C29.0767 158.356 28.7967 158.424 28.5647 158.56C28.3327 158.696 28.1447 158.888 28.0007 159.136C27.8567 159.384 27.7487 159.676 27.6767 160.012C27.6127 160.348 27.5807 160.72 27.5807 161.128V162.496C27.5807 162.904 27.6127 163.276 27.6767 163.612C27.7487 163.948 27.8567 164.24 28.0007 164.488C28.1447 164.736 28.3327 164.928 28.5647 165.064C28.7967 165.2 29.0767 165.268 29.4047 165.268Z" fill="white"/>
<path d="M24.5854 108.512H20.9134L20.6734 111.704H20.7574C20.9574 111.424 21.1814 111.2 21.4294 111.032C21.6854 110.864 22.0334 110.78 22.4734 110.78C22.8334 110.78 23.1654 110.84 23.4694 110.96C23.7734 111.08 24.0374 111.252 24.2614 111.476C24.4854 111.692 24.6574 111.96 24.7774 112.28C24.9054 112.6 24.9694 112.964 24.9694 113.372C24.9694 113.78 24.9054 114.156 24.7774 114.5C24.6494 114.836 24.4614 115.128 24.2134 115.376C23.9734 115.616 23.6774 115.804 23.3254 115.94C22.9814 116.076 22.5894 116.144 22.1494 116.144C21.7974 116.144 21.4854 116.104 21.2134 116.024C20.9494 115.944 20.7134 115.836 20.5054 115.7C20.2974 115.564 20.1134 115.412 19.9534 115.244C19.8014 115.076 19.6614 114.9 19.5334 114.716L20.2894 114.14C20.3934 114.308 20.5014 114.46 20.6134 114.596C20.7334 114.732 20.8614 114.848 20.9974 114.944C21.1414 115.04 21.3054 115.116 21.4894 115.172C21.6734 115.22 21.8934 115.244 22.1494 115.244C22.7254 115.244 23.1614 115.092 23.4574 114.788C23.7534 114.484 23.9014 114.056 23.9014 113.504V113.384C23.9014 112.832 23.7534 112.404 23.4574 112.1C23.1614 111.796 22.7254 111.644 22.1494 111.644C21.7654 111.644 21.4614 111.716 21.2374 111.86C21.0214 111.996 20.8254 112.16 20.6494 112.352L19.7974 112.232L20.0974 107.624H24.5854V108.512ZM29.4047 116.144C28.4047 116.144 27.6727 115.764 27.2087 115.004C26.7527 114.244 26.5247 113.18 26.5247 111.812C26.5247 110.444 26.7527 109.38 27.2087 108.62C27.6727 107.86 28.4047 107.48 29.4047 107.48C30.4047 107.48 31.1327 107.86 31.5887 108.62C32.0527 109.38 32.2847 110.444 32.2847 111.812C32.2847 113.18 32.0527 114.244 31.5887 115.004C31.1327 115.764 30.4047 116.144 29.4047 116.144ZM29.4047 115.268C29.7327 115.268 30.0127 115.2 30.2447 115.064C30.4767 114.928 30.6647 114.736 30.8087 114.488C30.9527 114.24 31.0567 113.948 31.1207 113.612C31.1927 113.276 31.2287 112.904 31.2287 112.496V111.128C31.2287 110.72 31.1927 110.348 31.1207 110.012C31.0567 109.676 30.9527 109.384 30.8087 109.136C30.6647 108.888 30.4767 108.696 30.2447 108.56C30.0127 108.424 29.7327 108.356 29.4047 108.356C29.0767 108.356 28.7967 108.424 28.5647 108.56C28.3327 108.696 28.1447 108.888 28.0007 109.136C27.8567 109.384 27.7487 109.676 27.6767 110.012C27.6127 110.348 27.5807 110.72 27.5807 111.128V112.496C27.5807 112.904 27.6127 113.276 27.6767 113.612C27.7487 113.948 27.8567 114.24 28.0007 114.488C28.1447 114.736 28.3327 114.928 28.5647 115.064C28.7967 115.2 29.0767 115.268 29.4047 115.268Z" fill="#CBD5E0"/>
<path d="M62.816 314H54.912V311.808L58.352 308.864C58.6613 308.597 58.9227 308.357 59.136 308.144C59.3493 307.92 59.52 307.707 59.648 307.504C59.7867 307.291 59.8827 307.083 59.936 306.88C60 306.677 60.032 306.459 60.032 306.224V306C60.032 305.787 59.9893 305.6 59.904 305.44C59.8187 305.28 59.7067 305.147 59.568 305.04C59.4293 304.933 59.2693 304.853 59.088 304.8C58.9173 304.747 58.7413 304.72 58.56 304.72C58.2933 304.72 58.0587 304.763 57.856 304.848C57.664 304.933 57.4933 305.051 57.344 305.2C57.2053 305.339 57.088 305.504 56.992 305.696C56.896 305.877 56.8213 306.075 56.768 306.288L54.672 305.488C54.8 305.104 54.976 304.741 55.2 304.4C55.424 304.048 55.7013 303.744 56.032 303.488C56.3733 303.221 56.7733 303.013 57.232 302.864C57.6907 302.715 58.208 302.64 58.784 302.64C59.392 302.64 59.9307 302.725 60.4 302.896C60.8693 303.067 61.264 303.301 61.584 303.6C61.9147 303.899 62.1653 304.256 62.336 304.672C62.5067 305.077 62.592 305.52 62.592 306C62.592 306.48 62.512 306.917 62.352 307.312C62.192 307.707 61.9733 308.08 61.696 308.432C61.4293 308.773 61.1147 309.099 60.752 309.408C60.3893 309.717 60.0107 310.032 59.616 310.352L57.536 311.984H62.816V314ZM68.3938 314.192C66.9324 314.192 65.8498 313.685 65.1458 312.672C64.4418 311.659 64.0898 310.24 64.0898 308.416C64.0898 306.592 64.4418 305.173 65.1458 304.16C65.8498 303.147 66.9324 302.64 68.3938 302.64C69.8551 302.64 70.9378 303.147 71.6418 304.16C72.3458 305.173 72.6978 306.592 72.6978 308.416C72.6978 310.24 72.3458 311.659 71.6418 312.672C70.9378 313.685 69.8551 314.192 68.3938 314.192ZM68.3938 312.16C69.0338 312.16 69.4764 311.925 69.7218 311.456C69.9671 310.987 70.0898 310.325 70.0898 309.472V307.36C70.0898 306.507 69.9671 305.845 69.7218 305.376C69.4764 304.907 69.0338 304.672 68.3938 304.672C67.7538 304.672 67.3111 304.907 67.0658 305.376C66.8204 305.845 66.6978 306.507 66.6978 307.36V309.472C66.6978 310.325 66.8204 310.987 67.0658 311.456C67.3111 311.925 67.7538 312.16 68.3938 312.16ZM82.0035 314H74.0995V311.808L77.5395 308.864C77.8488 308.597 78.1102 308.357 78.3235 308.144C78.5368 307.92 78.7075 307.707 78.8355 307.504C78.9742 307.291 79.0702 307.083 79.1235 306.88C79.1875 306.677 79.2195 306.459 79.2195 306.224V306C79.2195 305.787 79.1768 305.6 79.0915 305.44C79.0062 305.28 78.8942 305.147 78.7555 305.04C78.6168 304.933 78.4568 304.853 78.2755 304.8C78.1048 304.747 77.9288 304.72 77.7475 304.72C77.4808 304.72 77.2462 304.763 77.0435 304.848C76.8515 304.933 76.6808 305.051 76.5315 305.2C76.3928 305.339 76.2755 305.504 76.1795 305.696C76.0835 305.877 76.0088 306.075 75.9555 306.288L73.8595 305.488C73.9875 305.104 74.1635 304.741 74.3875 304.4C74.6115 304.048 74.8888 303.744 75.2195 303.488C75.5608 303.221 75.9608 303.013 76.4195 302.864C76.8782 302.715 77.3955 302.64 77.9715 302.64C78.5795 302.64 79.1182 302.725 79.5875 302.896C80.0568 303.067 80.4515 303.301 80.7715 303.6C81.1022 303.899 81.3528 304.256 81.5235 304.672C81.6942 305.077 81.7795 305.52 81.7795 306C81.7795 306.48 81.6995 306.917 81.5395 307.312C81.3795 307.707 81.1608 308.08 80.8835 308.432C80.6168 308.773 80.3022 309.099 79.9395 309.408C79.5768 309.717 79.1982 310.032 78.8035 310.352L76.7235 311.984H82.0035V314ZM87.5813 314.192C86.1199 314.192 85.0373 313.685 84.3333 312.672C83.6293 311.659 83.2773 310.24 83.2773 308.416C83.2773 306.592 83.6293 305.173 84.3333 304.16C85.0373 303.147 86.1199 302.64 87.5813 302.64C89.0426 302.64 90.1253 303.147 90.8293 304.16C91.5333 305.173 91.8853 306.592 91.8853 308.416C91.8853 310.24 91.5333 311.659 90.8293 312.672C90.1253 313.685 89.0426 314.192 87.5813 314.192ZM87.5813 312.16C88.2213 312.16 88.6639 311.925 88.9093 311.456C89.1546 310.987 89.2773 310.325 89.2773 309.472V307.36C89.2773 306.507 89.1546 305.845 88.9093 305.376C88.6639 304.907 88.2213 304.672 87.5813 304.672C86.9413 304.672 86.4986 304.907 86.2533 305.376C86.0079 305.845 85.8853 306.507 85.8853 307.36V309.472C85.8853 310.325 86.0079 310.987 86.2533 311.456C86.4986 311.925 86.9413 312.16 87.5813 312.16Z" fill="white"/>
<path d="M158.816 314H150.912V311.808L154.352 308.864C154.661 308.597 154.923 308.357 155.136 308.144C155.349 307.92 155.52 307.707 155.648 307.504C155.787 307.291 155.883 307.083 155.936 306.88C156 306.677 156.032 306.459 156.032 306.224V306C156.032 305.787 155.989 305.6 155.904 305.44C155.819 305.28 155.707 305.147 155.568 305.04C155.429 304.933 155.269 304.853 155.088 304.8C154.917 304.747 154.741 304.72 154.56 304.72C154.293 304.72 154.059 304.763 153.856 304.848C153.664 304.933 153.493 305.051 153.344 305.2C153.205 305.339 153.088 305.504 152.992 305.696C152.896 305.877 152.821 306.075 152.768 306.288L150.672 305.488C150.8 305.104 150.976 304.741 151.2 304.4C151.424 304.048 151.701 303.744 152.032 303.488C152.373 303.221 152.773 303.013 153.232 302.864C153.691 302.715 154.208 302.64 154.784 302.64C155.392 302.64 155.931 302.725 156.4 302.896C156.869 303.067 157.264 303.301 157.584 303.6C157.915 303.899 158.165 304.256 158.336 304.672C158.507 305.077 158.592 305.52 158.592 306C158.592 306.48 158.512 306.917 158.352 307.312C158.192 307.707 157.973 308.08 157.696 308.432C157.429 308.773 157.115 309.099 156.752 309.408C156.389 309.717 156.011 310.032 155.616 310.352L153.536 311.984H158.816V314ZM164.394 314.192C162.932 314.192 161.85 313.685 161.146 312.672C160.442 311.659 160.09 310.24 160.09 308.416C160.09 306.592 160.442 305.173 161.146 304.16C161.85 303.147 162.932 302.64 164.394 302.64C165.855 302.64 166.938 303.147 167.642 304.16C168.346 305.173 168.698 306.592 168.698 308.416C168.698 310.24 168.346 311.659 167.642 312.672C166.938 313.685 165.855 314.192 164.394 314.192ZM164.394 312.16C165.034 312.16 165.476 311.925 165.722 311.456C165.967 310.987 166.09 310.325 166.09 309.472V307.36C166.09 306.507 165.967 305.845 165.722 305.376C165.476 304.907 165.034 304.672 164.394 304.672C163.754 304.672 163.311 304.907 163.066 305.376C162.82 305.845 162.698 306.507 162.698 307.36V309.472C162.698 310.325 162.82 310.987 163.066 311.456C163.311 311.925 163.754 312.16 164.394 312.16ZM178.003 314H170.1V311.808L173.54 308.864C173.849 308.597 174.11 308.357 174.324 308.144C174.537 307.92 174.708 307.707 174.836 307.504C174.974 307.291 175.07 307.083 175.124 306.88C175.188 306.677 175.22 306.459 175.22 306.224V306C175.22 305.787 175.177 305.6 175.092 305.44C175.006 305.28 174.894 305.147 174.756 305.04C174.617 304.933 174.457 304.853 174.276 304.8C174.105 304.747 173.929 304.72 173.748 304.72C173.481 304.72 173.246 304.763 173.044 304.848C172.852 304.933 172.681 305.051 172.532 305.2C172.393 305.339 172.276 305.504 172.18 305.696C172.084 305.877 172.009 306.075 171.956 306.288L169.86 305.488C169.988 305.104 170.164 304.741 170.388 304.4C170.612 304.048 170.889 303.744 171.22 303.488C171.561 303.221 171.961 303.013 172.42 302.864C172.878 302.715 173.396 302.64 173.972 302.64C174.58 302.64 175.118 302.725 175.588 302.896C176.057 303.067 176.452 303.301 176.772 303.6C177.102 303.899 177.353 304.256 177.524 304.672C177.694 305.077 177.78 305.52 177.78 306C177.78 306.48 177.7 306.917 177.54 307.312C177.38 307.707 177.161 308.08 176.884 308.432C176.617 308.773 176.302 309.099 175.94 309.408C175.577 309.717 175.198 310.032 174.804 310.352L172.724 311.984H178.003V314ZM180.285 314V312.064H183.293V304.576H183.149L180.877 307.552L179.341 306.352L182.013 302.832H185.693V312.064H188.061V314H180.285Z" fill="white"/>
<line x1="64.2918" y1="174.594" x2="96.2918" y2="197.594" stroke="#9F7AEA" stroke-dasharray="2 2"/>
<line x1="95.7654" y1="197.558" x2="127.765" y2="180.558" stroke="#9F7AEA" stroke-dasharray="2 2"/>
<line x1="127.622" y1="180.673" x2="159.622" y2="143.673" stroke="#9F7AEA" stroke-dasharray="2 2"/>
<line x1="160.378" y1="143.673" x2="192.378" y2="180.673" stroke="#9F7AEA" stroke-dasharray="2 2"/>
<line x1="224.265" y1="162.424" x2="192.265" y2="182.424" stroke="#9F7AEA" stroke-dasharray="2 2"/>
<line x1="255.745" y1="181.43" x2="223.745" y2="162.43" stroke="#9F7AEA" stroke-dasharray="2 2"/>
<line x1="288.465" y1="100.184" x2="256.465" y2="181.184" stroke="#9F7AEA" stroke-dasharray="2 2"/>
<line x1="319.529" y1="189.169" x2="287.529" y2="100.169" stroke="#9F7AEA" stroke-dasharray="2 2"/>
<line x1="352.485" y1="61.1213" x2="320.485" y2="189.121" stroke="#9F7AEA" stroke-dasharray="2 2"/>
<path d="M55.3143 283V281.816H58.4343V272.824H58.3223L55.5063 275.448L54.7223 274.6L57.6823 271.832H59.7783V281.816H62.6583V283H55.3143ZM68.3 283.192C66.9667 283.192 65.9907 282.685 65.372 281.672C64.764 280.659 64.46 279.24 64.46 277.416C64.46 275.592 64.764 274.173 65.372 273.16C65.9907 272.147 66.9667 271.64 68.3 271.64C69.6333 271.64 70.604 272.147 71.212 273.16C71.8307 274.173 72.14 275.592 72.14 277.416C72.14 279.24 71.8307 280.659 71.212 281.672C70.604 282.685 69.6333 283.192 68.3 283.192ZM68.3 282.024C68.7373 282.024 69.1107 281.933 69.42 281.752C69.7293 281.571 69.98 281.315 70.172 280.984C70.364 280.653 70.5027 280.264 70.588 279.816C70.684 279.368 70.732 278.872 70.732 278.328V276.504C70.732 275.96 70.684 275.464 70.588 275.016C70.5027 274.568 70.364 274.179 70.172 273.848C69.98 273.517 69.7293 273.261 69.42 273.08C69.1107 272.899 68.7373 272.808 68.3 272.808C67.8627 272.808 67.4893 272.899 67.18 273.08C66.8707 273.261 66.62 273.517 66.428 273.848C66.236 274.179 66.092 274.568 65.996 275.016C65.9107 275.464 65.868 275.96 65.868 276.504V278.328C65.868 278.872 65.9107 279.368 65.996 279.816C66.092 280.264 66.236 280.653 66.428 280.984C66.62 281.315 66.8707 281.571 67.18 281.752C67.4893 281.933 67.8627 282.024 68.3 282.024Z" fill="#CBD5E0"/>
<rect x="62" y="173.5" width="3" height="3" rx="1.5" fill="#1A202C" stroke="#9F7AEA" stroke-width="3"/>
<path d="M87.3143 283V281.816H90.4343V272.824H90.3223L87.5063 275.448L86.7223 274.6L89.6823 271.832H91.7783V281.816H94.6583V283H87.3143ZM96.908 283V281.816H100.028V272.824H99.916L97.1 275.448L96.316 274.6L99.276 271.832H101.372V281.816H104.252V283H96.908Z" fill="#CBD5E0"/>
<rect x="94" y="196.5" width="3" height="3" rx="1.5" fill="#1A202C" stroke="#9F7AEA" stroke-width="3"/>
<path d="M119.314 283V281.816H122.434V272.824H122.322L119.506 275.448L118.722 274.6L121.682 271.832H123.778V281.816H126.658V283H119.314ZM136.028 283H128.7V281.624L132.348 278.264C132.871 277.784 133.308 277.277 133.66 276.744C134.012 276.2 134.188 275.656 134.188 275.112V274.92C134.188 274.301 134.017 273.8 133.676 273.416C133.335 273.032 132.817 272.84 132.124 272.84C131.783 272.84 131.484 272.888 131.228 272.984C130.972 273.08 130.748 273.213 130.556 273.384C130.375 273.555 130.22 273.757 130.092 273.992C129.975 274.216 129.879 274.461 129.804 274.728L128.604 274.264C128.711 273.933 128.855 273.613 129.036 273.304C129.228 272.984 129.463 272.701 129.74 272.456C130.028 272.211 130.369 272.013 130.764 271.864C131.169 271.715 131.644 271.64 132.188 271.64C132.732 271.64 133.217 271.72 133.644 271.88C134.071 272.04 134.428 272.264 134.716 272.552C135.004 272.84 135.223 273.181 135.372 273.576C135.532 273.971 135.612 274.408 135.612 274.888C135.612 275.325 135.548 275.731 135.42 276.104C135.303 276.477 135.137 276.835 134.924 277.176C134.711 277.507 134.449 277.832 134.14 278.152C133.841 278.472 133.516 278.792 133.164 279.112L130.156 281.816H136.028V283Z" fill="#CBD5E0"/>
<rect x="126" y="179.5" width="3" height="3" rx="1.5" fill="#1A202C" stroke="#9F7AEA" stroke-width="3"/>
<path d="M156.111 283V281.816H159.231V272.824H159.119L156.303 275.448L155.519 274.6L158.479 271.832H160.575V281.816H163.455V283H156.111Z" fill="#CBD5E0"/>
<rect x="158" y="142.5" width="3" height="3" rx="1.5" fill="#1A202C" stroke="#9F7AEA" stroke-width="3"/>
<path d="M195.231 283H187.903V281.624L191.551 278.264C192.074 277.784 192.511 277.277 192.863 276.744C193.215 276.2 193.391 275.656 193.391 275.112V274.92C193.391 274.301 193.22 273.8 192.879 273.416C192.538 273.032 192.02 272.84 191.327 272.84C190.986 272.84 190.687 272.888 190.431 272.984C190.175 273.08 189.951 273.213 189.759 273.384C189.578 273.555 189.423 273.757 189.295 273.992C189.178 274.216 189.082 274.461 189.007 274.728L187.807 274.264C187.914 273.933 188.058 273.613 188.239 273.304C188.431 272.984 188.666 272.701 188.943 272.456C189.231 272.211 189.572 272.013 189.967 271.864C190.372 271.715 190.847 271.64 191.391 271.64C191.935 271.64 192.42 271.72 192.847 271.88C193.274 272.04 193.631 272.264 193.919 272.552C194.207 272.84 194.426 273.181 194.575 273.576C194.735 273.971 194.815 274.408 194.815 274.888C194.815 275.325 194.751 275.731 194.623 276.104C194.506 276.477 194.34 276.835 194.127 277.176C193.914 277.507 193.652 277.832 193.343 278.152C193.044 278.472 192.719 278.792 192.367 279.112L189.359 281.816H195.231V283Z" fill="#CBD5E0"/>
<rect x="190" y="180.5" width="3" height="3" rx="1.5" fill="#1A202C" stroke="#9F7AEA" stroke-width="3"/>
<path d="M222.879 276.568C223.636 276.568 224.202 276.397 224.575 276.056C224.959 275.704 225.151 275.256 225.151 274.712V274.6C225.151 274.013 224.964 273.576 224.591 273.288C224.228 272.989 223.748 272.84 223.151 272.84C222.575 272.84 222.106 272.968 221.743 273.224C221.38 273.469 221.082 273.805 220.847 274.232L219.855 273.464C219.994 273.24 220.159 273.021 220.351 272.808C220.554 272.584 220.788 272.387 221.055 272.216C221.322 272.045 221.631 271.907 221.983 271.8C222.335 271.693 222.735 271.64 223.183 271.64C223.652 271.64 224.095 271.704 224.511 271.832C224.927 271.949 225.284 272.131 225.583 272.376C225.892 272.611 226.132 272.904 226.303 273.256C226.484 273.608 226.575 274.008 226.575 274.456C226.575 274.819 226.516 275.144 226.399 275.432C226.292 275.72 226.143 275.971 225.951 276.184C225.759 276.397 225.53 276.579 225.263 276.728C225.007 276.877 224.73 276.989 224.431 277.064V277.128C224.73 277.192 225.018 277.299 225.295 277.448C225.583 277.587 225.834 277.773 226.047 278.008C226.271 278.232 226.447 278.509 226.575 278.84C226.714 279.16 226.783 279.528 226.783 279.944C226.783 280.424 226.692 280.867 226.511 281.272C226.33 281.667 226.074 282.008 225.743 282.296C225.412 282.573 225.012 282.792 224.543 282.952C224.074 283.112 223.556 283.192 222.991 283.192C222.511 283.192 222.084 283.139 221.711 283.032C221.338 282.925 221.007 282.781 220.719 282.6C220.431 282.419 220.175 282.216 219.951 281.992C219.738 281.768 219.546 281.533 219.375 281.288L220.383 280.52C220.522 280.744 220.671 280.947 220.831 281.128C221.002 281.309 221.188 281.464 221.391 281.592C221.594 281.72 221.823 281.821 222.079 281.896C222.335 281.96 222.634 281.992 222.975 281.992C223.764 281.992 224.362 281.816 224.767 281.464C225.172 281.101 225.375 280.589 225.375 279.928V279.8C225.375 279.139 225.172 278.632 224.767 278.28C224.362 277.917 223.764 277.736 222.975 277.736H221.663V276.568H222.879Z" fill="#CBD5E0"/>
<rect x="222" y="160.5" width="3" height="3" rx="1.5" fill="#1A202C" stroke="#9F7AEA" stroke-width="3"/>
<path d="M256.703 283V280.808H251.311V279.624L255.983 271.832H257.983V279.688H259.599V280.808H257.983V283H256.703ZM252.575 279.688H256.703V272.872H256.623L252.575 279.688Z" fill="#CBD5E0"/>
<rect x="254" y="179.5" width="3" height="3" rx="1.5" fill="#1A202C" stroke="#9F7AEA" stroke-width="3"/>
<path d="M290.671 273.016H285.775L285.455 277.272H285.567C285.834 276.899 286.132 276.6 286.463 276.376C286.804 276.152 287.268 276.04 287.855 276.04C288.335 276.04 288.778 276.12 289.183 276.28C289.588 276.44 289.94 276.669 290.239 276.968C290.538 277.256 290.767 277.613 290.927 278.04C291.098 278.467 291.183 278.952 291.183 279.496C291.183 280.04 291.098 280.541 290.927 281C290.756 281.448 290.506 281.837 290.175 282.168C289.855 282.488 289.46 282.739 288.991 282.92C288.532 283.101 288.01 283.192 287.423 283.192C286.954 283.192 286.538 283.139 286.175 283.032C285.823 282.925 285.508 282.781 285.231 282.6C284.954 282.419 284.708 282.216 284.495 281.992C284.292 281.768 284.106 281.533 283.935 281.288L284.943 280.52C285.082 280.744 285.226 280.947 285.375 281.128C285.535 281.309 285.706 281.464 285.887 281.592C286.079 281.72 286.298 281.821 286.543 281.896C286.788 281.96 287.082 281.992 287.423 281.992C288.191 281.992 288.772 281.789 289.167 281.384C289.562 280.979 289.759 280.408 289.759 279.672V279.512C289.759 278.776 289.562 278.205 289.167 277.8C288.772 277.395 288.191 277.192 287.423 277.192C286.911 277.192 286.506 277.288 286.207 277.48C285.919 277.661 285.658 277.88 285.423 278.136L284.287 277.976L284.687 271.832H290.671V273.016Z" fill="#CBD5E0"/>
<rect x="286" y="98.5" width="3" height="3" rx="1.5" fill="#1A202C" stroke="#9F7AEA" stroke-width="3"/>
<path d="M319.519 283.192C318.943 283.192 318.42 283.096 317.951 282.904C317.492 282.701 317.098 282.419 316.767 282.056C316.447 281.683 316.202 281.229 316.031 280.696C315.86 280.163 315.775 279.565 315.775 278.904C315.775 278.072 315.898 277.293 316.143 276.568C316.388 275.832 316.703 275.165 317.087 274.568C317.482 273.96 317.914 273.427 318.383 272.968C318.852 272.499 319.311 272.12 319.759 271.832H321.487C320.89 272.269 320.356 272.696 319.887 273.112C319.418 273.528 319.007 273.965 318.655 274.424C318.303 274.872 318.004 275.357 317.759 275.88C317.514 276.392 317.316 276.973 317.167 277.624L317.247 277.656C317.514 277.197 317.855 276.819 318.271 276.52C318.698 276.211 319.252 276.056 319.935 276.056C320.415 276.056 320.858 276.136 321.263 276.296C321.668 276.456 322.015 276.685 322.303 276.984C322.591 277.283 322.815 277.645 322.975 278.072C323.146 278.499 323.231 278.973 323.231 279.496C323.231 280.04 323.14 280.541 322.959 281C322.788 281.448 322.538 281.837 322.207 282.168C321.887 282.488 321.498 282.739 321.039 282.92C320.58 283.101 320.074 283.192 319.519 283.192ZM319.503 282.024C320.239 282.024 320.81 281.821 321.215 281.416C321.631 281.011 321.839 280.429 321.839 279.672V279.544C321.839 278.787 321.631 278.205 321.215 277.8C320.81 277.395 320.239 277.192 319.503 277.192C318.767 277.192 318.191 277.395 317.775 277.8C317.37 278.205 317.167 278.787 317.167 279.544V279.672C317.167 280.429 317.37 281.011 317.775 281.416C318.191 281.821 318.767 282.024 319.503 282.024Z" fill="#CBD5E0"/>
<rect x="318" y="187.5" width="3" height="3" rx="1.5" fill="#1A202C" stroke="#9F7AEA" stroke-width="3"/>
<path d="M349.503 283L353.775 272.984H349.007V275.064H347.807V271.832H355.135V273.016L350.943 283H349.503Z" fill="#CBD5E0"/>
<rect x="350" y="59.5" width="3" height="3" rx="1.5" fill="#1A202C" stroke="#9F7AEA" stroke-width="3"/>
</svg>
