<svg width="327" height="210" viewBox="0 0 327 210" fill="none" xmlns="http://www.w3.org/2000/svg">
<line x1="0.5" y1="210" x2="0.500003" y2="140" stroke="#6B539D"/>
<line x1="199.5" y1="70" x2="199.5" y2="2.18557e-08" stroke="#6B539D"/>
<line x1="101" y1="140.5" x2="1" y2="140.5" stroke="#6B539D"/>
<line x1="300" y1="0.5" x2="200" y2="0.5" stroke="#6B539D"/>
<line x1="100.5" y1="140" x2="100.5" y2="70" stroke="#6B539D" stroke-dasharray="2 2"/>
<line x1="100" y1="69.5" x2="200" y2="69.5" stroke="#6B539D" stroke-dasharray="2 2"/>
<path d="M17.7727 160.614V159.364H26.5V160.614H22.8409V171H21.4318V160.614H17.7727ZM30.7727 171.182C29.9848 171.182 29.2936 170.994 28.6989 170.619C28.108 170.244 27.6458 169.72 27.3125 169.045C26.983 168.371 26.8182 167.583 26.8182 166.682C26.8182 165.773 26.983 164.979 27.3125 164.301C27.6458 163.623 28.108 163.097 28.6989 162.722C29.2936 162.347 29.9848 162.159 30.7727 162.159C31.5606 162.159 32.25 162.347 32.8409 162.722C33.4356 163.097 33.8977 163.623 34.2273 164.301C34.5606 164.979 34.7273 165.773 34.7273 166.682C34.7273 167.583 34.5606 168.371 34.2273 169.045C33.8977 169.72 33.4356 170.244 32.8409 170.619C32.25 170.994 31.5606 171.182 30.7727 171.182ZM30.7727 169.977C31.3712 169.977 31.8636 169.824 32.25 169.517C32.6364 169.21 32.9223 168.807 33.108 168.307C33.2936 167.807 33.3864 167.265 33.3864 166.682C33.3864 166.098 33.2936 165.555 33.108 165.051C32.9223 164.547 32.6364 164.14 32.25 163.83C31.8636 163.519 31.3712 163.364 30.7727 163.364C30.1742 163.364 29.6818 163.519 29.2955 163.83C28.9091 164.14 28.6231 164.547 28.4375 165.051C28.2519 165.555 28.1591 166.098 28.1591 166.682C28.1591 167.265 28.2519 167.807 28.4375 168.307C28.6231 168.807 28.9091 169.21 29.2955 169.517C29.6818 169.824 30.1742 169.977 30.7727 169.977ZM40.0696 171.182C39.3423 171.182 38.7003 170.998 38.1435 170.631C37.5866 170.259 37.151 169.737 36.8366 169.062C36.5223 168.384 36.3651 167.583 36.3651 166.659C36.3651 165.742 36.5223 164.947 36.8366 164.273C37.151 163.598 37.5885 163.078 38.1491 162.71C38.7098 162.343 39.3575 162.159 40.0923 162.159C40.6605 162.159 41.1094 162.254 41.4389 162.443C41.7723 162.629 42.026 162.841 42.2003 163.08C42.3783 163.314 42.5166 163.508 42.6151 163.659H42.7287V159.364H44.0696V171H42.7741V169.659H42.6151C42.5166 169.818 42.3764 170.019 42.1946 170.261C42.0128 170.5 41.7533 170.714 41.4162 170.903C41.0791 171.089 40.6302 171.182 40.0696 171.182ZM40.2514 169.977C40.7893 169.977 41.2438 169.837 41.6151 169.557C41.9863 169.273 42.2685 168.881 42.4616 168.381C42.6548 167.877 42.7514 167.295 42.7514 166.636C42.7514 165.985 42.6567 165.415 42.4673 164.926C42.2779 164.434 41.9976 164.051 41.6264 163.778C41.2552 163.502 40.7969 163.364 40.2514 163.364C39.6832 163.364 39.2098 163.509 38.831 163.801C38.456 164.089 38.1738 164.481 37.9844 164.977C37.7988 165.47 37.706 166.023 37.706 166.636C37.706 167.258 37.8007 167.822 37.9901 168.33C38.1832 168.833 38.4673 169.235 38.8423 169.534C39.2211 169.83 39.6908 169.977 40.2514 169.977ZM49.2798 171.205C48.7268 171.205 48.2249 171.1 47.7741 170.892C47.3234 170.68 46.9654 170.375 46.7003 169.977C46.4351 169.576 46.3026 169.091 46.3026 168.523C46.3026 168.023 46.401 167.617 46.598 167.307C46.795 166.992 47.0582 166.746 47.3878 166.568C47.7173 166.39 48.081 166.258 48.4787 166.17C48.8802 166.08 49.2836 166.008 49.6889 165.955C50.2192 165.886 50.6491 165.835 50.9787 165.801C51.312 165.763 51.5545 165.701 51.706 165.614C51.8613 165.527 51.9389 165.375 51.9389 165.159V165.114C51.9389 164.553 51.7855 164.117 51.4787 163.807C51.1757 163.496 50.7154 163.341 50.098 163.341C49.4579 163.341 48.956 163.481 48.5923 163.761C48.2287 164.042 47.973 164.341 47.8253 164.659L46.5526 164.205C46.7798 163.674 47.0829 163.261 47.4616 162.966C47.8442 162.667 48.2609 162.458 48.7116 162.341C49.1662 162.22 49.6132 162.159 50.0526 162.159C50.3329 162.159 50.6548 162.193 51.0185 162.261C51.3859 162.326 51.7401 162.46 52.081 162.665C52.4257 162.869 52.7116 163.178 52.9389 163.591C53.1662 164.004 53.2798 164.557 53.2798 165.25V171H51.9389V169.818H51.8707C51.7798 170.008 51.6283 170.21 51.4162 170.426C51.2041 170.642 50.9219 170.826 50.5696 170.977C50.2173 171.129 49.7874 171.205 49.2798 171.205ZM49.4844 170C50.0147 170 50.4616 169.896 50.8253 169.688C51.1927 169.479 51.4692 169.21 51.6548 168.881C51.8442 168.551 51.9389 168.205 51.9389 167.841V166.614C51.8821 166.682 51.7571 166.744 51.5639 166.801C51.3745 166.854 51.1548 166.902 50.9048 166.943C50.6586 166.981 50.4181 167.015 50.1832 167.045C49.9522 167.072 49.7647 167.095 49.6207 167.114C49.2723 167.159 48.9465 167.233 48.6435 167.335C48.3442 167.434 48.1018 167.583 47.9162 167.784C47.7344 167.981 47.6435 168.25 47.6435 168.591C47.6435 169.057 47.8158 169.409 48.1605 169.648C48.509 169.883 48.9503 170 49.4844 170ZM56.2784 174.273C56.0511 174.273 55.8485 174.254 55.6705 174.216C55.4924 174.182 55.3693 174.148 55.3011 174.114L55.642 172.932C55.9678 173.015 56.2557 173.045 56.5057 173.023C56.7557 173 56.9773 172.888 57.1705 172.688C57.3674 172.491 57.5473 172.17 57.7102 171.727L57.9602 171.045L54.733 162.273H56.1875L58.5966 169.227H58.6875L61.0966 162.273H62.5511L58.8466 172.273C58.6799 172.723 58.4735 173.097 58.2273 173.392C57.9811 173.691 57.6951 173.913 57.3693 174.057C57.0473 174.201 56.6837 174.273 56.2784 174.273ZM66.0653 159.364V160.386C66.0653 160.697 66.0085 161.028 65.8949 161.381C65.785 161.729 65.6222 162.068 65.4062 162.398C65.1941 162.723 64.9366 163.008 64.6335 163.25L63.9062 162.659C64.1449 162.318 64.3513 161.964 64.5256 161.597C64.7036 161.225 64.7926 160.83 64.7926 160.409V159.364H66.0653ZM72.7841 164.227L71.5795 164.568C71.5038 164.367 71.392 164.172 71.2443 163.983C71.1004 163.79 70.9034 163.631 70.6534 163.506C70.4034 163.381 70.0833 163.318 69.6932 163.318C69.1591 163.318 68.714 163.441 68.358 163.688C68.0057 163.93 67.8295 164.239 67.8295 164.614C67.8295 164.947 67.9508 165.21 68.1932 165.403C68.4356 165.597 68.8144 165.758 69.3295 165.886L70.625 166.205C71.4053 166.394 71.9867 166.684 72.3693 167.074C72.7519 167.46 72.9432 167.958 72.9432 168.568C72.9432 169.068 72.7992 169.515 72.5114 169.909C72.2273 170.303 71.8295 170.614 71.3182 170.841C70.8068 171.068 70.2121 171.182 69.5341 171.182C68.6439 171.182 67.9072 170.989 67.3239 170.602C66.7405 170.216 66.3712 169.652 66.2159 168.909L67.4886 168.591C67.6098 169.061 67.839 169.413 68.1761 169.648C68.517 169.883 68.9621 170 69.5114 170C70.1364 170 70.6326 169.867 71 169.602C71.3712 169.333 71.5568 169.011 71.5568 168.636C71.5568 168.333 71.4508 168.08 71.2386 167.875C71.0265 167.667 70.7008 167.511 70.2614 167.409L68.8068 167.068C68.0076 166.879 67.4205 166.585 67.0455 166.188C66.6742 165.786 66.4886 165.284 66.4886 164.682C66.4886 164.189 66.6269 163.754 66.9034 163.375C67.1837 162.996 67.5644 162.699 68.0455 162.483C68.5303 162.267 69.0795 162.159 69.6932 162.159C70.5568 162.159 71.2348 162.348 71.7273 162.727C72.2235 163.106 72.5758 163.606 72.7841 164.227ZM22.6364 186.364H24.1818L25.4773 188.068L25.8182 188.523L27.75 191.091H26.2045L24.9318 189.386L24.6136 188.955L22.6364 186.364ZM28.2273 184.182C28.2273 185.409 28.0057 186.47 27.5625 187.364C27.1193 188.258 26.5114 188.947 25.7386 189.432C24.9659 189.917 24.0833 190.159 23.0909 190.159C22.0985 190.159 21.2159 189.917 20.4432 189.432C19.6705 188.947 19.0625 188.258 18.6193 187.364C18.1761 186.47 17.9545 185.409 17.9545 184.182C17.9545 182.955 18.1761 181.894 18.6193 181C19.0625 180.106 19.6705 179.417 20.4432 178.932C21.2159 178.447 22.0985 178.205 23.0909 178.205C24.0833 178.205 24.9659 178.447 25.7386 178.932C26.5114 179.417 27.1193 180.106 27.5625 181C28.0057 181.894 28.2273 182.955 28.2273 184.182ZM26.8636 184.182C26.8636 183.174 26.6951 182.324 26.358 181.631C26.0246 180.938 25.572 180.413 25 180.057C24.4318 179.701 23.7955 179.523 23.0909 179.523C22.3864 179.523 21.7481 179.701 21.1761 180.057C20.608 180.413 20.1553 180.938 19.8182 181.631C19.4848 182.324 19.3182 183.174 19.3182 184.182C19.3182 185.189 19.4848 186.04 19.8182 186.733C20.1553 187.426 20.608 187.951 21.1761 188.307C21.7481 188.663 22.3864 188.841 23.0909 188.841C23.7955 188.841 24.4318 188.663 25 188.307C25.572 187.951 26.0246 187.426 26.358 186.733C26.6951 186.04 26.8636 185.189 26.8636 184.182ZM35.9148 186.432V181.273H37.2557V190H35.9148V188.523H35.8239C35.6193 188.966 35.3011 189.343 34.8693 189.653C34.4375 189.96 33.892 190.114 33.233 190.114C32.6875 190.114 32.2027 189.994 31.7784 189.756C31.3542 189.513 31.0208 189.15 30.7784 188.665C30.536 188.176 30.4148 187.561 30.4148 186.818V181.273H31.7557V186.727C31.7557 187.364 31.9337 187.871 32.2898 188.25C32.6496 188.629 33.108 188.818 33.6648 188.818C33.9981 188.818 34.3371 188.733 34.6818 188.562C35.0303 188.392 35.322 188.131 35.5568 187.778C35.7955 187.426 35.9148 186.977 35.9148 186.432ZM42.2798 190.205C41.7268 190.205 41.2249 190.1 40.7741 189.892C40.3234 189.68 39.9654 189.375 39.7003 188.977C39.4351 188.576 39.3026 188.091 39.3026 187.523C39.3026 187.023 39.401 186.617 39.598 186.307C39.795 185.992 40.0582 185.746 40.3878 185.568C40.7173 185.39 41.081 185.258 41.4787 185.17C41.8802 185.08 42.2836 185.008 42.6889 184.955C43.2192 184.886 43.6491 184.835 43.9787 184.801C44.312 184.763 44.5545 184.701 44.706 184.614C44.8613 184.527 44.9389 184.375 44.9389 184.159V184.114C44.9389 183.553 44.7855 183.117 44.4787 182.807C44.1757 182.496 43.7154 182.341 43.098 182.341C42.4579 182.341 41.956 182.481 41.5923 182.761C41.2287 183.042 40.973 183.341 40.8253 183.659L39.5526 183.205C39.7798 182.674 40.0829 182.261 40.4616 181.966C40.8442 181.667 41.2609 181.458 41.7116 181.341C42.1662 181.22 42.6132 181.159 43.0526 181.159C43.3329 181.159 43.6548 181.193 44.0185 181.261C44.3859 181.326 44.7401 181.46 45.081 181.665C45.4257 181.869 45.7116 182.178 45.9389 182.591C46.1662 183.004 46.2798 183.557 46.2798 184.25V190H44.9389V188.818H44.8707C44.7798 189.008 44.6283 189.21 44.4162 189.426C44.2041 189.642 43.9219 189.826 43.5696 189.977C43.2173 190.129 42.7874 190.205 42.2798 190.205ZM42.4844 189C43.0147 189 43.4616 188.896 43.8253 188.688C44.1927 188.479 44.4692 188.21 44.6548 187.881C44.8442 187.551 44.9389 187.205 44.9389 186.841V185.614C44.8821 185.682 44.7571 185.744 44.5639 185.801C44.3745 185.854 44.1548 185.902 43.9048 185.943C43.6586 185.981 43.4181 186.015 43.1832 186.045C42.9522 186.072 42.7647 186.095 42.6207 186.114C42.2723 186.159 41.9465 186.233 41.6435 186.335C41.3442 186.434 41.1018 186.583 40.9162 186.784C40.7344 186.981 40.6435 187.25 40.6435 187.591C40.6435 188.057 40.8158 188.409 41.1605 188.648C41.509 188.883 41.9503 189 42.4844 189ZM50.0682 178.364V190H48.7273V178.364H50.0682ZM52.5241 190V181.273H53.8651V190H52.5241ZM53.206 179.818C52.9446 179.818 52.7192 179.729 52.5298 179.551C52.3442 179.373 52.2514 179.159 52.2514 178.909C52.2514 178.659 52.3442 178.445 52.5298 178.267C52.7192 178.089 52.9446 178 53.206 178C53.4673 178 53.6908 178.089 53.8764 178.267C54.0658 178.445 54.1605 178.659 54.1605 178.909C54.1605 179.159 54.0658 179.373 53.8764 179.551C53.6908 179.729 53.4673 179.818 53.206 179.818ZM60.2074 181.273V182.409H55.5028V181.273H60.2074ZM56.9119 190V180.068C56.9119 179.568 57.0294 179.152 57.2642 178.818C57.4991 178.485 57.804 178.235 58.179 178.068C58.554 177.902 58.9498 177.818 59.3665 177.818C59.696 177.818 59.965 177.845 60.1733 177.898C60.3816 177.951 60.5369 178 60.6392 178.045L60.2528 179.205C60.1847 179.182 60.09 179.153 59.9688 179.119C59.8513 179.085 59.696 179.068 59.5028 179.068C59.0597 179.068 58.7396 179.18 58.5426 179.403C58.3494 179.627 58.2528 179.955 58.2528 180.386V190H56.9119ZM62.0866 190V181.273H63.4276V190H62.0866ZM62.7685 179.818C62.5071 179.818 62.2817 179.729 62.0923 179.551C61.9067 179.373 61.8139 179.159 61.8139 178.909C61.8139 178.659 61.9067 178.445 62.0923 178.267C62.2817 178.089 62.5071 178 62.7685 178C63.0298 178 63.2533 178.089 63.4389 178.267C63.6283 178.445 63.723 178.659 63.723 178.909C63.723 179.159 63.6283 179.373 63.4389 179.551C63.2533 179.729 63.0298 179.818 62.7685 179.818ZM69.429 190.182C68.6108 190.182 67.9063 189.989 67.3153 189.602C66.7244 189.216 66.2699 188.684 65.9517 188.006C65.6335 187.328 65.4744 186.553 65.4744 185.682C65.4744 184.795 65.6373 184.013 65.9631 183.335C66.2926 182.653 66.7509 182.121 67.3381 181.739C67.929 181.352 68.6184 181.159 69.4062 181.159C70.0199 181.159 70.5729 181.273 71.0653 181.5C71.5578 181.727 71.9612 182.045 72.2756 182.455C72.59 182.864 72.785 183.341 72.8608 183.886H71.5199C71.4176 183.489 71.1903 183.136 70.8381 182.83C70.4896 182.519 70.0199 182.364 69.429 182.364C68.9063 182.364 68.4479 182.5 68.054 182.773C67.6638 183.042 67.3589 183.422 67.1392 183.915C66.9233 184.403 66.8153 184.977 66.8153 185.636C66.8153 186.311 66.9214 186.898 67.1335 187.398C67.3494 187.898 67.6525 188.286 68.0426 188.562C68.4366 188.839 68.8987 188.977 69.429 188.977C69.7775 188.977 70.0938 188.917 70.3778 188.795C70.6619 188.674 70.9025 188.5 71.0994 188.273C71.2964 188.045 71.4366 187.773 71.5199 187.455H72.8608C72.785 187.97 72.5975 188.434 72.2983 188.847C72.0028 189.256 71.6108 189.581 71.1222 189.824C70.6373 190.062 70.0729 190.182 69.429 190.182ZM77.3892 190.205C76.8362 190.205 76.3343 190.1 75.8835 189.892C75.4328 189.68 75.0748 189.375 74.8097 188.977C74.5445 188.576 74.4119 188.091 74.4119 187.523C74.4119 187.023 74.5104 186.617 74.7074 186.307C74.9044 185.992 75.1676 185.746 75.4972 185.568C75.8267 185.39 76.1903 185.258 76.5881 185.17C76.9896 185.08 77.393 185.008 77.7983 184.955C78.3286 184.886 78.7585 184.835 79.0881 184.801C79.4214 184.763 79.6638 184.701 79.8153 184.614C79.9706 184.527 80.0483 184.375 80.0483 184.159V184.114C80.0483 183.553 79.8949 183.117 79.5881 182.807C79.285 182.496 78.8248 182.341 78.2074 182.341C77.5672 182.341 77.0653 182.481 76.7017 182.761C76.3381 183.042 76.0824 183.341 75.9347 183.659L74.6619 183.205C74.8892 182.674 75.1922 182.261 75.571 181.966C75.9536 181.667 76.3703 181.458 76.821 181.341C77.2756 181.22 77.7225 181.159 78.1619 181.159C78.4422 181.159 78.7642 181.193 79.1278 181.261C79.4953 181.326 79.8494 181.46 80.1903 181.665C80.535 181.869 80.821 182.178 81.0483 182.591C81.2756 183.004 81.3892 183.557 81.3892 184.25V190H80.0483V188.818H79.9801C79.8892 189.008 79.7377 189.21 79.5256 189.426C79.3134 189.642 79.0313 189.826 78.679 189.977C78.3267 190.129 77.8968 190.205 77.3892 190.205ZM77.5938 189C78.1241 189 78.571 188.896 78.9347 188.688C79.3021 188.479 79.5786 188.21 79.7642 187.881C79.9536 187.551 80.0483 187.205 80.0483 186.841V185.614C79.9915 185.682 79.8665 185.744 79.6733 185.801C79.4839 185.854 79.2642 185.902 79.0142 185.943C78.768 185.981 78.5275 186.015 78.2926 186.045C78.0616 186.072 77.8741 186.095 77.7301 186.114C77.3816 186.159 77.0559 186.233 76.7528 186.335C76.4536 186.434 76.2112 186.583 76.0256 186.784C75.8438 186.981 75.7528 187.25 75.7528 187.591C75.7528 188.057 75.9252 188.409 76.2699 188.648C76.6184 188.883 77.0597 189 77.5938 189ZM87.6321 181.273V182.409H83.1094V181.273H87.6321ZM84.4276 179.182H85.7685V187.5C85.7685 187.879 85.8234 188.163 85.9332 188.352C86.0469 188.538 86.1908 188.663 86.3651 188.727C86.5431 188.788 86.7306 188.818 86.9276 188.818C87.0753 188.818 87.1965 188.811 87.2912 188.795C87.3859 188.777 87.4616 188.761 87.5185 188.75L87.7912 189.955C87.7003 189.989 87.5734 190.023 87.4105 190.057C87.2476 190.095 87.0412 190.114 86.7912 190.114C86.4124 190.114 86.0412 190.032 85.6776 189.869C85.3177 189.706 85.0185 189.458 84.7798 189.125C84.545 188.792 84.4276 188.371 84.4276 187.864V179.182ZM89.6491 190V181.273H90.9901V190H89.6491ZM90.331 179.818C90.0696 179.818 89.8442 179.729 89.6548 179.551C89.4692 179.373 89.3764 179.159 89.3764 178.909C89.3764 178.659 89.4692 178.445 89.6548 178.267C89.8442 178.089 90.0696 178 90.331 178C90.5923 178 90.8158 178.089 91.0014 178.267C91.1908 178.445 91.2855 178.659 91.2855 178.909C91.2855 179.159 91.1908 179.373 91.0014 179.551C90.8158 179.729 90.5923 179.818 90.331 179.818ZM96.9915 190.182C96.2036 190.182 95.5123 189.994 94.9176 189.619C94.3267 189.244 93.8646 188.72 93.5312 188.045C93.2017 187.371 93.0369 186.583 93.0369 185.682C93.0369 184.773 93.2017 183.979 93.5312 183.301C93.8646 182.623 94.3267 182.097 94.9176 181.722C95.5123 181.347 96.2036 181.159 96.9915 181.159C97.7794 181.159 98.4688 181.347 99.0597 181.722C99.6544 182.097 100.116 182.623 100.446 183.301C100.779 183.979 100.946 184.773 100.946 185.682C100.946 186.583 100.779 187.371 100.446 188.045C100.116 188.72 99.6544 189.244 99.0597 189.619C98.4688 189.994 97.7794 190.182 96.9915 190.182ZM96.9915 188.977C97.59 188.977 98.0824 188.824 98.4688 188.517C98.8551 188.21 99.1411 187.807 99.3267 187.307C99.5123 186.807 99.6051 186.265 99.6051 185.682C99.6051 185.098 99.5123 184.555 99.3267 184.051C99.1411 183.547 98.8551 183.14 98.4688 182.83C98.0824 182.519 97.59 182.364 96.9915 182.364C96.393 182.364 95.9006 182.519 95.5142 182.83C95.1278 183.14 94.8419 183.547 94.6562 184.051C94.4706 184.555 94.3778 185.098 94.3778 185.682C94.3778 186.265 94.4706 186.807 94.6562 187.307C94.8419 187.807 95.1278 188.21 95.5142 188.517C95.9006 188.824 96.393 188.977 96.9915 188.977ZM104.334 184.75V190H102.993V181.273H104.288V182.636H104.402C104.607 182.193 104.917 181.837 105.334 181.568C105.75 181.295 106.288 181.159 106.947 181.159C107.538 181.159 108.055 181.28 108.499 181.523C108.942 181.761 109.286 182.125 109.533 182.614C109.779 183.098 109.902 183.712 109.902 184.455V190H108.561V184.545C108.561 183.86 108.383 183.326 108.027 182.943C107.671 182.557 107.182 182.364 106.561 182.364C106.133 182.364 105.75 182.456 105.413 182.642C105.08 182.828 104.817 183.098 104.624 183.455C104.43 183.811 104.334 184.242 104.334 184.75ZM118.534 183.227L117.33 183.568C117.254 183.367 117.142 183.172 116.994 182.983C116.85 182.79 116.653 182.631 116.403 182.506C116.153 182.381 115.833 182.318 115.443 182.318C114.909 182.318 114.464 182.441 114.108 182.688C113.756 182.93 113.58 183.239 113.58 183.614C113.58 183.947 113.701 184.21 113.943 184.403C114.186 184.597 114.564 184.758 115.08 184.886L116.375 185.205C117.155 185.394 117.737 185.684 118.119 186.074C118.502 186.46 118.693 186.958 118.693 187.568C118.693 188.068 118.549 188.515 118.261 188.909C117.977 189.303 117.58 189.614 117.068 189.841C116.557 190.068 115.962 190.182 115.284 190.182C114.394 190.182 113.657 189.989 113.074 189.602C112.491 189.216 112.121 188.652 111.966 187.909L113.239 187.591C113.36 188.061 113.589 188.413 113.926 188.648C114.267 188.883 114.712 189 115.261 189C115.886 189 116.383 188.867 116.75 188.602C117.121 188.333 117.307 188.011 117.307 187.636C117.307 187.333 117.201 187.08 116.989 186.875C116.777 186.667 116.451 186.511 116.011 186.409L114.557 186.068C113.758 185.879 113.17 185.585 112.795 185.188C112.424 184.786 112.239 184.284 112.239 183.682C112.239 183.189 112.377 182.754 112.653 182.375C112.934 181.996 113.314 181.699 113.795 181.483C114.28 181.267 114.83 181.159 115.443 181.159C116.307 181.159 116.985 181.348 117.477 181.727C117.973 182.106 118.326 182.606 118.534 183.227Z" fill="#CBD5E0"/>
<path d="M217.773 20.6136V19.3636H226.5V20.6136H222.841V31H221.432V20.6136H217.773ZM230.773 31.1818C229.985 31.1818 229.294 30.9943 228.699 30.6193C228.108 30.2443 227.646 29.7197 227.312 29.0455C226.983 28.3712 226.818 27.5833 226.818 26.6818C226.818 25.7727 226.983 24.9792 227.312 24.3011C227.646 23.6231 228.108 23.0966 228.699 22.7216C229.294 22.3466 229.985 22.1591 230.773 22.1591C231.561 22.1591 232.25 22.3466 232.841 22.7216C233.436 23.0966 233.898 23.6231 234.227 24.3011C234.561 24.9792 234.727 25.7727 234.727 26.6818C234.727 27.5833 234.561 28.3712 234.227 29.0455C233.898 29.7197 233.436 30.2443 232.841 30.6193C232.25 30.9943 231.561 31.1818 230.773 31.1818ZM230.773 29.9773C231.371 29.9773 231.864 29.8239 232.25 29.517C232.636 29.2102 232.922 28.8068 233.108 28.3068C233.294 27.8068 233.386 27.2652 233.386 26.6818C233.386 26.0985 233.294 25.5549 233.108 25.0511C232.922 24.5473 232.636 24.1402 232.25 23.8295C231.864 23.5189 231.371 23.3636 230.773 23.3636C230.174 23.3636 229.682 23.5189 229.295 23.8295C228.909 24.1402 228.623 24.5473 228.438 25.0511C228.252 25.5549 228.159 26.0985 228.159 26.6818C228.159 27.2652 228.252 27.8068 228.438 28.3068C228.623 28.8068 228.909 29.2102 229.295 29.517C229.682 29.8239 230.174 29.9773 230.773 29.9773ZM236.774 31V22.2727H238.07V23.6364H238.183C238.365 23.1705 238.659 22.8087 239.064 22.5511C239.469 22.2898 239.956 22.1591 240.524 22.1591C241.1 22.1591 241.579 22.2898 241.962 22.5511C242.348 22.8087 242.649 23.1705 242.865 23.6364H242.956C243.179 23.1856 243.515 22.8277 243.962 22.5625C244.409 22.2936 244.945 22.1591 245.57 22.1591C246.35 22.1591 246.988 22.4034 247.484 22.892C247.981 23.3769 248.229 24.1326 248.229 25.1591V31H246.888V25.1591C246.888 24.5152 246.712 24.0549 246.359 23.7784C246.007 23.5019 245.592 23.3636 245.115 23.3636C244.501 23.3636 244.026 23.5492 243.689 23.9205C243.352 24.2879 243.183 24.7538 243.183 25.3182V31H241.82V25.0227C241.82 24.5265 241.659 24.1269 241.337 23.8239C241.015 23.517 240.6 23.3636 240.092 23.3636C239.744 23.3636 239.418 23.4564 239.115 23.642C238.816 23.8277 238.573 24.0852 238.388 24.4148C238.206 24.7405 238.115 25.1174 238.115 25.5455V31H236.774ZM254.226 31.1818C253.438 31.1818 252.747 30.9943 252.152 30.6193C251.561 30.2443 251.099 29.7197 250.766 29.0455C250.436 28.3712 250.271 27.5833 250.271 26.6818C250.271 25.7727 250.436 24.9792 250.766 24.3011C251.099 23.6231 251.561 23.0966 252.152 22.7216C252.747 22.3466 253.438 22.1591 254.226 22.1591C255.014 22.1591 255.703 22.3466 256.294 22.7216C256.889 23.0966 257.351 23.6231 257.68 24.3011C258.014 24.9792 258.18 25.7727 258.18 26.6818C258.18 27.5833 258.014 28.3712 257.68 29.0455C257.351 29.7197 256.889 30.2443 256.294 30.6193C255.703 30.9943 255.014 31.1818 254.226 31.1818ZM254.226 29.9773C254.824 29.9773 255.317 29.8239 255.703 29.517C256.089 29.2102 256.375 28.8068 256.561 28.3068C256.747 27.8068 256.839 27.2652 256.839 26.6818C256.839 26.0985 256.747 25.5549 256.561 25.0511C256.375 24.5473 256.089 24.1402 255.703 23.8295C255.317 23.5189 254.824 23.3636 254.226 23.3636C253.627 23.3636 253.135 23.5189 252.749 23.8295C252.362 24.1402 252.076 24.5473 251.891 25.0511C251.705 25.5549 251.612 26.0985 251.612 26.6818C251.612 27.2652 251.705 27.8068 251.891 28.3068C252.076 28.8068 252.362 29.2102 252.749 29.517C253.135 29.8239 253.627 29.9773 254.226 29.9773ZM260.227 31V22.2727H261.523V23.5909H261.614C261.773 23.1591 262.061 22.8087 262.477 22.5398C262.894 22.2708 263.364 22.1364 263.886 22.1364C263.985 22.1364 264.108 22.1383 264.256 22.142C264.403 22.1458 264.515 22.1515 264.591 22.1591V23.5227C264.545 23.5114 264.441 23.4943 264.278 23.4716C264.119 23.4451 263.951 23.4318 263.773 23.4318C263.348 23.4318 262.97 23.5208 262.636 23.6989C262.307 23.8731 262.045 24.1155 261.852 24.4261C261.663 24.733 261.568 25.0833 261.568 25.4773V31H260.227ZM266.18 31V22.2727H267.476V23.5909H267.567C267.726 23.1591 268.014 22.8087 268.43 22.5398C268.847 22.2708 269.317 22.1364 269.839 22.1364C269.938 22.1364 270.061 22.1383 270.209 22.142C270.357 22.1458 270.468 22.1515 270.544 22.1591V23.5227C270.499 23.5114 270.394 23.4943 270.232 23.4716C270.072 23.4451 269.904 23.4318 269.726 23.4318C269.302 23.4318 268.923 23.5208 268.589 23.6989C268.26 23.8731 267.999 24.1155 267.805 24.4261C267.616 24.733 267.521 25.0833 267.521 25.4773V31H266.18ZM275.413 31.1818C274.625 31.1818 273.934 30.9943 273.339 30.6193C272.749 30.2443 272.286 29.7197 271.953 29.0455C271.624 28.3712 271.459 27.5833 271.459 26.6818C271.459 25.7727 271.624 24.9792 271.953 24.3011C272.286 23.6231 272.749 23.0966 273.339 22.7216C273.934 22.3466 274.625 22.1591 275.413 22.1591C276.201 22.1591 276.891 22.3466 277.482 22.7216C278.076 23.0966 278.538 23.6231 278.868 24.3011C279.201 24.9792 279.368 25.7727 279.368 26.6818C279.368 27.5833 279.201 28.3712 278.868 29.0455C278.538 29.7197 278.076 30.2443 277.482 30.6193C276.891 30.9943 276.201 31.1818 275.413 31.1818ZM275.413 29.9773C276.012 29.9773 276.504 29.8239 276.891 29.517C277.277 29.2102 277.563 28.8068 277.749 28.3068C277.934 27.8068 278.027 27.2652 278.027 26.6818C278.027 26.0985 277.934 25.5549 277.749 25.0511C277.563 24.5473 277.277 24.1402 276.891 23.8295C276.504 23.5189 276.012 23.3636 275.413 23.3636C274.815 23.3636 274.322 23.5189 273.936 23.8295C273.55 24.1402 273.264 24.5473 273.078 25.0511C272.893 25.5549 272.8 26.0985 272.8 26.6818C272.8 27.2652 272.893 27.8068 273.078 28.3068C273.264 28.8068 273.55 29.2102 273.936 29.517C274.322 29.8239 274.815 29.9773 275.413 29.9773ZM283.095 31L280.436 22.2727H281.845L283.732 28.9545H283.822L285.686 22.2727H287.118L288.959 28.9318H289.05L290.936 22.2727H292.345L289.686 31H288.368L286.459 24.2955H286.322L284.413 31H283.095ZM295.987 19.3636V20.3864C295.987 20.697 295.93 21.0284 295.817 21.3807C295.707 21.7292 295.544 22.0682 295.328 22.3977C295.116 22.7235 294.858 23.0076 294.555 23.25L293.828 22.6591C294.067 22.3182 294.273 21.964 294.447 21.5966C294.625 21.2254 294.714 20.8295 294.714 20.4091V19.3636H295.987ZM302.706 24.2273L301.501 24.5682C301.426 24.3674 301.314 24.1723 301.166 23.983C301.022 23.7898 300.825 23.6307 300.575 23.5057C300.325 23.3807 300.005 23.3182 299.615 23.3182C299.081 23.3182 298.636 23.4413 298.28 23.6875C297.928 23.9299 297.751 24.2386 297.751 24.6136C297.751 24.947 297.873 25.2102 298.115 25.4034C298.357 25.5966 298.736 25.7576 299.251 25.8864L300.547 26.2045C301.327 26.3939 301.909 26.6837 302.291 27.0739C302.674 27.4602 302.865 27.9583 302.865 28.5682C302.865 29.0682 302.721 29.5152 302.433 29.9091C302.149 30.303 301.751 30.6136 301.24 30.8409C300.729 31.0682 300.134 31.1818 299.456 31.1818C298.566 31.1818 297.829 30.9886 297.246 30.6023C296.662 30.2159 296.293 29.6515 296.138 28.9091L297.411 28.5909C297.532 29.0606 297.761 29.4129 298.098 29.6477C298.439 29.8826 298.884 30 299.433 30C300.058 30 300.554 29.8674 300.922 29.6023C301.293 29.3333 301.479 29.0114 301.479 28.6364C301.479 28.3333 301.373 28.0795 301.161 27.875C300.948 27.6667 300.623 27.5114 300.183 27.4091L298.729 27.0682C297.929 26.8788 297.342 26.5852 296.967 26.1875C296.596 25.786 296.411 25.2841 296.411 24.6818C296.411 24.1894 296.549 23.7538 296.825 23.375C297.106 22.9962 297.486 22.6989 297.967 22.483C298.452 22.267 299.001 22.1591 299.615 22.1591C300.479 22.1591 301.157 22.3485 301.649 22.7273C302.145 23.1061 302.498 23.6061 302.706 24.2273ZM218.409 50V38.3636H222.341C223.25 38.3636 223.996 38.5189 224.58 38.8295C225.163 39.1364 225.595 39.5587 225.875 40.0966C226.155 40.6345 226.295 41.2462 226.295 41.9318C226.295 42.6174 226.155 43.2254 225.875 43.7557C225.595 44.286 225.165 44.7027 224.585 45.0057C224.006 45.3049 223.265 45.4545 222.364 45.4545H219.182V44.1818H222.318C222.939 44.1818 223.439 44.0909 223.818 43.9091C224.201 43.7273 224.477 43.4697 224.648 43.1364C224.822 42.7992 224.909 42.3977 224.909 41.9318C224.909 41.4659 224.822 41.0587 224.648 40.7102C224.473 40.3617 224.195 40.0928 223.812 39.9034C223.43 39.7102 222.924 39.6136 222.295 39.6136H219.818V50H218.409ZM223.886 44.7727L226.75 50H225.114L222.295 44.7727H223.886ZM232.027 50.1818C231.186 50.1818 230.461 49.9962 229.851 49.625C229.245 49.25 228.777 48.7273 228.447 48.0568C228.122 47.3826 227.959 46.5985 227.959 45.7045C227.959 44.8106 228.122 44.0227 228.447 43.3409C228.777 42.6553 229.235 42.1212 229.822 41.7386C230.413 41.3523 231.103 41.1591 231.891 41.1591C232.345 41.1591 232.794 41.2348 233.237 41.3864C233.68 41.5379 234.084 41.7841 234.447 42.125C234.811 42.4621 235.101 42.9091 235.317 43.4659C235.533 44.0227 235.641 44.7083 235.641 45.5227V46.0909H228.913V44.9318H234.277C234.277 44.4394 234.179 44 233.982 43.6136C233.788 43.2273 233.512 42.9223 233.152 42.6989C232.796 42.4754 232.375 42.3636 231.891 42.3636C231.357 42.3636 230.894 42.4962 230.504 42.7614C230.118 43.0227 229.821 43.3636 229.612 43.7841C229.404 44.2045 229.3 44.6553 229.3 45.1364V45.9091C229.3 46.5682 229.413 47.1269 229.641 47.5852C229.872 48.0398 230.192 48.3864 230.601 48.625C231.01 48.8598 231.485 48.9773 232.027 48.9773C232.379 48.9773 232.697 48.928 232.982 48.8295C233.269 48.7273 233.518 48.5758 233.726 48.375C233.934 48.1705 234.095 47.9167 234.209 47.6136L235.504 47.9773C235.368 48.4167 235.139 48.803 234.817 49.1364C234.495 49.4659 234.097 49.7235 233.624 49.9091C233.15 50.0909 232.618 50.1818 232.027 50.1818ZM243.635 53.2727V48.6591H243.521C243.423 48.8182 243.283 49.0189 243.101 49.2614C242.919 49.5 242.66 49.714 242.322 49.9034C241.985 50.089 241.536 50.1818 240.976 50.1818C240.249 50.1818 239.607 49.9981 239.05 49.6307C238.493 49.2595 238.057 48.7367 237.743 48.0625C237.429 47.3845 237.271 46.5833 237.271 45.6591C237.271 44.7424 237.429 43.947 237.743 43.2727C238.057 42.5985 238.495 42.0777 239.055 41.7102C239.616 41.3428 240.264 41.1591 240.999 41.1591C241.567 41.1591 242.016 41.2538 242.345 41.4432C242.679 41.6288 242.932 41.8409 243.107 42.0795C243.285 42.3144 243.423 42.5076 243.521 42.6591H243.68V41.2727H244.976V53.2727H243.635ZM241.158 48.9773C241.696 48.9773 242.15 48.8371 242.521 48.5568C242.893 48.2727 243.175 47.8807 243.368 47.3807C243.561 46.8769 243.658 46.2955 243.658 45.6364C243.658 44.9848 243.563 44.4148 243.374 43.9261C243.184 43.4337 242.904 43.0511 242.533 42.7784C242.161 42.5019 241.703 42.3636 241.158 42.3636C240.589 42.3636 240.116 42.5095 239.737 42.8011C239.362 43.089 239.08 43.4811 238.891 43.9773C238.705 44.4697 238.612 45.0227 238.612 45.6364C238.612 46.2576 238.707 46.822 238.896 47.3295C239.089 47.8333 239.374 48.2348 239.749 48.5341C240.127 48.8295 240.597 48.9773 241.158 48.9773ZM252.93 46.4318V41.2727H254.271V50H252.93V48.5227H252.839C252.635 48.9659 252.317 49.3428 251.885 49.6534C251.453 49.9602 250.908 50.1136 250.249 50.1136C249.703 50.1136 249.218 49.9943 248.794 49.7557C248.37 49.5133 248.036 49.1496 247.794 48.6648C247.552 48.1761 247.43 47.5606 247.43 46.8182V41.2727H248.771V46.7273C248.771 47.3636 248.949 47.8712 249.305 48.25C249.665 48.6288 250.124 48.8182 250.68 48.8182C251.014 48.8182 251.353 48.733 251.697 48.5625C252.046 48.392 252.338 48.1307 252.572 47.7784C252.811 47.4261 252.93 46.9773 252.93 46.4318ZM256.727 50V41.2727H258.068V50H256.727ZM257.409 39.8182C257.148 39.8182 256.922 39.7292 256.733 39.5511C256.547 39.3731 256.455 39.1591 256.455 38.9091C256.455 38.6591 256.547 38.4451 256.733 38.267C256.922 38.089 257.148 38 257.409 38C257.67 38 257.894 38.089 258.08 38.267C258.269 38.4451 258.364 38.6591 258.364 38.9091C258.364 39.1591 258.269 39.3731 258.08 39.5511C257.894 39.7292 257.67 39.8182 257.409 39.8182ZM260.524 50V41.2727H261.82V42.5909H261.911C262.07 42.1591 262.357 41.8087 262.774 41.5398C263.191 41.2708 263.661 41.1364 264.183 41.1364C264.282 41.1364 264.405 41.1383 264.553 41.142C264.7 41.1458 264.812 41.1515 264.888 41.1591V42.5227C264.842 42.5114 264.738 42.4943 264.575 42.4716C264.416 42.4451 264.248 42.4318 264.07 42.4318C263.645 42.4318 263.267 42.5208 262.933 42.6989C262.604 42.8731 262.342 43.1155 262.149 43.4261C261.96 43.733 261.865 44.0833 261.865 44.4773V50H260.524ZM269.871 50.1818C269.03 50.1818 268.304 49.9962 267.695 49.625C267.089 49.25 266.621 48.7273 266.291 48.0568C265.965 47.3826 265.803 46.5985 265.803 45.7045C265.803 44.8106 265.965 44.0227 266.291 43.3409C266.621 42.6553 267.079 42.1212 267.666 41.7386C268.257 41.3523 268.946 41.1591 269.734 41.1591C270.189 41.1591 270.638 41.2348 271.081 41.3864C271.524 41.5379 271.928 41.7841 272.291 42.125C272.655 42.4621 272.945 42.9091 273.161 43.4659C273.376 44.0227 273.484 44.7083 273.484 45.5227V46.0909H266.757V44.9318H272.121C272.121 44.4394 272.022 44 271.825 43.6136C271.632 43.2273 271.356 42.9223 270.996 42.6989C270.64 42.4754 270.219 42.3636 269.734 42.3636C269.2 42.3636 268.738 42.4962 268.348 42.7614C267.962 43.0227 267.664 43.3636 267.456 43.7841C267.248 44.2045 267.143 44.6553 267.143 45.1364V45.9091C267.143 46.5682 267.257 47.1269 267.484 47.5852C267.715 48.0398 268.036 48.3864 268.445 48.625C268.854 48.8598 269.329 48.9773 269.871 48.9773C270.223 48.9773 270.541 48.928 270.825 48.8295C271.113 48.7273 271.361 48.5758 271.57 48.375C271.778 48.1705 271.939 47.9167 272.053 47.6136L273.348 47.9773C273.212 48.4167 272.982 48.803 272.661 49.1364C272.339 49.4659 271.941 49.7235 271.467 49.9091C270.994 50.0909 270.462 50.1818 269.871 50.1818ZM275.524 50V41.2727H276.82V42.6364H276.933C277.115 42.1705 277.409 41.8087 277.814 41.5511C278.219 41.2898 278.706 41.1591 279.274 41.1591C279.85 41.1591 280.329 41.2898 280.712 41.5511C281.098 41.8087 281.399 42.1705 281.615 42.6364H281.706C281.929 42.1856 282.265 41.8277 282.712 41.5625C283.159 41.2936 283.695 41.1591 284.32 41.1591C285.1 41.1591 285.738 41.4034 286.234 41.892C286.731 42.3769 286.979 43.1326 286.979 44.1591V50H285.638V44.1591C285.638 43.5152 285.462 43.0549 285.109 42.7784C284.757 42.5019 284.342 42.3636 283.865 42.3636C283.251 42.3636 282.776 42.5492 282.439 42.9205C282.102 43.2879 281.933 43.7538 281.933 44.3182V50H280.57V44.0227C280.57 43.5265 280.409 43.1269 280.087 42.8239C279.765 42.517 279.35 42.3636 278.842 42.3636C278.494 42.3636 278.168 42.4564 277.865 42.642C277.566 42.8277 277.323 43.0852 277.138 43.4148C276.956 43.7405 276.865 44.1174 276.865 44.5455V50H275.524ZM293.089 50.1818C292.249 50.1818 291.523 49.9962 290.913 49.625C290.307 49.25 289.839 48.7273 289.51 48.0568C289.184 47.3826 289.021 46.5985 289.021 45.7045C289.021 44.8106 289.184 44.0227 289.51 43.3409C289.839 42.6553 290.298 42.1212 290.885 41.7386C291.476 41.3523 292.165 41.1591 292.953 41.1591C293.408 41.1591 293.857 41.2348 294.3 41.3864C294.743 41.5379 295.146 41.7841 295.51 42.125C295.874 42.4621 296.163 42.9091 296.379 43.4659C296.595 44.0227 296.703 44.7083 296.703 45.5227V46.0909H289.976V44.9318H295.339C295.339 44.4394 295.241 44 295.044 43.6136C294.851 43.2273 294.574 42.9223 294.214 42.6989C293.858 42.4754 293.438 42.3636 292.953 42.3636C292.419 42.3636 291.957 42.4962 291.567 42.7614C291.18 43.0227 290.883 43.3636 290.675 43.7841C290.466 44.2045 290.362 44.6553 290.362 45.1364V45.9091C290.362 46.5682 290.476 47.1269 290.703 47.5852C290.934 48.0398 291.254 48.3864 291.663 48.625C292.072 48.8598 292.548 48.9773 293.089 48.9773C293.442 48.9773 293.76 48.928 294.044 48.8295C294.332 48.7273 294.58 48.5758 294.788 48.375C294.997 48.1705 295.158 47.9167 295.271 47.6136L296.567 47.9773C296.43 48.4167 296.201 48.803 295.879 49.1364C295.557 49.4659 295.16 49.7235 294.686 49.9091C294.213 50.0909 293.68 50.1818 293.089 50.1818ZM300.084 44.75V50H298.743V41.2727H300.038V42.6364H300.152C300.357 42.1932 300.667 41.8371 301.084 41.5682C301.5 41.2955 302.038 41.1591 302.697 41.1591C303.288 41.1591 303.805 41.2803 304.249 41.5227C304.692 41.7614 305.036 42.125 305.283 42.6136C305.529 43.0985 305.652 43.7121 305.652 44.4545V50H304.311V44.5455C304.311 43.8598 304.133 43.3258 303.777 42.9432C303.421 42.5568 302.932 42.3636 302.311 42.3636C301.883 42.3636 301.5 42.4564 301.163 42.642C300.83 42.8277 300.567 43.0985 300.374 43.4545C300.18 43.8106 300.084 44.2424 300.084 44.75ZM311.898 41.2727V42.4091H307.375V41.2727H311.898ZM308.693 39.1818H310.034V47.5C310.034 47.8788 310.089 48.1629 310.199 48.3523C310.313 48.5379 310.456 48.6629 310.631 48.7273C310.809 48.7879 310.996 48.8182 311.193 48.8182C311.341 48.8182 311.462 48.8106 311.557 48.7955C311.652 48.7765 311.727 48.7614 311.784 48.75L312.057 49.9545C311.966 49.9886 311.839 50.0227 311.676 50.0568C311.513 50.0947 311.307 50.1136 311.057 50.1136C310.678 50.1136 310.307 50.0322 309.943 49.8693C309.583 49.7064 309.284 49.4583 309.045 49.125C308.811 48.7917 308.693 48.3712 308.693 47.8636V39.1818ZM319.94 43.2273L318.736 43.5682C318.66 43.3674 318.548 43.1723 318.401 42.983C318.257 42.7898 318.06 42.6307 317.81 42.5057C317.56 42.3807 317.24 42.3182 316.849 42.3182C316.315 42.3182 315.87 42.4413 315.514 42.6875C315.162 42.9299 314.986 43.2386 314.986 43.6136C314.986 43.947 315.107 44.2102 315.349 44.4034C315.592 44.5966 315.971 44.7576 316.486 44.8864L317.781 45.2045C318.562 45.3939 319.143 45.6837 319.526 46.0739C319.908 46.4602 320.099 46.9583 320.099 47.5682C320.099 48.0682 319.955 48.5152 319.668 48.9091C319.384 49.303 318.986 49.6136 318.474 49.8409C317.963 50.0682 317.368 50.1818 316.69 50.1818C315.8 50.1818 315.063 49.9886 314.48 49.6023C313.897 49.2159 313.527 48.6515 313.372 47.9091L314.645 47.5909C314.766 48.0606 314.995 48.4129 315.332 48.6477C315.673 48.8826 316.118 49 316.668 49C317.293 49 317.789 48.8674 318.156 48.6023C318.527 48.3333 318.713 48.0114 318.713 47.6364C318.713 47.3333 318.607 47.0795 318.395 46.875C318.183 46.6667 317.857 46.5114 317.418 46.4091L315.963 46.0682C315.164 45.8788 314.577 45.5852 314.202 45.1875C313.83 44.786 313.645 44.2841 313.645 43.6818C313.645 43.1894 313.783 42.7538 314.06 42.375C314.34 41.9962 314.721 41.6989 315.202 41.483C315.687 41.267 316.236 41.1591 316.849 41.1591C317.713 41.1591 318.391 41.3485 318.884 41.7273C319.38 42.1061 319.732 42.6061 319.94 43.2273Z" fill="#CBD5E0"/>
<path d="M147.426 108.075V107.858C147.43 107.112 147.496 106.518 147.624 106.075C147.756 105.631 147.948 105.273 148.2 105.001C148.451 104.728 148.754 104.481 149.107 104.259C149.371 104.089 149.608 103.912 149.817 103.729C150.026 103.545 150.192 103.343 150.315 103.121C150.439 102.896 150.501 102.644 150.501 102.367C150.501 102.073 150.43 101.815 150.29 101.594C150.149 101.372 149.96 101.202 149.721 101.082C149.487 100.963 149.227 100.903 148.941 100.903C148.664 100.903 148.402 100.965 148.155 101.089C147.908 101.208 147.705 101.387 147.548 101.626C147.39 101.86 147.305 102.152 147.292 102.501H144.684C144.705 101.649 144.91 100.946 145.298 100.392C145.685 99.8338 146.199 99.4183 146.838 99.1456C147.477 98.8686 148.183 98.7301 148.954 98.7301C149.802 98.7301 150.552 98.8707 151.204 99.152C151.856 99.429 152.367 99.8317 152.738 100.36C153.109 100.888 153.294 101.526 153.294 102.271C153.294 102.77 153.211 103.213 153.045 103.601C152.883 103.984 152.655 104.325 152.361 104.624C152.067 104.918 151.719 105.184 151.319 105.423C150.982 105.623 150.705 105.832 150.488 106.049C150.275 106.266 150.115 106.518 150.009 106.803C149.906 107.089 149.853 107.44 149.849 107.858V108.075H147.426ZM148.692 112.166C148.266 112.166 147.901 112.017 147.599 111.719C147.3 111.416 147.153 111.054 147.158 110.632C147.153 110.214 147.3 109.857 147.599 109.558C147.901 109.26 148.266 109.111 148.692 109.111C149.097 109.111 149.452 109.26 149.759 109.558C150.066 109.857 150.222 110.214 150.226 110.632C150.222 110.913 150.147 111.171 150.002 111.406C149.862 111.636 149.676 111.821 149.446 111.962C149.216 112.098 148.964 112.166 148.692 112.166Z" fill="white"/>
</svg>
