<svg width="375" height="212" viewBox="0 0 375 212" fill="none" xmlns="http://www.w3.org/2000/svg">
<path d="M9.126 18L8.226 15.012H4.032L3.132 18H0.36L4.5 5.436H7.884L11.97 18H9.126ZM6.156 7.92H6.066L4.68 12.69H7.56L6.156 7.92ZM15.0353 18L11.9393 8.55H14.5673L15.7373 12.366L16.6193 15.786H16.7633L17.6453 12.366L18.7793 8.55H21.2993L18.2033 18H15.0353ZM26.5063 18.216C25.7863 18.216 25.1443 18.102 24.5803 17.874C24.0163 17.634 23.5363 17.304 23.1403 16.884C22.7563 16.452 22.4623 15.93 22.2583 15.318C22.0663 14.706 21.9703 14.022 21.9703 13.266C21.9703 12.522 22.0663 11.85 22.2583 11.25C22.4503 10.638 22.7323 10.116 23.1043 9.684C23.4883 9.252 23.9563 8.922 24.5083 8.694C25.0603 8.454 25.6903 8.334 26.3983 8.334C27.1783 8.334 27.8443 8.466 28.3963 8.73C28.9603 8.994 29.4163 9.348 29.7643 9.792C30.1243 10.236 30.3823 10.752 30.5383 11.34C30.7063 11.916 30.7903 12.522 30.7903 13.158V13.95H24.7243V14.094C24.7243 14.718 24.8923 15.216 25.2283 15.588C25.5643 15.948 26.0923 16.128 26.8123 16.128C27.3643 16.128 27.8143 16.02 28.1623 15.804C28.5103 15.576 28.8343 15.306 29.1343 14.994L30.4663 16.65C30.0463 17.142 29.4943 17.526 28.8103 17.802C28.1383 18.078 27.3703 18.216 26.5063 18.216ZM26.4523 10.296C25.9123 10.296 25.4863 10.476 25.1743 10.836C24.8743 11.184 24.7243 11.652 24.7243 12.24V12.384H28.0363V12.222C28.0363 11.646 27.9043 11.184 27.6403 10.836C27.3883 10.476 26.9923 10.296 26.4523 10.296ZM32.6717 18V8.55H35.3357V10.602H35.4257C35.4737 10.338 35.5577 10.086 35.6777 9.846C35.7977 9.594 35.9537 9.372 36.1457 9.18C36.3497 8.988 36.5897 8.838 36.8657 8.73C37.1417 8.61 37.4657 8.55 37.8377 8.55H38.3057V11.034H37.6397C36.8597 11.034 36.2777 11.136 35.8937 11.34C35.5217 11.544 35.3357 11.922 35.3357 12.474V18H32.6717ZM46.6869 18C46.2069 18 45.8049 17.85 45.4809 17.55C45.1689 17.25 44.9709 16.848 44.8869 16.344H44.7789C44.6349 16.956 44.3169 17.424 43.8249 17.748C43.3329 18.06 42.7269 18.216 42.0069 18.216C41.0589 18.216 40.3329 17.964 39.8289 17.46C39.3249 16.956 39.0729 16.29 39.0729 15.462C39.0729 14.466 39.4329 13.728 40.1529 13.248C40.8849 12.756 41.8749 12.51 43.1229 12.51H44.6169V11.916C44.6169 11.46 44.4969 11.1 44.2569 10.836C44.0169 10.56 43.6149 10.422 43.0509 10.422C42.5229 10.422 42.1029 10.536 41.7909 10.764C41.4789 10.992 41.2209 11.25 41.0169 11.538L39.4329 10.134C39.8169 9.57 40.2969 9.132 40.8729 8.82C41.4609 8.496 42.2529 8.334 43.2489 8.334C44.5929 8.334 45.6009 8.628 46.2729 9.216C46.9449 9.804 47.2809 10.662 47.2809 11.79V15.93H48.1629V18H46.6869ZM42.9969 16.362C43.4409 16.362 43.8189 16.266 44.1309 16.074C44.4549 15.882 44.6169 15.57 44.6169 15.138V14.022H43.3209C42.2769 14.022 41.7549 14.376 41.7549 15.084V15.354C41.7549 15.702 41.8629 15.96 42.0789 16.128C42.2949 16.284 42.6009 16.362 42.9969 16.362ZM58.699 18.684C58.699 19.188 58.609 19.632 58.429 20.016C58.261 20.4 57.979 20.724 57.583 20.988C57.187 21.264 56.659 21.468 55.999 21.6C55.351 21.744 54.547 21.816 53.587 21.816C52.771 21.816 52.075 21.762 51.499 21.654C50.935 21.558 50.473 21.414 50.113 21.222C49.765 21.042 49.507 20.814 49.339 20.538C49.183 20.274 49.105 19.968 49.105 19.62C49.105 19.092 49.261 18.678 49.573 18.378C49.885 18.078 50.317 17.892 50.869 17.82V17.622C50.413 17.538 50.071 17.346 49.843 17.046C49.615 16.734 49.501 16.374 49.501 15.966C49.501 15.714 49.549 15.498 49.645 15.318C49.753 15.126 49.885 14.964 50.041 14.832C50.209 14.688 50.401 14.574 50.617 14.49C50.833 14.406 51.049 14.34 51.265 14.292V14.22C50.689 13.956 50.263 13.596 49.987 13.14C49.711 12.672 49.573 12.132 49.573 11.52C49.573 10.56 49.903 9.792 50.563 9.216C51.235 8.628 52.255 8.334 53.623 8.334C54.247 8.334 54.781 8.394 55.225 8.514V8.154C55.225 7.65 55.345 7.29 55.585 7.074C55.837 6.846 56.191 6.732 56.647 6.732H58.141V8.712H56.053V8.82C56.605 9.084 57.013 9.45 57.277 9.918C57.541 10.374 57.673 10.908 57.673 11.52C57.673 12.468 57.337 13.23 56.665 13.806C56.005 14.37 54.991 14.652 53.623 14.652C53.011 14.652 52.453 14.586 51.949 14.454C51.673 14.634 51.535 14.886 51.535 15.21C51.535 15.438 51.619 15.618 51.787 15.75C51.967 15.87 52.261 15.93 52.669 15.93H55.405C56.557 15.93 57.391 16.17 57.907 16.65C58.435 17.13 58.699 17.808 58.699 18.684ZM56.197 19.044C56.197 18.768 56.089 18.558 55.873 18.414C55.657 18.27 55.279 18.198 54.739 18.198H51.499C51.379 18.318 51.289 18.45 51.229 18.594C51.181 18.75 51.157 18.9 51.157 19.044C51.157 19.392 51.307 19.644 51.607 19.8C51.907 19.968 52.417 20.052 53.137 20.052H54.217C54.937 20.052 55.447 19.968 55.747 19.8C56.047 19.644 56.197 19.392 56.197 19.044ZM53.623 12.906C54.151 12.906 54.541 12.798 54.793 12.582C55.057 12.354 55.189 12.03 55.189 11.61V11.394C55.189 10.974 55.057 10.656 54.793 10.44C54.541 10.212 54.151 10.098 53.623 10.098C53.095 10.098 52.699 10.212 52.435 10.44C52.183 10.656 52.057 10.974 52.057 11.394V11.61C52.057 12.03 52.183 12.354 52.435 12.582C52.699 12.798 53.095 12.906 53.623 12.906ZM63.7192 18.216C62.9992 18.216 62.3572 18.102 61.7932 17.874C61.2292 17.634 60.7492 17.304 60.3532 16.884C59.9692 16.452 59.6752 15.93 59.4712 15.318C59.2792 14.706 59.1832 14.022 59.1832 13.266C59.1832 12.522 59.2792 11.85 59.4712 11.25C59.6632 10.638 59.9452 10.116 60.3172 9.684C60.7012 9.252 61.1692 8.922 61.7212 8.694C62.2732 8.454 62.9032 8.334 63.6112 8.334C64.3912 8.334 65.0572 8.466 65.6092 8.73C66.1732 8.994 66.6292 9.348 66.9772 9.792C67.3372 10.236 67.5952 10.752 67.7512 11.34C67.9192 11.916 68.0032 12.522 68.0032 13.158V13.95H61.9372V14.094C61.9372 14.718 62.1052 15.216 62.4412 15.588C62.7772 15.948 63.3052 16.128 64.0252 16.128C64.5772 16.128 65.0272 16.02 65.3752 15.804C65.7232 15.576 66.0472 15.306 66.3472 14.994L67.6792 16.65C67.2592 17.142 66.7072 17.526 66.0232 17.802C65.3512 18.078 64.5832 18.216 63.7192 18.216ZM63.6652 10.296C63.1252 10.296 62.6992 10.476 62.3872 10.836C62.0872 11.184 61.9372 11.652 61.9372 12.24V12.384H65.2492V12.222C65.2492 11.646 65.1172 11.184 64.8532 10.836C64.6012 10.476 64.2052 10.296 63.6652 10.296ZM79.4845 14.886H76.6045L76.0645 18H74.3725L74.9125 14.886H73.0945V13.266H75.2005L75.7225 10.17H73.9045V8.55H76.0105L76.5505 5.436H78.2245L77.6845 8.55H80.5645L81.1045 5.436H82.7965L82.2565 8.55H84.0745V10.17H81.9685L81.4465 13.266H83.2645V14.886H81.1585L80.6185 18H78.9445L79.4845 14.886ZM79.7545 13.266L80.2945 10.17H77.4145L76.8745 13.266H79.7545ZM93.5994 18.216C92.9034 18.216 92.2794 18.102 91.7274 17.874C91.1874 17.646 90.7254 17.316 90.3414 16.884C89.9694 16.452 89.6814 15.93 89.4774 15.318C89.2734 14.706 89.1714 14.022 89.1714 13.266C89.1714 12.51 89.2734 11.826 89.4774 11.214C89.6814 10.602 89.9694 10.086 90.3414 9.666C90.7254 9.234 91.1874 8.904 91.7274 8.676C92.2794 8.448 92.9034 8.334 93.5994 8.334C94.2954 8.334 94.9134 8.448 95.4534 8.676C96.0054 8.904 96.4674 9.234 96.8394 9.666C97.2234 10.086 97.5174 10.602 97.7214 11.214C97.9254 11.826 98.0274 12.51 98.0274 13.266C98.0274 14.022 97.9254 14.706 97.7214 15.318C97.5174 15.93 97.2234 16.452 96.8394 16.884C96.4674 17.316 96.0054 17.646 95.4534 17.874C94.9134 18.102 94.2954 18.216 93.5994 18.216ZM93.5994 16.11C94.1274 16.11 94.5354 15.948 94.8234 15.624C95.1114 15.3 95.2554 14.838 95.2554 14.238V12.312C95.2554 11.712 95.1114 11.25 94.8234 10.926C94.5354 10.602 94.1274 10.44 93.5994 10.44C93.0714 10.44 92.6634 10.602 92.3754 10.926C92.0874 11.25 91.9434 11.712 91.9434 12.312V14.238C91.9434 14.838 92.0874 15.3 92.3754 15.624C92.6634 15.948 93.0714 16.11 93.5994 16.11ZM100.288 10.62H98.9561V8.55H100.288V7.434C100.288 6.522 100.528 5.838 101.008 5.382C101.488 4.914 102.19 4.68 103.114 4.68H104.842V6.75H102.952V8.55H104.842V10.62H102.952V18H100.288V10.62ZM115.798 18.216C114.946 18.216 114.178 18.084 113.494 17.82C112.81 17.544 112.228 17.142 111.748 16.614C111.268 16.074 110.896 15.408 110.632 14.616C110.368 13.812 110.236 12.876 110.236 11.808C110.236 10.752 110.368 9.816 110.632 9C110.896 8.172 111.268 7.482 111.748 6.93C112.228 6.366 112.81 5.94 113.494 5.652C114.178 5.364 114.946 5.22 115.798 5.22C116.962 5.22 117.922 5.46 118.678 5.94C119.434 6.408 120.04 7.152 120.496 8.172L118.138 9.396C117.97 8.868 117.706 8.448 117.346 8.136C116.998 7.812 116.482 7.65 115.798 7.65C114.994 7.65 114.346 7.914 113.854 8.442C113.374 8.958 113.134 9.714 113.134 10.71V12.726C113.134 13.722 113.374 14.484 113.854 15.012C114.346 15.528 114.994 15.786 115.798 15.786C116.47 15.786 117.004 15.606 117.4 15.246C117.808 14.874 118.108 14.43 118.3 13.914L120.532 15.21C120.064 16.17 119.446 16.914 118.678 17.442C117.922 17.958 116.962 18.216 115.798 18.216ZM129.287 18C128.807 18 128.405 17.85 128.081 17.55C127.769 17.25 127.571 16.848 127.487 16.344H127.379C127.235 16.956 126.917 17.424 126.425 17.748C125.933 18.06 125.327 18.216 124.607 18.216C123.659 18.216 122.933 17.964 122.429 17.46C121.925 16.956 121.673 16.29 121.673 15.462C121.673 14.466 122.033 13.728 122.753 13.248C123.485 12.756 124.475 12.51 125.723 12.51H127.217V11.916C127.217 11.46 127.097 11.1 126.857 10.836C126.617 10.56 126.215 10.422 125.651 10.422C125.123 10.422 124.703 10.536 124.391 10.764C124.079 10.992 123.821 11.25 123.617 11.538L122.033 10.134C122.417 9.57 122.897 9.132 123.473 8.82C124.061 8.496 124.853 8.334 125.849 8.334C127.193 8.334 128.201 8.628 128.873 9.216C129.545 9.804 129.881 10.662 129.881 11.79V15.93H130.763V18H129.287ZM125.597 16.362C126.041 16.362 126.419 16.266 126.731 16.074C127.055 15.882 127.217 15.57 127.217 15.138V14.022H125.921C124.877 14.022 124.355 14.376 124.355 15.084V15.354C124.355 15.702 124.463 15.96 124.679 16.128C124.895 16.284 125.201 16.362 125.597 16.362ZM135.197 18C134.285 18 133.613 17.778 133.181 17.334C132.761 16.89 132.551 16.248 132.551 15.408V4.68H135.215V15.93H136.403V18H135.197ZM140.505 18C139.593 18 138.921 17.778 138.489 17.334C138.069 16.89 137.859 16.248 137.859 15.408V4.68H140.523V15.93H141.711V18H140.505ZM146.512 18.216C145.6 18.216 144.832 18.072 144.208 17.784C143.584 17.484 143.026 17.064 142.534 16.524L144.1 14.94C144.436 15.312 144.808 15.606 145.216 15.822C145.624 16.038 146.086 16.146 146.602 16.146C147.13 16.146 147.496 16.068 147.7 15.912C147.904 15.744 148.006 15.522 148.006 15.246C148.006 14.802 147.688 14.538 147.052 14.454L146.026 14.328C143.902 14.064 142.84 13.092 142.84 11.412C142.84 10.956 142.924 10.542 143.092 10.17C143.272 9.786 143.518 9.462 143.83 9.198C144.154 8.922 144.538 8.712 144.982 8.568C145.438 8.412 145.948 8.334 146.512 8.334C147.004 8.334 147.436 8.37 147.808 8.442C148.192 8.502 148.528 8.598 148.816 8.73C149.116 8.85 149.386 9.006 149.626 9.198C149.878 9.378 150.124 9.582 150.364 9.81L148.834 11.376C148.534 11.076 148.192 10.842 147.808 10.674C147.436 10.494 147.052 10.404 146.656 10.404C146.2 10.404 145.876 10.476 145.684 10.62C145.492 10.764 145.396 10.956 145.396 11.196C145.396 11.448 145.462 11.646 145.594 11.79C145.738 11.922 146.002 12.018 146.386 12.078L147.448 12.222C149.524 12.498 150.562 13.446 150.562 15.066C150.562 15.522 150.466 15.942 150.274 16.326C150.082 16.71 149.806 17.046 149.446 17.334C149.098 17.61 148.672 17.826 148.168 17.982C147.676 18.138 147.124 18.216 146.512 18.216ZM156.777 18V5.436H162.717C163.305 5.436 163.833 5.538 164.301 5.742C164.769 5.934 165.165 6.204 165.489 6.552C165.825 6.9 166.083 7.326 166.263 7.83C166.443 8.322 166.533 8.862 166.533 9.45C166.533 10.05 166.443 10.596 166.263 11.088C166.083 11.58 165.825 12 165.489 12.348C165.165 12.696 164.769 12.972 164.301 13.176C163.833 13.368 163.305 13.464 162.717 13.464H159.513V18H156.777ZM159.513 11.088H162.393C162.801 11.088 163.119 10.986 163.347 10.782C163.587 10.566 163.707 10.254 163.707 9.846V9.054C163.707 8.646 163.587 8.34 163.347 8.136C163.119 7.92 162.801 7.812 162.393 7.812H159.513V11.088ZM172.036 18.216C171.316 18.216 170.674 18.102 170.11 17.874C169.546 17.634 169.066 17.304 168.67 16.884C168.286 16.452 167.992 15.93 167.788 15.318C167.596 14.706 167.5 14.022 167.5 13.266C167.5 12.522 167.596 11.85 167.788 11.25C167.98 10.638 168.262 10.116 168.634 9.684C169.018 9.252 169.486 8.922 170.038 8.694C170.59 8.454 171.22 8.334 171.928 8.334C172.708 8.334 173.374 8.466 173.926 8.73C174.49 8.994 174.946 9.348 175.294 9.792C175.654 10.236 175.912 10.752 176.068 11.34C176.236 11.916 176.32 12.522 176.32 13.158V13.95H170.254V14.094C170.254 14.718 170.422 15.216 170.758 15.588C171.094 15.948 171.622 16.128 172.342 16.128C172.894 16.128 173.344 16.02 173.692 15.804C174.04 15.576 174.364 15.306 174.664 14.994L175.996 16.65C175.576 17.142 175.024 17.526 174.34 17.802C173.668 18.078 172.9 18.216 172.036 18.216ZM171.982 10.296C171.442 10.296 171.016 10.476 170.704 10.836C170.404 11.184 170.254 11.652 170.254 12.24V12.384H173.566V12.222C173.566 11.646 173.434 11.184 173.17 10.836C172.918 10.476 172.522 10.296 171.982 10.296ZM178.201 18V8.55H180.865V10.602H180.955C181.003 10.338 181.087 10.086 181.207 9.846C181.327 9.594 181.483 9.372 181.675 9.18C181.879 8.988 182.119 8.838 182.395 8.73C182.671 8.61 182.995 8.55 183.367 8.55H183.835V11.034H183.169C182.389 11.034 181.807 11.136 181.423 11.34C181.051 11.544 180.865 11.922 180.865 12.474V18H178.201ZM193.944 18.216C192.84 18.216 191.904 18.03 191.136 17.658C190.368 17.274 189.714 16.782 189.174 16.182L190.974 14.364C191.826 15.324 192.876 15.804 194.124 15.804C194.796 15.804 195.294 15.666 195.618 15.39C195.942 15.114 196.104 14.748 196.104 14.292C196.104 13.944 196.008 13.656 195.816 13.428C195.624 13.188 195.234 13.026 194.646 12.942L193.404 12.78C192.072 12.612 191.094 12.21 190.47 11.574C189.858 10.938 189.552 10.092 189.552 9.036C189.552 8.472 189.66 7.956 189.876 7.488C190.092 7.02 190.398 6.618 190.794 6.282C191.202 5.946 191.694 5.688 192.27 5.508C192.858 5.316 193.524 5.22 194.268 5.22C195.216 5.22 196.05 5.37 196.77 5.67C197.49 5.97 198.108 6.408 198.624 6.984L196.806 8.82C196.506 8.472 196.14 8.19 195.708 7.974C195.288 7.746 194.754 7.632 194.106 7.632C193.494 7.632 193.038 7.74 192.738 7.956C192.438 8.172 192.288 8.472 192.288 8.856C192.288 9.288 192.402 9.6 192.63 9.792C192.87 9.984 193.254 10.122 193.782 10.206L195.024 10.404C196.32 10.608 197.28 11.01 197.904 11.61C198.528 12.198 198.84 13.038 198.84 14.13C198.84 14.73 198.732 15.282 198.516 15.786C198.3 16.29 197.982 16.722 197.562 17.082C197.154 17.442 196.644 17.724 196.032 17.928C195.42 18.12 194.724 18.216 193.944 18.216ZM204.189 18C203.265 18 202.563 17.766 202.083 17.298C201.615 16.83 201.381 16.146 201.381 15.246V10.62H200.049V8.55H200.715C201.075 8.55 201.321 8.466 201.453 8.298C201.585 8.118 201.651 7.866 201.651 7.542V5.994H204.045V8.55H205.917V10.62H204.045V15.93H205.773V18H204.189ZM213.347 16.416H213.257C213.173 16.656 213.059 16.884 212.915 17.1C212.783 17.316 212.609 17.508 212.393 17.676C212.177 17.844 211.919 17.976 211.619 18.072C211.331 18.168 210.995 18.216 210.611 18.216C209.639 18.216 208.901 17.898 208.397 17.262C207.905 16.614 207.659 15.69 207.659 14.49V8.55H210.323V14.256C210.323 14.832 210.425 15.276 210.629 15.588C210.833 15.9 211.181 16.056 211.673 16.056C211.877 16.056 212.081 16.026 212.285 15.966C212.489 15.906 212.669 15.822 212.825 15.714C212.981 15.594 213.107 15.45 213.203 15.282C213.299 15.114 213.347 14.916 213.347 14.688V8.55H216.011V18H213.347V16.416ZM224.286 16.416H224.196C224.124 16.668 224.01 16.908 223.854 17.136C223.698 17.352 223.506 17.544 223.278 17.712C223.062 17.868 222.81 17.988 222.522 18.072C222.246 18.168 221.958 18.216 221.658 18.216C220.458 18.216 219.552 17.796 218.94 16.956C218.328 16.104 218.022 14.874 218.022 13.266C218.022 11.658 218.328 10.434 218.94 9.594C219.552 8.754 220.458 8.334 221.658 8.334C222.27 8.334 222.81 8.502 223.278 8.838C223.758 9.174 224.064 9.606 224.196 10.134H224.286V4.68H226.95V18H224.286V16.416ZM222.54 16.056C223.044 16.056 223.458 15.936 223.782 15.696C224.118 15.444 224.286 15.102 224.286 14.67V11.88C224.286 11.448 224.118 11.112 223.782 10.872C223.458 10.62 223.044 10.494 222.54 10.494C222.036 10.494 221.616 10.674 221.28 11.034C220.956 11.382 220.794 11.856 220.794 12.456V14.094C220.794 14.694 220.956 15.174 221.28 15.534C221.616 15.882 222.036 16.056 222.54 16.056ZM233.383 18.216C232.663 18.216 232.021 18.102 231.457 17.874C230.893 17.634 230.413 17.304 230.017 16.884C229.633 16.452 229.339 15.93 229.135 15.318C228.943 14.706 228.847 14.022 228.847 13.266C228.847 12.522 228.943 11.85 229.135 11.25C229.327 10.638 229.609 10.116 229.981 9.684C230.365 9.252 230.833 8.922 231.385 8.694C231.937 8.454 232.567 8.334 233.275 8.334C234.055 8.334 234.721 8.466 235.273 8.73C235.837 8.994 236.293 9.348 236.641 9.792C237.001 10.236 237.259 10.752 237.415 11.34C237.583 11.916 237.667 12.522 237.667 13.158V13.95H231.601V14.094C231.601 14.718 231.769 15.216 232.105 15.588C232.441 15.948 232.969 16.128 233.689 16.128C234.241 16.128 234.691 16.02 235.039 15.804C235.387 15.576 235.711 15.306 236.011 14.994L237.343 16.65C236.923 17.142 236.371 17.526 235.687 17.802C235.015 18.078 234.247 18.216 233.383 18.216ZM233.329 10.296C232.789 10.296 232.363 10.476 232.051 10.836C231.751 11.184 231.601 11.652 231.601 12.24V12.384H234.913V12.222C234.913 11.646 234.781 11.184 234.517 10.836C234.265 10.476 233.869 10.296 233.329 10.296ZM239.549 18V8.55H242.213V10.152H242.321C242.489 9.66 242.783 9.234 243.203 8.874C243.623 8.514 244.205 8.334 244.949 8.334C245.921 8.334 246.653 8.658 247.145 9.306C247.649 9.954 247.901 10.878 247.901 12.078V18H245.237V12.294C245.237 11.682 245.141 11.232 244.949 10.944C244.757 10.644 244.415 10.494 243.923 10.494C243.707 10.494 243.497 10.524 243.293 10.584C243.089 10.632 242.903 10.716 242.735 10.836C242.579 10.956 242.453 11.106 242.357 11.286C242.261 11.454 242.213 11.652 242.213 11.88V18H239.549ZM253.583 18C252.659 18 251.957 17.766 251.477 17.298C251.009 16.83 250.775 16.146 250.775 15.246V10.62H249.443V8.55H250.109C250.469 8.55 250.715 8.466 250.847 8.298C250.979 8.118 251.045 7.866 251.045 7.542V5.994H253.439V8.55H255.311V10.62H253.439V15.93H255.167V18H253.583ZM261.56 18V5.436H267.5C268.088 5.436 268.616 5.538 269.084 5.742C269.552 5.934 269.948 6.204 270.272 6.552C270.608 6.9 270.866 7.326 271.046 7.83C271.226 8.322 271.316 8.862 271.316 9.45C271.316 10.05 271.226 10.596 271.046 11.088C270.866 11.58 270.608 12 270.272 12.348C269.948 12.696 269.552 12.972 269.084 13.176C268.616 13.368 268.088 13.464 267.5 13.464H264.296V18H261.56ZM264.296 11.088H267.176C267.584 11.088 267.902 10.986 268.13 10.782C268.37 10.566 268.49 10.254 268.49 9.846V9.054C268.49 8.646 268.37 8.34 268.13 8.136C267.902 7.92 267.584 7.812 267.176 7.812H264.296V11.088ZM276.819 18.216C276.099 18.216 275.457 18.102 274.893 17.874C274.329 17.634 273.849 17.304 273.453 16.884C273.069 16.452 272.775 15.93 272.571 15.318C272.379 14.706 272.283 14.022 272.283 13.266C272.283 12.522 272.379 11.85 272.571 11.25C272.763 10.638 273.045 10.116 273.417 9.684C273.801 9.252 274.269 8.922 274.821 8.694C275.373 8.454 276.003 8.334 276.711 8.334C277.491 8.334 278.157 8.466 278.709 8.73C279.273 8.994 279.729 9.348 280.077 9.792C280.437 10.236 280.695 10.752 280.851 11.34C281.019 11.916 281.103 12.522 281.103 13.158V13.95H275.037V14.094C275.037 14.718 275.205 15.216 275.541 15.588C275.877 15.948 276.405 16.128 277.125 16.128C277.677 16.128 278.127 16.02 278.475 15.804C278.823 15.576 279.147 15.306 279.447 14.994L280.779 16.65C280.359 17.142 279.807 17.526 279.123 17.802C278.451 18.078 277.683 18.216 276.819 18.216ZM276.765 10.296C276.225 10.296 275.799 10.476 275.487 10.836C275.187 11.184 275.037 11.652 275.037 12.24V12.384H278.349V12.222C278.349 11.646 278.217 11.184 277.953 10.836C277.701 10.476 277.305 10.296 276.765 10.296ZM282.984 18V8.55H285.648V10.602H285.738C285.786 10.338 285.87 10.086 285.99 9.846C286.11 9.594 286.266 9.372 286.458 9.18C286.662 8.988 286.902 8.838 287.178 8.73C287.454 8.61 287.778 8.55 288.15 8.55H288.618V11.034H287.952C287.172 11.034 286.59 11.136 286.206 11.34C285.834 11.544 285.648 11.922 285.648 12.474V18H282.984ZM304.055 9.756H304.001L303.083 11.592L300.635 16.038L298.241 11.61L297.287 9.63H297.233V18H294.659V5.436H297.557L300.635 11.322H300.671L303.713 5.436H306.629V18H304.055V9.756ZM313.097 18.216C312.401 18.216 311.777 18.102 311.225 17.874C310.685 17.646 310.223 17.316 309.839 16.884C309.467 16.452 309.179 15.93 308.975 15.318C308.771 14.706 308.669 14.022 308.669 13.266C308.669 12.51 308.771 11.826 308.975 11.214C309.179 10.602 309.467 10.086 309.839 9.666C310.223 9.234 310.685 8.904 311.225 8.676C311.777 8.448 312.401 8.334 313.097 8.334C313.793 8.334 314.411 8.448 314.951 8.676C315.503 8.904 315.965 9.234 316.337 9.666C316.721 10.086 317.015 10.602 317.219 11.214C317.423 11.826 317.525 12.51 317.525 13.266C317.525 14.022 317.423 14.706 317.219 15.318C317.015 15.93 316.721 16.452 316.337 16.884C315.965 17.316 315.503 17.646 314.951 17.874C314.411 18.102 313.793 18.216 313.097 18.216ZM313.097 16.11C313.625 16.11 314.033 15.948 314.321 15.624C314.609 15.3 314.753 14.838 314.753 14.238V12.312C314.753 11.712 314.609 11.25 314.321 10.926C314.033 10.602 313.625 10.44 313.097 10.44C312.569 10.44 312.161 10.602 311.873 10.926C311.585 11.25 311.441 11.712 311.441 12.312V14.238C311.441 14.838 311.585 15.3 311.873 15.624C312.161 15.948 312.569 16.11 313.097 16.11ZM319.424 18V8.55H322.088V10.152H322.196C322.364 9.66 322.658 9.234 323.078 8.874C323.498 8.514 324.08 8.334 324.824 8.334C325.796 8.334 326.528 8.658 327.02 9.306C327.524 9.954 327.776 10.878 327.776 12.078V18H325.112V12.294C325.112 11.682 325.016 11.232 324.824 10.944C324.632 10.644 324.29 10.494 323.798 10.494C323.582 10.494 323.372 10.524 323.168 10.584C322.964 10.632 322.778 10.716 322.61 10.836C322.454 10.956 322.328 11.106 322.232 11.286C322.136 11.454 322.088 11.652 322.088 11.88V18H319.424ZM333.458 18C332.534 18 331.832 17.766 331.352 17.298C330.884 16.83 330.65 16.146 330.65 15.246V10.62H329.318V8.55H329.984C330.344 8.55 330.59 8.466 330.722 8.298C330.854 8.118 330.92 7.866 330.92 7.542V5.994H333.314V8.55H335.186V10.62H333.314V15.93H335.042V18H333.458ZM337.037 4.68H339.701V10.152H339.809C339.977 9.66 340.271 9.234 340.691 8.874C341.111 8.514 341.693 8.334 342.437 8.334C343.409 8.334 344.141 8.658 344.633 9.306C345.137 9.954 345.389 10.878 345.389 12.078V18H342.725V12.294C342.725 11.682 342.629 11.232 342.437 10.944C342.245 10.644 341.903 10.494 341.411 10.494C341.195 10.494 340.985 10.524 340.781 10.584C340.577 10.632 340.391 10.716 340.223 10.836C340.067 10.956 339.941 11.106 339.845 11.286C339.749 11.454 339.701 11.652 339.701 11.88V18H337.037V4.68Z" fill="#CBD5E0"/>
<path d="M3.132 46.176C3.7 46.176 4.124 46.048 4.404 45.792C4.692 45.528 4.836 45.192 4.836 44.784V44.7C4.836 44.26 4.696 43.932 4.416 43.716C4.144 43.492 3.784 43.38 3.336 43.38C2.904 43.38 2.552 43.476 2.28 43.668C2.008 43.852 1.784 44.104 1.608 44.424L0.864 43.848C0.968 43.68 1.092 43.516 1.236 43.356C1.388 43.188 1.564 43.04 1.764 42.912C1.964 42.784 2.196 42.68 2.46 42.6C2.724 42.52 3.024 42.48 3.36 42.48C3.712 42.48 4.044 42.528 4.356 42.624C4.668 42.712 4.936 42.848 5.16 43.032C5.392 43.208 5.572 43.428 5.7 43.692C5.836 43.956 5.904 44.256 5.904 44.592C5.904 44.864 5.86 45.108 5.772 45.324C5.692 45.54 5.58 45.728 5.436 45.888C5.292 46.048 5.12 46.184 4.92 46.296C4.728 46.408 4.52 46.492 4.296 46.548V46.596C4.52 46.644 4.736 46.724 4.944 46.836C5.16 46.94 5.348 47.08 5.508 47.256C5.676 47.424 5.808 47.632 5.904 47.88C6.008 48.12 6.06 48.396 6.06 48.708C6.06 49.068 5.992 49.4 5.856 49.704C5.72 50 5.528 50.256 5.28 50.472C5.032 50.68 4.732 50.844 4.38 50.964C4.028 51.084 3.64 51.144 3.216 51.144C2.856 51.144 2.536 51.104 2.256 51.024C1.976 50.944 1.728 50.836 1.512 50.7C1.296 50.564 1.104 50.412 0.936 50.244C0.776 50.076 0.632 49.9 0.504 49.716L1.26 49.14C1.364 49.308 1.476 49.46 1.596 49.596C1.724 49.732 1.864 49.848 2.016 49.944C2.168 50.04 2.34 50.116 2.532 50.172C2.724 50.22 2.948 50.244 3.204 50.244C3.796 50.244 4.244 50.112 4.548 49.848C4.852 49.576 5.004 49.192 5.004 48.696V48.6C5.004 48.104 4.852 47.724 4.548 47.46C4.244 47.188 3.796 47.052 3.204 47.052H2.22V46.176H3.132Z" fill="white"/>
<path d="M6.396 101H0.9V99.968L3.636 97.448C4.028 97.088 4.356 96.708 4.62 96.308C4.884 95.9 5.016 95.492 5.016 95.084V94.94C5.016 94.476 4.888 94.1 4.632 93.812C4.376 93.524 3.988 93.38 3.468 93.38C3.212 93.38 2.988 93.416 2.796 93.488C2.604 93.56 2.436 93.66 2.292 93.788C2.156 93.916 2.04 94.068 1.944 94.244C1.856 94.412 1.784 94.596 1.728 94.796L0.828 94.448C0.908 94.2 1.016 93.96 1.152 93.728C1.296 93.488 1.472 93.276 1.68 93.092C1.896 92.908 2.152 92.76 2.448 92.648C2.752 92.536 3.108 92.48 3.516 92.48C3.924 92.48 4.288 92.54 4.608 92.66C4.928 92.78 5.196 92.948 5.412 93.164C5.628 93.38 5.792 93.636 5.904 93.932C6.024 94.228 6.084 94.556 6.084 94.916C6.084 95.244 6.036 95.548 5.94 95.828C5.852 96.108 5.728 96.376 5.568 96.632C5.408 96.88 5.212 97.124 4.98 97.364C4.756 97.604 4.512 97.844 4.248 98.084L1.992 100.112H6.396V101Z" fill="white"/>
<path d="M1.056 151V150.112H3.396V143.368H3.312L1.2 145.336L0.612 144.7L2.832 142.624H4.404V150.112H6.564V151H1.056Z" fill="white"/>
<path d="M3.6 201.144C2.6 201.144 1.868 200.764 1.404 200.004C0.948 199.244 0.72 198.18 0.72 196.812C0.72 195.444 0.948 194.38 1.404 193.62C1.868 192.86 2.6 192.48 3.6 192.48C4.6 192.48 5.328 192.86 5.784 193.62C6.248 194.38 6.48 195.444 6.48 196.812C6.48 198.18 6.248 199.244 5.784 200.004C5.328 200.764 4.6 201.144 3.6 201.144ZM3.6 200.268C3.928 200.268 4.208 200.2 4.44 200.064C4.672 199.928 4.86 199.736 5.004 199.488C5.148 199.24 5.252 198.948 5.316 198.612C5.388 198.276 5.424 197.904 5.424 197.496V196.128C5.424 195.72 5.388 195.348 5.316 195.012C5.252 194.676 5.148 194.384 5.004 194.136C4.86 193.888 4.672 193.696 4.44 193.56C4.208 193.424 3.928 193.356 3.6 193.356C3.272 193.356 2.992 193.424 2.76 193.56C2.528 193.696 2.34 193.888 2.196 194.136C2.052 194.384 1.944 194.676 1.872 195.012C1.808 195.348 1.776 195.72 1.776 196.128V197.496C1.776 197.904 1.808 198.276 1.872 198.612C1.944 198.948 2.052 199.24 2.196 199.488C2.34 199.736 2.528 199.928 2.76 200.064C2.992 200.2 3.272 200.268 3.6 200.268Z" fill="white"/>
<line x1="13" y1="195.5" x2="375" y2="195.5" stroke="#CBD5E0"/>
<line x1="13" y1="145.5" x2="18" y2="145.5" stroke="#CBD5E0"/>
<line x1="13" y1="95.5" x2="18" y2="95.5" stroke="#CBD5E0"/>
<line x1="13" y1="45.5" x2="18" y2="45.5" stroke="#CBD5E0"/>
<rect x="28" y="101" width="16" height="95" fill="#CBD5E0"/>
<path d="M38.7983 203.696C38.7983 204.32 38.7063 204.908 38.5223 205.46C38.3383 206.004 38.0983 206.504 37.8023 206.96C37.5143 207.408 37.1943 207.808 36.8423 208.16C36.4903 208.504 36.1463 208.784 35.8103 209H34.5143C34.9623 208.672 35.3623 208.352 35.7143 208.04C36.0663 207.728 36.3743 207.404 36.6383 207.068C36.9023 206.724 37.1263 206.36 37.3103 205.976C37.4943 205.584 37.6423 205.144 37.7543 204.656L37.6943 204.632C37.4943 204.976 37.2343 205.264 36.9143 205.496C36.6023 205.72 36.1903 205.832 35.6783 205.832C35.3183 205.832 34.9863 205.772 34.6823 205.652C34.3783 205.532 34.1183 205.36 33.9023 205.136C33.6863 204.912 33.5143 204.644 33.3863 204.332C33.2663 204.012 33.2063 203.652 33.2063 203.252C33.2063 202.844 33.2703 202.472 33.3983 202.136C33.5343 201.792 33.7223 201.5 33.9623 201.26C34.2103 201.012 34.5023 200.82 34.8383 200.684C35.1823 200.548 35.5663 200.48 35.9903 200.48C36.4223 200.48 36.8103 200.556 37.1543 200.708C37.5063 200.852 37.8023 201.064 38.0423 201.344C38.2903 201.616 38.4783 201.952 38.6063 202.352C38.7343 202.752 38.7983 203.2 38.7983 203.696ZM36.0023 204.98C36.5543 204.98 36.9823 204.828 37.2863 204.524C37.5983 204.22 37.7543 203.784 37.7543 203.216V203.12C37.7543 202.552 37.5983 202.116 37.2863 201.812C36.9823 201.508 36.5543 201.356 36.0023 201.356C35.4503 201.356 35.0183 201.508 34.7063 201.812C34.4023 202.116 34.2503 202.552 34.2503 203.12V203.216C34.2503 203.784 34.4023 204.22 34.7063 204.524C35.0183 204.828 35.4503 204.98 36.0023 204.98Z" fill="white"/>
<rect x="60" y="69" width="16" height="127" fill="#CBD5E0"/>
<path d="M61.8607 209V208.112H64.2007V201.368H64.1167L62.0047 203.336L61.4167 202.7L63.6367 200.624H65.2087V208.112H67.3687V209H61.8607ZM71.6 209.144C70.6 209.144 69.868 208.764 69.404 208.004C68.948 207.244 68.72 206.18 68.72 204.812C68.72 203.444 68.948 202.38 69.404 201.62C69.868 200.86 70.6 200.48 71.6 200.48C72.6 200.48 73.328 200.86 73.784 201.62C74.248 202.38 74.48 203.444 74.48 204.812C74.48 206.18 74.248 207.244 73.784 208.004C73.328 208.764 72.6 209.144 71.6 209.144ZM71.6 208.268C71.928 208.268 72.208 208.2 72.44 208.064C72.672 207.928 72.86 207.736 73.004 207.488C73.148 207.24 73.252 206.948 73.316 206.612C73.388 206.276 73.424 205.904 73.424 205.496V204.128C73.424 203.72 73.388 203.348 73.316 203.012C73.252 202.676 73.148 202.384 73.004 202.136C72.86 201.888 72.672 201.696 72.44 201.56C72.208 201.424 71.928 201.356 71.6 201.356C71.272 201.356 70.992 201.424 70.76 201.56C70.528 201.696 70.34 201.888 70.196 202.136C70.052 202.384 69.944 202.676 69.872 203.012C69.808 203.348 69.776 203.72 69.776 204.128V205.496C69.776 205.904 69.808 206.276 69.872 206.612C69.944 206.948 70.052 207.24 70.196 207.488C70.34 207.736 70.528 207.928 70.76 208.064C70.992 208.2 71.272 208.268 71.6 208.268Z" fill="white"/>
<rect x="92" y="115" width="16" height="81" fill="#CBD5E0"/>
<path d="M93.8607 209V208.112H96.2007V201.368H96.1167L94.0047 203.336L93.4167 202.7L95.6367 200.624H97.2087V208.112H99.3687V209H93.8607ZM101.056 209V208.112H103.396V201.368H103.312L101.2 203.336L100.612 202.7L102.832 200.624H104.404V208.112H106.564V209H101.056Z" fill="white"/>
<rect x="124" y="130" width="16" height="66" fill="#CBD5E0"/>
<path d="M125.861 209V208.112H128.201V201.368H128.117L126.005 203.336L125.417 202.7L127.637 200.624H129.209V208.112H131.369V209H125.861ZM138.396 209H132.9V207.968L135.636 205.448C136.028 205.088 136.356 204.708 136.62 204.308C136.884 203.9 137.016 203.492 137.016 203.084V202.94C137.016 202.476 136.888 202.1 136.632 201.812C136.376 201.524 135.988 201.38 135.468 201.38C135.212 201.38 134.988 201.416 134.796 201.488C134.604 201.56 134.436 201.66 134.292 201.788C134.156 201.916 134.04 202.068 133.944 202.244C133.856 202.412 133.784 202.596 133.728 202.796L132.828 202.448C132.908 202.2 133.016 201.96 133.152 201.728C133.296 201.488 133.472 201.276 133.68 201.092C133.896 200.908 134.152 200.76 134.448 200.648C134.752 200.536 135.108 200.48 135.516 200.48C135.924 200.48 136.288 200.54 136.608 200.66C136.928 200.78 137.196 200.948 137.412 201.164C137.628 201.38 137.792 201.636 137.904 201.932C138.024 202.228 138.084 202.556 138.084 202.916C138.084 203.244 138.036 203.548 137.94 203.828C137.852 204.108 137.728 204.376 137.568 204.632C137.408 204.88 137.212 205.124 136.98 205.364C136.756 205.604 136.512 205.844 136.248 206.084L133.992 208.112H138.396V209Z" fill="white"/>
<rect x="156" y="119" width="16" height="77" fill="#CBD5E0"/>
<path d="M161.458 209V208.112H163.798V201.368H163.714L161.602 203.336L161.014 202.7L163.234 200.624H164.806V208.112H166.966V209H161.458Z" fill="white"/>
<rect x="188" y="134" width="16" height="62" fill="#CBD5E0"/>
<path d="M198.798 209H193.302V207.968L196.038 205.448C196.43 205.088 196.758 204.708 197.022 204.308C197.286 203.9 197.418 203.492 197.418 203.084V202.94C197.418 202.476 197.29 202.1 197.034 201.812C196.778 201.524 196.39 201.38 195.87 201.38C195.614 201.38 195.39 201.416 195.198 201.488C195.006 201.56 194.838 201.66 194.694 201.788C194.558 201.916 194.442 202.068 194.346 202.244C194.258 202.412 194.186 202.596 194.13 202.796L193.23 202.448C193.31 202.2 193.418 201.96 193.554 201.728C193.698 201.488 193.874 201.276 194.082 201.092C194.298 200.908 194.554 200.76 194.85 200.648C195.154 200.536 195.51 200.48 195.918 200.48C196.326 200.48 196.69 200.54 197.01 200.66C197.33 200.78 197.598 200.948 197.814 201.164C198.03 201.38 198.194 201.636 198.306 201.932C198.426 202.228 198.486 202.556 198.486 202.916C198.486 203.244 198.438 203.548 198.342 203.828C198.254 204.108 198.13 204.376 197.97 204.632C197.81 204.88 197.614 205.124 197.382 205.364C197.158 205.604 196.914 205.844 196.65 206.084L194.394 208.112H198.798V209Z" fill="white"/>
<rect x="220" y="129" width="16" height="67" fill="#CBD5E0"/>
<path d="M227.534 204.176C228.102 204.176 228.526 204.048 228.806 203.792C229.094 203.528 229.238 203.192 229.238 202.784V202.7C229.238 202.26 229.098 201.932 228.818 201.716C228.546 201.492 228.186 201.38 227.738 201.38C227.306 201.38 226.954 201.476 226.682 201.668C226.41 201.852 226.186 202.104 226.01 202.424L225.266 201.848C225.37 201.68 225.494 201.516 225.638 201.356C225.79 201.188 225.966 201.04 226.166 200.912C226.366 200.784 226.598 200.68 226.862 200.6C227.126 200.52 227.426 200.48 227.762 200.48C228.114 200.48 228.446 200.528 228.758 200.624C229.07 200.712 229.338 200.848 229.562 201.032C229.794 201.208 229.974 201.428 230.102 201.692C230.238 201.956 230.306 202.256 230.306 202.592C230.306 202.864 230.262 203.108 230.174 203.324C230.094 203.54 229.982 203.728 229.838 203.888C229.694 204.048 229.522 204.184 229.322 204.296C229.13 204.408 228.922 204.492 228.698 204.548V204.596C228.922 204.644 229.138 204.724 229.346 204.836C229.562 204.94 229.75 205.08 229.91 205.256C230.078 205.424 230.21 205.632 230.306 205.88C230.41 206.12 230.462 206.396 230.462 206.708C230.462 207.068 230.394 207.4 230.258 207.704C230.122 208 229.93 208.256 229.682 208.472C229.434 208.68 229.134 208.844 228.782 208.964C228.43 209.084 228.042 209.144 227.618 209.144C227.258 209.144 226.938 209.104 226.658 209.024C226.378 208.944 226.13 208.836 225.914 208.7C225.698 208.564 225.506 208.412 225.338 208.244C225.178 208.076 225.034 207.9 224.906 207.716L225.662 207.14C225.766 207.308 225.878 207.46 225.998 207.596C226.126 207.732 226.266 207.848 226.418 207.944C226.57 208.04 226.742 208.116 226.934 208.172C227.126 208.22 227.35 208.244 227.606 208.244C228.198 208.244 228.646 208.112 228.95 207.848C229.254 207.576 229.406 207.192 229.406 206.696V206.6C229.406 206.104 229.254 205.724 228.95 205.46C228.646 205.188 228.198 205.052 227.606 205.052H226.622V204.176H227.534Z" fill="white"/>
<rect x="252" y="159" width="16" height="37" fill="#CBD5E0"/>
<path d="M260.902 209V207.356H256.858V206.468L260.362 200.624H261.862V206.516H263.074V207.356H261.862V209H260.902ZM257.806 206.516H260.902V201.404H260.842L257.806 206.516Z" fill="white"/>
<rect x="284" y="126" width="16" height="70" fill="#CBD5E0"/>
<path d="M294.378 201.512H290.706L290.466 204.704H290.55C290.75 204.424 290.974 204.2 291.222 204.032C291.478 203.864 291.826 203.78 292.266 203.78C292.626 203.78 292.958 203.84 293.262 203.96C293.566 204.08 293.83 204.252 294.054 204.476C294.278 204.692 294.45 204.96 294.57 205.28C294.698 205.6 294.762 205.964 294.762 206.372C294.762 206.78 294.698 207.156 294.57 207.5C294.442 207.836 294.254 208.128 294.006 208.376C293.766 208.616 293.47 208.804 293.118 208.94C292.774 209.076 292.382 209.144 291.942 209.144C291.59 209.144 291.278 209.104 291.006 209.024C290.742 208.944 290.506 208.836 290.298 208.7C290.09 208.564 289.906 208.412 289.746 208.244C289.594 208.076 289.454 207.9 289.326 207.716L290.082 207.14C290.186 207.308 290.294 207.46 290.406 207.596C290.526 207.732 290.654 207.848 290.79 207.944C290.934 208.04 291.098 208.116 291.282 208.172C291.466 208.22 291.686 208.244 291.942 208.244C292.518 208.244 292.954 208.092 293.25 207.788C293.546 207.484 293.694 207.056 293.694 206.504V206.384C293.694 205.832 293.546 205.404 293.25 205.1C292.954 204.796 292.518 204.644 291.942 204.644C291.558 204.644 291.254 204.716 291.03 204.86C290.814 204.996 290.618 205.16 290.442 205.352L289.59 205.232L289.89 200.624H294.378V201.512Z" fill="white"/>
<rect x="316" y="142" width="16" height="54" fill="#CBD5E0"/>
<path d="M324.014 209.144C323.582 209.144 323.19 209.072 322.838 208.928C322.494 208.776 322.198 208.564 321.95 208.292C321.71 208.012 321.526 207.672 321.398 207.272C321.27 206.872 321.206 206.424 321.206 205.928C321.206 205.304 321.298 204.72 321.482 204.176C321.666 203.624 321.902 203.124 322.19 202.676C322.486 202.22 322.81 201.82 323.162 201.476C323.514 201.124 323.858 200.84 324.194 200.624H325.49C325.042 200.952 324.642 201.272 324.29 201.584C323.938 201.896 323.63 202.224 323.366 202.568C323.102 202.904 322.878 203.268 322.694 203.66C322.51 204.044 322.362 204.48 322.25 204.968L322.31 204.992C322.51 204.648 322.766 204.364 323.078 204.14C323.398 203.908 323.814 203.792 324.326 203.792C324.686 203.792 325.018 203.852 325.322 203.972C325.626 204.092 325.886 204.264 326.102 204.488C326.318 204.712 326.486 204.984 326.606 205.304C326.734 205.624 326.798 205.98 326.798 206.372C326.798 206.78 326.73 207.156 326.594 207.5C326.466 207.836 326.278 208.128 326.03 208.376C325.79 208.616 325.498 208.804 325.154 208.94C324.81 209.076 324.43 209.144 324.014 209.144ZM324.002 208.268C324.554 208.268 324.982 208.116 325.286 207.812C325.598 207.508 325.754 207.072 325.754 206.504V206.408C325.754 205.84 325.598 205.404 325.286 205.1C324.982 204.796 324.554 204.644 324.002 204.644C323.45 204.644 323.018 204.796 322.706 205.1C322.402 205.404 322.25 205.84 322.25 206.408V206.504C322.25 207.072 322.402 207.508 322.706 207.812C323.018 208.116 323.45 208.268 324.002 208.268Z" fill="white"/>
<rect x="348" y="96" width="16" height="100" fill="#CBD5E0"/>
<path d="M354.502 209L357.706 201.488H354.13V203.048H353.23V200.624H358.726V201.512L355.582 209H354.502Z" fill="white"/>
</svg>
