<svg width="350" height="200" viewBox="0 0 350 200" fill="none" xmlns="http://www.w3.org/2000/svg">
<g clip-path="url(#clip0_24:79)">
<path d="M290.7 175.15C297.11 177.646 304.067 178.395 310.862 177.321C317.656 176.246 324.043 173.387 329.369 169.034C334.696 164.682 338.771 158.993 341.178 152.55C343.586 146.106 344.238 139.139 343.07 132.36H330.72" stroke="white" stroke-linecap="round" stroke-linejoin="round"/>
<path d="M268.8 153.46C270.525 157.744 273.001 161.686 276.11 165.1" stroke="white" stroke-linecap="round" stroke-linejoin="round"/>
<path d="M339.46 121.45C335.215 113.104 328.098 106.572 319.418 103.059C310.738 99.5455 301.082 99.287 292.226 102.331C283.371 105.375 275.914 111.516 271.229 119.623C266.544 127.731 264.946 137.258 266.73 146.45H275.63" stroke="white" stroke-linecap="round" stroke-linejoin="round"/>
<path d="M323.03 111.76H317.67V123.36H330.28V168.29" stroke="white" stroke-linecap="round" stroke-linejoin="round"/>
<path d="M330.28 144.38H317.96" stroke="white" stroke-linecap="round" stroke-linejoin="round"/>
<path d="M291.72 163H282" stroke="#7F3F98" stroke-linecap="round" stroke-linejoin="round"/>
<path d="M275.63 129.88H267.09" stroke="white" stroke-linecap="round" stroke-linejoin="round"/>
<path d="M330.28 163.37H317.96" stroke="white" stroke-linecap="round" stroke-linejoin="round"/>
<path d="M321 132.92H299.26V145.54" stroke="white" stroke-linecap="round" stroke-linejoin="round"/>
<path d="M290.71 103.06V111.91H309.41V152.64H321" stroke="white" stroke-linecap="round" stroke-linejoin="round"/>
<path d="M311.66 177V163.11H300.56V153.85H290.31V123.26H302.74" stroke="white" stroke-linecap="round" stroke-linejoin="round"/>
<path d="M282.38 107.32V120.98" stroke="white" stroke-linecap="round" stroke-linejoin="round"/>
<path d="M282 128V189.99" stroke="#7F3F98" stroke-linecap="round" stroke-linejoin="round"/>
<path d="M282 190L178 190" stroke="#7F3F98" stroke-linecap="round" stroke-linejoin="round"/>
<path d="M129.188 160C134.063 160 136.813 156.969 136.813 151.969C136.813 147 134.063 144 129.406 144H124.25V160H129.188ZM126.188 158.281V145.719H129.281C133.031 145.719 134.937 148.094 134.937 151.969C134.937 155.875 133.031 158.281 129.063 158.281H126.188ZM144.844 160.25C147.281 160.25 149.063 159.031 149.625 157.219L147.844 156.719C147.375 157.969 146.289 158.594 144.844 158.594C142.68 158.594 141.188 157.195 141.102 154.625H149.812V153.844C149.812 149.375 147.156 147.844 144.656 147.844C141.406 147.844 139.25 150.406 139.25 154.094C139.25 157.781 141.375 160.25 144.844 160.25ZM141.102 153.031C141.227 151.164 142.547 149.5 144.656 149.5C146.656 149.5 147.938 151 147.938 153.031H141.102ZM161.117 150.687C160.539 148.984 159.242 147.844 156.867 147.844C154.336 147.844 152.461 149.281 152.461 151.312C152.461 152.969 153.445 154.078 155.648 154.594L157.648 155.062C158.859 155.344 159.43 155.922 159.43 156.75C159.43 157.781 158.336 158.625 156.617 158.625C155.109 158.625 154.164 157.977 153.836 156.687L152.086 157.125C152.516 159.164 154.195 160.25 156.648 160.25C159.438 160.25 161.336 158.727 161.336 156.656C161.336 154.984 160.289 153.93 158.148 153.406L156.367 152.969C154.945 152.617 154.305 152.141 154.305 151.219C154.305 150.187 155.398 149.437 156.867 149.437C158.477 149.437 159.141 150.328 159.461 151.156L161.117 150.687ZM164.111 160H165.955V148H164.111V160ZM165.049 146C165.768 146 166.361 145.438 166.361 144.75C166.361 144.063 165.768 143.5 165.049 143.5C164.33 143.5 163.736 144.063 163.736 144.75C163.736 145.438 164.33 146 165.049 146ZM174.176 164.75C177.051 164.75 179.363 163.438 179.363 160.344V148H177.582V149.906H177.395C176.988 149.281 176.238 147.844 173.895 147.844C170.863 147.844 168.77 150.25 168.77 153.937C168.77 157.687 170.957 159.812 173.863 159.812C176.207 159.812 176.957 158.438 177.363 157.781H177.52V160.219C177.52 162.219 176.113 163.125 174.176 163.125C171.996 163.125 171.23 161.977 170.738 161.313L169.27 162.344C170.02 163.602 171.496 164.75 174.176 164.75ZM174.113 158.156C171.801 158.156 170.613 156.406 170.613 153.906C170.613 151.469 171.77 149.5 174.113 149.5C176.363 149.5 177.551 151.312 177.551 153.906C177.551 156.562 176.332 158.156 174.113 158.156ZM184.582 152.781C184.582 150.687 185.879 149.5 187.645 149.5C189.355 149.5 190.395 150.617 190.395 152.5V160H192.238V152.375C192.238 149.312 190.605 147.844 188.176 147.844C186.363 147.844 185.238 148.656 184.676 149.875H184.52V148H182.738V160H184.582V152.781ZM195.607 160H197.451V148H195.607V160ZM196.545 146C197.264 146 197.857 145.438 197.857 144.75C197.857 144.063 197.264 143.5 196.545 143.5C195.826 143.5 195.232 144.063 195.232 144.75C195.232 145.438 195.826 146 196.545 146ZM202.672 152.781C202.672 150.687 203.969 149.5 205.734 149.5C207.445 149.5 208.484 150.617 208.484 152.5V160H210.328V152.375C210.328 149.312 208.695 147.844 206.266 147.844C204.453 147.844 203.328 148.656 202.766 149.875H202.609V148H200.828V160H202.672V152.781ZM218.541 164.75C221.416 164.75 223.729 163.438 223.729 160.344V148H221.947V149.906H221.76C221.354 149.281 220.604 147.844 218.26 147.844C215.229 147.844 213.135 150.25 213.135 153.937C213.135 157.687 215.322 159.812 218.229 159.812C220.572 159.812 221.322 158.438 221.729 157.781H221.885V160.219C221.885 162.219 220.479 163.125 218.541 163.125C216.361 163.125 215.596 161.977 215.104 161.313L213.635 162.344C214.385 163.602 215.861 164.75 218.541 164.75ZM218.479 158.156C216.166 158.156 214.979 156.406 214.979 153.906C214.979 151.469 216.135 149.5 218.479 149.5C220.729 149.5 221.916 151.312 221.916 153.906C221.916 156.562 220.697 158.156 218.479 158.156ZM236.822 160.281C238.916 160.281 240.01 159.156 240.385 158.375H240.479V160H242.322V152.094C242.322 148.281 239.416 147.844 237.885 147.844C236.072 147.844 234.01 148.469 233.072 150.656L234.822 151.281C235.229 150.406 236.189 149.469 237.947 149.469C239.643 149.469 240.479 150.367 240.479 151.906V151.969C240.479 152.859 239.572 152.781 237.385 153.063C235.158 153.352 232.729 153.844 232.729 156.594C232.729 158.937 234.541 160.281 236.822 160.281ZM237.104 158.625C235.635 158.625 234.572 157.969 234.572 156.687C234.572 155.281 235.854 154.844 237.291 154.656C238.072 154.562 240.166 154.344 240.479 153.969V155.656C240.479 157.156 239.291 158.625 237.104 158.625ZM108.266 187H110.047V185.156H110.266C110.672 185.812 111.453 187.25 113.766 187.25C116.766 187.25 118.859 184.844 118.859 181.031C118.859 177.25 116.766 174.844 113.734 174.844C111.391 174.844 110.672 176.281 110.266 176.906H110.109V171H108.266V187ZM110.078 181C110.078 178.312 111.266 176.5 113.516 176.5C115.859 176.5 117.016 178.469 117.016 181C117.016 183.562 115.828 185.594 113.516 185.594C111.297 185.594 110.078 183.719 110.078 181ZM126.711 187.25C129.148 187.25 130.93 186.031 131.492 184.219L129.711 183.719C129.242 184.969 128.156 185.594 126.711 185.594C124.547 185.594 123.055 184.195 122.969 181.625H131.68V180.844C131.68 176.375 129.023 174.844 126.523 174.844C123.273 174.844 121.117 177.406 121.117 181.094C121.117 184.781 123.242 187.25 126.711 187.25ZM122.969 180.031C123.094 178.164 124.414 176.5 126.523 176.5C128.523 176.5 129.805 178 129.805 180.031H122.969ZM139.703 175H137.141V172.125H135.297V175H133.484V176.562H135.297V184.062C135.297 186.156 136.984 187.156 138.547 187.156C139.234 187.156 139.672 187.031 139.922 186.937L139.547 185.281C139.391 185.312 139.141 185.375 138.734 185.375C137.922 185.375 137.141 185.125 137.141 183.562V176.562H139.703V175ZM147.695 175H145.133V172.125H143.289V175H141.477V176.562H143.289V184.062C143.289 186.156 144.977 187.156 146.539 187.156C147.227 187.156 147.664 187.031 147.914 186.937L147.539 185.281C147.383 185.312 147.133 185.375 146.727 185.375C145.914 185.375 145.133 185.125 145.133 183.562V176.562H147.695V175ZM155.371 187.25C157.809 187.25 159.59 186.031 160.152 184.219L158.371 183.719C157.902 184.969 156.816 185.594 155.371 185.594C153.207 185.594 151.715 184.195 151.629 181.625H160.34V180.844C160.34 176.375 157.684 174.844 155.184 174.844C151.934 174.844 149.777 177.406 149.777 181.094C149.777 184.781 151.902 187.25 155.371 187.25ZM151.629 180.031C151.754 178.164 153.074 176.5 155.184 176.5C157.184 176.5 158.465 178 158.465 180.031H151.629ZM163.145 187H164.988V179.406C164.988 177.781 166.27 176.594 168.02 176.594C168.512 176.594 169.02 176.688 169.145 176.719V174.844C168.934 174.828 168.449 174.812 168.176 174.812C166.738 174.812 165.488 175.625 165.051 176.812H164.926V175H163.145V187ZM240.973 187.125C241.746 187.125 242.379 186.492 242.379 185.719C242.379 184.945 241.746 184.312 240.973 184.312C240.199 184.312 239.566 184.945 239.566 185.719C239.566 186.492 240.199 187.125 240.973 187.125Z" fill="white"/>
<path d="M182.861 175H180.174V173.781C180.174 172.594 180.674 171.969 181.893 171.969C182.424 171.969 182.736 172.094 182.924 172.156L183.455 170.562C183.174 170.437 182.611 170.25 181.705 170.25C179.986 170.25 178.33 171.281 178.33 173.344V175H176.393V176.562H178.33V187H180.174V176.562H182.861V175ZM193.008 182.094C193.008 184.344 191.289 185.375 189.914 185.375C188.383 185.375 187.289 184.25 187.289 182.5V175H185.445V182.625C185.445 185.687 187.07 187.156 189.32 187.156C191.133 187.156 192.32 186.187 192.883 184.969H193.008V187H194.852V175H193.008V182.094ZM203.447 175H200.885V172.125H199.041V175H197.229V176.562H199.041V184.062C199.041 186.156 200.729 187.156 202.291 187.156C202.979 187.156 203.416 187.031 203.666 186.937L203.291 185.281C203.135 185.312 202.885 185.375 202.479 185.375C201.666 185.375 200.885 185.125 200.885 183.562V176.562H203.447V175ZM213.783 182.094C213.783 184.344 212.064 185.375 210.689 185.375C209.158 185.375 208.064 184.25 208.064 182.5V175H206.221V182.625C206.221 185.687 207.846 187.156 210.096 187.156C211.908 187.156 213.096 186.187 213.658 184.969H213.783V187H215.627V175H213.783V182.094ZM219.004 187H220.848V179.406C220.848 177.781 222.129 176.594 223.879 176.594C224.371 176.594 224.879 176.688 225.004 176.719V174.844C224.793 174.828 224.309 174.812 224.035 174.812C222.598 174.812 221.348 175.625 220.91 176.812H220.785V175H219.004V187ZM231.855 187.25C234.293 187.25 236.074 186.031 236.637 184.219L234.855 183.719C234.387 184.969 233.301 185.594 231.855 185.594C229.691 185.594 228.199 184.195 228.113 181.625H236.824V180.844C236.824 176.375 234.168 174.844 231.668 174.844C228.418 174.844 226.262 177.406 226.262 181.094C226.262 184.781 228.387 187.25 231.855 187.25ZM228.113 180.031C228.238 178.164 229.559 176.5 231.668 176.5C233.668 176.5 234.949 178 234.949 180.031H228.113Z" fill="#7F3F98"/>
<path d="M3.80788 63.4545H2.04652V78H3.80788V63.4545ZM8.78835 71.4375C8.78835 69.5341 9.96733 68.4545 11.5724 68.4545C13.1278 68.4545 14.0724 69.4702 14.0724 71.1818V78H15.7486V71.0682C15.7486 68.2841 14.2642 66.9489 12.0554 66.9489C10.4077 66.9489 9.38494 67.6875 8.87358 68.7955H8.73153V67.0909H7.11222V78H8.78835V71.4375ZM24.4364 82.0909H26.1126V76.3239H26.2546C26.6239 76.9205 27.3342 78.2273 29.4364 78.2273C32.1637 78.2273 34.0671 76.0398 34.0671 72.5739C34.0671 69.1364 32.1637 66.9489 29.408 66.9489C27.2773 66.9489 26.6239 68.2557 26.2546 68.8239H26.0558V67.0909H24.4364V82.0909ZM26.0842 72.5455C26.0842 70.1023 27.1637 68.4545 29.2092 68.4545C31.3398 68.4545 32.391 70.2443 32.391 72.5455C32.391 74.875 31.3114 76.7216 29.2092 76.7216C27.1921 76.7216 26.0842 75.017 26.0842 72.5455ZM43.4989 73.5398C43.4989 75.5852 41.9364 76.5227 40.6864 76.5227C39.2944 76.5227 38.3001 75.5 38.3001 73.9091V67.0909H36.6239V74.0227C36.6239 76.8068 38.1012 78.142 40.1467 78.142C41.7944 78.142 42.8739 77.2614 43.3853 76.1534H43.4989V78H45.1751V67.0909H43.4989V73.5398ZM48.245 78H49.9212V71.0966C49.9212 69.6193 51.0859 68.5398 52.6768 68.5398C53.1243 68.5398 53.5859 68.625 53.6996 68.6534V66.9489C53.5078 66.9347 53.0675 66.9205 52.8189 66.9205C51.5121 66.9205 50.3757 67.6591 49.978 68.7386H49.8643V67.0909H48.245V78ZM63.4137 69.5341C62.8881 67.9858 61.7092 66.9489 59.5501 66.9489C57.2489 66.9489 55.5444 68.2557 55.5444 70.1023C55.5444 71.608 56.4393 72.6165 58.4421 73.0852L60.2603 73.5114C61.3612 73.767 61.8796 74.2926 61.8796 75.0455C61.8796 75.983 60.8853 76.75 59.3228 76.75C57.9521 76.75 57.0927 76.1605 56.7944 74.9886L55.2035 75.3864C55.5941 77.2401 57.1211 78.2273 59.3512 78.2273C61.8867 78.2273 63.6126 76.8423 63.6126 74.9602C63.6126 73.4403 62.6609 72.4815 60.7148 72.0057L59.0955 71.608C57.8029 71.2884 57.2205 70.8551 57.2205 70.017C57.2205 69.0795 58.2148 68.3977 59.5501 68.3977C61.0131 68.3977 61.6168 69.2074 61.908 69.9602L63.4137 69.5341ZM73.0107 73.5398C73.0107 75.5852 71.4482 76.5227 70.1982 76.5227C68.8061 76.5227 67.8118 75.5 67.8118 73.9091V67.0909H66.1357V74.0227C66.1357 76.8068 67.6129 78.142 69.6584 78.142C71.3061 78.142 72.3857 77.2614 72.897 76.1534H73.0107V78H74.6868V67.0909H73.0107V73.5398ZM77.7567 78H79.4329V67.0909H77.7567V78ZM78.609 65.2727C79.2624 65.2727 79.8022 64.7614 79.8022 64.1364C79.8022 63.5114 79.2624 63 78.609 63C77.9556 63 77.4158 63.5114 77.4158 64.1364C77.4158 64.7614 77.9556 65.2727 78.609 65.2727ZM87.2472 67.0909H84.9176V64.4773H83.2415V67.0909H81.5938V68.5114H83.2415V75.3295C83.2415 77.233 84.7756 78.142 86.196 78.142C86.821 78.142 87.2188 78.0284 87.446 77.9432L87.1051 76.4375C86.9631 76.4659 86.7358 76.5227 86.3665 76.5227C85.6278 76.5227 84.9176 76.2955 84.9176 74.875V68.5114H87.2472V67.0909ZM99.8253 78.2273C102.78 78.2273 104.768 75.983 104.768 72.6023C104.768 69.1932 102.78 66.9489 99.8253 66.9489C96.8707 66.9489 94.8821 69.1932 94.8821 72.6023C94.8821 75.983 96.8707 78.2273 99.8253 78.2273ZM99.8253 76.7216C97.581 76.7216 96.5582 74.7898 96.5582 72.6023C96.5582 70.4148 97.581 68.4545 99.8253 68.4545C102.07 68.4545 103.092 70.4148 103.092 72.6023C103.092 74.7898 102.07 76.7216 99.8253 76.7216ZM112.185 67.0909H109.742V65.983C109.742 64.9034 110.196 64.3352 111.304 64.3352C111.787 64.3352 112.071 64.4489 112.242 64.5057L112.725 63.0568C112.469 62.9432 111.958 62.7727 111.134 62.7727C109.571 62.7727 108.066 63.7102 108.066 65.5852V67.0909H106.304V68.5114H108.066V78H109.742V68.5114H112.185V67.0909ZM110.248 102.114C110.951 102.114 111.526 101.538 111.526 100.835C111.526 100.132 110.951 99.5568 110.248 99.5568C109.545 99.5568 108.969 100.132 108.969 100.835C108.969 101.538 109.545 102.114 110.248 102.114Z" fill="white"/>
<path d="M28.4013 102H30.0774V95.1818C30.0774 93.5838 31.2422 92.4545 32.549 92.4545C33.8203 92.4545 34.7081 93.2855 34.7081 94.5284V102H36.4126V94.8977C36.4126 93.4915 37.2933 92.4545 38.8274 92.4545C40.0206 92.4545 41.0433 93.0866 41.0433 94.6989V102H42.7195V94.6989C42.7195 92.1349 41.3416 90.9489 39.3956 90.9489C37.8331 90.9489 36.6896 91.6662 36.1286 92.7955H36.0149C35.4751 91.6307 34.5234 90.9489 33.0888 90.9489C31.6683 90.9489 30.6172 91.6307 30.1626 92.7955H30.0206V91.0909H28.4013V102ZM50.358 102.227C52.5739 102.227 54.1932 101.119 54.7045 99.4716L53.0852 99.017C52.6591 100.153 51.6719 100.722 50.358 100.722C48.3906 100.722 47.0341 99.4503 46.956 97.1136H54.875V96.4034C54.875 92.3409 52.4602 90.9489 50.1875 90.9489C47.233 90.9489 45.2727 93.2784 45.2727 96.6307C45.2727 99.983 47.2045 102.227 50.358 102.227ZM46.956 95.6648C47.0696 93.9673 48.2699 92.4545 50.1875 92.4545C52.0057 92.4545 53.1705 93.8182 53.1705 95.6648H46.956ZM60.6349 102.256C62.5384 102.256 63.5327 101.233 63.8736 100.523H63.9588V102H65.6349V94.8125C65.6349 91.3466 62.9929 90.9489 61.6009 90.9489C59.9531 90.9489 58.0781 91.517 57.2259 93.5057L58.8168 94.0739C59.1861 93.2784 60.0597 92.4261 61.6577 92.4261C63.1989 92.4261 63.9588 93.2429 63.9588 94.642V94.6989C63.9588 95.5085 63.1349 95.4375 61.1463 95.6932C59.1222 95.956 56.9134 96.4034 56.9134 98.9034C56.9134 101.034 58.5611 102.256 60.6349 102.256ZM60.8906 100.75C59.5554 100.75 58.5895 100.153 58.5895 98.9886C58.5895 97.7102 59.7543 97.3125 61.0611 97.142C61.7713 97.0568 63.6747 96.858 63.9588 96.517V98.0511C63.9588 99.4148 62.8793 100.75 60.8906 100.75ZM70.3704 95.4375C70.3704 93.5341 71.5494 92.4545 73.1545 92.4545C74.7099 92.4545 75.6545 93.4702 75.6545 95.1818V102H77.3306V95.0682C77.3306 92.2841 75.8462 90.9489 73.6374 90.9489C71.9897 90.9489 70.967 91.6875 70.4556 92.7955H70.3136V91.0909H68.6942V102H70.3704V95.4375ZM80.3935 102H82.0696V91.0909H80.3935V102ZM81.2457 89.2727C81.8991 89.2727 82.4389 88.7614 82.4389 88.1364C82.4389 87.5114 81.8991 87 81.2457 87C80.5923 87 80.0526 87.5114 80.0526 88.1364C80.0526 88.7614 80.5923 89.2727 81.2457 89.2727ZM86.8157 95.4375C86.8157 93.5341 87.9947 92.4545 89.5998 92.4545C91.1552 92.4545 92.0998 93.4702 92.0998 95.1818V102H93.7759V95.0682C93.7759 92.2841 92.2915 90.9489 90.0827 90.9489C88.435 90.9489 87.4123 91.6875 86.9009 92.7955H86.7589V91.0909H85.1396V102H86.8157V95.4375ZM101.242 106.318C103.856 106.318 105.958 105.125 105.958 102.312V91.0909H104.339V92.8239H104.168C103.799 92.2557 103.117 90.9489 100.987 90.9489C98.2308 90.9489 96.3274 93.1364 96.3274 96.4886C96.3274 99.8977 98.3161 101.83 100.958 101.83C103.089 101.83 103.771 100.58 104.14 99.983H104.282V102.199C104.282 104.017 103.004 104.841 101.242 104.841C99.2607 104.841 98.5646 103.797 98.1172 103.193L96.782 104.131C97.4638 105.274 98.8061 106.318 101.242 106.318ZM101.185 100.324C99.0831 100.324 98.0036 98.733 98.0036 96.4602C98.0036 94.2443 99.0547 92.4545 101.185 92.4545C103.231 92.4545 104.31 94.1023 104.31 96.4602C104.31 98.875 103.202 100.324 101.185 100.324Z" fill="#7F3F98"/>
<path d="M187.034 80.0741C187.604 79.0435 187.788 77.8454 187.554 76.6925C187.014 73.7088 185.036 71.1229 184.986 68.179C185.455 67.2806 186.201 66.5556 187.114 66.1103C188.226 65.6775 189.224 64.9971 190.031 64.1211C194.507 58.7404 190.361 51.122 190.89 45.0451C191.19 41.574 192.189 37.7449 190.071 34.612C189.555 33.8407 188.836 33.225 187.993 32.8317C188.093 31.9068 188.203 30.9818 188.303 30.0569C188.363 29.5397 188.453 28.9728 188.483 28.4059C188.547 28.4615 188.622 28.5025 188.704 28.5258C188.785 28.5492 188.871 28.5545 188.955 28.5412C189.039 28.5279 189.119 28.4964 189.189 28.449C189.26 28.4015 189.318 28.3393 189.362 28.2666C189.955 27.2649 190.154 26.0796 189.919 24.9404C189.685 23.8011 189.034 22.7891 188.093 22.1002C186.904 21.3635 185.625 20.7819 184.287 20.3697C182.408 19.4857 180.434 18.8183 178.403 18.3805C177.03 18.1432 175.617 18.3893 174.407 19.0767C172.528 20.1608 171.24 21.1852 168.962 21.4637C166.504 21.7621 163.877 21.8814 162.438 24.0695C160.122 24.8593 158.196 26.4992 157.054 28.6545C156.984 28.7937 156.924 28.933 156.854 29.0722C156.719 29.136 156.589 29.2091 156.464 29.291C155.973 29.6394 155.61 30.1378 155.43 30.7104C155.249 31.2831 155.262 31.8987 155.465 32.4637L155.385 32.6527C154.524 34.5071 153.293 36.1683 151.769 37.5361C149.631 39.6048 147.983 41.6536 147.423 44.4086C146.334 49.7694 148.722 55.0903 148.332 60.4611C148.072 64.1112 146.174 66.8462 142.678 68.9547C140.02 70.556 136.973 71.7495 134.686 73.7685C129.141 78.6618 131.139 85.7034 132.018 91.7305C132.636 95.5469 132.345 99.4543 131.169 103.138C130.09 106.401 128.172 110.1 123.876 110.906C123.147 111.045 123.457 111.99 124.186 111.901C133.417 110.16 134.176 97.9069 133.247 91.7106C132.538 86.7974 130.819 81.2179 133.846 76.5831C136.324 72.7938 141.539 71.471 145.215 68.7359C152.128 63.594 149.021 55.6374 148.582 48.924C148.393 47.064 148.573 45.185 149.111 43.3941C149.911 41.0569 151.729 39.4158 153.547 37.6455C154.543 36.6667 155.394 35.5515 156.075 34.3335C156.164 34.5623 156.254 34.791 156.324 35.0198C156.651 36.0877 156.573 37.2379 156.105 38.2522C155.439 38.4681 154.819 38.8053 154.276 39.2467C153.523 39.8756 152.951 40.6919 152.617 41.6126C152.284 42.5333 152.201 43.5254 152.378 44.4882C151.608 44.9884 151.023 45.7257 150.713 46.5876C150.403 47.4495 150.384 48.3887 150.66 49.2621C151.329 51.7884 153.997 53.4493 154.946 55.8462C156.085 58.7106 152.338 61.1374 153.767 63.9122C154.004 64.3519 154.293 64.7625 154.626 65.1356C153.713 66.7799 153.389 68.6843 153.707 70.5361C154.053 71.9424 154.853 73.1968 155.985 74.1066C155.95 77.1319 156.482 80.137 157.553 82.9683C158.112 84.3049 159.007 85.4761 160.151 86.3698C160.217 86.9174 160.402 87.4443 160.691 87.9145C160.981 88.3848 161.369 88.7874 161.829 89.0949C163.737 90.358 166.355 89.7215 168.123 88.538C168.323 88.6175 168.512 88.6971 168.712 88.7965C170.411 89.6718 171.819 90.9448 173.448 91.9096C175.076 92.8743 179.332 95.0126 182.439 95.2215C182.858 95.6719 183.377 96.0195 183.954 96.2369C184.532 96.4543 185.151 96.5357 185.765 96.4747C188.303 96.1763 189.242 93.3716 189.841 91.2929C190.84 87.981 190.761 85.3255 188.703 82.4511C188.133 81.5759 187.564 80.82 187.034 80.0741ZM186.395 79.1491C184.925 77.1738 184.124 74.7845 184.107 72.3264C184.111 71.6195 184.175 70.9142 184.297 70.2179C185.176 73.2115 187.334 76.3246 186.395 79.1491ZM183.977 67.6021C183.969 67.7744 183.969 67.947 183.977 68.1193C183.474 69.4626 183.211 70.8829 183.198 72.3164C183.156 75.1929 184.096 77.9985 185.865 80.273L185.815 80.3625C184.956 81.5859 183.548 82.5009 182.818 83.8137C182.051 82.8422 181.206 81.9341 180.291 81.0985C180.441 80.7106 180.581 80.3327 180.69 79.9448C181.92 75.5041 181.961 70.8204 180.81 66.3589C180.628 65.7133 180.391 65.0844 180.101 64.4791C181.385 63.5897 182.378 62.3448 182.958 60.8987C184.087 57.4773 180.96 54.9312 179.222 52.1365C178.69 50.9347 178.323 49.6667 178.133 48.367C178.273 47.5378 178.617 46.7557 179.132 46.0894C179.442 45.6509 179.776 45.2293 180.131 44.8263C180.471 44.8263 180.75 45.075 181.39 45.4728C182.788 46.3381 182.778 46.8453 182.469 48.3372C182.213 49.2042 182.003 50.084 181.839 50.9728C181.753 51.4988 181.781 52.037 181.921 52.5515C182.06 53.066 182.308 53.545 182.649 53.9565C182.915 54.2376 183.257 54.4354 183.635 54.5258C184.012 54.6162 184.408 54.5952 184.773 54.4655C185.139 54.3357 185.458 54.1028 185.693 53.7952C185.928 53.4876 186.068 53.1186 186.095 52.7332C186.098 52.6966 186.093 52.6598 186.082 52.625C186.07 52.5902 186.052 52.558 186.028 52.5303C186.003 52.5025 185.974 52.4798 185.941 52.4635C185.908 52.4471 185.872 52.4373 185.835 52.4348C185.986 52.1872 186.117 51.9278 186.225 51.6591C186.493 52.2786 186.703 52.9211 186.854 53.5786C187.457 56.19 187.269 58.9205 186.315 61.4258C185.516 63.5045 184.187 65.4041 183.977 67.6021ZM179.062 83.4457C179.396 82.9541 179.693 82.4389 179.951 81.9041C180.814 82.6663 181.594 83.5163 182.279 84.4403C182.349 84.5398 182.419 84.6492 182.479 84.7586C182.334 85.8954 182.596 87.0467 183.218 88.0108C183.122 88.3732 182.952 88.7119 182.718 89.0054C182.468 89.3309 182.155 89.6046 181.799 89.811C181.879 88.9756 182.009 88.1302 182.049 87.2649C182.129 85.0768 180.74 84.1917 179.052 83.4557L179.062 83.4457ZM186.055 46.9845C186.055 47.3824 186.055 47.7802 186.055 48.178C184.976 46.3779 183.698 44.5379 183.538 42.4791C183.378 40.4203 184.247 38.5008 184.537 36.4619C184.657 35.7359 184.766 34.9104 184.816 34.0551C184.966 33.7865 185.106 33.518 185.246 33.2395C185.386 32.961 185.386 32.9511 185.446 32.8019C185.974 32.8787 186.495 32.9984 187.004 33.1599L185.506 46.6265C185.466 46.9249 185.785 47.0442 186.045 46.9945L186.055 46.9845ZM185.386 52.7531L183.008 53.0714L182.639 51.6392C182.654 51.0321 182.751 50.4299 182.928 49.8489C183.088 49.1726 183.338 48.5162 183.428 47.8598C183.486 47.3974 183.486 46.9297 183.428 46.4674C184.137 47.8598 185.006 49.2124 185.716 50.6148C185.528 51.3045 185.408 52.0106 185.356 52.7233C185.357 52.737 185.36 52.7504 185.366 52.763L185.386 52.7531ZM180.391 55.2097C181.39 56.5325 182.389 57.9448 182.389 59.5659C182.389 61.1871 181.2 62.5497 179.781 63.7332C178.921 62.2016 177.697 60.9038 176.215 59.9538L176.385 59.8046C177.633 58.8101 179.452 58.1835 180.171 56.8209C180.404 56.3212 180.478 55.7622 180.381 55.2196L180.391 55.2097ZM176.475 77.8164C177.227 77.3896 177.822 76.7343 178.173 75.9466C178.347 75.5058 178.425 75.0333 178.403 74.5603C178.38 74.0872 178.258 73.6242 178.043 73.2016C177.254 71.3915 175.905 69.8598 174.986 68.1094C175.604 67.5963 176.247 67.115 176.914 66.6672C177.564 66.2296 178.243 65.782 178.912 65.3146C179.6 67.043 179.982 68.8769 180.041 70.735C180.322 73.8586 180.045 77.0071 179.222 80.0343L179.062 79.9846C178.063 79.1094 177.154 78.3634 176.475 77.8164ZM178.822 80.9692C178.593 81.5272 178.319 82.066 178.003 82.5804C177.933 82.6998 177.833 82.8092 177.753 82.9186L177.384 82.7595C176.385 82.302 175.326 81.8146 174.307 81.3173C174.844 80.8718 175.482 80.563 176.166 80.4174C176.85 80.2719 177.559 80.294 178.233 80.4819L178.822 80.9692ZM164.946 62.6591V62.5894C164.716 61.933 164.536 61.2766 164.366 60.6003C165.293 60.7187 166.234 60.651 167.134 60.4014C168.133 60.1726 168.942 59.9538 169.791 59.8146C169.812 60.086 169.812 60.3587 169.791 60.6301C168.862 61.0777 167.973 61.4755 167.214 61.8137C166.454 62.1518 165.735 62.3905 164.946 62.6591ZM165.186 64.4593L164.297 64.1609L163.737 63.962L164.736 63.5741L165.186 64.4593ZM163.188 57.6464C163.248 58.0906 163.314 58.5316 163.387 58.9692C162.935 58.6874 162.55 58.3106 162.259 57.8652L163.188 57.6464ZM161.819 57.0397C161.615 56.5365 161.503 56.0009 161.489 55.4583C161.488 54.2273 161.96 53.0424 162.808 52.1464C162.808 53.6979 162.908 55.2495 163.068 56.7911L161.819 57.0397ZM163.377 42.5985C163.377 42.4095 163.307 42.2106 163.258 42.0216C164.077 42.4891 164.926 42.9466 165.685 43.4041C167.733 44.6473 170.181 45.5026 172.678 44.6672C173.126 44.5691 173.548 44.3756 173.913 44.1C174.279 43.8244 174.58 43.4733 174.797 43.0707C175.013 42.6681 175.14 42.2237 175.167 41.7679C175.195 41.3121 175.123 40.8558 174.956 40.4303C174.736 39.7341 174.437 39.0777 174.217 38.4411L174.836 38.7196C176.505 39.4457 176.674 39.6247 176.275 41.1663C175.965 41.9658 175.484 42.6886 174.866 43.2847C174.2 43.9417 173.459 44.5192 172.658 45.0053C171.255 45.8374 169.807 46.5944 168.323 47.273C167.57 47.1404 166.814 47.0276 166.055 46.9348C166.055 46.8553 166.055 46.7757 166.055 46.6961C166.169 46.2495 166.188 45.7841 166.111 45.3296C166.034 44.8752 165.863 44.4417 165.608 44.057C165.353 43.6723 165.02 43.3447 164.631 43.0953C164.242 42.8458 163.805 42.68 163.347 42.6084L163.377 42.5985ZM169.182 48.1283C170.572 48.3672 171.935 48.7471 173.248 49.2621C175.246 50.0976 175.605 51.9674 174.087 53.3996C173.079 54.1702 171.906 54.7009 170.66 54.9511L169.252 55.329C168.392 54.3345 167.364 53.4891 166.564 52.4746C165.946 51.7778 165.593 50.8875 165.565 49.9583C166.729 49.2917 167.926 48.6843 169.152 48.1383L169.182 48.1283ZM165.725 48.5858C165.785 48.2974 165.845 47.999 165.905 47.6907L167.184 47.8299C166.664 48.0786 166.175 48.3372 165.695 48.5958L165.725 48.5858ZM163.487 43.8815C164.836 44.5379 164.836 45.6021 164.576 46.726L163.487 46.6762C163.487 45.7911 163.547 44.876 163.487 43.8815ZM163.487 47.5216H164.396C164.307 47.8299 164.227 48.1283 164.167 48.4267C164.094 48.7867 164.06 49.1535 164.067 49.5207L163.457 49.9484C163.457 49.5572 163.457 49.1693 163.457 48.7847C163.417 48.4466 163.427 48.009 163.487 47.5614V47.5216ZM164.267 50.8037C164.836 52.6735 166.544 54.0162 167.923 55.6274C166.624 55.9357 165.326 56.2341 164.037 56.5623L163.727 56.6319C163.557 54.9113 163.497 53.1907 163.477 51.4601C163.687 51.2712 163.947 51.0524 164.227 50.8435L164.267 50.8037ZM168.442 56.2739C168.858 56.8247 169.194 57.4306 169.441 58.0741C169.501 58.2332 169.531 58.3923 169.581 58.5515C168.932 58.6609 168.273 58.82 167.583 58.999C166.471 59.4212 165.261 59.5144 164.097 59.2676C163.983 58.6708 163.887 58.0674 163.807 57.4574L168.442 56.2739ZM173.288 63.594C173.137 65.0739 173.396 66.5666 174.037 67.9104C173.114 68.6909 172.362 69.6525 171.829 70.735C172.149 68.8056 170.361 66.7567 168.333 65.6726C169.236 64.9551 169.969 64.0485 170.48 63.0171C170.812 62.3089 171.015 61.548 171.08 60.7694C171.619 60.481 172.149 60.1726 172.678 59.8544C173.194 59.9625 173.696 60.1259 174.177 60.3417L174.566 60.5307C173.828 61.4123 173.369 62.4923 173.248 63.6338L173.288 63.594ZM175.286 60.8589C176.737 61.7366 177.906 63.0102 178.652 64.5289C177.903 65.056 177.124 65.5235 176.435 66.0207C175.745 66.518 175.276 66.8462 174.696 67.3137C174.582 67.0474 174.482 66.7751 174.397 66.4981C174.077 65.5647 173.989 64.5685 174.138 63.5938C174.288 62.6191 174.671 61.6946 175.256 60.8987L175.286 60.8589ZM166.814 66.886C167.084 66.6473 167.374 66.4285 167.683 66.1998L167.893 66.2893C169.008 66.7955 169.92 67.6609 170.48 68.7459C170.84 69.462 171.479 71.8887 169.971 71.65C169.192 71.5207 168.323 70.7151 167.443 70.4566C167.501 69.2447 167.275 68.036 166.784 66.9258L166.814 66.886ZM167.214 62.6193C167.963 62.2911 168.762 61.933 169.561 61.5451C169.132 62.8869 168.311 64.071 167.204 64.9466L167.064 65.0659C166.654 64.9068 166.235 64.7676 165.825 64.6283C165.632 64.2106 165.449 63.7896 165.276 63.3652C165.955 63.1464 166.624 62.8978 167.184 62.6591L167.214 62.6193ZM166.984 70.3074C166.359 70.186 165.722 70.1326 165.086 70.1482C165.141 69.3266 165.421 68.5357 165.895 67.8607C166.06 67.6335 166.244 67.4206 166.444 67.2242C166.825 68.2199 166.999 69.2825 166.954 70.3471L166.984 70.3074ZM167.324 71.1925C168.317 71.4775 169.223 72.0039 169.961 72.7242C170.053 72.7976 170.168 72.8376 170.286 72.8376C170.404 72.8376 170.518 72.7976 170.61 72.7242C171.002 72.4038 171.325 72.0081 171.559 71.5605C171.369 72.3596 171.435 73.198 171.749 73.9575C172.526 75.4094 173.631 76.6622 174.976 77.6175C174.312 77.8136 173.618 77.8844 172.928 77.8264C170.381 77.5578 169.282 76.0262 167.663 74.594C167.202 74.145 166.646 73.805 166.035 73.5994C166.265 73.2811 166.484 72.9529 166.684 72.6048C166.952 72.1783 167.157 71.7162 167.294 71.2323L167.324 71.1925ZM172.518 71.8688C172.777 70.6318 173.437 69.5137 174.397 68.6862C175.022 69.8788 175.715 71.0345 176.475 72.1473C177.294 73.3806 177.883 74.6437 177.194 76.1256C176.914 76.6502 176.473 77.0718 175.935 77.3291C174.177 75.7676 172.159 74.1763 172.478 71.9086L172.518 71.8688ZM176.924 58.5614C176.446 58.8621 175.989 59.1943 175.555 59.556C175.083 59.3069 174.592 59.0941 174.087 58.9195C175.105 58.2172 176.025 57.3846 176.824 56.443C177.744 55.2472 178.195 53.7587 178.093 52.2558C178.093 52.1663 178.093 52.0668 178.093 51.9773C178.459 52.6194 178.866 53.2373 179.312 53.8272C179.448 54.093 179.526 54.3845 179.542 54.6826C179.562 56.7115 178.473 57.5569 176.894 58.6012L176.924 58.5614ZM177.344 46.6762C177.149 47.3851 177.068 48.1203 177.104 48.8544C177.104 48.9936 177.104 49.1229 177.104 49.2621C177.261 50.5821 177.321 51.9117 177.284 53.2404C177.064 55.4186 175.286 57.2187 173.188 58.6111H173.098C172.402 58.4417 171.686 58.3647 170.97 58.3824C170.725 57.4794 170.308 56.6318 169.741 55.886C172.818 55.0008 177.733 53.0912 175.545 49.7793C174.546 48.2974 172.039 47.9294 170.241 47.5614C171.217 47.126 172.171 46.6413 173.098 46.1093C175.765 44.5081 179.272 41.3155 177.434 38.282C177.068 37.6988 176.551 37.2247 175.938 36.9096C175.324 36.5945 174.636 36.4502 173.947 36.4918C174.027 36.0102 174.218 35.5538 174.507 35.159C175.243 34.2844 176.052 33.4726 176.924 32.7323C178.303 33.339 179.921 33.6274 181.04 34.7214C181.594 35.2207 182.052 35.8175 182.389 36.4818C181.52 37.5659 180.601 38.6401 179.831 39.7341C178.335 41.7757 177.461 44.203 177.314 46.726L177.344 46.6762ZM170.46 30.1265C170.517 29.4375 170.697 28.764 170.99 28.1373C171.647 28.2063 172.281 28.4207 172.845 28.7649C173.408 29.1091 173.887 29.5743 174.247 30.1265C174.571 30.6787 174.924 31.2132 175.306 31.7277C175.567 32.0041 175.866 32.2419 176.195 32.4339C175.114 33.3641 174.175 34.4463 173.408 35.6464C173.239 35.9918 173.14 36.367 173.118 36.7504C172.452 36.9838 171.843 37.353 171.33 37.8344C171.33 37.6554 171.33 37.4764 171.38 37.3073C171.479 34.9303 170.231 32.5731 170.431 30.1663L170.46 30.1265ZM168.962 30.037C168.9 30.4683 168.876 30.9044 168.892 31.3399C168.412 30.8923 167.893 30.4646 167.374 29.9972C167.182 29.8231 167.002 29.637 166.834 29.4402C167.579 28.8414 168.455 28.4257 169.392 28.2268H169.491C169.225 28.82 169.037 29.4452 168.932 30.0867L168.962 30.037ZM169.431 37.2576C169.312 38.65 169.362 38.4809 167.483 38.7196C165.605 38.9583 165.485 38.8091 164.986 37.3073C164.767 36.6257 164.607 35.9271 164.506 35.2187C164.786 34.9203 165.076 34.6319 165.385 34.3534C166.454 33.2196 167.743 33.2395 169.242 34.3534V34.6021C169.386 35.4928 169.436 36.3962 169.392 37.2974L169.431 37.2576ZM168.253 27.3814C167.541 27.6129 166.868 27.9481 166.255 28.376C166.444 26.7151 168.323 25.9095 170.251 26.1283C170.443 26.1539 170.634 26.1938 170.82 26.2476C170.554 26.4953 170.313 26.7684 170.101 27.0632C169.462 27.1011 168.831 27.2214 168.223 27.4212L168.253 27.3814ZM177.474 29.6889C177.485 29.8511 177.485 30.014 177.474 30.1762L177.224 30.0668C176.826 29.5796 176.49 29.045 176.225 28.4755C176.62 28.901 177.037 29.306 177.474 29.6889V29.6889ZM175.755 26.9737C175.565 26.7449 175.366 26.4963 175.196 26.2178C175.678 26.4033 176.109 26.6998 176.455 27.0831C176.215 27.0433 175.985 26.9737 175.755 26.9737ZM182.649 27.5804C182.649 27.6798 182.569 27.7693 182.529 27.8688C182.309 27.7097 182.079 27.5505 181.839 27.4013C182.192 27.2952 182.525 27.1726 182.838 27.0333L182.649 27.5804ZM183.268 31.6482C182.767 31.5447 182.273 31.4084 181.789 31.2404L181.28 31.0415C181.784 30.673 182.212 30.2102 182.539 29.6789L182.609 29.7585C182.972 30.3221 183.197 30.9624 183.268 31.6283V31.6482ZM181.949 29.0722C181.889 29.1717 181.849 29.2711 181.789 29.3706C181.651 29.6626 181.454 29.9239 181.213 30.1392C180.971 30.3544 180.688 30.5192 180.381 30.6238C179.682 30.2684 179.013 29.8559 178.383 29.3905C178.35 28.9039 178.246 28.4246 178.073 27.9682C178.645 27.9606 179.215 27.9174 179.781 27.8389C180.553 28.1487 181.282 28.5566 181.949 29.0523V29.0722ZM179.472 31.688C179.792 31.6556 180.107 31.5855 180.411 31.4791C181.314 31.9033 182.258 32.2365 183.228 32.4737H183.368C183.368 32.8914 183.368 33.3091 183.368 33.6871C183.358 34.2836 183.305 34.8786 183.208 35.4674L183.038 35.6961C182.662 35.0236 182.176 34.4185 181.6 33.9059C180.677 33.1822 179.626 32.6358 178.503 32.2947C178.203 32.1852 177.943 32.0659 177.693 31.9366C177.783 31.8033 177.863 31.6637 177.933 31.5189C178.424 31.7011 178.953 31.7592 179.472 31.688ZM183.338 28.5053L183.228 28.4158C183.558 27.7097 183.847 26.9936 184.167 26.4267C184.201 26.3435 184.208 26.2519 184.186 26.1647C184.165 26.0776 184.116 25.9993 184.048 25.941C183.98 25.8828 183.894 25.8474 183.805 25.8399C183.715 25.8325 183.625 25.8533 183.548 25.8995C182.689 26.3077 181.788 26.6212 180.86 26.8344C179.467 26.1035 178.017 25.4849 176.525 24.9845C177.851 24.8268 179.185 24.7471 180.521 24.7458C181.12 24.7458 181.949 24.7458 182.798 24.7458C183.002 24.8425 183.199 24.9521 183.388 25.074C184.19 25.689 184.808 26.511 185.174 27.4507C185.541 28.3905 185.641 29.4122 185.466 30.405C185.405 30.9436 185.284 31.4739 185.106 31.9863L184.776 31.9267C184.699 30.6516 184.18 29.4427 183.308 28.5053H183.338ZM182.678 37.2775C182.721 37.4212 182.754 37.5674 182.778 37.7151C182.579 38.5704 182.389 39.4158 182.249 40.2811C181.389 41.7055 180.385 43.0386 179.252 44.2594C178.881 44.4487 178.543 44.6974 178.253 44.9954C178.902 42.0713 180.82 39.7241 182.659 37.2874L182.678 37.2775ZM182.159 42.5885C182.244 43.2919 182.411 43.9829 182.659 44.6473C182.22 44.1795 181.613 43.9041 180.97 43.8815C181.37 43.4737 181.769 43.046 182.129 42.5985L182.159 42.5885ZM185.755 32.0957C186.535 29.7187 186.395 26.8742 184.387 25.0243L184.227 24.895C184.913 24.9461 185.577 25.1573 186.165 25.5116C186.982 26.3028 187.479 27.3641 187.564 28.4954C187.56 29.1637 187.49 29.8301 187.354 30.4845L187.134 32.4737C186.672 32.3239 186.202 32.201 185.726 32.1057L185.755 32.0957ZM183.038 24.0795C181.15 23.0849 179.152 23.5125 177.144 24.159C176.355 24.2386 175.575 24.3281 174.796 24.4474L174.437 24.338C174.344 23.7942 174.455 23.2355 174.746 22.7666C175.406 21.772 176.854 21.4538 177.983 21.4339C180.592 21.5185 183.08 22.5516 184.976 24.338C184.326 24.213 183.669 24.13 183.008 24.0894L183.038 24.0795ZM174.946 27.6301C175.725 28.6943 176.185 30.1862 177.184 31.0415C177.113 31.192 177.033 31.3381 176.944 31.4791C176.4 31.1239 175.94 30.6556 175.595 30.1066C175.292 29.5335 174.919 28.9991 174.487 28.5153C173.697 27.7818 172.699 27.3093 171.629 27.1626C171.783 26.9872 171.954 26.8273 172.139 26.6852C173.029 27.1055 173.964 27.4257 174.926 27.64L174.946 27.6301ZM170.95 25.2431C170.879 25.2572 170.813 25.2907 170.76 25.3399C170.707 25.3891 170.669 25.452 170.65 25.5216C169.529 25.2477 168.348 25.3527 167.294 25.82C166.681 26.1376 166.187 26.6432 165.885 27.2621C165.885 26.2078 166.574 25.2729 168.373 24.7359C168.988 24.557 169.634 24.5029 170.271 24.5767L170.95 24.706C171.265 24.7885 171.573 24.8983 171.869 25.0342L170.95 25.2431ZM166.235 30.027C167.252 30.7977 168.183 31.6747 169.012 32.6428V32.9212C168.536 32.7198 168.024 32.621 167.507 32.6312C166.99 32.6415 166.482 32.7607 166.015 32.9809C165.383 33.2848 164.808 33.6953 164.316 34.1943C164.267 33.876 164.207 33.5578 164.137 33.1997C164.597 32.0211 165.294 30.9483 166.185 30.0469L166.235 30.027ZM164.177 40.2115C164.375 40.3537 164.582 40.4833 164.796 40.5994C165.285 41.1445 165.928 41.5308 166.641 41.7081C167.353 41.8855 168.103 41.8457 168.792 41.5939C169.339 41.3819 169.826 41.0406 170.211 40.5994C170.715 40.2549 171.186 39.8654 171.619 39.4357C171.839 39.2368 172.049 39.008 172.279 38.8191C172.878 38.3317 173.088 38.1229 173.358 38.1229C173.747 39.3064 174.517 40.4402 174.447 41.763C174.307 44.15 171.12 44.6771 168.962 44.1401C167.074 43.6627 165.575 42.4294 164.037 41.4348C163.717 41.2259 163.188 40.9574 162.838 40.7088C162.562 40.0873 162.161 39.5288 161.659 39.0677H161.609C161.735 38.5612 161.966 38.0867 162.288 37.6753V37.6753C162.609 38.6992 163.254 39.5923 164.127 40.2214L164.177 40.2115ZM162.718 45.3137C162.718 45.7413 162.718 46.1789 162.718 46.6066C161.819 46.5469 160.92 46.5071 160.021 46.5071C157.723 46.5071 156.764 45.9203 156.194 43.9113C156.775 43.7073 157.379 43.5769 157.993 43.5234C159.527 43.325 161.083 43.3552 162.608 43.6129C162.638 44.2196 162.648 44.8064 162.678 45.3236L162.718 45.3137ZM159.112 47.5316C160.27 47.5316 161.509 47.5316 162.778 47.5316C162.778 48.5261 162.778 49.5207 162.778 50.5153C160.95 51.9972 159.781 53.8073 160.161 56.2341C160.227 56.6188 160.334 56.9955 160.48 57.358C160.022 57.4846 159.574 57.6475 159.142 57.8453C159.376 57.0772 159.504 56.2808 159.521 55.4782C159.521 52.1365 156.804 50.5053 154.866 47.9095C154.241 47.0914 153.761 46.1731 153.447 45.1943C153.915 44.8391 154.425 44.5418 154.966 44.3091C155.227 45.1035 155.641 45.8398 156.184 46.4773C157.144 47.6211 157.493 47.6012 159.062 47.5515L159.112 47.5316ZM160.61 58.2829L160.94 58.1934C161.515 59.1894 162.413 59.961 163.487 60.3815L163.687 60.4412C163.687 60.5904 163.747 60.7296 163.787 60.8788C163.964 61.5587 164.195 62.2238 164.476 62.8679C163.857 63.0768 163.248 63.3155 162.648 63.5641C161.06 62.9177 159.251 61.9629 158.972 60.7893C158.909 60.522 158.9 60.2448 158.946 59.9741C158.992 59.7034 159.092 59.4446 159.24 59.2129C159.388 58.9812 159.581 58.7813 159.808 58.625C160.034 58.4688 160.29 58.3592 160.56 58.3028L160.61 58.2829ZM162.728 64.4095C163.727 64.7974 164.726 65.1057 165.725 65.4041L165.975 65.9511C164.875 66.7024 164.101 67.839 163.807 69.1338C163.737 69.5117 163.697 69.9095 163.657 70.3074C162.794 70.4895 161.971 70.8266 161.23 71.3019C160.9 70.8444 160.59 70.377 160.31 69.8896C158.612 67.075 160.36 65.5135 162.678 64.4294L162.728 64.4095ZM163.597 73.6989L163.298 73.7784C162.766 73.2411 162.262 72.6768 161.789 72.0877C162.335 71.7302 162.931 71.4554 163.557 71.2721C163.505 72.0868 163.505 72.904 163.557 73.7188L163.597 73.6989ZM161.22 72.5054C161.629 73.0126 162.039 73.5 162.478 73.9972C161.743 74.2217 160.992 74.388 160.231 74.4945H159.801C160.078 73.7258 160.554 73.0432 161.18 72.5153L161.22 72.5054ZM162.968 74.4945C163.238 74.773 163.517 75.0515 163.797 75.3101C163.797 75.4792 163.797 75.6383 163.867 75.8074C163.358 76.3753 162.897 76.984 162.488 77.6274C162.117 78.2469 161.784 78.8879 161.489 79.547C160.974 79.1672 160.542 78.6866 160.221 78.1347C159.69 77.282 159.462 76.2772 159.571 75.2802C160.723 75.1776 161.853 74.9096 162.928 74.4846L162.968 74.4945ZM162.688 78.5226C163.064 77.7989 163.498 77.107 163.987 76.4538C164.288 77.9774 164.702 79.4766 165.226 80.9394C164.117 80.7762 163.046 80.4228 162.059 79.8951C162.199 79.4276 162.418 78.9602 162.638 78.5126L162.688 78.5226ZM165.146 73.5497C165.096 72.8535 165.056 72.1573 165.056 71.4511C165.056 71.3019 165.056 71.1627 165.056 71.0235C165.671 70.9795 166.29 71.0196 166.894 71.1428C166.769 71.7527 166.536 72.3354 166.205 72.8634C166.045 73.122 165.855 73.3607 165.665 73.5994C165.477 73.5617 165.287 73.5384 165.096 73.5298L165.146 73.5497ZM165.605 74.3553C166.051 74.4875 166.47 74.6962 166.844 74.9719C168.422 76.1157 169.162 77.6175 171.2 78.3236C172.667 78.8186 174.261 78.7975 175.715 78.264L176.055 78.5624C176.495 78.9602 176.964 79.3481 177.434 79.7459C176.094 79.7869 174.797 80.2231 173.707 80.9991C171.836 80.0781 170.024 79.0417 168.283 77.896C167.273 77.2165 166.3 76.4862 165.365 75.7079C165.365 75.3896 165.266 75.0714 165.226 74.7133L165.605 74.3553ZM173.008 81.5361C172.696 81.7942 172.402 82.0733 172.129 82.3716L171.879 82.67C170.3 81.85 168.57 81.3561 166.794 81.2179C166.285 79.8061 165.891 78.356 165.615 76.8815C167.905 78.6585 170.364 80.2075 172.958 81.5063L173.008 81.5361ZM172.009 83.9728C172.7 84.6515 173.316 85.4017 173.847 86.2106L173.478 86.3598C172.447 86.8083 171.282 86.8369 170.231 86.4394C170.75 85.6537 171.33 84.7785 171.949 83.943L172.009 83.9728ZM172.598 83.207C172.958 82.7502 173.349 82.3182 173.767 81.9141C174.766 82.4114 175.765 82.9087 176.764 83.3463L177.374 83.6148C176.627 84.5112 175.715 85.2573 174.686 85.8128C174.104 84.8317 173.376 83.9433 172.528 83.1772L172.598 83.207ZM178.592 84.2016C179.951 84.8282 181.14 85.6636 181.19 87.3842C181.173 88.3412 181.083 89.2954 180.92 90.2387C179.042 90.547 176.924 88.9258 175.925 87.7025C175.725 87.4539 175.546 87.1953 175.366 86.9267C176.617 86.2246 177.706 85.2692 178.563 84.122L178.592 84.2016ZM188.783 34.254C191.919 37.2974 190.271 42.2106 190.061 45.9402C189.841 49.9185 191.39 53.688 191.38 57.6464C191.415 59.4469 190.97 61.2245 190.091 62.7983C188.982 64.6681 187.664 64.7875 185.915 65.782C185.686 65.9143 185.471 66.0711 185.276 66.2495C186.185 63.1663 188.183 60.4909 188.493 57.2983C188.693 54.6187 188.091 51.9401 186.764 49.6003C186.921 48.3083 186.85 46.999 186.555 45.7314L187.714 35.3977L187.903 33.6672C188.21 33.7998 188.499 33.9702 188.763 34.1744L188.783 34.254ZM169.701 22.1002C171.839 21.8019 173.008 20.7675 174.836 19.763C177.833 18.1518 181.15 20.0216 183.897 21.225C186.365 22.2992 189.502 23.7413 188.663 26.725C185.855 23.1147 180.67 19.3552 176.055 20.7576C173.927 21.4239 173.308 22.6473 173.517 24.0198C170.212 22.9797 166.681 22.873 163.317 23.7115C165.016 22.2892 167.483 22.3986 169.701 22.1002ZM160.76 26.2277C162.677 24.8865 164.983 24.2087 167.324 24.2983C165.685 25.0044 164.426 26.4167 164.806 28.0478C164.908 28.4378 165.088 28.8032 165.336 29.122C164.618 29.7714 163.996 30.518 163.487 31.3399C163.161 30.7027 162.701 30.1429 162.139 29.6988C161.146 28.9572 159.933 28.5685 158.692 28.5948C159.212 27.6709 159.92 26.8648 160.77 26.2277H160.76ZM157.493 30.952L157.733 30.7332C157.897 30.5223 158.103 30.3465 158.337 30.2163C158.571 30.0862 158.829 30.0043 159.096 29.9755C159.362 29.9467 159.632 29.9717 159.889 30.0489C160.146 30.1261 160.384 30.2539 160.59 30.4249C161.072 30.7225 161.488 31.1137 161.814 31.5751C162.14 32.0365 162.369 32.5586 162.488 33.1102C162.488 33.1798 162.488 33.2594 162.538 33.329C162.162 34.3559 162.015 35.4523 162.109 36.5415C161.502 37.0685 160.965 37.67 160.51 38.3317C159.706 37.9652 158.826 37.7948 157.943 37.8344C158.167 37.3213 158.283 36.7678 158.283 36.2083C158.283 35.6488 158.167 35.0953 157.943 34.5822C157.743 34.0252 157.463 33.4881 157.283 32.9212C157.203 32.6626 157.134 32.4637 157.094 32.2847L157.493 30.952ZM156.764 39.7838C157.054 39.3164 157.303 38.9086 157.513 38.5306C158.421 38.3879 159.351 38.5341 160.171 38.9484C160.168 39.0014 160.168 39.0545 160.171 39.1075C160.144 39.3938 160.202 39.6817 160.336 39.936C160.471 40.1903 160.677 40.4 160.93 40.5397C161.337 40.8536 161.76 41.1457 162.199 41.4149C162.305 41.7403 162.388 42.0726 162.448 42.4095C160.288 42.1636 158.1 42.2949 155.985 42.7974C155.947 41.7323 156.236 40.681 156.814 39.7838H156.764ZM153.317 41.9818C153.726 40.8046 154.554 39.8173 155.645 39.207C154.953 40.4172 154.607 41.7932 154.646 43.1853C154.122 43.3686 153.614 43.5948 153.127 43.8616C153.089 43.2256 153.17 42.5881 153.367 41.9818H153.317ZM155.195 60.8788C155.774 59.8898 156.211 58.8253 156.494 57.716C156.914 54.2648 152.898 52.226 151.969 49.1527C151.784 48.5807 151.758 47.9694 151.896 47.3842C152.033 46.799 152.327 46.2621 152.748 45.8308C152.892 46.242 153.069 46.6411 153.277 47.0243C154.326 48.9339 156.145 50.1871 157.453 51.9276C159.032 54.0361 158.782 56.433 157.923 58.6808C157.726 58.9069 157.595 59.1819 157.543 59.4764C157.543 59.5262 157.543 59.5759 157.543 59.6256C157.383 59.9837 157.203 60.3318 157.024 60.6799C156.524 61.6744 155.945 62.5994 155.395 63.594C155.121 63.1936 154.962 62.7261 154.936 62.2423C154.909 61.7584 155.016 61.2766 155.245 60.8489L155.195 60.8788ZM155.935 72.943C155.372 72.3526 154.945 71.6464 154.686 70.8743C154.24 69.1853 154.428 67.3923 155.215 65.8318C155.693 66.3903 155.973 67.0888 156.015 67.8209C156.135 69.5018 155.975 71.2124 155.985 72.9132L155.935 72.943ZM156.055 64.5985L155.885 64.3797L156.025 64.1012C156.584 63.037 157.213 61.9728 157.773 60.8987C158.735 62.2656 160.06 63.3398 161.599 64.0018C160.751 64.4256 160.005 65.0259 159.411 65.7621C157.853 67.7513 159.241 69.999 160.55 71.7296C159.849 72.284 159.311 73.0156 158.992 73.8481C158.923 74.0433 158.866 74.2426 158.822 74.4448C158.289 74.352 157.776 74.1704 157.303 73.9077C157.303 72.1274 157.363 70.367 157.403 68.726C157.541 67.2236 157.074 65.7282 156.105 64.5687L156.055 64.5985ZM160.051 84.5696C159.698 84.1764 159.39 83.7462 159.132 83.2866C157.847 80.6609 157.197 77.7728 157.233 74.8526C157.673 75.046 158.137 75.1798 158.612 75.2504C158.552 76.0245 158.652 76.8026 158.906 77.5366C159.161 78.2705 159.564 78.9447 160.091 79.5171C160.387 79.8418 160.723 80.129 161.09 80.3725C160.859 80.9643 160.662 81.5686 160.5 82.1826C160.317 82.9608 160.197 83.7524 160.141 84.5497L160.051 84.5696ZM164.167 88.8662C163.508 88.9011 162.856 88.7274 162.303 88.37C161.75 88.0126 161.325 87.4899 161.09 86.877C161.553 87.116 162.042 87.2996 162.548 87.424C164.057 87.7821 165.545 87.7721 166.944 88.1003C166.135 88.5916 165.204 88.8498 164.257 88.8463L164.167 88.8662ZM168.163 87.245C167.695 87.0516 167.21 86.9018 166.714 86.7974C165.276 86.4991 163.717 86.6781 162.378 86.1808C161.789 85.9639 161.242 85.6477 160.76 85.2459C160.76 85.2459 160.76 85.2459 160.76 85.1962C160.76 83.6475 161.051 82.1125 161.619 80.6708C162.84 81.2253 164.148 81.5651 165.485 81.6754C165.645 82.0831 165.795 82.4909 165.965 82.8788C166.466 84.4359 167.328 85.8534 168.482 87.0163L168.163 87.245ZM167.164 82.6202C167.074 82.4014 166.984 82.1727 166.904 81.9539C167.324 82.0135 167.743 82.0832 168.153 82.1627C169.232 82.344 170.257 82.7656 171.15 83.396C170.53 84.2513 169.981 85.1465 169.322 85.9819C168.387 85.0301 167.692 83.8712 167.294 82.6003L167.164 82.6202ZM179.801 93.5606C176.846 92.5487 174.063 91.0931 171.549 89.2441C170.782 88.6599 169.978 88.1251 169.142 87.6428L169.252 87.5235C170.517 88.0715 171.942 88.1283 173.248 87.6826C173.701 87.5656 174.145 87.416 174.576 87.2351C175.056 87.9076 175.601 88.5306 176.205 89.0949C176.82 89.6972 177.551 90.1684 178.355 90.4796C179.159 90.7909 180.018 90.9356 180.88 90.905C180.808 91.9974 181.069 93.086 181.63 94.028C181.056 93.9226 180.488 93.7831 179.931 93.6103L179.801 93.5606ZM182.489 93.9087C181.835 92.9654 181.522 91.8295 181.6 90.6862C181.865 90.5942 182.119 90.4742 182.359 90.3282C182.885 90.0212 183.344 89.6119 183.707 89.1248C184.307 90.1193 185.056 91.3128 184.706 92.4964C184.62 92.9702 184.364 93.3967 183.985 93.6967C183.607 93.9966 183.132 94.1497 182.649 94.1275C182.738 94.0678 182.678 94.0081 182.619 93.9286L182.489 93.9087ZM188.483 91.9195C188.143 92.9141 187.564 94.6645 186.485 95.1121C186.06 95.2999 185.6 95.3927 185.136 95.3841C184.671 95.3755 184.214 95.2657 183.797 95.0624C185.156 94.7839 186.045 93.849 185.935 91.8201C185.838 90.8748 185.52 89.9654 185.006 89.1645C184.766 88.7369 184.487 88.3191 184.237 87.8915C184.326 86.8834 184.073 85.8747 183.518 85.0271C183.784 84.0694 184.313 83.2048 185.046 82.5307C185.549 82.0552 186.022 81.5504 186.465 81.0189C187.568 82.1957 188.479 83.5383 189.162 84.9973C189.991 87.2947 189.382 89.6917 188.623 91.9096L188.483 91.9195Z" fill="white"/>
<path d="M122.398 112C119.363 111.878 116.459 110.739 114.156 108.768C114.063 108.685 114.007 108.568 114.001 108.444C113.994 108.32 114.037 108.199 114.121 108.106C114.204 108.014 114.321 107.958 114.446 107.952C114.57 107.945 114.692 107.988 114.785 108.071C114.785 108.071 118.941 111.741 123.876 110.936C123.999 110.916 124.125 110.946 124.227 111.019C124.328 111.091 124.396 111.201 124.416 111.324C124.436 111.446 124.406 111.572 124.333 111.673C124.26 111.773 124.149 111.841 124.026 111.861C123.488 111.951 122.943 111.997 122.398 112V112Z" fill="white"/>
<path d="M228.164 65.424C228.148 65.3486 228.108 65.2803 228.051 65.2285C227.993 65.1768 227.921 65.1443 227.844 65.1356C227.1 64.9379 226.321 64.9013 225.561 65.0282C224.801 65.1552 224.078 65.4427 223.439 65.8715C224.124 63.9409 224.124 61.8347 223.439 59.9041C223.109 58.7205 222.749 57.5967 222.52 56.4629C222.536 55.4104 222.687 54.3642 222.969 53.3498C224.278 49.3715 228.963 46.5071 227.385 42.0017C226.666 40.3358 225.628 38.8256 224.328 37.556C222.862 35.9127 221.585 34.1113 220.521 32.1852C220.22 30.7918 219.527 29.5122 218.523 28.4954C216.975 25.8001 214.857 23.2539 211.48 22.5279C209.342 20.131 205.486 19.6735 202.319 20.0813H202.08C201.604 19.3717 201.066 18.706 200.471 18.0921C199.043 16.7096 196.865 15.536 194.837 16.1825C193.873 16.6062 193.049 17.2922 192.459 18.1617C191.331 19.3657 189.93 20.2831 188.373 20.8371C187.516 21.1266 186.795 21.7183 186.346 22.5007C185.897 23.283 185.751 24.2019 185.935 25.084C186.213 26.4374 186.413 27.8055 186.535 29.1816C185.599 30.8703 185.198 32.8017 185.386 34.7214C185.386 34.7811 185.386 34.8408 185.386 34.9004C185.066 37.8245 186.215 40.5795 187.384 43.1753L187.524 43.4836C186.967 44.1963 186.447 44.9365 185.965 45.7015C183.072 50.6318 179.015 54.7862 174.147 57.8055C170.87 59.7947 168.822 62.3408 170.521 65.971C172.129 69.4222 176.405 70.7848 180.331 70.5659L180.95 70.5063C180.802 71.1338 180.871 71.7928 181.147 72.3762C181.423 72.9595 181.888 73.4327 182.469 73.7188C183.468 74.2359 184.607 74.0171 185.466 74.4846C185.238 75.2723 185.173 76.098 185.276 76.9113C185.412 77.8742 185.805 78.783 186.415 79.5424C187.025 80.3019 187.829 80.884 188.743 81.2278C189.062 81.4963 189.412 81.745 189.742 81.9837C188.213 84.6989 187.584 87.4041 189.792 90.0596C190.077 90.401 190.395 90.7141 190.741 90.9945C190.667 91.1924 190.607 91.3951 190.561 91.6012C190.436 92.0233 190.409 92.4684 190.483 92.9023C190.557 93.3361 190.73 93.7474 190.989 94.1045C191.247 94.4616 191.584 94.7551 191.974 94.9625C192.364 95.1699 192.796 95.2857 193.238 95.3011C196.425 95.679 200.231 94.5352 203.129 93.4313C206.336 92.2096 209.322 90.4763 211.97 88.2992C212.399 87.9511 211.79 87.3047 211.36 87.6926C206.795 91.3824 200.371 94.4855 194.377 94.3662C191.5 94.3164 191.19 93.103 191.66 91.6211C192.825 92.251 194.111 92.6289 195.433 92.73C196.755 92.8311 198.084 92.6532 199.332 92.2079C201.48 91.4719 202.729 90.0696 204.397 88.7468C207.115 86.5985 209.912 87.5334 213.129 87.1555C217.125 86.688 219.612 83.6148 220.581 80.3426C221.71 76.5334 219.922 64.7278 227.385 65.9014C230.652 68.1193 233.269 70.556 234.378 74.2956C235.607 78.5822 233.928 82.3616 231.541 86.0416C227.345 92.5063 223.918 99.9656 226.596 107.514C226.725 107.873 227.405 107.833 227.365 107.425C226.875 102.571 226.775 97.9267 228.723 93.2821C230.492 89.085 233.948 85.594 235.407 81.2875C237.325 75.7079 234.508 67.8408 228.164 65.424ZM222.819 51.5994C222.679 51.848 222.569 52.1066 222.47 52.3652V52.3155C222.659 51.48 222.879 50.6744 223.009 49.8788C223.648 49.3715 224.328 48.8146 224.947 48.2377C224.258 49.3317 223.429 50.4258 222.819 51.6093V51.5994ZM225.427 46.8652C224.779 47.727 223.992 48.4764 223.099 49.0831C223.178 48.2243 223.041 47.3594 222.699 46.5668C222.24 45.5126 221.7 44.5777 221.301 43.5831C221.753 43.1674 222.308 42.879 222.909 42.7476C225.806 42.1509 226.675 45.0451 225.427 46.8652ZM220.831 34.5722C221.201 35.1704 221.608 35.7451 222.05 36.2928C223.189 37.6753 224.518 38.9484 225.527 40.4203C226.168 41.2946 226.558 42.326 226.655 43.4041C226.396 43.0781 226.086 42.796 225.736 42.5686C224.999 42.1701 224.16 41.9954 223.324 42.0661C222.488 42.1368 221.691 42.4498 221.031 42.9665C220.703 42.1279 220.521 41.2401 220.492 40.3408C220.432 38.4113 220.871 36.4918 220.841 34.5722H220.831ZM221.95 49.9484C221.451 50.3241 220.983 50.7399 220.551 51.1916C220.1 49.6687 219.895 48.0842 219.942 46.4972C219.996 45.8844 220.166 45.2873 220.442 44.7368C221.431 46.6563 222.17 47.9194 221.96 49.9484H221.95ZM221.321 55.4384C221.397 55.9514 221.504 56.4595 221.64 56.9601C221.58 58.8498 221.441 60.9384 219.922 62.2016C219.869 60.9652 219.742 59.7331 219.542 58.5117C219.881 58.037 220.178 57.5346 220.432 57.0099C221.095 55.363 221.186 53.5426 220.691 51.8381C220.726 51.8213 220.756 51.7976 220.781 51.7685C221.091 51.4366 221.425 51.1275 221.78 50.8435C221.78 50.8435 221.78 50.9131 221.78 50.943C221.355 52.4014 221.206 53.9258 221.341 55.4384H221.321ZM220.072 43.961C219.375 45.121 219.08 46.4769 219.233 47.82C219.443 50.6147 220.991 53.3598 220.012 56.1645C219.837 56.6387 219.616 57.095 219.353 57.5271C219.173 56.5325 218.963 55.6274 218.703 54.7124C218.347 53.2648 217.893 51.8427 217.345 50.4556C216.687 48.6767 216.461 46.7683 216.685 44.886C217.055 42.688 218.513 40.9077 219.413 38.9185C219.251 40.6289 219.484 42.3534 220.092 43.961H220.072ZM216.605 69.9294C215.666 70.924 215.796 72.207 215.796 73.4502C215.626 73.5895 215.446 73.7287 215.257 73.848L214.977 74.0072L215.047 73.8779C215.575 72.7843 215.689 71.5374 215.367 70.367C215.723 69.6376 215.94 68.8483 216.006 68.0397C216.106 66.8661 216.126 65.7721 216.286 64.6979C216.771 64.2591 217.204 63.765 217.574 63.226C217.764 63.2375 217.954 63.2375 218.144 63.226C218.14 63.2924 218.153 63.3586 218.181 63.4189C218.209 63.4792 218.252 63.5318 218.305 63.572C218.358 63.6122 218.421 63.6388 218.487 63.6496C218.552 63.6604 218.62 63.6549 218.683 63.6338C218.833 63.6338 218.963 63.5343 219.093 63.4846C219.149 65.2243 218.971 66.9637 218.563 68.6564C217.826 68.929 217.16 69.3642 216.615 69.9294H216.605ZM218.304 69.5316C218.092 70.2211 217.811 70.8875 217.464 71.5207C217.184 71.9953 216.848 72.4359 216.465 72.8336C216.465 72.6943 216.465 72.5551 216.465 72.4159C216.45 71.8066 216.618 71.2067 216.947 70.6929C217.277 70.1791 217.752 69.7748 218.314 69.5316H218.304ZM211.95 79.5569C210.671 80.2321 209.241 80.5742 207.794 80.5515C207.852 79.8324 207.805 79.1088 207.654 78.4032C208.928 78.2873 210.173 77.9507 211.331 77.4086C211.423 78.1538 211.635 78.8793 211.96 79.5569H211.95ZM206.126 78.9602C206.126 79.3083 206.126 79.7061 206.206 80.1238V80.3327C205.936 80.273 205.666 80.2133 205.396 80.1338C203.657 79.6282 202.096 78.646 200.891 77.2992C201.55 76.6229 202.359 77.4683 203.208 77.7866C204.148 78.1327 205.135 78.3372 206.136 78.3933C206.116 78.5723 206.126 78.7712 206.136 78.9602H206.126ZM198.683 86.6482C198.026 85.9544 197.564 85.1001 197.344 84.1718C197.344 83.9828 197.284 83.7938 197.254 83.6048C197.705 83.7454 198.191 83.7227 198.626 83.5406C199.061 83.3586 199.418 83.029 199.632 82.6103C200.471 81.3969 200.052 79.9647 200.261 78.632C201.761 80.2076 203.749 81.2371 205.906 81.556C205.779 82.2282 205.612 82.8925 205.406 83.5452C205.326 83.7839 205.226 84.0325 205.127 84.2812C204.267 85.0856 203.253 85.7096 202.146 86.1163C201.039 86.5229 199.861 86.7038 198.683 86.6482V86.6482ZM203.498 86.6482C203.198 86.9078 202.862 87.1222 202.499 87.2848C201.896 87.5709 201.224 87.6813 200.561 87.603C201.498 87.4582 202.41 87.1802 203.268 86.7775L203.498 86.6482ZM189.062 80.452C187.144 78.7016 188.063 76.4737 186.894 74.584C186.772 74.3898 186.616 74.2182 186.435 74.0768C186.485 73.9475 186.545 73.8083 186.605 73.679C186.894 74.4106 187.395 75.0405 188.043 75.4891C188.913 75.9674 189.725 76.5449 190.461 77.2097C191.46 78.5126 191.02 79.7558 190.341 80.9792C190.026 80.9327 189.715 80.8595 189.412 80.7604L189.062 80.452ZM184.627 65.8815C185.737 66.1491 186.755 66.709 187.574 67.5027L184.886 68.3779C183.995 68.6607 183.084 68.8735 182.159 69.0144C182.683 67.8274 183.391 66.7298 184.257 65.7621L184.627 65.8815ZM187.334 66.3092C186.534 65.8267 185.679 65.4427 184.787 65.1654C185.276 64.6184 185.786 64.1111 186.145 63.6934L186.815 62.9475H186.894C188.213 62.9475 189.622 62.858 191.01 62.8978C190.697 64.3068 190.196 65.6681 189.522 66.9457L188.393 67.264C188.092 66.8926 187.735 66.5704 187.334 66.3092V66.3092ZM187.394 29.5098C188.118 28.2092 189.232 27.166 190.581 26.5261C191.848 25.9136 193.251 25.6329 194.657 25.7106C189.592 29.5098 188.932 35.5768 189.432 41.3254L188.902 41.8326C188.077 40.2639 187.356 38.6425 186.745 36.9791C186.494 36.1244 186.346 35.2429 186.305 34.3534C186.747 32.7709 187.11 31.1677 187.394 29.5496V29.5098ZM211.161 23.1843C211.82 24.0395 212.172 25.0902 212.16 26.1681C212.173 26.3634 212.173 26.5595 212.16 26.7549C211.722 26.746 211.284 26.7095 210.851 26.6455C209.626 26.4142 208.432 26.0403 207.294 25.5315C207.072 25.1529 206.785 24.8162 206.445 24.537V24.537C207.085 23.9389 207.859 23.5024 208.703 23.2639C209.512 23.0894 210.347 23.0759 211.161 23.2241V23.1843ZM211.311 35.9249V36.0541C210.245 35.3845 209.444 34.3692 209.043 33.1798C208.663 31.6183 208.783 29.8778 207.414 28.6744L207.284 28.5749C207.555 28.0891 207.686 27.5386 207.664 26.9836C208.994 27.5236 210.399 27.859 211.83 27.9782C211.354 29.0845 210.973 30.229 210.691 31.3995C210.542 32.9354 210.754 34.4847 211.311 35.9249V35.9249ZM213.748 74.5343L213.149 74.7034C213.568 74.584 212.22 74.8426 212.15 74.8625C211.892 75.0622 211.683 75.3169 211.538 75.6078C211.393 75.8988 211.315 76.2185 211.311 76.5433C210.267 77.1165 209.119 77.475 207.934 77.5976C208.745 76.4543 209.761 75.4697 210.931 74.6934C212.327 73.8102 213.578 72.7164 214.637 71.4511C214.749 72.5543 214.43 73.658 213.748 74.5343V74.5343ZM200.271 76.5235C200.031 76.2062 199.81 75.874 199.612 75.5289C200.893 75.0764 202.272 74.97 203.608 75.2206C203.694 75.2436 203.786 75.234 203.865 75.1935C203.945 75.1531 204.006 75.0848 204.038 75.0018C204.372 73.5937 204.404 72.131 204.13 70.71C203.856 69.2889 203.283 67.9417 202.449 66.7567C201.535 65.5374 200.972 64.0933 200.821 62.5795C201.904 63.5606 203.052 64.4678 204.257 65.2947C205.128 67.6056 205.65 70.0322 205.806 72.4954C205.532 73.3232 205.557 74.22 205.876 75.0316L205.996 75.3698C205.996 76.1356 206.066 76.8914 206.096 77.6473C204.407 77.4949 202.789 76.9051 201.4 75.9367C201.338 75.8999 201.268 75.8804 201.195 75.8804C201.123 75.8804 201.053 75.8999 200.991 75.9367C200.719 76.1059 200.476 76.3174 200.271 76.5632V76.5235ZM195.886 81.6754C195.451 81.2187 195.112 80.6814 194.887 80.094C195.039 79.9396 195.182 79.7769 195.316 79.6066C195.948 78.6198 196.664 77.6882 197.454 76.8218C197.294 78.6021 196.695 80.3227 196.555 82.0831C196.308 81.9903 196.081 81.852 195.886 81.6754V81.6754ZM189.212 42.6681L189.522 42.3598C189.592 43.0162 189.672 43.6726 189.762 44.3489C189.612 43.8616 189.462 43.3543 189.282 42.8769L189.212 42.6681ZM208.953 35.0397C209.419 35.6375 210 36.1378 210.661 36.5117C211.109 36.8167 211.524 37.1666 211.9 37.556V37.6256L211.84 37.7051C211.198 38.3395 210.398 38.7925 209.522 39.018C208.913 36.5713 206.285 34.7811 203.788 33.7965C203.343 33.6184 202.881 33.4851 202.409 33.3986C202.258 31.8071 201.588 30.3086 200.501 29.1319L200.711 29.0324C201.35 29.6656 202.146 30.1186 203.019 30.3453C203.691 30.5266 204.4 30.5195 205.068 30.3247C205.736 30.1299 206.337 29.7549 206.805 29.2413C208.443 30.6934 207.784 33.2793 208.953 35.0596V35.0397ZM213.438 51.0424C213.568 50.6545 213.698 50.2766 213.808 49.8987C213.918 49.5207 213.928 49.4113 213.998 49.1726C214.594 50.1665 214.887 51.3116 214.841 52.4683C214.794 53.625 214.411 54.7433 213.738 55.6871L213.638 55.8164C213.744 54.2225 213.677 52.622 213.438 51.0424V51.0424ZM212.959 52.8327C213.039 54.0361 212.959 55.3191 212.889 56.5921C212.442 56.9285 211.947 57.1966 211.42 57.3878C211.81 55.748 212.31 54.1364 212.919 52.5641C212.939 52.6138 212.949 52.7034 212.959 52.8327ZM212.27 64.4394L212.07 64.0515C211.632 63.1798 211.342 62.2423 211.211 61.2766C211.956 62.1461 212.335 63.2684 212.27 64.4095V64.4394ZM204.757 64.2902C204.465 63.6493 204.131 63.0281 203.758 62.4303C203.276 61.6623 202.742 60.9279 202.159 60.2323C202.304 60.1348 202.454 60.0452 202.609 59.9638C203.171 59.6773 203.769 59.4666 204.387 59.3372C204.804 59.5498 205.259 59.675 205.726 59.7052C207.494 59.8643 208.883 59.3471 210.481 60.6003C210.54 61.9229 210.881 63.2178 211.48 64.3996C211.67 64.7775 211.87 65.1455 212.09 65.5234C212.09 65.5931 212.09 65.6627 212.04 65.7323C210.791 66.0232 209.494 66.0422 208.237 65.7882C206.98 65.5341 205.793 65.013 204.757 64.2603V64.2902ZM211.36 67.0153C210.102 68.7658 207.834 69.7703 206.545 71.2323C206.366 69.4384 205.997 67.6683 205.446 65.9511C207.248 66.9401 209.327 67.3073 211.36 66.9954V67.0153ZM198.373 67.5126L198.193 67.4231C198.146 66.7134 197.957 66.0203 197.636 65.3848C197.315 64.7493 196.869 64.1844 196.325 63.7233C196.699 62.534 196.858 61.288 196.795 60.0433C196.743 59.5472 196.619 59.0612 196.425 58.6012C197.449 59.8708 198.662 60.9776 200.022 61.8833C199.442 64.0017 201.18 65.9312 202.229 67.6916C203.095 69.0354 203.607 70.5746 203.718 72.1672C203.718 72.9131 204.028 74.0967 203.158 74.5244C202.443 74.5737 201.726 74.5737 201.011 74.5244C200.448 74.6082 199.896 74.7481 199.362 74.9421C198.418 72.8167 198.19 70.444 198.713 68.179C198.737 68.0435 198.717 67.9039 198.656 67.7804C198.595 67.657 198.496 67.5562 198.373 67.4927V67.5126ZM192.159 53.141L192.719 52.9719C192.902 53.8893 193.272 54.7594 193.808 55.528C194.987 57.2884 196.225 58.8299 196.105 60.9882C196.048 61.7573 195.921 62.5196 195.726 63.2658C194.67 62.6177 193.475 62.2291 192.239 62.1319C192.648 59.1468 192.621 56.1184 192.159 53.141ZM202.549 34.3435C203.614 34.6237 204.626 35.0738 205.546 35.6762C207.364 36.8001 208.333 38.0135 208.543 39.5849C207.204 40.4862 206.19 41.7893 205.646 43.3046C203.918 42.8968 202.14 42.5587 200.431 42.0912C201.355 40.7855 202.004 39.307 202.339 37.7449C202.56 36.6253 202.63 35.4815 202.549 34.3435V34.3435ZM208.613 40.3109C208.615 40.8426 208.558 41.3729 208.443 41.8923C208.313 42.5587 208.094 43.2549 208.014 43.9511C207.424 43.7621 206.835 43.593 206.225 43.4439C206.225 43.3742 206.225 43.2947 206.305 43.225C206.81 42.0612 207.604 41.0446 208.613 40.2712V40.3109ZM195.916 57.4773C195.941 57.5683 195.971 57.6579 196.006 57.7459C195.216 56.3535 194.007 55.1301 193.488 53.5786C193.398 53.3293 193.328 53.0732 193.278 52.8128L193.568 52.7232C194.417 53.6383 195.326 54.5135 196.245 55.3887C195.902 56.0279 195.786 56.764 195.916 57.4773V57.4773ZM198.813 44.0605C199.162 44.3091 199.522 44.5677 199.892 44.8064C200.131 47.5415 197.974 49.9981 195.376 51.311C194.906 51.5458 194.423 51.7518 193.928 51.9276C193.698 51.669 193.488 51.4005 193.268 51.1319C193.808 48.3471 196.825 46.1093 198.823 44.0605H198.813ZM198.073 42.0713C198.403 42.1907 198.733 42.31 199.073 42.4194V42.499L198.843 42.7675C198.603 42.5587 198.333 42.3299 198.073 42.0813V42.0713ZM194.457 52.4249C197.454 51.3109 199.982 49.5406 200.661 46.4574C200.742 46.0915 200.786 45.7182 200.791 45.3435C203.218 46.8851 206.176 48.8146 205.786 51.5596C205.027 51.48 204.098 51.3308 203.788 51.3507C201.69 51.4524 199.668 52.1648 197.974 53.3996C197.493 53.7669 197.066 54.1987 196.705 54.6826C195.896 53.9466 195.136 53.2006 194.457 52.4249ZM200.641 43.9909C200.541 43.566 200.397 43.1527 200.211 42.7576C201.011 42.9764 201.81 43.1554 202.589 43.2947C203.588 43.4737 204.587 43.6527 205.526 43.8715C205.194 45.0806 205.226 46.3599 205.616 47.5514C205.703 47.7792 205.803 48.0017 205.916 48.2178C204.627 46.4176 202.549 45.2639 200.591 43.9909H200.641ZM201.24 39.2169C200.86 40.1595 200.341 41.0409 199.702 41.8326C198.9 40.6258 197.674 39.7604 196.265 39.4059C196.134 39.0819 196.023 38.7497 195.936 38.4113C196.694 37.2664 197.594 36.2206 198.613 35.2983C199.057 34.9166 199.576 34.631 200.136 34.4598C200.697 34.2886 201.287 34.2354 201.87 34.3037C202.024 35.9716 201.792 37.6525 201.19 39.2169H201.24ZM195.746 37.2277C195.564 35.5391 195.962 33.8389 196.875 32.4041C197.633 31.2634 198.628 30.297 199.792 29.5695C200.684 30.3936 201.31 31.4634 201.59 32.6428C201.65 32.8616 201.69 33.0704 201.73 33.2892C199.053 33.2196 197.294 35.1292 195.696 37.2675L195.746 37.2277ZM194.747 34.98C194.521 36.1163 194.552 37.2883 194.837 38.4113L194.407 38.9882C191.58 36.2133 191 31.31 195.136 29.1717C195.714 28.828 196.369 28.635 197.042 28.6107C197.714 28.5864 198.382 28.7314 198.983 29.0324C197.912 29.7007 196.985 30.5742 196.256 31.602C195.527 32.6298 195.011 33.7916 194.737 35.0198L194.747 34.98ZM190.881 45.075C192.109 43.4339 193.338 41.8028 194.577 40.1717C195.047 40.517 195.541 40.8294 196.055 41.1066C196.663 41.9954 197.389 42.7983 198.213 43.4936C196.075 45.8109 193.578 48.009 192.859 50.5551C192.347 49.9225 191.877 49.2581 191.45 48.5659C191.24 47.4222 191.04 46.2684 190.871 45.1147L190.881 45.075ZM190.721 43.9411C190.641 43.3146 190.561 42.6979 190.501 42.0713C190.501 41.8923 190.501 41.7133 190.501 41.5343C191.085 41.0891 191.727 40.7245 192.409 40.4502C192.797 40.2995 193.198 40.1863 193.608 40.112L190.721 43.9411ZM192.639 51.6193C192.639 51.858 192.639 52.0668 192.639 52.2856L192.069 52.4547C191.976 51.7917 191.88 51.1584 191.78 50.5551C192.049 50.9628 192.329 51.3209 192.629 51.669L192.639 51.6193ZM196.085 64.5488C196.649 65.1894 196.998 65.9889 197.084 66.8363C196.607 66.6598 196.116 66.5234 195.616 66.4285C195.746 65.8715 195.906 65.245 196.075 64.6283L196.085 64.5488ZM197.194 56.8308C197.151 56.6209 197.151 56.4043 197.194 56.1943C198.528 57.4153 199.799 58.7033 201.001 60.0533C200.83 60.2244 200.677 60.4108 200.541 60.6102C199.302 59.6554 197.454 58.4023 197.184 56.9104L197.194 56.8308ZM197.544 55.4086C198.659 54.1088 200.12 53.1501 201.76 52.6437C202.996 52.2555 204.294 52.1037 205.586 52.1961C205.543 52.3378 205.493 52.4772 205.436 52.6138C204.657 54.3444 202.899 55.5976 203.308 57.5867C203.382 57.9455 203.532 58.2845 203.748 58.5813C203.01 58.7511 202.306 59.0472 201.67 59.4565C200.391 58.1536 198.963 56.811 197.534 55.4882L197.544 55.4086ZM201.54 60.6699C201.94 61.1573 202.319 61.6645 202.669 62.1817C202.819 62.4104 202.959 62.6392 203.099 62.8679C202.449 62.301 201.82 61.7242 201.18 61.1573C201.289 61.0239 201.409 60.9007 201.54 60.7893V60.6699ZM210.531 59.6753C210.117 59.4051 209.671 59.1879 209.203 59.0289C208.856 58.9205 208.497 58.857 208.134 58.8399L208.863 58.7603C209.475 58.682 210.077 58.542 210.661 58.3426C210.581 58.8033 210.528 59.2682 210.501 59.735L210.531 59.6753ZM205.197 58.3824C203.688 57.6464 204.477 56.1048 205.316 54.8218C205.876 54.0557 206.339 53.2239 206.695 52.3453L207.294 52.4547C207.504 52.4547 207.804 52.395 207.834 52.1762C207.972 51.1342 207.735 50.077 207.165 49.1925C206.166 47.4222 205.596 45.8507 206.086 43.9909C206.752 44.15 207.418 44.339 208.084 44.5578C208.085 44.8057 208.115 45.0527 208.174 45.2938C208.465 46.2292 209.1 47.021 209.952 47.5117C211.404 48.4068 212.441 49.8367 212.839 51.49C212.037 53.472 211.369 55.5055 210.841 57.5768C208.97 57.9836 207.075 58.2693 205.167 58.4321L205.197 58.3824ZM213.189 50.1473C212.772 48.9457 211.99 47.9029 210.951 47.1636C210.161 46.6439 209.561 45.8831 209.243 44.9954C210.126 45.3742 210.959 45.8621 211.72 46.4475C212.476 47.0378 213.131 47.7465 213.658 48.546C213.512 49.1229 213.362 49.6765 213.209 50.207L213.189 50.1473ZM214.038 46.5967C214.038 46.9249 213.938 47.2531 213.878 47.5912C212.622 46.076 210.974 44.9309 209.113 44.2793C209.08 43.7629 209.117 43.2443 209.223 42.7377C209.432 41.9371 209.586 41.1229 209.682 40.301C209.704 40.0495 209.704 39.7966 209.682 39.5451C209.852 39.4556 210.032 39.3561 210.202 39.2766C211.68 38.6202 211.84 38.9583 212.2 38.282C213.289 40.9872 214.437 43.5831 214.058 46.6563L214.038 46.5967ZM204.377 29.659C203.861 29.7232 203.337 29.6727 202.843 29.511C202.349 29.3493 201.897 29.0806 201.52 28.7241C202.749 28.244 204.099 28.1639 205.376 28.4954C205.646 28.5719 205.907 28.6751 206.156 28.8037C205.67 29.2708 205.047 29.5706 204.377 29.659V29.659ZM200.161 28.4158L199.792 28.5849C198.922 28.0736 197.909 27.8572 196.905 27.9682C192.978 28.2865 190.711 32.2947 191.36 35.5071C191.658 36.9554 192.389 38.2799 193.458 39.3064C192.329 39.5199 191.263 39.9858 190.341 40.669C190.111 36.9891 190.451 33.15 192.509 29.9077C193.459 28.3699 194.768 27.0835 196.325 26.1581L196.645 26.2675C197.784 26.7549 198.643 27.7494 199.882 28.0776L200.161 28.4158ZM190.461 48.556V48.7151L190.341 48.3769L190.461 48.556ZM191.25 53.6979C191.572 56.0385 191.615 58.4087 191.38 60.7594C191.33 61.207 191.26 61.6545 191.17 62.1021C190.071 62.1021 188.723 62.2215 187.494 62.1021C189.592 59.6157 191.1 56.99 191.25 53.688V53.6979ZM186.525 62.0225C185.256 61.7938 184.307 61.2368 184.257 59.9439C184.127 56.4629 187.114 54.4737 190.431 53.5786C190.431 53.7576 190.431 53.9366 190.431 54.1256C190.231 57.3281 188.523 59.735 186.525 62.0126V62.0225ZM191.92 63.6835C191.979 63.4448 192.019 63.2061 192.069 62.9574C192.93 63.0259 193.774 63.2342 194.567 63.5741C194.921 63.7241 195.256 63.9144 195.566 64.141C195.366 64.8969 195.166 65.6428 195.026 66.4086C193.658 66.2618 192.275 66.3357 190.93 66.6274C191.347 65.6782 191.675 64.6927 191.91 63.6835H191.92ZM195.456 67.7513C196.028 67.8834 196.584 68.0768 197.114 68.3282C197.01 69.3436 196.792 70.3444 196.465 71.3119C195.818 70.2573 195.473 69.0468 195.466 67.811L195.456 67.7513ZM196.885 73.5895C197.222 74.2478 197.416 74.9697 197.454 75.7079C197.454 75.8074 197.454 75.9068 197.454 76.0063C196.958 76.357 196.509 76.7679 196.115 77.2296C195.826 77.5678 195.576 77.9258 195.326 78.2839C195.556 77.5976 195.786 76.9511 195.946 76.424C196.235 75.4692 196.575 74.5443 196.895 73.6193L196.885 73.5895ZM198.123 76.235L198.393 76.0759C198.741 76.7491 199.156 77.3856 199.632 77.9755C199.482 78.7314 199.492 79.5569 199.402 80.3924C199.339 80.924 199.07 81.41 198.652 81.7464C198.234 82.0829 197.7 82.243 197.164 82.1925C197.274 80.2332 198.063 78.2739 198.133 76.2649L198.123 76.235ZM214.198 71.2621C212.569 73.4701 209.532 74.4746 207.774 76.603C207.611 76.8056 207.461 77.0182 207.324 77.2396C207.145 76.7522 206.925 76.245 206.715 75.7974C206.715 74.4846 206.715 73.1916 206.615 71.9981V71.8788C207.158 71.1775 207.838 70.5923 208.613 70.1582C210.088 69.379 211.337 68.235 212.24 66.8363L212.749 66.6871C213.549 67.9182 214.164 69.2583 214.577 70.6654C214.468 70.8659 214.344 71.0587 214.208 71.2423L214.198 71.2621ZM213.438 66.4285C214.114 66.172 214.758 65.8383 215.357 65.4339C215.373 66.7674 215.262 68.0994 215.027 69.4122C214.586 68.3732 214.055 67.3747 213.438 66.4285V66.4285ZM213.618 65.1654C213.364 65.2785 213.104 65.3781 212.839 65.4638L212.769 65.3544C212.99 64.4234 212.95 63.45 212.655 62.5399C212.359 61.6298 211.818 60.8179 211.091 60.1925C211.08 59.5267 211.127 58.8612 211.231 58.2034C211.804 57.9629 212.348 57.6558 212.849 57.2884C212.809 58.7112 213.237 60.1081 214.068 61.2667C214.578 61.9068 215.227 62.4236 215.966 62.7784C215.871 62.9894 215.788 63.2051 215.716 63.4249C215.716 63.5741 215.636 63.7332 215.596 63.8824C215.024 64.4118 214.37 64.8452 213.658 65.1654H213.618ZM213.618 56.5921C214.736 55.4914 215.413 54.0227 215.521 52.461C215.63 50.8994 215.163 49.3519 214.208 48.1084C214.423 46.9847 214.5 45.8392 214.437 44.697C214.661 45.8905 214.968 47.067 215.357 48.2178C216.426 51.2015 217.834 54.245 217.924 57.4674C217.948 58.2685 217.878 59.0696 217.714 59.8544C217.151 60.5683 216.646 61.3267 216.206 62.122C214.497 61.0777 213.778 58.5216 213.668 56.5921H213.618ZM215.117 43.8317C214.737 41.9918 214.557 40.0424 213.588 38.3516C213.314 37.9141 212.978 37.5187 212.589 37.178C212.929 36.3227 213.279 35.4673 213.588 34.622L214.118 33.4185C214.857 31.7476 214.328 31.7078 216.545 31.9068C218.294 32.0659 218.324 31.9068 218.793 33.2494C219.018 33.8737 219.153 34.5267 219.193 35.1889C219.22 36.301 218.999 37.4053 218.543 38.4212C217.375 41.1961 215.826 43.2549 215.626 45.9999C215.516 45.2739 215.317 44.5578 215.167 43.8317H215.117ZM206.865 26.6952C206.878 26.8341 206.878 26.974 206.865 27.1129C206.864 27.4836 206.764 27.8474 206.575 28.1672C205.421 27.6245 204.132 27.4309 202.869 27.6102C203.603 27.1427 204.274 26.5846 204.867 25.9493C205.646 26.178 206.275 26.4366 206.915 26.6852L206.865 26.6952ZM203.578 26.0984C202.389 27.093 201.47 27.471 200.141 27.093C199.712 26.4565 199.312 25.7802 198.873 25.1039C200.084 24.8404 201.338 24.8404 202.549 25.1039C203.069 25.2232 203.548 25.3724 204.068 25.5315C203.948 25.7901 203.798 25.9791 203.628 26.0885L203.578 26.0984ZM198.143 25.5813C198.383 25.9194 198.613 26.2675 198.843 26.5758H198.793C198.373 26.367 198.014 25.989 197.604 25.7702L197.314 25.631C197.534 25.5415 197.764 25.452 198.004 25.3823L198.143 25.5813ZM195.646 25.1039C193.651 24.7804 191.604 25.1305 189.832 26.0984C190.87 24.9979 192.098 24.0917 193.458 23.423C194.751 23.2715 196.052 23.6283 197.084 24.4176C196.604 24.6087 196.139 24.8382 195.696 25.1039H195.646ZM188.773 44.697L188.313 43.7024L188.373 43.6229C188.553 43.971 188.683 44.329 188.823 44.6871L188.773 44.697ZM190.461 52.9321C187.863 53.6184 185.466 54.424 184.117 57.1093C182.938 59.4665 183.118 62.2016 185.835 62.8083L185.356 63.3354C185.006 63.7133 184.527 64.2504 184.017 64.8869C180.97 63.8923 178.023 62.8978 180.491 58.9891C182.489 55.8462 185.046 52.8923 187.294 49.8887L189.232 47.3128C189.949 49.1058 190.365 51.0045 190.461 52.9321V52.9321ZM188.902 70.1681C188.942 70.054 188.975 69.9378 189.002 69.82C189.402 69.2233 189.832 68.6365 190.161 68.0596L190.211 67.9602C191.719 67.5608 193.289 67.4561 194.837 67.6518C194.766 68.3685 194.82 69.0918 194.997 69.7902C195.277 70.6659 195.677 71.4992 196.185 72.2667C195.526 74.1763 194.867 76.0759 194.297 78.0054C194.3 76.6484 194.54 75.3023 195.006 74.0271C196.006 70.2377 191.86 69.5018 188.813 70.3074C188.813 70.2875 188.853 70.2377 188.873 70.1781L188.902 70.1681ZM188.902 74.6338C188.464 74.2884 188.147 73.8136 187.996 73.2776C187.845 72.7416 187.869 72.1719 188.063 71.65C188.981 71.0799 190.05 70.7991 191.13 70.8444C192.839 70.9339 194.367 71.6202 194.127 73.8282C194.012 74.2682 193.858 74.6975 193.668 75.1112C193.194 76.6494 193.229 78.2985 193.768 79.8155L193.648 80.2432C193.117 80.6415 192.49 80.892 191.83 80.9692C192.041 80.5508 192.205 80.1106 192.319 79.6564C192.968 76.8915 190.641 76.2649 188.863 74.6437L188.902 74.6338ZM191.46 81.6754H191.56C192.206 81.6262 192.837 81.454 193.418 81.1681C193.187 82.013 193.106 82.8914 193.178 83.764L193.088 83.6347C192.556 83.0189 191.937 82.4829 191.25 82.0434L191.46 81.6754ZM194.537 81.2974C195.055 82.0929 195.736 82.7707 196.535 83.2866C196.56 83.8235 196.654 84.3549 196.815 84.868C197.005 85.4508 197.285 86.001 197.644 86.4991C197.103 86.3789 196.582 86.1848 196.095 85.9222C194.457 84.9674 194.217 83.1772 194.527 81.2974H194.537ZM212.23 76.8915C212.948 76.4587 213.592 75.9148 214.138 75.2802C214.682 75.0724 215.213 74.8298 215.726 74.5542C215.57 75.477 215.223 76.3575 214.707 77.1398C214.191 77.9222 213.517 78.5895 212.729 79.0994C212.403 78.4117 212.229 77.662 212.22 76.9014L212.23 76.8915ZM217.994 62.5994C218.398 61.8794 218.698 61.1058 218.883 60.3019C218.963 61.0081 219.013 61.7341 219.053 62.48C218.706 62.5637 218.351 62.607 217.994 62.6093V62.5994ZM218.224 29.8778C218.773 30.6347 219.164 31.4938 219.373 32.4041C218.743 30.7033 217.634 29.4203 215.826 30.0966C214.457 30.5939 214.008 32.6428 213.588 33.6871C213.169 34.7314 212.879 35.8453 212.389 36.8498C211.557 34.9764 211.316 32.8951 211.7 30.8824C211.96 29.8878 212.389 28.9628 212.699 28.018C214.827 28.0578 216.865 28.0677 218.224 29.8878V29.8778ZM216.755 27.3118C215.531 26.916 214.243 26.7573 212.959 26.8444C213.061 26.2074 213.023 25.556 212.849 24.9348C212.704 24.4334 212.496 23.9523 212.23 23.5026C214.09 24.2874 215.668 25.6156 216.755 27.3118V27.3118ZM210.331 22.4285C208.912 22.33 207.501 22.7197 206.335 23.5324C206.112 23.6912 205.898 23.864 205.696 24.0496C204.682 23.2718 203.779 22.3619 203.009 21.3444L202.749 20.9764C205.356 20.7775 208.443 21.0062 210.331 22.4285V22.4285ZM202.709 22.4285C203.342 23.2591 204.073 24.0104 204.887 24.6662L204.677 24.5867C202.576 23.7596 200.268 23.6032 198.073 24.1391C197.873 23.9172 197.652 23.7141 197.414 23.5324C196.821 23.096 196.139 22.7939 195.416 22.6473C196.982 22.099 198.589 21.6733 200.221 21.3742C200.691 21.2847 201.22 21.1952 201.79 21.1256C202.09 21.5433 202.449 22.0008 202.719 22.3887L202.709 22.4285ZM186.864 25.5514C186.741 25.0067 186.728 24.443 186.826 23.8932C186.924 23.3433 187.13 22.8184 187.434 22.3489C188.073 21.5632 189.432 21.3543 190.281 20.9963C192.279 20.0912 193.278 17.6445 195.436 17.1373C197.964 16.5505 199.722 18.3805 201.17 20.3001C198.402 20.6468 195.706 21.422 193.178 22.5975C192.29 22.7591 191.452 23.1258 190.732 23.6682C190.012 24.2106 189.43 24.9135 189.032 25.7205C189.007 25.7803 188.995 25.8447 188.996 25.9096C188.997 25.9744 189.011 26.0384 189.039 26.0973C189.066 26.1563 189.105 26.2089 189.154 26.2519C189.203 26.2949 189.26 26.3273 189.322 26.3471C188.738 26.7 188.201 27.1243 187.724 27.6102C187.594 27.7494 187.474 27.8887 187.354 28.0279C187.254 27.1925 187.014 26.3869 186.864 25.5514ZM186.635 39.3064C187.124 40.48 187.634 41.6437 188.083 42.8073L188.003 42.9167C187.458 41.7486 187.001 40.5419 186.635 39.3064V39.3064ZM170.92 63.0469C171.01 60.0632 174.177 58.82 176.515 57.1988C178.407 55.8937 180.164 54.4044 181.759 52.7531C183.321 51.1157 184.713 49.3265 185.915 47.4122C186.565 46.4176 187.204 45.3037 187.913 44.2793C188.246 45.002 188.563 45.7281 188.863 46.4574L186.045 50.2468L181.809 55.9158C180.631 57.4972 178.683 59.377 178.643 61.4059C178.593 63.9321 181.19 64.8372 183.488 65.5334C182.616 66.6328 181.891 67.8396 181.33 69.1238C176.475 69.6708 170.75 68.4574 170.92 63.0469ZM181.909 71.6898C181.783 71.2506 181.746 70.7909 181.799 70.3372C183.91 69.8788 185.988 69.2875 188.023 68.5668C188.044 68.7519 188.044 68.9387 188.023 69.1238C187.497 69.7815 187.051 70.4993 186.695 71.2621C186.633 71.3176 186.586 71.3875 186.558 71.4657C186.53 71.5439 186.522 71.6278 186.535 71.7097C186.459 71.9491 186.409 72.1958 186.385 72.4457C186.124 72.8388 185.9 73.255 185.716 73.6889C184.377 73.1419 182.469 73.4999 181.939 71.7296L181.909 71.6898ZM186.315 78.0352C185.953 77.1002 185.876 76.0794 186.095 75.1012C186.163 75.1992 186.223 75.3023 186.275 75.4095C186.795 76.5036 186.525 77.8661 186.964 79.0099C186.964 79.1094 187.054 79.1889 187.094 79.2784C186.777 78.9085 186.523 78.4883 186.345 78.0352H186.315ZM191.15 89.9005C190.346 89.1422 189.813 88.1426 189.632 87.0543C189.452 85.966 189.634 84.8488 190.151 83.8734C190.341 83.4954 190.561 83.1175 190.781 82.7495C192.659 84.0922 193.778 85.6139 192.479 87.9511C192.089 88.6573 191.62 89.2938 191.22 89.9403L191.15 89.9005ZM203.238 88.6374C200.241 91.1935 195.686 93.1826 192.099 90.6266C192.599 89.5822 193.278 88.4982 193.608 87.6428C193.88 86.9993 193.993 86.3 193.938 85.6039C194.564 86.3268 195.352 86.8926 196.239 87.2555C197.126 87.6183 198.087 87.7681 199.043 87.6926C199.581 88.0075 200.187 88.1883 200.811 88.2197C201.764 88.2063 202.695 87.9295 203.499 87.4202C204.303 86.9109 204.95 86.1891 205.366 85.3354C205.96 84.7896 206.466 84.1555 206.865 83.4557C207.04 84.1088 207.368 84.711 207.824 85.2126C208.279 85.7141 208.847 86.1006 209.482 86.3399C207.184 86.2943 204.954 87.115 203.238 88.6374ZM207.734 83.4855C207.591 83.1615 207.468 82.8294 207.364 82.4909C207.453 82.2595 207.529 82.0238 207.594 81.7848C207.964 81.7848 208.353 81.7848 208.743 81.735C210.043 81.5958 211.301 81.1931 212.439 80.5515C212.549 80.8001 212.649 81.0388 212.739 81.2875C213.195 82.1807 213.281 83.2161 212.979 84.1718C211.76 86.5687 208.663 85.5642 207.734 83.4855ZM220.052 77.518C219.532 81.7549 217.444 85.8924 212.369 86.3499C214.747 85.3553 213.848 82.292 213.089 80.1934C214.393 79.371 215.433 78.1942 216.086 76.8019C216.451 75.9239 216.615 74.976 216.565 74.0271C217.989 72.7291 218.965 71.0165 219.353 69.1338C220.224 68.7533 221.057 68.2904 221.84 67.7513C220.332 70.6555 220.352 75.0216 220.052 77.4683V77.518ZM220.182 68.0696C219.952 68.1889 219.712 68.2884 219.463 68.3878C219.817 66.6768 219.988 64.9331 219.972 63.1862C220.657 62.7613 221.229 62.1774 221.637 61.4845C222.046 60.7917 222.28 60.0105 222.32 59.2079C223.349 62.5397 224.228 65.9909 220.182 68.0198V68.0696Z" fill="#7F3F98"/>
</g>
<defs>
<clipPath id="clip0_24:79">
<rect width="350" height="200" fill="white"/>
</clipPath>
</defs>
</svg>
