<svg width="171" height="224" viewBox="0 0 171 224" fill="none" xmlns="http://www.w3.org/2000/svg">
<rect x="24" width="44" height="44" rx="18" fill="#2BA6F0"/>
<rect x="46" y="3" width="34" height="41" rx="17" fill="#9E4D2B"/>
<rect x="55" width="60" height="44" rx="18" fill="#2BA6F0"/>
<rect x="92" y="3" width="34" height="41" rx="17" fill="#9E4D2B"/>
<rect x="101" width="60" height="44" rx="18" fill="#2BA6F0"/>
<rect x="125" width="36" height="44" rx="18" fill="#1D84C9"/>
<path d="M19 64C19 52.9543 27.9543 44 39 44H141C152.046 44 161 52.9543 161 64V172C161 175.314 158.314 178 155 178H39C27.9543 178 19 169.046 19 158V64Z" fill="#FB4347"/>
<path d="M121 64C121 52.9543 129.954 44 141 44H144C155.046 44 164 52.9543 164 64V128C164 139.046 155.046 148 144 148H121V64Z" fill="#E3272D"/>
<rect x="129" y="81" width="27" height="4" rx="1" fill="white" fill-opacity="0.4"/>
<path d="M129.906 88.4971C129.959 87.6556 130.657 87 131.5 87C132.343 87 133.041 87.6556 133.094 88.4971L133.867 100.875C133.939 102.027 133.025 103 131.871 103H131.129C129.975 103 129.061 102.027 129.133 100.875L129.906 88.4971Z" fill="white" fill-opacity="0.3"/>
<path d="M20.988 59.0523C20.988 57.372 22.0381 55.8709 23.6165 55.2947L31.9578 52.2501C34.0036 51.5034 36.2709 52.5305 37.0585 54.5609L43.6119 71.4536C44.4109 73.5132 43.389 75.8305 41.3294 76.6295L20.9881 84.5208L20.988 59.0523Z" fill="#2BA6F0" stroke="#FDDA37" stroke-width="4"/>
<rect x="57.8083" y="87.8708" width="28" height="20" rx="8" transform="rotate(-38.1548 57.8083 87.8708)" fill="white" stroke="#EF8527" stroke-width="4"/>
<path d="M22.1193 194.279C23.6834 192.415 26.6838 192.748 28.0228 194.78C29.1301 196.46 30.4828 198.244 31.8567 199.404C33.3315 200.648 35.5316 201.781 37.5313 202.658C39.7526 203.633 40.571 206.515 39.0117 208.373C36.4228 211.458 31.999 212.346 28.631 210.137C27.3811 209.317 26.1407 208.438 25.1432 207.596C24.1876 206.79 23.1569 205.766 22.1765 204.721C19.4446 201.809 19.5527 197.337 22.1193 194.279Z" fill="#EF8527"/>
<path d="M86.1071 213.103C83.7108 212.68 82.4993 209.915 83.5893 207.739C84.4908 205.94 85.3595 203.877 85.6767 202.107C86.0171 200.208 85.8978 197.736 85.6579 195.566C85.3914 193.155 87.478 191.005 89.8668 191.426C93.8334 192.126 96.8139 195.513 96.5849 199.534C96.5 201.026 96.3586 202.54 96.1283 203.825C95.9077 205.056 95.5367 206.46 95.1218 207.832C93.9659 211.654 90.0393 213.796 86.1071 213.103Z" fill="#EF8527"/>
<circle cx="16" cy="163" r="16" fill="#6FC12D"/>
<circle cx="29" cy="157" r="22" fill="#FB4347"/>
<ellipse cx="59.541" cy="151.853" rx="46.1007" ry="47.5333" fill="#6FC12D"/>
<path d="M13.4403 103.201C13.4403 93.2193 23.703 86.533 32.8341 90.5662C44.2643 95.6149 57.118 96.4312 69.0951 92.8692L86.3657 87.7328C95.9824 84.8727 105.642 92.0774 105.642 102.11V151.44H13.4403V103.201Z" fill="#6FC12D"/>
<path d="M19.2771 101.957C16.8718 102.377 16.8718 109.81 16.8718 109.81L34.5103 142.05L48.1401 146.184V116.01C36.9156 115.597 30.9025 99.4769 27.2946 98.6502C23.6867 97.4103 25.2902 106.442 24.0876 106.504C21.5423 106.634 22.4841 101.544 19.2771 101.957Z" fill="#85DC33"/>
<path d="M77.0031 101.957C79.4084 102.377 79.4084 109.81 79.4084 109.81L61.7699 142.05L48.1401 146.184V116.01C59.3646 115.597 65.3777 99.4769 68.9856 98.6502C72.5935 97.4103 70.99 106.442 72.1926 106.504C74.7379 106.634 73.7961 101.544 77.0031 101.957Z" fill="#85DC33"/>
<rect x="13" y="108" width="31" height="49" rx="15.5" fill="#85DC33"/>
<rect x="52.9506" y="108.453" width="36.0788" height="49.6" rx="18.0394" fill="#85DC33"/>
<rect x="17" y="115" width="22" height="36" rx="11" fill="white"/>
<rect x="17" y="115" width="22" height="36" rx="11" fill="white"/>
<rect x="17" y="115" width="22" height="36" rx="11" fill="white"/>
<rect x="55.7611" y="115.067" width="26" height="36" rx="13" fill="white"/>
<rect x="55.7611" y="115.067" width="26" height="36" rx="13" fill="white"/>
<rect x="55.7611" y="115.067" width="26" height="36" rx="13" fill="white"/>
<path fill-rule="evenodd" clip-rule="evenodd" d="M68.3359 121.853C68.0619 121.775 67.7727 121.734 67.4739 121.734C65.7298 121.734 64.316 123.147 64.316 124.891V127.244C64.316 128.988 65.7298 130.402 67.4739 130.402C68.5068 130.402 69.4238 129.906 70 129.139V135.67C70 138.984 67.3137 141.67 64 141.67C60.6863 141.67 58 138.984 58 135.67V126C58 122.686 60.6863 120 64 120C65.7048 120 67.2435 120.711 68.3359 121.853Z" fill="white"/>
<path fill-rule="evenodd" clip-rule="evenodd" d="M68.3359 121.853C68.0619 121.775 67.7727 121.734 67.4739 121.734C65.7298 121.734 64.316 123.147 64.316 124.891V127.244C64.316 128.988 65.7298 130.402 67.4739 130.402C68.5068 130.402 69.4238 129.906 70 129.139V135.67C70 138.984 67.3137 141.67 64 141.67C60.6863 141.67 58 138.984 58 135.67V126C58 122.686 60.6863 120 64 120C65.7048 120 67.2435 120.711 68.3359 121.853Z" fill="white"/>
<path fill-rule="evenodd" clip-rule="evenodd" d="M68.3359 121.853C68.0619 121.775 67.7727 121.734 67.4739 121.734C65.7298 121.734 64.316 123.147 64.316 124.891V127.244C64.316 128.988 65.7298 130.402 67.4739 130.402C68.5068 130.402 69.4238 129.906 70 129.139V135.67C70 138.984 67.3137 141.67 64 141.67C60.6863 141.67 58 138.984 58 135.67V126C58 122.686 60.6863 120 64 120C65.7048 120 67.2435 120.711 68.3359 121.853Z" fill="#353535"/>
<path fill-rule="evenodd" clip-rule="evenodd" d="M31.3359 121.853C31.0619 121.775 30.7727 121.734 30.4739 121.734C28.7298 121.734 27.316 123.147 27.316 124.891V127.244C27.316 128.988 28.7298 130.402 30.4739 130.402C31.5068 130.402 32.4238 129.906 33 129.139V135.67C33 138.984 30.3137 141.67 27 141.67C23.6863 141.67 21 138.984 21 135.67V126C21 122.686 23.6863 120 27 120C28.7048 120 30.2435 120.711 31.3359 121.853Z" fill="white"/>
<path fill-rule="evenodd" clip-rule="evenodd" d="M31.3359 121.853C31.0619 121.775 30.7727 121.734 30.4739 121.734C28.7298 121.734 27.316 123.147 27.316 124.891V127.244C27.316 128.988 28.7298 130.402 30.4739 130.402C31.5068 130.402 32.4238 129.906 33 129.139V135.67C33 138.984 30.3137 141.67 27 141.67C23.6863 141.67 21 138.984 21 135.67V126C21 122.686 23.6863 120 27 120C28.7048 120 30.2435 120.711 31.3359 121.853Z" fill="white"/>
<path fill-rule="evenodd" clip-rule="evenodd" d="M31.3359 121.853C31.0619 121.775 30.7727 121.734 30.4739 121.734C28.7298 121.734 27.316 123.147 27.316 124.891V127.244C27.316 128.988 28.7298 130.402 30.4739 130.402C31.5068 130.402 32.4238 129.906 33 129.139V135.67C33 138.984 30.3137 141.67 27 141.67C23.6863 141.67 21 138.984 21 135.67V126C21 122.686 23.6863 120 27 120C28.7048 120 30.2435 120.711 31.3359 121.853Z" fill="#353535"/>
<path d="M64.7786 167.56C64.7786 170.756 61.7275 173.347 57.9637 173.347C54.2 173.347 51.1489 170.756 51.1489 167.56C51.1489 167.147 54.2 167.147 57.9637 167.147C61.7275 167.147 64.7786 167.147 64.7786 167.56Z" fill="#85DC33"/>
<path d="M43.9331 167.56C43.9331 170.756 40.882 173.347 37.1182 173.347C33.3545 173.347 30.3033 170.756 30.3033 167.56C30.3033 167.147 33.3545 167.147 37.1182 167.147C40.882 167.147 43.9331 167.147 43.9331 167.56Z" fill="#85DC33"/>
<path d="M54.3558 178.307C54.3558 181.503 51.3047 184.093 47.541 184.093C43.7772 184.093 40.7261 181.503 40.7261 178.307C40.7261 177.893 43.7772 177.893 47.541 177.893C51.3047 177.893 54.3558 177.893 54.3558 178.307Z" fill="#85DC33"/>
<path d="M17.4351 143.635C17.4351 143.635 26 143.635 28.4871 144.034C30.9742 144.433 39.221 146.697 39.221 146.697L38.2667 153.487L16.4808 150.425L17.4351 143.635Z" fill="#85DC33"/>
<path d="M80.4259 143.635C80.4259 143.635 71.861 143.635 69.3739 144.034C66.8868 144.433 58.64 146.697 58.64 146.697L59.5944 153.487L81.3803 150.425L80.4259 143.635Z" fill="#85DC33"/>
<rect width="12.0006" height="19.9991" rx="6.00028" transform="matrix(-0.999953 6.19019e-09 -5.58894e-10 1.00005 54 136)" fill="#EF8527"/>
<path d="M51 139.5C51 137.567 49.433 136 47.5 136C45.567 136 44 137.567 44 139.5L44 150.5C44 152.433 45.567 154 47.5 154C49.433 154 51 152.433 51 150.5L51 139.5Z" fill="#AB632D"/>
<path d="M55.6028 143C55.6028 138.582 52.0215 135 47.6036 135L45.4028 135C41.095 135 37.6028 138.493 37.6028 142.801L37.6028 143L43 145L55.6028 143Z" fill="#F9C03E"/>
<path d="M49.8165 138.934C49.8165 138.393 49.48 137.909 48.9729 137.721L48.2801 137.464C46.8714 136.942 45.3221 136.942 43.9134 137.464L43.2205 137.721C42.7134 137.909 42.3769 138.393 42.3769 138.934C42.3769 139.835 43.275 140.46 44.1196 140.146L44.5807 139.975C45.5589 139.613 46.6346 139.613 47.6127 139.975L48.0738 140.146C48.9185 140.46 49.8165 139.835 49.8165 138.934Z" fill="#FDDA37"/>
<path fill-rule="evenodd" clip-rule="evenodd" d="M45.0607 153.01C45.6911 153.623 46.5515 154 47.5 154C49.433 154 51 152.433 51 150.5L51 146.252C47.8601 147.06 45.4661 149.727 45.0607 153.01Z" fill="#FDB2B2"/>
<rect x="11" y="216" width="96" height="8" rx="4" fill="#DEDEDE"/>
<rect x="73" y="142" width="47" height="40" rx="20" fill="#E3272D"/>
<circle cx="98" cy="166" r="20" fill="#6FC12D"/>
<path fill-rule="evenodd" clip-rule="evenodd" d="M149.669 107.381C148.593 107.133 147.519 107.804 147.271 108.88C147.144 109.43 147.257 109.979 147.541 110.418C143.914 111.239 140.891 114.059 139.998 117.926L133.249 147.157C132.007 152.538 135.362 157.908 140.744 159.15L148.539 160.95C153.92 162.192 159.289 158.837 160.532 153.456L167.28 124.224C168.167 120.384 166.712 116.55 163.85 114.217C164.319 113.95 164.678 113.496 164.809 112.929C165.058 111.853 164.387 110.779 163.31 110.53L149.669 107.381Z" fill="#C7F7F5"/>
<path d="M140.14 126.43C140.333 125.592 141.454 125.349 142.024 125.992C143.151 127.263 144.778 128.831 146.182 129.155C149.942 130.023 159.661 124.932 163.903 122.563C164.672 122.133 165.603 122.827 165.405 123.685L158.509 153.553C157.737 156.9 153.896 158.782 152.827 159.247C152.646 159.326 152.447 159.338 152.255 159.293L144.755 157.562L137.851 155.968C137.592 155.908 137.369 155.75 137.237 155.52C136.567 154.359 134.56 150.6 135.124 148.154L140.14 126.43Z" fill="#4AD1FB"/>
<rect x="149.52" y="99.1363" width="18" height="8" rx="2" transform="rotate(13 149.52 99.1363)" fill="#268ECC"/>
<path d="M121 146H159C162.314 146 165 148.686 165 152V172C165 175.314 162.314 178 159 178H123C121.895 178 121 177.105 121 176V146Z" fill="#E3272D"/>
<path d="M153.906 152.497C153.959 151.656 154.657 151 155.5 151C156.343 151 157.041 151.656 157.094 152.497L157.867 164.875C157.939 166.027 157.025 167 155.871 167H155.129C153.975 167 153.061 166.027 153.133 164.875L153.906 152.497Z" fill="white" fill-opacity="0.3"/>
</svg>
