<svg width="200" height="200" viewBox="0 0 200 200" fill="none" xmlns="http://www.w3.org/2000/svg">
<ellipse rx="91.0768" ry="91.107" transform="matrix(0.802233 0.597012 -0.597343 0.801986 99.563 104.44)" fill="#2BA6F0"/>
<path fill-rule="evenodd" clip-rule="evenodd" d="M20.2227 149.256L95.5757 39.9347C109.935 42.2058 130.882 46.9586 144.097 55.4593L149.599 59.9666C167.092 71.2401 169.165 84.608 171.656 100.662C172.529 106.289 173.453 112.247 175.11 118.559L131.741 189.816C103.698 200.387 71.0309 196.891 45.2108 177.645C34.6508 169.774 26.2831 160.049 20.2227 149.256Z" fill="#45B5F3"/>
<path fill-rule="evenodd" clip-rule="evenodd" d="M61.9 171.203C59.4519 174.885 60.45 179.857 64.1293 182.31C67.7312 184.71 72.5674 183.806 75.0661 180.313C75.614 181.077 76.3065 181.757 77.1349 182.31C80.8142 184.762 85.7815 183.766 88.2297 180.084L94.8881 170.072C97.3362 166.39 96.3381 161.418 92.6588 158.965C89.0569 156.565 84.2207 157.469 81.722 160.962C81.1741 160.198 80.4816 159.518 79.6532 158.965C75.9739 156.513 71.0066 157.509 68.5584 161.191L61.9 171.203Z" fill="#244982"/>
<rect width="6.00494" height="6.00542" rx="1" transform="matrix(0.695875 -0.718236 0.717355 0.696631 44.5536 166.943)" fill="#70C8F5"/>
<rect width="10.0144" height="10.0058" rx="2" transform="matrix(0.437929 -0.898926 0.898661 0.438814 31.548 74.4777)" fill="#7DCEF6"/>
<path d="M146.279 165.176C139.415 163.463 118.265 131.776 141.271 98.7025C162.28 84.1172 186.875 103.948 177.705 118.812C168.535 133.676 155.001 164.603 146.279 165.176Z" fill="#2858A1"/>
<path fill-rule="evenodd" clip-rule="evenodd" d="M64.4744 59.9253C62.0223 31.8657 82.7809 7.12651 110.84 4.66882L123.353 3.57284C151.412 1.11514 176.146 21.8696 178.598 49.9292L182.361 92.9941C184.205 114.094 172.925 133.316 155.284 142.599C145.89 150.079 133.997 154.548 121.061 154.548C99.8374 154.548 81.4204 142.518 72.2418 124.898C57.5027 130.178 43.6854 127.578 40.9561 124.526C38.3552 118.702 48.8098 103.078 58.0938 89.2033C60.9767 84.895 63.7467 80.7554 65.9779 77.1303L64.4744 59.9253Z" fill="#3066BA"/>
<path d="M116.585 4.37943C125.589 3.3773 126.089 3.37723 136.594 4.37943C174.61 55.9608 150.6 120.062 133.592 133.584C128.154 134.173 119.586 134.085 119.586 132.582C119.586 132.078 134.867 106.164 136.594 76.994C138.295 48.2417 126.517 16.3116 116.585 4.37943Z" fill="white"/>
<path d="M67.2605 89.875C70.9647 92.2833 72.0184 97.2406 69.614 100.947L66.3339 106.004C63.9295 109.711 58.9775 110.763 55.2732 108.355L48.5558 103.988L60.543 85.5076L67.2605 89.875Z" fill="#244982"/>
<path d="M88.5798 53.4859C88.647 60.9315 89.1639 69.6763 90.049 74.911C90.4678 77.388 91.1255 78.6605 91.6677 81.1134C92.3328 84.1223 94.9078 87.5704 97.4904 89.2514C106.957 95.4125 122.827 99.0718 139.062 99.5297C149.248 99.0117 161.449 94.2902 164.307 92.7183C166.214 91.6691 168.935 89.1751 171.721 86.6208L171.928 86.431C179.549 79.0957 179.549 72.8083 179.549 71.2364C179.839 56.8804 179.234 49.7275 178.608 45.9735C178.153 43.2384 177.568 40.5219 176.866 37.8395C174.819 30.0209 169.56 24.3729 163.605 20.4042C154.874 14.5859 144.101 12.8458 139.062 12.554C136.628 12.3074 129.465 12.1302 122.887 13.6767C120.623 14.209 118.358 14.8109 116.117 15.4337C94.3397 21.486 89.6516 44.0041 88.7621 50.2402C88.608 51.3204 88.5699 52.3949 88.5798 53.4859Z" fill="#3066BA"/>
<ellipse rx="43.7204" ry="30.6922" transform="matrix(0.999847 -0.0174726 0.0174322 0.999848 133.605 68.0823)" fill="#53C52D"/>
<path d="M91.0902 48.1848C90.9746 44.7367 91.6523 41.3002 93.3047 38.2712C96.4731 32.4635 102.326 23.0274 107.995 20.7077C110.014 19.8814 112.199 20.7458 114.19 21.6368C114.76 21.8918 115.337 22.1433 115.917 22.3905C125.73 26.5701 136.841 25.4639 146.42 20.7715C159.119 14.5509 173.807 24.3338 172.959 38.4483L170.106 86.0065L92.0723 77.4949L91.0902 48.1848Z" fill="#53C52D"/>
<path d="M103.68 33.3136C100.763 34.185 101.859 43.124 101.859 43.124L128.459 79.2094L145.598 81.5009C145.598 81.5009 142.449 51.9019 141.596 44.943C127.633 46.1548 117.712 28.5614 113.122 28.1165C108.47 27.1747 111.788 37.7915 110.308 38.0489C107.175 38.5938 107.591 32.3284 103.68 33.3136Z" fill="#81DE39"/>
<rect x="149.629" y="32.1075" width="28.5407" height="55.4753" rx="14.271" fill="#81DE39"/>
<rect width="44.7798" height="53.1136" rx="20" transform="matrix(0.990244 -0.139391 0.138956 0.990292 88.5034 43.4016)" fill="#81DE39"/>
<path d="M168.039 24.8971C170.905 24.7777 174.67 42.0973 174.67 42.0973L163.032 72.4207L145.214 81.5124C145.214 81.5124 142.302 51.4979 140.929 45.0323C152.453 40.0205 157.082 23.9693 161.037 22.1624C164.893 19.8939 165.086 29.2234 166.484 28.9981C169.443 28.5213 164.251 25.2203 168.039 24.8971Z" fill="#81DE39"/>
<rect width="25.0123" height="40.0611" rx="12.5062" transform="matrix(0.992482 -0.122021 0.121717 0.99261 148.31 39.4368)" fill="white"/>
<rect width="25.0123" height="40.0611" rx="12.5062" transform="matrix(0.992482 -0.122021 0.121717 0.99261 148.31 39.4368)" fill="white"/>
<rect width="25.0123" height="40.0611" rx="12.5062" transform="matrix(0.992482 -0.122021 0.121717 0.99261 148.31 39.4368)" fill="white"/>
<path fill-rule="evenodd" clip-rule="evenodd" d="M157.129 47.1974C158.47 47.5541 159.525 48.6941 159.704 50.1556L159.949 52.151C160.172 53.9729 158.954 55.6396 157.189 56.0064C157.795 60.0061 161.479 62.8205 165.52 62.3238C169.633 61.8182 172.558 58.0736 172.054 53.9601L171.474 49.2357C170.97 45.1222 167.227 42.1973 163.114 42.7029C160.366 43.0407 158.148 44.8241 157.129 47.1974Z" fill="white"/>
<path fill-rule="evenodd" clip-rule="evenodd" d="M157.129 47.1974C158.47 47.5541 159.525 48.6941 159.704 50.1556L159.949 52.151C160.172 53.9729 158.954 55.6396 157.189 56.0064C157.795 60.0061 161.479 62.8205 165.52 62.3238C169.633 61.8182 172.558 58.0736 172.054 53.9601L171.474 49.2357C170.97 45.1222 167.227 42.1973 163.114 42.7029C160.366 43.0407 158.148 44.8241 157.129 47.1974Z" fill="white"/>
<path fill-rule="evenodd" clip-rule="evenodd" d="M157.129 47.1974C158.47 47.5541 159.525 48.6941 159.704 50.1556L159.949 52.151C160.172 53.9729 158.954 55.6396 157.189 56.0064C157.795 60.0061 161.479 62.8205 165.52 62.3238C169.633 61.8182 172.558 58.0736 172.054 53.9601L171.474 49.2357C170.97 45.1222 167.227 42.1973 163.114 42.7029C160.366 43.0407 158.148 44.8241 157.129 47.1974Z" fill="#353535"/>
<path d="M156.309 75.858L178.571 66.8531C180.604 71.8917 178.169 77.6281 173.131 79.6659L169.113 81.2913C164.075 83.3291 158.342 80.8965 156.309 75.858Z" fill="#81DE39"/>
<rect width="32.0158" height="40.0611" rx="16.0079" transform="matrix(0.992478 -0.122055 0.121684 0.992614 97.9149 45.2298)" fill="white"/>
<rect width="32.0158" height="40.0611" rx="16.0079" transform="matrix(0.992478 -0.122055 0.121684 0.992614 97.9149 45.2298)" fill="white"/>
<rect width="32.0158" height="40.0611" rx="16.0079" transform="matrix(0.992478 -0.122055 0.121684 0.992614 97.9149 45.2298)" fill="white"/>
<path fill-rule="evenodd" clip-rule="evenodd" d="M112.11 52.2079C113.45 52.5647 114.506 53.7047 114.685 55.1662L114.93 57.1616C115.153 58.9834 113.935 60.6502 112.169 61.017C112.776 65.0167 116.46 67.8311 120.501 67.3344C124.614 66.8287 127.539 63.0842 127.035 58.9707L126.455 54.2463C125.951 50.1327 122.207 47.2079 118.094 47.7135C115.347 48.0513 113.129 49.8347 112.11 52.2079Z" fill="white"/>
<path fill-rule="evenodd" clip-rule="evenodd" d="M112.11 52.2079C113.45 52.5647 114.506 53.7047 114.685 55.1662L114.93 57.1616C115.153 58.9834 113.935 60.6502 112.169 61.017C112.776 65.0167 116.46 67.8311 120.501 67.3344C124.614 66.8287 127.539 63.0842 127.035 58.9707L126.455 54.2463C125.951 50.1327 122.207 47.2079 118.094 47.7135C115.347 48.0513 113.129 49.8347 112.11 52.2079Z" fill="white"/>
<path fill-rule="evenodd" clip-rule="evenodd" d="M112.11 52.2079C113.45 52.5647 114.506 53.7047 114.685 55.1662L114.93 57.1616C115.153 58.9834 113.935 60.6502 112.169 61.017C112.776 65.0167 116.46 67.8311 120.501 67.3344C124.614 66.8287 127.539 63.0842 127.035 58.9707L126.455 54.2463C125.951 50.1327 122.207 47.2079 118.094 47.7135C115.347 48.0513 113.129 49.8347 112.11 52.2079Z" fill="#353535"/>
<path d="M101.601 73.7475L129.461 77.6676C128.709 83.0226 123.76 86.7531 118.406 85.9998L109.933 84.8076C104.58 84.0543 100.849 79.1025 101.601 73.7475Z" fill="#81DE39"/>
<rect x="136.593" y="66.4771" width="15.0065" height="25.0397" rx="7.50358" fill="#EF8527"/>
<path d="M138.302 73.437C137.671 69.8027 140.468 66.4771 144.157 66.4771C147.438 66.4771 150.099 69.1377 150.099 72.4198L150.099 84.6231C150.099 87.3241 147.909 89.5136 145.209 89.5136C142.831 89.5136 140.798 87.8031 140.391 85.4602L138.302 73.437Z" fill="#AB632D"/>
<path d="M135.593 75.4917C135.593 69.96 140.077 65.4758 145.608 65.4758L148.065 65.4758C153.333 65.4758 157.603 69.7462 157.603 75.0141L157.603 75.4917L135.593 75.4917Z" fill="#F9C03E"/>
<path d="M142.596 70.2366C142.596 69.5821 143.003 68.9966 143.617 68.7691L144.456 68.4581C146.161 67.826 148.036 67.826 149.741 68.4581L150.579 68.7691C151.193 68.9966 151.6 69.5821 151.6 70.2366C151.6 71.327 150.513 72.0833 149.491 71.7042L148.933 71.4973C147.749 71.0583 146.447 71.0583 145.263 71.4973L144.705 71.7042C143.683 72.0833 142.596 71.327 142.596 70.2366Z" fill="#FDDA37"/>
<path d="M178.049 71.2061L178.049 71.2212V71.2364V71.246C178.049 71.964 178.049 73.7288 177.183 76.1709C176.312 78.625 174.541 81.8298 170.901 85.3377L170.707 85.5151L171.721 86.6208L170.707 85.5151C169.309 86.7973 167.955 88.0383 166.714 89.0898C165.459 90.1543 164.398 90.9564 163.584 91.404C162.284 92.1191 158.629 93.6572 153.991 95.0857C149.386 96.5039 143.948 97.7714 139.045 98.0286C122.958 97.567 107.433 93.9327 98.3087 87.9942C97.2011 87.2733 96.0392 86.1311 95.0745 84.8001C94.1071 83.4654 93.4083 82.0383 93.1323 80.7897C92.8801 79.6489 92.6018 78.7417 92.3489 77.9172C92.3144 77.8048 92.2804 77.694 92.247 77.5842C91.969 76.6715 91.7215 75.8054 91.528 74.6609C90.6626 69.5427 90.1467 60.8903 90.0797 53.4723C90.0702 52.4227 90.1075 51.4301 90.247 50.4521C90.6785 47.427 92.0362 40.4408 95.9159 33.4999C99.782 26.5834 106.114 19.7706 116.518 16.8789C118.749 16.2589 120.993 15.6628 123.23 15.1369C129.602 13.639 136.589 13.8111 138.911 14.0463L138.943 14.0496L138.975 14.0515C143.88 14.3355 154.352 16.0412 162.773 21.6524C168.531 25.4895 173.489 30.8647 175.415 38.2194C176.106 40.8592 176.681 43.5313 177.129 46.22C177.732 49.84 178.338 56.8864 178.049 71.2061Z" stroke="white" stroke-width="3"/>
<path d="M92.0848 53.7525C92.1644 60.7719 92.6991 68.9418 93.6076 73.9001C94.0548 76.341 94.7502 77.5835 95.3421 79.9935C96.0418 82.8424 98.6712 86.0326 101.183 87.5486C111.092 93.5305 127.9 97.0852 145.097 97.5267C155.794 97.0316 168.607 92.5187 171.609 91.0163C173.612 90.0135 176.469 87.6297 179.395 85.1883L179.612 85.0068C187.616 77.9957 187.616 71.9862 187.616 70.4838C187.903 57.5464 187.201 50.8808 186.456 47.2655C185.847 44.3069 185.074 41.3809 184.186 38.4937C178.652 20.4943 153.913 14.8594 145.097 14.3948C142.489 14.1543 134.713 13.983 127.693 15.5596C125.603 16.0289 123.51 16.5376 121.429 17.0414C98.4779 22.5953 93.3388 43.8861 92.3103 50.1875C92.1172 51.3702 92.0713 52.5542 92.0848 53.7525Z" fill="#2BA6F0" fill-opacity="0.3"/>
<rect x="153.601" y="105.539" width="15.0065" height="10.0159" rx="5.00794" fill="#244982"/>
<ellipse cx="124.588" cy="32.4234" rx="9.00388" ry="9.0143" fill="white"/>
<path d="M122.088 112.55C122.088 118.362 117.383 123.069 111.583 123.069C105.783 123.069 101.078 118.362 101.078 112.55C101.078 106.739 105.783 102.031 111.583 102.031C117.383 102.031 122.088 106.739 122.088 112.55Z" fill="white" stroke="#244982" stroke-width="3"/>
<path d="M111.577 109.505C113.776 108.662 116.044 110.565 115.596 112.876L113.76 122.347C113.373 124.342 110.601 124.555 109.913 122.643L108.279 118.1C108.155 117.758 107.856 117.509 107.497 117.451L103.106 116.743C101.088 116.417 100.801 113.633 102.709 112.902L111.577 109.505Z" fill="#244982"/>
</svg>
