<svg width="113" height="19" viewBox="0 0 113 19" fill="none" xmlns="http://www.w3.org/2000/svg">
<path d="M5.60795 3.36364V11.4091C5.60227 12.4148 5.15909 12.9432 4.35227 12.9432C3.57955 12.9432 3.10795 12.4489 3.07955 11.5455H0.278409C0.267045 14.0511 2.01705 15.1591 4.19318 15.1591C6.65909 15.1591 8.375 13.6761 8.38068 11.4091V3.36364H5.60795ZM21.1293 9.18182C21.1293 5.33523 18.6974 3.20455 15.5724 3.20455C12.4361 3.20455 10.0213 5.33523 10.0213 9.18182C10.0213 13.0114 12.4361 15.1591 15.5724 15.1591C18.6974 15.1591 21.1293 13.0284 21.1293 9.18182ZM18.2543 9.18182C18.2543 11.4602 17.2543 12.6932 15.5724 12.6932C13.8963 12.6932 12.8906 11.4602 12.8906 9.18182C12.8906 6.90341 13.8963 5.67045 15.5724 5.67045C17.2543 5.67045 18.2543 6.90341 18.2543 9.18182ZM22.7713 15H25.5838V11.017H27.027L29.152 15H32.2202L29.8054 10.5682C31.0838 9.98864 31.8224 8.84659 31.8224 7.23864C31.8224 4.84659 30.1918 3.36364 27.5781 3.36364H22.7713V15ZM25.5838 8.80114V5.63068H26.9702C28.2315 5.63068 28.9077 6.15909 28.9077 7.23864C28.9077 8.31818 28.2315 8.80114 26.9702 8.80114H25.5838ZM37.6662 15C41.2116 15 43.4105 12.8125 43.4105 9.17614C43.4105 5.54545 41.2116 3.36364 37.6605 3.36364H33.3651V15H37.6662ZM36.1776 12.6023V5.76136H37.5185C39.5185 5.76136 40.5923 6.67045 40.5923 9.17614C40.5923 11.6932 39.5185 12.6023 37.5582 12.6023H36.1776ZM46.8821 15L47.6491 12.5568H51.6662L52.4332 15H55.456L51.5298 3.36364H47.7855L43.8594 15H46.8821ZM48.3196 10.4205L49.6094 6.29545H49.7003L50.9957 10.4205H48.3196ZM66.6122 3.36364H63.8054V10.0682H63.7088L59.1293 3.36364H56.7088V15H59.5213V8.28409H59.5952L64.2259 15H66.6122V3.36364Z" fill="white"/>
<path d="M78.6591 7C78.2784 4.85795 76.5284 3.20455 74.0511 3.20455C71.1136 3.20455 69.0227 5.53977 69.0227 9.18182C69.0227 12.8239 71.1136 15.1591 74.0511 15.1591C76.5284 15.1591 78.2784 13.5 78.6591 11.3636H77.5909C77.267 12.9602 75.875 14.1591 74.0511 14.1591C71.8466 14.1591 70.0511 12.4148 70.0511 9.18182C70.0511 5.96023 71.8466 4.20455 74.0511 4.20455C75.875 4.20455 77.267 5.40909 77.5909 7H78.6591ZM81.1548 15H87.7628V14.0455H82.2173V3.36364H81.1548V15ZM91.2173 3.36364H90.1548V15H91.2173V3.36364ZM94.3281 3.36364H93.2145L97.4474 15H98.5838L102.817 3.36364H101.703L98.0668 13.6193H97.9645L94.3281 3.36364ZM104.811 15H111.675V14.0455H105.874V9.65341H111.203V8.69886H105.874V4.31818H111.561V3.36364H104.811V15Z" fill="white"/>
</svg>
