<svg width="225" height="39" viewBox="0 0 225 39" fill="none" xmlns="http://www.w3.org/2000/svg">
<path d="M11.2159 7.72727V23.8182C11.2045 25.8295 10.3182 26.8864 8.70455 26.8864C7.15909 26.8864 6.21591 25.8977 6.15909 24.0909H0.556818C0.534091 29.1023 4.03409 31.3182 8.38636 31.3182C13.3182 31.3182 16.75 28.3523 16.7614 23.8182V7.72727H11.2159ZM42.2585 19.3636C42.2585 11.6705 37.3949 7.40909 31.1449 7.40909C24.8722 7.40909 20.0426 11.6705 20.0426 19.3636C20.0426 27.0227 24.8722 31.3182 31.1449 31.3182C37.3949 31.3182 42.2585 27.0568 42.2585 19.3636ZM36.5085 19.3636C36.5085 23.9205 34.5085 26.3864 31.1449 26.3864C27.7926 26.3864 25.7812 23.9205 25.7812 19.3636C25.7812 14.8068 27.7926 12.3409 31.1449 12.3409C34.5085 12.3409 36.5085 14.8068 36.5085 19.3636ZM45.5426 31H51.1676V23.0341H54.054L58.304 31H64.4403L59.6108 22.1364C62.1676 20.9773 63.6449 18.6932 63.6449 15.4773C63.6449 10.6932 60.3835 7.72727 55.1562 7.72727H45.5426V31ZM51.1676 18.6023V12.2614H53.9403C56.4631 12.2614 57.8153 13.3182 57.8153 15.4773C57.8153 17.6364 56.4631 18.6023 53.9403 18.6023H51.1676ZM75.3324 31C82.4233 31 86.821 26.625 86.821 19.3523C86.821 12.0909 82.4233 7.72727 75.321 7.72727H66.7301V31H75.3324ZM72.3551 26.2045V12.5227H75.0369C79.0369 12.5227 81.1847 14.3409 81.1847 19.3523C81.1847 24.3864 79.0369 26.2045 75.1165 26.2045H72.3551ZM93.7642 31L95.2983 26.1136H103.332L104.866 31H110.912L103.06 7.72727H95.571L87.7188 31H93.7642ZM96.6392 21.8409L99.2188 13.5909H99.4006L101.991 21.8409H96.6392ZM133.224 7.72727H127.611V21.1364H127.418L118.259 7.72727H113.418V31H119.043V17.5682H119.19L128.452 31H133.224V7.72727Z" fill="white"/>
<path d="M156.318 15C155.557 10.7159 152.057 7.40909 147.102 7.40909C141.227 7.40909 137.045 12.0795 137.045 19.3636C137.045 26.6477 141.227 31.3182 147.102 31.3182C152.057 31.3182 155.557 28 156.318 23.7273H154.182C153.534 26.9205 150.75 29.3182 147.102 29.3182C142.693 29.3182 139.102 25.8295 139.102 19.3636C139.102 12.9205 142.693 9.40909 147.102 9.40909C150.75 9.40909 153.534 11.8182 154.182 15H156.318ZM161.31 31H174.526V29.0909H163.435V7.72727H161.31V31ZM181.435 7.72727H179.31V31H181.435V7.72727ZM187.656 7.72727H185.429L193.895 31H196.168L204.634 7.72727H202.406L195.134 28.2386H194.929L187.656 7.72727ZM208.622 31H222.349V29.0909H210.747V20.3068H221.406V18.3977H210.747V9.63636H222.122V7.72727H208.622V31Z" fill="white"/>
</svg>
