<svg width="489" height="334" viewBox="0 0 489 334" fill="none" xmlns="http://www.w3.org/2000/svg">
<circle cx="242" cy="119" r="99.5" stroke="#CBD5E0"/>
<circle cx="290" cy="167" r="99.5" stroke="#CBD5E0"/>
<circle cx="242" cy="215" r="99.5" stroke="#CBD5E0"/>
<circle cx="194" cy="167" r="99.5" stroke="#CBD5E0"/>
<mask id="path-5-inside-1_9_1168" fill="white">
<path fill-rule="evenodd" clip-rule="evenodd" d="M284.256 209.256C291.107 196.704 295 182.307 295 167C295 151.693 291.107 137.296 284.256 124.744C271.704 117.893 257.307 114 242 114C226.693 114 212.296 117.893 199.744 124.744C192.893 137.296 189 151.693 189 167C189 182.307 192.893 196.704 199.744 209.256C212.296 216.107 226.693 220 242 220C257.307 220 271.704 216.107 284.256 209.256Z"/>
</mask>
<path fill-rule="evenodd" clip-rule="evenodd" d="M284.256 209.256C291.107 196.704 295 182.307 295 167C295 151.693 291.107 137.296 284.256 124.744C271.704 117.893 257.307 114 242 114C226.693 114 212.296 117.893 199.744 124.744C192.893 137.296 189 151.693 189 167C189 182.307 192.893 196.704 199.744 209.256C212.296 216.107 226.693 220 242 220C257.307 220 271.704 216.107 284.256 209.256Z" fill="#9F7AEA"/>
<path d="M284.256 209.256L284.735 210.134L284.993 209.993L285.134 209.735L284.256 209.256ZM284.256 124.744L285.134 124.265L284.993 124.007L284.735 123.866L284.256 124.744ZM199.744 124.744L199.265 123.866L199.007 124.007L198.866 124.265L199.744 124.744ZM199.744 209.256L198.866 209.735L199.007 209.993L199.265 210.134L199.744 209.256ZM294 167C294 182.135 290.151 196.369 283.378 208.777L285.134 209.735C292.063 197.04 296 182.478 296 167H294ZM283.379 125.223C290.151 137.631 294 151.865 294 167H296C296 151.522 292.063 136.96 285.134 124.265L283.379 125.223ZM242 115C257.135 115 271.369 118.849 283.777 125.622L284.735 123.866C272.04 116.937 257.478 113 242 113V115ZM200.223 125.622C212.631 118.849 226.865 115 242 115V113C226.522 113 211.96 116.937 199.265 123.866L200.223 125.622ZM190 167C190 151.865 193.849 137.631 200.622 125.223L198.866 124.265C191.937 136.96 188 151.522 188 167H190ZM200.622 208.777C193.849 196.369 190 182.135 190 167H188C188 182.478 191.937 197.04 198.866 209.735L200.622 208.777ZM242 219C226.865 219 212.631 215.151 200.223 208.379L199.265 210.134C211.96 217.063 226.522 221 242 221V219ZM283.777 208.378C271.369 215.151 257.135 219 242 219V221C257.478 221 272.04 217.063 284.735 210.134L283.777 208.378Z" fill="#CBD5E0" mask="url(#path-5-inside-1_9_1168)"/>
<path d="M221.906 157.909V171H219.138V157.909H221.906ZM226.599 168.175L226.605 164.908H227.002L230.146 161.182H233.272L229.047 166.116H228.401L226.599 168.175ZM224.132 171V157.909H226.855V171H224.132ZM230.268 171L227.379 166.724L229.194 164.8L233.458 171H230.268ZM234.608 171V161.182H237.331V171H234.608ZM235.976 159.916C235.571 159.916 235.224 159.782 234.934 159.513C234.649 159.241 234.506 158.915 234.506 158.536C234.506 158.161 234.649 157.839 234.934 157.57C235.224 157.298 235.571 157.161 235.976 157.161C236.381 157.161 236.726 157.298 237.012 157.57C237.301 157.839 237.446 158.161 237.446 158.536C237.446 158.915 237.301 159.241 237.012 159.513C236.726 159.782 236.381 159.916 235.976 159.916ZM243.936 174.886C243.054 174.886 242.297 174.765 241.667 174.522C241.04 174.283 240.542 173.957 240.171 173.544C239.8 173.131 239.559 172.666 239.449 172.151L241.967 171.812C242.044 172.008 242.165 172.191 242.331 172.362C242.498 172.532 242.717 172.668 242.99 172.771C243.267 172.877 243.603 172.93 244 172.93C244.592 172.93 245.08 172.786 245.463 172.496C245.851 172.21 246.045 171.731 246.045 171.058V169.261H245.93C245.811 169.534 245.632 169.792 245.393 170.035C245.154 170.278 244.848 170.476 244.473 170.629C244.098 170.783 243.65 170.859 243.13 170.859C242.393 170.859 241.722 170.689 241.117 170.348C240.516 170.003 240.037 169.477 239.679 168.769C239.325 168.058 239.148 167.158 239.148 166.072C239.148 164.96 239.329 164.031 239.691 163.285C240.054 162.539 240.535 161.981 241.136 161.61C241.741 161.239 242.404 161.054 243.124 161.054C243.674 161.054 244.134 161.148 244.505 161.335C244.875 161.518 245.174 161.749 245.4 162.026C245.63 162.298 245.806 162.567 245.93 162.831H246.032V161.182H248.736V171.096C248.736 171.931 248.532 172.63 248.123 173.192C247.713 173.755 247.147 174.177 246.422 174.458C245.702 174.744 244.873 174.886 243.936 174.886ZM243.993 168.814C244.432 168.814 244.803 168.705 245.105 168.488C245.412 168.266 245.647 167.951 245.809 167.542C245.975 167.129 246.058 166.634 246.058 166.059C246.058 165.484 245.977 164.985 245.815 164.563C245.653 164.137 245.419 163.807 245.112 163.572C244.805 163.338 244.432 163.221 243.993 163.221C243.546 163.221 243.169 163.342 242.862 163.585C242.555 163.824 242.323 164.156 242.165 164.582C242.007 165.009 241.929 165.501 241.929 166.059C241.929 166.626 242.007 167.116 242.165 167.529C242.327 167.938 242.559 168.256 242.862 168.482C243.169 168.703 243.546 168.814 243.993 168.814ZM253.703 171.185C253.076 171.185 252.518 171.077 252.028 170.859C251.538 170.638 251.15 170.312 250.865 169.881C250.583 169.447 250.443 168.906 250.443 168.258C250.443 167.712 250.543 167.254 250.743 166.884C250.944 166.513 251.216 166.214 251.561 165.989C251.907 165.763 252.299 165.592 252.738 165.477C253.181 165.362 253.645 165.281 254.131 165.234C254.702 165.175 255.162 165.119 255.512 165.068C255.861 165.013 256.115 164.932 256.272 164.825C256.43 164.719 256.509 164.561 256.509 164.352V164.314C256.509 163.909 256.381 163.596 256.125 163.374C255.874 163.153 255.516 163.042 255.051 163.042C254.561 163.042 254.172 163.151 253.882 163.368C253.592 163.581 253.4 163.849 253.306 164.173L250.788 163.969C250.916 163.372 251.167 162.857 251.542 162.422C251.917 161.983 252.401 161.646 252.993 161.412C253.59 161.173 254.28 161.054 255.064 161.054C255.61 161.054 256.132 161.118 256.63 161.246C257.133 161.374 257.578 161.572 257.966 161.84C258.358 162.109 258.667 162.454 258.893 162.876C259.119 163.293 259.232 163.794 259.232 164.378V171H256.65V169.638H256.573C256.415 169.945 256.204 170.216 255.94 170.45C255.676 170.68 255.358 170.862 254.988 170.994C254.617 171.121 254.189 171.185 253.703 171.185ZM254.483 169.306C254.883 169.306 255.237 169.227 255.544 169.07C255.85 168.908 256.091 168.69 256.266 168.418C256.441 168.145 256.528 167.836 256.528 167.491V166.449C256.443 166.504 256.326 166.555 256.176 166.602C256.032 166.645 255.868 166.685 255.684 166.724C255.501 166.758 255.318 166.79 255.135 166.82C254.951 166.845 254.785 166.869 254.636 166.89C254.316 166.937 254.037 167.011 253.799 167.114C253.56 167.216 253.375 167.354 253.243 167.529C253.11 167.7 253.044 167.913 253.044 168.168C253.044 168.539 253.179 168.822 253.447 169.018C253.72 169.21 254.065 169.306 254.483 169.306ZM261.344 171V161.182H264.067V171H261.344ZM262.712 159.916C262.308 159.916 261.96 159.782 261.67 159.513C261.385 159.241 261.242 158.915 261.242 158.536C261.242 158.161 261.385 157.839 261.67 157.57C261.96 157.298 262.308 157.161 262.712 157.161C263.117 157.161 263.462 157.298 263.748 157.57C264.038 157.839 264.183 158.161 264.183 158.536C264.183 158.915 264.038 159.241 263.748 159.513C263.462 159.782 263.117 159.916 262.712 159.916Z" fill="white"/>
<path d="M168.726 15L165.544 3.36364H166.976L169.408 12.8409H169.521L171.999 3.36364H173.589L176.067 12.8409H176.18L178.612 3.36364H180.044L176.862 15H175.408L172.839 5.72727H172.749L170.18 15H168.726ZM182.959 9.75V15H181.618V3.36364H182.959V7.63636H183.072C183.277 7.18561 183.584 6.82765 183.993 6.5625C184.406 6.29356 184.955 6.15909 185.641 6.15909C186.235 6.15909 186.756 6.27841 187.203 6.51705C187.65 6.75189 187.997 7.11364 188.243 7.60227C188.493 8.08712 188.618 8.70455 188.618 9.45455V15H187.277V9.54545C187.277 8.85227 187.097 8.31629 186.737 7.9375C186.381 7.55492 185.887 7.36364 185.254 7.36364C184.815 7.36364 184.421 7.45644 184.072 7.64205C183.728 7.82765 183.455 8.09848 183.254 8.45455C183.057 8.81061 182.959 9.24242 182.959 9.75ZM193.639 15.2045C193.086 15.2045 192.584 15.1004 192.134 14.892C191.683 14.6799 191.325 14.375 191.06 13.9773C190.795 13.5758 190.662 13.0909 190.662 12.5227C190.662 12.0227 190.76 11.6174 190.957 11.3068C191.154 10.9924 191.418 10.7462 191.747 10.5682C192.077 10.3902 192.44 10.2576 192.838 10.1705C193.24 10.0795 193.643 10.0076 194.048 9.95455C194.579 9.88636 195.009 9.83523 195.338 9.80114C195.671 9.76326 195.914 9.70076 196.065 9.61364C196.221 9.52652 196.298 9.375 196.298 9.15909V9.11364C196.298 8.55303 196.145 8.11742 195.838 7.80682C195.535 7.49621 195.075 7.34091 194.457 7.34091C193.817 7.34091 193.315 7.48106 192.952 7.76136C192.588 8.04167 192.332 8.34091 192.185 8.65909L190.912 8.20455C191.139 7.67424 191.442 7.26136 191.821 6.96591C192.204 6.66667 192.62 6.45833 193.071 6.34091C193.526 6.2197 193.973 6.15909 194.412 6.15909C194.692 6.15909 195.014 6.19318 195.378 6.26136C195.745 6.32576 196.099 6.46023 196.44 6.66477C196.785 6.86932 197.071 7.17803 197.298 7.59091C197.526 8.00379 197.639 8.55682 197.639 9.25V15H196.298V13.8182H196.23C196.139 14.0076 195.988 14.2102 195.776 14.4261C195.563 14.642 195.281 14.8258 194.929 14.9773C194.577 15.1288 194.147 15.2045 193.639 15.2045ZM193.844 14C194.374 14 194.821 13.8958 195.185 13.6875C195.552 13.4792 195.829 13.2102 196.014 12.8807C196.204 12.5511 196.298 12.2045 196.298 11.8409V10.6136C196.241 10.6818 196.116 10.7443 195.923 10.8011C195.734 10.8542 195.514 10.9015 195.264 10.9432C195.018 10.9811 194.777 11.0152 194.543 11.0455C194.312 11.072 194.124 11.0947 193.98 11.1136C193.632 11.1591 193.306 11.233 193.003 11.3352C192.704 11.4337 192.461 11.5833 192.276 11.7841C192.094 11.9811 192.003 12.25 192.003 12.5909C192.003 13.0568 192.175 13.4091 192.52 13.6477C192.868 13.8826 193.31 14 193.844 14ZM203.882 6.27273V7.40909H199.359V6.27273H203.882ZM200.678 4.18182H202.018V12.5C202.018 12.8788 202.073 13.1629 202.183 13.3523C202.297 13.5379 202.441 13.6629 202.615 13.7273C202.793 13.7879 202.981 13.8182 203.178 13.8182C203.325 13.8182 203.446 13.8106 203.541 13.7955C203.636 13.7765 203.712 13.7614 203.768 13.75L204.041 14.9545C203.95 14.9886 203.823 15.0227 203.661 15.0568C203.498 15.0947 203.291 15.1136 203.041 15.1136C202.662 15.1136 202.291 15.0322 201.928 14.8693C201.568 14.7064 201.268 14.4583 201.03 14.125C200.795 13.7917 200.678 13.3712 200.678 12.8636V4.18182ZM211.263 18.2727C211.036 18.2727 210.833 18.2538 210.655 18.2159C210.477 18.1818 210.354 18.1477 210.286 18.1136L210.626 16.9318C210.952 17.0152 211.24 17.0455 211.49 17.0227C211.74 17 211.962 16.8883 212.155 16.6875C212.352 16.4905 212.532 16.1705 212.695 15.7273L212.945 15.0455L209.717 6.27273H211.172L213.581 13.2273H213.672L216.081 6.27273H217.536L213.831 16.2727C213.664 16.7235 213.458 17.0966 213.212 17.392C212.965 17.6913 212.679 17.9129 212.354 18.0568C212.032 18.2008 211.668 18.2727 211.263 18.2727ZM222.538 15.1818C221.75 15.1818 221.059 14.9943 220.464 14.6193C219.874 14.2443 219.411 13.7197 219.078 13.0455C218.749 12.3712 218.584 11.5833 218.584 10.6818C218.584 9.77273 218.749 8.97917 219.078 8.30114C219.411 7.62311 219.874 7.09659 220.464 6.72159C221.059 6.34659 221.75 6.15909 222.538 6.15909C223.326 6.15909 224.016 6.34659 224.607 6.72159C225.201 7.09659 225.663 7.62311 225.993 8.30114C226.326 8.97917 226.493 9.77273 226.493 10.6818C226.493 11.5833 226.326 12.3712 225.993 13.0455C225.663 13.7197 225.201 14.2443 224.607 14.6193C224.016 14.9943 223.326 15.1818 222.538 15.1818ZM222.538 13.9773C223.137 13.9773 223.629 13.8239 224.016 13.517C224.402 13.2102 224.688 12.8068 224.874 12.3068C225.059 11.8068 225.152 11.2652 225.152 10.6818C225.152 10.0985 225.059 9.55492 224.874 9.05114C224.688 8.54735 224.402 8.14015 224.016 7.82955C223.629 7.51894 223.137 7.36364 222.538 7.36364C221.94 7.36364 221.447 7.51894 221.061 7.82955C220.675 8.14015 220.389 8.54735 220.203 9.05114C220.018 9.55492 219.925 10.0985 219.925 10.6818C219.925 11.2652 220.018 11.8068 220.203 12.3068C220.389 12.8068 220.675 13.2102 221.061 13.517C221.447 13.8239 221.94 13.9773 222.538 13.9773ZM234.04 11.4318V6.27273H235.381V15H234.04V13.5227H233.949C233.744 13.9659 233.426 14.3428 232.994 14.6534C232.563 14.9602 232.017 15.1136 231.358 15.1136C230.812 15.1136 230.328 14.9943 229.903 14.7557C229.479 14.5133 229.146 14.1496 228.903 13.6648C228.661 13.1761 228.54 12.5606 228.54 11.8182V6.27273H229.881V11.7273C229.881 12.3636 230.059 12.8712 230.415 13.25C230.775 13.6288 231.233 13.8182 231.79 13.8182C232.123 13.8182 232.462 13.733 232.807 13.5625C233.155 13.392 233.447 13.1307 233.682 12.7784C233.92 12.4261 234.04 11.9773 234.04 11.4318ZM243.678 3.36364V15H242.337V3.36364H243.678ZM249.679 15.1818C248.891 15.1818 248.2 14.9943 247.605 14.6193C247.014 14.2443 246.552 13.7197 246.219 13.0455C245.889 12.3712 245.724 11.5833 245.724 10.6818C245.724 9.77273 245.889 8.97917 246.219 8.30114C246.552 7.62311 247.014 7.09659 247.605 6.72159C248.2 6.34659 248.891 6.15909 249.679 6.15909C250.467 6.15909 251.156 6.34659 251.747 6.72159C252.342 7.09659 252.804 7.62311 253.134 8.30114C253.467 8.97917 253.634 9.77273 253.634 10.6818C253.634 11.5833 253.467 12.3712 253.134 13.0455C252.804 13.7197 252.342 14.2443 251.747 14.6193C251.156 14.9943 250.467 15.1818 249.679 15.1818ZM249.679 13.9773C250.277 13.9773 250.77 13.8239 251.156 13.517C251.543 13.2102 251.829 12.8068 252.014 12.3068C252.2 11.8068 252.293 11.2652 252.293 10.6818C252.293 10.0985 252.2 9.55492 252.014 9.05114C251.829 8.54735 251.543 8.14015 251.156 7.82955C250.77 7.51894 250.277 7.36364 249.679 7.36364C249.08 7.36364 248.588 7.51894 248.202 7.82955C247.815 8.14015 247.529 8.54735 247.344 9.05114C247.158 9.55492 247.065 10.0985 247.065 10.6818C247.065 11.2652 247.158 11.8068 247.344 12.3068C247.529 12.8068 247.815 13.2102 248.202 13.517C248.588 13.8239 249.08 13.9773 249.679 13.9773ZM262.504 6.27273L259.277 15H257.913L254.686 6.27273H256.141L258.55 13.2273H258.641L261.05 6.27273H262.504ZM267.621 15.1818C266.78 15.1818 266.054 14.9962 265.445 14.625C264.839 14.25 264.371 13.7273 264.041 13.0568C263.715 12.3826 263.553 11.5985 263.553 10.7045C263.553 9.81061 263.715 9.02273 264.041 8.34091C264.371 7.6553 264.829 7.12121 265.416 6.73864C266.007 6.35227 266.696 6.15909 267.484 6.15909C267.939 6.15909 268.388 6.23485 268.831 6.38636C269.274 6.53788 269.678 6.78409 270.041 7.125C270.405 7.46212 270.695 7.90909 270.911 8.46591C271.126 9.02273 271.234 9.70833 271.234 10.5227V11.0909H264.507V9.93182H269.871C269.871 9.43939 269.772 9 269.575 8.61364C269.382 8.22727 269.106 7.92235 268.746 7.69886C268.39 7.47538 267.969 7.36364 267.484 7.36364C266.95 7.36364 266.488 7.49621 266.098 7.76136C265.712 8.02273 265.414 8.36364 265.206 8.78409C264.998 9.20455 264.893 9.6553 264.893 10.1364V10.9091C264.893 11.5682 265.007 12.1269 265.234 12.5852C265.465 13.0398 265.786 13.3864 266.195 13.625C266.604 13.8598 267.079 13.9773 267.621 13.9773C267.973 13.9773 268.291 13.928 268.575 13.8295C268.863 13.7273 269.111 13.5758 269.32 13.375C269.528 13.1705 269.689 12.9167 269.803 12.6136L271.098 12.9773C270.962 13.4167 270.732 13.803 270.411 14.1364C270.089 14.4659 269.691 14.7235 269.217 14.9091C268.744 15.0909 268.212 15.1818 267.621 15.1818ZM281.57 6.27273V7.40909H277.047V6.27273H281.57ZM278.365 4.18182H279.706V12.5C279.706 12.8788 279.761 13.1629 279.871 13.3523C279.984 13.5379 280.128 13.6629 280.303 13.7273C280.481 13.7879 280.668 13.8182 280.865 13.8182C281.013 13.8182 281.134 13.8106 281.229 13.7955C281.323 13.7765 281.399 13.7614 281.456 13.75L281.729 14.9545C281.638 14.9886 281.511 15.0227 281.348 15.0568C281.185 15.0947 280.979 15.1136 280.729 15.1136C280.35 15.1136 279.979 15.0322 279.615 14.8693C279.255 14.7064 278.956 14.4583 278.717 14.125C278.482 13.7917 278.365 13.3712 278.365 12.8636V4.18182ZM287.038 15.1818C286.25 15.1818 285.559 14.9943 284.964 14.6193C284.374 14.2443 283.911 13.7197 283.578 13.0455C283.249 12.3712 283.084 11.5833 283.084 10.6818C283.084 9.77273 283.249 8.97917 283.578 8.30114C283.911 7.62311 284.374 7.09659 284.964 6.72159C285.559 6.34659 286.25 6.15909 287.038 6.15909C287.826 6.15909 288.516 6.34659 289.107 6.72159C289.701 7.09659 290.163 7.62311 290.493 8.30114C290.826 8.97917 290.993 9.77273 290.993 10.6818C290.993 11.5833 290.826 12.3712 290.493 13.0455C290.163 13.7197 289.701 14.2443 289.107 14.6193C288.516 14.9943 287.826 15.1818 287.038 15.1818ZM287.038 13.9773C287.637 13.9773 288.129 13.8239 288.516 13.517C288.902 13.2102 289.188 12.8068 289.374 12.3068C289.559 11.8068 289.652 11.2652 289.652 10.6818C289.652 10.0985 289.559 9.55492 289.374 9.05114C289.188 8.54735 288.902 8.14015 288.516 7.82955C288.129 7.51894 287.637 7.36364 287.038 7.36364C286.44 7.36364 285.947 7.51894 285.561 7.82955C285.175 8.14015 284.889 8.54735 284.703 9.05114C284.518 9.55492 284.425 10.0985 284.425 10.6818C284.425 11.2652 284.518 11.8068 284.703 12.3068C284.889 12.8068 285.175 13.2102 285.561 13.517C285.947 13.8239 286.44 13.9773 287.038 13.9773ZM300.835 15.1818C300.108 15.1818 299.466 14.9981 298.909 14.6307C298.352 14.2595 297.917 13.7367 297.602 13.0625C297.288 12.3845 297.131 11.5833 297.131 10.6591C297.131 9.74242 297.288 8.94697 297.602 8.27273C297.917 7.59848 298.354 7.07765 298.915 6.71023C299.475 6.3428 300.123 6.15909 300.858 6.15909C301.426 6.15909 301.875 6.25379 302.205 6.44318C302.538 6.62879 302.792 6.84091 302.966 7.07955C303.144 7.31439 303.282 7.50758 303.381 7.65909H303.494V3.36364H304.835V15H303.54V13.6591H303.381C303.282 13.8182 303.142 14.0189 302.96 14.2614C302.778 14.5 302.519 14.714 302.182 14.9034C301.845 15.089 301.396 15.1818 300.835 15.1818ZM301.017 13.9773C301.555 13.9773 302.009 13.8371 302.381 13.5568C302.752 13.2727 303.034 12.8807 303.227 12.3807C303.42 11.8769 303.517 11.2955 303.517 10.6364C303.517 9.98485 303.422 9.41477 303.233 8.92614C303.044 8.43371 302.763 8.05114 302.392 7.77841C302.021 7.50189 301.563 7.36364 301.017 7.36364C300.449 7.36364 299.975 7.50947 299.597 7.80114C299.222 8.08902 298.939 8.48106 298.75 8.97727C298.564 9.4697 298.472 10.0227 298.472 10.6364C298.472 11.2576 298.566 11.822 298.756 12.3295C298.949 12.8333 299.233 13.2348 299.608 13.5341C299.987 13.8295 300.456 13.9773 301.017 13.9773ZM311.023 15.1818C310.235 15.1818 309.544 14.9943 308.949 14.6193C308.358 14.2443 307.896 13.7197 307.562 13.0455C307.233 12.3712 307.068 11.5833 307.068 10.6818C307.068 9.77273 307.233 8.97917 307.562 8.30114C307.896 7.62311 308.358 7.09659 308.949 6.72159C309.544 6.34659 310.235 6.15909 311.023 6.15909C311.811 6.15909 312.5 6.34659 313.091 6.72159C313.686 7.09659 314.148 7.62311 314.477 8.30114C314.811 8.97917 314.977 9.77273 314.977 10.6818C314.977 11.5833 314.811 12.3712 314.477 13.0455C314.148 13.7197 313.686 14.2443 313.091 14.6193C312.5 14.9943 311.811 15.1818 311.023 15.1818ZM311.023 13.9773C311.621 13.9773 312.114 13.8239 312.5 13.517C312.886 13.2102 313.172 12.8068 313.358 12.3068C313.544 11.8068 313.636 11.2652 313.636 10.6818C313.636 10.0985 313.544 9.55492 313.358 9.05114C313.172 8.54735 312.886 8.14015 312.5 7.82955C312.114 7.51894 311.621 7.36364 311.023 7.36364C310.424 7.36364 309.932 7.51894 309.545 7.82955C309.159 8.14015 308.873 8.54735 308.688 9.05114C308.502 9.55492 308.409 10.0985 308.409 10.6818C308.409 11.2652 308.502 11.8068 308.688 12.3068C308.873 12.8068 309.159 13.2102 309.545 13.517C309.932 13.8239 310.424 13.9773 311.023 13.9773Z" fill="white"/>
<path d="M150.835 330L147.653 318.364H149.085L151.517 327.841H151.631L154.108 318.364H155.699L158.176 327.841H158.29L160.722 318.364H162.153L158.972 330H157.517L154.949 320.727H154.858L152.29 330H150.835ZM165.068 324.75V330H163.727V318.364H165.068V322.636H165.182C165.386 322.186 165.693 321.828 166.102 321.562C166.515 321.294 167.064 321.159 167.75 321.159C168.345 321.159 168.866 321.278 169.312 321.517C169.759 321.752 170.106 322.114 170.352 322.602C170.602 323.087 170.727 323.705 170.727 324.455V330H169.386V324.545C169.386 323.852 169.206 323.316 168.847 322.938C168.491 322.555 167.996 322.364 167.364 322.364C166.924 322.364 166.53 322.456 166.182 322.642C165.837 322.828 165.564 323.098 165.364 323.455C165.167 323.811 165.068 324.242 165.068 324.75ZM175.749 330.205C175.196 330.205 174.694 330.1 174.243 329.892C173.792 329.68 173.434 329.375 173.169 328.977C172.904 328.576 172.771 328.091 172.771 327.523C172.771 327.023 172.87 326.617 173.067 326.307C173.264 325.992 173.527 325.746 173.857 325.568C174.186 325.39 174.55 325.258 174.947 325.17C175.349 325.08 175.752 325.008 176.158 324.955C176.688 324.886 177.118 324.835 177.447 324.801C177.781 324.763 178.023 324.701 178.175 324.614C178.33 324.527 178.408 324.375 178.408 324.159V324.114C178.408 323.553 178.254 323.117 177.947 322.807C177.644 322.496 177.184 322.341 176.567 322.341C175.927 322.341 175.425 322.481 175.061 322.761C174.697 323.042 174.442 323.341 174.294 323.659L173.021 323.205C173.249 322.674 173.552 322.261 173.93 321.966C174.313 321.667 174.73 321.458 175.18 321.341C175.635 321.22 176.082 321.159 176.521 321.159C176.802 321.159 177.124 321.193 177.487 321.261C177.855 321.326 178.209 321.46 178.55 321.665C178.894 321.869 179.18 322.178 179.408 322.591C179.635 323.004 179.749 323.557 179.749 324.25V330H178.408V328.818H178.339C178.249 329.008 178.097 329.21 177.885 329.426C177.673 329.642 177.391 329.826 177.038 329.977C176.686 330.129 176.256 330.205 175.749 330.205ZM175.953 329C176.483 329 176.93 328.896 177.294 328.688C177.661 328.479 177.938 328.21 178.124 327.881C178.313 327.551 178.408 327.205 178.408 326.841V325.614C178.351 325.682 178.226 325.744 178.033 325.801C177.843 325.854 177.624 325.902 177.374 325.943C177.127 325.981 176.887 326.015 176.652 326.045C176.421 326.072 176.233 326.095 176.089 326.114C175.741 326.159 175.415 326.233 175.112 326.335C174.813 326.434 174.571 326.583 174.385 326.784C174.203 326.981 174.112 327.25 174.112 327.591C174.112 328.057 174.285 328.409 174.629 328.648C174.978 328.883 175.419 329 175.953 329ZM185.991 321.273V322.409H181.469V321.273H185.991ZM182.787 319.182H184.128V327.5C184.128 327.879 184.183 328.163 184.293 328.352C184.406 328.538 184.55 328.663 184.724 328.727C184.902 328.788 185.09 328.818 185.287 328.818C185.435 328.818 185.556 328.811 185.651 328.795C185.745 328.777 185.821 328.761 185.878 328.75L186.151 329.955C186.06 329.989 185.933 330.023 185.77 330.057C185.607 330.095 185.401 330.114 185.151 330.114C184.772 330.114 184.401 330.032 184.037 329.869C183.677 329.706 183.378 329.458 183.139 329.125C182.904 328.792 182.787 328.371 182.787 327.864V319.182ZM193.372 333.273C193.145 333.273 192.942 333.254 192.764 333.216C192.586 333.182 192.463 333.148 192.395 333.114L192.736 331.932C193.062 332.015 193.349 332.045 193.599 332.023C193.849 332 194.071 331.888 194.264 331.688C194.461 331.491 194.641 331.17 194.804 330.727L195.054 330.045L191.827 321.273H193.281L195.69 328.227H195.781L198.19 321.273H199.645L195.94 331.273C195.774 331.723 195.567 332.097 195.321 332.392C195.075 332.691 194.789 332.913 194.463 333.057C194.141 333.201 193.777 333.273 193.372 333.273ZM204.648 330.182C203.86 330.182 203.169 329.994 202.574 329.619C201.983 329.244 201.521 328.72 201.188 328.045C200.858 327.371 200.693 326.583 200.693 325.682C200.693 324.773 200.858 323.979 201.188 323.301C201.521 322.623 201.983 322.097 202.574 321.722C203.169 321.347 203.86 321.159 204.648 321.159C205.436 321.159 206.125 321.347 206.716 321.722C207.311 322.097 207.773 322.623 208.102 323.301C208.436 323.979 208.602 324.773 208.602 325.682C208.602 326.583 208.436 327.371 208.102 328.045C207.773 328.72 207.311 329.244 206.716 329.619C206.125 329.994 205.436 330.182 204.648 330.182ZM204.648 328.977C205.246 328.977 205.739 328.824 206.125 328.517C206.511 328.21 206.797 327.807 206.983 327.307C207.169 326.807 207.261 326.265 207.261 325.682C207.261 325.098 207.169 324.555 206.983 324.051C206.797 323.547 206.511 323.14 206.125 322.83C205.739 322.519 205.246 322.364 204.648 322.364C204.049 322.364 203.557 322.519 203.17 322.83C202.784 323.14 202.498 323.547 202.312 324.051C202.127 324.555 202.034 325.098 202.034 325.682C202.034 326.265 202.127 326.807 202.312 327.307C202.498 327.807 202.784 328.21 203.17 328.517C203.557 328.824 204.049 328.977 204.648 328.977ZM216.149 326.432V321.273H217.49V330H216.149V328.523H216.058C215.854 328.966 215.536 329.343 215.104 329.653C214.672 329.96 214.126 330.114 213.467 330.114C212.922 330.114 212.437 329.994 212.013 329.756C211.589 329.513 211.255 329.15 211.013 328.665C210.77 328.176 210.649 327.561 210.649 326.818V321.273H211.99V326.727C211.99 327.364 212.168 327.871 212.524 328.25C212.884 328.629 213.342 328.818 213.899 328.818C214.232 328.818 214.571 328.733 214.916 328.562C215.265 328.392 215.556 328.131 215.791 327.778C216.03 327.426 216.149 326.977 216.149 326.432ZM227.991 330.182C227.173 330.182 226.469 329.989 225.878 329.602C225.287 329.216 224.832 328.684 224.514 328.006C224.196 327.328 224.037 326.553 224.037 325.682C224.037 324.795 224.2 324.013 224.526 323.335C224.855 322.653 225.313 322.121 225.901 321.739C226.491 321.352 227.181 321.159 227.969 321.159C228.582 321.159 229.135 321.273 229.628 321.5C230.12 321.727 230.524 322.045 230.838 322.455C231.152 322.864 231.348 323.341 231.423 323.886H230.082C229.98 323.489 229.753 323.136 229.401 322.83C229.052 322.519 228.582 322.364 227.991 322.364C227.469 322.364 227.01 322.5 226.616 322.773C226.226 323.042 225.921 323.422 225.702 323.915C225.486 324.403 225.378 324.977 225.378 325.636C225.378 326.311 225.484 326.898 225.696 327.398C225.912 327.898 226.215 328.286 226.605 328.562C226.999 328.839 227.461 328.977 227.991 328.977C228.34 328.977 228.656 328.917 228.94 328.795C229.224 328.674 229.465 328.5 229.662 328.273C229.859 328.045 229.999 327.773 230.082 327.455H231.423C231.348 327.97 231.16 328.434 230.861 328.847C230.565 329.256 230.173 329.581 229.685 329.824C229.2 330.062 228.635 330.182 227.991 330.182ZM235.952 330.205C235.399 330.205 234.897 330.1 234.446 329.892C233.995 329.68 233.637 329.375 233.372 328.977C233.107 328.576 232.974 328.091 232.974 327.523C232.974 327.023 233.073 326.617 233.27 326.307C233.467 325.992 233.73 325.746 234.06 325.568C234.389 325.39 234.753 325.258 235.151 325.17C235.552 325.08 235.955 325.008 236.361 324.955C236.891 324.886 237.321 324.835 237.651 324.801C237.984 324.763 238.226 324.701 238.378 324.614C238.533 324.527 238.611 324.375 238.611 324.159V324.114C238.611 323.553 238.457 323.117 238.151 322.807C237.848 322.496 237.387 322.341 236.77 322.341C236.13 322.341 235.628 322.481 235.264 322.761C234.901 323.042 234.645 323.341 234.497 323.659L233.224 323.205C233.452 322.674 233.755 322.261 234.134 321.966C234.516 321.667 234.933 321.458 235.384 321.341C235.838 321.22 236.285 321.159 236.724 321.159C237.005 321.159 237.327 321.193 237.69 321.261C238.058 321.326 238.412 321.46 238.753 321.665C239.098 321.869 239.384 322.178 239.611 322.591C239.838 323.004 239.952 323.557 239.952 324.25V330H238.611V328.818H238.543C238.452 329.008 238.3 329.21 238.088 329.426C237.876 329.642 237.594 329.826 237.241 329.977C236.889 330.129 236.459 330.205 235.952 330.205ZM236.156 329C236.687 329 237.134 328.896 237.497 328.688C237.865 328.479 238.141 328.21 238.327 327.881C238.516 327.551 238.611 327.205 238.611 326.841V325.614C238.554 325.682 238.429 325.744 238.236 325.801C238.046 325.854 237.827 325.902 237.577 325.943C237.33 325.981 237.09 326.015 236.855 326.045C236.624 326.072 236.437 326.095 236.293 326.114C235.944 326.159 235.618 326.233 235.315 326.335C235.016 326.434 234.774 326.583 234.588 326.784C234.406 326.981 234.315 327.25 234.315 327.591C234.315 328.057 234.488 328.409 234.832 328.648C235.181 328.883 235.622 329 236.156 329ZM243.74 324.75V330H242.399V321.273H243.695V322.636H243.808C244.013 322.193 244.323 321.837 244.74 321.568C245.157 321.295 245.695 321.159 246.354 321.159C246.945 321.159 247.462 321.28 247.905 321.523C248.348 321.761 248.693 322.125 248.939 322.614C249.185 323.098 249.308 323.712 249.308 324.455V330H247.967V324.545C247.967 323.86 247.789 323.326 247.433 322.943C247.077 322.557 246.589 322.364 245.967 322.364C245.539 322.364 245.157 322.456 244.82 322.642C244.486 322.828 244.223 323.098 244.03 323.455C243.837 323.811 243.74 324.242 243.74 324.75ZM256.44 330V318.364H257.781V322.659H257.895C257.993 322.508 258.13 322.314 258.304 322.08C258.482 321.841 258.736 321.629 259.065 321.443C259.399 321.254 259.849 321.159 260.418 321.159C261.152 321.159 261.8 321.343 262.361 321.71C262.921 322.078 263.359 322.598 263.673 323.273C263.988 323.947 264.145 324.742 264.145 325.659C264.145 326.583 263.988 327.384 263.673 328.062C263.359 328.737 262.923 329.259 262.366 329.631C261.81 329.998 261.168 330.182 260.44 330.182C259.88 330.182 259.431 330.089 259.094 329.903C258.757 329.714 258.497 329.5 258.315 329.261C258.134 329.019 257.993 328.818 257.895 328.659H257.736V330H256.44ZM257.759 325.636C257.759 326.295 257.855 326.877 258.048 327.381C258.241 327.881 258.524 328.273 258.895 328.557C259.266 328.837 259.721 328.977 260.259 328.977C260.819 328.977 261.287 328.83 261.662 328.534C262.041 328.235 262.325 327.833 262.514 327.33C262.707 326.822 262.804 326.258 262.804 325.636C262.804 325.023 262.709 324.47 262.52 323.977C262.334 323.481 262.052 323.089 261.673 322.801C261.298 322.509 260.827 322.364 260.259 322.364C259.713 322.364 259.255 322.502 258.884 322.778C258.512 323.051 258.232 323.434 258.043 323.926C257.853 324.415 257.759 324.985 257.759 325.636ZM269.855 330.182C269.014 330.182 268.289 329.996 267.679 329.625C267.073 329.25 266.605 328.727 266.276 328.057C265.95 327.383 265.787 326.598 265.787 325.705C265.787 324.811 265.95 324.023 266.276 323.341C266.605 322.655 267.063 322.121 267.651 321.739C268.241 321.352 268.931 321.159 269.719 321.159C270.173 321.159 270.622 321.235 271.065 321.386C271.509 321.538 271.912 321.784 272.276 322.125C272.639 322.462 272.929 322.909 273.145 323.466C273.361 324.023 273.469 324.708 273.469 325.523V326.091H266.741V324.932H272.105C272.105 324.439 272.007 324 271.81 323.614C271.616 323.227 271.34 322.922 270.98 322.699C270.624 322.475 270.204 322.364 269.719 322.364C269.185 322.364 268.723 322.496 268.332 322.761C267.946 323.023 267.649 323.364 267.44 323.784C267.232 324.205 267.128 324.655 267.128 325.136V325.909C267.128 326.568 267.241 327.127 267.469 327.585C267.7 328.04 268.02 328.386 268.429 328.625C268.838 328.86 269.313 328.977 269.855 328.977C270.207 328.977 270.526 328.928 270.81 328.83C271.098 328.727 271.346 328.576 271.554 328.375C271.762 328.17 271.923 327.917 272.037 327.614L273.332 327.977C273.196 328.417 272.967 328.803 272.645 329.136C272.323 329.466 271.925 329.723 271.452 329.909C270.978 330.091 270.446 330.182 269.855 330.182ZM280.009 333.273V321.273H281.304V322.659H281.463C281.562 322.508 281.698 322.314 281.872 322.08C282.05 321.841 282.304 321.629 282.634 321.443C282.967 321.254 283.418 321.159 283.986 321.159C284.721 321.159 285.368 321.343 285.929 321.71C286.49 322.078 286.927 322.598 287.241 323.273C287.556 323.947 287.713 324.742 287.713 325.659C287.713 326.583 287.556 327.384 287.241 328.062C286.927 328.737 286.491 329.259 285.935 329.631C285.378 329.998 284.736 330.182 284.009 330.182C283.448 330.182 282.999 330.089 282.662 329.903C282.325 329.714 282.065 329.5 281.884 329.261C281.702 329.019 281.562 328.818 281.463 328.659H281.349V333.273H280.009ZM281.327 325.636C281.327 326.295 281.423 326.877 281.616 327.381C281.81 327.881 282.092 328.273 282.463 328.557C282.834 328.837 283.289 328.977 283.827 328.977C284.387 328.977 284.855 328.83 285.23 328.534C285.609 328.235 285.893 327.833 286.082 327.33C286.276 326.822 286.372 326.258 286.372 325.636C286.372 325.023 286.277 324.47 286.088 323.977C285.902 323.481 285.62 323.089 285.241 322.801C284.866 322.509 284.395 322.364 283.827 322.364C283.281 322.364 282.823 322.502 282.452 322.778C282.08 323.051 281.8 323.434 281.611 323.926C281.421 324.415 281.327 324.985 281.327 325.636ZM292.327 330.205C291.774 330.205 291.272 330.1 290.821 329.892C290.37 329.68 290.012 329.375 289.747 328.977C289.482 328.576 289.349 328.091 289.349 327.523C289.349 327.023 289.448 326.617 289.645 326.307C289.842 325.992 290.105 325.746 290.435 325.568C290.764 325.39 291.128 325.258 291.526 325.17C291.927 325.08 292.33 325.008 292.736 324.955C293.266 324.886 293.696 324.835 294.026 324.801C294.359 324.763 294.601 324.701 294.753 324.614C294.908 324.527 294.986 324.375 294.986 324.159V324.114C294.986 323.553 294.832 323.117 294.526 322.807C294.223 322.496 293.762 322.341 293.145 322.341C292.505 322.341 292.003 322.481 291.639 322.761C291.276 323.042 291.02 323.341 290.872 323.659L289.599 323.205C289.827 322.674 290.13 322.261 290.509 321.966C290.891 321.667 291.308 321.458 291.759 321.341C292.213 321.22 292.66 321.159 293.099 321.159C293.38 321.159 293.702 321.193 294.065 321.261C294.433 321.326 294.787 321.46 295.128 321.665C295.473 321.869 295.759 322.178 295.986 322.591C296.213 323.004 296.327 323.557 296.327 324.25V330H294.986V328.818H294.918C294.827 329.008 294.675 329.21 294.463 329.426C294.251 329.642 293.969 329.826 293.616 329.977C293.264 330.129 292.834 330.205 292.327 330.205ZM292.531 329C293.062 329 293.509 328.896 293.872 328.688C294.24 328.479 294.516 328.21 294.702 327.881C294.891 327.551 294.986 327.205 294.986 326.841V325.614C294.929 325.682 294.804 325.744 294.611 325.801C294.421 325.854 294.202 325.902 293.952 325.943C293.705 325.981 293.465 326.015 293.23 326.045C292.999 326.072 292.812 326.095 292.668 326.114C292.319 326.159 291.993 326.233 291.69 326.335C291.391 326.434 291.149 326.583 290.963 326.784C290.781 326.981 290.69 327.25 290.69 327.591C290.69 328.057 290.863 328.409 291.207 328.648C291.556 328.883 291.997 329 292.531 329ZM298.774 330V321.273H300.115V330H298.774ZM299.456 319.818C299.195 319.818 298.969 319.729 298.78 319.551C298.594 319.373 298.501 319.159 298.501 318.909C298.501 318.659 298.594 318.445 298.78 318.267C298.969 318.089 299.195 318 299.456 318C299.717 318 299.941 318.089 300.126 318.267C300.316 318.445 300.411 318.659 300.411 318.909C300.411 319.159 300.316 319.373 300.126 319.551C299.941 319.729 299.717 319.818 299.456 319.818ZM305.866 330.182C305.139 330.182 304.497 329.998 303.94 329.631C303.384 329.259 302.948 328.737 302.634 328.062C302.319 327.384 302.162 326.583 302.162 325.659C302.162 324.742 302.319 323.947 302.634 323.273C302.948 322.598 303.385 322.078 303.946 321.71C304.507 321.343 305.154 321.159 305.889 321.159C306.457 321.159 306.906 321.254 307.236 321.443C307.569 321.629 307.823 321.841 307.997 322.08C308.175 322.314 308.313 322.508 308.412 322.659H308.526V318.364H309.866V330H308.571V328.659H308.412C308.313 328.818 308.173 329.019 307.991 329.261C307.81 329.5 307.55 329.714 307.213 329.903C306.876 330.089 306.427 330.182 305.866 330.182ZM306.048 328.977C306.586 328.977 307.041 328.837 307.412 328.557C307.783 328.273 308.065 327.881 308.259 327.381C308.452 326.877 308.548 326.295 308.548 325.636C308.548 324.985 308.454 324.415 308.264 323.926C308.075 323.434 307.795 323.051 307.423 322.778C307.052 322.502 306.594 322.364 306.048 322.364C305.48 322.364 305.007 322.509 304.628 322.801C304.253 323.089 303.971 323.481 303.781 323.977C303.596 324.47 303.503 325.023 303.503 325.636C303.503 326.258 303.598 326.822 303.787 327.33C303.98 327.833 304.264 328.235 304.639 328.534C305.018 328.83 305.488 328.977 306.048 328.977ZM320.895 321.273V322.409H316.19V321.273H320.895ZM317.599 330V320.068C317.599 319.568 317.717 319.152 317.952 318.818C318.187 318.485 318.491 318.235 318.866 318.068C319.241 317.902 319.637 317.818 320.054 317.818C320.384 317.818 320.652 317.845 320.861 317.898C321.069 317.951 321.224 318 321.327 318.045L320.94 319.205C320.872 319.182 320.777 319.153 320.656 319.119C320.539 319.085 320.384 319.068 320.19 319.068C319.747 319.068 319.427 319.18 319.23 319.403C319.037 319.627 318.94 319.955 318.94 320.386V330H317.599ZM325.96 330.182C325.172 330.182 324.481 329.994 323.886 329.619C323.295 329.244 322.833 328.72 322.5 328.045C322.17 327.371 322.006 326.583 322.006 325.682C322.006 324.773 322.17 323.979 322.5 323.301C322.833 322.623 323.295 322.097 323.886 321.722C324.481 321.347 325.172 321.159 325.96 321.159C326.748 321.159 327.438 321.347 328.028 321.722C328.623 322.097 329.085 322.623 329.415 323.301C329.748 323.979 329.915 324.773 329.915 325.682C329.915 326.583 329.748 327.371 329.415 328.045C329.085 328.72 328.623 329.244 328.028 329.619C327.438 329.994 326.748 330.182 325.96 330.182ZM325.96 328.977C326.559 328.977 327.051 328.824 327.438 328.517C327.824 328.21 328.11 327.807 328.295 327.307C328.481 326.807 328.574 326.265 328.574 325.682C328.574 325.098 328.481 324.555 328.295 324.051C328.11 323.547 327.824 323.14 327.438 322.83C327.051 322.519 326.559 322.364 325.96 322.364C325.362 322.364 324.869 322.519 324.483 322.83C324.097 323.14 323.811 323.547 323.625 324.051C323.439 324.555 323.347 325.098 323.347 325.682C323.347 326.265 323.439 326.807 323.625 327.307C323.811 327.807 324.097 328.21 324.483 328.517C324.869 328.824 325.362 328.977 325.96 328.977ZM331.962 330V321.273H333.257V322.591H333.348C333.507 322.159 333.795 321.809 334.212 321.54C334.628 321.271 335.098 321.136 335.621 321.136C335.719 321.136 335.842 321.138 335.99 321.142C336.138 321.146 336.25 321.152 336.325 321.159V322.523C336.28 322.511 336.176 322.494 336.013 322.472C335.854 322.445 335.685 322.432 335.507 322.432C335.083 322.432 334.704 322.521 334.371 322.699C334.041 322.873 333.78 323.116 333.587 323.426C333.397 323.733 333.303 324.083 333.303 324.477V330H331.962Z" fill="white"/>
<path d="M3.52273 167L0.340909 155.364H1.77273L4.20455 164.841H4.31818L6.79545 155.364H8.38636L10.8636 164.841H10.9773L13.4091 155.364H14.8409L11.6591 167H10.2045L7.63636 157.727H7.54545L4.97727 167H3.52273ZM17.7557 161.75V167H16.4148V155.364H17.7557V159.636H17.8693C18.0739 159.186 18.3807 158.828 18.7898 158.562C19.2027 158.294 19.7519 158.159 20.4375 158.159C21.0322 158.159 21.553 158.278 22 158.517C22.447 158.752 22.7936 159.114 23.0398 159.602C23.2898 160.087 23.4148 160.705 23.4148 161.455V167H22.0739V161.545C22.0739 160.852 21.8939 160.316 21.5341 159.938C21.178 159.555 20.6837 159.364 20.0511 159.364C19.6117 159.364 19.2178 159.456 18.8693 159.642C18.5246 159.828 18.2519 160.098 18.0511 160.455C17.8542 160.811 17.7557 161.242 17.7557 161.75ZM28.4361 167.205C27.883 167.205 27.3812 167.1 26.9304 166.892C26.4796 166.68 26.1217 166.375 25.8565 165.977C25.5914 165.576 25.4588 165.091 25.4588 164.523C25.4588 164.023 25.5573 163.617 25.7543 163.307C25.9512 162.992 26.2145 162.746 26.544 162.568C26.8736 162.39 27.2372 162.258 27.6349 162.17C28.0365 162.08 28.4399 162.008 28.8452 161.955C29.3755 161.886 29.8054 161.835 30.1349 161.801C30.4683 161.763 30.7107 161.701 30.8622 161.614C31.0175 161.527 31.0952 161.375 31.0952 161.159V161.114C31.0952 160.553 30.9418 160.117 30.6349 159.807C30.3319 159.496 29.8717 159.341 29.2543 159.341C28.6141 159.341 28.1122 159.481 27.7486 159.761C27.3849 160.042 27.1293 160.341 26.9815 160.659L25.7088 160.205C25.9361 159.674 26.2391 159.261 26.6179 158.966C27.0005 158.667 27.4171 158.458 27.8679 158.341C28.3224 158.22 28.7694 158.159 29.2088 158.159C29.4891 158.159 29.8111 158.193 30.1747 158.261C30.5421 158.326 30.8963 158.46 31.2372 158.665C31.5819 158.869 31.8679 159.178 32.0952 159.591C32.3224 160.004 32.4361 160.557 32.4361 161.25V167H31.0952V165.818H31.027C30.9361 166.008 30.7846 166.21 30.5724 166.426C30.3603 166.642 30.0781 166.826 29.7259 166.977C29.3736 167.129 28.9437 167.205 28.4361 167.205ZM28.6406 166C29.1709 166 29.6179 165.896 29.9815 165.688C30.349 165.479 30.6255 165.21 30.8111 164.881C31.0005 164.551 31.0952 164.205 31.0952 163.841V162.614C31.0384 162.682 30.9134 162.744 30.7202 162.801C30.5308 162.854 30.3111 162.902 30.0611 162.943C29.8149 162.981 29.5743 163.015 29.3395 163.045C29.1084 163.072 28.9209 163.095 28.777 163.114C28.4285 163.159 28.1027 163.233 27.7997 163.335C27.5005 163.434 27.258 163.583 27.0724 163.784C26.8906 163.981 26.7997 164.25 26.7997 164.591C26.7997 165.057 26.9721 165.409 27.3168 165.648C27.6652 165.883 28.1065 166 28.6406 166ZM38.679 158.273V159.409H34.1562V158.273H38.679ZM35.4744 156.182H36.8153V164.5C36.8153 164.879 36.8703 165.163 36.9801 165.352C37.0938 165.538 37.2377 165.663 37.4119 165.727C37.59 165.788 37.7775 165.818 37.9744 165.818C38.1222 165.818 38.2434 165.811 38.3381 165.795C38.4328 165.777 38.5085 165.761 38.5653 165.75L38.8381 166.955C38.7472 166.989 38.6203 167.023 38.4574 167.057C38.2945 167.095 38.0881 167.114 37.8381 167.114C37.4593 167.114 37.0881 167.032 36.7244 166.869C36.3646 166.706 36.0653 166.458 35.8267 166.125C35.5919 165.792 35.4744 165.371 35.4744 164.864V156.182ZM46.0597 170.273C45.8324 170.273 45.6297 170.254 45.4517 170.216C45.2737 170.182 45.1506 170.148 45.0824 170.114L45.4233 168.932C45.7491 169.015 46.0369 169.045 46.2869 169.023C46.5369 169 46.7585 168.888 46.9517 168.688C47.1487 168.491 47.3286 168.17 47.4915 167.727L47.7415 167.045L44.5142 158.273H45.9688L48.3778 165.227H48.4688L50.8778 158.273H52.3324L48.6278 168.273C48.4612 168.723 48.2547 169.097 48.0085 169.392C47.7623 169.691 47.4763 169.913 47.1506 170.057C46.8286 170.201 46.465 170.273 46.0597 170.273ZM57.3352 167.182C56.5473 167.182 55.8561 166.994 55.2614 166.619C54.6705 166.244 54.2083 165.72 53.875 165.045C53.5455 164.371 53.3807 163.583 53.3807 162.682C53.3807 161.773 53.5455 160.979 53.875 160.301C54.2083 159.623 54.6705 159.097 55.2614 158.722C55.8561 158.347 56.5473 158.159 57.3352 158.159C58.1231 158.159 58.8125 158.347 59.4034 158.722C59.9981 159.097 60.4602 159.623 60.7898 160.301C61.1231 160.979 61.2898 161.773 61.2898 162.682C61.2898 163.583 61.1231 164.371 60.7898 165.045C60.4602 165.72 59.9981 166.244 59.4034 166.619C58.8125 166.994 58.1231 167.182 57.3352 167.182ZM57.3352 165.977C57.9337 165.977 58.4261 165.824 58.8125 165.517C59.1989 165.21 59.4848 164.807 59.6705 164.307C59.8561 163.807 59.9489 163.265 59.9489 162.682C59.9489 162.098 59.8561 161.555 59.6705 161.051C59.4848 160.547 59.1989 160.14 58.8125 159.83C58.4261 159.519 57.9337 159.364 57.3352 159.364C56.7367 159.364 56.2443 159.519 55.858 159.83C55.4716 160.14 55.1856 160.547 55 161.051C54.8144 161.555 54.7216 162.098 54.7216 162.682C54.7216 163.265 54.8144 163.807 55 164.307C55.1856 164.807 55.4716 165.21 55.858 165.517C56.2443 165.824 56.7367 165.977 57.3352 165.977ZM68.8366 163.432V158.273H70.1776V167H68.8366V165.523H68.7457C68.5412 165.966 68.223 166.343 67.7912 166.653C67.3594 166.96 66.8139 167.114 66.1548 167.114C65.6094 167.114 65.1245 166.994 64.7003 166.756C64.276 166.513 63.9427 166.15 63.7003 165.665C63.4579 165.176 63.3366 164.561 63.3366 163.818V158.273H64.6776V163.727C64.6776 164.364 64.8556 164.871 65.2116 165.25C65.5715 165.629 66.0298 165.818 66.5866 165.818C66.92 165.818 67.259 165.733 67.6037 165.562C67.9522 165.392 68.2438 165.131 68.4787 164.778C68.7173 164.426 68.8366 163.977 68.8366 163.432ZM74.0497 155.364V156.386C74.0497 156.697 73.9929 157.028 73.8793 157.381C73.7694 157.729 73.6065 158.068 73.3906 158.398C73.1785 158.723 72.9209 159.008 72.6179 159.25L71.8906 158.659C72.1293 158.318 72.3357 157.964 72.5099 157.597C72.688 157.225 72.777 156.83 72.777 156.409V155.364H74.0497ZM75.4773 167V158.273H76.7727V159.591H76.8636C77.0227 159.159 77.3106 158.809 77.7273 158.54C78.1439 158.271 78.6136 158.136 79.1364 158.136C79.2348 158.136 79.358 158.138 79.5057 158.142C79.6534 158.146 79.7652 158.152 79.8409 158.159V159.523C79.7955 159.511 79.6913 159.494 79.5284 159.472C79.3693 159.445 79.2008 159.432 79.0227 159.432C78.5985 159.432 78.2197 159.521 77.8864 159.699C77.5568 159.873 77.2955 160.116 77.1023 160.426C76.9129 160.733 76.8182 161.083 76.8182 161.477V167H75.4773ZM84.8239 167.182C83.983 167.182 83.2576 166.996 82.6477 166.625C82.0417 166.25 81.5739 165.727 81.2443 165.057C80.9186 164.383 80.7557 163.598 80.7557 162.705C80.7557 161.811 80.9186 161.023 81.2443 160.341C81.5739 159.655 82.0322 159.121 82.6193 158.739C83.2102 158.352 83.8996 158.159 84.6875 158.159C85.142 158.159 85.5909 158.235 86.0341 158.386C86.4773 158.538 86.8807 158.784 87.2443 159.125C87.608 159.462 87.8977 159.909 88.1136 160.466C88.3295 161.023 88.4375 161.708 88.4375 162.523V163.091H81.7102V161.932H87.0739C87.0739 161.439 86.9754 161 86.7784 160.614C86.5852 160.227 86.3087 159.922 85.9489 159.699C85.5928 159.475 85.1723 159.364 84.6875 159.364C84.1534 159.364 83.6913 159.496 83.3011 159.761C82.9148 160.023 82.6174 160.364 82.4091 160.784C82.2008 161.205 82.0966 161.655 82.0966 162.136V162.909C82.0966 163.568 82.2102 164.127 82.4375 164.585C82.6686 165.04 82.9886 165.386 83.3977 165.625C83.8068 165.86 84.2822 165.977 84.8239 165.977C85.1761 165.977 85.4943 165.928 85.7784 165.83C86.0663 165.727 86.3144 165.576 86.5227 165.375C86.7311 165.17 86.892 164.917 87.0057 164.614L88.3011 164.977C88.1648 165.417 87.9356 165.803 87.6136 166.136C87.2917 166.466 86.8939 166.723 86.4205 166.909C85.947 167.091 85.4148 167.182 84.8239 167.182ZM7.40909 179.227L6.20455 179.568C6.12879 179.367 6.01705 179.172 5.86932 178.983C5.72538 178.79 5.52841 178.631 5.27841 178.506C5.02841 178.381 4.70833 178.318 4.31818 178.318C3.78409 178.318 3.33902 178.441 2.98295 178.688C2.63068 178.93 2.45455 179.239 2.45455 179.614C2.45455 179.947 2.57576 180.21 2.81818 180.403C3.06061 180.597 3.43939 180.758 3.95455 180.886L5.25 181.205C6.0303 181.394 6.61174 181.684 6.99432 182.074C7.37689 182.46 7.56818 182.958 7.56818 183.568C7.56818 184.068 7.42424 184.515 7.13636 184.909C6.85227 185.303 6.45455 185.614 5.94318 185.841C5.43182 186.068 4.83712 186.182 4.15909 186.182C3.26894 186.182 2.5322 185.989 1.94886 185.602C1.36553 185.216 0.996212 184.652 0.840909 183.909L2.11364 183.591C2.23485 184.061 2.46402 184.413 2.80114 184.648C3.14205 184.883 3.58712 185 4.13636 185C4.76136 185 5.25758 184.867 5.625 184.602C5.99621 184.333 6.18182 184.011 6.18182 183.636C6.18182 183.333 6.07576 183.08 5.86364 182.875C5.65152 182.667 5.32576 182.511 4.88636 182.409L3.43182 182.068C2.63258 181.879 2.04545 181.585 1.67045 181.188C1.29924 180.786 1.11364 180.284 1.11364 179.682C1.11364 179.189 1.25189 178.754 1.52841 178.375C1.80871 177.996 2.18939 177.699 2.67045 177.483C3.1553 177.267 3.70455 177.159 4.31818 177.159C5.18182 177.159 5.85985 177.348 6.35227 177.727C6.84848 178.106 7.20076 178.606 7.40909 179.227ZM10.8366 182.818L10.8139 181.159H11.0866L14.9048 177.273H16.5639L12.4957 181.386H12.3821L10.8366 182.818ZM9.58665 186V174.364H10.9276V186H9.58665ZM15.1321 186L11.723 181.682L12.6776 180.75L16.8366 186H15.1321ZM18.2898 186V177.273H19.6307V186H18.2898ZM18.9716 175.818C18.7102 175.818 18.4848 175.729 18.2955 175.551C18.1098 175.373 18.017 175.159 18.017 174.909C18.017 174.659 18.1098 174.445 18.2955 174.267C18.4848 174.089 18.7102 174 18.9716 174C19.233 174 19.4564 174.089 19.642 174.267C19.8314 174.445 19.9261 174.659 19.9261 174.909C19.9261 175.159 19.8314 175.373 19.642 175.551C19.4564 175.729 19.233 175.818 18.9716 175.818ZM23.4276 174.364V186H22.0866V174.364H23.4276ZM27.2244 174.364V186H25.8835V174.364H27.2244ZM33.3395 186.182C32.4986 186.182 31.7732 185.996 31.1634 185.625C30.5573 185.25 30.0895 184.727 29.7599 184.057C29.4342 183.383 29.2713 182.598 29.2713 181.705C29.2713 180.811 29.4342 180.023 29.7599 179.341C30.0895 178.655 30.5478 178.121 31.1349 177.739C31.7259 177.352 32.4152 177.159 33.2031 177.159C33.6577 177.159 34.1065 177.235 34.5497 177.386C34.9929 177.538 35.3963 177.784 35.7599 178.125C36.1236 178.462 36.4134 178.909 36.6293 179.466C36.8452 180.023 36.9531 180.708 36.9531 181.523V182.091H30.2259V180.932H35.5895C35.5895 180.439 35.491 180 35.294 179.614C35.1009 179.227 34.8243 178.922 34.4645 178.699C34.1084 178.475 33.688 178.364 33.2031 178.364C32.669 178.364 32.2069 178.496 31.8168 178.761C31.4304 179.023 31.133 179.364 30.9247 179.784C30.7164 180.205 30.6122 180.655 30.6122 181.136V181.909C30.6122 182.568 30.7259 183.127 30.9531 183.585C31.1842 184.04 31.5043 184.386 31.9134 184.625C32.3224 184.86 32.7978 184.977 33.3395 184.977C33.6918 184.977 34.0099 184.928 34.294 184.83C34.5819 184.727 34.83 184.576 35.0384 184.375C35.2467 184.17 35.4077 183.917 35.5213 183.614L36.8168 183.977C36.6804 184.417 36.4512 184.803 36.1293 185.136C35.8073 185.466 35.4096 185.723 34.9361 185.909C34.4626 186.091 33.9304 186.182 33.3395 186.182ZM42.2884 186.182C41.5611 186.182 40.919 185.998 40.3622 185.631C39.8054 185.259 39.3698 184.737 39.0554 184.062C38.741 183.384 38.5838 182.583 38.5838 181.659C38.5838 180.742 38.741 179.947 39.0554 179.273C39.3698 178.598 39.8073 178.078 40.3679 177.71C40.9285 177.343 41.5762 177.159 42.3111 177.159C42.8793 177.159 43.3281 177.254 43.6577 177.443C43.991 177.629 44.2448 177.841 44.419 178.08C44.5971 178.314 44.7353 178.508 44.8338 178.659H44.9474V174.364H46.2884V186H44.9929V184.659H44.8338C44.7353 184.818 44.5952 185.019 44.4134 185.261C44.2315 185.5 43.9721 185.714 43.6349 185.903C43.2978 186.089 42.849 186.182 42.2884 186.182ZM42.4702 184.977C43.008 184.977 43.4626 184.837 43.8338 184.557C44.205 184.273 44.4872 183.881 44.6804 183.381C44.8736 182.877 44.9702 182.295 44.9702 181.636C44.9702 180.985 44.8755 180.415 44.6861 179.926C44.4967 179.434 44.2164 179.051 43.8452 178.778C43.474 178.502 43.0156 178.364 42.4702 178.364C41.902 178.364 41.4285 178.509 41.0497 178.801C40.6747 179.089 40.3925 179.481 40.2031 179.977C40.0175 180.47 39.9247 181.023 39.9247 181.636C39.9247 182.258 40.0194 182.822 40.2088 183.33C40.402 183.833 40.6861 184.235 41.0611 184.534C41.4399 184.83 41.9096 184.977 42.4702 184.977ZM55.9986 186.205C55.4455 186.205 54.9437 186.1 54.4929 185.892C54.0421 185.68 53.6842 185.375 53.419 184.977C53.1539 184.576 53.0213 184.091 53.0213 183.523C53.0213 183.023 53.1198 182.617 53.3168 182.307C53.5137 181.992 53.777 181.746 54.1065 181.568C54.4361 181.39 54.7997 181.258 55.1974 181.17C55.599 181.08 56.0024 181.008 56.4077 180.955C56.938 180.886 57.3679 180.835 57.6974 180.801C58.0308 180.763 58.2732 180.701 58.4247 180.614C58.58 180.527 58.6577 180.375 58.6577 180.159V180.114C58.6577 179.553 58.5043 179.117 58.1974 178.807C57.8944 178.496 57.4342 178.341 56.8168 178.341C56.1766 178.341 55.6747 178.481 55.3111 178.761C54.9474 179.042 54.6918 179.341 54.544 179.659L53.2713 179.205C53.4986 178.674 53.8016 178.261 54.1804 177.966C54.563 177.667 54.9796 177.458 55.4304 177.341C55.8849 177.22 56.3319 177.159 56.7713 177.159C57.0516 177.159 57.3736 177.193 57.7372 177.261C58.1046 177.326 58.4588 177.46 58.7997 177.665C59.1444 177.869 59.4304 178.178 59.6577 178.591C59.8849 179.004 59.9986 179.557 59.9986 180.25V186H58.6577V184.818H58.5895C58.4986 185.008 58.3471 185.21 58.1349 185.426C57.9228 185.642 57.6406 185.826 57.2884 185.977C56.9361 186.129 56.5062 186.205 55.9986 186.205ZM56.2031 185C56.7334 185 57.1804 184.896 57.544 184.688C57.9115 184.479 58.188 184.21 58.3736 183.881C58.563 183.551 58.6577 183.205 58.6577 182.841V181.614C58.6009 181.682 58.4759 181.744 58.2827 181.801C58.0933 181.854 57.8736 181.902 57.6236 181.943C57.3774 181.981 57.1368 182.015 56.902 182.045C56.6709 182.072 56.4834 182.095 56.3395 182.114C55.991 182.159 55.6652 182.233 55.3622 182.335C55.063 182.434 54.8205 182.583 54.6349 182.784C54.4531 182.981 54.3622 183.25 54.3622 183.591C54.3622 184.057 54.5346 184.409 54.8793 184.648C55.2277 184.883 55.669 185 56.2031 185ZM66.2415 177.273V178.409H61.7188V177.273H66.2415ZM63.0369 175.182H64.3778V183.5C64.3778 183.879 64.4328 184.163 64.5426 184.352C64.6563 184.538 64.8002 184.663 64.9744 184.727C65.1525 184.788 65.34 184.818 65.5369 184.818C65.6847 184.818 65.8059 184.811 65.9006 184.795C65.9953 184.777 66.071 184.761 66.1278 184.75L66.4006 185.955C66.3097 185.989 66.1828 186.023 66.0199 186.057C65.857 186.095 65.6506 186.114 65.4006 186.114C65.0218 186.114 64.6506 186.032 64.2869 185.869C63.9271 185.706 63.6278 185.458 63.3892 185.125C63.1544 184.792 63.0369 184.371 63.0369 183.864V175.182Z" fill="white"/>
<path d="M418.788 167L415.607 155.364H417.038L419.47 164.841H419.584L422.061 155.364H423.652L426.129 164.841H426.243L428.675 155.364H430.107L426.925 167H425.47L422.902 157.727H422.811L420.243 167H418.788ZM433.021 161.75V167H431.68V155.364H433.021V159.636H433.135C433.339 159.186 433.646 158.828 434.055 158.562C434.468 158.294 435.018 158.159 435.703 158.159C436.298 158.159 436.819 158.278 437.266 158.517C437.713 158.752 438.059 159.114 438.305 159.602C438.555 160.087 438.68 160.705 438.68 161.455V167H437.339V161.545C437.339 160.852 437.16 160.316 436.8 159.938C436.444 159.555 435.949 159.364 435.317 159.364C434.877 159.364 434.483 159.456 434.135 159.642C433.79 159.828 433.518 160.098 433.317 160.455C433.12 160.811 433.021 161.242 433.021 161.75ZM443.702 167.205C443.149 167.205 442.647 167.1 442.196 166.892C441.745 166.68 441.387 166.375 441.122 165.977C440.857 165.576 440.724 165.091 440.724 164.523C440.724 164.023 440.823 163.617 441.02 163.307C441.217 162.992 441.48 162.746 441.81 162.568C442.139 162.39 442.503 162.258 442.901 162.17C443.302 162.08 443.705 162.008 444.111 161.955C444.641 161.886 445.071 161.835 445.401 161.801C445.734 161.763 445.976 161.701 446.128 161.614C446.283 161.527 446.361 161.375 446.361 161.159V161.114C446.361 160.553 446.207 160.117 445.901 159.807C445.598 159.496 445.137 159.341 444.52 159.341C443.88 159.341 443.378 159.481 443.014 159.761C442.651 160.042 442.395 160.341 442.247 160.659L440.974 160.205C441.202 159.674 441.505 159.261 441.884 158.966C442.266 158.667 442.683 158.458 443.134 158.341C443.588 158.22 444.035 158.159 444.474 158.159C444.755 158.159 445.077 158.193 445.44 158.261C445.808 158.326 446.162 158.46 446.503 158.665C446.848 158.869 447.134 159.178 447.361 159.591C447.588 160.004 447.702 160.557 447.702 161.25V167H446.361V165.818H446.293C446.202 166.008 446.05 166.21 445.838 166.426C445.626 166.642 445.344 166.826 444.991 166.977C444.639 167.129 444.209 167.205 443.702 167.205ZM443.906 166C444.437 166 444.884 165.896 445.247 165.688C445.615 165.479 445.891 165.21 446.077 164.881C446.266 164.551 446.361 164.205 446.361 163.841V162.614C446.304 162.682 446.179 162.744 445.986 162.801C445.796 162.854 445.577 162.902 445.327 162.943C445.08 162.981 444.84 163.015 444.605 163.045C444.374 163.072 444.187 163.095 444.043 163.114C443.694 163.159 443.368 163.233 443.065 163.335C442.766 163.434 442.524 163.583 442.338 163.784C442.156 163.981 442.065 164.25 442.065 164.591C442.065 165.057 442.238 165.409 442.582 165.648C442.931 165.883 443.372 166 443.906 166ZM453.945 158.273V159.409H449.422V158.273H453.945ZM450.74 156.182H452.081V164.5C452.081 164.879 452.136 165.163 452.246 165.352C452.359 165.538 452.503 165.663 452.678 165.727C452.856 165.788 453.043 165.818 453.24 165.818C453.388 165.818 453.509 165.811 453.604 165.795C453.698 165.777 453.774 165.761 453.831 165.75L454.104 166.955C454.013 166.989 453.886 167.023 453.723 167.057C453.56 167.095 453.354 167.114 453.104 167.114C452.725 167.114 452.354 167.032 451.99 166.869C451.63 166.706 451.331 166.458 451.092 166.125C450.857 165.792 450.74 165.371 450.74 164.864V156.182ZM464.257 158.273V159.409H459.734V158.273H464.257ZM461.053 156.182H462.393V164.5C462.393 164.879 462.448 165.163 462.558 165.352C462.672 165.538 462.816 165.663 462.99 165.727C463.168 165.788 463.356 165.818 463.553 165.818C463.7 165.818 463.821 165.811 463.916 165.795C464.011 165.777 464.087 165.761 464.143 165.75L464.416 166.955C464.325 166.989 464.198 167.023 464.036 167.057C463.873 167.095 463.666 167.114 463.416 167.114C463.037 167.114 462.666 167.032 462.303 166.869C461.943 166.706 461.643 166.458 461.405 166.125C461.17 165.792 461.053 165.371 461.053 164.864V156.182ZM467.803 161.75V167H466.462V155.364H467.803V159.636H467.916C468.121 159.186 468.428 158.828 468.837 158.562C469.25 158.294 469.799 158.159 470.484 158.159C471.079 158.159 471.6 158.278 472.047 158.517C472.494 158.752 472.84 159.114 473.087 159.602C473.337 160.087 473.462 160.705 473.462 161.455V167H472.121V161.545C472.121 160.852 471.941 160.316 471.581 159.938C471.225 159.555 470.731 159.364 470.098 159.364C469.659 159.364 469.265 159.456 468.916 159.642C468.571 159.828 468.299 160.098 468.098 160.455C467.901 160.811 467.803 161.242 467.803 161.75ZM479.574 167.182C478.733 167.182 478.008 166.996 477.398 166.625C476.792 166.25 476.324 165.727 475.994 165.057C475.669 164.383 475.506 163.598 475.506 162.705C475.506 161.811 475.669 161.023 475.994 160.341C476.324 159.655 476.782 159.121 477.369 158.739C477.96 158.352 478.65 158.159 479.438 158.159C479.892 158.159 480.341 158.235 480.784 158.386C481.227 158.538 481.631 158.784 481.994 159.125C482.358 159.462 482.648 159.909 482.864 160.466C483.08 161.023 483.188 161.708 483.188 162.523V163.091H476.46V161.932H481.824C481.824 161.439 481.725 161 481.528 160.614C481.335 160.227 481.059 159.922 480.699 159.699C480.343 159.475 479.922 159.364 479.438 159.364C478.903 159.364 478.441 159.496 478.051 159.761C477.665 160.023 477.367 160.364 477.159 160.784C476.951 161.205 476.847 161.655 476.847 162.136V162.909C476.847 163.568 476.96 164.127 477.188 164.585C477.419 165.04 477.739 165.386 478.148 165.625C478.557 165.86 479.032 165.977 479.574 165.977C479.926 165.977 480.244 165.928 480.528 165.83C480.816 165.727 481.064 165.576 481.273 165.375C481.481 165.17 481.642 164.917 481.756 164.614L483.051 164.977C482.915 165.417 482.686 165.803 482.364 166.136C482.042 166.466 481.644 166.723 481.17 166.909C480.697 167.091 480.165 167.182 479.574 167.182ZM394.486 186L391.827 177.273H393.236L395.122 183.955H395.213L397.077 177.273H398.509L400.349 183.932H400.44L402.327 177.273H403.736L401.077 186H399.759L397.849 179.295H397.713L395.804 186H394.486ZM408.757 186.182C407.969 186.182 407.278 185.994 406.683 185.619C406.092 185.244 405.63 184.72 405.297 184.045C404.967 183.371 404.803 182.583 404.803 181.682C404.803 180.773 404.967 179.979 405.297 179.301C405.63 178.623 406.092 178.097 406.683 177.722C407.278 177.347 407.969 177.159 408.757 177.159C409.545 177.159 410.234 177.347 410.825 177.722C411.42 178.097 411.882 178.623 412.212 179.301C412.545 179.979 412.712 180.773 412.712 181.682C412.712 182.583 412.545 183.371 412.212 184.045C411.882 184.72 411.42 185.244 410.825 185.619C410.234 185.994 409.545 186.182 408.757 186.182ZM408.757 184.977C409.356 184.977 409.848 184.824 410.234 184.517C410.621 184.21 410.907 183.807 411.092 183.307C411.278 182.807 411.371 182.265 411.371 181.682C411.371 181.098 411.278 180.555 411.092 180.051C410.907 179.547 410.621 179.14 410.234 178.83C409.848 178.519 409.356 178.364 408.757 178.364C408.159 178.364 407.666 178.519 407.28 178.83C406.893 179.14 406.607 179.547 406.422 180.051C406.236 180.555 406.143 181.098 406.143 181.682C406.143 182.265 406.236 182.807 406.422 183.307C406.607 183.807 406.893 184.21 407.28 184.517C407.666 184.824 408.159 184.977 408.757 184.977ZM414.759 186V177.273H416.054V178.591H416.145C416.304 178.159 416.592 177.809 417.009 177.54C417.425 177.271 417.895 177.136 418.418 177.136C418.516 177.136 418.639 177.138 418.787 177.142C418.935 177.146 419.046 177.152 419.122 177.159V178.523C419.077 178.511 418.973 178.494 418.81 178.472C418.651 178.445 418.482 178.432 418.304 178.432C417.88 178.432 417.501 178.521 417.168 178.699C416.838 178.873 416.577 179.116 416.384 179.426C416.194 179.733 416.099 180.083 416.099 180.477V186H414.759ZM422.053 174.364V186H420.712V174.364H422.053ZM427.804 186.182C427.077 186.182 426.435 185.998 425.878 185.631C425.321 185.259 424.885 184.737 424.571 184.062C424.257 183.384 424.099 182.583 424.099 181.659C424.099 180.742 424.257 179.947 424.571 179.273C424.885 178.598 425.323 178.078 425.884 177.71C426.444 177.343 427.092 177.159 427.827 177.159C428.395 177.159 428.844 177.254 429.173 177.443C429.507 177.629 429.76 177.841 429.935 178.08C430.113 178.314 430.251 178.508 430.349 178.659H430.463V174.364H431.804V186H430.509V184.659H430.349C430.251 184.818 430.111 185.019 429.929 185.261C429.747 185.5 429.488 185.714 429.151 185.903C428.813 186.089 428.365 186.182 427.804 186.182ZM427.986 184.977C428.524 184.977 428.978 184.837 429.349 184.557C429.721 184.273 430.003 183.881 430.196 183.381C430.389 182.877 430.486 182.295 430.486 181.636C430.486 180.985 430.391 180.415 430.202 179.926C430.012 179.434 429.732 179.051 429.361 178.778C428.99 178.502 428.531 178.364 427.986 178.364C427.418 178.364 426.944 178.509 426.565 178.801C426.19 179.089 425.908 179.481 425.719 179.977C425.533 180.47 425.44 181.023 425.44 181.636C425.44 182.258 425.535 182.822 425.724 183.33C425.918 183.833 426.202 184.235 426.577 184.534C426.955 184.83 427.425 184.977 427.986 184.977ZM440.287 180.75V186H438.946V177.273H440.241V178.636H440.355C440.56 178.193 440.87 177.837 441.287 177.568C441.704 177.295 442.241 177.159 442.901 177.159C443.491 177.159 444.009 177.28 444.452 177.523C444.895 177.761 445.24 178.125 445.486 178.614C445.732 179.098 445.855 179.712 445.855 180.455V186H444.514V180.545C444.514 179.86 444.336 179.326 443.98 178.943C443.624 178.557 443.135 178.364 442.514 178.364C442.086 178.364 441.704 178.456 441.366 178.642C441.033 178.828 440.77 179.098 440.577 179.455C440.384 179.811 440.287 180.242 440.287 180.75ZM451.964 186.182C451.124 186.182 450.398 185.996 449.788 185.625C449.182 185.25 448.714 184.727 448.385 184.057C448.059 183.383 447.896 182.598 447.896 181.705C447.896 180.811 448.059 180.023 448.385 179.341C448.714 178.655 449.173 178.121 449.76 177.739C450.351 177.352 451.04 177.159 451.828 177.159C452.283 177.159 452.732 177.235 453.175 177.386C453.618 177.538 454.021 177.784 454.385 178.125C454.749 178.462 455.038 178.909 455.254 179.466C455.47 180.023 455.578 180.708 455.578 181.523V182.091H448.851V180.932H454.214C454.214 180.439 454.116 180 453.919 179.614C453.726 179.227 453.449 178.922 453.089 178.699C452.733 178.475 452.313 178.364 451.828 178.364C451.294 178.364 450.832 178.496 450.442 178.761C450.055 179.023 449.758 179.364 449.55 179.784C449.341 180.205 449.237 180.655 449.237 181.136V181.909C449.237 182.568 449.351 183.127 449.578 183.585C449.809 184.04 450.129 184.386 450.538 184.625C450.947 184.86 451.423 184.977 451.964 184.977C452.317 184.977 452.635 184.928 452.919 184.83C453.207 184.727 453.455 184.576 453.663 184.375C453.872 184.17 454.033 183.917 454.146 183.614L455.442 183.977C455.305 184.417 455.076 184.803 454.754 185.136C454.432 185.466 454.035 185.723 453.561 185.909C453.088 186.091 452.555 186.182 451.964 186.182ZM461.277 186.182C460.436 186.182 459.711 185.996 459.101 185.625C458.495 185.25 458.027 184.727 457.697 184.057C457.372 183.383 457.209 182.598 457.209 181.705C457.209 180.811 457.372 180.023 457.697 179.341C458.027 178.655 458.485 178.121 459.072 177.739C459.663 177.352 460.353 177.159 461.141 177.159C461.595 177.159 462.044 177.235 462.487 177.386C462.93 177.538 463.334 177.784 463.697 178.125C464.061 178.462 464.351 178.909 464.567 179.466C464.783 180.023 464.891 180.708 464.891 181.523V182.091H458.163V180.932H463.527C463.527 180.439 463.429 180 463.232 179.614C463.038 179.227 462.762 178.922 462.402 178.699C462.046 178.475 461.625 178.364 461.141 178.364C460.607 178.364 460.144 178.496 459.754 178.761C459.368 179.023 459.071 179.364 458.862 179.784C458.654 180.205 458.55 180.655 458.55 181.136V181.909C458.55 182.568 458.663 183.127 458.891 183.585C459.122 184.04 459.442 184.386 459.851 184.625C460.26 184.86 460.735 184.977 461.277 184.977C461.629 184.977 461.947 184.928 462.232 184.83C462.519 184.727 462.768 184.576 462.976 184.375C463.184 184.17 463.345 183.917 463.459 183.614L464.754 183.977C464.618 184.417 464.389 184.803 464.067 185.136C463.745 185.466 463.347 185.723 462.874 185.909C462.4 186.091 461.868 186.182 461.277 186.182ZM470.226 186.182C469.499 186.182 468.857 185.998 468.3 185.631C467.743 185.259 467.307 184.737 466.993 184.062C466.679 183.384 466.521 182.583 466.521 181.659C466.521 180.742 466.679 179.947 466.993 179.273C467.307 178.598 467.745 178.078 468.305 177.71C468.866 177.343 469.514 177.159 470.249 177.159C470.817 177.159 471.266 177.254 471.595 177.443C471.929 177.629 472.182 177.841 472.357 178.08C472.535 178.314 472.673 178.508 472.771 178.659H472.885V174.364H474.226V186H472.93V184.659H472.771C472.673 184.818 472.533 185.019 472.351 185.261C472.169 185.5 471.91 185.714 471.572 185.903C471.235 186.089 470.786 186.182 470.226 186.182ZM470.408 184.977C470.946 184.977 471.4 184.837 471.771 184.557C472.143 184.273 472.425 183.881 472.618 183.381C472.811 182.877 472.908 182.295 472.908 181.636C472.908 180.985 472.813 180.415 472.624 179.926C472.434 179.434 472.154 179.051 471.783 178.778C471.411 178.502 470.953 178.364 470.408 178.364C469.839 178.364 469.366 178.509 468.987 178.801C468.612 179.089 468.33 179.481 468.141 179.977C467.955 180.47 467.862 181.023 467.862 181.636C467.862 182.258 467.957 182.822 468.146 183.33C468.339 183.833 468.624 184.235 468.999 184.534C469.377 184.83 469.847 184.977 470.408 184.977ZM483.05 179.227L481.845 179.568C481.769 179.367 481.658 179.172 481.51 178.983C481.366 178.79 481.169 178.631 480.919 178.506C480.669 178.381 480.349 178.318 479.959 178.318C479.425 178.318 478.98 178.441 478.624 178.688C478.271 178.93 478.095 179.239 478.095 179.614C478.095 179.947 478.216 180.21 478.459 180.403C478.701 180.597 479.08 180.758 479.595 180.886L480.891 181.205C481.671 181.394 482.252 181.684 482.635 182.074C483.018 182.46 483.209 182.958 483.209 183.568C483.209 184.068 483.065 184.515 482.777 184.909C482.493 185.303 482.095 185.614 481.584 185.841C481.072 186.068 480.478 186.182 479.8 186.182C478.91 186.182 478.173 185.989 477.589 185.602C477.006 185.216 476.637 184.652 476.482 183.909L477.754 183.591C477.875 184.061 478.105 184.413 478.442 184.648C478.783 184.883 479.228 185 479.777 185C480.402 185 480.898 184.867 481.266 184.602C481.637 184.333 481.822 184.011 481.822 183.636C481.822 183.333 481.716 183.08 481.504 182.875C481.292 182.667 480.966 182.511 480.527 182.409L479.072 182.068C478.273 181.879 477.686 181.585 477.311 181.188C476.94 180.786 476.754 180.284 476.754 179.682C476.754 179.189 476.893 178.754 477.169 178.375C477.449 177.996 477.83 177.699 478.311 177.483C478.796 177.267 479.345 177.159 479.959 177.159C480.822 177.159 481.5 177.348 481.993 177.727C482.489 178.106 482.841 178.606 483.05 179.227Z" fill="white"/>
</svg>
