<svg width="400" height="300" viewBox="0 0 400 300" fill="none" xmlns="http://www.w3.org/2000/svg">
<line x1="213.646" y1="146.646" x2="227.646" y2="132.646" stroke="#CBD5E0"/>
<line x1="198.51" y1="141.902" x2="203.51" y2="116.902" stroke="#CBD5E0"/>
<line x1="198.602" y1="142.303" x2="179.602" y2="117.303" stroke="#CBD5E0"/>
<line x1="172.474" y1="92.8419" x2="180.474" y2="116.842" stroke="#CBD5E0"/>
<line x1="196.158" y1="85.4743" x2="172.158" y2="93.4743" stroke="#CBD5E0"/>
<line x1="220.361" y1="60.3463" x2="196.361" y2="85.3463" stroke="#CBD5E0"/>
<line x1="209.393" y1="45.6911" x2="220.393" y2="59.6911" stroke="#CBD5E0"/>
<line x1="200.442" y1="28.7661" x2="209.442" y2="45.7661" stroke="#CBD5E0"/>
<line x1="179.616" y1="52.6799" x2="199.616" y2="28.6799" stroke="#CBD5E0"/>
<line x1="220.027" y1="59.5007" x2="257.027" y2="61.5007" stroke="#CBD5E0"/>
<line x1="219.745" y1="59.5699" x2="246.745" y2="43.5699" stroke="#CBD5E0"/>
<line x1="271.98" y1="45.4996" x2="246.98" y2="44.4996" stroke="#CBD5E0"/>
<line x1="287.257" y1="36.4287" x2="272.257" y2="45.4287" stroke="#CBD5E0"/>
<line x1="183.604" y1="151.305" x2="163.604" y2="125.305" stroke="#CBD5E0"/>
<line x1="163.636" y1="126.343" x2="147.636" y2="109.343" stroke="#CBD5E0"/>
<line x1="148.265" y1="109.424" x2="124.265" y2="124.424" stroke="#CBD5E0"/>
<line x1="116.308" y1="84.606" x2="148.308" y2="109.606" stroke="#CBD5E0"/>
<line x1="92.3607" y1="60.6537" x2="116.361" y2="85.6537" stroke="#CBD5E0"/>
<line x1="123.511" y1="124.103" x2="115.511" y2="86.103" stroke="#CBD5E0"/>
<line x1="83.5149" y1="141.121" x2="75.5149" y2="109.121" stroke="#CBD5E0"/>
<line x1="60" y1="93.5" x2="44" y2="93.5" stroke="#CBD5E0"/>
<line x1="60.3536" y1="92.6464" x2="76.3536" y2="108.646" stroke="#CBD5E0"/>
<line x1="59.8419" y1="92.5257" x2="83.8419" y2="84.5257" stroke="#CBD5E0"/>
<line x1="116" y1="85.5" x2="84" y2="85.5" stroke="#CBD5E0"/>
<line x1="124.485" y1="53.1213" x2="116.485" y2="85.1213" stroke="#CBD5E0"/>
<line x1="113.451" y1="29.7843" x2="124.451" y2="52.7843" stroke="#CBD5E0"/>
<line x1="79.8822" y1="37.5141" x2="112.882" y2="29.5141" stroke="#CBD5E0"/>
<line x1="91.5567" y1="61.2313" x2="79.5567" y2="38.2313" stroke="#CBD5E0"/>
<line x1="124.121" y1="53.4851" x2="92.1213" y2="61.4851" stroke="#CBD5E0"/>
<line x1="145.414" y1="22.2804" x2="124.414" y2="53.2804" stroke="#CBD5E0"/>
<line x1="179.675" y1="52.3796" x2="144.675" y2="22.3796" stroke="#CBD5E0"/>
<line x1="195.55" y1="85.2181" x2="179.55" y2="52.2181" stroke="#CBD5E0"/>
<line x1="203.515" y1="117.121" x2="195.515" y2="85.1213" stroke="#CBD5E0"/>
<line x1="218.248" y1="109.434" x2="204.248" y2="117.434" stroke="#CBD5E0"/>
<line x1="260.265" y1="84.424" x2="220.265" y2="109.424" stroke="#CBD5E0"/>
<line x1="257.488" y1="61.8892" x2="262.488" y2="83.8892" stroke="#CBD5E0"/>
<line x1="282.121" y1="79.4851" x2="262.121" y2="84.4851" stroke="#CBD5E0"/>
<line x1="247.431" y1="43.7465" x2="257.431" y2="60.7465" stroke="#CBD5E0"/>
<line x1="236.443" y1="21.768" x2="247.443" y2="42.768" stroke="#CBD5E0"/>
<line x1="265.177" y1="12.4675" x2="236.177" y2="23.4675" stroke="#CBD5E0"/>
<line x1="281.521" y1="79.145" x2="271.521" y2="46.145" stroke="#CBD5E0"/>
<line x1="183.964" y1="151.499" x2="155.964" y2="149.499" stroke="#CBD5E0"/>
<line x1="184.3" y1="152.4" x2="156.3" y2="173.4" stroke="#CBD5E0"/>
<line x1="200.431" y1="160.254" x2="180.431" y2="194.254" stroke="#CBD5E0"/>
<line x1="195.646" y1="210.354" x2="179.646" y2="194.354" stroke="#CBD5E0"/>
<line x1="179.574" y1="235.738" x2="195.574" y2="209.738" stroke="#CBD5E0"/>
<line x1="155.979" y1="236.5" x2="179.979" y2="235.5" stroke="#CBD5E0"/>
<line x1="147.526" y1="260.842" x2="155.526" y2="236.842" stroke="#CBD5E0"/>
<line x1="132.354" y1="244.646" x2="148.354" y2="260.646" stroke="#CBD5E0"/>
<line x1="147.5" y1="293" x2="147.5" y2="261" stroke="#CBD5E0"/>
<line x1="171.514" y1="268.882" x2="179.514" y2="235.882" stroke="#CBD5E0"/>
<line x1="172.277" y1="268.584" x2="196.277" y2="284.584" stroke="#CBD5E0"/>
<line x1="211.776" y1="293.447" x2="195.776" y2="285.447" stroke="#CBD5E0"/>
<line x1="195.723" y1="284.584" x2="219.723" y2="268.584" stroke="#CBD5E0"/>
<line x1="220.27" y1="268.579" x2="245.27" y2="284.579" stroke="#CBD5E0"/>
<line x1="257.464" y1="254.186" x2="245.464" y2="284.186" stroke="#CBD5E0"/>
<line x1="256.526" y1="254.158" x2="248.526" y2="230.158" stroke="#CBD5E0"/>
<line x1="256.632" y1="253.661" x2="279.632" y2="228.661" stroke="#CBD5E0"/>
<line x1="277.501" y1="268.975" x2="279.501" y2="228.975" stroke="#CBD5E0"/>
<line x1="288.523" y1="285.849" x2="301.523" y2="244.849" stroke="#CBD5E0"/>
<line x1="245.011" y1="284.5" x2="289.011" y2="285.5" stroke="#CBD5E0"/>
<line x1="200.431" y1="159.746" x2="220.431" y2="193.746" stroke="#CBD5E0"/>
<line x1="200.3" y1="159.6" x2="228.3" y2="180.6" stroke="#CBD5E0"/>
<line x1="251.879" y1="187.485" x2="227.879" y2="181.485" stroke="#CBD5E0"/>
<line x1="267.636" y1="204.343" x2="251.636" y2="187.343" stroke="#CBD5E0"/>
<line x1="268.404" y1="204.295" x2="249.404" y2="230.295" stroke="#CBD5E0"/>
<line x1="280.556" y1="229.231" x2="267.556" y2="204.231" stroke="#CBD5E0"/>
<line x1="302.706" y1="245.404" x2="280.706" y2="229.404" stroke="#CBD5E0"/>
<line x1="320.6" y1="269.3" x2="302.6" y2="245.3" stroke="#CBD5E0"/>
<line x1="352.865" y1="278.481" x2="320.865" y2="269.481" stroke="#CBD5E0"/>
<line x1="345.252" y1="256.432" x2="321.252" y2="270.432" stroke="#CBD5E0"/>
<line x1="313.459" y1="222.199" x2="303.459" y2="245.199" stroke="#CBD5E0"/>
<line x1="281.397" y1="188.304" x2="268.397" y2="205.304" stroke="#CBD5E0"/>
<line x1="268.402" y1="164.297" x2="251.402" y2="187.297" stroke="#CBD5E0"/>
<line x1="260.486" y1="130.882" x2="268.486" y2="163.882" stroke="#CBD5E0"/>
<line x1="252.447" y1="115.776" x2="260.447" y2="131.776" stroke="#CBD5E0"/>
<line x1="290.547" y1="116.211" x2="283.547" y2="101.211" stroke="#CBD5E0"/>
<line x1="301.819" y1="107.466" x2="283.819" y2="100.466" stroke="#CBD5E0"/>
<line x1="315.521" y1="95.8563" x2="324.521" y2="65.8563" stroke="#CBD5E0"/>
<line x1="347.524" y1="88.1539" x2="336.524" y2="54.1539" stroke="#CBD5E0"/>
<line x1="348.104" y1="89.4891" x2="315.104" y2="96.4891" stroke="#CBD5E0"/>
<line x1="348.485" y1="89.8787" x2="353.485" y2="109.879" stroke="#CBD5E0"/>
<line x1="377.176" y1="102.468" x2="353.176" y2="111.468" stroke="#CBD5E0"/>
<line x1="384.526" y1="126.158" x2="376.526" y2="102.158" stroke="#CBD5E0"/>
<line x1="360.723" y1="141.584" x2="384.723" y2="125.584" stroke="#CBD5E0"/>
<line x1="361.277" y1="141.584" x2="385.277" y2="157.584" stroke="#CBD5E0"/>
<line x1="337" y1="141.5" x2="361" y2="141.5" stroke="#CBD5E0"/>
<line x1="347.567" y1="161.251" x2="336.567" y2="142.251" stroke="#CBD5E0"/>
<line x1="336.785" y1="142.451" x2="315.785" y2="132.451" stroke="#CBD5E0"/>
<line x1="337.277" y1="118.416" x2="316.277" y2="132.416" stroke="#CBD5E0"/>
<line x1="316.224" y1="132.447" x2="284.224" y2="148.447" stroke="#CBD5E0"/>
<line x1="283.723" y1="148.416" x2="259.723" y2="132.416" stroke="#CBD5E0"/>
<line x1="308" y1="188.5" x2="281" y2="188.5" stroke="#CBD5E0"/>
<line x1="307.746" y1="187.569" x2="324.746" y2="177.569" stroke="#CBD5E0"/>
<line x1="308.495" y1="187.927" x2="313.495" y2="221.927" stroke="#CBD5E0"/>
<line x1="336.776" y1="234.447" x2="312.776" y2="222.447" stroke="#CBD5E0"/>
<line x1="346.472" y1="208.164" x2="337.473" y2="234.164" stroke="#CBD5E0"/>
<line x1="371.346" y1="184.361" x2="346.346" y2="208.361" stroke="#CBD5E0"/>
<line x1="370.646" y1="184.354" x2="347.646" y2="161.354" stroke="#CBD5E0"/>
<line x1="376.952" y1="210.498" x2="345.952" y2="207.498" stroke="#CBD5E0"/>
<line x1="360.567" y1="233.25" x2="345.567" y2="207.25" stroke="#CBD5E0"/>
<line x1="361.021" y1="233.5" x2="337.021" y2="234.5" stroke="#CBD5E0"/>
<line x1="343.524" y1="256.152" x2="336.524" y2="234.152" stroke="#CBD5E0"/>
<line x1="377.252" y1="264.432" x2="353.252" y2="278.432" stroke="#CBD5E0"/>
<line x1="376.879" y1="264.485" x2="344.879" y2="256.485" stroke="#CBD5E0"/>
<line x1="140.224" y1="164.553" x2="156.224" y2="172.553" stroke="#CBD5E0"/>
<line x1="139.671" y1="165.376" x2="131.671" y2="158.376" stroke="#CBD5E0"/>
<line x1="156.158" y1="149.474" x2="132.158" y2="157.474" stroke="#CBD5E0"/>
<line x1="132.158" y1="157.474" x2="108.158" y2="165.474" stroke="#CBD5E0"/>
<line x1="108.158" y1="165.474" x2="84.1581" y2="173.474" stroke="#CBD5E0"/>
<line x1="108.474" y1="165.158" x2="100.474" y2="189.158" stroke="#CBD5E0"/>
<line x1="76" y1="188.5" x2="100" y2="188.5" stroke="#CBD5E0"/>
<line x1="75.5588" y1="188.765" x2="83.5588" y2="173.765" stroke="#CBD5E0"/>
<line x1="100.474" y1="188.842" x2="108.474" y2="212.842" stroke="#CBD5E0"/>
<line x1="108.472" y1="213.836" x2="116.472" y2="236.836" stroke="#CBD5E0"/>
<line x1="116.224" y1="236.553" x2="132.224" y2="244.553" stroke="#CBD5E0"/>
<line x1="91.8419" y1="244.526" x2="115.842" y2="236.526" stroke="#CBD5E0"/>
<line x1="115.5" y1="261" x2="115.5" y2="237" stroke="#CBD5E0"/>
<line x1="123.553" y1="277.224" x2="115.553" y2="261.224" stroke="#CBD5E0"/>
<line x1="96.5963" y1="286.705" x2="115.596" y2="260.705" stroke="#CBD5E0"/>
<line x1="115.735" y1="260.424" x2="91.735" y2="245.424" stroke="#CBD5E0"/>
<line x1="67.7226" y1="260.584" x2="91.7226" y2="244.584" stroke="#CBD5E0"/>
<line x1="56.6068" y1="274.691" x2="67.6068" y2="260.691" stroke="#CBD5E0"/>
<line x1="40.7996" y1="281.542" x2="56.7996" y2="274.542" stroke="#CBD5E0"/>
<line x1="8.93798" y1="285.504" x2="40.938" y2="281.504" stroke="#CBD5E0"/>
<line x1="17.4412" y1="252.765" x2="25.4412" y2="267.765" stroke="#CBD5E0"/>
<line x1="107.646" y1="165.354" x2="83.6464" y2="141.354" stroke="#CBD5E0"/>
<line x1="52.2236" y1="124.553" x2="84.2236" y2="140.553" stroke="#CBD5E0"/>
<line x1="28" y1="124.5" x2="52" y2="124.5" stroke="#CBD5E0"/>
<line x1="8.74948" y1="135.567" x2="27.7495" y2="124.567" stroke="#CBD5E0"/>
<line x1="25.4987" y1="83.9635" x2="28.4987" y2="124.964" stroke="#CBD5E0"/>
<line x1="9.3153" y1="70.6119" x2="25.3153" y2="83.6119" stroke="#CBD5E0"/>
<line x1="60.2746" y1="61.4179" x2="25.2746" y2="84.4179" stroke="#CBD5E0"/>
<line x1="41.4626" y1="45.1898" x2="25.4626" y2="84.1898" stroke="#CBD5E0"/>
<line x1="40.5895" y1="45.2855" x2="24.5895" y2="22.2855" stroke="#CBD5E0"/>
<line x1="84.1581" y1="173.474" x2="60.1581" y2="181.474" stroke="#CBD5E0"/>
<line x1="59.8419" y1="181.474" x2="35.8419" y2="173.474" stroke="#CBD5E0"/>
<line x1="43.48" y1="149.14" x2="36.48" y2="173.14" stroke="#CBD5E0"/>
<line x1="68" y1="149.5" x2="44" y2="149.5" stroke="#CBD5E0"/>
<line x1="84.2353" y1="141.441" x2="69.2353" y2="149.441" stroke="#CBD5E0"/>
<line x1="60.2109" y1="181.453" x2="17.2109" y2="201.453" stroke="#CBD5E0"/>
<line x1="60.416" y1="181.277" x2="44.416" y2="205.277" stroke="#CBD5E0"/>
<line x1="67.8419" y1="213.474" x2="43.8419" y2="205.474" stroke="#CBD5E0"/>
<line x1="51.5257" y1="229.158" x2="43.5257" y2="205.158" stroke="#CBD5E0"/>
<line x1="52.4472" y1="228.776" x2="68.4472" y2="260.776" stroke="#CBD5E0"/>
<line x1="16.7172" y1="252.588" x2="51.7172" y2="228.588" stroke="#CBD5E0"/>
<line x1="252.289" y1="116.408" x2="228.289" y2="133.408" stroke="#CBD5E0"/>
<line x1="284.224" y1="100.447" x2="252.224" y2="116.447" stroke="#CBD5E0"/>
<line x1="282.498" y1="78.9526" x2="284.498" y2="99.9526" stroke="#CBD5E0"/>
<line x1="315.064" y1="96.4959" x2="284.064" y2="100.496" stroke="#CBD5E0"/>
<line x1="302.407" y1="51.2906" x2="282.407" y2="79.2906" stroke="#CBD5E0"/>
<line x1="321.392" y1="27.3104" x2="302.392" y2="51.3103" stroke="#CBD5E0"/>
<line x1="336.957" y1="54.4982" x2="301.957" y2="51.4982" stroke="#CBD5E0"/>
<line x1="369.348" y1="23.3591" x2="337.348" y2="54.3591" stroke="#CBD5E0"/>
<line x1="385.149" y1="39.4772" x2="337.149" y2="54.4772" stroke="#CBD5E0"/>
<line x1="384.99" y1="55.4999" x2="336.99" y2="54.4999" stroke="#CBD5E0"/>
<line x1="313.47" y1="4.82913" x2="321.47" y2="26.8291" stroke="#CBD5E0"/>
<line x1="352.193" y1="14.4611" x2="321.193" y2="27.4611" stroke="#CBD5E0"/>
<circle cx="204" cy="117" r="3" fill="white" stroke="white" stroke-width="2"/>
<circle cx="228" cy="133" r="3" fill="white" stroke="white" stroke-width="2"/>
<circle cx="220" cy="109" r="3" fill="white" stroke="white" stroke-width="2"/>
<circle cx="196" cy="85" r="3" fill="white" stroke="white" stroke-width="2"/>
<circle cx="172" cy="93" r="3" fill="white" stroke="white" stroke-width="2"/>
<circle cx="148" cy="109" r="3" fill="white" stroke="white" stroke-width="2"/>
<circle cx="164" cy="125" r="3" fill="white" stroke="white" stroke-width="2"/>
<circle cx="180" cy="117" r="3" fill="white" stroke="white" stroke-width="2"/>
<circle cx="156" cy="173" r="3" fill="white" stroke="white" stroke-width="2"/>
<circle cx="140" cy="165" r="3" fill="white" stroke="white" stroke-width="2"/>
<circle cx="132" cy="157" r="3" fill="white" stroke="white" stroke-width="2"/>
<circle cx="108" cy="165" r="3" fill="white" stroke="white" stroke-width="2"/>
<circle cx="84" cy="141" r="3" fill="white" stroke="white" stroke-width="2"/>
<circle cx="100" cy="117" r="3" fill="#6B539D" stroke="#6B539D" stroke-width="2"/>
<circle cx="116" cy="85" r="3" fill="white" stroke="white" stroke-width="2"/>
<circle cx="124" cy="53" r="3" fill="white" stroke="white" stroke-width="2"/>
<circle cx="92" cy="61" r="3" fill="white" stroke="white" stroke-width="2"/>
<circle cx="84" cy="85" r="3" fill="white" stroke="white" stroke-width="2"/>
<circle cx="76" cy="109" r="3" fill="white" stroke="white" stroke-width="2"/>
<circle cx="68" cy="149" r="3" fill="white" stroke="white" stroke-width="2"/>
<circle cx="76" cy="189" r="3" fill="white" stroke="white" stroke-width="2"/>
<circle cx="84" cy="173" r="3" fill="white" stroke="white" stroke-width="2"/>
<circle cx="100" cy="189" r="3" fill="white" stroke="white" stroke-width="2"/>
<circle cx="108" cy="213" r="3" fill="white" stroke="white" stroke-width="2"/>
<circle cx="92" cy="245" r="3" fill="white" stroke="white" stroke-width="2"/>
<circle cx="76" cy="229" r="3" fill="#6B539D" stroke="#6B539D" stroke-width="2"/>
<circle cx="68" cy="213" r="3" fill="white" stroke="white" stroke-width="2"/>
<circle cx="60" cy="181" r="3" fill="white" stroke="white" stroke-width="2"/>
<circle cx="44" cy="149" r="3" fill="white" stroke="white" stroke-width="2"/>
<circle cx="52" cy="125" r="3" fill="white" stroke="white" stroke-width="2"/>
<circle cx="60" cy="93" r="3" fill="white" stroke="white" stroke-width="2"/>
<circle cx="60" cy="61" r="3" fill="white" stroke="white" stroke-width="2"/>
<circle cx="44" cy="93" r="3" fill="white" stroke="white" stroke-width="2"/>
<circle cx="28" cy="125" r="3" fill="white" stroke="white" stroke-width="2"/>
<circle cx="36" cy="173" r="3" fill="white" stroke="white" stroke-width="2"/>
<circle cx="44" cy="205" r="3" fill="white" stroke="white" stroke-width="2"/>
<circle cx="52" cy="229" r="3" fill="white" stroke="white" stroke-width="2"/>
<circle cx="68" cy="261" r="3" fill="white" stroke="white" stroke-width="2"/>
<circle cx="116" cy="237" r="3" fill="white" stroke="white" stroke-width="2"/>
<circle cx="156" cy="237" r="3" fill="white" stroke="white" stroke-width="2"/>
<circle cx="148" cy="261" r="3" fill="white" stroke="white" stroke-width="2"/>
<circle cx="132" cy="245" r="3" fill="white" stroke="white" stroke-width="2"/>
<circle cx="116" cy="261" r="3" fill="white" stroke="white" stroke-width="2"/>
<circle cx="124" cy="277" r="3" fill="white" stroke="white" stroke-width="2"/>
<circle cx="148" cy="293" r="3" fill="white" stroke="white" stroke-width="2"/>
<circle cx="172" cy="269" r="3" fill="white" stroke="white" stroke-width="2"/>
<circle cx="204" cy="245" r="3" fill="#6B539D" stroke="#6B539D" stroke-width="2"/>
<circle cx="236" cy="253" r="3" fill="#6B539D" stroke="#6B539D" stroke-width="2"/>
<circle cx="220" cy="269" r="3" fill="white" stroke="white" stroke-width="2"/>
<circle cx="196" cy="285" r="3" fill="white" stroke="white" stroke-width="2"/>
<circle cx="236" cy="22" r="3" fill="white" stroke="white" stroke-width="2"/>
<circle cx="212" cy="293" r="3" fill="white" stroke="white" stroke-width="2"/>
<circle cx="245" cy="285" r="3" fill="white" stroke="white" stroke-width="2"/>
<circle cx="278" cy="269" r="3" fill="white" stroke="white" stroke-width="2"/>
<circle cx="303" cy="245" r="3" fill="white" stroke="white" stroke-width="2"/>
<circle cx="280" cy="229" r="3" fill="white" stroke="white" stroke-width="2"/>
<circle cx="313" cy="222" r="3" fill="white" stroke="white" stroke-width="2"/>
<circle cx="346" cy="207" r="3" fill="white" stroke="white" stroke-width="2"/>
<circle cx="371" cy="184" r="3" fill="white" stroke="white" stroke-width="2"/>
<circle cx="348" cy="161" r="3" fill="white" stroke="white" stroke-width="2"/>
<circle cx="325" cy="178" r="3" fill="white" stroke="white" stroke-width="2"/>
<circle cx="302" cy="107" r="3" fill="white" stroke="white" stroke-width="2"/>
<circle cx="287" cy="36" r="3" fill="white" stroke="white" stroke-width="2"/>
<circle cx="272" cy="45" r="3" fill="white" stroke="white" stroke-width="2"/>
<circle cx="257" cy="62" r="3" fill="white" stroke="white" stroke-width="2"/>
<circle cx="282" cy="79" r="3" fill="white" stroke="white" stroke-width="2"/>
<circle cx="315" cy="96" r="3" fill="white" stroke="white" stroke-width="2"/>
<circle cx="348" cy="89" r="3" fill="white" stroke="white" stroke-width="2"/>
<circle cx="325" cy="66" r="3" fill="white" stroke="white" stroke-width="2"/>
<circle cx="302" cy="51" r="3" fill="white" stroke="white" stroke-width="2"/>
<circle cx="247" cy="44" r="3" fill="white" stroke="white" stroke-width="2"/>
<circle cx="200" cy="29" r="3" fill="white" stroke="white" stroke-width="2"/>
<circle cx="145" cy="22" r="3" fill="white" stroke="white" stroke-width="2"/>
<circle cx="113" cy="30" r="3" fill="white" stroke="white" stroke-width="2"/>
<circle cx="81" cy="38" r="3" fill="white" stroke="white" stroke-width="2"/>
<circle cx="209" cy="46" r="3" fill="white" stroke="white" stroke-width="2"/>
<circle cx="337" cy="54" r="3" fill="white" stroke="white" stroke-width="2"/>
<circle cx="377" cy="102" r="3" fill="white" stroke="white" stroke-width="2"/>
<circle cx="385" cy="158" r="3" fill="white" stroke="white" stroke-width="2"/>
<circle cx="361" cy="142" r="3" fill="white" stroke="white" stroke-width="2"/>
<circle cx="337" cy="118" r="3" fill="white" stroke="white" stroke-width="2"/>
<circle cx="353" cy="110" r="3" fill="white" stroke="white" stroke-width="2"/>
<circle cx="385" cy="126" r="3" fill="white" stroke="white" stroke-width="2"/>
<circle cx="337" cy="142" r="3" fill="white" stroke="white" stroke-width="2"/>
<circle cx="329" cy="206" r="3" fill="#6B539D" stroke="#6B539D" stroke-width="2"/>
<circle cx="321" cy="270" r="3" fill="white" stroke="white" stroke-width="2"/>
<circle cx="289" cy="286" r="3" fill="white" stroke="white" stroke-width="2"/>
<circle cx="385" cy="55" r="3" fill="white" stroke="white" stroke-width="2"/>
<circle cx="385" cy="39" r="3" fill="white" stroke="white" stroke-width="2"/>
<circle cx="369" cy="23" r="3" fill="white" stroke="white" stroke-width="2"/>
<circle cx="353" cy="14" r="3" fill="white" stroke="white" stroke-width="2"/>
<circle cx="313" cy="5" r="3" fill="white" stroke="white" stroke-width="2"/>
<circle cx="265" cy="12" r="3" fill="white" stroke="white" stroke-width="2"/>
<circle cx="321" cy="27" r="3" fill="white" stroke="white" stroke-width="2"/>
<circle cx="377" cy="210" r="3" fill="white" stroke="white" stroke-width="2"/>
<circle cx="361" cy="233" r="3" fill="white" stroke="white" stroke-width="2"/>
<circle cx="377" cy="264" r="3" fill="white" stroke="white" stroke-width="2"/>
<circle cx="97" cy="287" r="3" fill="white" stroke="white" stroke-width="2"/>
<circle cx="9" cy="286" r="3" fill="white" stroke="white" stroke-width="2"/>
<circle cx="17" cy="253" r="3" fill="white" stroke="white" stroke-width="2"/>
<circle cx="25" cy="268" r="3" fill="white" stroke="white" stroke-width="2"/>
<circle cx="57" cy="275" r="3" fill="white" stroke="white" stroke-width="2"/>
<circle cx="41" cy="282" r="3" fill="white" stroke="white" stroke-width="2"/>
<circle cx="17" cy="201" r="3" fill="white" stroke="white" stroke-width="2"/>
<circle cx="9" cy="136" r="3" fill="white" stroke="white" stroke-width="2"/>
<circle cx="9" cy="71" r="3" fill="white" stroke="white" stroke-width="2"/>
<circle cx="25" cy="22" r="3" fill="white" stroke="white" stroke-width="2"/>
<circle cx="41" cy="45" r="3" fill="white" stroke="white" stroke-width="2"/>
<circle cx="25" cy="84" r="3" fill="white" stroke="white" stroke-width="2"/>
<circle cx="257" cy="254" r="3" fill="white" stroke="white" stroke-width="2"/>
<circle cx="249" cy="230" r="3" fill="white" stroke="white" stroke-width="2"/>
<circle cx="281" cy="188" r="3" fill="white" stroke="white" stroke-width="2"/>
<circle cx="337" cy="234" r="3" fill="white" stroke="white" stroke-width="2"/>
<circle cx="345" cy="256" r="3" fill="white" stroke="white" stroke-width="2"/>
<circle cx="353" cy="278" r="3" fill="white" stroke="white" stroke-width="2"/>
<circle cx="156" cy="149" r="3" fill="#6B539D" stroke="#6B539D" stroke-width="2"/>
<circle cx="228" cy="181" r="3" fill="white" stroke="white" stroke-width="2"/>
<circle cx="268" cy="164" r="3" fill="white" stroke="white" stroke-width="2"/>
<circle cx="244" cy="155" r="3" fill="#6B539D" stroke="#6B539D" stroke-width="2"/>
<circle cx="180" cy="194" r="3" fill="white" stroke="white" stroke-width="2"/>
<circle cx="164" cy="218" r="3" fill="#6B539D" stroke="#6B539D" stroke-width="2"/>
<circle cx="196" cy="210" r="3" fill="white" stroke="white" stroke-width="2"/>
<circle cx="220" cy="194" r="3" fill="white" stroke="white" stroke-width="2"/>
<circle cx="252" cy="187" r="3" fill="white" stroke="white" stroke-width="2"/>
<circle cx="284" cy="148" r="3" fill="white" stroke="white" stroke-width="2"/>
<circle cx="252" cy="116" r="3" fill="white" stroke="white" stroke-width="2"/>
<circle cx="236" cy="76" r="3" fill="#6B539D" stroke="#6B539D" stroke-width="2"/>
<circle cx="260" cy="84" r="3" fill="white" stroke="white" stroke-width="2"/>
<circle cx="284" cy="100" r="3" fill="white" stroke="white" stroke-width="2"/>
<circle cx="292" cy="116" r="3" fill="white" stroke="white" stroke-width="2"/>
<circle cx="260" cy="132" r="3" fill="white" stroke="white" stroke-width="2"/>
<circle cx="220" cy="60" r="3" fill="white" stroke="white" stroke-width="2"/>
<circle cx="180" cy="52" r="3" fill="white" stroke="white" stroke-width="2"/>
<circle cx="148" cy="68" r="3" fill="#6B539D" stroke="#6B539D" stroke-width="2"/>
<circle cx="124" cy="124" r="3" fill="white" stroke="white" stroke-width="2"/>
<circle cx="132" cy="196" r="3" fill="#6B539D" stroke="#6B539D" stroke-width="2"/>
<circle cx="140" cy="220" r="3" fill="#6B539D" stroke="#6B539D" stroke-width="2"/>
<circle cx="180" cy="236" r="3" fill="white" stroke="white" stroke-width="2"/>
<circle cx="228" cy="220" r="3" fill="#6B539D" stroke="#6B539D" stroke-width="2"/>
<circle cx="268" cy="204" r="3" fill="white" stroke="white" stroke-width="2"/>
<circle cx="308" cy="188" r="3" fill="white" stroke="white" stroke-width="2"/>
<circle cx="316" cy="164" r="3" fill="#6B539D" stroke="#6B539D" stroke-width="2"/>
<circle cx="316" cy="132" r="3" fill="white" stroke="white" stroke-width="2"/>
<path d="M185.33 145.364H188.085L190.739 150.375H190.852L193.506 145.364H196.261L192.017 152.886V157H189.574V152.886L185.33 145.364ZM199.675 157.17C198.792 157.17 198.029 156.983 197.385 156.608C196.745 156.229 196.25 155.703 195.902 155.028C195.554 154.35 195.379 153.564 195.379 152.67C195.379 151.769 195.554 150.981 195.902 150.307C196.25 149.629 196.745 149.102 197.385 148.727C198.029 148.348 198.792 148.159 199.675 148.159C200.557 148.159 201.319 148.348 201.959 148.727C202.603 149.102 203.099 149.629 203.447 150.307C203.796 150.981 203.97 151.769 203.97 152.67C203.97 153.564 203.796 154.35 203.447 155.028C203.099 155.703 202.603 156.229 201.959 156.608C201.319 156.983 200.557 157.17 199.675 157.17ZM199.686 155.295C200.088 155.295 200.423 155.182 200.692 154.955C200.961 154.723 201.163 154.409 201.3 154.011C201.44 153.614 201.51 153.161 201.51 152.653C201.51 152.146 201.44 151.693 201.3 151.295C201.163 150.898 200.961 150.583 200.692 150.352C200.423 150.121 200.088 150.006 199.686 150.006C199.281 150.006 198.94 150.121 198.663 150.352C198.391 150.583 198.184 150.898 198.044 151.295C197.908 151.693 197.839 152.146 197.839 152.653C197.839 153.161 197.908 153.614 198.044 154.011C198.184 154.409 198.391 154.723 198.663 154.955C198.94 155.182 199.281 155.295 199.686 155.295ZM211.141 153.284V148.273H213.561V157H211.237V155.415H211.146C210.949 155.926 210.622 156.337 210.163 156.648C209.709 156.958 209.154 157.114 208.499 157.114C207.915 157.114 207.402 156.981 206.959 156.716C206.516 156.451 206.169 156.074 205.919 155.585C205.673 155.097 205.548 154.511 205.544 153.83V148.273H207.964V153.398C207.968 153.913 208.107 154.32 208.379 154.619C208.652 154.919 209.018 155.068 209.476 155.068C209.768 155.068 210.04 155.002 210.294 154.869C210.548 154.733 210.752 154.532 210.908 154.267C211.067 154.002 211.144 153.674 211.141 153.284Z" fill="#CBD5E0"/>
</svg>
