<svg width="179" height="173" viewBox="0 0 179 173" fill="none" xmlns="http://www.w3.org/2000/svg">
<ellipse rx="52.5116" ry="50.1594" transform="matrix(-0.788011 0.615661 0.615661 0.788011 86.7616 91.1746)" fill="white"/>
<path d="M97.7762 19.9797C90.6104 10.808 76.4322 11.831 70.6575 21.9365V21.9365C63.8155 33.9094 53.1988 43.2776 40.4674 48.5761L18.1802 57.8515C9.03386 61.658 6.02424 73.1284 12.1235 80.935L45.1134 123.16L127.873 58.5016L97.7762 19.9797Z" fill="white"/>
<path d="M90.4858 21.4474C92.9177 20.11 97.7468 26.2911 97.7468 26.2911L102.86 65.4696L93.3115 78.4649L73.7086 53.3744C83.5152 45.1592 78.4398 27.5378 81.1411 24.3203C83.5739 20.7591 88.0021 29.3936 89.1218 28.6017C91.4914 26.9255 87.3387 23.3528 90.4858 21.4474Z" fill="#B6B6B6"/>
<path d="M38.6712 61.9291C36.7852 63.9653 41.6144 70.1463 41.6144 70.1463L78.3921 84.5858L93.3114 78.4647L73.7086 53.3742C63.365 60.902 47.4949 51.7143 43.7194 53.557C39.6755 55.0561 46.9823 61.4416 45.943 62.3364C43.7433 64.2302 41.2814 59.3365 38.6712 61.9291Z" fill="#B6B6B6"/>
<rect width="35.3109" height="51.7071" rx="17.6555" transform="matrix(-0.788011 0.615661 0.615661 0.788011 100.046 22.0706)" fill="#B6B6B6"/>
<rect width="41.096" height="52.3402" rx="20" transform="matrix(-0.788011 0.615661 0.615661 0.788011 64.4814 50.4641)" fill="#B6B6B6"/>
<rect width="25.0594" height="37.9889" rx="12.5297" transform="matrix(-0.788011 0.615661 0.615661 0.788011 101.004 30.6963)" fill="white"/>
<rect width="25.0594" height="37.9889" rx="12.5297" transform="matrix(-0.788011 0.615661 0.615661 0.788011 101.004 30.6963)" fill="white"/>
<rect width="25.0594" height="37.9889" rx="12.5297" transform="matrix(-0.788011 0.615661 0.615661 0.788011 101.004 30.6963)" fill="white"/>
<rect width="29.6156" height="37.9889" rx="14.8078" transform="matrix(-0.788011 0.615661 0.615661 0.788011 66.2552 57.9341)" fill="white"/>
<rect width="29.6156" height="37.9889" rx="14.8078" transform="matrix(-0.788011 0.615661 0.615661 0.788011 66.2552 57.9341)" fill="white"/>
<rect width="29.6156" height="37.9889" rx="14.8078" transform="matrix(-0.788011 0.615661 0.615661 0.788011 66.2552 57.9341)" fill="white"/>
<path fill-rule="evenodd" clip-rule="evenodd" d="M57.5052 77.2458C57.6702 77.0449 57.8597 76.8588 58.0731 76.6921C59.6386 75.469 61.8991 75.7466 63.1222 77.312L64.3244 78.8508C65.5475 80.4163 65.2699 82.6768 63.7045 83.8999C62.7775 84.6242 61.6067 84.8222 60.552 84.5382L64.5502 89.6558C66.8741 92.6301 71.1691 93.1575 74.1434 90.8337C77.1178 88.5098 77.6452 84.2148 75.3213 81.2404L69.6582 73.992C67.3344 71.0176 63.0394 70.4902 60.065 72.8141C58.6124 73.949 57.7434 75.554 57.5052 77.2458Z" fill="white"/>
<path fill-rule="evenodd" clip-rule="evenodd" d="M57.5052 77.2458C57.6702 77.0449 57.8597 76.8588 58.0731 76.6921C59.6386 75.469 61.8991 75.7466 63.1222 77.312L64.3244 78.8508C65.5475 80.4163 65.2699 82.6768 63.7045 83.8999C62.7775 84.6242 61.6067 84.8222 60.552 84.5382L64.5502 89.6558C66.8741 92.6301 71.1691 93.1575 74.1434 90.8337C77.1178 88.5098 77.6452 84.2148 75.3213 81.2404L69.6582 73.992C67.3344 71.0176 63.0394 70.4902 60.065 72.8141C58.6124 73.949 57.7434 75.554 57.5052 77.2458Z" fill="white"/>
<path fill-rule="evenodd" clip-rule="evenodd" d="M57.5052 77.2458C57.6702 77.0449 57.8597 76.8588 58.0731 76.6921C59.6386 75.469 61.8991 75.7466 63.1222 77.312L64.3244 78.8508C65.5475 80.4163 65.2699 82.6768 63.7045 83.8999C62.7775 84.6242 61.6067 84.8222 60.552 84.5382L64.5502 89.6558C66.8741 92.6301 71.1691 93.1575 74.1434 90.8337C77.1178 88.5098 77.6452 84.2148 75.3213 81.2404L69.6582 73.992C67.3344 71.0176 63.0394 70.4902 60.065 72.8141C58.6124 73.949 57.7434 75.554 57.5052 77.2458Z" fill="#353535"/>
<path fill-rule="evenodd" clip-rule="evenodd" d="M92.7161 46.2983C92.8812 46.0973 93.0707 45.9113 93.2841 45.7445C94.8496 44.5214 97.1101 44.799 98.3332 46.3644L99.5354 47.9033C100.759 49.4687 100.481 51.7293 98.9155 52.9523C97.9884 53.6767 96.8174 53.8747 95.7626 53.5905L99.7612 58.7085C102.085 61.6829 106.38 62.2102 109.354 59.8864C112.329 57.5626 112.856 53.2675 110.532 50.2932L104.869 43.0447C102.545 40.0703 98.2503 39.543 95.2759 41.8668C93.8234 43.0016 92.9544 44.6066 92.7161 46.2983Z" fill="white"/>
<path fill-rule="evenodd" clip-rule="evenodd" d="M92.7161 46.2983C92.8812 46.0973 93.0707 45.9113 93.2841 45.7445C94.8496 44.5214 97.1101 44.799 98.3332 46.3644L99.5354 47.9033C100.759 49.4687 100.481 51.7293 98.9155 52.9523C97.9884 53.6767 96.8174 53.8747 95.7626 53.5905L99.7612 58.7085C102.085 61.6829 106.38 62.2102 109.354 59.8864C112.329 57.5626 112.856 53.2675 110.532 50.2932L104.869 43.0447C102.545 40.0703 98.2503 39.543 95.2759 41.8668C93.8234 43.0016 92.9544 44.6066 92.7161 46.2983Z" fill="white"/>
<path fill-rule="evenodd" clip-rule="evenodd" d="M92.7161 46.2983C92.8812 46.0973 93.0707 45.9113 93.2841 45.7445C94.8496 44.5214 97.1101 44.799 98.3332 46.3644L99.5354 47.9033C100.759 49.4687 100.481 51.7293 98.9155 52.9523C97.9884 53.6767 96.8174 53.8747 95.7626 53.5905L99.7612 58.7085C102.085 61.6829 106.38 62.2102 109.354 59.8864C112.329 57.5626 112.856 53.2675 110.532 50.2932L104.869 43.0447C102.545 40.0703 98.2503 39.543 95.2759 41.8668C93.8234 43.0016 92.9544 44.6066 92.7161 46.2983Z" fill="#353535"/>
<path d="M119.216 54.8128C119.216 54.8128 111.529 60.8192 109.555 62.8952C107.582 64.9713 101.651 72.6368 101.651 72.6368L106.919 77.6141L124.484 59.7901L119.216 54.8128Z" fill="#85DC33"/>
<path d="M59.3604 96.2183C59.3604 96.2183 68.7847 90.6861 71.7667 89.5126C74.7486 88.339 85.214 85.467 85.214 85.467L88.337 93.4476L62.4834 104.199L59.3604 96.2183Z" fill="#B6B6B6"/>
<rect width="112" height="10" rx="4" transform="matrix(-1 0 0 1 149.067 162.518)" fill="#DEDEDE"/>
<path fill-rule="evenodd" clip-rule="evenodd" d="M120.022 113.99C121.926 115.09 124.022 115.555 126.067 115.452C128.111 115.555 130.208 115.09 132.113 113.99L138.125 110.519H145.067C147.266 110.519 149.315 109.873 151.034 108.762C152.856 107.829 154.439 106.378 155.538 104.473L159.009 98.4614L165.022 94.9902C166.926 93.8905 168.378 92.3072 169.31 90.485C170.422 88.7664 171.067 86.718 171.067 84.519V77.5765L174.538 71.5643C175.638 69.6597 176.103 67.563 176 65.5188C176.103 63.4745 175.638 61.3778 174.538 59.4733L171.067 53.4611V46.519C171.067 44.3198 170.422 42.2713 169.31 40.5526C168.377 38.7305 166.926 37.1474 165.022 36.0478L159.009 32.5767L155.538 26.5643C154.438 24.6596 152.855 23.2082 151.033 22.2757C149.314 21.1641 147.266 20.5188 145.067 20.5188H138.125L132.113 17.0478C130.208 15.9481 128.111 15.4828 126.067 15.5863C124.023 15.483 121.926 15.9483 120.022 17.0479L114.01 20.5188H107.067C104.868 20.5188 102.82 21.1641 101.101 22.2757C99.2788 23.2083 97.6955 24.6596 96.5959 26.5643L93.1245 32.5769L87.1126 36.0479C85.2081 37.1474 83.7569 38.7304 82.8243 40.5524C81.7125 42.2711 81.067 44.3196 81.067 46.519V53.4611L77.5959 59.4733C76.4963 61.3778 76.031 63.4745 76.1344 65.5188C76.031 67.5631 76.4963 69.6598 77.5959 71.5643L81.067 77.5765V84.519C81.067 86.7182 81.7124 88.7666 82.8241 90.4853C83.7567 92.3074 85.208 93.8905 87.1126 94.9901L93.1249 98.4613L96.5959 104.473C97.6954 106.378 99.2783 107.829 101.1 108.762C102.819 109.873 104.868 110.519 107.067 110.519H114.009L120.022 113.99Z" fill="url(#paint0_linear)"/>
<rect width="10.1782" height="5.45261" rx="2.72631" transform="matrix(0.999912 -0.0132559 0.0132549 0.999912 122.701 92.4572)" fill="white"/>
<rect x="149.176" y="80.5586" width="10.1782" height="5.45261" rx="2.72631" transform="rotate(-70.7595 149.176 80.5586)" fill="white"/>
<circle cx="127.507" cy="67.7181" r="20.9017" transform="rotate(-35.7595 127.507 67.7181)" fill="white"/>
<path d="M100.959 66.6202C96.829 60.8854 99.4921 52.79 106.22 50.627V50.627C110.96 49.1033 115.098 46.1232 118.045 42.1111V42.1111C122.229 36.4157 130.751 36.4561 134.881 42.1909L144.362 55.356L110.44 79.7852L100.959 66.6202Z" fill="white"/>
<path d="M91.5719 75.8828C91.562 78.4532 100.822 88.7273 114.511 83.5726C121.517 77.4734 116.736 67.0426 110.688 68.9472C104.641 70.8518 92.552 72.8617 91.5719 75.8828Z" fill="white"/>
<path d="M146.972 35.9867C149.413 36.7921 156.222 48.8312 146.993 60.1805C138.988 64.8921 130.611 57.051 134.334 51.9188C138.057 46.7866 143.796 35.9586 146.972 35.9867Z" fill="white"/>
<path d="M103.941 57.6509C103.142 58.4544 105.052 61.1068 105.052 61.1068L119.992 67.8177L126.198 65.5887L118.444 54.822C114.102 57.7248 107.691 53.6068 106.117 54.2922C104.437 54.8302 107.363 57.6172 106.925 57.966C105.998 58.7044 105.045 56.6319 103.941 57.6509Z" fill="white"/>
<path d="M125.134 42.3888C126.15 41.885 128.06 44.5374 128.06 44.5374L129.689 60.8348L125.608 66.0136L117.854 55.2469C121.983 52.0492 120.11 44.663 121.259 43.3876C122.302 41.9647 124.018 45.6231 124.487 45.3184C125.482 44.6734 123.818 43.1128 125.134 42.3888Z" fill="white"/>
<rect x="101.246" y="62.6644" width="16.3578" height="21.8105" rx="8.17892" transform="rotate(-35.7595 101.246 62.6644)" fill="white"/>
<rect x="117.977" y="51.0634" width="16.3578" height="21.8105" rx="8.17892" transform="rotate(-35.7595 117.977 51.0634)" fill="white"/>
<rect x="104.633" y="64.257" width="11.9957" height="15.9943" rx="5.99787" transform="rotate(-35.7595 104.633 64.257)" fill="white"/>
<rect x="104.633" y="64.257" width="11.9957" height="15.9943" rx="5.99787" transform="rotate(-35.7595 104.633 64.257)" fill="white"/>
<rect x="104.633" y="64.257" width="11.9957" height="15.9943" rx="5.99787" transform="rotate(-35.7595 104.633 64.257)" fill="white"/>
<rect x="121.446" y="52.1486" width="11.9957" height="15.9943" rx="5.99787" transform="rotate(-35.7595 121.446 52.1486)" fill="white"/>
<rect x="121.446" y="52.1486" width="11.9957" height="15.9943" rx="5.99787" transform="rotate(-35.7595 121.446 52.1486)" fill="white"/>
<rect x="121.446" y="52.1486" width="11.9957" height="15.9943" rx="5.99787" transform="rotate(-35.7595 121.446 52.1486)" fill="white"/>
<path fill-rule="evenodd" clip-rule="evenodd" d="M111.212 64.8999C111.244 64.8733 111.277 64.8475 111.311 64.8228C112.126 64.2362 113.262 64.421 113.848 65.2355C114.435 66.0501 114.25 67.186 113.436 67.7726C112.953 68.12 112.358 68.1968 111.831 68.0325L112.999 69.6547C114.114 71.2024 116.272 71.5535 117.82 70.4389C119.367 69.3244 119.718 67.1662 118.604 65.6186L117.329 63.8487C116.215 62.301 114.057 61.9499 112.509 63.0645C111.858 63.5329 111.419 64.1856 111.212 64.8999Z" fill="white"/>
<path fill-rule="evenodd" clip-rule="evenodd" d="M111.212 64.8999C111.244 64.8733 111.277 64.8475 111.311 64.8228C112.126 64.2362 113.262 64.421 113.848 65.2355C114.435 66.0501 114.25 67.186 113.436 67.7726C112.953 68.12 112.358 68.1968 111.831 68.0325L112.999 69.6547C114.114 71.2024 116.272 71.5535 117.82 70.4389C119.367 69.3244 119.718 67.1662 118.604 65.6186L117.329 63.8487C116.215 62.301 114.057 61.9499 112.509 63.0645C111.858 63.5329 111.419 64.1856 111.212 64.8999Z" fill="white"/>
<path fill-rule="evenodd" clip-rule="evenodd" d="M111.212 64.8999C111.244 64.8733 111.277 64.8475 111.311 64.8228C112.126 64.2362 113.262 64.421 113.848 65.2355C114.435 66.0501 114.25 67.186 113.436 67.7726C112.953 68.12 112.358 68.1968 111.831 68.0325L112.999 69.6547C114.114 71.2024 116.272 71.5535 117.82 70.4389C119.367 69.3244 119.718 67.1662 118.604 65.6186L117.329 63.8487C116.215 62.301 114.057 61.9499 112.509 63.0645C111.858 63.5329 111.419 64.1856 111.212 64.8999Z" fill="white"/>
<path fill-rule="evenodd" clip-rule="evenodd" d="M126.256 54.0661C126.288 54.0395 126.321 54.0137 126.355 53.9889C127.17 53.4023 128.306 53.5871 128.892 54.4017C129.479 55.2163 129.294 56.3521 128.48 56.9387C127.997 57.2862 127.402 57.363 126.875 57.1986L128.043 58.8209C129.158 60.3685 131.316 60.7196 132.864 59.6051C134.411 58.4905 134.762 56.3324 133.648 54.7847L132.373 53.0149C131.259 51.4672 129.1 51.1161 127.553 52.2306C126.902 52.6991 126.463 53.3518 126.256 54.0661Z" fill="white"/>
<path fill-rule="evenodd" clip-rule="evenodd" d="M126.256 54.0661C126.288 54.0395 126.321 54.0137 126.355 53.9889C127.17 53.4023 128.306 53.5871 128.892 54.4017C129.479 55.2163 129.294 56.3521 128.48 56.9387C127.997 57.2862 127.402 57.363 126.875 57.1986L128.043 58.8209C129.158 60.3685 131.316 60.7196 132.864 59.6051C134.411 58.4905 134.762 56.3324 133.648 54.7847L132.373 53.0149C131.259 51.4672 129.1 51.1161 127.553 52.2306C126.902 52.6991 126.463 53.3518 126.256 54.0661Z" fill="white"/>
<path fill-rule="evenodd" clip-rule="evenodd" d="M126.256 54.0661C126.288 54.0395 126.321 54.0137 126.355 53.9889C127.17 53.4023 128.306 53.5871 128.892 54.4017C129.479 55.2163 129.294 56.3521 128.48 56.9387C127.997 57.2862 127.402 57.363 126.875 57.1986L128.043 58.8209C129.158 60.3685 131.316 60.7196 132.864 59.6051C134.411 58.4905 134.762 56.3324 133.648 54.7847L132.373 53.0149C131.259 51.4672 129.1 51.1161 127.553 52.2306C126.902 52.6991 126.463 53.3518 126.256 54.0661Z" fill="white"/>
<rect x="121.707" y="64.9516" width="5.81613" height="10.1782" rx="2.90806" transform="rotate(-35.7595 121.707 64.9516)" fill="white"/>
<rect x="122.15" y="64.6329" width="4.7256" height="8.72418" rx="2.3628" transform="rotate(-35.7595 122.15 64.6329)" fill="white"/>
<path fill-rule="evenodd" clip-rule="evenodd" d="M122.995 68.6058C121.96 66.7745 122.447 64.4186 124.194 63.1607C125.986 61.8702 128.454 62.2029 129.846 63.8737C129.174 65.026 128.255 66.0594 127.103 66.8892C125.84 67.799 124.433 68.3652 122.995 68.6058Z" fill="white"/>
<path d="M123.401 65.437C123.256 65.2363 123.256 64.9656 123.401 64.7649L123.66 64.4051C124.062 63.8482 124.634 63.4366 125.289 63.2321L125.713 63.1C125.949 63.0263 126.206 63.112 126.35 63.3128V63.3128C126.58 63.6311 126.43 64.0805 126.055 64.1973L125.702 64.3076C125.238 64.4522 124.834 64.7433 124.55 65.1371L124.333 65.4374C124.104 65.7556 123.63 65.7554 123.401 65.437V65.437Z" fill="white"/>
<path d="M137.885 68.7555C138.707 69.8958 138.25 71.6287 136.865 72.6259C135.48 73.6232 133.692 73.5071 132.871 72.3667C132.764 72.2193 133.887 71.4108 135.272 70.4136C136.657 69.4164 137.779 68.608 137.885 68.7555Z" fill="white"/>
<path d="M130.216 74.2786C131.037 75.419 130.58 77.1519 129.196 78.1491C127.811 79.1463 126.022 79.0302 125.201 77.8899C125.095 77.7424 126.218 76.934 127.602 75.9367C128.987 74.9395 130.11 74.1311 130.216 74.2786Z" fill="white"/>
<path d="M136.812 75.3517C137.633 76.4921 137.177 78.225 135.792 79.2222C134.407 80.2194 132.619 80.1034 131.798 78.963C131.691 78.8155 132.814 78.0071 134.199 77.0099C135.583 76.0127 136.706 75.2043 136.812 75.3517Z" fill="white"/>
<path d="M128.112 62.0025L136.62 51.5856L136.76 51.7006C139.637 54.05 140.064 58.2865 137.715 61.163V61.163C135.365 64.0395 131.129 64.4668 128.252 62.1174L128.112 62.0025Z" fill="white"/>
<path d="M109.239 71.3036L121.816 66.5363L121.88 66.7063C123.197 70.1792 121.449 74.0618 117.976 75.3782V75.3782C114.503 76.6946 110.62 74.9464 109.304 71.4735L109.239 71.3036Z" fill="white"/>
<path d="M144.243 42.075C142.036 40.9307 141.625 37.8468 143.635 36.383L156.782 26.8055C159.461 24.8544 163.214 25.444 165.165 28.1224L174.484 40.9155C176.474 43.6477 175.801 47.4709 172.785 48.9974C168.431 51.2008 162.244 53.5784 157.486 52.3909C151.126 50.8033 150.063 45.0922 144.243 42.075V42.075Z" fill="#B6B6B6"/>
<path d="M144.751 41.7617C142.544 40.6175 142.133 37.5336 144.142 36.0698L157.29 26.4922C159.968 24.5411 163.721 25.1307 165.673 27.8091L174.992 40.6023C176.982 43.3345 176.309 47.1577 173.293 48.6841C168.939 50.8875 162.752 53.2651 157.994 52.0776C151.634 50.49 150.571 44.779 144.751 41.7617V41.7617Z" fill="white"/>
<path d="M58 106.759L112.46 66.5256C115.382 64.3667 119.445 64.8525 121.199 68.0339C125.967 76.678 131.837 94.8058 113.478 114.635C87.9131 142.249 82.2391 141.495 82.2391 141.495L58 106.759Z" fill="#B6B6B6"/>
<path d="M57.2285 107.251L111.944 67.4952C114.864 65.3734 118.894 65.8673 120.627 69.0335C125.274 77.5236 130.889 95.2435 112.782 114.731C87.4979 141.943 81.9165 141.229 81.9165 141.229L57.2285 107.251Z" fill="white"/>
<rect x="64.067" y="147.519" width="24" height="14" rx="7" fill="#EF8527"/>
<rect x="107.175" y="147.456" width="24" height="14" rx="7" transform="rotate(-30 107.175 147.456)" fill="#EF8527"/>
<defs>
<linearGradient id="paint0_linear" x1="99.067" y1="21.5186" x2="154.067" y2="103.019" gradientUnits="userSpaceOnUse">
<stop stop-color="#FCB931"/>
<stop offset="1" stop-color="#FC9A2B"/>
</linearGradient>
</defs>
</svg>
