<svg width="200" height="200" viewBox="0 0 200 200" fill="none" xmlns="http://www.w3.org/2000/svg">
<ellipse rx="91.0768" ry="91.107" transform="matrix(0.802233 0.597012 -0.597343 0.801986 99.563 104.424)" fill="#2BA6F0"/>
<path fill-rule="evenodd" clip-rule="evenodd" d="M20.2227 149.239L95.5757 39.9178C109.935 42.1889 130.882 46.9417 144.097 55.4424L149.599 59.9497C167.092 71.2232 169.165 84.5911 171.656 100.645C172.529 106.272 173.453 112.23 175.11 118.543L131.741 189.799C103.698 200.37 71.0309 196.874 45.2108 177.628C34.6508 169.757 26.2831 160.032 20.2227 149.239Z" fill="#45B5F3"/>
<path fill-rule="evenodd" clip-rule="evenodd" d="M61.9 171.186C59.4519 174.868 60.45 179.84 64.1293 182.293C67.7312 184.693 72.5674 183.789 75.0661 180.296C75.614 181.06 76.3065 181.74 77.1349 182.293C80.8142 184.745 85.7815 183.749 88.2297 180.067L94.8881 170.055C97.3362 166.373 96.3381 161.401 92.6588 158.949C89.0569 156.548 84.2207 157.452 81.722 160.945C81.1741 160.181 80.4816 159.501 79.6532 158.949C75.9739 156.496 71.0066 157.492 68.5584 161.174L61.9 171.186Z" fill="#244982"/>
<rect width="6.00494" height="6.00542" rx="1" transform="matrix(0.695875 -0.718236 0.717355 0.696631 44.5536 166.926)" fill="#70C8F5"/>
<rect width="10.0144" height="10.0058" rx="2" transform="matrix(0.437929 -0.898926 0.898661 0.438814 31.548 74.4608)" fill="#7DCEF6"/>
<path d="M146.279 165.159C139.415 163.446 118.265 131.76 141.271 98.6856C162.28 84.1004 186.875 103.931 177.705 118.795C168.535 133.659 155.001 164.586 146.279 165.159Z" fill="#2858A1"/>
<path fill-rule="evenodd" clip-rule="evenodd" d="M64.4744 59.9084C62.0223 31.8488 82.7809 7.10966 110.84 4.65197L123.353 3.55599C151.412 1.0983 176.146 21.8527 178.598 49.9123L182.361 92.9772C184.205 114.077 172.925 133.299 155.284 142.582C145.89 150.062 133.997 154.531 121.061 154.531C99.8374 154.531 81.4204 142.501 72.2418 124.881C57.5027 130.161 43.6854 127.561 40.9561 124.509C38.3552 118.685 48.8098 103.061 58.0938 89.1865C60.9767 84.8782 63.7467 80.7386 65.9779 77.1134L64.4744 59.9084Z" fill="#3066BA"/>
<path d="M116.585 4.36252C125.589 3.36039 126.089 3.36033 136.594 4.36252C174.61 55.9439 150.6 120.045 133.592 133.567C128.154 134.157 119.586 134.068 119.586 132.565C119.586 132.061 134.867 106.147 136.594 76.9771C138.295 48.2248 126.517 16.2946 116.585 4.36252Z" fill="white"/>
<path d="M67.2605 89.8581C70.9647 92.2664 72.0184 97.2237 69.614 100.93L66.3339 105.987C63.9295 109.694 58.9775 110.746 55.2732 108.338L48.5558 103.971L60.543 85.4907L67.2605 89.8581Z" fill="#244982"/>
<path d="M88.5798 53.469C88.647 60.9147 89.1639 69.6595 90.049 74.8941C90.4678 77.3711 91.1255 78.6437 91.6677 81.0966C92.3328 84.1055 94.9078 87.5536 97.4904 89.2345C106.957 95.3957 122.827 99.055 139.062 99.5129C149.248 98.9949 161.449 94.2733 164.307 92.7015C166.214 91.6523 168.935 89.1582 171.721 86.6039L171.928 86.4141C179.549 79.0788 179.549 72.7914 179.549 71.2195C179.839 56.8636 179.234 49.7107 178.608 45.9567C178.153 43.2216 177.568 40.505 176.866 37.8226C174.819 30.004 169.56 24.3561 163.605 20.3873C154.874 14.5691 144.101 12.8289 139.062 12.5371C136.628 12.2905 129.465 12.1134 122.887 13.6599C120.623 14.1922 118.358 14.794 116.117 15.4169C94.3397 21.4692 89.6516 43.9872 88.7621 50.2234C88.608 51.3035 88.5699 52.378 88.5798 53.469Z" fill="#3066BA"/>
<ellipse rx="43.7204" ry="30.6922" transform="matrix(0.999847 -0.0174726 0.0174322 0.999848 133.605 68.0655)" fill="white"/>
<path d="M91.0902 48.1679C90.9746 44.7198 91.6523 41.2833 93.3047 38.2544C96.4731 32.4467 102.326 23.0105 107.995 20.6909C110.014 19.8646 112.199 20.7289 114.19 21.6199C114.76 21.8749 115.337 22.1265 115.917 22.3737C125.73 26.5532 136.841 25.447 146.42 20.7547C159.119 14.5341 173.807 24.317 172.959 38.4315L170.106 85.9896L92.0723 77.4781L91.0902 48.1679Z" fill="white"/>
<path d="M103.68 33.2968C100.763 34.1682 101.859 43.1071 101.859 43.1071L128.459 79.1925L145.598 81.4841C145.598 81.4841 142.449 51.885 141.596 44.9261C127.633 46.138 117.712 28.5446 113.122 28.0997C108.47 27.1578 111.788 37.7746 110.308 38.0321C107.175 38.577 107.591 32.3115 103.68 33.2968Z" fill="#B6B6B6"/>
<rect x="149.629" y="32.0908" width="28.5407" height="55.4753" rx="14.271" fill="#B6B6B6"/>
<rect width="44.7798" height="53.1136" rx="20" transform="matrix(0.990244 -0.139391 0.138956 0.990292 88.5034 43.3847)" fill="#B6B6B6"/>
<path d="M168.039 24.8802C170.905 24.7608 174.67 42.0804 174.67 42.0804L163.032 72.4038L145.214 81.4955C145.214 81.4955 142.302 51.481 140.929 45.0154C152.453 40.0036 157.082 23.9524 161.037 22.1455C164.893 19.877 165.086 29.2065 166.484 28.9812C169.443 28.5044 164.251 25.2034 168.039 24.8802Z" fill="#B6B6B6"/>
<rect width="25.0123" height="40.0611" rx="12.5062" transform="matrix(0.992482 -0.122021 0.121717 0.99261 148.31 39.4199)" fill="white"/>
<rect width="25.0123" height="40.0611" rx="12.5062" transform="matrix(0.992482 -0.122021 0.121717 0.99261 148.31 39.4199)" fill="white"/>
<rect width="25.0123" height="40.0611" rx="12.5062" transform="matrix(0.992482 -0.122021 0.121717 0.99261 148.31 39.4199)" fill="white"/>
<path fill-rule="evenodd" clip-rule="evenodd" d="M157.129 47.1805C158.47 47.5372 159.525 48.6772 159.704 50.1387L159.949 52.1341C160.172 53.9559 158.954 55.6227 157.189 55.9895C157.795 59.9892 161.479 62.8036 165.52 62.3069C169.633 61.8013 172.558 58.0567 172.054 53.9432L171.474 49.2188C170.97 45.1053 167.227 42.1804 163.114 42.686C160.366 43.0238 158.148 44.8072 157.129 47.1805Z" fill="white"/>
<path fill-rule="evenodd" clip-rule="evenodd" d="M157.129 47.1805C158.47 47.5372 159.525 48.6772 159.704 50.1387L159.949 52.1341C160.172 53.9559 158.954 55.6227 157.189 55.9895C157.795 59.9892 161.479 62.8036 165.52 62.3069C169.633 61.8013 172.558 58.0567 172.054 53.9432L171.474 49.2188C170.97 45.1053 167.227 42.1804 163.114 42.686C160.366 43.0238 158.148 44.8072 157.129 47.1805Z" fill="white"/>
<path fill-rule="evenodd" clip-rule="evenodd" d="M157.129 47.1805C158.47 47.5372 159.525 48.6772 159.704 50.1387L159.949 52.1341C160.172 53.9559 158.954 55.6227 157.189 55.9895C157.795 59.9892 161.479 62.8036 165.52 62.3069C169.633 61.8013 172.558 58.0567 172.054 53.9432L171.474 49.2188C170.97 45.1053 167.227 42.1804 163.114 42.686C160.366 43.0238 158.148 44.8072 157.129 47.1805Z" fill="#353535"/>
<path d="M156.309 75.8411L178.571 66.8363C180.604 71.8748 178.169 77.6113 173.131 79.6491L169.113 81.2745C164.075 83.3122 158.342 80.8797 156.309 75.8411Z" fill="#B6B6B6"/>
<rect width="32.0158" height="40.0611" rx="16.0079" transform="matrix(0.992478 -0.122055 0.121684 0.992614 97.9149 45.213)" fill="white"/>
<rect width="32.0158" height="40.0611" rx="16.0079" transform="matrix(0.992478 -0.122055 0.121684 0.992614 97.9149 45.213)" fill="white"/>
<rect width="32.0158" height="40.0611" rx="16.0079" transform="matrix(0.992478 -0.122055 0.121684 0.992614 97.9149 45.213)" fill="white"/>
<path fill-rule="evenodd" clip-rule="evenodd" d="M112.11 52.1911C113.45 52.5479 114.506 53.6878 114.685 55.1493L114.93 57.1447C115.153 58.9666 113.935 60.6333 112.169 61.0001C112.776 64.9999 116.46 67.8142 120.501 67.3175C124.614 66.8119 127.539 63.0673 127.035 58.9538L126.455 54.2294C125.951 50.1159 122.207 47.1911 118.094 47.6967C115.347 48.0344 113.129 49.8178 112.11 52.1911Z" fill="white"/>
<path fill-rule="evenodd" clip-rule="evenodd" d="M112.11 52.1911C113.45 52.5479 114.506 53.6878 114.685 55.1493L114.93 57.1447C115.153 58.9666 113.935 60.6333 112.169 61.0001C112.776 64.9999 116.46 67.8142 120.501 67.3175C124.614 66.8119 127.539 63.0673 127.035 58.9538L126.455 54.2294C125.951 50.1159 122.207 47.1911 118.094 47.6967C115.347 48.0344 113.129 49.8178 112.11 52.1911Z" fill="white"/>
<path fill-rule="evenodd" clip-rule="evenodd" d="M112.11 52.1911C113.45 52.5479 114.506 53.6878 114.685 55.1493L114.93 57.1447C115.153 58.9666 113.935 60.6333 112.169 61.0001C112.776 64.9999 116.46 67.8142 120.501 67.3175C124.614 66.8119 127.539 63.0673 127.035 58.9538L126.455 54.2294C125.951 50.1159 122.207 47.1911 118.094 47.6967C115.347 48.0344 113.129 49.8178 112.11 52.1911Z" fill="#353535"/>
<path d="M101.601 73.7307L129.461 77.6507C128.709 83.0058 123.76 86.7362 118.406 85.9829L109.933 84.7908C104.58 84.0375 100.849 79.0857 101.601 73.7307Z" fill="#B6B6B6"/>
<rect x="136.593" y="66.4603" width="15.0065" height="25.0397" rx="7.50358" fill="#EF8527"/>
<path d="M138.302 73.4201C137.671 69.7858 140.468 66.4603 144.157 66.4603C147.438 66.4603 150.099 69.1209 150.099 72.403L150.099 84.6063C150.099 87.3072 147.909 89.4968 145.209 89.4968C142.831 89.4968 140.798 87.7863 140.391 85.4433L138.302 73.4201Z" fill="#AB632D"/>
<path d="M135.593 75.4748C135.593 69.9432 140.077 65.4589 145.608 65.4589L148.065 65.4589C153.333 65.4589 157.603 69.7294 157.603 74.9972L157.603 75.4748L135.593 75.4748Z" fill="#F9C03E"/>
<path d="M142.596 70.2198C142.596 69.5652 143.003 68.9798 143.617 68.7522L144.456 68.4413C146.161 67.8091 148.036 67.8091 149.741 68.4413L150.579 68.7522C151.193 68.9798 151.6 69.5652 151.6 70.2198C151.6 71.3102 150.513 72.0664 149.491 71.6874L148.933 71.4804C147.749 71.0415 146.447 71.0415 145.263 71.4804L144.705 71.6874C143.683 72.0664 142.596 71.3102 142.596 70.2198Z" fill="#FDDA37"/>
<path d="M178.049 71.1892L178.049 71.2044V71.2195V71.2291C178.049 71.9472 178.049 73.7119 177.183 76.154C176.312 78.6081 174.541 81.813 170.901 85.3209L170.707 85.4982L171.721 86.6039L170.707 85.4983C169.309 86.7805 167.955 88.0215 166.714 89.0729C165.459 90.1374 164.398 90.9396 163.584 91.3872C162.284 92.1023 158.629 93.6403 153.991 95.0688C149.386 96.487 143.948 97.7545 139.045 98.0118C122.958 97.5501 107.433 93.9158 98.3087 87.9773C97.2011 87.2564 96.0392 86.1142 95.0745 84.7832C94.1071 83.4486 93.4083 82.0214 93.1323 80.7728C92.8801 79.632 92.6018 78.7248 92.3489 77.9004C92.3144 77.788 92.2804 77.6771 92.247 77.5674C91.969 76.6546 91.7215 75.7886 91.528 74.6441C90.6626 69.5258 90.1467 60.8735 90.0797 53.4555C90.0702 52.4059 90.1075 51.4133 90.247 50.4352C90.6785 47.4102 92.0362 40.4239 95.9159 33.4831C99.782 26.5666 106.114 19.7538 116.518 16.8621C118.749 16.2421 120.993 15.646 123.23 15.1201C129.602 13.6222 136.589 13.7943 138.911 14.0295L138.943 14.0328L138.975 14.0346C143.88 14.3186 154.352 16.0243 162.773 21.6356C168.531 25.4727 173.489 30.8479 175.415 38.2025C176.106 40.8424 176.681 43.5144 177.129 46.2031C177.732 49.8232 178.338 56.8696 178.049 71.1892Z" stroke="white" stroke-width="3"/>
<path d="M92.0848 53.7355C92.1644 60.755 92.6991 68.9249 93.6076 73.8832C94.0548 76.3241 94.7502 77.5666 95.3421 79.9766C96.0418 82.8255 98.6712 86.0157 101.183 87.5317C111.092 93.5136 127.9 97.0683 145.097 97.5098C155.794 97.0147 168.607 92.5018 171.609 90.9994C173.612 89.9966 176.469 87.6128 179.395 85.1714L179.612 84.9899C187.616 77.9788 187.616 71.9693 187.616 70.4669C187.903 57.5295 187.201 50.8639 186.456 47.2486C185.847 44.29 185.074 41.364 184.186 38.4768C178.652 20.4774 153.913 14.8425 145.097 14.3779C142.489 14.1374 134.713 13.9661 127.693 15.5426C125.603 16.012 123.51 16.5207 121.429 17.0245C98.4779 22.5784 93.3388 43.8692 92.3103 50.1706C92.1172 51.3533 92.0713 52.5373 92.0848 53.7355Z" fill="#2BA6F0" fill-opacity="0.3"/>
<rect x="153.601" y="105.522" width="15.0065" height="10.0159" rx="5.00794" fill="#244982"/>
<ellipse cx="124.588" cy="32.4064" rx="9.00388" ry="9.0143" fill="white"/>
<path d="M122.088 112.533C122.088 118.345 117.383 123.053 111.583 123.053C105.783 123.053 101.078 118.345 101.078 112.533C101.078 106.722 105.783 102.014 111.583 102.014C117.383 102.014 122.088 106.722 122.088 112.533Z" fill="white" stroke="#244982" stroke-width="3"/>
<path d="M111.577 109.488C113.776 108.645 116.044 110.548 115.596 112.859L113.76 122.33C113.373 124.325 110.601 124.538 109.913 122.626L108.279 118.083C108.155 117.741 107.856 117.492 107.497 117.434L103.106 116.726C101.088 116.4 100.801 113.616 102.709 112.885L111.577 109.488Z" fill="#244982"/>
</svg>
