<svg width="256" height="256" viewBox="0 0 256 256" fill="none" xmlns="http://www.w3.org/2000/svg">
<ellipse rx="91.0768" ry="91.107" transform="matrix(0.802233 0.597012 -0.597343 0.801986 127.563 128.424)" fill="#2BA6F0"/>
<path fill-rule="evenodd" clip-rule="evenodd" d="M48.2227 173.239L123.576 63.9178C137.935 66.1889 158.882 70.9417 172.097 79.4424L177.599 83.9497C195.092 95.2232 197.165 108.591 199.656 124.645C200.529 130.272 201.453 136.23 203.11 142.543L159.741 213.799C131.698 224.37 99.0309 220.874 73.2108 201.628C62.6508 193.757 54.2831 184.032 48.2227 173.239Z" fill="#45B5F3"/>
<path fill-rule="evenodd" clip-rule="evenodd" d="M89.9 195.186C87.4519 198.868 88.45 203.84 92.1293 206.293C95.7312 208.693 100.567 207.789 103.066 204.296C103.614 205.06 104.306 205.74 105.135 206.293C108.814 208.745 113.782 207.749 116.23 204.067L122.888 194.055C125.336 190.373 124.338 185.401 120.659 182.949C117.057 180.548 112.221 181.452 109.722 184.945C109.174 184.181 108.482 183.501 107.653 182.949C103.974 180.496 99.0066 181.492 96.5584 185.174L89.9 195.186Z" fill="#244982"/>
<rect width="6.00494" height="6.00542" rx="1" transform="matrix(0.695875 -0.718236 0.717355 0.696631 72.5536 190.926)" fill="#70C8F5"/>
<rect width="10.0144" height="10.0058" rx="2" transform="matrix(0.437929 -0.898926 0.898661 0.438814 59.548 98.4608)" fill="#7DCEF6"/>
<path d="M174.279 189.159C167.415 187.446 146.265 155.76 169.271 122.686C190.28 108.1 214.875 127.931 205.705 142.795C196.535 157.659 183.001 188.586 174.279 189.159Z" fill="#2858A1"/>
<path fill-rule="evenodd" clip-rule="evenodd" d="M92.4744 83.9084C90.0223 55.8488 110.781 31.1097 138.84 28.652L151.353 27.556C179.412 25.0983 204.146 45.8527 206.598 73.9123L210.361 116.977C212.205 138.077 200.925 157.299 183.284 166.582C173.89 174.062 161.997 178.531 149.061 178.531C127.837 178.531 109.42 166.501 100.242 148.881C85.5027 154.161 71.6854 151.561 68.9561 148.509C66.3552 142.685 76.8098 127.061 86.0938 113.186C88.9767 108.878 91.7467 104.739 93.9779 101.113L92.4744 83.9084Z" fill="#3066BA"/>
<path d="M144.585 28.3625C153.589 27.3604 154.089 27.3603 164.594 28.3625C202.61 79.9439 178.6 144.045 161.592 157.567C156.154 158.157 147.586 158.068 147.586 156.565C147.586 156.061 162.867 130.147 164.594 100.977C166.295 72.2248 154.517 40.2946 144.585 28.3625Z" fill="white"/>
<path d="M95.2605 113.858C98.9647 116.266 100.018 121.224 97.614 124.93L94.3339 129.987C91.9295 133.694 86.9775 134.746 83.2732 132.338L76.5558 127.971L88.543 109.491L95.2605 113.858Z" fill="#244982"/>
<path d="M116.58 77.469C116.647 84.9147 117.164 93.6595 118.049 98.8941C118.468 101.371 119.125 102.644 119.668 105.097C120.333 108.105 122.908 111.554 125.49 113.235C134.957 119.396 150.827 123.055 167.062 123.513C177.248 122.995 189.449 118.273 192.307 116.701C194.214 115.652 196.935 113.158 199.721 110.604L199.928 110.414C207.549 103.079 207.549 96.7914 207.549 95.2195C207.839 80.8636 207.234 73.7107 206.608 69.9567C206.153 67.2216 205.568 64.505 204.866 61.8226C202.819 54.004 197.56 48.3561 191.605 44.3873C182.874 38.5691 172.101 36.8289 167.062 36.5371C164.628 36.2905 157.465 36.1134 150.887 37.6599C148.623 38.1922 146.358 38.794 144.117 39.4169C122.34 45.4692 117.652 67.9872 116.762 74.2234C116.608 75.3035 116.57 76.378 116.58 77.469Z" fill="#3066BA"/>
<ellipse rx="43.7204" ry="30.6922" transform="matrix(0.999847 -0.0174726 0.0174322 0.999848 161.605 92.0655)" fill="white"/>
<path d="M119.09 72.1679C118.975 68.7198 119.652 65.2833 121.305 62.2544C124.473 56.4467 130.326 47.0105 135.995 44.6909C138.014 43.8646 140.199 44.7289 142.19 45.6199C142.76 45.8749 143.337 46.1265 143.917 46.3737C153.73 50.5532 164.841 49.447 174.42 44.7547C187.119 38.5341 201.807 48.317 200.959 62.4315L198.106 109.99L120.072 101.478L119.09 72.1679Z" fill="white"/>
<path d="M131.68 57.2968C128.763 58.1682 129.859 67.1071 129.859 67.1071L156.459 103.193L173.598 105.484C173.598 105.484 170.449 75.885 169.596 68.9261C155.633 70.138 145.712 52.5446 141.122 52.0997C136.47 51.1578 139.788 61.7746 138.308 62.0321C135.175 62.577 135.591 56.3115 131.68 57.2968Z" fill="#B6B6B6"/>
<rect x="177.629" y="56.0908" width="28.5407" height="55.4753" rx="14.271" fill="#B6B6B6"/>
<rect width="44.7798" height="53.1136" rx="20" transform="matrix(0.990244 -0.139391 0.138956 0.990292 116.503 67.3847)" fill="#B6B6B6"/>
<path d="M196.039 48.8802C198.905 48.7608 202.67 66.0804 202.67 66.0804L191.032 96.4038L173.214 105.496C173.214 105.496 170.302 75.481 168.929 69.0154C180.453 64.0036 185.082 47.9524 189.037 46.1455C192.893 43.877 193.086 53.2065 194.484 52.9812C197.443 52.5044 192.251 49.2034 196.039 48.8802Z" fill="#B6B6B6"/>
<rect width="25.0123" height="40.0611" rx="12.5062" transform="matrix(0.992482 -0.122021 0.121717 0.99261 176.31 63.4199)" fill="white"/>
<rect width="25.0123" height="40.0611" rx="12.5062" transform="matrix(0.992482 -0.122021 0.121717 0.99261 176.31 63.4199)" fill="white"/>
<rect width="25.0123" height="40.0611" rx="12.5062" transform="matrix(0.992482 -0.122021 0.121717 0.99261 176.31 63.4199)" fill="white"/>
<path fill-rule="evenodd" clip-rule="evenodd" d="M185.129 71.1805C186.47 71.5372 187.525 72.6772 187.704 74.1387L187.949 76.1341C188.172 77.9559 186.954 79.6227 185.189 79.9895C185.795 83.9892 189.479 86.8036 193.52 86.3069C197.633 85.8013 200.558 82.0567 200.054 77.9432L199.474 73.2188C198.97 69.1053 195.227 66.1804 191.114 66.686C188.366 67.0238 186.148 68.8072 185.129 71.1805Z" fill="white"/>
<path fill-rule="evenodd" clip-rule="evenodd" d="M185.129 71.1805C186.47 71.5372 187.525 72.6772 187.704 74.1387L187.949 76.1341C188.172 77.9559 186.954 79.6227 185.189 79.9895C185.795 83.9892 189.479 86.8036 193.52 86.3069C197.633 85.8013 200.558 82.0567 200.054 77.9432L199.474 73.2188C198.97 69.1053 195.227 66.1804 191.114 66.686C188.366 67.0238 186.148 68.8072 185.129 71.1805Z" fill="white"/>
<path fill-rule="evenodd" clip-rule="evenodd" d="M185.129 71.1805C186.47 71.5372 187.525 72.6772 187.704 74.1387L187.949 76.1341C188.172 77.9559 186.954 79.6227 185.189 79.9895C185.795 83.9892 189.479 86.8036 193.52 86.3069C197.633 85.8013 200.558 82.0567 200.054 77.9432L199.474 73.2188C198.97 69.1053 195.227 66.1804 191.114 66.686C188.366 67.0238 186.148 68.8072 185.129 71.1805Z" fill="#353535"/>
<path d="M184.309 99.8411L206.571 90.8363C208.604 95.8748 206.169 101.611 201.131 103.649L197.113 105.274C192.075 107.312 186.342 104.88 184.309 99.8411Z" fill="#B6B6B6"/>
<rect width="32.0158" height="40.0611" rx="16.0079" transform="matrix(0.992478 -0.122055 0.121684 0.992614 125.915 69.213)" fill="white"/>
<rect width="32.0158" height="40.0611" rx="16.0079" transform="matrix(0.992478 -0.122055 0.121684 0.992614 125.915 69.213)" fill="white"/>
<rect width="32.0158" height="40.0611" rx="16.0079" transform="matrix(0.992478 -0.122055 0.121684 0.992614 125.915 69.213)" fill="white"/>
<path fill-rule="evenodd" clip-rule="evenodd" d="M140.11 76.1911C141.45 76.5479 142.506 77.6878 142.685 79.1493L142.93 81.1447C143.153 82.9666 141.935 84.6333 140.169 85.0001C140.776 88.9999 144.46 91.8142 148.501 91.3175C152.614 90.8119 155.539 87.0673 155.035 82.9538L154.455 78.2294C153.951 74.1159 150.207 71.1911 146.094 71.6967C143.347 72.0344 141.129 73.8178 140.11 76.1911Z" fill="white"/>
<path fill-rule="evenodd" clip-rule="evenodd" d="M140.11 76.1911C141.45 76.5479 142.506 77.6878 142.685 79.1493L142.93 81.1447C143.153 82.9666 141.935 84.6333 140.169 85.0001C140.776 88.9999 144.46 91.8142 148.501 91.3175C152.614 90.8119 155.539 87.0673 155.035 82.9538L154.455 78.2294C153.951 74.1159 150.207 71.1911 146.094 71.6967C143.347 72.0344 141.129 73.8178 140.11 76.1911Z" fill="white"/>
<path fill-rule="evenodd" clip-rule="evenodd" d="M140.11 76.1911C141.45 76.5479 142.506 77.6878 142.685 79.1493L142.93 81.1447C143.153 82.9666 141.935 84.6333 140.169 85.0001C140.776 88.9999 144.46 91.8142 148.501 91.3175C152.614 90.8119 155.539 87.0673 155.035 82.9538L154.455 78.2294C153.951 74.1159 150.207 71.1911 146.094 71.6967C143.347 72.0344 141.129 73.8178 140.11 76.1911Z" fill="#353535"/>
<path d="M129.601 97.7307L157.461 101.651C156.709 107.006 151.76 110.736 146.406 109.983L137.933 108.791C132.58 108.037 128.849 103.086 129.601 97.7307Z" fill="#B6B6B6"/>
<rect x="164.593" y="90.4603" width="15.0065" height="25.0397" rx="7.50358" fill="#EF8527"/>
<path d="M166.302 97.4201C165.671 93.7858 168.468 90.4603 172.157 90.4603C175.438 90.4603 178.099 93.1209 178.099 96.403L178.099 108.606C178.099 111.307 175.909 113.497 173.209 113.497C170.831 113.497 168.798 111.786 168.391 109.443L166.302 97.4201Z" fill="#AB632D"/>
<path d="M163.593 99.4748C163.593 93.9432 168.077 89.4589 173.608 89.4589L176.065 89.4589C181.333 89.4589 185.603 93.7294 185.603 98.9972L185.603 99.4748L163.593 99.4748Z" fill="#F9C03E"/>
<path d="M170.596 94.2198C170.596 93.5652 171.003 92.9798 171.617 92.7522L172.456 92.4413C174.161 91.8091 176.036 91.8091 177.741 92.4413L178.579 92.7522C179.193 92.9798 179.6 93.5652 179.6 94.2198C179.6 95.3102 178.513 96.0664 177.491 95.6874L176.933 95.4804C175.749 95.0415 174.447 95.0415 173.263 95.4804L172.705 95.6874C171.683 96.0664 170.596 95.3102 170.596 94.2198Z" fill="#FDDA37"/>
<path d="M206.049 95.1892L206.049 95.2044V95.2195V95.2291C206.049 95.9472 206.049 97.7119 205.183 100.154C204.312 102.608 202.541 105.813 198.901 109.321L198.707 109.498L199.721 110.604L198.707 109.498C197.309 110.78 195.955 112.021 194.714 113.073C193.459 114.137 192.398 114.94 191.584 115.387C190.284 116.102 186.629 117.64 181.991 119.069C177.386 120.487 171.948 121.755 167.045 122.012C150.958 121.55 135.433 117.916 126.309 111.977C125.201 111.256 124.039 110.114 123.074 108.783C122.107 107.449 121.408 106.021 121.132 104.773C120.88 103.632 120.602 102.725 120.349 101.9C120.314 101.788 120.28 101.677 120.247 101.567C119.969 100.655 119.721 99.7886 119.528 98.6441C118.663 93.5258 118.147 84.8735 118.08 77.4555C118.07 76.4059 118.108 75.4133 118.247 74.4352C118.679 71.4102 120.036 64.4239 123.916 57.4831C127.782 50.5666 134.114 43.7538 144.518 40.8621C146.749 40.2421 148.993 39.646 151.23 39.1201C157.602 37.6222 164.589 37.7943 166.911 38.0295L166.943 38.0328L166.975 38.0346C171.88 38.3186 182.352 40.0243 190.773 45.6356C196.531 49.4727 201.489 54.8479 203.415 62.2025C204.106 64.8424 204.681 67.5144 205.129 70.2031C205.732 73.8232 206.338 80.8696 206.049 95.1892Z" stroke="white" stroke-width="3"/>
<path d="M120.085 77.7355C120.164 84.755 120.699 92.9249 121.608 97.8832C122.055 100.324 122.75 101.567 123.342 103.977C124.042 106.826 126.671 110.016 129.183 111.532C139.092 117.514 155.9 121.068 173.097 121.51C183.794 121.015 196.607 116.502 199.609 114.999C201.612 113.997 204.469 111.613 207.395 109.171L207.612 108.99C215.616 101.979 215.616 95.9693 215.616 94.4669C215.903 81.5295 215.201 74.8639 214.456 71.2486C213.847 68.29 213.074 65.364 212.186 62.4768C206.652 44.4774 181.913 38.8425 173.097 38.3779C170.489 38.1374 162.713 37.9661 155.693 39.5426C153.603 40.012 151.51 40.5207 149.429 41.0245C126.478 46.5784 121.339 67.8692 120.31 74.1706C120.117 75.3533 120.071 76.5373 120.085 77.7355Z" fill="#2BA6F0" fill-opacity="0.3"/>
<rect x="181.601" y="129.522" width="15.0065" height="10.0159" rx="5.00794" fill="#244982"/>
<ellipse cx="152.588" cy="56.4064" rx="9.00388" ry="9.0143" fill="white"/>
<path d="M150.088 136.533C150.088 142.345 145.383 147.053 139.583 147.053C133.783 147.053 129.078 142.345 129.078 136.533C129.078 130.722 133.783 126.014 139.583 126.014C145.383 126.014 150.088 130.722 150.088 136.533Z" fill="white" stroke="#244982" stroke-width="3"/>
<path d="M139.577 133.488C141.776 132.645 144.044 134.548 143.596 136.859L141.76 146.33C141.373 148.325 138.601 148.538 137.913 146.626L136.279 142.083C136.155 141.741 135.856 141.492 135.497 141.434L131.106 140.726C129.088 140.4 128.801 137.616 130.709 136.885L139.577 133.488Z" fill="#244982"/>
</svg>
